<svg width="1440" height="555" viewBox="0 0 1440 555" fill="none" xmlns="http://www.w3.org/2000/svg">
  <g clip-path="url(#clip0_3933_3135)">
    <rect width="1440" height="555" fill="black" />
    <path d="M897 217V320C897 328.837 889.837 336 881 336H739C730.163 336 723 343.163 723 352V399"
      stroke="#333333" stroke-width="1.5" />
    <path d="M723 217L723 399" stroke="#333333" stroke-width="1.5" />
    <path
      d="M1060.5 216.5V320C1060.5 328.837 1053.34 336 1044.5 336H739C730.163 336 723 343.163 723 352V399"
      stroke="#333333" stroke-width="1.5" />
    <g filter="url(#filter0_ddd_3933_3135)">
      <path
        d="M386 217V320C386 328.837 393.163 336 402 336H707.5C716.337 336 723.5 343.163 723.5 352V399"
        stroke="url(#paint0_linear_3933_3135)" stroke-width="1.5" />
    </g>
    <g filter="url(#filter1_ddd_3933_3135)">
      <path d="M549 217V320C549 328.837 556.163 336 565 336H707C715.837 336 723 343.163 723 352V399"
        stroke="url(#paint1_linear_3933_3135)" stroke-width="1.5" />
    </g>
    <g filter="url(#filter2_ddd_3933_3135)">
      <circle cx="723" cy="378" r="6" fill="#D8D3FF" />
    </g>
    <g filter="url(#filter3_ddd_3933_3135)">
      <circle cx="619" cy="336" r="6" fill="#6FE2FF" />
    </g>
    <g filter="url(#filter4_ddd_3933_3135)">
      <circle cx="385" cy="299" r="6" fill="#FFBA6A" />
    </g>
    <g filter="url(#filter5_b_3933_3135)">
      <rect x="280" y="64.5" width="878" height="214" fill="white" fill-opacity="0.1" />
      <rect x="280.75" y="65.25" width="876.5" height="212.5" stroke="url(#paint2_linear_3933_3135)"
        stroke-width="1.5" />
      <rect x="312.75" y="97.25" width="148.5" height="118.5" fill="black"
        stroke="url(#paint3_linear_3933_3135)" stroke-width="1.5" />
      <path d="M312.75 217.25H461.25V245.75H312.75V217.25Z" fill="black" />
      <path d="M312.75 217.25H461.25V245.75H312.75V217.25Z" stroke="url(#paint4_linear_3933_3135)"
        stroke-width="1.5" />
      <path
        d="M346.287 236.5L345.517 226.728H346.567L346.973 232.328L347.183 235.282H347.295L348.583 229.276H349.899L351.187 235.282H351.299L351.509 232.328L351.915 226.728H352.937L352.167 236.5H350.473L349.283 230.662H349.171L347.981 236.5H346.287ZM357.748 236.668C357.225 236.668 356.754 236.579 356.334 236.402C355.923 236.225 355.569 235.973 355.27 235.646C354.981 235.31 354.757 234.913 354.598 234.456C354.439 233.989 354.36 233.471 354.36 232.902C354.36 232.323 354.439 231.801 354.598 231.334C354.766 230.867 354.995 230.471 355.284 230.144C355.573 229.808 355.919 229.551 356.32 229.374C356.731 229.197 357.183 229.108 357.678 229.108C358.163 229.108 358.602 229.197 358.994 229.374C359.395 229.551 359.736 229.799 360.016 230.116C360.296 230.424 360.511 230.793 360.66 231.222C360.809 231.651 360.884 232.123 360.884 232.636V233.168H355.536V233.504C355.536 233.821 355.587 234.115 355.69 234.386C355.793 234.657 355.937 234.89 356.124 235.086C356.32 235.282 356.553 235.436 356.824 235.548C357.104 235.651 357.412 235.702 357.748 235.702C358.233 235.702 358.653 235.59 359.008 235.366C359.363 235.142 359.633 234.834 359.82 234.442L360.646 235.002C360.431 235.487 360.072 235.889 359.568 236.206C359.073 236.514 358.467 236.668 357.748 236.668ZM357.678 230.032C357.37 230.032 357.085 230.088 356.824 230.2C356.563 230.312 356.334 230.466 356.138 230.662C355.951 230.858 355.802 231.091 355.69 231.362C355.587 231.623 355.536 231.913 355.536 232.23V232.328H359.68V232.174C359.68 231.857 359.629 231.567 359.526 231.306C359.433 231.045 359.297 230.821 359.12 230.634C358.952 230.438 358.742 230.289 358.49 230.186C358.247 230.083 357.977 230.032 357.678 230.032ZM363.146 226.14H364.266V230.452H364.322C364.789 229.556 365.531 229.108 366.548 229.108C367.435 229.108 368.126 229.439 368.62 230.102C369.124 230.765 369.376 231.693 369.376 232.888C369.376 234.083 369.124 235.011 368.62 235.674C368.126 236.337 367.435 236.668 366.548 236.668C365.531 236.668 364.789 236.22 364.322 235.324H364.266V236.5H363.146V226.14ZM366.114 235.674C366.768 235.674 367.272 235.478 367.626 235.086C367.99 234.685 368.172 234.157 368.172 233.504V232.272C368.172 231.619 367.99 231.096 367.626 230.704C367.272 230.303 366.768 230.102 366.114 230.102C365.862 230.102 365.624 230.135 365.4 230.2C365.176 230.265 364.98 230.363 364.812 230.494C364.644 230.615 364.509 230.769 364.406 230.956C364.313 231.133 364.266 231.343 364.266 231.586V234.19C364.266 234.433 364.313 234.647 364.406 234.834C364.509 235.011 364.644 235.165 364.812 235.296C364.98 235.417 365.176 235.511 365.4 235.576C365.624 235.641 365.862 235.674 366.114 235.674ZM382.889 236.668C382.133 236.668 381.48 236.542 380.929 236.29C380.388 236.029 379.926 235.683 379.543 235.254L380.299 234.596C380.645 234.96 381.023 235.24 381.433 235.436C381.844 235.632 382.339 235.73 382.917 235.73C383.477 235.73 383.935 235.632 384.289 235.436C384.653 235.231 384.835 234.913 384.835 234.484C384.835 234.297 384.798 234.143 384.723 234.022C384.658 233.891 384.565 233.789 384.443 233.714C384.322 233.639 384.187 233.583 384.037 233.546C383.888 233.499 383.729 233.462 383.561 233.434L382.427 233.266C382.175 233.229 381.9 233.177 381.601 233.112C381.312 233.047 381.046 232.944 380.803 232.804C380.561 232.655 380.355 232.459 380.187 232.216C380.029 231.973 379.949 231.656 379.949 231.264C379.949 230.9 380.019 230.587 380.159 230.326C380.309 230.055 380.514 229.831 380.775 229.654C381.037 229.467 381.345 229.332 381.699 229.248C382.054 229.155 382.441 229.108 382.861 229.108C383.515 229.108 384.079 229.211 384.555 229.416C385.041 229.621 385.456 229.906 385.801 230.27L385.073 230.956C384.989 230.853 384.882 230.751 384.751 230.648C384.63 230.536 384.476 230.438 384.289 230.354C384.112 230.261 383.902 230.186 383.659 230.13C383.417 230.074 383.137 230.046 382.819 230.046C382.25 230.046 381.811 230.144 381.503 230.34C381.205 230.536 381.055 230.821 381.055 231.194C381.055 231.381 381.088 231.539 381.153 231.67C381.228 231.791 381.326 231.889 381.447 231.964C381.569 232.039 381.704 232.099 381.853 232.146C382.012 232.183 382.171 232.216 382.329 232.244L383.463 232.412C383.725 232.449 384 232.501 384.289 232.566C384.579 232.631 384.845 232.739 385.087 232.888C385.33 233.028 385.531 233.219 385.689 233.462C385.857 233.705 385.941 234.022 385.941 234.414C385.941 235.133 385.661 235.688 385.101 236.08C384.551 236.472 383.813 236.668 382.889 236.668ZM391.326 236.668C390.803 236.668 390.332 236.579 389.912 236.402C389.501 236.225 389.147 235.973 388.848 235.646C388.559 235.31 388.335 234.913 388.176 234.456C388.017 233.989 387.938 233.471 387.938 232.902C387.938 232.323 388.017 231.801 388.176 231.334C388.344 230.867 388.573 230.471 388.862 230.144C389.151 229.808 389.497 229.551 389.898 229.374C390.309 229.197 390.761 229.108 391.256 229.108C391.741 229.108 392.18 229.197 392.572 229.374C392.973 229.551 393.314 229.799 393.594 230.116C393.874 230.424 394.089 230.793 394.238 231.222C394.387 231.651 394.462 232.123 394.462 232.636V233.168H389.114V233.504C389.114 233.821 389.165 234.115 389.268 234.386C389.371 234.657 389.515 234.89 389.702 235.086C389.898 235.282 390.131 235.436 390.402 235.548C390.682 235.651 390.99 235.702 391.326 235.702C391.811 235.702 392.231 235.59 392.586 235.366C392.941 235.142 393.211 234.834 393.398 234.442L394.224 235.002C394.009 235.487 393.65 235.889 393.146 236.206C392.651 236.514 392.045 236.668 391.326 236.668ZM391.256 230.032C390.948 230.032 390.663 230.088 390.402 230.2C390.141 230.312 389.912 230.466 389.716 230.662C389.529 230.858 389.38 231.091 389.268 231.362C389.165 231.623 389.114 231.913 389.114 232.23V232.328H393.258V232.174C393.258 231.857 393.207 231.567 393.104 231.306C393.011 231.045 392.875 230.821 392.698 230.634C392.53 230.438 392.32 230.289 392.068 230.186C391.825 230.083 391.555 230.032 391.256 230.032ZM396.473 235.548H398.587V230.228H396.473V229.276H399.707V231.096H399.777C399.926 230.527 400.206 230.083 400.617 229.766C401.037 229.439 401.569 229.276 402.213 229.276H403.221V230.396H401.863C401.219 230.396 400.696 230.583 400.295 230.956C399.903 231.329 399.707 231.819 399.707 232.426V235.548H402.507V236.5H396.473V235.548ZM407.275 236.5L404.685 229.276H405.819L406.855 232.3L407.975 235.562H408.031L409.151 232.3L410.187 229.276H411.293L408.703 236.5H407.275ZM416.51 236.668C415.987 236.668 415.516 236.579 415.096 236.402C414.685 236.225 414.33 235.973 414.032 235.646C413.742 235.31 413.518 234.913 413.36 234.456C413.201 233.989 413.122 233.471 413.122 232.902C413.122 232.323 413.201 231.801 413.36 231.334C413.528 230.867 413.756 230.471 414.046 230.144C414.335 229.808 414.68 229.551 415.082 229.374C415.492 229.197 415.945 229.108 416.44 229.108C416.925 229.108 417.364 229.197 417.756 229.374C418.157 229.551 418.498 229.799 418.778 230.116C419.058 230.424 419.272 230.793 419.422 231.222C419.571 231.651 419.646 232.123 419.646 232.636V233.168H414.298V233.504C414.298 233.821 414.349 234.115 414.452 234.386C414.554 234.657 414.699 234.89 414.886 235.086C415.082 235.282 415.315 235.436 415.586 235.548C415.866 235.651 416.174 235.702 416.51 235.702C416.995 235.702 417.415 235.59 417.77 235.366C418.124 235.142 418.395 234.834 418.582 234.442L419.408 235.002C419.193 235.487 418.834 235.889 418.33 236.206C417.835 236.514 417.228 236.668 416.51 236.668ZM416.44 230.032C416.132 230.032 415.847 230.088 415.586 230.2C415.324 230.312 415.096 230.466 414.9 230.662C414.713 230.858 414.564 231.091 414.452 231.362C414.349 231.623 414.298 231.913 414.298 232.23V232.328H418.442V232.174C418.442 231.857 418.39 231.567 418.288 231.306C418.194 231.045 418.059 230.821 417.882 230.634C417.714 230.438 417.504 230.289 417.252 230.186C417.009 230.083 416.738 230.032 416.44 230.032ZM421.656 235.548H423.77V230.228H421.656V229.276H424.89V231.096H424.96C425.109 230.527 425.389 230.083 425.8 229.766C426.22 229.439 426.752 229.276 427.396 229.276H428.404V230.396H427.046C426.402 230.396 425.879 230.583 425.478 230.956C425.086 231.329 424.89 231.819 424.89 232.426V235.548H427.69V236.5H421.656V235.548Z"
        fill="white" fill-opacity="0.6" />
      <rect x="478.75" y="97.25" width="148.5" height="118.5" fill="black"
        stroke="url(#paint5_linear_3933_3135)" stroke-width="1.5" />
      <path d="M478.75 217.25H627.25V245.75H478.75V217.25Z" fill="black" />
      <path d="M478.75 217.25H627.25V245.75H478.75V217.25Z" stroke="url(#paint6_linear_3933_3135)"
        stroke-width="1.5" />
      <path
        d="M512.287 236.5L511.517 226.728H512.567L512.973 232.328L513.183 235.282H513.295L514.583 229.276H515.899L517.187 235.282H517.299L517.509 232.328L517.915 226.728H518.937L518.167 236.5H516.473L515.283 230.662H515.171L513.981 236.5H512.287ZM523.748 236.668C523.225 236.668 522.754 236.579 522.334 236.402C521.923 236.225 521.569 235.973 521.27 235.646C520.981 235.31 520.757 234.913 520.598 234.456C520.439 233.989 520.36 233.471 520.36 232.902C520.36 232.323 520.439 231.801 520.598 231.334C520.766 230.867 520.995 230.471 521.284 230.144C521.573 229.808 521.919 229.551 522.32 229.374C522.731 229.197 523.183 229.108 523.678 229.108C524.163 229.108 524.602 229.197 524.994 229.374C525.395 229.551 525.736 229.799 526.016 230.116C526.296 230.424 526.511 230.793 526.66 231.222C526.809 231.651 526.884 232.123 526.884 232.636V233.168H521.536V233.504C521.536 233.821 521.587 234.115 521.69 234.386C521.793 234.657 521.937 234.89 522.124 235.086C522.32 235.282 522.553 235.436 522.824 235.548C523.104 235.651 523.412 235.702 523.748 235.702C524.233 235.702 524.653 235.59 525.008 235.366C525.363 235.142 525.633 234.834 525.82 234.442L526.646 235.002C526.431 235.487 526.072 235.889 525.568 236.206C525.073 236.514 524.467 236.668 523.748 236.668ZM523.678 230.032C523.37 230.032 523.085 230.088 522.824 230.2C522.563 230.312 522.334 230.466 522.138 230.662C521.951 230.858 521.802 231.091 521.69 231.362C521.587 231.623 521.536 231.913 521.536 232.23V232.328H525.68V232.174C525.68 231.857 525.629 231.567 525.526 231.306C525.433 231.045 525.297 230.821 525.12 230.634C524.952 230.438 524.742 230.289 524.49 230.186C524.247 230.083 523.977 230.032 523.678 230.032ZM529.146 226.14H530.266V230.452H530.322C530.789 229.556 531.531 229.108 532.548 229.108C533.435 229.108 534.126 229.439 534.62 230.102C535.124 230.765 535.376 231.693 535.376 232.888C535.376 234.083 535.124 235.011 534.62 235.674C534.126 236.337 533.435 236.668 532.548 236.668C531.531 236.668 530.789 236.22 530.322 235.324H530.266V236.5H529.146V226.14ZM532.114 235.674C532.768 235.674 533.272 235.478 533.626 235.086C533.99 234.685 534.172 234.157 534.172 233.504V232.272C534.172 231.619 533.99 231.096 533.626 230.704C533.272 230.303 532.768 230.102 532.114 230.102C531.862 230.102 531.624 230.135 531.4 230.2C531.176 230.265 530.98 230.363 530.812 230.494C530.644 230.615 530.509 230.769 530.406 230.956C530.313 231.133 530.266 231.343 530.266 231.586V234.19C530.266 234.433 530.313 234.647 530.406 234.834C530.509 235.011 530.644 235.165 530.812 235.296C530.98 235.417 531.176 235.511 531.4 235.576C531.624 235.641 531.862 235.674 532.114 235.674ZM548.889 236.668C548.133 236.668 547.48 236.542 546.929 236.29C546.388 236.029 545.926 235.683 545.543 235.254L546.299 234.596C546.645 234.96 547.023 235.24 547.433 235.436C547.844 235.632 548.339 235.73 548.917 235.73C549.477 235.73 549.935 235.632 550.289 235.436C550.653 235.231 550.835 234.913 550.835 234.484C550.835 234.297 550.798 234.143 550.723 234.022C550.658 233.891 550.565 233.789 550.443 233.714C550.322 233.639 550.187 233.583 550.037 233.546C549.888 233.499 549.729 233.462 549.561 233.434L548.427 233.266C548.175 233.229 547.9 233.177 547.601 233.112C547.312 233.047 547.046 232.944 546.803 232.804C546.561 232.655 546.355 232.459 546.187 232.216C546.029 231.973 545.949 231.656 545.949 231.264C545.949 230.9 546.019 230.587 546.159 230.326C546.309 230.055 546.514 229.831 546.775 229.654C547.037 229.467 547.345 229.332 547.699 229.248C548.054 229.155 548.441 229.108 548.861 229.108C549.515 229.108 550.079 229.211 550.555 229.416C551.041 229.621 551.456 229.906 551.801 230.27L551.073 230.956C550.989 230.853 550.882 230.751 550.751 230.648C550.63 230.536 550.476 230.438 550.289 230.354C550.112 230.261 549.902 230.186 549.659 230.13C549.417 230.074 549.137 230.046 548.819 230.046C548.25 230.046 547.811 230.144 547.503 230.34C547.205 230.536 547.055 230.821 547.055 231.194C547.055 231.381 547.088 231.539 547.153 231.67C547.228 231.791 547.326 231.889 547.447 231.964C547.569 232.039 547.704 232.099 547.853 232.146C548.012 232.183 548.171 232.216 548.329 232.244L549.463 232.412C549.725 232.449 550 232.501 550.289 232.566C550.579 232.631 550.845 232.739 551.087 232.888C551.33 233.028 551.531 233.219 551.689 233.462C551.857 233.705 551.941 234.022 551.941 234.414C551.941 235.133 551.661 235.688 551.101 236.08C550.551 236.472 549.813 236.668 548.889 236.668ZM557.326 236.668C556.803 236.668 556.332 236.579 555.912 236.402C555.501 236.225 555.147 235.973 554.848 235.646C554.559 235.31 554.335 234.913 554.176 234.456C554.017 233.989 553.938 233.471 553.938 232.902C553.938 232.323 554.017 231.801 554.176 231.334C554.344 230.867 554.573 230.471 554.862 230.144C555.151 229.808 555.497 229.551 555.898 229.374C556.309 229.197 556.761 229.108 557.256 229.108C557.741 229.108 558.18 229.197 558.572 229.374C558.973 229.551 559.314 229.799 559.594 230.116C559.874 230.424 560.089 230.793 560.238 231.222C560.387 231.651 560.462 232.123 560.462 232.636V233.168H555.114V233.504C555.114 233.821 555.165 234.115 555.268 234.386C555.371 234.657 555.515 234.89 555.702 235.086C555.898 235.282 556.131 235.436 556.402 235.548C556.682 235.651 556.99 235.702 557.326 235.702C557.811 235.702 558.231 235.59 558.586 235.366C558.941 235.142 559.211 234.834 559.398 234.442L560.224 235.002C560.009 235.487 559.65 235.889 559.146 236.206C558.651 236.514 558.045 236.668 557.326 236.668ZM557.256 230.032C556.948 230.032 556.663 230.088 556.402 230.2C556.141 230.312 555.912 230.466 555.716 230.662C555.529 230.858 555.38 231.091 555.268 231.362C555.165 231.623 555.114 231.913 555.114 232.23V232.328H559.258V232.174C559.258 231.857 559.207 231.567 559.104 231.306C559.011 231.045 558.875 230.821 558.698 230.634C558.53 230.438 558.32 230.289 558.068 230.186C557.825 230.083 557.555 230.032 557.256 230.032ZM562.473 235.548H564.587V230.228H562.473V229.276H565.707V231.096H565.777C565.926 230.527 566.206 230.083 566.617 229.766C567.037 229.439 567.569 229.276 568.213 229.276H569.221V230.396H567.863C567.219 230.396 566.696 230.583 566.295 230.956C565.903 231.329 565.707 231.819 565.707 232.426V235.548H568.507V236.5H562.473V235.548ZM573.275 236.5L570.685 229.276H571.819L572.855 232.3L573.975 235.562H574.031L575.151 232.3L576.187 229.276H577.293L574.703 236.5H573.275ZM582.51 236.668C581.987 236.668 581.516 236.579 581.096 236.402C580.685 236.225 580.33 235.973 580.032 235.646C579.742 235.31 579.518 234.913 579.36 234.456C579.201 233.989 579.122 233.471 579.122 232.902C579.122 232.323 579.201 231.801 579.36 231.334C579.528 230.867 579.756 230.471 580.046 230.144C580.335 229.808 580.68 229.551 581.082 229.374C581.492 229.197 581.945 229.108 582.44 229.108C582.925 229.108 583.364 229.197 583.756 229.374C584.157 229.551 584.498 229.799 584.778 230.116C585.058 230.424 585.272 230.793 585.422 231.222C585.571 231.651 585.646 232.123 585.646 232.636V233.168H580.298V233.504C580.298 233.821 580.349 234.115 580.452 234.386C580.554 234.657 580.699 234.89 580.886 235.086C581.082 235.282 581.315 235.436 581.586 235.548C581.866 235.651 582.174 235.702 582.51 235.702C582.995 235.702 583.415 235.59 583.77 235.366C584.124 235.142 584.395 234.834 584.582 234.442L585.408 235.002C585.193 235.487 584.834 235.889 584.33 236.206C583.835 236.514 583.228 236.668 582.51 236.668ZM582.44 230.032C582.132 230.032 581.847 230.088 581.586 230.2C581.324 230.312 581.096 230.466 580.9 230.662C580.713 230.858 580.564 231.091 580.452 231.362C580.349 231.623 580.298 231.913 580.298 232.23V232.328H584.442V232.174C584.442 231.857 584.39 231.567 584.288 231.306C584.194 231.045 584.059 230.821 583.882 230.634C583.714 230.438 583.504 230.289 583.252 230.186C583.009 230.083 582.738 230.032 582.44 230.032ZM587.656 235.548H589.77V230.228H587.656V229.276H590.89V231.096H590.96C591.109 230.527 591.389 230.083 591.8 229.766C592.22 229.439 592.752 229.276 593.396 229.276H594.404V230.396H593.046C592.402 230.396 591.879 230.583 591.478 230.956C591.086 231.329 590.89 231.819 590.89 232.426V235.548H593.69V236.5H587.656V235.548Z"
        fill="white" fill-opacity="0.6" />
      <rect x="644.75" y="97.25" width="148.5" height="118.5" stroke="url(#paint7_linear_3933_3135)"
        stroke-width="1.5" stroke-dasharray="8 8" />
      <path
        d="M644 227.75V220.25H644.75V217.25H648.167V216.5H656.5V217.25H664.833V216.5H673.167V217.25H681.5V216.5H689.833V217.25H698.167V216.5H706.5V217.25H714.833V216.5H723.167V217.25H731.5V216.5H739.833V217.25H748.167V216.5H756.5V217.25H764.833V216.5H773.167V217.25H781.5V216.5H789.833V217.25H793.25V220.25H794V227.75H793.25V235.25H794V242.75H793.25V245.75H789.833V246.5H781.5V245.75H773.167V246.5H764.833V245.75H756.5V246.5H748.167V245.75H739.833V246.5H731.5V245.75H723.167V246.5H714.833V245.75H706.5V246.5H698.167V245.75H689.833V246.5H681.5V245.75H673.167V246.5H664.833V245.75H656.5V246.5H648.167V245.75H644.75V242.75H644V235.25H644.75V227.75H644Z"
        stroke="url(#paint8_linear_3933_3135)" stroke-width="1.5" stroke-dasharray="8 8" />
      <rect x="810.75" y="97.25" width="148.5" height="118.5" stroke="url(#paint9_linear_3933_3135)"
        stroke-width="1.5" stroke-dasharray="8 8" />
      <path
        d="M810 227.75V220.25H810.75V217.25H814.167V216.5H822.5V217.25H830.833V216.5H839.167V217.25H847.5V216.5H855.833V217.25H864.167V216.5H872.5V217.25H880.833V216.5H889.167V217.25H897.5V216.5H905.833V217.25H914.167V216.5H922.5V217.25H930.833V216.5H939.167V217.25H947.5V216.5H955.833V217.25H959.25V220.25H960V227.75H959.25V235.25H960V242.75H959.25V245.75H955.833V246.5H947.5V245.75H939.167V246.5H930.833V245.75H922.5V246.5H914.167V245.75H905.833V246.5H897.5V245.75H889.167V246.5H880.833V245.75H872.5V246.5H864.167V245.75H855.833V246.5H847.5V245.75H839.167V246.5H830.833V245.75H822.5V246.5H814.167V245.75H810.75V242.75H810V235.25H810.75V227.75H810Z"
        stroke="url(#paint10_linear_3933_3135)" stroke-width="1.5" stroke-dasharray="8 8" />
      <rect x="976.75" y="97.25" width="148.5" height="118.5"
        stroke="url(#paint11_linear_3933_3135)" stroke-width="1.5" stroke-dasharray="8 8" />
      <path
        d="M976 227.75V220.25H976.75V217.25H980.167V216.5H988.5V217.25H996.833V216.5H1005.17V217.25H1013.5V216.5H1021.83V217.25H1030.17V216.5H1038.5V217.25H1046.83V216.5H1055.17V217.25H1063.5V216.5H1071.83V217.25H1080.17V216.5H1088.5V217.25H1096.83V216.5H1105.17V217.25H1113.5V216.5H1121.83V217.25H1125.25V220.25H1126V227.75H1125.25V235.25H1126V242.75H1125.25V245.75H1121.83V246.5H1113.5V245.75H1105.17V246.5H1096.83V245.75H1088.5V246.5H1080.17V245.75H1071.83V246.5H1063.5V245.75H1055.17V246.5H1046.83V245.75H1038.5V246.5H1030.17V245.75H1021.83V246.5H1013.5V245.75H1005.17V246.5H996.833V245.75H988.5V246.5H980.167V245.75H976.75V242.75H976V235.25H976.75V227.75H976Z"
        stroke="url(#paint12_linear_3933_3135)" stroke-width="1.5" stroke-dasharray="8 8" />
    </g>
    <g clip-path="url(#clip1_3933_3135)">
      <rect x="592" y="399" width="256" height="90" fill="black" />
      <g clip-path="url(#clip2_3933_3135)">
        <rect x="699" y="423" width="42" height="42" rx="21" fill="#F4C587" fill-opacity="0.25" />
        <path
          d="M706.533 414.688C706.533 415.607 706.182 437.517 706.533 438.366C706.885 439.215 707.401 439.986 708.05 440.636C708.7 441.286 709.472 441.802 710.321 442.153C711.17 442.505 712.08 442.686 712.999 442.686C713.918 442.686 714.828 442.867 715.677 443.219C716.527 443.571 717.298 444.086 717.948 444.736C718.598 445.386 719.113 446.157 719.465 447.007C719.817 447.856 719.998 448.766 719.998 449.685M719.998 449.685V484.25M719.998 449.685C719.998 448.766 720.179 447.856 720.531 447.007C720.882 446.157 721.398 445.386 722.048 444.736C722.698 444.086 723.469 443.571 724.318 443.219C725.167 442.867 726.077 442.686 726.996 442.686C727.916 442.686 728.826 442.505 729.675 442.153C730.524 441.802 731.295 441.286 731.945 440.636C732.595 439.986 733.111 439.215 733.462 438.366C733.814 437.517 733.462 415.607 733.462 414.688M719.465 406.375L719.998 456.688"
          stroke="#F4C587" stroke-width="1.3125" />
      </g>
      <rect x="699.656" y="423.656" width="40.6875" height="40.6875" rx="20.3438" stroke="#F4C587"
        stroke-width="1.3125" />
      <rect width="256" height="33" transform="translate(592 489)"
        fill="url(#paint13_linear_3933_3135)" />
      <path
        d="M680.72 511H674.896V501.2H676.506V509.572H680.72V511ZM684.956 511.084C682.772 511.084 681.302 509.614 681.302 507.416C681.302 505.232 682.772 503.748 684.956 503.748C687.14 503.748 688.61 505.232 688.61 507.416C688.61 509.614 687.14 511.084 684.956 511.084ZM684.956 509.796C686.23 509.796 687.07 508.802 687.07 507.416C687.07 506.03 686.23 505.036 684.956 505.036C683.682 505.036 682.856 506.03 682.856 507.416C682.856 508.802 683.682 509.796 684.956 509.796ZM696.517 509.684H696.825V511H696.027C695.047 511 694.711 510.566 694.711 509.852C694.235 510.58 693.507 511.084 692.345 511.084C690.777 511.084 689.685 510.314 689.685 508.984C689.685 507.514 690.749 506.688 692.751 506.688H694.557V506.254C694.557 505.456 693.983 504.966 692.989 504.966C692.093 504.966 691.491 505.386 691.379 506.016H689.895C690.049 504.616 691.253 503.748 693.059 503.748C694.963 503.748 696.055 504.658 696.055 506.352V509.222C696.055 509.586 696.209 509.684 696.517 509.684ZM694.557 508.06V507.808H692.681C691.743 507.808 691.225 508.158 691.225 508.886C691.225 509.488 691.729 509.908 692.555 509.908C693.815 509.908 694.543 509.166 694.557 508.06ZM703.18 504.826V501.2H704.692V511H703.376L703.194 509.922C702.732 510.552 701.99 511.084 700.856 511.084C698.91 511.084 697.468 509.712 697.468 507.416C697.468 505.204 698.91 503.748 700.856 503.748C701.948 503.748 702.718 504.196 703.18 504.826ZM701.108 509.81C702.368 509.81 703.194 508.83 703.194 507.444C703.194 506.016 702.368 505.036 701.108 505.036C699.848 505.036 699.022 506.016 699.022 507.416C699.022 508.83 699.848 509.81 701.108 509.81ZM713.868 503.748C715.828 503.748 717.256 505.106 717.256 507.416C717.256 509.614 715.828 511.084 713.868 511.084C712.748 511.084 711.978 510.608 711.53 509.964L711.348 511H710.032V501.2H711.544V504.896C712.02 504.252 712.762 503.748 713.868 503.748ZM713.616 509.81C714.876 509.81 715.716 508.83 715.716 507.416C715.716 506.016 714.876 505.036 713.616 505.036C712.356 505.036 711.53 506.016 711.53 507.402C711.53 508.816 712.356 509.81 713.616 509.81ZM725.159 509.684H725.467V511H724.669C723.689 511 723.353 510.566 723.353 509.852C722.877 510.58 722.149 511.084 720.987 511.084C719.419 511.084 718.327 510.314 718.327 508.984C718.327 507.514 719.391 506.688 721.393 506.688H723.199V506.254C723.199 505.456 722.625 504.966 721.631 504.966C720.735 504.966 720.133 505.386 720.021 506.016H718.537C718.691 504.616 719.895 503.748 721.701 503.748C723.605 503.748 724.697 504.658 724.697 506.352V509.222C724.697 509.586 724.851 509.684 725.159 509.684ZM723.199 508.06V507.808H721.323C720.385 507.808 719.867 508.158 719.867 508.886C719.867 509.488 720.371 509.908 721.197 509.908C722.457 509.908 723.185 509.166 723.199 508.06ZM726.431 511V501.2H727.943V511H726.431ZM736.117 509.684H736.425V511H735.627C734.647 511 734.311 510.566 734.311 509.852C733.835 510.58 733.107 511.084 731.945 511.084C730.377 511.084 729.285 510.314 729.285 508.984C729.285 507.514 730.349 506.688 732.351 506.688H734.157V506.254C734.157 505.456 733.583 504.966 732.589 504.966C731.693 504.966 731.091 505.386 730.979 506.016H729.495C729.649 504.616 730.853 503.748 732.659 503.748C734.563 503.748 735.655 504.658 735.655 506.352V509.222C735.655 509.586 735.809 509.684 736.117 509.684ZM734.157 508.06V507.808H732.281C731.343 507.808 730.825 508.158 730.825 508.886C730.825 509.488 731.329 509.908 732.155 509.908C733.415 509.908 734.143 509.166 734.157 508.06ZM741.169 503.748C742.751 503.748 744.053 504.616 744.053 507.01V511H742.527V507.136C742.527 505.778 741.953 505.05 740.819 505.05C739.615 505.05 738.901 505.932 738.901 507.388V511H737.389V503.832H738.705L738.873 504.77C739.321 504.21 740.007 503.748 741.169 503.748ZM748.803 511.084C746.633 511.084 745.247 509.67 745.247 507.43C745.247 505.218 746.675 503.748 748.845 503.748C750.693 503.748 751.841 504.77 752.135 506.394H750.553C750.357 505.554 749.755 505.036 748.817 505.036C747.599 505.036 746.801 506.016 746.801 507.43C746.801 508.83 747.599 509.796 748.817 509.796C749.741 509.796 750.357 509.264 750.539 508.438H752.135C751.855 510.062 750.637 511.084 748.803 511.084ZM756.834 511.084C754.58 511.084 753.166 509.628 753.166 507.43C753.166 505.218 754.58 503.748 756.694 503.748C758.766 503.748 760.152 505.064 760.194 507.164C760.194 507.346 760.18 507.542 760.152 507.738H754.748V507.836C754.79 509.054 755.56 509.852 756.75 509.852C757.674 509.852 758.346 509.39 758.556 508.592H760.068C759.816 510.006 758.612 511.084 756.834 511.084ZM754.804 506.632H758.626C758.5 505.568 757.758 504.966 756.708 504.966C755.742 504.966 754.916 505.61 754.804 506.632ZM765.183 503.832H765.519V505.246H764.847C763.503 505.246 763.069 506.296 763.069 507.402V511H761.557V503.832H762.901L763.069 504.91C763.433 504.308 764.007 503.832 765.183 503.832Z"
        fill="black" />
    </g>
    <rect x="592.75" y="399.75" width="254.5" height="121.5" stroke="url(#paint14_linear_3933_3135)"
      stroke-width="1.5" />
  </g>
  <defs>
    <filter id="filter0_ddd_3933_3135" x="172.625" y="4.375" width="764.25" height="607.25"
      filterUnits="userSpaceOnUse" color-interpolation-filters="sRGB">
      <feFlood flood-opacity="0" result="BackgroundImageFix" />
      <feColorMatrix in="SourceAlpha" type="matrix"
        values="0 0 0 0 0 0 0 0 0 0 0 0 0 0 0 0 0 0 127 0" result="hardAlpha" />
      <feOffset />
      <feGaussianBlur stdDeviation="15.1875" />
      <feColorMatrix type="matrix" values="0 0 0 0 1 0 0 0 0 1 0 0 0 0 1 0 0 0 0.5 0" />
      <feBlend mode="normal" in2="BackgroundImageFix" result="effect1_dropShadow_3933_3135" />
      <feColorMatrix in="SourceAlpha" type="matrix"
        values="0 0 0 0 0 0 0 0 0 0 0 0 0 0 0 0 0 0 127 0" result="hardAlpha" />
      <feOffset />
      <feGaussianBlur stdDeviation="30.375" />
      <feColorMatrix type="matrix" values="0 0 0 0 1 0 0 0 0 1 0 0 0 0 1 0 0 0 1 0" />
      <feBlend mode="normal" in2="effect1_dropShadow_3933_3135"
        result="effect2_dropShadow_3933_3135" />
      <feColorMatrix in="SourceAlpha" type="matrix"
        values="0 0 0 0 0 0 0 0 0 0 0 0 0 0 0 0 0 0 127 0" result="hardAlpha" />
      <feOffset />
      <feGaussianBlur stdDeviation="106.312" />
      <feColorMatrix type="matrix" values="0 0 0 0 1 0 0 0 0 1 0 0 0 0 1 0 0 0 0.5 0" />
      <feBlend mode="normal" in2="effect2_dropShadow_3933_3135"
        result="effect3_dropShadow_3933_3135" />
      <feBlend mode="normal" in="SourceGraphic" in2="effect3_dropShadow_3933_3135" result="shape" />
    </filter>
    <filter id="filter1_ddd_3933_3135" x="335.625" y="4.375" width="600.75" height="607.25"
      filterUnits="userSpaceOnUse" color-interpolation-filters="sRGB">
      <feFlood flood-opacity="0" result="BackgroundImageFix" />
      <feColorMatrix in="SourceAlpha" type="matrix"
        values="0 0 0 0 0 0 0 0 0 0 0 0 0 0 0 0 0 0 127 0" result="hardAlpha" />
      <feOffset />
      <feGaussianBlur stdDeviation="15.1875" />
      <feColorMatrix type="matrix" values="0 0 0 0 1 0 0 0 0 1 0 0 0 0 1 0 0 0 0.5 0" />
      <feBlend mode="normal" in2="BackgroundImageFix" result="effect1_dropShadow_3933_3135" />
      <feColorMatrix in="SourceAlpha" type="matrix"
        values="0 0 0 0 0 0 0 0 0 0 0 0 0 0 0 0 0 0 127 0" result="hardAlpha" />
      <feOffset />
      <feGaussianBlur stdDeviation="30.375" />
      <feColorMatrix type="matrix" values="0 0 0 0 1 0 0 0 0 1 0 0 0 0 1 0 0 0 1 0" />
      <feBlend mode="normal" in2="effect1_dropShadow_3933_3135"
        result="effect2_dropShadow_3933_3135" />
      <feColorMatrix in="SourceAlpha" type="matrix"
        values="0 0 0 0 0 0 0 0 0 0 0 0 0 0 0 0 0 0 127 0" result="hardAlpha" />
      <feOffset />
      <feGaussianBlur stdDeviation="106.312" />
      <feColorMatrix type="matrix" values="0 0 0 0 1 0 0 0 0 1 0 0 0 0 1 0 0 0 0.5 0" />
      <feBlend mode="normal" in2="effect2_dropShadow_3933_3135"
        result="effect3_dropShadow_3933_3135" />
      <feBlend mode="normal" in="SourceGraphic" in2="effect3_dropShadow_3933_3135" result="shape" />
    </filter>
    <filter id="filter2_ddd_3933_3135" x="705.006" y="360.006" width="35.9884" height="35.9884"
      filterUnits="userSpaceOnUse" color-interpolation-filters="sRGB">
      <feFlood flood-opacity="0" result="BackgroundImageFix" />
      <feColorMatrix in="SourceAlpha" type="matrix"
        values="0 0 0 0 0 0 0 0 0 0 0 0 0 0 0 0 0 0 127 0" result="hardAlpha" />
      <feOffset />
      <feGaussianBlur stdDeviation="0.856729" />
      <feColorMatrix type="matrix" values="0 0 0 0 0.847059 0 0 0 0 0.827451 0 0 0 0 1 0 0 0 0.5 0" />
      <feBlend mode="normal" in2="BackgroundImageFix" result="effect1_dropShadow_3933_3135" />
      <feColorMatrix in="SourceAlpha" type="matrix"
        values="0 0 0 0 0 0 0 0 0 0 0 0 0 0 0 0 0 0 127 0" result="hardAlpha" />
      <feOffset />
      <feGaussianBlur stdDeviation="1.71346" />
      <feColorMatrix type="matrix" values="0 0 0 0 0.847059 0 0 0 0 0.827451 0 0 0 0 1 0 0 0 0.5 0" />
      <feBlend mode="normal" in2="effect1_dropShadow_3933_3135"
        result="effect2_dropShadow_3933_3135" />
      <feColorMatrix in="SourceAlpha" type="matrix"
        values="0 0 0 0 0 0 0 0 0 0 0 0 0 0 0 0 0 0 127 0" result="hardAlpha" />
      <feOffset />
      <feGaussianBlur stdDeviation="5.9971" />
      <feColorMatrix type="matrix" values="0 0 0 0 0.847059 0 0 0 0 0.827451 0 0 0 0 1 0 0 0 0.5 0" />
      <feBlend mode="normal" in2="effect2_dropShadow_3933_3135"
        result="effect3_dropShadow_3933_3135" />
      <feBlend mode="normal" in="SourceGraphic" in2="effect3_dropShadow_3933_3135" result="shape" />
    </filter>
    <filter id="filter3_ddd_3933_3135" x="601.006" y="318.006" width="35.9884" height="35.9884"
      filterUnits="userSpaceOnUse" color-interpolation-filters="sRGB">
      <feFlood flood-opacity="0" result="BackgroundImageFix" />
      <feColorMatrix in="SourceAlpha" type="matrix"
        values="0 0 0 0 0 0 0 0 0 0 0 0 0 0 0 0 0 0 127 0" result="hardAlpha" />
      <feOffset />
      <feGaussianBlur stdDeviation="0.856729" />
      <feColorMatrix type="matrix" values="0 0 0 0 0.435294 0 0 0 0 0.886275 0 0 0 0 1 0 0 0 0.5 0" />
      <feBlend mode="normal" in2="BackgroundImageFix" result="effect1_dropShadow_3933_3135" />
      <feColorMatrix in="SourceAlpha" type="matrix"
        values="0 0 0 0 0 0 0 0 0 0 0 0 0 0 0 0 0 0 127 0" result="hardAlpha" />
      <feOffset />
      <feGaussianBlur stdDeviation="1.71346" />
      <feColorMatrix type="matrix" values="0 0 0 0 0.435294 0 0 0 0 0.886275 0 0 0 0 1 0 0 0 0.5 0" />
      <feBlend mode="normal" in2="effect1_dropShadow_3933_3135"
        result="effect2_dropShadow_3933_3135" />
      <feColorMatrix in="SourceAlpha" type="matrix"
        values="0 0 0 0 0 0 0 0 0 0 0 0 0 0 0 0 0 0 127 0" result="hardAlpha" />
      <feOffset />
      <feGaussianBlur stdDeviation="5.9971" />
      <feColorMatrix type="matrix" values="0 0 0 0 0.435294 0 0 0 0 0.886275 0 0 0 0 1 0 0 0 0.5 0" />
      <feBlend mode="normal" in2="effect2_dropShadow_3933_3135"
        result="effect3_dropShadow_3933_3135" />
      <feBlend mode="normal" in="SourceGraphic" in2="effect3_dropShadow_3933_3135" result="shape" />
    </filter>
    <filter id="filter4_ddd_3933_3135" x="367.006" y="281.006" width="35.9884" height="35.9884"
      filterUnits="userSpaceOnUse" color-interpolation-filters="sRGB">
      <feFlood flood-opacity="0" result="BackgroundImageFix" />
      <feColorMatrix in="SourceAlpha" type="matrix"
        values="0 0 0 0 0 0 0 0 0 0 0 0 0 0 0 0 0 0 127 0" result="hardAlpha" />
      <feOffset />
      <feGaussianBlur stdDeviation="0.856729" />
      <feColorMatrix type="matrix" values="0 0 0 0 1 0 0 0 0 0.729412 0 0 0 0 0.415686 0 0 0 0.5 0" />
      <feBlend mode="normal" in2="BackgroundImageFix" result="effect1_dropShadow_3933_3135" />
      <feColorMatrix in="SourceAlpha" type="matrix"
        values="0 0 0 0 0 0 0 0 0 0 0 0 0 0 0 0 0 0 127 0" result="hardAlpha" />
      <feOffset />
      <feGaussianBlur stdDeviation="1.71346" />
      <feColorMatrix type="matrix" values="0 0 0 0 1 0 0 0 0 0.729412 0 0 0 0 0.415686 0 0 0 0.5 0" />
      <feBlend mode="normal" in2="effect1_dropShadow_3933_3135"
        result="effect2_dropShadow_3933_3135" />
      <feColorMatrix in="SourceAlpha" type="matrix"
        values="0 0 0 0 0 0 0 0 0 0 0 0 0 0 0 0 0 0 127 0" result="hardAlpha" />
      <feOffset />
      <feGaussianBlur stdDeviation="5.9971" />
      <feColorMatrix type="matrix" values="0 0 0 0 1 0 0 0 0 0.729412 0 0 0 0 0.415686 0 0 0 0.5 0" />
      <feBlend mode="normal" in2="effect2_dropShadow_3933_3135"
        result="effect3_dropShadow_3933_3135" />
      <feBlend mode="normal" in="SourceGraphic" in2="effect3_dropShadow_3933_3135" result="shape" />
    </filter>
    <filter id="filter5_b_3933_3135" x="265" y="49.5" width="908" height="244"
      filterUnits="userSpaceOnUse" color-interpolation-filters="sRGB">
      <feFlood flood-opacity="0" result="BackgroundImageFix" />
      <feGaussianBlur in="BackgroundImageFix" stdDeviation="7.5" />
      <feComposite in2="SourceAlpha" operator="in" result="effect1_backgroundBlur_3933_3135" />
      <feBlend mode="normal" in="SourceGraphic" in2="effect1_backgroundBlur_3933_3135"
        result="shape" />
    </filter>
    <linearGradient id="paint0_linear_3933_3135" x1="416.904" y1="337.494" x2="703.617" y2="338.178"
      gradientUnits="userSpaceOnUse">
      <stop stop-color="#F4C587" />
      <stop offset="0.5" stop-color="#D6D3E9" />
      <stop offset="1" stop-color="#99D2EC" />
    </linearGradient>
    <linearGradient id="paint1_linear_3933_3135" x1="564.933" y1="337.494" x2="712.75" y2="337.676"
      gradientUnits="userSpaceOnUse">
      <stop stop-color="#F4C587" />
      <stop offset="0.5" stop-color="#D6D3E9" />
      <stop offset="1" stop-color="#99D2EC" />
    </linearGradient>
    <linearGradient id="paint2_linear_3933_3135" x1="725.218" y1="64.3994" x2="733.998" y2="279.024"
      gradientUnits="userSpaceOnUse">
      <stop stop-color="#F4C587" />
      <stop offset="0.5" stop-color="#D6D3E9" />
      <stop offset="1" stop-color="#99D2EC" />
    </linearGradient>
    <linearGradient id="paint3_linear_3933_3135" x1="325.735" y1="156.5" x2="453.164" y2="156.638"
      gradientUnits="userSpaceOnUse">
      <stop stop-color="#F4C587" />
      <stop offset="0.5" stop-color="#D6D3E9" />
      <stop offset="1" stop-color="#99D2EC" />
    </linearGradient>
    <linearGradient id="paint4_linear_3933_3135" x1="312" y1="216.5" x2="462" y2="216.499"
      gradientUnits="userSpaceOnUse">
      <stop stop-color="#F4C587" />
      <stop offset="0.5" stop-color="#D6D3E9" />
      <stop offset="1" stop-color="#99D2EC" />
    </linearGradient>
    <linearGradient id="paint5_linear_3933_3135" x1="491.735" y1="156.5" x2="619.164" y2="156.638"
      gradientUnits="userSpaceOnUse">
      <stop stop-color="#F4C587" />
      <stop offset="0.5" stop-color="#D6D3E9" />
      <stop offset="1" stop-color="#99D2EC" />
    </linearGradient>
    <linearGradient id="paint6_linear_3933_3135" x1="478" y1="216.5" x2="628" y2="216.499"
      gradientUnits="userSpaceOnUse">
      <stop stop-color="#F4C587" />
      <stop offset="0.5" stop-color="#D6D3E9" />
      <stop offset="1" stop-color="#99D2EC" />
    </linearGradient>
    <linearGradient id="paint7_linear_3933_3135" x1="657.735" y1="156.5" x2="785.164" y2="156.638"
      gradientUnits="userSpaceOnUse">
      <stop stop-color="#F4C587" />
      <stop offset="0.5" stop-color="#D6D3E9" />
      <stop offset="1" stop-color="#99D2EC" />
    </linearGradient>
    <linearGradient id="paint8_linear_3933_3135" x1="657.735" y1="231.5" x2="785.161" y2="232.054"
      gradientUnits="userSpaceOnUse">
      <stop stop-color="#F4C587" />
      <stop offset="0.5" stop-color="#D6D3E9" />
      <stop offset="1" stop-color="#99D2EC" />
    </linearGradient>
    <linearGradient id="paint9_linear_3933_3135" x1="823.735" y1="156.5" x2="951.164" y2="156.638"
      gradientUnits="userSpaceOnUse">
      <stop stop-color="#F4C587" />
      <stop offset="0.5" stop-color="#D6D3E9" />
      <stop offset="1" stop-color="#99D2EC" />
    </linearGradient>
    <linearGradient id="paint10_linear_3933_3135" x1="823.735" y1="231.5" x2="951.161" y2="232.054"
      gradientUnits="userSpaceOnUse">
      <stop stop-color="#F4C587" />
      <stop offset="0.5" stop-color="#D6D3E9" />
      <stop offset="1" stop-color="#99D2EC" />
    </linearGradient>
    <linearGradient id="paint11_linear_3933_3135" x1="989.735" y1="156.5" x2="1117.16" y2="156.638"
      gradientUnits="userSpaceOnUse">
      <stop stop-color="#F4C587" />
      <stop offset="0.5" stop-color="#D6D3E9" />
      <stop offset="1" stop-color="#99D2EC" />
    </linearGradient>
    <linearGradient id="paint12_linear_3933_3135" x1="989.735" y1="231.5" x2="1117.16" y2="232.054"
      gradientUnits="userSpaceOnUse">
      <stop stop-color="#F4C587" />
      <stop offset="0.5" stop-color="#D6D3E9" />
      <stop offset="1" stop-color="#99D2EC" />
    </linearGradient>
    <linearGradient id="paint13_linear_3933_3135" x1="129.813" y1="-0.0155111" x2="130.53"
      y2="33.1207" gradientUnits="userSpaceOnUse">
      <stop stop-color="#F4C587" />
      <stop offset="0.5" stop-color="#D6D3E9" />
      <stop offset="1" stop-color="#99D2EC" />
    </linearGradient>
    <linearGradient id="paint14_linear_3933_3135" x1="721.813" y1="398.942" x2="731.712" y2="521.71"
      gradientUnits="userSpaceOnUse">
      <stop stop-color="#F4C587" />
      <stop offset="0.5" stop-color="#D6D3E9" />
      <stop offset="1" stop-color="#99D2EC" />
    </linearGradient>
    <clipPath id="clip0_3933_3135">
      <rect width="1440" height="555" fill="white" />
    </clipPath>
    <clipPath id="clip1_3933_3135">
      <rect x="592" y="399" width="256" height="123" fill="white" />
    </clipPath>
    <clipPath id="clip2_3933_3135">
      <rect x="699" y="423" width="42" height="42" rx="21" fill="white" />
    </clipPath>
  </defs>
</svg>
  