<svg xmlns="http://www.w3.org/2000/svg" width="114" height="21" viewBox="0 0 114 20" fill="none"><path d="M114 19.9509C114 19.9639 113.995 19.9764 113.985 19.9856C113.975 19.9948 113.962 20 113.949 20H0.0511653C0.0375954 20 0.0245813 19.9948 0.0149859 19.9856C0.00539055 19.9764 0 19.9639 0 19.9509V0.0491379C0 0.0361057 0.00539055 0.0236072 0.0149859 0.0143921C0.0245813 0.00517695 0.0375954 0 0.0511653 0H113.949C113.962 0 113.975 0.00517695 113.985 0.0143921C113.995 0.0236072 114 0.0361057 114 0.0491379V19.9509ZM112.833 1.22931C112.833 1.22337 112.831 1.21766 112.826 1.21346C112.822 1.20926 112.816 1.2069 112.81 1.2069H1.19027C1.18408 1.2069 1.17814 1.20926 1.17376 1.21346C1.16939 1.21766 1.16693 1.22337 1.16693 1.22931V18.7707C1.16693 18.7766 1.16939 18.7823 1.17376 18.7865C1.17814 18.7907 1.18408 18.7931 1.19027 18.7931H112.81C112.816 18.7931 112.822 18.7907 112.826 18.7865C112.831 18.7823 112.833 18.7766 112.833 18.7707V1.22931Z" fill="#CCCCCC"/><path d="M45.5246 13.275C45.5257 13.2826 45.5231 13.2912 45.5171 13.2997C45.5112 13.3081 45.5022 13.3161 45.4914 13.3224C42.8775 14.9017 39.7483 13.806 39.3309 10.756C39.0122 8.42758 40.0966 6.1 42.8065 5.925C43.6928 5.86753 44.533 6.05891 45.3271 6.49914C45.353 6.51366 45.3739 6.53466 45.387 6.55941C45.4001 6.58416 45.4049 6.61152 45.4007 6.63793L45.2311 7.70086C45.2215 7.75891 45.1934 7.76925 45.1467 7.73189C43.5507 6.44827 41.1684 6.77758 40.6253 8.93965C40.3354 10.0948 40.5508 11.8026 41.6145 12.5328C42.7105 13.2862 44.2868 12.95 45.2652 12.194C45.3274 12.1463 45.363 12.1549 45.372 12.2198L45.5246 13.275Z" fill="#CCCCCC"/><path d="M10.2519 9.71896C11.4215 10.1198 11.8165 11.2198 11.5005 12.3138C10.9602 14.1845 8.37676 13.9147 6.69189 13.8672C6.67861 13.8668 6.66604 13.8611 6.65682 13.8512C6.64761 13.8414 6.64248 13.8283 6.64252 13.8147V6.07758C6.64253 6.06836 6.64648 6.0595 6.65352 6.05289C6.66057 6.04629 6.67015 6.04246 6.68022 6.04224C7.5258 6.01465 8.37346 6.03362 9.22323 6.09914C10.3363 6.18534 11.1092 6.81638 11.2321 7.8931C11.3138 8.60776 10.9916 9.39569 10.251 9.67672C10.2121 9.69166 10.2124 9.70575 10.2519 9.71896ZM9.74835 7.40517C9.2349 6.96121 8.41895 7.05 7.77354 7.07931C7.75902 7.07997 7.74532 7.08599 7.73529 7.0961C7.72526 7.10622 7.71967 7.11965 7.71969 7.13362V9.24569C7.71969 9.25928 7.72526 9.27238 7.73526 9.28231C7.74527 9.29224 7.75896 9.29826 7.77354 9.29914C8.31093 9.34052 8.76424 9.32299 9.13346 9.24655C9.96647 9.07241 10.4575 8.01896 9.74835 7.40517ZM9.26272 12.8397C10.8237 12.5621 10.8076 10.5784 9.28158 10.3362C8.78787 10.258 8.2852 10.2359 7.77354 10.2698C7.75896 10.2707 7.74527 10.2767 7.73526 10.2867C7.72526 10.2966 7.71969 10.3097 7.71969 10.3233V12.8664C7.71966 12.8806 7.72524 12.8942 7.73527 12.9045C7.7453 12.9148 7.75901 12.9209 7.77354 12.9216C8.31033 12.948 8.80672 12.9207 9.26272 12.8397Z" fill="#CCCCCC"/><path d="M18.3567 9.31121L20.7067 9.31379C20.8282 9.31379 20.8934 9.36034 20.9024 9.45345L20.9868 10.3009C20.9873 10.3065 20.9859 10.3121 20.9825 10.3174C20.9791 10.3227 20.9739 10.3276 20.9671 10.3317C20.9604 10.3358 20.9522 10.3391 20.9433 10.3414C20.9343 10.3437 20.9246 10.3448 20.915 10.3448H18.3567C18.3448 10.3448 18.3334 10.3494 18.325 10.3575C18.3165 10.3655 18.3118 10.3765 18.3118 10.3879V12.8017C18.3118 12.8132 18.3165 12.8241 18.325 12.8322C18.3334 12.8403 18.3448 12.8448 18.3567 12.8448H21.678C21.6899 12.8448 21.7013 12.8494 21.7097 12.8575C21.7181 12.8655 21.7228 12.8765 21.7228 12.8879V13.8362C21.7228 13.8476 21.7157 13.8586 21.7031 13.8667C21.6905 13.8748 21.6734 13.8793 21.6555 13.8793H17.1898C17.1779 13.8793 17.1664 13.8748 17.158 13.8667C17.1496 13.8586 17.1449 13.8476 17.1449 13.8362V6.07759C17.1449 6.06615 17.1496 6.05519 17.158 6.04711C17.1664 6.03902 17.1779 6.03448 17.1898 6.03448H21.4984C21.5103 6.03448 21.5217 6.03902 21.5302 6.04711C21.5386 6.05519 21.5433 6.06615 21.5433 6.07759V7.11207C21.5433 7.1235 21.5362 7.13446 21.5236 7.14255C21.511 7.15063 21.4938 7.15517 21.476 7.15517H18.3567C18.3448 7.15517 18.3334 7.15971 18.325 7.1678C18.3165 7.17588 18.3118 7.18684 18.3118 7.19828V9.26724C18.3118 9.2789 18.3165 9.29008 18.325 9.29833C18.3334 9.30657 18.3448 9.31121 18.3567 9.31121Z" fill="#CCCCCC"/><path d="M32.4945 11.7026V6.07759C32.4945 6.06615 32.4992 6.05519 32.5076 6.04711C32.5161 6.03902 32.5275 6.03448 32.5394 6.03448H33.5268C33.5387 6.03448 33.5501 6.03902 33.5585 6.04711C33.5669 6.05519 33.5717 6.06615 33.5717 6.07759V13.8362C33.5717 13.8476 33.5669 13.8586 33.5585 13.8667C33.5501 13.8748 33.5387 13.8793 33.5268 13.8793L32.8302 13.881C32.7189 13.881 32.6303 13.8362 32.5645 13.7466L28.4497 8.13017C28.3935 8.05374 28.3654 8.0592 28.3654 8.14655V13.8362C28.3654 13.8476 28.3606 13.8586 28.3522 13.8667C28.3438 13.8748 28.3324 13.8793 28.3205 13.8793H27.2433C27.2314 13.8793 27.22 13.8725 27.2116 13.8604C27.2032 13.8482 27.1984 13.8318 27.1984 13.8147V6.09914C27.1984 6.08199 27.2055 6.06555 27.2181 6.05342C27.2308 6.0413 27.2479 6.03448 27.2657 6.03448H28.2307C28.2423 6.03449 28.2548 6.03843 28.267 6.04596C28.2792 6.05349 28.2908 6.06436 28.3007 6.07759L32.4631 11.7138C32.484 11.7425 32.4945 11.7388 32.4945 11.7026Z" fill="#CCCCCC"/><path d="M52.3772 9.31034H56.3268C56.3387 9.31034 56.3501 9.3058 56.3585 9.29772C56.3669 9.28964 56.3717 9.27867 56.3717 9.26724V6.07759C56.3717 6.06661 56.3746 6.05609 56.3798 6.04833C56.385 6.04057 56.3921 6.03621 56.3995 6.03621L57.4937 6.03448C57.5056 6.03448 57.517 6.0413 57.5254 6.05342C57.5339 6.06555 57.5386 6.08199 57.5386 6.09914V13.8362C57.5386 13.8476 57.5339 13.8586 57.5254 13.8667C57.517 13.8748 57.5056 13.8793 57.4937 13.8793H56.4165C56.4046 13.8793 56.3932 13.8725 56.3848 13.8604C56.3764 13.8482 56.3717 13.8318 56.3717 13.8147V10.3879C56.3717 10.3765 56.3669 10.3655 56.3585 10.3575C56.3501 10.3494 56.3387 10.3448 56.3268 10.3448H52.3772C52.3653 10.3448 52.3538 10.3494 52.3454 10.3575C52.337 10.3655 52.3323 10.3765 52.3323 10.3879V13.8362C52.3323 13.8476 52.3276 13.8586 52.3191 13.8667C52.3107 13.8748 52.2993 13.8793 52.2874 13.8793H51.2102C51.1983 13.8793 51.1869 13.8725 51.1785 13.8604C51.1701 13.8482 51.1654 13.8318 51.1654 13.8147V6.07759C51.1654 6.06615 51.1701 6.05519 51.1785 6.04711C51.1869 6.03902 51.1983 6.03448 51.2102 6.03448H52.2874C52.2993 6.03448 52.3107 6.03902 52.3191 6.04711C52.3276 6.05519 52.3323 6.06615 52.3323 6.07759V9.26724C52.3323 9.27867 52.337 9.28964 52.3454 9.29772C52.3538 9.3058 52.3653 9.31034 52.3772 9.31034Z" fill="#CCCCCC"/><path d="M64.9244 7.86638L64.4648 13.8138C64.4633 13.8326 64.4564 13.8502 64.4454 13.863C64.4344 13.8758 64.4201 13.8829 64.4055 13.8828L63.3957 13.8733C63.3892 13.8732 63.3829 13.8715 63.3771 13.8685C63.3713 13.8654 63.366 13.861 63.3618 13.8556C63.3575 13.8501 63.3542 13.8436 63.3522 13.8366C63.3501 13.8296 63.3494 13.8221 63.3499 13.8147L63.9926 6.11983C63.9946 6.09627 64.0058 6.07432 64.024 6.05835C64.0421 6.04237 64.0658 6.03354 64.0904 6.03362L65.3929 6.03448C65.4026 6.03454 65.4132 6.04007 65.4234 6.0503C65.4335 6.06052 65.4427 6.07491 65.4495 6.09138L67.8435 12.1534C67.8788 12.2425 67.9138 12.2428 67.9485 12.1543L70.3272 6.13793C70.3391 6.1078 70.3608 6.08185 70.3893 6.06353C70.4179 6.04521 70.4519 6.03538 70.487 6.03535L71.7437 6.03448C71.755 6.03453 71.7659 6.03899 71.7742 6.04698C71.7826 6.05497 71.7877 6.0659 71.7886 6.07759L72.4196 13.7931C72.4206 13.8043 72.419 13.8156 72.4148 13.8262C72.4106 13.8369 72.4039 13.8467 72.3953 13.855C72.3866 13.8633 72.3761 13.87 72.3644 13.8746C72.3526 13.8793 72.34 13.8817 72.3272 13.8819L71.3236 13.8948C71.3095 13.8951 71.2959 13.8913 71.2857 13.8844C71.2755 13.8775 71.2695 13.868 71.2689 13.8578L70.7985 7.86638C70.7961 7.83017 70.7868 7.8319 70.7707 7.87155L68.3731 13.831C68.3673 13.8452 68.3581 13.8575 68.3469 13.8661C68.3357 13.8747 68.3229 13.8793 68.3102 13.8793H67.4126C67.4001 13.8793 67.3867 13.8735 67.3745 13.8625C67.3623 13.8515 67.3518 13.836 67.3444 13.8181L64.954 7.87414C64.9372 7.83276 64.9274 7.83017 64.9244 7.86638Z" fill="#CCCCCC"/><path d="M82.869 11.5767L79.7821 11.5586C79.7682 11.5584 79.7545 11.5623 79.7431 11.5699C79.7317 11.5775 79.723 11.5883 79.7183 11.6009L78.8799 13.8181C78.8734 13.8356 78.8634 13.8509 78.8513 13.8617C78.8392 13.8726 78.8257 13.8784 78.8126 13.8784L77.6968 13.8767C77.6838 13.8768 77.6709 13.8738 77.6594 13.8681C77.6478 13.8624 77.6378 13.8541 77.6304 13.844C77.6229 13.8339 77.6182 13.8222 77.6167 13.81C77.6151 13.7979 77.6168 13.7855 77.6214 13.7741L80.7407 6.08534C80.7468 6.0704 80.7568 6.05755 80.7693 6.04848C80.7818 6.0394 80.7962 6.03453 80.8108 6.03448H81.9095C81.9188 6.0345 81.9293 6.04012 81.9393 6.05052C81.9493 6.06092 81.9583 6.07554 81.9651 6.09224L85.0153 13.5957C85.0227 13.6139 85.026 13.6333 85.0251 13.6528C85.0241 13.6722 85.0188 13.691 85.0097 13.7081C85.0005 13.7251 84.9877 13.7398 84.9721 13.7512C84.9564 13.7626 84.9384 13.7705 84.9192 13.7741L83.93 13.9672C83.9141 13.9704 83.897 13.967 83.8821 13.9577C83.8671 13.9484 83.8551 13.9337 83.8484 13.9164L82.9408 11.6198C82.9361 11.6074 82.9267 11.5966 82.9138 11.5889C82.901 11.5812 82.8854 11.577 82.869 11.5767ZM80.1555 10.4655C80.1532 10.4715 80.1524 10.4779 80.1532 10.4843C80.1541 10.4906 80.1565 10.4967 80.1603 10.5019C80.164 10.5072 80.1691 10.5114 80.175 10.5144C80.1809 10.5174 80.1874 10.5189 80.1941 10.519L82.4687 10.5147C82.4753 10.5146 82.4819 10.5131 82.4878 10.5101C82.4937 10.5071 82.4987 10.5028 82.5025 10.4976C82.5063 10.4924 82.5087 10.4863 82.5095 10.48C82.5104 10.4736 82.5096 10.4672 82.5073 10.4612L81.3646 7.57414C81.3615 7.56665 81.3562 7.56024 81.3492 7.55575C81.3423 7.55126 81.3341 7.5489 81.3257 7.549C81.3173 7.54909 81.3092 7.55163 81.3023 7.55627C81.2955 7.56092 81.2903 7.56745 81.2874 7.575L80.1555 10.4655Z" fill="#CCCCCC"/><path d="M91.6488 10.6681V13.8147C91.6488 13.8311 91.6435 13.8469 91.6341 13.8586C91.6247 13.8702 91.6119 13.8767 91.5985 13.8767L90.5268 13.8785C90.5149 13.8785 90.5035 13.8717 90.495 13.8598C90.4866 13.8478 90.4819 13.8316 90.4819 13.8147V6.07759C90.4819 6.06745 90.486 6.05771 90.4934 6.05046C90.5008 6.04321 90.5108 6.03903 90.5214 6.0388C91.2299 6.02501 91.9424 6.03047 92.6587 6.05518C93.6479 6.0888 94.6299 6.29742 95.1281 7.17328C95.83 8.4069 95.2941 9.96121 93.8292 10.4371C93.8147 10.4417 93.8016 10.4495 93.7909 10.46C93.7802 10.4704 93.7722 10.4831 93.7675 10.4971C93.7628 10.511 93.7615 10.5259 93.7638 10.5405C93.7661 10.5551 93.7719 10.569 93.7807 10.581L96.0454 13.6448C96.0499 13.6509 96.0529 13.6578 96.0544 13.665C96.0559 13.6722 96.0556 13.6794 96.0538 13.6861C96.0519 13.6928 96.0485 13.6988 96.0438 13.7034C96.039 13.7081 96.0331 13.7114 96.0266 13.7129L94.9028 13.9672C94.8771 13.9731 94.8504 13.9719 94.8263 13.9638C94.8021 13.9556 94.7816 13.9409 94.7672 13.9216L92.4361 10.7095C92.4208 10.6887 92.4002 10.6731 92.3768 10.6647C92.1566 10.5854 91.9304 10.5707 91.6982 10.6207C91.6842 10.6237 91.6718 10.63 91.6628 10.6386C91.6538 10.6473 91.6489 10.6577 91.6488 10.6681ZM94.0105 9.0569C94.515 8.35863 94.1326 7.36983 93.2421 7.15518C92.8101 7.05116 92.2948 7.02271 91.6964 7.06984C91.6834 7.07073 91.6712 7.0756 91.6624 7.08345C91.6536 7.0913 91.6487 7.10154 91.6488 7.11208V9.59052C91.6489 9.60645 91.6556 9.62183 91.6677 9.63364C91.6799 9.64544 91.6965 9.65282 91.7143 9.65432C92.4549 9.70863 93.5384 9.71121 94.0105 9.0569Z" fill="#CCCCCC"/><path d="M102.544 9.36638L105.655 6.14483C105.726 6.07011 105.815 6.03276 105.92 6.03276L107.132 6.03448C107.208 6.03448 107.223 6.06293 107.178 6.11983C107.119 6.19483 107.053 6.30086 106.987 6.36983C105.919 7.48189 104.782 8.55345 103.766 9.70776C103.758 9.7173 103.753 9.72929 103.753 9.7417C103.752 9.7541 103.756 9.76617 103.764 9.77586C103.896 9.94368 104.035 10.102 104.179 10.2509C105.259 11.3641 106.311 12.4718 107.335 13.5741C107.344 13.5844 107.351 13.5969 107.354 13.6104C107.357 13.6238 107.356 13.6379 107.352 13.6513C107.347 13.6647 107.339 13.6771 107.329 13.6872C107.318 13.6974 107.305 13.705 107.291 13.7095C106.932 13.8204 106.565 13.9011 106.191 13.9517C106.178 13.9533 106.164 13.9514 106.151 13.9462C106.137 13.9409 106.124 13.9325 106.112 13.9216C104.913 12.7793 103.8 11.4897 102.651 10.244C102.557 10.1422 102.51 10.1615 102.51 10.3017V13.8147C102.51 13.8311 102.505 13.8469 102.496 13.8585C102.486 13.8702 102.473 13.8767 102.46 13.8767L101.298 13.8784C101.287 13.8784 101.275 13.8717 101.267 13.8598C101.258 13.8478 101.254 13.8316 101.254 13.8147V6.07758C101.254 6.06615 101.258 6.05519 101.267 6.04711C101.275 6.03902 101.287 6.03448 101.298 6.03448H102.465C102.477 6.03448 102.488 6.03902 102.496 6.04711C102.505 6.05519 102.509 6.06615 102.509 6.07758L102.506 9.35345C102.506 9.3885 102.519 9.39281 102.544 9.36638Z" fill="#CCCCCC"/></svg>