<svg width="1440" height="438" viewBox="0 0 1440 438" fill="none" xmlns="http://www.w3.org/2000/svg">
<g clip-path="url(#clip0_1546_5168)">
<path fill-rule="evenodd" clip-rule="evenodd" d="M1652 438V439L-211 439V438L-9.99992 438V366H-211V365H-9.99992V293H-211V292H-9.99992V220L-211 220V219L-9.99992 219V147L-211 147V146L-9.99992 146V73.9999L-211 73.9999V72.9999L-9.99992 72.9999V0.999917L-211 0.999908V-9.15527e-05L1652 -1.01184e-05V0.99999L1451 0.999981V73L1652 73V74L1451 74V146L1652 146V147L1451 147V219L1652 219V220L1451 220V292H1652V293H1451V365H1652V366H1451V438H1652ZM1450 438V366H1378V438H1450ZM1377 438V366L1305 366V438H1377ZM1304 438V366H1232V438H1304ZM1231 438V366H1159V438H1231ZM1158 438V366H1086V438H1158ZM1085 438V366H1013V438H1085ZM1012 438V366H940V438H1012ZM939 438V366H867V438H939ZM866 438V366H794V438H866ZM793 438V366H721V438H793ZM720 438V366H648V438H720ZM647 438V366H575V438H647ZM574 438V366H502V438H574ZM501 438V366H429V438H501ZM428 438V366H356V438H428ZM355 438V366H283V438H355ZM282 438V366H210V438H282ZM209 438V366H137V438H209ZM136 438V366L64.0001 366V438H136ZM63.0001 438V366H-8.99992V438H63.0001ZM-8.99992 365H63.0001V293H-8.99992V365ZM-8.99992 292H63.0001V220H-8.99992V292ZM-8.99992 219H63.0001V147H-8.99992V219ZM-8.99992 146H63.0001V73.9999L-8.99992 73.9999V146ZM-8.99992 72.9999L63.0001 72.9999V0.99992L-8.99992 0.999917V72.9999ZM64.0001 0.99992V72.9999H136V0.999924L64.0001 0.99992ZM137 0.999924V72.9999H209V0.999927L137 0.999924ZM210 0.999927V72.9999L282 72.9999V0.99993L210 0.999927ZM283 0.99993V72.9999H355V0.999933L283 0.99993ZM356 0.999933V72.9999L428 72.9999V0.999936L356 0.999933ZM429 0.999936V72.9999H501V0.99994L429 0.999936ZM502 0.99994V72.9999L574 72.9999V0.999943L502 0.99994ZM575 0.999943V72.9999H647V0.999946L575 0.999943ZM648 0.999946V72.9999H720V0.999949L648 0.999946ZM721 0.999949V73H793V0.999952L721 0.999949ZM794 0.999952V73H866V0.999956L794 0.999952ZM867 0.999956V73L939 73V0.999959L867 0.999956ZM940 0.999959V73H1012V0.999962L940 0.999959ZM1013 0.999962V73L1085 73V0.999965L1013 0.999962ZM1086 0.999965V73H1158V0.999968L1086 0.999965ZM1159 0.999968V73L1231 73V0.999972L1159 0.999968ZM1232 0.999972V73H1304V0.999975L1232 0.999972ZM1305 0.999975V73H1377V0.999978L1305 0.999975ZM1378 0.999978V73L1450 73V0.999981L1378 0.999978ZM1450 74L1378 74V146H1450V74ZM1450 147H1378V219H1450V147ZM1450 220H1378V292H1450V220ZM1450 293H1378V365H1450V293ZM1377 365V293L1305 293V365L1377 365ZM1304 365V293H1232V365H1304ZM1231 365V293H1159V365H1231ZM1158 365V293H1086V365H1158ZM1085 365V293H1013V365H1085ZM1012 365V293H940V365H1012ZM939 365V293H867V365H939ZM866 365V293H794V365H866ZM793 365V293H721V365H793ZM720 365V293H648V365H720ZM647 365V293H575V365H647ZM574 365V293H502V365H574ZM501 365V293H429V365H501ZM428 365V293H356V365H428ZM355 365V293H283V365H355ZM282 365V293H210V365H282ZM209 365V293H137V365H209ZM136 365V293L64.0001 293V365L136 365ZM64.0001 292L136 292V220H64.0001V292ZM64.0001 219H136V147H64.0001V219ZM64.0001 146H136V73.9999H64.0001V146ZM137 73.9999V146H209V73.9999H137ZM210 73.9999V146H282V73.9999L210 73.9999ZM283 73.9999V146L355 146V73.9999H283ZM356 73.9999V146H428V73.9999L356 73.9999ZM429 73.9999V146H501V73.9999H429ZM502 73.9999V146H574V73.9999L502 73.9999ZM575 73.9999V146H647V73.9999H575ZM648 73.9999V146H720V73.9999H648ZM721 74V146H793V74H721ZM794 74V146H866V74H794ZM867 74V146H939V74L867 74ZM940 74V146H1012V74H940ZM1013 74V146H1085V74L1013 74ZM1086 74V146L1158 146V74H1086ZM1159 74V146H1231V74L1159 74ZM1232 74V146H1304V74H1232ZM1305 74V146H1377V74H1305ZM1377 147H1305V219H1377V147ZM1377 220H1305V292L1377 292V220ZM1304 292V220H1232V292H1304ZM1231 292V220H1159V292H1231ZM1158 292V220L1086 220V292H1158ZM1085 292V220H1013V292H1085ZM1012 292V220H940V292H1012ZM939 292V220H867V292H939ZM866 292V220H794V292H866ZM793 292V220H721V292H793ZM720 292V220H648V292H720ZM647 292V220H575V292H647ZM574 292V220H502V292H574ZM501 292V220H429V292H501ZM428 292V220H356V292H428ZM355 292V220L283 220V292H355ZM282 292V220H210V292H282ZM209 292V220H137V292H209ZM137 219H209V147H137V219ZM210 147V219H282V147H210ZM283 147V219L355 219V147L283 147ZM356 147V219H428V147H356ZM429 147V219H501V147H429ZM502 147V219H574V147H502ZM575 147V219H647V147H575ZM648 147V219H720V147H648ZM721 147V219H793V147H721ZM794 147V219H866V147H794ZM867 147V219H939V147H867ZM940 147V219H1012V147H940ZM1013 147V219H1085V147H1013ZM1086 147V219L1158 219V147L1086 147ZM1159 147V219H1231V147H1159ZM1232 147V219H1304V147H1232Z" fill="url(#paint0_radial_1546_5168)"/>
<rect opacity="0.5" x="289" y="292" width="175" height="1" fill="url(#paint1_linear_1546_5168)"/>
<rect opacity="0.5" x="879" y="146" width="123" height="1" fill="url(#paint2_linear_1546_5168)"/>
<rect opacity="0.5" x="111" y="220" width="85" height="0.999993" transform="rotate(-180 111 220)" fill="url(#paint3_linear_1546_5168)"/>
<rect opacity="0.5" x="1012" y="350" width="81" height="1" transform="rotate(-90 1012 350)" fill="url(#paint4_linear_1546_5168)"/>
<rect opacity="0.5" x="1304" y="250" width="81" height="1" transform="rotate(-90 1304 250)" fill="url(#paint5_linear_1546_5168)"/>
</g>
<defs>
<radialGradient id="paint0_radial_1546_5168" cx="0" cy="0" r="1" gradientUnits="userSpaceOnUse" gradientTransform="translate(720.5 -1.30534e-05) rotate(90) scale(439 1863)">
<stop stop-color="#242424"/>
<stop offset="0.298677" stop-color="#282828"/>
<stop offset="0.845926"/>
</radialGradient>
<linearGradient id="paint1_linear_1546_5168" x1="289" y1="292.5" x2="464" y2="292.5" gradientUnits="userSpaceOnUse">
<stop stop-color="#FDC067" stop-opacity="0"/>
<stop offset="0.255925" stop-color="#FDC067"/>
<stop offset="0.526042" stop-color="#DAD2E2"/>
<stop offset="0.776401" stop-color="#83D2ED"/>
<stop offset="0.998054" stop-color="#83D2ED" stop-opacity="0"/>
</linearGradient>
<linearGradient id="paint2_linear_1546_5168" x1="879" y1="146.5" x2="1002" y2="146.5" gradientUnits="userSpaceOnUse">
<stop stop-color="#FDC067" stop-opacity="0"/>
<stop offset="0.255925" stop-color="#FDC067"/>
<stop offset="0.526042" stop-color="#DAD2E2"/>
<stop offset="0.776401" stop-color="#83D2ED"/>
<stop offset="0.998054" stop-color="#83D2ED" stop-opacity="0"/>
</linearGradient>
<linearGradient id="paint3_linear_1546_5168" x1="111" y1="220.5" x2="196" y2="220.5" gradientUnits="userSpaceOnUse">
<stop stop-color="#FDC067" stop-opacity="0"/>
<stop offset="0.255925" stop-color="#FDC067"/>
<stop offset="0.526042" stop-color="#DAD2E2"/>
<stop offset="0.776401" stop-color="#83D2ED"/>
<stop offset="0.998054" stop-color="#83D2ED" stop-opacity="0"/>
</linearGradient>
<linearGradient id="paint4_linear_1546_5168" x1="1012" y1="350.5" x2="1093" y2="350.5" gradientUnits="userSpaceOnUse">
<stop stop-color="#FDC067" stop-opacity="0"/>
<stop offset="0.255925" stop-color="#FDC067"/>
<stop offset="0.526042" stop-color="#DAD2E2"/>
<stop offset="0.776401" stop-color="#83D2ED"/>
<stop offset="0.998054" stop-color="#83D2ED" stop-opacity="0"/>
</linearGradient>
<linearGradient id="paint5_linear_1546_5168" x1="1304" y1="250.5" x2="1385" y2="250.5" gradientUnits="userSpaceOnUse">
<stop stop-color="#FDC067" stop-opacity="0"/>
<stop offset="0.255925" stop-color="#FDC067"/>
<stop offset="0.526042" stop-color="#DAD2E2"/>
<stop offset="0.776401" stop-color="#83D2ED"/>
<stop offset="0.998054" stop-color="#83D2ED" stop-opacity="0"/>
</linearGradient>
<clipPath id="clip0_1546_5168">
<rect width="1440" height="438" fill="white"/>
</clipPath>
</defs>
</svg>
