<svg xmlns="http://www.w3.org/2000/svg" width="191" height="52" viewBox="0 0 191 52" fill="none"><g clip-path="url(#clip0_2303_1115)"><path d="M40.1781 10.634C37.1202 9.23543 33.8727 8.21613 30.4829 7.64722C30.0562 8.38207 29.5821 9.37765 29.2502 10.1599C25.6447 9.6384 22.0653 9.6384 18.5096 10.1599C18.1777 9.37765 17.6799 8.38207 17.2769 7.64722C13.8635 8.21613 10.6159 9.23543 7.57933 10.634C1.43982 19.6892 -0.21952 28.531 0.610146 37.2543C4.68735 40.2174 8.62238 42.0191 12.4886 43.2044C13.4368 41.9242 14.2902 40.5493 15.025 39.1034C13.6265 38.5819 12.299 37.9418 11.0189 37.1832C11.3508 36.9463 11.6827 36.6855 11.9908 36.4248C19.7186 39.9568 28.0887 39.9568 35.7216 36.4248C36.0535 36.6855 36.3616 36.9463 36.6935 37.1832C35.4134 37.9418 34.086 38.5819 32.6874 39.1034C33.4223 40.5493 34.2757 41.9242 35.2238 43.2044C39.0877 42.0191 43.0464 40.2174 47.1022 37.2543C48.1214 27.1562 45.4879 18.3855 40.1781 10.634ZM16.0917 31.8734C13.7686 31.8734 11.8723 29.7637 11.8723 27.1799C11.8723 24.5962 13.7212 22.4863 16.0917 22.4863C18.4385 22.4863 20.3585 24.5962 20.3111 27.1799C20.3111 29.7637 18.4385 31.8734 16.0917 31.8734ZM31.6682 31.8734C29.345 31.8734 27.4462 29.7637 27.4462 27.1799C27.4462 24.5962 29.2976 22.4863 31.6682 22.4863C34.0149 22.4863 35.9349 24.5962 35.8875 27.1799C35.8875 29.7637 34.0386 31.8734 31.6682 31.8734Z" fill="url(#paint0_linear_2303_1115)"/><path d="M63.5283 15.0896H73.6053C76.0232 15.0896 78.0854 15.4688 79.7685 16.2274C81.4515 16.986 82.7079 18.0291 83.5376 19.3801C84.3672 20.7314 84.7939 22.2721 84.7939 24.0263C84.7939 25.733 84.3673 27.2739 83.4902 28.6724C82.6131 30.0473 81.2857 31.1613 79.5078 31.9673C77.73 32.7733 75.5253 33.1763 72.8941 33.1763H63.5283V15.0896ZM72.7756 28.5776C74.4112 28.5776 75.6676 28.1746 76.5447 27.345C77.4218 26.539 77.8722 25.4011 77.8722 24.0026C77.8722 22.6988 77.4692 21.6557 76.6869 20.8736C75.9046 20.0913 74.7195 19.6883 73.1312 19.6883H69.9785V28.5776H72.7756Z" fill="url(#paint1_linear_2303_1115)"/><path d="M100.491 33.154C99.0921 32.7984 97.8359 32.2769 96.7217 31.5657V27.2751C97.5751 27.9389 98.6891 28.4604 100.111 28.8871C101.534 29.3138 102.909 29.5272 104.236 29.5272C104.852 29.5272 105.326 29.456 105.635 29.2901C105.943 29.1242 106.109 28.9345 106.109 28.6975C106.109 28.4367 106.014 28.2233 105.848 28.0574C105.682 27.8914 105.35 27.7492 104.852 27.607L101.747 26.9197C99.9692 26.5167 98.7128 25.924 97.9542 25.2128C97.1958 24.5017 96.8402 23.5299 96.8402 22.3446C96.8402 21.3489 97.1721 20.472 97.812 19.7371C98.4758 19.0022 99.4003 18.4333 100.609 18.0303C101.818 17.6274 103.217 17.4141 104.852 17.4141C106.298 17.4141 107.626 17.5563 108.835 17.8882C110.044 18.1962 111.039 18.5992 111.822 19.0733V23.1269C111.016 22.6528 110.067 22.2735 109.024 21.989C107.958 21.7045 106.867 21.5623 105.753 21.5623C104.141 21.5623 103.335 21.8468 103.335 22.392C103.335 22.6528 103.454 22.8424 103.715 22.9846C103.975 23.1269 104.426 23.2454 105.089 23.3876L107.673 23.8618C109.356 24.1461 110.613 24.6676 111.442 25.4025C112.272 26.1374 112.675 27.204 112.675 28.65C112.675 30.2146 111.987 31.4709 110.613 32.3717C109.238 33.2962 107.294 33.7465 104.781 33.7465C103.312 33.6991 101.889 33.5094 100.491 33.154Z" fill="url(#paint2_linear_2303_1115)"/><path d="M119.076 32.6093C117.606 31.8744 116.468 30.9026 115.733 29.6699C114.975 28.4372 114.619 27.0387 114.619 25.4741C114.619 23.9334 114.998 22.5347 115.781 21.3259C116.563 20.0932 117.701 19.145 119.194 18.4339C120.688 17.7465 122.489 17.3909 124.575 17.3909C127.159 17.3909 129.292 17.9361 130.999 19.0264V23.7437C130.406 23.3407 129.695 22.9852 128.889 22.7481C128.083 22.4873 127.23 22.3688 126.329 22.3688C124.717 22.3688 123.485 22.6533 122.56 23.2459C121.659 23.8386 121.209 24.5972 121.209 25.5452C121.209 26.4698 121.636 27.2284 122.537 27.821C123.414 28.4135 124.694 28.7217 126.353 28.7217C127.206 28.7217 128.06 28.6031 128.889 28.3424C129.719 28.0816 130.454 27.7973 131.047 27.418V31.9929C129.15 33.1308 126.946 33.6998 124.457 33.6998C122.347 33.6998 120.569 33.3205 119.076 32.6093Z" fill="url(#paint3_linear_2303_1115)"/><path d="M137.758 32.6093C136.264 31.8744 135.127 30.9026 134.344 29.6462C133.562 28.3898 133.159 26.9913 133.159 25.4267C133.159 23.886 133.562 22.4873 134.344 21.2785C135.127 20.0695 136.264 19.1212 137.734 18.4339C139.204 17.7465 140.982 17.3909 143.023 17.3909C145.061 17.3909 146.839 17.7228 148.309 18.4339C149.779 19.1212 150.916 20.0695 151.699 21.2785C152.481 22.4873 152.86 23.8623 152.86 25.4267C152.86 26.9676 152.481 28.3898 151.699 29.6462C150.916 30.9026 149.802 31.8981 148.309 32.6093C146.815 33.3205 145.061 33.6998 143.023 33.6998C141.005 33.6998 139.251 33.3205 137.758 32.6093ZM145.606 28.0342C146.223 27.418 146.555 26.5646 146.555 25.5452C146.555 24.5023 146.247 23.6963 145.606 23.08C144.967 22.4636 144.113 22.1554 143.046 22.1554C141.932 22.1554 141.076 22.4636 140.437 23.08C139.82 23.6963 139.488 24.5023 139.488 25.5452C139.488 26.5883 139.797 27.418 140.437 28.0342C141.076 28.6743 141.932 28.9824 143.046 28.9824C144.113 28.9587 144.99 28.6506 145.606 28.0342Z" fill="url(#paint4_linear_2303_1115)"/><path d="M168.72 18.3376V23.9084C168.056 23.4817 167.202 23.2683 166.159 23.2683C164.784 23.2683 163.717 23.695 162.983 24.5246C162.247 25.3543 161.868 26.6581 161.868 28.4122V33.1532H155.539V18.0769H161.75V22.889C162.082 21.1348 162.651 19.8311 163.409 19.0014C164.168 18.1717 165.164 17.7214 166.372 17.7214C167.273 17.7214 168.056 17.9348 168.72 18.3376Z" fill="url(#paint5_linear_2303_1115)"/><path d="M190.058 14.5688V33.177H183.73V29.7872C183.184 31.0673 182.378 32.0393 181.287 32.7029C180.195 33.3666 178.843 33.6985 177.231 33.6985C175.809 33.6985 174.553 33.3429 173.486 32.6555C172.42 31.9682 171.591 30.9962 171.022 29.7872C170.453 28.5547 170.168 27.1797 170.168 25.6627C170.144 24.0744 170.453 22.6522 171.092 21.3958C171.708 20.1395 172.609 19.1676 173.747 18.4564C174.885 17.7452 176.188 17.3896 177.658 17.3896C180.669 17.3896 182.687 18.6935 183.73 21.3247V14.5688H190.058ZM182.781 27.9146C183.421 27.2982 183.753 26.4685 183.753 25.4731C183.753 24.5011 183.445 23.7188 182.804 23.1263C182.165 22.5337 181.312 22.2255 180.243 22.2255C179.175 22.2255 178.322 22.5337 177.682 23.15C177.042 23.7662 176.734 24.5485 176.734 25.5442C176.734 26.5397 177.042 27.322 177.682 27.9383C178.322 28.5547 179.152 28.8628 180.218 28.8628C181.287 28.8628 182.141 28.5547 182.781 27.9146Z" fill="url(#paint6_linear_2303_1115)"/><path d="M90.6289 18.9784C92.447 18.9784 93.9239 17.6516 93.9239 16.0153C93.9239 14.3788 92.447 13.0522 90.6289 13.0522C88.8083 13.0522 87.334 14.3788 87.334 16.0153C87.334 17.6516 88.8083 18.9784 90.6289 18.9784Z" fill="url(#paint7_linear_2303_1115)"/><path d="M93.9239 21.0156C91.9089 21.8926 89.3962 21.9163 87.334 21.0156V33.1761H93.9239V21.0156Z" fill="url(#paint8_linear_2303_1115)"/></g><defs><linearGradient id="paint0_linear_2303_1115" x1="23.8647" y1="7.64722" x2="23.8647" y2="43.2044" gradientUnits="userSpaceOnUse"><stop stop-color="white"/><stop offset="1" stop-color="white" stop-opacity="0.5"/></linearGradient><linearGradient id="paint1_linear_2303_1115" x1="74.1611" y1="15.0896" x2="74.1611" y2="33.1763" gradientUnits="userSpaceOnUse"><stop stop-color="white"/><stop offset="1" stop-color="white" stop-opacity="0.5"/></linearGradient><linearGradient id="paint2_linear_2303_1115" x1="104.698" y1="17.4141" x2="104.698" y2="33.7465" gradientUnits="userSpaceOnUse"><stop stop-color="white"/><stop offset="1" stop-color="white" stop-opacity="0.5"/></linearGradient><linearGradient id="paint3_linear_2303_1115" x1="122.833" y1="17.3909" x2="122.833" y2="33.6998" gradientUnits="userSpaceOnUse"><stop stop-color="white"/><stop offset="1" stop-color="white" stop-opacity="0.5"/></linearGradient><linearGradient id="paint4_linear_2303_1115" x1="143.01" y1="17.3909" x2="143.01" y2="33.6998" gradientUnits="userSpaceOnUse"><stop stop-color="white"/><stop offset="1" stop-color="white" stop-opacity="0.5"/></linearGradient><linearGradient id="paint5_linear_2303_1115" x1="162.129" y1="17.7214" x2="162.129" y2="33.1532" gradientUnits="userSpaceOnUse"><stop stop-color="white"/><stop offset="1" stop-color="white" stop-opacity="0.5"/></linearGradient><linearGradient id="paint6_linear_2303_1115" x1="180.113" y1="14.5688" x2="180.113" y2="33.6985" gradientUnits="userSpaceOnUse"><stop stop-color="white"/><stop offset="1" stop-color="white" stop-opacity="0.5"/></linearGradient><linearGradient id="paint7_linear_2303_1115" x1="90.6289" y1="13.0522" x2="90.6289" y2="18.9784" gradientUnits="userSpaceOnUse"><stop stop-color="white"/><stop offset="1" stop-color="white" stop-opacity="0.5"/></linearGradient><linearGradient id="paint8_linear_2303_1115" x1="90.6289" y1="21.0156" x2="90.6289" y2="33.1761" gradientUnits="userSpaceOnUse"><stop stop-color="white"/><stop offset="1" stop-color="white" stop-opacity="0.5"/></linearGradient><clipPath id="clip0_2303_1115"><rect width="189.647" height="52" fill="white" transform="translate(0.412109)"/></clipPath></defs></svg>