<svg width="175" height="190" viewBox="0 0 175 190" fill="none" xmlns="http://www.w3.org/2000/svg">
  <path opacity="0.3"
    d="M2.28868 1.14415L1.14453 0L0.000379961 1.14415L1.14453 2.2883L2.28868 1.14415Z"
    fill="#83D2ED" />
  <path opacity="0.3" d="M16.6715 1.14415L15.5273 0L14.3832 1.14415L15.5273 2.2883L16.6715 1.14415Z"
    fill="#83D2ED" />
  <path opacity="0.3" d="M31.0543 1.14415L29.9102 0L28.766 1.14415L29.9102 2.2883L31.0543 1.14415Z"
    fill="#83D2ED" />
  <path d="M45.4371 1.14415L44.293 0L43.1488 1.14415L44.293 2.2883L45.4371 1.14415Z" fill="#83D2ED" />
  <path opacity="0.3" d="M59.8199 1.14415L58.6758 0L57.5316 1.14415L58.6758 2.2883L59.8199 1.14415Z"
    fill="#83D2ED" />
  <path opacity="0.3" d="M74.2027 1.14415L73.0586 0L71.9144 1.14415L73.0586 2.2883L74.2027 1.14415Z"
    fill="#83D2ED" />
  <path opacity="0.3" d="M88.5856 1.14415L87.4414 0L86.2973 1.14415L87.4414 2.2883L88.5856 1.14415Z"
    fill="#83D2ED" />
  <path opacity="0.3" d="M102.968 1.14415L101.824 0L100.68 1.14415L101.824 2.2883L102.968 1.14415Z"
    fill="#83D2ED" />
  <path opacity="0.3" d="M117.351 1.14415L116.207 0L115.063 1.14415L116.207 2.2883L117.351 1.14415Z"
    fill="#83D2ED" />
  <path opacity="0.3" d="M131.734 1.14415L130.59 0L129.446 1.14415L130.59 2.2883L131.734 1.14415Z"
    fill="#83D2ED" />
  <path opacity="0.3" d="M146.117 1.14415L144.973 0L143.829 1.14415L144.973 2.2883L146.117 1.14415Z"
    fill="#83D2ED" />
  <path opacity="0.3" d="M160.5 1.14415L159.355 0L158.211 1.14415L159.355 2.2883L160.5 1.14415Z"
    fill="#83D2ED" />
  <path opacity="0.3" d="M174.882 1.14415L173.738 0L172.594 1.14415L173.738 2.2883L174.882 1.14415Z"
    fill="#83D2ED" />
  <path opacity="0.3"
    d="M2.28868 15.527L1.14453 14.3828L0.000379961 15.527L1.14453 16.6711L2.28868 15.527Z"
    fill="#83D2ED" />
  <path opacity="0.3"
    d="M16.6715 15.527L15.5273 14.3828L14.3832 15.527L15.5273 16.6711L16.6715 15.527Z"
    fill="#83D2ED" />
  <path opacity="0.3"
    d="M31.0543 15.527L29.9102 14.3828L28.766 15.527L29.9102 16.6711L31.0543 15.527Z" fill="#83D2ED" />
  <path opacity="0.3"
    d="M45.4371 15.527L44.293 14.3828L43.1488 15.527L44.293 16.6711L45.4371 15.527Z" fill="#83D2ED" />
  <path opacity="0.3"
    d="M59.8199 15.527L58.6758 14.3828L57.5316 15.527L58.6758 16.6711L59.8199 15.527Z"
    fill="#83D2ED" />
  <path opacity="0.3"
    d="M74.2027 15.527L73.0586 14.3828L71.9144 15.527L73.0586 16.6711L74.2027 15.527Z"
    fill="#83D2ED" />
  <path opacity="0.3"
    d="M88.5856 15.527L87.4414 14.3828L86.2973 15.527L87.4414 16.6711L88.5856 15.527Z"
    fill="#83D2ED" />
  <path d="M102.968 15.527L101.824 14.3828L100.68 15.527L101.824 16.6711L102.968 15.527Z"
    fill="#83D2ED" />
  <path opacity="0.3"
    d="M117.351 15.527L116.207 14.3828L115.063 15.527L116.207 16.6711L117.351 15.527Z"
    fill="#83D2ED" />
  <path opacity="0.3"
    d="M131.734 15.527L130.59 14.3828L129.446 15.527L130.59 16.6711L131.734 15.527Z" fill="#83D2ED" />
  <path d="M146.117 15.527L144.973 14.3828L143.829 15.527L144.973 16.6711L146.117 15.527Z"
    fill="#83D2ED" />
  <path opacity="0.3" d="M160.5 15.527L159.355 14.3828L158.211 15.527L159.355 16.6711L160.5 15.527Z"
    fill="#83D2ED" />
  <path opacity="0.3"
    d="M174.882 15.527L173.738 14.3828L172.594 15.527L173.738 16.6711L174.882 15.527Z"
    fill="#83D2ED" />
  <path opacity="0.3"
    d="M2.28868 29.91L1.14453 28.7659L0.000379961 29.91L1.14453 31.0542L2.28868 29.91Z"
    fill="#83D2ED" />
  <path opacity="0.3"
    d="M16.6715 29.91L15.5273 28.7659L14.3832 29.91L15.5273 31.0542L16.6715 29.91Z" fill="#83D2ED" />
  <path d="M31.0543 29.91L29.9102 28.7659L28.766 29.91L29.9102 31.0542L31.0543 29.91Z"
    fill="#83D2ED" />
  <path opacity="0.3" d="M45.4371 29.91L44.293 28.7659L43.1488 29.91L44.293 31.0542L45.4371 29.91Z"
    fill="#83D2ED" />
  <path opacity="0.3"
    d="M59.8199 29.91L58.6758 28.7659L57.5316 29.91L58.6758 31.0542L59.8199 29.91Z" fill="#83D2ED" />
  <path opacity="0.3"
    d="M74.2027 29.91L73.0586 28.7659L71.9144 29.91L73.0586 31.0542L74.2027 29.91Z" fill="#83D2ED" />
  <path opacity="0.3"
    d="M88.5856 29.91L87.4414 28.7659L86.2973 29.91L87.4414 31.0542L88.5856 29.91Z" fill="#83D2ED" />
  <path opacity="0.3" d="M102.968 29.91L101.824 28.7659L100.68 29.91L101.824 31.0542L102.968 29.91Z"
    fill="#83D2ED" />
  <path opacity="0.3"
    d="M117.351 29.91L116.207 28.7659L115.063 29.91L116.207 31.0542L117.351 29.91Z" fill="#83D2ED" />
  <path opacity="0.3" d="M131.734 29.91L130.59 28.7659L129.446 29.91L130.59 31.0542L131.734 29.91Z"
    fill="#83D2ED" />
  <path opacity="0.3"
    d="M146.117 29.91L144.973 28.7659L143.829 29.91L144.973 31.0542L146.117 29.91Z" fill="#83D2ED" />
  <path d="M160.5 29.91L159.355 28.7659L158.211 29.91L159.355 31.0542L160.5 29.91Z" fill="#83D2ED" />
  <path opacity="0.3"
    d="M174.882 29.91L173.738 28.7659L172.594 29.91L173.738 31.0542L174.882 29.91Z" fill="#83D2ED" />
  <path opacity="0.3"
    d="M2.28868 44.2928L1.14453 43.1487L0.000379961 44.2928L1.14453 45.437L2.28868 44.2928Z"
    fill="#83D2ED" />
  <path d="M16.6715 44.2928L15.5273 43.1487L14.3832 44.2928L15.5273 45.437L16.6715 44.2928Z"
    fill="#83D2ED" />
  <path opacity="0.3"
    d="M31.0543 44.2928L29.9102 43.1487L28.766 44.2928L29.9102 45.437L31.0543 44.2928Z"
    fill="#83D2ED" />
  <path opacity="0.3"
    d="M146.117 44.2928L144.973 43.1487L143.829 44.2928L144.973 45.437L146.117 44.2928Z"
    fill="#83D2ED" />
  <path opacity="0.3"
    d="M160.5 44.2928L159.355 43.1487L158.211 44.2928L159.355 45.437L160.5 44.2928Z" fill="#83D2ED" />
  <path opacity="0.3"
    d="M174.882 44.2928L173.738 43.1487L172.594 44.2928L173.738 45.437L174.882 44.2928Z"
    fill="#83D2ED" />
  <path opacity="0.3"
    d="M2.28868 58.6756L1.14453 57.5315L0.000379961 58.6756L1.14453 59.8198L2.28868 58.6756Z"
    fill="#83D2ED" />
  <path opacity="0.3"
    d="M16.6715 58.6756L15.5273 57.5315L14.3832 58.6756L15.5273 59.8198L16.6715 58.6756Z"
    fill="#83D2ED" />
  <path opacity="0.3"
    d="M31.0543 58.6756L29.9102 57.5315L28.766 58.6756L29.9102 59.8198L31.0543 58.6756Z"
    fill="#83D2ED" />
  <path d="M146.117 58.6756L144.973 57.5315L143.829 58.6756L144.973 59.8198L146.117 58.6756Z"
    fill="#83D2ED" />
  <path opacity="0.3"
    d="M160.5 58.6756L159.355 57.5315L158.211 58.6756L159.355 59.8198L160.5 58.6756Z" fill="#83D2ED" />
  <path opacity="0.3"
    d="M174.882 58.6756L173.738 57.5315L172.594 58.6756L173.738 59.8198L174.882 58.6756Z"
    fill="#83D2ED" />
  <path opacity="0.3"
    d="M2.28868 73.0585L1.14453 71.9143L0.000379961 73.0585L1.14453 74.2026L2.28868 73.0585Z"
    fill="#83D2ED" />
  <path opacity="0.3"
    d="M16.6715 73.0585L15.5273 71.9143L14.3832 73.0585L15.5273 74.2026L16.6715 73.0585Z"
    fill="#83D2ED" />
  <path opacity="0.3"
    d="M31.0543 73.0585L29.9102 71.9143L28.766 73.0585L29.9102 74.2026L31.0543 73.0585Z"
    fill="#83D2ED" />
  <path opacity="0.3"
    d="M146.117 73.0585L144.973 71.9143L143.829 73.0585L144.973 74.2026L146.117 73.0585Z"
    fill="#83D2ED" />
  <path opacity="0.3"
    d="M160.5 73.0585L159.355 71.9143L158.211 73.0585L159.355 74.2026L160.5 73.0585Z" fill="#83D2ED" />
  <path opacity="0.3"
    d="M174.882 73.0585L173.738 71.9143L172.594 73.0585L173.738 74.2026L174.882 73.0585Z"
    fill="#83D2ED" />
  <path opacity="0.3"
    d="M2.28868 87.4415L1.14453 86.2974L0.000379961 87.4415L1.14453 88.5857L2.28868 87.4415Z"
    fill="#83D2ED" />
  <path opacity="0.3"
    d="M16.6715 87.4415L15.5273 86.2974L14.3832 87.4415L15.5273 88.5857L16.6715 87.4415Z"
    fill="#83D2ED" />
  <path opacity="0.3"
    d="M31.0543 87.4415L29.9102 86.2974L28.766 87.4415L29.9102 88.5857L31.0543 87.4415Z"
    fill="#83D2ED" />
  <path opacity="0.3"
    d="M146.117 87.4415L144.973 86.2974L143.829 87.4415L144.973 88.5857L146.117 87.4415Z"
    fill="#83D2ED" />
  <path opacity="0.3"
    d="M160.5 87.4415L159.355 86.2974L158.211 87.4415L159.355 88.5857L160.5 87.4415Z" fill="#83D2ED" />
  <path opacity="0.3"
    d="M174.882 87.4415L173.738 86.2974L172.594 87.4415L173.738 88.5857L174.882 87.4415Z"
    fill="#83D2ED" />
  <path opacity="0.3"
    d="M2.28868 101.824L1.14453 100.68L0.000379961 101.824L1.14453 102.968L2.28868 101.824Z"
    fill="#83D2ED" />
  <path d="M16.6715 101.824L15.5273 100.68L14.3832 101.824L15.5273 102.968L16.6715 101.824Z"
    fill="#83D2ED" />
  <path opacity="0.3"
    d="M31.0543 101.824L29.9102 100.68L28.766 101.824L29.9102 102.968L31.0543 101.824Z"
    fill="#83D2ED" />
  <path opacity="0.3"
    d="M146.117 101.824L144.973 100.68L143.829 101.824L144.973 102.968L146.117 101.824Z"
    fill="#83D2ED" />
  <path opacity="0.3"
    d="M160.5 101.824L159.355 100.68L158.211 101.824L159.355 102.968L160.5 101.824Z" fill="#83D2ED" />
  <path opacity="0.3"
    d="M174.882 101.824L173.738 100.68L172.594 101.824L173.738 102.968L174.882 101.824Z"
    fill="#83D2ED" />
  <path opacity="0.3"
    d="M2.28868 116.207L1.14453 115.063L0.000379961 116.207L1.14453 117.351L2.28868 116.207Z"
    fill="#83D2ED" />
  <path opacity="0.3"
    d="M16.6715 116.207L15.5273 115.063L14.3832 116.207L15.5273 117.351L16.6715 116.207Z"
    fill="#83D2ED" />
  <path opacity="0.3"
    d="M31.0543 116.207L29.9102 115.063L28.766 116.207L29.9102 117.351L31.0543 116.207Z"
    fill="#83D2ED" />
  <path opacity="0.3"
    d="M146.117 116.207L144.973 115.063L143.829 116.207L144.973 117.351L146.117 116.207Z"
    fill="#83D2ED" />
  <path opacity="0.3"
    d="M160.5 116.207L159.355 115.063L158.211 116.207L159.355 117.351L160.5 116.207Z" fill="#83D2ED" />
  <path opacity="0.3"
    d="M174.882 116.207L173.738 115.063L172.594 116.207L173.738 117.352L174.882 116.207Z"
    fill="#83D2ED" />
  <path opacity="0.3"
    d="M2.28868 130.59L1.14453 129.446L0.000379961 130.59L1.14453 131.734L2.28868 130.59Z"
    fill="#83D2ED" />
  <path d="M16.6715 130.59L15.5273 129.446L14.3832 130.59L15.5273 131.734L16.6715 130.59Z"
    fill="#83D2ED" />
  <path opacity="0.3"
    d="M31.0543 130.59L29.9102 129.446L28.766 130.59L29.9102 131.734L31.0543 130.59Z" fill="#83D2ED" />
  <path opacity="0.3"
    d="M146.117 130.59L144.973 129.446L143.829 130.59L144.973 131.734L146.117 130.59Z"
    fill="#83D2ED" />
  <path opacity="0.3" d="M160.5 130.59L159.355 129.446L158.211 130.59L159.355 131.734L160.5 130.59Z"
    fill="#83D2ED" />
  <path opacity="0.3"
    d="M174.882 130.59L173.738 129.446L172.594 130.59L173.738 131.734L174.882 130.59Z"
    fill="#83D2ED" />
  <path opacity="0.3"
    d="M2.28868 144.973L1.14453 143.829L0.000379961 144.973L1.14453 146.117L2.28868 144.973Z"
    fill="#83D2ED" />
  <path d="M16.6715 144.973L15.5273 143.829L14.3832 144.973L15.5273 146.117L16.6715 144.973Z"
    fill="#83D2ED" />
  <path opacity="0.3"
    d="M31.0543 144.973L29.9102 143.829L28.766 144.973L29.9102 146.117L31.0543 144.973Z"
    fill="#83D2ED" />
  <path opacity="0.3"
    d="M146.117 144.973L144.973 143.829L143.829 144.973L144.973 146.117L146.117 144.973Z"
    fill="#83D2ED" />
  <path d="M160.5 144.973L159.355 143.829L158.211 144.973L159.355 146.117L160.5 144.973Z"
    fill="#83D2ED" />
  <path opacity="0.3"
    d="M174.882 144.973L173.738 143.829L172.594 144.973L173.738 146.117L174.882 144.973Z"
    fill="#83D2ED" />
  <path opacity="0.3"
    d="M2.28868 159.356L1.14453 158.212L0.000379961 159.356L1.14453 160.5L2.28868 159.356Z"
    fill="#83D2ED" />
  <path d="M16.6715 159.356L15.5273 158.212L14.3832 159.356L15.5273 160.5L16.6715 159.356Z"
    fill="#83D2ED" />
  <path opacity="0.3"
    d="M31.0543 159.356L29.9102 158.212L28.766 159.356L29.9102 160.5L31.0543 159.356Z"
    fill="#83D2ED" />
  <path opacity="0.3"
    d="M45.4371 159.356L44.293 158.212L43.1488 159.356L44.293 160.5L45.4371 159.356Z" fill="#83D2ED" />
  <path opacity="0.3"
    d="M59.8199 159.356L58.6758 158.212L57.5316 159.356L58.6758 160.5L59.8199 159.356Z"
    fill="#83D2ED" />
  <path opacity="0.3"
    d="M74.2027 159.356L73.0586 158.212L71.9144 159.356L73.0586 160.5L74.2027 159.356Z"
    fill="#83D2ED" />
  <path opacity="0.3"
    d="M88.5856 159.356L87.4414 158.212L86.2973 159.356L87.4414 160.5L88.5856 159.356Z"
    fill="#83D2ED" />
  <path d="M102.968 159.356L101.824 158.212L100.68 159.356L101.824 160.5L102.968 159.356Z"
    fill="#83D2ED" />
  <path opacity="0.3"
    d="M117.351 159.356L116.207 158.212L115.063 159.356L116.207 160.5L117.351 159.356Z"
    fill="#83D2ED" />
  <path opacity="0.3"
    d="M131.734 159.356L130.59 158.212L129.446 159.356L130.59 160.5L131.734 159.356Z" fill="#83D2ED" />
  <path opacity="0.3"
    d="M146.117 159.356L144.973 158.212L143.829 159.356L144.973 160.5L146.117 159.356Z"
    fill="#83D2ED" />
  <path opacity="0.3"
    d="M160.5 159.356L159.355 158.212L158.211 159.356L159.355 160.5L160.5 159.356Z" fill="#83D2ED" />
  <path opacity="0.3"
    d="M174.882 159.356L173.738 158.212L172.594 159.356L173.738 160.5L174.882 159.356Z"
    fill="#83D2ED" />
  <path opacity="0.3"
    d="M2.28868 173.739L1.14453 172.595L0.000379961 173.739L1.14453 174.883L2.28868 173.739Z"
    fill="#83D2ED" />
  <path opacity="0.3"
    d="M16.6715 173.739L15.5273 172.595L14.3832 173.739L15.5273 174.883L16.6715 173.739Z"
    fill="#83D2ED" />
  <path opacity="0.3"
    d="M31.0543 173.739L29.9102 172.595L28.766 173.739L29.9102 174.883L31.0543 173.739Z"
    fill="#83D2ED" />
  <path d="M45.4371 173.739L44.293 172.595L43.1488 173.739L44.293 174.883L45.4371 173.739Z"
    fill="#83D2ED" />
  <path opacity="0.3"
    d="M59.8199 173.739L58.6758 172.595L57.5316 173.739L58.6758 174.883L59.8199 173.739Z"
    fill="#83D2ED" />
  <path opacity="0.3"
    d="M74.2027 173.739L73.0586 172.595L71.9144 173.739L73.0586 174.883L74.2027 173.739Z"
    fill="#83D2ED" />
  <path d="M88.5856 173.739L87.4414 172.595L86.2973 173.739L87.4414 174.883L88.5856 173.739Z"
    fill="#83D2ED" />
  <path opacity="0.3"
    d="M102.968 173.739L101.824 172.595L100.68 173.739L101.824 174.883L102.968 173.739Z"
    fill="#83D2ED" />
  <path opacity="0.3"
    d="M117.351 173.739L116.207 172.595L115.063 173.739L116.207 174.883L117.351 173.739Z"
    fill="#83D2ED" />
  <path opacity="0.3"
    d="M131.734 173.739L130.59 172.595L129.446 173.739L130.59 174.883L131.734 173.739Z"
    fill="#83D2ED" />
  <path opacity="0.3"
    d="M146.117 173.739L144.973 172.595L143.829 173.739L144.973 174.883L146.117 173.739Z"
    fill="#83D2ED" />
  <path opacity="0.3"
    d="M160.5 173.739L159.355 172.595L158.211 173.739L159.355 174.883L160.5 173.739Z" fill="#83D2ED" />
  <path opacity="0.3"
    d="M174.882 173.739L173.738 172.595L172.594 173.739L173.738 174.883L174.882 173.739Z"
    fill="#83D2ED" />
  <path opacity="0.3"
    d="M2.28868 188.122L1.14453 186.978L0.000379961 188.122L1.14453 189.266L2.28868 188.122Z"
    fill="#83D2ED" />
  <path opacity="0.3"
    d="M16.6715 188.122L15.5273 186.978L14.3832 188.122L15.5273 189.266L16.6715 188.122Z"
    fill="#83D2ED" />
  <path opacity="0.3"
    d="M31.0543 188.122L29.9102 186.978L28.766 188.122L29.9102 189.266L31.0543 188.122Z"
    fill="#83D2ED" />
  <path opacity="0.3"
    d="M45.4371 188.122L44.293 186.978L43.1488 188.122L44.293 189.266L45.4371 188.122Z"
    fill="#83D2ED" />
  <path opacity="0.3"
    d="M59.8199 188.122L58.6758 186.978L57.5316 188.122L58.6758 189.266L59.8199 188.122Z"
    fill="#83D2ED" />
  <path opacity="0.3"
    d="M74.2027 188.122L73.0586 186.978L71.9144 188.122L73.0586 189.266L74.2027 188.122Z"
    fill="#83D2ED" />
  <path opacity="0.3"
    d="M88.5856 188.122L87.4414 186.978L86.2973 188.122L87.4414 189.266L88.5856 188.122Z"
    fill="#83D2ED" />
  <path opacity="0.3"
    d="M102.968 188.122L101.824 186.978L100.68 188.122L101.824 189.266L102.968 188.122Z"
    fill="#83D2ED" />
  <path opacity="0.3"
    d="M117.351 188.122L116.207 186.978L115.063 188.122L116.207 189.266L117.351 188.122Z"
    fill="#83D2ED" />
  <path opacity="0.3"
    d="M131.734 188.122L130.59 186.978L129.446 188.122L130.59 189.266L131.734 188.122Z"
    fill="#83D2ED" />
  <path opacity="0.3"
    d="M146.117 188.122L144.973 186.978L143.829 188.122L144.973 189.266L146.117 188.122Z"
    fill="#83D2ED" />
  <path opacity="0.3"
    d="M160.5 188.122L159.355 186.978L158.211 188.122L159.355 189.266L160.5 188.122Z" fill="#83D2ED" />
  <path opacity="0.3"
    d="M174.882 188.122L173.738 186.978L172.594 188.122L173.738 189.266L174.882 188.122Z"
    fill="#83D2ED" />
</svg>