<svg width="176" height="190" viewBox="0 0 176 190" fill="none" xmlns="http://www.w3.org/2000/svg">
  <path opacity="0.3"
    d="M2.93517 1.14415L1.79102 0L0.646864 1.14415L1.79102 2.2883L2.93517 1.14415Z" fill="#83D2ED" />
  <path d="M17.318 1.14415L16.1738 0L15.0297 1.14415L16.1738 2.2883L17.318 1.14415Z" fill="#83D2ED" />
  <path opacity="0.3" d="M31.7008 1.14415L30.5566 0L29.4125 1.14415L30.5566 2.2883L31.7008 1.14415Z"
    fill="#83D2ED" />
  <path opacity="0.3" d="M46.0836 1.14415L44.9395 0L43.7953 1.14415L44.9395 2.2883L46.0836 1.14415Z"
    fill="#83D2ED" />
  <path opacity="0.3" d="M60.4664 1.14415L59.3223 0L58.1781 1.14415L59.3223 2.2883L60.4664 1.14415Z"
    fill="#83D2ED" />
  <path opacity="0.3" d="M74.8492 1.14415L73.7051 0L72.5609 1.14415L73.7051 2.2883L74.8492 1.14415Z"
    fill="#83D2ED" />
  <path opacity="0.3" d="M89.232 1.14415L88.0879 0L86.9437 1.14415L88.0879 2.2883L89.232 1.14415Z"
    fill="#83D2ED" />
  <path opacity="0.3" d="M103.615 1.14415L102.471 0L101.327 1.14415L102.471 2.2883L103.615 1.14415Z"
    fill="#83D2ED" />
  <path opacity="0.3" d="M117.998 1.14415L116.854 0L115.709 1.14415L116.854 2.2883L117.998 1.14415Z"
    fill="#83D2ED" />
  <path d="M132.38 1.14415L131.236 0L130.092 1.14415L131.236 2.2883L132.38 1.14415Z" fill="#83D2ED" />
  <path opacity="0.3" d="M146.763 1.14415L145.619 0L144.475 1.14415L145.619 2.2883L146.763 1.14415Z"
    fill="#83D2ED" />
  <path opacity="0.3" d="M161.146 1.14415L160.002 0L158.858 1.14415L160.002 2.2883L161.146 1.14415Z"
    fill="#83D2ED" />
  <path opacity="0.3" d="M175.529 1.14415L174.385 0L173.241 1.14415L174.385 2.2883L175.529 1.14415Z"
    fill="#83D2ED" />
  <path opacity="0.3"
    d="M2.93517 15.527L1.79102 14.3828L0.646864 15.527L1.79102 16.6711L2.93517 15.527Z"
    fill="#83D2ED" />
  <path opacity="0.3"
    d="M17.318 15.527L16.1738 14.3828L15.0297 15.527L16.1738 16.6711L17.318 15.527Z" fill="#83D2ED" />
  <path opacity="0.3"
    d="M31.7008 15.527L30.5566 14.3828L29.4125 15.527L30.5566 16.6711L31.7008 15.527Z"
    fill="#83D2ED" />
  <path opacity="0.3"
    d="M46.0836 15.527L44.9395 14.3828L43.7953 15.527L44.9395 16.6711L46.0836 15.527Z"
    fill="#83D2ED" />
  <path opacity="0.3"
    d="M60.4664 15.527L59.3223 14.3828L58.1781 15.527L59.3223 16.6711L60.4664 15.527Z"
    fill="#83D2ED" />
  <path d="M74.8492 15.527L73.7051 14.3828L72.5609 15.527L73.7051 16.6711L74.8492 15.527Z"
    fill="#83D2ED" />
  <path d="M89.232 15.527L88.0879 14.3828L86.9437 15.527L88.0879 16.6711L89.232 15.527Z"
    fill="#83D2ED" />
  <path opacity="0.3"
    d="M103.615 15.527L102.471 14.3828L101.327 15.527L102.471 16.6711L103.615 15.527Z"
    fill="#83D2ED" />
  <path d="M117.998 15.527L116.854 14.3828L115.709 15.527L116.854 16.6711L117.998 15.527Z"
    fill="#83D2ED" />
  <path opacity="0.3"
    d="M132.38 15.527L131.236 14.3828L130.092 15.527L131.236 16.6711L132.38 15.527Z" fill="#83D2ED" />
  <path opacity="0.3"
    d="M146.763 15.527L145.619 14.3828L144.475 15.527L145.619 16.6711L146.763 15.527Z"
    fill="#83D2ED" />
  <path opacity="0.3"
    d="M161.146 15.527L160.002 14.3828L158.858 15.527L160.002 16.6711L161.146 15.527Z"
    fill="#83D2ED" />
  <path d="M175.529 15.527L174.385 14.3828L173.241 15.527L174.385 16.6711L175.529 15.527Z"
    fill="#83D2ED" />
  <path opacity="0.3"
    d="M2.93517 29.91L1.79102 28.7659L0.646864 29.91L1.79102 31.0542L2.93517 29.91Z" fill="#83D2ED" />
  <path d="M17.318 29.91L16.1738 28.7659L15.0297 29.91L16.1738 31.0542L17.318 29.91Z" fill="#83D2ED" />
  <path opacity="0.3"
    d="M31.7008 29.91L30.5566 28.7659L29.4125 29.91L30.5566 31.0542L31.7008 29.91Z" fill="#83D2ED" />
  <path d="M46.0836 29.91L44.9395 28.7659L43.7953 29.91L44.9395 31.0542L46.0836 29.91Z"
    fill="#83D2ED" />
  <path opacity="0.3"
    d="M60.4664 29.91L59.3223 28.7659L58.1781 29.91L59.3223 31.0542L60.4664 29.91Z" fill="#83D2ED" />
  <path opacity="0.3"
    d="M74.8492 29.91L73.7051 28.7659L72.5609 29.91L73.7051 31.0542L74.8492 29.91Z" fill="#83D2ED" />
  <path d="M89.232 29.91L88.0879 28.7659L86.9437 29.91L88.0879 31.0542L89.232 29.91Z" fill="#83D2ED" />
  <path opacity="0.3"
    d="M103.615 29.91L102.471 28.7659L101.327 29.91L102.471 31.0542L103.615 29.91Z" fill="#83D2ED" />
  <path opacity="0.3"
    d="M117.998 29.91L116.854 28.7659L115.709 29.91L116.854 31.0542L117.998 29.91Z" fill="#83D2ED" />
  <path opacity="0.3" d="M132.38 29.91L131.236 28.7659L130.092 29.91L131.236 31.0542L132.38 29.91Z"
    fill="#83D2ED" />
  <path opacity="0.3"
    d="M146.763 29.91L145.619 28.7659L144.475 29.91L145.619 31.0542L146.763 29.91Z" fill="#83D2ED" />
  <path opacity="0.3"
    d="M161.146 29.91L160.002 28.7659L158.858 29.91L160.002 31.0542L161.146 29.91Z" fill="#83D2ED" />
  <path opacity="0.3"
    d="M175.529 29.91L174.385 28.7659L173.241 29.91L174.385 31.0542L175.529 29.91Z" fill="#83D2ED" />
  <path opacity="0.3"
    d="M2.93517 44.2928L1.79102 43.1487L0.646864 44.2928L1.79102 45.437L2.93517 44.2928Z"
    fill="#83D2ED" />
  <path d="M17.318 44.2928L16.1738 43.1487L15.0297 44.2928L16.1738 45.437L17.318 44.2928Z"
    fill="#83D2ED" />
  <path opacity="0.3"
    d="M31.7008 44.2928L30.5566 43.1487L29.4125 44.2928L30.5566 45.437L31.7008 44.2928Z"
    fill="#83D2ED" />
  <path opacity="0.3"
    d="M146.763 44.2928L145.619 43.1487L144.475 44.2928L145.619 45.437L146.763 44.2928Z"
    fill="#83D2ED" />
  <path opacity="0.3"
    d="M161.146 44.2928L160.002 43.1487L158.858 44.2928L160.002 45.437L161.146 44.2928Z"
    fill="#83D2ED" />
  <path opacity="0.3"
    d="M175.529 44.2928L174.385 43.1487L173.241 44.2928L174.385 45.437L175.529 44.2928Z"
    fill="#83D2ED" />
  <path opacity="0.3"
    d="M2.93517 58.6756L1.79102 57.5315L0.646864 58.6756L1.79102 59.8198L2.93517 58.6756Z"
    fill="#83D2ED" />
  <path opacity="0.3"
    d="M17.318 58.6756L16.1738 57.5315L15.0297 58.6756L16.1738 59.8198L17.318 58.6756Z"
    fill="#83D2ED" />
  <path opacity="0.3"
    d="M31.7008 58.6756L30.5566 57.5315L29.4125 58.6756L30.5566 59.8198L31.7008 58.6756Z"
    fill="#83D2ED" />
  <path opacity="0.3"
    d="M146.763 58.6756L145.619 57.5315L144.475 58.6756L145.619 59.8198L146.763 58.6756Z"
    fill="#83D2ED" />
  <path d="M161.146 58.6756L160.002 57.5315L158.858 58.6756L160.002 59.8198L161.146 58.6756Z"
    fill="#83D2ED" />
  <path opacity="0.3"
    d="M175.529 58.6756L174.385 57.5315L173.241 58.6756L174.385 59.8198L175.529 58.6756Z"
    fill="#83D2ED" />
  <path opacity="0.3"
    d="M2.93517 73.0585L1.79102 71.9143L0.646864 73.0585L1.79102 74.2026L2.93517 73.0585Z"
    fill="#83D2ED" />
  <path opacity="0.3"
    d="M17.318 73.0585L16.1738 71.9143L15.0297 73.0585L16.1738 74.2026L17.318 73.0585Z"
    fill="#83D2ED" />
  <path opacity="0.3"
    d="M31.7008 73.0585L30.5566 71.9143L29.4125 73.0585L30.5566 74.2026L31.7008 73.0585Z"
    fill="#83D2ED" />
  <path opacity="0.3"
    d="M146.763 73.0585L145.619 71.9143L144.475 73.0585L145.619 74.2026L146.763 73.0585Z"
    fill="#83D2ED" />
  <path d="M161.146 73.0585L160.002 71.9143L158.858 73.0585L160.002 74.2026L161.146 73.0585Z"
    fill="#83D2ED" />
  <path opacity="0.3"
    d="M175.529 73.0585L174.385 71.9143L173.241 73.0585L174.385 74.2026L175.529 73.0585Z"
    fill="#83D2ED" />
  <path opacity="0.3"
    d="M2.93517 87.4415L1.79102 86.2974L0.646864 87.4415L1.79102 88.5857L2.93517 87.4415Z"
    fill="#83D2ED" />
  <path opacity="0.3"
    d="M17.318 87.4415L16.1738 86.2974L15.0297 87.4415L16.1738 88.5857L17.318 87.4415Z"
    fill="#83D2ED" />
  <path opacity="0.3"
    d="M31.7008 87.4415L30.5566 86.2974L29.4125 87.4415L30.5566 88.5857L31.7008 87.4415Z"
    fill="#83D2ED" />
  <path opacity="0.3"
    d="M146.763 87.4415L145.619 86.2974L144.475 87.4415L145.619 88.5857L146.763 87.4415Z"
    fill="#83D2ED" />
  <path opacity="0.3"
    d="M161.146 87.4415L160.002 86.2974L158.858 87.4415L160.002 88.5857L161.146 87.4415Z"
    fill="#83D2ED" />
  <path opacity="0.3"
    d="M175.529 87.4415L174.385 86.2974L173.241 87.4415L174.385 88.5857L175.529 87.4415Z"
    fill="#83D2ED" />
  <path opacity="0.3"
    d="M2.93517 101.824L1.79102 100.68L0.646864 101.824L1.79102 102.968L2.93517 101.824Z"
    fill="#83D2ED" />
  <path opacity="0.3"
    d="M17.318 101.824L16.1738 100.68L15.0297 101.824L16.1738 102.968L17.318 101.824Z"
    fill="#83D2ED" />
  <path opacity="0.3"
    d="M31.7008 101.824L30.5566 100.68L29.4125 101.824L30.5566 102.968L31.7008 101.824Z"
    fill="#83D2ED" />
  <path opacity="0.3"
    d="M146.763 101.824L145.619 100.68L144.475 101.824L145.619 102.968L146.763 101.824Z"
    fill="#83D2ED" />
  <path opacity="0.3"
    d="M161.146 101.824L160.002 100.68L158.858 101.824L160.002 102.968L161.146 101.824Z"
    fill="#83D2ED" />
  <path opacity="0.3"
    d="M175.529 101.824L174.385 100.68L173.241 101.824L174.385 102.968L175.529 101.824Z"
    fill="#83D2ED" />
  <path d="M2.93517 116.207L1.79102 115.063L0.646864 116.207L1.79102 117.351L2.93517 116.207Z"
    fill="#83D2ED" />
  <path opacity="0.3"
    d="M17.318 116.207L16.1738 115.063L15.0297 116.207L16.1738 117.351L17.318 116.207Z"
    fill="#83D2ED" />
  <path d="M31.7008 116.207L30.5566 115.063L29.4125 116.207L30.5566 117.351L31.7008 116.207Z"
    fill="#83D2ED" />
  <path opacity="0.3"
    d="M146.763 116.207L145.619 115.063L144.475 116.207L145.619 117.351L146.763 116.207Z"
    fill="#83D2ED" />
  <path d="M161.146 116.207L160.002 115.063L158.858 116.207L160.002 117.351L161.146 116.207Z"
    fill="#83D2ED" />
  <path d="M175.529 116.207L174.385 115.063L173.241 116.207L174.385 117.352L175.529 116.207Z"
    fill="#83D2ED" />
  <path d="M2.93517 130.59L1.79102 129.446L0.646864 130.59L1.79102 131.734L2.93517 130.59Z"
    fill="#83D2ED" />
  <path d="M17.318 130.59L16.1738 129.446L15.0297 130.59L16.1738 131.734L17.318 130.59Z"
    fill="#83D2ED" />
  <path opacity="0.3"
    d="M31.7008 130.59L30.5566 129.446L29.4125 130.59L30.5566 131.734L31.7008 130.59Z"
    fill="#83D2ED" />
  <path opacity="0.3"
    d="M146.763 130.59L145.619 129.446L144.475 130.59L145.619 131.734L146.763 130.59Z"
    fill="#83D2ED" />
  <path opacity="0.3"
    d="M161.146 130.59L160.002 129.446L158.858 130.59L160.002 131.734L161.146 130.59Z"
    fill="#83D2ED" />
  <path opacity="0.3"
    d="M175.529 130.59L174.385 129.446L173.241 130.59L174.385 131.734L175.529 130.59Z"
    fill="#83D2ED" />
  <path d="M2.93517 144.973L1.79102 143.829L0.646864 144.973L1.79102 146.117L2.93517 144.973Z"
    fill="#83D2ED" />
  <path opacity="0.3"
    d="M17.318 144.973L16.1738 143.829L15.0297 144.973L16.1738 146.117L17.318 144.973Z"
    fill="#83D2ED" />
  <path opacity="0.3"
    d="M31.7008 144.973L30.5566 143.829L29.4125 144.973L30.5566 146.117L31.7008 144.973Z"
    fill="#83D2ED" />
  <path opacity="0.3"
    d="M146.763 144.973L145.619 143.829L144.475 144.973L145.619 146.117L146.763 144.973Z"
    fill="#83D2ED" />
  <path opacity="0.3"
    d="M161.146 144.973L160.002 143.829L158.858 144.973L160.002 146.117L161.146 144.973Z"
    fill="#83D2ED" />
  <path opacity="0.3"
    d="M175.529 144.973L174.385 143.829L173.241 144.973L174.385 146.117L175.529 144.973Z"
    fill="#83D2ED" />
  <path opacity="0.3"
    d="M2.93517 159.356L1.79102 158.212L0.646864 159.356L1.79102 160.5L2.93517 159.356Z"
    fill="#83D2ED" />
  <path d="M17.318 159.356L16.1738 158.212L15.0297 159.356L16.1738 160.5L17.318 159.356Z"
    fill="#83D2ED" />
  <path d="M31.7008 159.356L30.5566 158.212L29.4125 159.356L30.5566 160.5L31.7008 159.356Z"
    fill="#83D2ED" />
  <path opacity="0.3"
    d="M46.0836 159.356L44.9395 158.212L43.7953 159.356L44.9395 160.5L46.0836 159.356Z"
    fill="#83D2ED" />
  <path d="M60.4664 159.356L59.3223 158.212L58.1781 159.356L59.3223 160.5L60.4664 159.356Z"
    fill="#83D2ED" />
  <path opacity="0.3"
    d="M74.8492 159.356L73.7051 158.212L72.5609 159.356L73.7051 160.5L74.8492 159.356Z"
    fill="#83D2ED" />
  <path opacity="0.3"
    d="M89.232 159.356L88.0879 158.212L86.9437 159.356L88.0879 160.5L89.232 159.356Z" fill="#83D2ED" />
  <path opacity="0.3"
    d="M103.615 159.356L102.471 158.212L101.327 159.356L102.471 160.5L103.615 159.356Z"
    fill="#83D2ED" />
  <path opacity="0.3"
    d="M117.998 159.356L116.854 158.212L115.709 159.356L116.854 160.5L117.998 159.356Z"
    fill="#83D2ED" />
  <path opacity="0.3"
    d="M132.38 159.356L131.236 158.212L130.092 159.356L131.236 160.5L132.38 159.356Z" fill="#83D2ED" />
  <path opacity="0.3"
    d="M146.763 159.356L145.619 158.212L144.475 159.356L145.619 160.5L146.763 159.356Z"
    fill="#83D2ED" />
  <path opacity="0.3"
    d="M161.146 159.356L160.002 158.212L158.858 159.356L160.002 160.5L161.146 159.356Z"
    fill="#83D2ED" />
  <path d="M175.529 159.356L174.385 158.212L173.241 159.356L174.385 160.5L175.529 159.356Z"
    fill="#83D2ED" />
  <path opacity="0.3"
    d="M2.93517 173.739L1.79102 172.595L0.646864 173.739L1.79102 174.883L2.93517 173.739Z"
    fill="#83D2ED" />
  <path opacity="0.3"
    d="M17.318 173.739L16.1738 172.595L15.0297 173.739L16.1738 174.883L17.318 173.739Z"
    fill="#83D2ED" />
  <path d="M31.7008 173.739L30.5566 172.595L29.4125 173.739L30.5566 174.883L31.7008 173.739Z"
    fill="#83D2ED" />
  <path opacity="0.3"
    d="M46.0836 173.739L44.9395 172.595L43.7953 173.739L44.9395 174.883L46.0836 173.739Z"
    fill="#83D2ED" />
  <path d="M60.4664 173.739L59.3223 172.595L58.1781 173.739L59.3223 174.883L60.4664 173.739Z"
    fill="#83D2ED" />
  <path opacity="0.3"
    d="M74.8492 173.739L73.7051 172.595L72.5609 173.739L73.7051 174.883L74.8492 173.739Z"
    fill="#83D2ED" />
  <path opacity="0.3"
    d="M89.232 173.739L88.0879 172.595L86.9437 173.739L88.0879 174.883L89.232 173.739Z"
    fill="#83D2ED" />
  <path opacity="0.3"
    d="M103.615 173.739L102.471 172.595L101.327 173.739L102.471 174.883L103.615 173.739Z"
    fill="#83D2ED" />
  <path opacity="0.3"
    d="M117.998 173.739L116.854 172.595L115.709 173.739L116.854 174.883L117.998 173.739Z"
    fill="#83D2ED" />
  <path d="M132.38 173.739L131.236 172.595L130.092 173.739L131.236 174.883L132.38 173.739Z"
    fill="#83D2ED" />
  <path opacity="0.3"
    d="M146.763 173.739L145.619 172.595L144.475 173.739L145.619 174.883L146.763 173.739Z"
    fill="#83D2ED" />
  <path d="M161.146 173.739L160.002 172.595L158.858 173.739L160.002 174.883L161.146 173.739Z"
    fill="#83D2ED" />
  <path opacity="0.3"
    d="M175.529 173.739L174.385 172.595L173.241 173.739L174.385 174.883L175.529 173.739Z"
    fill="#83D2ED" />
  <path opacity="0.3"
    d="M2.93517 188.122L1.79102 186.978L0.646864 188.122L1.79102 189.266L2.93517 188.122Z"
    fill="#83D2ED" />
  <path opacity="0.3"
    d="M17.318 188.122L16.1738 186.978L15.0297 188.122L16.1738 189.266L17.318 188.122Z"
    fill="#83D2ED" />
  <path opacity="0.3"
    d="M31.7008 188.122L30.5566 186.978L29.4125 188.122L30.5566 189.266L31.7008 188.122Z"
    fill="#83D2ED" />
  <path opacity="0.3"
    d="M46.0836 188.122L44.9395 186.978L43.7953 188.122L44.9395 189.266L46.0836 188.122Z"
    fill="#83D2ED" />
  <path opacity="0.3"
    d="M60.4664 188.122L59.3223 186.978L58.1781 188.122L59.3223 189.266L60.4664 188.122Z"
    fill="#83D2ED" />
  <path opacity="0.3"
    d="M74.8492 188.122L73.7051 186.978L72.5609 188.122L73.7051 189.266L74.8492 188.122Z"
    fill="#83D2ED" />
  <path opacity="0.3"
    d="M89.232 188.122L88.0879 186.978L86.9437 188.122L88.0879 189.266L89.232 188.122Z"
    fill="#83D2ED" />
  <path opacity="0.3"
    d="M103.615 188.122L102.471 186.978L101.327 188.122L102.471 189.266L103.615 188.122Z"
    fill="#83D2ED" />
  <path opacity="0.3"
    d="M117.998 188.122L116.854 186.978L115.709 188.122L116.854 189.266L117.998 188.122Z"
    fill="#83D2ED" />
  <path d="M132.38 188.122L131.236 186.978L130.092 188.122L131.236 189.266L132.38 188.122Z"
    fill="#83D2ED" />
  <path opacity="0.3"
    d="M146.763 188.122L145.619 186.978L144.475 188.122L145.619 189.266L146.763 188.122Z"
    fill="#83D2ED" />
  <path opacity="0.3"
    d="M161.146 188.122L160.002 186.978L158.858 188.122L160.002 189.266L161.146 188.122Z"
    fill="#83D2ED" />
  <path opacity="0.3"
    d="M175.529 188.122L174.385 186.978L173.241 188.122L174.385 189.266L175.529 188.122Z"
    fill="#83D2ED" />
</svg>
  