<svg width="176" height="190" viewBox="0 0 176 190" fill="none" xmlns="http://www.w3.org/2000/svg">
  <path opacity="0.3" d="M3.05235 1.14415L1.9082 0L0.764052 1.14415L1.9082 2.2883L3.05235 1.14415Z"
    fill="#83D2ED" />
  <path opacity="0.3" d="M17.4352 1.14415L16.291 0L15.1469 1.14415L16.291 2.2883L17.4352 1.14415Z"
    fill="#83D2ED" />
  <path opacity="0.3" d="M31.818 1.14415L30.6738 0L29.5297 1.14415L30.6738 2.2883L31.818 1.14415Z"
    fill="#83D2ED" />
  <path d="M46.2008 1.14415L45.0566 0L43.9125 1.14415L45.0566 2.2883L46.2008 1.14415Z"
    fill="#83D2ED" />
  <path d="M60.5836 1.14415L59.4395 0L58.2953 1.14415L59.4395 2.2883L60.5836 1.14415Z"
    fill="#83D2ED" />
  <path opacity="0.3" d="M74.9664 1.14415L73.8223 0L72.6781 1.14415L73.8223 2.2883L74.9664 1.14415Z"
    fill="#83D2ED" />
  <path d="M89.3492 1.14415L88.2051 0L87.0609 1.14415L88.2051 2.2883L89.3492 1.14415Z"
    fill="#83D2ED" />
  <path opacity="0.3" d="M103.732 1.14415L102.588 0L101.444 1.14415L102.588 2.2883L103.732 1.14415Z"
    fill="#83D2ED" />
  <path d="M118.115 1.14415L116.971 0L115.827 1.14415L116.971 2.2883L118.115 1.14415Z"
    fill="#83D2ED" />
  <path opacity="0.3" d="M132.498 1.14415L131.354 0L130.209 1.14415L131.354 2.2883L132.498 1.14415Z"
    fill="#83D2ED" />
  <path opacity="0.3" d="M146.88 1.14415L145.736 0L144.592 1.14415L145.736 2.2883L146.88 1.14415Z"
    fill="#83D2ED" />
  <path d="M161.263 1.14415L160.119 0L158.975 1.14415L160.119 2.2883L161.263 1.14415Z"
    fill="#83D2ED" />
  <path opacity="0.3" d="M175.646 1.14415L174.502 0L173.358 1.14415L174.502 2.2883L175.646 1.14415Z"
    fill="#83D2ED" />
  <path opacity="0.3"
    d="M3.05235 15.527L1.9082 14.3828L0.764052 15.527L1.9082 16.6711L3.05235 15.527Z" fill="#83D2ED" />
  <path opacity="0.3"
    d="M17.4352 15.527L16.291 14.3828L15.1469 15.527L16.291 16.6711L17.4352 15.527Z" fill="#83D2ED" />
  <path d="M31.818 15.527L30.6738 14.3828L29.5297 15.527L30.6738 16.6711L31.818 15.527Z"
    fill="#83D2ED" />
  <path opacity="0.3"
    d="M46.2008 15.527L45.0566 14.3828L43.9125 15.527L45.0566 16.6711L46.2008 15.527Z"
    fill="#83D2ED" />
  <path opacity="0.3"
    d="M60.5836 15.527L59.4395 14.3828L58.2953 15.527L59.4395 16.6711L60.5836 15.527Z"
    fill="#83D2ED" />
  <path opacity="0.3"
    d="M74.9664 15.527L73.8223 14.3828L72.6781 15.527L73.8223 16.6711L74.9664 15.527Z"
    fill="#83D2ED" />
  <path d="M89.3492 15.527L88.2051 14.3828L87.0609 15.527L88.2051 16.6711L89.3492 15.527Z"
    fill="#83D2ED" />
  <path opacity="0.3"
    d="M103.732 15.527L102.588 14.3828L101.444 15.527L102.588 16.6711L103.732 15.527Z"
    fill="#83D2ED" />
  <path opacity="0.3"
    d="M118.115 15.527L116.971 14.3828L115.827 15.527L116.971 16.6711L118.115 15.527Z"
    fill="#83D2ED" />
  <path opacity="0.3"
    d="M132.498 15.527L131.354 14.3828L130.209 15.527L131.354 16.6711L132.498 15.527Z"
    fill="#83D2ED" />
  <path opacity="0.3"
    d="M146.88 15.527L145.736 14.3828L144.592 15.527L145.736 16.6711L146.88 15.527Z" fill="#83D2ED" />
  <path d="M161.263 15.527L160.119 14.3828L158.975 15.527L160.119 16.6711L161.263 15.527Z"
    fill="#83D2ED" />
  <path opacity="0.3"
    d="M175.646 15.527L174.502 14.3828L173.358 15.527L174.502 16.6711L175.646 15.527Z"
    fill="#83D2ED" />
  <path opacity="0.3" d="M3.05235 29.91L1.9082 28.7659L0.764052 29.91L1.9082 31.0542L3.05235 29.91Z"
    fill="#83D2ED" />
  <path opacity="0.3" d="M17.4352 29.91L16.291 28.7659L15.1469 29.91L16.291 31.0542L17.4352 29.91Z"
    fill="#83D2ED" />
  <path opacity="0.3" d="M31.818 29.91L30.6738 28.7659L29.5297 29.91L30.6738 31.0542L31.818 29.91Z"
    fill="#83D2ED" />
  <path opacity="0.3"
    d="M46.2008 29.91L45.0566 28.7659L43.9125 29.91L45.0566 31.0542L46.2008 29.91Z" fill="#83D2ED" />
  <path d="M60.5836 29.91L59.4395 28.7659L58.2953 29.91L59.4395 31.0542L60.5836 29.91Z"
    fill="#83D2ED" />
  <path d="M74.9664 29.91L73.8223 28.7659L72.6781 29.91L73.8223 31.0542L74.9664 29.91Z"
    fill="#83D2ED" />
  <path d="M89.3492 29.91L88.2051 28.7659L87.0609 29.91L88.2051 31.0542L89.3492 29.91Z"
    fill="#83D2ED" />
  <path opacity="0.3"
    d="M103.732 29.91L102.588 28.7659L101.444 29.91L102.588 31.0542L103.732 29.91Z" fill="#83D2ED" />
  <path d="M118.115 29.91L116.971 28.7659L115.827 29.91L116.971 31.0542L118.115 29.91Z"
    fill="#83D2ED" />
  <path d="M132.498 29.91L131.354 28.7659L130.209 29.91L131.354 31.0542L132.498 29.91Z"
    fill="#83D2ED" />
  <path d="M146.88 29.91L145.736 28.7659L144.592 29.91L145.736 31.0542L146.88 29.91Z" fill="#83D2ED" />
  <path d="M161.263 29.91L160.119 28.7659L158.975 29.91L160.119 31.0542L161.263 29.91Z"
    fill="#83D2ED" />
  <path opacity="0.3"
    d="M175.646 29.91L174.502 28.7659L173.358 29.91L174.502 31.0542L175.646 29.91Z" fill="#83D2ED" />
  <path opacity="0.3"
    d="M3.05235 44.2928L1.9082 43.1487L0.764052 44.2928L1.9082 45.437L3.05235 44.2928Z"
    fill="#83D2ED" />
  <path opacity="0.3"
    d="M17.4352 44.2928L16.291 43.1487L15.1469 44.2928L16.291 45.437L17.4352 44.2928Z"
    fill="#83D2ED" />
  <path d="M31.818 44.2928L30.6738 43.1487L29.5297 44.2928L30.6738 45.437L31.818 44.2928Z"
    fill="#83D2ED" />
  <path d="M146.88 44.2928L145.736 43.1487L144.592 44.2928L145.736 45.437L146.88 44.2928Z"
    fill="#83D2ED" />
  <path opacity="0.3"
    d="M161.263 44.2928L160.119 43.1487L158.975 44.2928L160.119 45.437L161.263 44.2928Z"
    fill="#83D2ED" />
  <path opacity="0.3"
    d="M175.646 44.2928L174.502 43.1487L173.358 44.2928L174.502 45.437L175.646 44.2928Z"
    fill="#83D2ED" />
  <path d="M3.05235 58.6756L1.9082 57.5315L0.764052 58.6756L1.9082 59.8198L3.05235 58.6756Z"
    fill="#83D2ED" />
  <path opacity="0.3"
    d="M17.4352 58.6756L16.291 57.5315L15.1469 58.6756L16.291 59.8198L17.4352 58.6756Z"
    fill="#83D2ED" />
  <path d="M31.818 58.6756L30.6738 57.5315L29.5297 58.6756L30.6738 59.8198L31.818 58.6756Z"
    fill="#83D2ED" />
  <path d="M146.88 58.6756L145.736 57.5315L144.592 58.6756L145.736 59.8198L146.88 58.6756Z"
    fill="#83D2ED" />
  <path d="M161.263 58.6756L160.119 57.5315L158.975 58.6756L160.119 59.8198L161.263 58.6756Z"
    fill="#83D2ED" />
  <path opacity="0.3"
    d="M175.646 58.6756L174.502 57.5315L173.358 58.6756L174.502 59.8198L175.646 58.6756Z"
    fill="#83D2ED" />
  <path d="M3.05235 73.0585L1.9082 71.9143L0.764052 73.0585L1.9082 74.2026L3.05235 73.0585Z"
    fill="#83D2ED" />
  <path opacity="0.3"
    d="M17.4352 73.0585L16.291 71.9143L15.1469 73.0585L16.291 74.2026L17.4352 73.0585Z"
    fill="#83D2ED" />
  <path d="M31.818 73.0585L30.6738 71.9143L29.5297 73.0585L30.6738 74.2026L31.818 73.0585Z"
    fill="#83D2ED" />
  <path opacity="0.3"
    d="M146.88 73.0585L145.736 71.9143L144.592 73.0585L145.736 74.2026L146.88 73.0585Z"
    fill="#83D2ED" />
  <path opacity="0.3"
    d="M161.263 73.0585L160.119 71.9143L158.975 73.0585L160.119 74.2026L161.263 73.0585Z"
    fill="#83D2ED" />
  <path opacity="0.3"
    d="M175.646 73.0585L174.502 71.9143L173.358 73.0585L174.502 74.2026L175.646 73.0585Z"
    fill="#83D2ED" />
  <path opacity="0.3"
    d="M3.05235 87.4415L1.9082 86.2974L0.764052 87.4415L1.9082 88.5857L3.05235 87.4415Z"
    fill="#83D2ED" />
  <path d="M17.4352 87.4415L16.291 86.2974L15.1469 87.4415L16.291 88.5857L17.4352 87.4415Z"
    fill="#83D2ED" />
  <path opacity="0.3"
    d="M31.818 87.4415L30.6738 86.2974L29.5297 87.4415L30.6738 88.5857L31.818 87.4415Z"
    fill="#83D2ED" />
  <path opacity="0.3"
    d="M146.88 87.4415L145.736 86.2974L144.592 87.4415L145.736 88.5857L146.88 87.4415Z"
    fill="#83D2ED" />
  <path d="M161.263 87.4415L160.119 86.2974L158.975 87.4415L160.119 88.5857L161.263 87.4415Z"
    fill="#83D2ED" />
  <path d="M175.646 87.4415L174.502 86.2974L173.358 87.4415L174.502 88.5857L175.646 87.4415Z"
    fill="#83D2ED" />
  <path opacity="0.3"
    d="M3.05235 101.824L1.9082 100.68L0.764052 101.824L1.9082 102.968L3.05235 101.824Z"
    fill="#83D2ED" />
  <path opacity="0.3"
    d="M17.4352 101.824L16.291 100.68L15.1469 101.824L16.291 102.968L17.4352 101.824Z"
    fill="#83D2ED" />
  <path d="M31.818 101.824L30.6738 100.68L29.5297 101.824L30.6738 102.968L31.818 101.824Z"
    fill="#83D2ED" />
  <path opacity="0.3"
    d="M146.88 101.824L145.736 100.68L144.592 101.824L145.736 102.968L146.88 101.824Z"
    fill="#83D2ED" />
  <path d="M161.263 101.824L160.119 100.68L158.975 101.824L160.119 102.968L161.263 101.824Z"
    fill="#83D2ED" />
  <path d="M175.646 101.824L174.502 100.68L173.358 101.824L174.502 102.968L175.646 101.824Z"
    fill="#83D2ED" />
  <path opacity="0.3"
    d="M3.05235 116.207L1.9082 115.063L0.764052 116.207L1.9082 117.351L3.05235 116.207Z"
    fill="#83D2ED" />
  <path opacity="0.3"
    d="M17.4352 116.207L16.291 115.063L15.1469 116.207L16.291 117.351L17.4352 116.207Z"
    fill="#83D2ED" />
  <path opacity="0.3"
    d="M31.818 116.207L30.6738 115.063L29.5297 116.207L30.6738 117.351L31.818 116.207Z"
    fill="#83D2ED" />
  <path d="M146.88 116.207L145.736 115.063L144.592 116.207L145.736 117.351L146.88 116.207Z"
    fill="#83D2ED" />
  <path d="M161.263 116.207L160.119 115.063L158.975 116.207L160.119 117.351L161.263 116.207Z"
    fill="#83D2ED" />
  <path opacity="0.3"
    d="M175.646 116.207L174.502 115.063L173.358 116.207L174.502 117.352L175.646 116.207Z"
    fill="#83D2ED" />
  <path d="M3.05235 130.59L1.9082 129.446L0.764052 130.59L1.9082 131.734L3.05235 130.59Z"
    fill="#83D2ED" />
  <path opacity="0.3"
    d="M17.4352 130.59L16.291 129.446L15.1469 130.59L16.291 131.734L17.4352 130.59Z" fill="#83D2ED" />
  <path opacity="0.3"
    d="M31.818 130.59L30.6738 129.446L29.5297 130.59L30.6738 131.734L31.818 130.59Z" fill="#83D2ED" />
  <path d="M146.88 130.59L145.736 129.446L144.592 130.59L145.736 131.734L146.88 130.59Z"
    fill="#83D2ED" />
  <path opacity="0.3"
    d="M161.263 130.59L160.119 129.446L158.975 130.59L160.119 131.734L161.263 130.59Z"
    fill="#83D2ED" />
  <path opacity="0.3"
    d="M175.646 130.59L174.502 129.446L173.358 130.59L174.502 131.734L175.646 130.59Z"
    fill="#83D2ED" />
  <path opacity="0.3"
    d="M3.05235 144.973L1.9082 143.829L0.764052 144.973L1.9082 146.117L3.05235 144.973Z"
    fill="#83D2ED" />
  <path opacity="0.3"
    d="M17.4352 144.973L16.291 143.829L15.1469 144.973L16.291 146.117L17.4352 144.973Z"
    fill="#83D2ED" />
  <path opacity="0.3"
    d="M31.818 144.973L30.6738 143.829L29.5297 144.973L30.6738 146.117L31.818 144.973Z"
    fill="#83D2ED" />
  <path opacity="0.3"
    d="M146.88 144.973L145.736 143.829L144.592 144.973L145.736 146.117L146.88 144.973Z"
    fill="#83D2ED" />
  <path d="M161.263 144.973L160.119 143.829L158.975 144.973L160.119 146.117L161.263 144.973Z"
    fill="#83D2ED" />
  <path d="M175.646 144.973L174.502 143.829L173.358 144.973L174.502 146.117L175.646 144.973Z"
    fill="#83D2ED" />
  <path opacity="0.3"
    d="M3.05235 159.356L1.9082 158.212L0.764052 159.356L1.9082 160.5L3.05235 159.356Z"
    fill="#83D2ED" />
  <path d="M17.4352 159.356L16.291 158.212L15.1469 159.356L16.291 160.5L17.4352 159.356Z"
    fill="#83D2ED" />
  <path opacity="0.3"
    d="M31.818 159.356L30.6738 158.212L29.5297 159.356L30.6738 160.5L31.818 159.356Z" fill="#83D2ED" />
  <path opacity="0.3"
    d="M46.2008 159.356L45.0566 158.212L43.9125 159.356L45.0566 160.5L46.2008 159.356Z"
    fill="#83D2ED" />
  <path opacity="0.3"
    d="M60.5836 159.356L59.4395 158.212L58.2953 159.356L59.4395 160.5L60.5836 159.356Z"
    fill="#83D2ED" />
  <path d="M74.9664 159.356L73.8223 158.212L72.6781 159.356L73.8223 160.5L74.9664 159.356Z"
    fill="#83D2ED" />
  <path opacity="0.3"
    d="M89.3492 159.356L88.2051 158.212L87.0609 159.356L88.2051 160.5L89.3492 159.356Z"
    fill="#83D2ED" />
  <path d="M103.732 159.356L102.588 158.212L101.444 159.356L102.588 160.5L103.732 159.356Z"
    fill="#83D2ED" />
  <path opacity="0.3"
    d="M118.115 159.356L116.971 158.212L115.827 159.356L116.971 160.5L118.115 159.356Z"
    fill="#83D2ED" />
  <path opacity="0.3"
    d="M132.498 159.356L131.354 158.212L130.209 159.356L131.354 160.5L132.498 159.356Z"
    fill="#83D2ED" />
  <path d="M146.88 159.356L145.736 158.212L144.592 159.356L145.736 160.5L146.88 159.356Z"
    fill="#83D2ED" />
  <path d="M161.263 159.356L160.119 158.212L158.975 159.356L160.119 160.5L161.263 159.356Z"
    fill="#83D2ED" />
  <path d="M175.646 159.356L174.502 158.212L173.358 159.356L174.502 160.5L175.646 159.356Z"
    fill="#83D2ED" />
  <path opacity="0.3"
    d="M3.05235 173.739L1.9082 172.595L0.764052 173.739L1.9082 174.883L3.05235 173.739Z"
    fill="#83D2ED" />
  <path d="M17.4352 173.739L16.291 172.595L15.1469 173.739L16.291 174.883L17.4352 173.739Z"
    fill="#83D2ED" />
  <path opacity="0.3"
    d="M31.818 173.739L30.6738 172.595L29.5297 173.739L30.6738 174.883L31.818 173.739Z"
    fill="#83D2ED" />
  <path d="M46.2008 173.739L45.0566 172.595L43.9125 173.739L45.0566 174.883L46.2008 173.739Z"
    fill="#83D2ED" />
  <path opacity="0.3"
    d="M60.5836 173.739L59.4395 172.595L58.2953 173.739L59.4395 174.883L60.5836 173.739Z"
    fill="#83D2ED" />
  <path opacity="0.3"
    d="M74.9664 173.739L73.8223 172.595L72.6781 173.739L73.8223 174.883L74.9664 173.739Z"
    fill="#83D2ED" />
  <path opacity="0.3"
    d="M89.3492 173.739L88.2051 172.595L87.0609 173.739L88.2051 174.883L89.3492 173.739Z"
    fill="#83D2ED" />
  <path d="M103.732 173.739L102.588 172.595L101.444 173.739L102.588 174.883L103.732 173.739Z"
    fill="#83D2ED" />
  <path opacity="0.3"
    d="M118.115 173.739L116.971 172.595L115.827 173.739L116.971 174.883L118.115 173.739Z"
    fill="#83D2ED" />
  <path opacity="0.3"
    d="M132.498 173.739L131.354 172.595L130.209 173.739L131.354 174.883L132.498 173.739Z"
    fill="#83D2ED" />
  <path opacity="0.3"
    d="M146.88 173.739L145.736 172.595L144.592 173.739L145.736 174.883L146.88 173.739Z"
    fill="#83D2ED" />
  <path d="M161.263 173.739L160.119 172.595L158.975 173.739L160.119 174.883L161.263 173.739Z"
    fill="#83D2ED" />
  <path opacity="0.3"
    d="M175.646 173.739L174.502 172.595L173.358 173.739L174.502 174.883L175.646 173.739Z"
    fill="#83D2ED" />
  <path opacity="0.3"
    d="M3.05235 188.122L1.9082 186.978L0.764052 188.122L1.9082 189.266L3.05235 188.122Z"
    fill="#83D2ED" />
  <path d="M17.4352 188.122L16.291 186.978L15.1469 188.122L16.291 189.266L17.4352 188.122Z"
    fill="#83D2ED" />
  <path opacity="0.3"
    d="M31.818 188.122L30.6738 186.978L29.5297 188.122L30.6738 189.266L31.818 188.122Z"
    fill="#83D2ED" />
  <path opacity="0.3"
    d="M46.2008 188.122L45.0566 186.978L43.9125 188.122L45.0566 189.266L46.2008 188.122Z"
    fill="#83D2ED" />
  <path opacity="0.3"
    d="M60.5836 188.122L59.4395 186.978L58.2953 188.122L59.4395 189.266L60.5836 188.122Z"
    fill="#83D2ED" />
  <path d="M74.9664 188.122L73.8223 186.978L72.6781 188.122L73.8223 189.266L74.9664 188.122Z"
    fill="#83D2ED" />
  <path opacity="0.3"
    d="M89.3492 188.122L88.2051 186.978L87.0609 188.122L88.2051 189.266L89.3492 188.122Z"
    fill="#83D2ED" />
  <path opacity="0.3"
    d="M103.732 188.122L102.588 186.978L101.444 188.122L102.588 189.266L103.732 188.122Z"
    fill="#83D2ED" />
  <path d="M118.115 188.122L116.971 186.978L115.827 188.122L116.971 189.266L118.115 188.122Z"
    fill="#83D2ED" />
  <path opacity="0.3"
    d="M132.498 188.122L131.354 186.978L130.209 188.122L131.354 189.266L132.498 188.122Z"
    fill="#83D2ED" />
  <path d="M146.88 188.122L145.736 186.978L144.592 188.122L145.736 189.266L146.88 188.122Z"
    fill="#83D2ED" />
  <path opacity="0.3"
    d="M161.263 188.122L160.119 186.978L158.975 188.122L160.119 189.266L161.263 188.122Z"
    fill="#83D2ED" />
  <path opacity="0.3"
    d="M175.646 188.122L174.502 186.978L173.358 188.122L174.502 189.266L175.646 188.122Z"
    fill="#83D2ED" />
</svg>
  