<svg width="176" height="190" viewBox="0 0 176 190" fill="none" xmlns="http://www.w3.org/2000/svg">
  <path opacity="0.3" d="M3.1715 1.14415L2.02734 0L0.883192 1.14415L2.02734 2.2883L3.1715 1.14415Z"
    fill="#83D2ED" />
  <path opacity="0.3" d="M17.5543 1.14415L16.4102 0L15.266 1.14415L16.4102 2.2883L17.5543 1.14415Z"
    fill="#83D2ED" />
  <path opacity="0.3" d="M31.9371 1.14415L30.793 0L29.6488 1.14415L30.793 2.2883L31.9371 1.14415Z"
    fill="#83D2ED" />
  <path opacity="0.3" d="M46.3199 1.14415L45.1758 0L44.0316 1.14415L45.1758 2.2883L46.3199 1.14415Z"
    fill="#83D2ED" />
  <path opacity="0.3" d="M60.7027 1.14415L59.5586 0L58.4144 1.14415L59.5586 2.2883L60.7027 1.14415Z"
    fill="#83D2ED" />
  <path opacity="0.3" d="M75.0856 1.14415L73.9414 0L72.7973 1.14415L73.9414 2.2883L75.0856 1.14415Z"
    fill="#83D2ED" />
  <path d="M89.4684 1.14415L88.3242 0L87.1801 1.14415L88.3242 2.2883L89.4684 1.14415Z"
    fill="#83D2ED" />
  <path opacity="0.3" d="M103.851 1.14415L102.707 0L101.563 1.14415L102.707 2.2883L103.851 1.14415Z"
    fill="#83D2ED" />
  <path opacity="0.3" d="M118.234 1.14415L117.09 0L115.946 1.14415L117.09 2.2883L118.234 1.14415Z"
    fill="#83D2ED" />
  <path opacity="0.3" d="M132.617 1.14415L131.473 0L130.329 1.14415L131.473 2.2883L132.617 1.14415Z"
    fill="#83D2ED" />
  <path d="M147 1.14415L145.855 0L144.711 1.14415L145.855 2.2883L147 1.14415Z" fill="#83D2ED" />
  <path opacity="0.3" d="M161.382 1.14415L160.238 0L159.094 1.14415L160.238 2.2883L161.382 1.14415Z"
    fill="#83D2ED" />
  <path opacity="0.3" d="M175.765 1.14415L174.621 0L173.477 1.14415L174.621 2.2883L175.765 1.14415Z"
    fill="#83D2ED" />
  <path opacity="0.3"
    d="M3.1715 15.527L2.02734 14.3828L0.883192 15.527L2.02734 16.6711L3.1715 15.527Z" fill="#83D2ED" />
  <path opacity="0.3"
    d="M17.5543 15.527L16.4102 14.3828L15.266 15.527L16.4102 16.6711L17.5543 15.527Z" fill="#83D2ED" />
  <path opacity="0.3"
    d="M31.9371 15.527L30.793 14.3828L29.6488 15.527L30.793 16.6711L31.9371 15.527Z" fill="#83D2ED" />
  <path opacity="0.3"
    d="M46.3199 15.527L45.1758 14.3828L44.0316 15.527L45.1758 16.6711L46.3199 15.527Z"
    fill="#83D2ED" />
  <path opacity="0.3"
    d="M60.7027 15.527L59.5586 14.3828L58.4144 15.527L59.5586 16.6711L60.7027 15.527Z"
    fill="#83D2ED" />
  <path opacity="0.3"
    d="M75.0856 15.527L73.9414 14.3828L72.7973 15.527L73.9414 16.6711L75.0856 15.527Z"
    fill="#83D2ED" />
  <path opacity="0.3"
    d="M89.4684 15.527L88.3242 14.3828L87.1801 15.527L88.3242 16.6711L89.4684 15.527Z"
    fill="#83D2ED" />
  <path opacity="0.3"
    d="M103.851 15.527L102.707 14.3828L101.563 15.527L102.707 16.6711L103.851 15.527Z"
    fill="#83D2ED" />
  <path opacity="0.3"
    d="M118.234 15.527L117.09 14.3828L115.946 15.527L117.09 16.6711L118.234 15.527Z" fill="#83D2ED" />
  <path opacity="0.3"
    d="M132.617 15.527L131.473 14.3828L130.329 15.527L131.473 16.6711L132.617 15.527Z"
    fill="#83D2ED" />
  <path opacity="0.3" d="M147 15.527L145.855 14.3828L144.711 15.527L145.855 16.6711L147 15.527Z"
    fill="#83D2ED" />
  <path d="M161.382 15.527L160.238 14.3828L159.094 15.527L160.238 16.6711L161.382 15.527Z"
    fill="#83D2ED" />
  <path opacity="0.3"
    d="M175.765 15.527L174.621 14.3828L173.477 15.527L174.621 16.6711L175.765 15.527Z"
    fill="#83D2ED" />
  <path opacity="0.3" d="M3.1715 29.91L2.02734 28.7659L0.883192 29.91L2.02734 31.0542L3.1715 29.91Z"
    fill="#83D2ED" />
  <path opacity="0.3" d="M17.5543 29.91L16.4102 28.7659L15.266 29.91L16.4102 31.0542L17.5543 29.91Z"
    fill="#83D2ED" />
  <path d="M31.9371 29.91L30.793 28.7659L29.6488 29.91L30.793 31.0542L31.9371 29.91Z" fill="#83D2ED" />
  <path opacity="0.3"
    d="M46.3199 29.91L45.1758 28.7659L44.0316 29.91L45.1758 31.0542L46.3199 29.91Z" fill="#83D2ED" />
  <path opacity="0.3"
    d="M60.7027 29.91L59.5586 28.7659L58.4144 29.91L59.5586 31.0542L60.7027 29.91Z" fill="#83D2ED" />
  <path d="M75.0856 29.91L73.9414 28.7659L72.7973 29.91L73.9414 31.0542L75.0856 29.91Z"
    fill="#83D2ED" />
  <path opacity="0.3"
    d="M89.4684 29.91L88.3242 28.7659L87.1801 29.91L88.3242 31.0542L89.4684 29.91Z" fill="#83D2ED" />
  <path opacity="0.3"
    d="M103.851 29.91L102.707 28.7659L101.563 29.91L102.707 31.0542L103.851 29.91Z" fill="#83D2ED" />
  <path opacity="0.3" d="M118.234 29.91L117.09 28.7659L115.946 29.91L117.09 31.0542L118.234 29.91Z"
    fill="#83D2ED" />
  <path opacity="0.3"
    d="M132.617 29.91L131.473 28.7659L130.329 29.91L131.473 31.0542L132.617 29.91Z" fill="#83D2ED" />
  <path d="M147 29.91L145.855 28.7659L144.711 29.91L145.855 31.0542L147 29.91Z" fill="#83D2ED" />
  <path d="M161.382 29.91L160.238 28.7659L159.094 29.91L160.238 31.0542L161.382 29.91Z"
    fill="#83D2ED" />
  <path d="M175.765 29.91L174.621 28.7659L173.477 29.91L174.621 31.0542L175.765 29.91Z"
    fill="#83D2ED" />
  <path opacity="0.3"
    d="M3.1715 44.2928L2.02734 43.1487L0.883192 44.2928L2.02734 45.437L3.1715 44.2928Z"
    fill="#83D2ED" />
  <path opacity="0.3"
    d="M17.5543 44.2928L16.4102 43.1487L15.266 44.2928L16.4102 45.437L17.5543 44.2928Z"
    fill="#83D2ED" />
  <path opacity="0.3"
    d="M31.9371 44.2928L30.793 43.1487L29.6488 44.2928L30.793 45.437L31.9371 44.2928Z"
    fill="#83D2ED" />
  <path opacity="0.3" d="M147 44.2928L145.855 43.1487L144.711 44.2928L145.855 45.437L147 44.2928Z"
    fill="#83D2ED" />
  <path opacity="0.3"
    d="M161.382 44.2928L160.238 43.1487L159.094 44.2928L160.238 45.437L161.382 44.2928Z"
    fill="#83D2ED" />
  <path opacity="0.3"
    d="M175.765 44.2928L174.621 43.1487L173.477 44.2928L174.621 45.437L175.765 44.2928Z"
    fill="#83D2ED" />
  <path opacity="0.3"
    d="M3.1715 58.6756L2.02734 57.5315L0.883192 58.6756L2.02734 59.8198L3.1715 58.6756Z"
    fill="#83D2ED" />
  <path opacity="0.3"
    d="M17.5543 58.6756L16.4102 57.5315L15.266 58.6756L16.4102 59.8198L17.5543 58.6756Z"
    fill="#83D2ED" />
  <path d="M31.9371 58.6756L30.793 57.5315L29.6488 58.6756L30.793 59.8198L31.9371 58.6756Z"
    fill="#83D2ED" />
  <path d="M147 58.6756L145.855 57.5315L144.711 58.6756L145.855 59.8198L147 58.6756Z" fill="#83D2ED" />
  <path opacity="0.3"
    d="M161.382 58.6756L160.238 57.5315L159.094 58.6756L160.238 59.8198L161.382 58.6756Z"
    fill="#83D2ED" />
  <path opacity="0.3"
    d="M175.765 58.6756L174.621 57.5315L173.477 58.6756L174.621 59.8198L175.765 58.6756Z"
    fill="#83D2ED" />
  <path opacity="0.3"
    d="M3.1715 73.0585L2.02734 71.9143L0.883192 73.0585L2.02734 74.2026L3.1715 73.0585Z"
    fill="#83D2ED" />
  <path opacity="0.3"
    d="M17.5543 73.0585L16.4102 71.9143L15.266 73.0585L16.4102 74.2026L17.5543 73.0585Z"
    fill="#83D2ED" />
  <path opacity="0.3"
    d="M31.9371 73.0585L30.793 71.9143L29.6488 73.0585L30.793 74.2026L31.9371 73.0585Z"
    fill="#83D2ED" />
  <path opacity="0.3" d="M147 73.0585L145.855 71.9143L144.711 73.0585L145.855 74.2026L147 73.0585Z"
    fill="#83D2ED" />
  <path d="M161.382 73.0585L160.238 71.9143L159.094 73.0585L160.238 74.2026L161.382 73.0585Z"
    fill="#83D2ED" />
  <path opacity="0.3"
    d="M175.765 73.0585L174.621 71.9143L173.477 73.0585L174.621 74.2026L175.765 73.0585Z"
    fill="#83D2ED" />
  <path d="M3.1715 87.4415L2.02734 86.2974L0.883192 87.4415L2.02734 88.5857L3.1715 87.4415Z"
    fill="#83D2ED" />
  <path d="M17.5543 87.4415L16.4102 86.2974L15.266 87.4415L16.4102 88.5857L17.5543 87.4415Z"
    fill="#83D2ED" />
  <path d="M31.9371 87.4415L30.793 86.2974L29.6488 87.4415L30.793 88.5857L31.9371 87.4415Z"
    fill="#83D2ED" />
  <path opacity="0.3" d="M147 87.4415L145.855 86.2974L144.711 87.4415L145.855 88.5857L147 87.4415Z"
    fill="#83D2ED" />
  <path opacity="0.3"
    d="M161.382 87.4415L160.238 86.2974L159.094 87.4415L160.238 88.5857L161.382 87.4415Z"
    fill="#83D2ED" />
  <path opacity="0.3"
    d="M175.765 87.4415L174.621 86.2974L173.477 87.4415L174.621 88.5857L175.765 87.4415Z"
    fill="#83D2ED" />
  <path opacity="0.3"
    d="M3.1715 101.824L2.02734 100.68L0.883192 101.824L2.02734 102.968L3.1715 101.824Z"
    fill="#83D2ED" />
  <path opacity="0.3"
    d="M17.5543 101.824L16.4102 100.68L15.266 101.824L16.4102 102.968L17.5543 101.824Z"
    fill="#83D2ED" />
  <path d="M31.9371 101.824L30.793 100.68L29.6488 101.824L30.793 102.968L31.9371 101.824Z"
    fill="#83D2ED" />
  <path opacity="0.3" d="M147 101.824L145.855 100.68L144.711 101.824L145.855 102.968L147 101.824Z"
    fill="#83D2ED" />
  <path opacity="0.3"
    d="M161.382 101.824L160.238 100.68L159.094 101.824L160.238 102.968L161.382 101.824Z"
    fill="#83D2ED" />
  <path d="M175.765 101.824L174.621 100.68L173.477 101.824L174.621 102.968L175.765 101.824Z"
    fill="#83D2ED" />
  <path opacity="0.3"
    d="M3.1715 116.207L2.02734 115.063L0.883192 116.207L2.02734 117.351L3.1715 116.207Z"
    fill="#83D2ED" />
  <path opacity="0.3"
    d="M17.5543 116.207L16.4102 115.063L15.266 116.207L16.4102 117.351L17.5543 116.207Z"
    fill="#83D2ED" />
  <path opacity="0.3"
    d="M31.9371 116.207L30.793 115.063L29.6488 116.207L30.793 117.351L31.9371 116.207Z"
    fill="#83D2ED" />
  <path opacity="0.3" d="M147 116.207L145.855 115.063L144.711 116.207L145.855 117.351L147 116.207Z"
    fill="#83D2ED" />
  <path opacity="0.3"
    d="M161.382 116.207L160.238 115.063L159.094 116.207L160.238 117.351L161.382 116.207Z"
    fill="#83D2ED" />
  <path opacity="0.3"
    d="M175.765 116.207L174.621 115.063L173.477 116.207L174.621 117.352L175.765 116.207Z"
    fill="#83D2ED" />
  <path opacity="0.3"
    d="M3.1715 130.59L2.02734 129.446L0.883192 130.59L2.02734 131.734L3.1715 130.59Z" fill="#83D2ED" />
  <path d="M17.5543 130.59L16.4102 129.446L15.266 130.59L16.4102 131.734L17.5543 130.59Z"
    fill="#83D2ED" />
  <path opacity="0.3"
    d="M31.9371 130.59L30.793 129.446L29.6488 130.59L30.793 131.734L31.9371 130.59Z" fill="#83D2ED" />
  <path opacity="0.3" d="M147 130.59L145.855 129.446L144.711 130.59L145.855 131.734L147 130.59Z"
    fill="#83D2ED" />
  <path opacity="0.3"
    d="M161.382 130.59L160.238 129.446L159.094 130.59L160.238 131.734L161.382 130.59Z"
    fill="#83D2ED" />
  <path opacity="0.3"
    d="M175.765 130.59L174.621 129.446L173.477 130.59L174.621 131.734L175.765 130.59Z"
    fill="#83D2ED" />
  <path d="M3.1715 144.973L2.02734 143.829L0.883192 144.973L2.02734 146.117L3.1715 144.973Z"
    fill="#83D2ED" />
  <path d="M17.5543 144.973L16.4102 143.829L15.266 144.973L16.4102 146.117L17.5543 144.973Z"
    fill="#83D2ED" />
  <path opacity="0.3"
    d="M31.9371 144.973L30.793 143.829L29.6488 144.973L30.793 146.117L31.9371 144.973Z"
    fill="#83D2ED" />
  <path opacity="0.3" d="M147 144.973L145.855 143.829L144.711 144.973L145.855 146.117L147 144.973Z"
    fill="#83D2ED" />
  <path d="M161.382 144.973L160.238 143.829L159.094 144.973L160.238 146.117L161.382 144.973Z"
    fill="#83D2ED" />
  <path opacity="0.3"
    d="M175.765 144.973L174.621 143.829L173.477 144.973L174.621 146.117L175.765 144.973Z"
    fill="#83D2ED" />
  <path opacity="0.3"
    d="M3.1715 159.356L2.02734 158.212L0.883192 159.356L2.02734 160.5L3.1715 159.356Z"
    fill="#83D2ED" />
  <path d="M17.5543 159.356L16.4102 158.212L15.266 159.356L16.4102 160.5L17.5543 159.356Z"
    fill="#83D2ED" />
  <path opacity="0.3"
    d="M31.9371 159.356L30.793 158.212L29.6488 159.356L30.793 160.5L31.9371 159.356Z" fill="#83D2ED" />
  <path opacity="0.3"
    d="M46.3199 159.356L45.1758 158.212L44.0316 159.356L45.1758 160.5L46.3199 159.356Z"
    fill="#83D2ED" />
  <path opacity="0.3"
    d="M60.7027 159.356L59.5586 158.212L58.4144 159.356L59.5586 160.5L60.7027 159.356Z"
    fill="#83D2ED" />
  <path opacity="0.3"
    d="M75.0856 159.356L73.9414 158.212L72.7973 159.356L73.9414 160.5L75.0856 159.356Z"
    fill="#83D2ED" />
  <path opacity="0.3"
    d="M89.4684 159.356L88.3242 158.212L87.1801 159.356L88.3242 160.5L89.4684 159.356Z"
    fill="#83D2ED" />
  <path opacity="0.3"
    d="M103.851 159.356L102.707 158.212L101.563 159.356L102.707 160.5L103.851 159.356Z"
    fill="#83D2ED" />
  <path d="M118.234 159.356L117.09 158.212L115.946 159.356L117.09 160.5L118.234 159.356Z"
    fill="#83D2ED" />
  <path opacity="0.3"
    d="M132.617 159.356L131.473 158.212L130.329 159.356L131.473 160.5L132.617 159.356Z"
    fill="#83D2ED" />
  <path opacity="0.3" d="M147 159.356L145.855 158.212L144.711 159.356L145.855 160.5L147 159.356Z"
    fill="#83D2ED" />
  <path d="M161.382 159.356L160.238 158.212L159.094 159.356L160.238 160.5L161.382 159.356Z"
    fill="#83D2ED" />
  <path opacity="0.3"
    d="M175.765 159.356L174.621 158.212L173.477 159.356L174.621 160.5L175.765 159.356Z"
    fill="#83D2ED" />
  <path opacity="0.3"
    d="M3.1715 173.739L2.02734 172.595L0.883192 173.739L2.02734 174.883L3.1715 173.739Z"
    fill="#83D2ED" />
  <path opacity="0.3"
    d="M17.5543 173.739L16.4102 172.595L15.266 173.739L16.4102 174.883L17.5543 173.739Z"
    fill="#83D2ED" />
  <path d="M31.9371 173.739L30.793 172.595L29.6488 173.739L30.793 174.883L31.9371 173.739Z"
    fill="#83D2ED" />
  <path opacity="0.3"
    d="M46.3199 173.739L45.1758 172.595L44.0316 173.739L45.1758 174.883L46.3199 173.739Z"
    fill="#83D2ED" />
  <path opacity="0.3"
    d="M60.7027 173.739L59.5586 172.595L58.4144 173.739L59.5586 174.883L60.7027 173.739Z"
    fill="#83D2ED" />
  <path opacity="0.3"
    d="M75.0856 173.739L73.9414 172.595L72.7973 173.739L73.9414 174.883L75.0856 173.739Z"
    fill="#83D2ED" />
  <path opacity="0.3"
    d="M89.4684 173.739L88.3242 172.595L87.1801 173.739L88.3242 174.883L89.4684 173.739Z"
    fill="#83D2ED" />
  <path opacity="0.3"
    d="M103.851 173.739L102.707 172.595L101.563 173.739L102.707 174.883L103.851 173.739Z"
    fill="#83D2ED" />
  <path d="M118.234 173.739L117.09 172.595L115.946 173.739L117.09 174.883L118.234 173.739Z"
    fill="#83D2ED" />
  <path d="M132.617 173.739L131.473 172.595L130.329 173.739L131.473 174.883L132.617 173.739Z"
    fill="#83D2ED" />
  <path opacity="0.3" d="M147 173.739L145.855 172.595L144.711 173.739L145.855 174.883L147 173.739Z"
    fill="#83D2ED" />
  <path opacity="0.3"
    d="M161.382 173.739L160.238 172.595L159.094 173.739L160.238 174.883L161.382 173.739Z"
    fill="#83D2ED" />
  <path opacity="0.3"
    d="M175.765 173.739L174.621 172.595L173.477 173.739L174.621 174.883L175.765 173.739Z"
    fill="#83D2ED" />
  <path d="M3.1715 188.122L2.02734 186.978L0.883192 188.122L2.02734 189.266L3.1715 188.122Z"
    fill="#83D2ED" />
  <path opacity="0.3"
    d="M17.5543 188.122L16.4102 186.978L15.266 188.122L16.4102 189.266L17.5543 188.122Z"
    fill="#83D2ED" />
  <path opacity="0.3"
    d="M31.9371 188.122L30.793 186.978L29.6488 188.122L30.793 189.266L31.9371 188.122Z"
    fill="#83D2ED" />
  <path opacity="0.3"
    d="M46.3199 188.122L45.1758 186.978L44.0316 188.122L45.1758 189.266L46.3199 188.122Z"
    fill="#83D2ED" />
  <path opacity="0.3"
    d="M60.7027 188.122L59.5586 186.978L58.4144 188.122L59.5586 189.266L60.7027 188.122Z"
    fill="#83D2ED" />
  <path opacity="0.3"
    d="M75.0856 188.122L73.9414 186.978L72.7973 188.122L73.9414 189.266L75.0856 188.122Z"
    fill="#83D2ED" />
  <path d="M89.4684 188.122L88.3242 186.978L87.1801 188.122L88.3242 189.266L89.4684 188.122Z"
    fill="#83D2ED" />
  <path d="M103.851 188.122L102.707 186.978L101.563 188.122L102.707 189.266L103.851 188.122Z"
    fill="#83D2ED" />
  <path opacity="0.3"
    d="M118.234 188.122L117.09 186.978L115.946 188.122L117.09 189.266L118.234 188.122Z"
    fill="#83D2ED" />
  <path d="M132.617 188.122L131.473 186.978L130.329 188.122L131.473 189.266L132.617 188.122Z"
    fill="#83D2ED" />
  <path opacity="0.3" d="M147 188.122L145.855 186.978L144.711 188.122L145.855 189.266L147 188.122Z"
    fill="#83D2ED" />
  <path opacity="0.3"
    d="M161.382 188.122L160.238 186.978L159.094 188.122L160.238 189.266L161.382 188.122Z"
    fill="#83D2ED" />
  <path opacity="0.3"
    d="M175.765 188.122L174.621 186.978L173.477 188.122L174.621 189.266L175.765 188.122Z"
    fill="#83D2ED" />
</svg>
  