<svg xmlns="http://www.w3.org/2000/svg" width="176" height="190" viewBox="0 0 176 190" fill="none">
  <path opacity="0.3"
    d="M2.81603 1.14415L1.67188 0L0.527724 1.14415L1.67188 2.2883L2.81603 1.14415Z" fill="#83D2ED" />
  <path d="M17.1988 1.14415L16.0547 0L14.9105 1.14415L16.0547 2.2883L17.1988 1.14415Z"
    fill="#83D2ED" />
  <path opacity="0.3" d="M31.5817 1.14415L30.4375 0L29.2933 1.14415L30.4375 2.2883L31.5817 1.14415Z"
    fill="#83D2ED" />
  <path d="M45.9645 1.14415L44.8203 0L43.6762 1.14415L44.8203 2.2883L45.9645 1.14415Z"
    fill="#83D2ED" />
  <path d="M60.3473 1.14415L59.2031 0L58.059 1.14415L59.2031 2.2883L60.3473 1.14415Z" fill="#83D2ED" />
  <path opacity="0.3" d="M74.7301 1.14415L73.5859 0L72.4418 1.14415L73.5859 2.2883L74.7301 1.14415Z"
    fill="#83D2ED" />
  <path opacity="0.3" d="M89.1129 1.14415L87.9688 0L86.8246 1.14415L87.9688 2.2883L89.1129 1.14415Z"
    fill="#83D2ED" />
  <path opacity="0.3" d="M103.496 1.14415L102.352 0L101.207 1.14415L102.352 2.2883L103.496 1.14415Z"
    fill="#83D2ED" />
  <path opacity="0.3" d="M117.879 1.14415L116.734 0L115.59 1.14415L116.734 2.2883L117.879 1.14415Z"
    fill="#83D2ED" />
  <path d="M132.261 1.14415L131.117 0L129.973 1.14415L131.117 2.2883L132.261 1.14415Z"
    fill="#83D2ED" />
  <path opacity="0.3" d="M146.644 1.14415L145.5 0L144.356 1.14415L145.5 2.2883L146.644 1.14415Z"
    fill="#83D2ED" />
  <path opacity="0.3" d="M161.027 1.14415L159.883 0L158.739 1.14415L159.883 2.2883L161.027 1.14415Z"
    fill="#83D2ED" />
  <path d="M175.41 1.14415L174.266 0L173.121 1.14415L174.266 2.2883L175.41 1.14415Z" fill="#83D2ED" />
  <path opacity="0.3"
    d="M2.81603 15.527L1.67188 14.3828L0.527724 15.527L1.67188 16.6711L2.81603 15.527Z"
    fill="#83D2ED" />
  <path opacity="0.3"
    d="M17.1988 15.527L16.0547 14.3828L14.9105 15.527L16.0547 16.6711L17.1988 15.527Z"
    fill="#83D2ED" />
  <path opacity="0.3"
    d="M31.5817 15.527L30.4375 14.3828L29.2933 15.527L30.4375 16.6711L31.5817 15.527Z"
    fill="#83D2ED" />
  <path d="M45.9645 15.527L44.8203 14.3828L43.6762 15.527L44.8203 16.6711L45.9645 15.527Z"
    fill="#83D2ED" />
  <path d="M60.3473 15.527L59.2031 14.3828L58.059 15.527L59.2031 16.6711L60.3473 15.527Z"
    fill="#83D2ED" />
  <path d="M74.7301 15.527L73.5859 14.3828L72.4418 15.527L73.5859 16.6711L74.7301 15.527Z"
    fill="#83D2ED" />
  <path opacity="0.3"
    d="M89.1129 15.527L87.9688 14.3828L86.8246 15.527L87.9688 16.6711L89.1129 15.527Z"
    fill="#83D2ED" />
  <path opacity="0.3"
    d="M103.496 15.527L102.352 14.3828L101.207 15.527L102.352 16.6711L103.496 15.527Z"
    fill="#83D2ED" />
  <path d="M117.879 15.527L116.734 14.3828L115.59 15.527L116.734 16.6711L117.879 15.527Z"
    fill="#83D2ED" />
  <path d="M132.261 15.527L131.117 14.3828L129.973 15.527L131.117 16.6711L132.261 15.527Z"
    fill="#83D2ED" />
  <path opacity="0.3" d="M146.644 15.527L145.5 14.3828L144.356 15.527L145.5 16.6711L146.644 15.527Z"
    fill="#83D2ED" />
  <path opacity="0.3"
    d="M161.027 15.527L159.883 14.3828L158.739 15.527L159.883 16.6711L161.027 15.527Z"
    fill="#83D2ED" />
  <path opacity="0.3"
    d="M175.41 15.527L174.266 14.3828L173.121 15.527L174.266 16.6711L175.41 15.527Z" fill="#83D2ED" />
  <path d="M2.81603 29.91L1.67188 28.7659L0.527724 29.91L1.67188 31.0542L2.81603 29.91Z"
    fill="#83D2ED" />
  <path opacity="0.3"
    d="M17.1988 29.91L16.0547 28.7659L14.9105 29.91L16.0547 31.0542L17.1988 29.91Z" fill="#83D2ED" />
  <path opacity="0.3"
    d="M31.5817 29.91L30.4375 28.7659L29.2933 29.91L30.4375 31.0542L31.5817 29.91Z" fill="#83D2ED" />
  <path d="M45.9645 29.91L44.8203 28.7659L43.6762 29.91L44.8203 31.0542L45.9645 29.91Z"
    fill="#83D2ED" />
  <path opacity="0.3" d="M60.3473 29.91L59.2031 28.7659L58.059 29.91L59.2031 31.0542L60.3473 29.91Z"
    fill="#83D2ED" />
  <path opacity="0.3"
    d="M74.7301 29.91L73.5859 28.7659L72.4418 29.91L73.5859 31.0542L74.7301 29.91Z" fill="#83D2ED" />
  <path d="M89.1129 29.91L87.9688 28.7659L86.8246 29.91L87.9688 31.0542L89.1129 29.91Z"
    fill="#83D2ED" />
  <path opacity="0.3"
    d="M103.496 29.91L102.352 28.7659L101.207 29.91L102.352 31.0542L103.496 29.91Z" fill="#83D2ED" />
  <path d="M117.879 29.91L116.734 28.7659L115.59 29.91L116.734 31.0542L117.879 29.91Z"
    fill="#83D2ED" />
  <path d="M132.261 29.91L131.117 28.7659L129.973 29.91L131.117 31.0542L132.261 29.91Z"
    fill="#83D2ED" />
  <path opacity="0.3" d="M146.644 29.91L145.5 28.7659L144.356 29.91L145.5 31.0542L146.644 29.91Z"
    fill="#83D2ED" />
  <path d="M161.027 29.91L159.883 28.7659L158.739 29.91L159.883 31.0542L161.027 29.91Z"
    fill="#83D2ED" />
  <path opacity="0.3" d="M175.41 29.91L174.266 28.7659L173.121 29.91L174.266 31.0542L175.41 29.91Z"
    fill="#83D2ED" />
  <path opacity="0.3"
    d="M2.81603 44.2928L1.67188 43.1487L0.527724 44.2928L1.67188 45.437L2.81603 44.2928Z"
    fill="#83D2ED" />
  <path d="M17.1988 44.2928L16.0547 43.1487L14.9105 44.2928L16.0547 45.437L17.1988 44.2928Z"
    fill="#83D2ED" />
  <path opacity="0.3"
    d="M31.5817 44.2928L30.4375 43.1487L29.2933 44.2928L30.4375 45.437L31.5817 44.2928Z"
    fill="#83D2ED" />
  <path opacity="0.3"
    d="M146.644 44.2928L145.5 43.1487L144.356 44.2928L145.5 45.437L146.644 44.2928Z" fill="#83D2ED" />
  <path opacity="0.3"
    d="M161.027 44.2928L159.883 43.1487L158.739 44.2928L159.883 45.437L161.027 44.2928Z"
    fill="#83D2ED" />
  <path d="M175.41 44.2928L174.266 43.1487L173.121 44.2928L174.266 45.437L175.41 44.2928Z"
    fill="#83D2ED" />
  <path d="M2.81603 58.6756L1.67188 57.5315L0.527724 58.6756L1.67188 59.8198L2.81603 58.6756Z"
    fill="#83D2ED" />
  <path opacity="0.3"
    d="M17.1988 58.6756L16.0547 57.5315L14.9105 58.6756L16.0547 59.8198L17.1988 58.6756Z"
    fill="#83D2ED" />
  <path d="M31.5817 58.6756L30.4375 57.5315L29.2933 58.6756L30.4375 59.8198L31.5817 58.6756Z"
    fill="#83D2ED" />
  <path d="M146.644 58.6756L145.5 57.5315L144.356 58.6756L145.5 59.8198L146.644 58.6756Z"
    fill="#83D2ED" />
  <path d="M161.027 58.6756L159.883 57.5315L158.739 58.6756L159.883 59.8198L161.027 58.6756Z"
    fill="#83D2ED" />
  <path opacity="0.3"
    d="M175.41 58.6756L174.266 57.5315L173.121 58.6756L174.266 59.8198L175.41 58.6756Z"
    fill="#83D2ED" />
  <path opacity="0.3"
    d="M2.81603 73.0585L1.67188 71.9143L0.527724 73.0585L1.67188 74.2026L2.81603 73.0585Z"
    fill="#83D2ED" />
  <path d="M17.1988 73.0585L16.0547 71.9143L14.9105 73.0585L16.0547 74.2026L17.1988 73.0585Z"
    fill="#83D2ED" />
  <path opacity="0.3"
    d="M31.5817 73.0585L30.4375 71.9143L29.2933 73.0585L30.4375 74.2026L31.5817 73.0585Z"
    fill="#83D2ED" />
  <path opacity="0.3"
    d="M146.644 73.0585L145.5 71.9143L144.356 73.0585L145.5 74.2026L146.644 73.0585Z" fill="#83D2ED" />
  <path d="M161.027 73.0585L159.883 71.9143L158.739 73.0585L159.883 74.2026L161.027 73.0585Z"
    fill="#83D2ED" />
  <path opacity="0.3"
    d="M175.41 73.0585L174.266 71.9143L173.121 73.0585L174.266 74.2026L175.41 73.0585Z"
    fill="#83D2ED" />
  <path opacity="0.3"
    d="M2.81603 87.4415L1.67188 86.2974L0.527724 87.4415L1.67188 88.5857L2.81603 87.4415Z"
    fill="#83D2ED" />
  <path opacity="0.3"
    d="M17.1988 87.4415L16.0547 86.2974L14.9105 87.4415L16.0547 88.5857L17.1988 87.4415Z"
    fill="#83D2ED" />
  <path d="M31.5817 87.4415L30.4375 86.2974L29.2933 87.4415L30.4375 88.5857L31.5817 87.4415Z"
    fill="#83D2ED" />
  <path opacity="0.3"
    d="M146.644 87.4415L145.5 86.2974L144.356 87.4415L145.5 88.5857L146.644 87.4415Z" fill="#83D2ED" />
  <path opacity="0.3"
    d="M161.027 87.4415L159.883 86.2974L158.739 87.4415L159.883 88.5857L161.027 87.4415Z"
    fill="#83D2ED" />
  <path d="M175.41 87.4415L174.266 86.2974L173.121 87.4415L174.266 88.5857L175.41 87.4415Z"
    fill="#83D2ED" />
  <path opacity="0.3"
    d="M2.81603 101.824L1.67188 100.68L0.527724 101.824L1.67188 102.968L2.81603 101.824Z"
    fill="#83D2ED" />
  <path opacity="0.3"
    d="M17.1988 101.824L16.0547 100.68L14.9105 101.824L16.0547 102.968L17.1988 101.824Z"
    fill="#83D2ED" />
  <path d="M31.5817 101.824L30.4375 100.68L29.2933 101.824L30.4375 102.968L31.5817 101.824Z"
    fill="#83D2ED" />
  <path d="M146.644 101.824L145.5 100.68L144.356 101.824L145.5 102.968L146.644 101.824Z"
    fill="#83D2ED" />
  <path d="M161.027 101.824L159.883 100.68L158.739 101.824L159.883 102.968L161.027 101.824Z"
    fill="#83D2ED" />
  <path d="M175.41 101.824L174.266 100.68L173.121 101.824L174.266 102.968L175.41 101.824Z"
    fill="#83D2ED" />
  <path opacity="0.3"
    d="M2.81603 116.207L1.67188 115.063L0.527724 116.207L1.67188 117.351L2.81603 116.207Z"
    fill="#83D2ED" />
  <path d="M17.1988 116.207L16.0547 115.063L14.9105 116.207L16.0547 117.351L17.1988 116.207Z"
    fill="#83D2ED" />
  <path d="M31.5817 116.207L30.4375 115.063L29.2933 116.207L30.4375 117.351L31.5817 116.207Z"
    fill="#83D2ED" />
  <path opacity="0.3"
    d="M146.644 116.207L145.5 115.063L144.356 116.207L145.5 117.351L146.644 116.207Z" fill="#83D2ED" />
  <path d="M161.027 116.207L159.883 115.063L158.739 116.207L159.883 117.351L161.027 116.207Z"
    fill="#83D2ED" />
  <path d="M175.41 116.207L174.266 115.063L173.121 116.207L174.266 117.352L175.41 116.207Z"
    fill="#83D2ED" />
  <path opacity="0.3"
    d="M2.81603 130.59L1.67188 129.446L0.527724 130.59L1.67188 131.734L2.81603 130.59Z"
    fill="#83D2ED" />
  <path d="M17.1988 130.59L16.0547 129.446L14.9105 130.59L16.0547 131.734L17.1988 130.59Z"
    fill="#83D2ED" />
  <path opacity="0.3"
    d="M31.5817 130.59L30.4375 129.446L29.2933 130.59L30.4375 131.734L31.5817 130.59Z"
    fill="#83D2ED" />
  <path opacity="0.3" d="M146.644 130.59L145.5 129.446L144.356 130.59L145.5 131.734L146.644 130.59Z"
    fill="#83D2ED" />
  <path opacity="0.3"
    d="M161.027 130.59L159.883 129.446L158.739 130.59L159.883 131.734L161.027 130.59Z"
    fill="#83D2ED" />
  <path d="M175.41 130.59L174.266 129.446L173.121 130.59L174.266 131.734L175.41 130.59Z"
    fill="#83D2ED" />
  <path d="M2.81603 144.973L1.67188 143.829L0.527724 144.973L1.67188 146.117L2.81603 144.973Z"
    fill="#83D2ED" />
  <path d="M17.1988 144.973L16.0547 143.829L14.9105 144.973L16.0547 146.117L17.1988 144.973Z"
    fill="#83D2ED" />
  <path d="M31.5817 144.973L30.4375 143.829L29.2933 144.973L30.4375 146.117L31.5817 144.973Z"
    fill="#83D2ED" />
  <path d="M146.644 144.973L145.5 143.829L144.356 144.973L145.5 146.117L146.644 144.973Z"
    fill="#83D2ED" />
  <path opacity="0.3"
    d="M161.027 144.973L159.883 143.829L158.739 144.973L159.883 146.117L161.027 144.973Z"
    fill="#83D2ED" />
  <path d="M175.41 144.973L174.266 143.829L173.121 144.973L174.266 146.117L175.41 144.973Z"
    fill="#83D2ED" />
  <path d="M2.81603 159.356L1.67188 158.212L0.527724 159.356L1.67188 160.5L2.81603 159.356Z"
    fill="#83D2ED" />
  <path d="M17.1988 159.356L16.0547 158.212L14.9105 159.356L16.0547 160.5L17.1988 159.356Z"
    fill="#83D2ED" />
  <path opacity="0.3"
    d="M31.5817 159.356L30.4375 158.212L29.2933 159.356L30.4375 160.5L31.5817 159.356Z"
    fill="#83D2ED" />
  <path d="M45.9645 159.356L44.8203 158.212L43.6762 159.356L44.8203 160.5L45.9645 159.356Z"
    fill="#83D2ED" />
  <path opacity="0.3"
    d="M60.3473 159.356L59.2031 158.212L58.059 159.356L59.2031 160.5L60.3473 159.356Z"
    fill="#83D2ED" />
  <path opacity="0.3"
    d="M74.7301 159.356L73.5859 158.212L72.4418 159.356L73.5859 160.5L74.7301 159.356Z"
    fill="#83D2ED" />
  <path d="M89.1129 159.356L87.9688 158.212L86.8246 159.356L87.9688 160.5L89.1129 159.356Z"
    fill="#83D2ED" />
  <path d="M103.496 159.356L102.352 158.212L101.207 159.356L102.352 160.5L103.496 159.356Z"
    fill="#83D2ED" />
  <path opacity="0.3"
    d="M117.879 159.356L116.734 158.212L115.59 159.356L116.734 160.5L117.879 159.356Z"
    fill="#83D2ED" />
  <path d="M132.261 159.356L131.117 158.212L129.973 159.356L131.117 160.5L132.261 159.356Z"
    fill="#83D2ED" />
  <path opacity="0.3"
    d="M146.644 159.356L145.5 158.212L144.356 159.356L145.5 160.5L146.644 159.356Z" fill="#83D2ED" />
  <path opacity="0.3"
    d="M161.027 159.356L159.883 158.212L158.739 159.356L159.883 160.5L161.027 159.356Z"
    fill="#83D2ED" />
  <path opacity="0.3"
    d="M175.41 159.356L174.266 158.212L173.121 159.356L174.266 160.5L175.41 159.356Z" fill="#83D2ED" />
  <path opacity="0.3"
    d="M2.81603 173.739L1.67188 172.595L0.527724 173.739L1.67188 174.883L2.81603 173.739Z"
    fill="#83D2ED" />
  <path opacity="0.3"
    d="M17.1988 173.739L16.0547 172.595L14.9105 173.739L16.0547 174.883L17.1988 173.739Z"
    fill="#83D2ED" />
  <path d="M31.5817 173.739L30.4375 172.595L29.2933 173.739L30.4375 174.883L31.5817 173.739Z"
    fill="#83D2ED" />
  <path opacity="0.3"
    d="M45.9645 173.739L44.8203 172.595L43.6762 173.739L44.8203 174.883L45.9645 173.739Z"
    fill="#83D2ED" />
  <path opacity="0.3"
    d="M60.3473 173.739L59.2031 172.595L58.059 173.739L59.2031 174.883L60.3473 173.739Z"
    fill="#83D2ED" />
  <path opacity="0.3"
    d="M74.7301 173.739L73.5859 172.595L72.4418 173.739L73.5859 174.883L74.7301 173.739Z"
    fill="#83D2ED" />
  <path opacity="0.3"
    d="M89.1129 173.739L87.9688 172.595L86.8246 173.739L87.9688 174.883L89.1129 173.739Z"
    fill="#83D2ED" />
  <path opacity="0.3"
    d="M103.496 173.739L102.352 172.595L101.207 173.739L102.352 174.883L103.496 173.739Z"
    fill="#83D2ED" />
  <path d="M117.879 173.739L116.734 172.595L115.59 173.739L116.734 174.883L117.879 173.739Z"
    fill="#83D2ED" />
  <path opacity="0.3"
    d="M132.261 173.739L131.117 172.595L129.973 173.739L131.117 174.883L132.261 173.739Z"
    fill="#83D2ED" />
  <path opacity="0.3"
    d="M146.644 173.739L145.5 172.595L144.356 173.739L145.5 174.883L146.644 173.739Z" fill="#83D2ED" />
  <path d="M161.027 173.739L159.883 172.595L158.739 173.739L159.883 174.883L161.027 173.739Z"
    fill="#83D2ED" />
  <path opacity="0.3"
    d="M175.41 173.739L174.266 172.595L173.121 173.739L174.266 174.883L175.41 173.739Z"
    fill="#83D2ED" />
  <path opacity="0.3"
    d="M2.81603 188.122L1.67188 186.978L0.527724 188.122L1.67188 189.266L2.81603 188.122Z"
    fill="#83D2ED" />
  <path opacity="0.3"
    d="M17.1988 188.122L16.0547 186.978L14.9105 188.122L16.0547 189.266L17.1988 188.122Z"
    fill="#83D2ED" />
  <path opacity="0.3"
    d="M31.5817 188.122L30.4375 186.978L29.2933 188.122L30.4375 189.266L31.5817 188.122Z"
    fill="#83D2ED" />
  <path opacity="0.3"
    d="M45.9645 188.122L44.8203 186.978L43.6762 188.122L44.8203 189.266L45.9645 188.122Z"
    fill="#83D2ED" />
  <path opacity="0.3"
    d="M60.3473 188.122L59.2031 186.978L58.059 188.122L59.2031 189.266L60.3473 188.122Z"
    fill="#83D2ED" />
  <path opacity="0.3"
    d="M74.7301 188.122L73.5859 186.978L72.4418 188.122L73.5859 189.266L74.7301 188.122Z"
    fill="#83D2ED" />
  <path d="M89.1129 188.122L87.9688 186.978L86.8246 188.122L87.9688 189.266L89.1129 188.122Z"
    fill="#83D2ED" />
  <path opacity="0.3"
    d="M103.496 188.122L102.352 186.978L101.207 188.122L102.352 189.266L103.496 188.122Z"
    fill="#83D2ED" />
  <path opacity="0.3"
    d="M117.879 188.122L116.734 186.978L115.59 188.122L116.734 189.266L117.879 188.122Z"
    fill="#83D2ED" />
  <path opacity="0.3"
    d="M132.261 188.122L131.117 186.978L129.973 188.122L131.117 189.266L132.261 188.122Z"
    fill="#83D2ED" />
  <path d="M146.644 188.122L145.5 186.978L144.356 188.122L145.5 189.266L146.644 188.122Z"
    fill="#83D2ED" />
  <path opacity="0.3"
    d="M161.027 188.122L159.883 186.978L158.739 188.122L159.883 189.266L161.027 188.122Z"
    fill="#83D2ED" />
  <path opacity="0.3"
    d="M175.41 188.122L174.266 186.978L173.121 188.122L174.266 189.266L175.41 188.122Z"
    fill="#83D2ED" />
</svg>