<?xml version="1.0" encoding="UTF-8"?>
<!DOCTYPE svg PUBLIC "-//W3C//DTD SVG 1.1//EN" "http://www.w3.org/Graphics/SVG/1.1/DTD/svg11.dtd">
<svg xmlns="http://www.w3.org/2000/svg" version="1.1" width="180px" height="180px" style="shape-rendering:geometricPrecision; text-rendering:geometricPrecision; image-rendering:optimizeQuality; fill-rule:evenodd; clip-rule:evenodd" xmlns:xlink="http://www.w3.org/1999/xlink">
<g><path style="opacity:0.931" fill="#671fff" d="M 54.5,44.5 C 59.544,44.1725 64.544,44.5059 69.5,45.5C 75.651,61.1276 82.3177,76.461 89.5,91.5C 96.7456,76.3497 103.412,61.0163 109.5,45.5C 114.5,44.1667 119.5,44.1667 124.5,45.5C 117.239,62.7817 110.072,80.115 103,97.5C 100.184,105.992 94.351,109.492 85.5,108C 82.4384,106.939 79.9384,105.106 78,102.5C 69.5514,83.3224 61.7181,63.9891 54.5,44.5 Z"/></g>
<g><path style="opacity:0.931" fill="#6720ff" d="M -0.5,134.5 C -0.5,132.833 -0.5,131.167 -0.5,129.5C 1.25282,126.844 2.91948,124.011 4.5,121C 21.8333,120.667 39.1667,120.333 56.5,120C 44.5435,108.212 32.8768,96.3786 21.5,84.5C 20.3861,83.277 20.2195,81.9437 21,80.5C 22.3764,76.827 24.2097,73.4936 26.5,70.5C 41.099,84.5982 55.599,98.9315 70,113.5C 74.5761,122.074 72.7427,128.907 64.5,134C 42.8359,134.5 21.1692,134.667 -0.5,134.5 Z"/></g>
<g><path style="opacity:0.936" fill="#6720ff" d="M 179.5,130.5 C 179.5,131.833 179.5,133.167 179.5,134.5C 157.831,134.667 136.164,134.5 114.5,134C 106.257,128.907 104.424,122.074 109,113.5C 123.427,99.0732 137.76,84.7399 152,70.5C 153.221,71.2718 154.221,72.2718 155,73.5C 155.249,76.1768 156.249,78.5101 158,80.5C 158.781,81.9437 158.614,83.277 157.5,84.5C 146.041,96.4591 134.375,108.292 122.5,120C 139.843,120.167 157.176,120.667 174.5,121.5C 176.367,124.479 178.033,127.479 179.5,130.5 Z"/></g>
</svg>
