<svg xmlns="http://www.w3.org/2000/svg" width="1440" height="499" viewBox="0 0 1440 499" fill="none"><path fill-rule="evenodd" clip-rule="evenodd" d="M-10.5 0V509H1450.5V0H1449.5V70H1377.5V0H1376.5V70H1304.5V0H1303.5V70H1231.5V0H1230.5V70H1158.5V0H1157.5V70H1085.5V0H1084.5V70H1012.5V0H1011.5V70H939.5V0H938.5V70H866.5V0H865.5V70H793.5V0H792.5V70H720.5V0H719.5V70H647.5V0H646.5V70H574.5V0H573.5V70H501.5V0H500.5V70H428.5V0H427.5V70H355.5V0H354.5V70H282.5V0H281.5V70H209.5V0H208.5V70H136.5V0H135.5V70H63.5V0H62.5V70H-9.5V0H-10.5ZM1449.5 508V436H1377.5V508H1449.5ZM1376.5 508V436H1304.5V508H1376.5ZM1303.5 508V436H1231.5V508H1303.5ZM1230.5 508V436H1158.5V508H1230.5ZM1157.5 508V436H1085.5V508H1157.5ZM1084.5 508V436H1012.5V508H1084.5ZM1011.5 508V436H939.5V508H1011.5ZM938.5 508V436H866.5V508H938.5ZM865.5 508V436H793.5V508H865.5ZM792.5 508V436H720.5V508H792.5ZM719.5 508V436H647.5V508H719.5ZM646.5 508V436H574.5V508H646.5ZM573.5 508V436H501.5V508H573.5ZM500.5 508V436H428.5V508H500.5ZM427.5 508V436H355.5V508H427.5ZM354.5 508V436H282.5V508H354.5ZM281.5 508V436H209.5V508H281.5ZM208.5 508V436H136.5V508H208.5ZM135.5 508V436H63.5V508H135.5ZM62.5 508V436H-9.5V508H62.5ZM1449.5 363V435H1377.5V363H1449.5ZM1449.5 290V362H1377.5V290H1449.5ZM1449.5 217V289H1377.5V217H1449.5ZM1449.5 144V216H1377.5V144H1449.5ZM1449.5 71V143H1377.5V71H1449.5ZM-9.5 435H62.5V363H-9.5V435ZM-9.5 362H62.5V290H-9.5V362ZM-9.5 289H62.5V217H-9.5V289ZM-9.5 216H62.5V144H-9.5V216ZM-9.5 143H62.5V71H-9.5V143ZM1376.5 435V363H1304.5V435H1376.5ZM1303.5 435V363H1231.5V435H1303.5ZM1230.5 435V363H1158.5V435H1230.5ZM1157.5 435V363H1085.5V435H1157.5ZM1084.5 435V363H1012.5V435H1084.5ZM1011.5 435V363H939.5V435H1011.5ZM938.5 435V363H866.5V435H938.5ZM865.5 435V363H793.5V435H865.5ZM792.5 435V363H720.5V435H792.5ZM719.5 435V363H647.5V435H719.5ZM646.5 435V363H574.5V435H646.5ZM573.5 435V363H501.5V435H573.5ZM500.5 435V363H428.5V435H500.5ZM427.5 435V363H355.5V435H427.5ZM354.5 435V363H282.5V435H354.5ZM281.5 435V363H209.5V435H281.5ZM208.5 435V363H136.5V435H208.5ZM135.5 435V363H63.5V435H135.5ZM135.5 362H63.5V290H135.5V362ZM208.5 362H136.5V290H208.5V362ZM281.5 362H209.5V290H281.5V362ZM354.5 362H282.5V290H354.5V362ZM427.5 362H355.5V290H427.5V362ZM500.5 362H428.5V290H500.5V362ZM573.5 362H501.5V290H573.5V362ZM646.5 362H574.5V290H646.5V362ZM719.5 362H647.5V290H719.5V362ZM792.5 362H720.5V290H792.5V362ZM865.5 362H793.5V290H865.5V362ZM938.5 362H866.5V290H938.5V362ZM1011.5 362H939.5V290H1011.5V362ZM1084.5 362H1012.5V290H1084.5V362ZM1157.5 362H1085.5V290H1157.5V362ZM1230.5 362H1158.5V290H1230.5V362ZM1303.5 362H1231.5V290H1303.5V362ZM1376.5 362H1304.5V290H1376.5V362ZM1376.5 289V217H1304.5V289H1376.5ZM1303.5 289V217H1231.5V289H1303.5ZM1230.5 289V217H1158.5V289H1230.5ZM1157.5 289V217H1085.5V289H1157.5ZM1084.5 289V217H1012.5V289H1084.5ZM1011.5 289V217H939.5V289H1011.5ZM938.5 289V217H866.5V289H938.5ZM865.5 289V217H793.5V289H865.5ZM792.5 289V217H720.5V289H792.5ZM719.5 289V217H647.5V289H719.5ZM646.5 289V217H574.5V289H646.5ZM573.5 289V217H501.5V289H573.5ZM500.5 289V217H428.5V289H500.5ZM427.5 289V217H355.5V289H427.5ZM354.5 289V217H282.5V289H354.5ZM281.5 289V217H209.5V289H281.5ZM208.5 289V217H136.5V289H208.5ZM135.5 289V217H63.5V289H135.5ZM135.5 216H63.5V144H135.5V216ZM208.5 216H136.5V144H208.5V216ZM281.5 216H209.5V144H281.5V216ZM354.5 216H282.5V144H354.5V216ZM427.5 216H355.5V144H427.5V216ZM500.5 216H428.5V144H500.5V216ZM573.5 216H501.5V144H573.5V216ZM646.5 216H574.5V144H646.5V216ZM719.5 216H647.5V144H719.5V216ZM792.5 216H720.5V144H792.5V216ZM865.5 216H793.5V144H865.5V216ZM938.5 216H866.5V144H938.5V216ZM1011.5 216H939.5V144H1011.5V216ZM1084.5 216H1012.5V144H1084.5V216ZM1157.5 216H1085.5V144H1157.5V216ZM1230.5 216H1158.5V144H1230.5V216ZM1303.5 216H1231.5V144H1303.5V216ZM1376.5 216H1304.5V144H1376.5V216ZM1376.5 143V71H1304.5V143H1376.5ZM1303.5 143V71H1231.5V143H1303.5ZM1230.5 143V71H1158.5V143H1230.5ZM1157.5 143V71H1085.5V143H1157.5ZM1084.5 143V71H1012.5V143H1084.5ZM1011.5 143V71H939.5V143H1011.5ZM938.5 143V71H866.5V143H938.5ZM865.5 143V71H793.5V143H865.5ZM792.5 143V71H720.5V143H792.5ZM719.5 143V71H647.5V143H719.5ZM646.5 143V71H574.5V143H646.5ZM573.5 143V71H501.5V143H573.5ZM500.5 143V71H428.5V143H500.5ZM427.5 143V71H355.5V143H427.5ZM354.5 143V71H282.5V143H354.5ZM281.5 143V71H209.5V143H281.5ZM208.5 143V71H136.5V143H208.5ZM135.5 143V71H63.5V143H135.5Z" fill="#181A1C"/></svg>