<svg width="237" height="72" viewBox="0 0 237 72" fill="none" xmlns="http://www.w3.org/2000/svg"><rect x="128" y="35.0001" width="51" height="2" fill="#5B5B5B"/><rect x="57" y="35.0001" width="51" height="2" fill="#5B5B5B"/><circle cx="118" cy="35.5001" r="16.5" fill="url(#paint0_linear_1801_13518)"/><g clip-path="url(#clip0_1801_13518)"><path d="M118 28.6668C115.784 28.6668 114 30.4509 114 32.6668V33.3334C113.267 33.3334 112.667 33.9334 112.667 34.6668V41.3334C112.667 42.0668 113.267 42.6668 114 42.6668H122C122.734 42.6668 123.334 42.0668 123.334 41.3334V34.6668C123.334 33.9334 122.734 33.3334 122 33.3334V32.6668C122 30.4509 120.216 28.6668 118 28.6668ZM118 30.0001C119.518 30.0001 120.667 31.1493 120.667 32.6668V33.3334H115.334V32.6668C115.334 31.1493 116.483 30.0001 118 30.0001ZM118 36.6668C118.734 36.6668 119.334 37.2668 119.334 38.0001C119.334 38.7334 118.734 39.3334 118 39.3334C117.267 39.3334 116.667 38.7334 116.667 38.0001C116.667 37.2668 117.267 36.6668 118 36.6668Z" fill="black"/></g><rect x="155" y="15" width="42" height="42" rx="12" fill="url(#paint1_linear_1801_13518)"/><mask id="path-6-inside-1_1801_13518" fill="white"><path d="M155 27C155 20.3726 160.373 15 167 15H185C191.627 15 197 20.3726 197 27V45C197 51.6274 191.627 57 185 57H167C160.373 57 155 51.6274 155 45V27Z"/></mask><path d="M154.299 27C154.299 19.9856 159.986 14.2993 167 14.2993H185C192.014 14.2993 197.701 19.9856 197.701 27L196.299 27C196.299 20.7596 191.24 15.7007 185 15.7007H167C160.76 15.7007 155.701 20.7596 155.701 27L154.299 27ZM197.701 45C197.701 52.0144 192.014 57.7007 185 57.7007H167C159.986 57.7007 154.299 52.0144 154.299 45L155.701 45C155.701 51.2404 160.76 56.2993 167 56.2993H185C191.24 56.2993 196.299 51.2404 196.299 45L197.701 45ZM167 57.7007C159.986 57.7007 154.299 52.0144 154.299 45V27C154.299 19.9856 159.986 14.2993 167 14.2993L167 15.7007C160.76 15.7007 155.701 20.7596 155.701 27V45C155.701 51.2404 160.76 56.2993 167 56.2993L167 57.7007ZM185 14.2993C192.014 14.2993 197.701 19.9856 197.701 27V45C197.701 52.0144 192.014 57.7007 185 57.7007L185 56.2993C191.24 56.2993 196.299 51.2404 196.299 45V27C196.299 20.7596 191.24 15.7007 185 15.7007L185 14.2993Z" fill="url(#paint2_linear_1801_13518)" mask="url(#path-6-inside-1_1801_13518)"/><path d="M177.744 27.0001C177.401 27.0001 177.122 27.2788 177.122 27.6221V34.2561C177.122 34.5994 177.401 34.878 177.744 34.878H184.378C184.721 34.878 185 34.5994 185 34.2561C185 30.2554 181.745 27.0001 177.744 27.0001ZM175.255 29.4879C170.885 29.4887 167.405 33.3725 168.085 37.8695C168.553 40.9618 171.038 43.4471 174.131 43.9148C178.628 44.5952 182.511 41.1152 182.512 36.7455C182.512 36.4022 182.234 36.1219 181.89 36.1219H176.707C176.249 36.1219 175.878 35.7508 175.878 35.2927V30.1098C175.878 29.7665 175.598 29.4879 175.255 29.4879Z" fill="url(#paint3_linear_1801_13518)"/><rect x="39" y="15" width="42" height="42" rx="12" fill="url(#paint4_linear_1801_13518)"/><mask id="path-10-inside-2_1801_13518" fill="white"><path d="M39 27C39 20.3726 44.3726 15 51 15H69C75.6274 15 81 20.3726 81 27V45C81 51.6274 75.6274 57 69 57H51C44.3726 57 39 51.6274 39 45V27Z"/></mask><path d="M38.2993 27C38.2993 19.9856 43.9856 14.2993 51 14.2993H69C76.0144 14.2993 81.7007 19.9856 81.7007 27L80.2993 27C80.2993 20.7596 75.2404 15.7007 69 15.7007H51C44.7596 15.7007 39.7007 20.7596 39.7007 27L38.2993 27ZM81.7007 45C81.7007 52.0144 76.0144 57.7007 69 57.7007H51C43.9856 57.7007 38.2993 52.0144 38.2993 45L39.7007 45C39.7007 51.2404 44.7596 56.2993 51 56.2993H69C75.2404 56.2993 80.2993 51.2404 80.2993 45L81.7007 45ZM51 57.7007C43.9856 57.7007 38.2993 52.0144 38.2993 45V27C38.2993 19.9856 43.9856 14.2993 51 14.2993L51 15.7007C44.7596 15.7007 39.7007 20.7596 39.7007 27V45C39.7007 51.2404 44.7596 56.2993 51 56.2993L51 57.7007ZM69 14.2993C76.0144 14.2993 81.7007 19.9856 81.7007 27V45C81.7007 52.0144 76.0144 57.7007 69 57.7007L69 56.2993C75.2404 56.2993 80.2993 51.2404 80.2993 45V27C80.2993 20.7596 75.2404 15.7007 69 15.7007L69 14.2993Z" fill="url(#paint5_linear_1801_13518)" mask="url(#path-10-inside-2_1801_13518)"/><path d="M58.3333 36.7243H53L61.6667 25.0001V33.276H67L58.3333 45.0001V36.7243Z" fill="url(#paint6_linear_1801_13518)"/><defs><linearGradient id="paint0_linear_1801_13518" x1="118" y1="19.0001" x2="118" y2="52.0001" gradientUnits="userSpaceOnUse"><stop stop-color="#FCFCFC"/><stop offset="1" stop-color="#858585"/></linearGradient><linearGradient id="paint1_linear_1801_13518" x1="192.401" y1="18.219" x2="157.299" y2="53.9343" gradientUnits="userSpaceOnUse"><stop stop-color="#202020"/><stop offset="0.696"/></linearGradient><linearGradient id="paint2_linear_1801_13518" x1="193.781" y1="17.7591" x2="182.438" y2="32.1679" gradientUnits="userSpaceOnUse"><stop stop-color="white" stop-opacity="0.22"/><stop offset="1" stop-color="white" stop-opacity="0"/></linearGradient><linearGradient id="paint3_linear_1801_13518" x1="176.5" y1="27.0001" x2="176.5" y2="44.0001" gradientUnits="userSpaceOnUse"><stop stop-color="white"/><stop offset="1" stop-color="white" stop-opacity="0.5"/></linearGradient><linearGradient id="paint4_linear_1801_13518" x1="76.4015" y1="18.219" x2="41.2993" y2="53.9343" gradientUnits="userSpaceOnUse"><stop stop-color="#202020"/><stop offset="0.696"/></linearGradient><linearGradient id="paint5_linear_1801_13518" x1="77.781" y1="17.7591" x2="66.438" y2="32.1679" gradientUnits="userSpaceOnUse"><stop stop-color="white" stop-opacity="0.22"/><stop offset="1" stop-color="white" stop-opacity="0"/></linearGradient><linearGradient id="paint6_linear_1801_13518" x1="60" y1="25.0001" x2="60" y2="45.0001" gradientUnits="userSpaceOnUse"><stop stop-color="white"/><stop offset="1" stop-color="white" stop-opacity="0.5"/></linearGradient><clipPath id="clip0_1801_13518"><rect width="16" height="16" fill="white" transform="translate(110 28.0001)"/></clipPath></defs></svg>