<svg width="237" height="72" viewBox="0 0 237 72" fill="none" xmlns="http://www.w3.org/2000/svg"><rect x="47" y="15" width="42" height="42" rx="12" fill="url(#paint0_linear_1801_13564)"/><path fill-rule="evenodd" clip-rule="evenodd" d="M77.5 31.569C77.5 34.6446 75.0067 37.1379 71.931 37.1379C71.5247 37.1379 71.1284 37.0944 70.7469 37.0117L69.9655 37.7931H67.6724V40.0862L66.0345 41.7241H63.7414V44.0172L62.7586 45H58.5V40.7414L66.4883 32.7532C66.4056 32.3715 66.3621 31.9753 66.3621 31.569C66.3621 28.4933 68.8554 26 71.931 26C75.0067 26 77.5 28.4933 77.5 31.569ZM72 34C73.3807 34 74.5 32.8807 74.5 31.5C74.5 30.1193 73.3807 29 72 29C70.6193 29 69.5 30.1193 69.5 31.5C69.5 32.8807 70.6193 34 72 34Z" fill="url(#paint1_linear_1801_13564)"/><mask id="path-3-inside-1_1801_13564" fill="white"><path d="M47 27C47 20.3726 52.3726 15 59 15H77C83.6274 15 89 20.3726 89 27V45C89 51.6274 83.6274 57 77 57H59C52.3726 57 47 51.6274 47 45V27Z"/></mask><path d="M46.2993 27C46.2993 19.9856 51.9856 14.2993 59 14.2993H77C84.0144 14.2993 89.7007 19.9856 89.7007 27L88.2993 27C88.2993 20.7596 83.2404 15.7007 77 15.7007H59C52.7596 15.7007 47.7007 20.7596 47.7007 27L46.2993 27ZM89.7007 45C89.7007 52.0144 84.0144 57.7007 77 57.7007H59C51.9856 57.7007 46.2993 52.0144 46.2993 45L47.7007 45C47.7007 51.2404 52.7596 56.2993 59 56.2993H77C83.2404 56.2993 88.2993 51.2404 88.2993 45L89.7007 45ZM59 57.7007C51.9856 57.7007 46.2993 52.0144 46.2993 45V27C46.2993 19.9856 51.9856 14.2993 59 14.2993L59 15.7007C52.7596 15.7007 47.7007 20.7596 47.7007 27V45C47.7007 51.2404 52.7596 56.2993 59 56.2993L59 57.7007ZM77 14.2993C84.0144 14.2993 89.7007 19.9856 89.7007 27V45C89.7007 52.0144 84.0144 57.7007 77 57.7007L77 56.2993C83.2404 56.2993 88.2993 51.2404 88.2993 45V27C88.2993 20.7596 83.2404 15.7007 77 15.7007L77 14.2993Z" fill="url(#paint2_linear_1801_13564)" mask="url(#path-3-inside-1_1801_13564)"/><rect x="97.5" y="15" width="42" height="42" rx="12" fill="url(#paint3_linear_1801_13564)"/><path d="M128.2 29.696C127.494 30.0088 126.601 30.3024 125.8 30.4C126.614 29.9168 127.906 28.9104 128.2 28C127.439 28.4472 126.063 28.9248 125.166 29.0976C123.231 27.0464 118.6 27.804 118.6 32V33.6C115.4 33.6 112.28 31.1624 110.338 28.8C108.535 31.8456 111.825 34.1512 112.2 34.4C111.554 34.38 110.332 33.8872 109.8 33.6C109.8 33.6128 109.8 33.6288 109.8 33.6456C109.8 35.5392 111.129 36.8248 112.93 37.1832C112.601 37.2736 112.2 37.6 110.658 37.6C111.158 39.148 113.676 39.9664 115.4 40C113.306 41.6232 109.699 41.6632 109 41.5816C116.191 45.8128 127.135 41.992 126.586 31.6C127.36 31.0544 127.674 30.4832 128.2 29.696Z" fill="url(#paint4_linear_1801_13564)"/><mask id="path-7-inside-2_1801_13564" fill="white"><path d="M97.5 27C97.5 20.3726 102.873 15 109.5 15H127.5C134.127 15 139.5 20.3726 139.5 27V45C139.5 51.6274 134.127 57 127.5 57H109.5C102.873 57 97.5 51.6274 97.5 45V27Z"/></mask><path d="M96.7993 27C96.7993 19.9856 102.486 14.2993 109.5 14.2993H127.5C134.514 14.2993 140.201 19.9856 140.201 27L138.799 27C138.799 20.7596 133.74 15.7007 127.5 15.7007H109.5C103.26 15.7007 98.2007 20.7596 98.2007 27L96.7993 27ZM140.201 45C140.201 52.0144 134.514 57.7007 127.5 57.7007H109.5C102.486 57.7007 96.7993 52.0144 96.7993 45L98.2007 45C98.2007 51.2404 103.26 56.2993 109.5 56.2993H127.5C133.74 56.2993 138.799 51.2404 138.799 45L140.201 45ZM109.5 57.7007C102.486 57.7007 96.7993 52.0144 96.7993 45V27C96.7993 19.9856 102.486 14.2993 109.5 14.2993L109.5 15.7007C103.26 15.7007 98.2007 20.7596 98.2007 27V45C98.2007 51.2404 103.26 56.2993 109.5 56.2993L109.5 57.7007ZM127.5 14.2993C134.514 14.2993 140.201 19.9856 140.201 27V45C140.201 52.0144 134.514 57.7007 127.5 57.7007L127.5 56.2993C133.74 56.2993 138.799 51.2404 138.799 45V27C138.799 20.7596 133.74 15.7007 127.5 15.7007L127.5 14.2993Z" fill="url(#paint5_linear_1801_13564)" mask="url(#path-7-inside-2_1801_13564)"/><rect x="148" y="15" width="42" height="42" rx="12" fill="url(#paint6_linear_1801_13564)"/><path d="M170.518 36.6712H174.658L175.309 32.4648H170.518V30.1656C170.518 28.4184 171.089 26.8688 172.723 26.8688H175.35V23.1984C174.888 23.136 173.912 23 172.068 23C168.217 23 165.959 25.0336 165.959 29.6672V32.4656H162V36.672H165.958V48.2336C166.742 48.3504 167.537 48.4304 168.352 48.4304C169.089 48.4304 169.808 48.3632 170.518 48.2672V36.6712Z" fill="url(#paint7_linear_1801_13564)"/><mask id="path-11-inside-3_1801_13564" fill="white"><path d="M148 27C148 20.3726 153.373 15 160 15H178C184.627 15 190 20.3726 190 27V45C190 51.6274 184.627 57 178 57H160C153.373 57 148 51.6274 148 45V27Z"/></mask><path d="M147.299 27C147.299 19.9856 152.986 14.2993 160 14.2993H178C185.014 14.2993 190.701 19.9856 190.701 27L189.299 27C189.299 20.7596 184.24 15.7007 178 15.7007H160C153.76 15.7007 148.701 20.7596 148.701 27L147.299 27ZM190.701 45C190.701 52.0144 185.014 57.7007 178 57.7007H160C152.986 57.7007 147.299 52.0144 147.299 45L148.701 45C148.701 51.2404 153.76 56.2993 160 56.2993H178C184.24 56.2993 189.299 51.2404 189.299 45L190.701 45ZM160 57.7007C152.986 57.7007 147.299 52.0144 147.299 45V27C147.299 19.9856 152.986 14.2993 160 14.2993L160 15.7007C153.76 15.7007 148.701 20.7596 148.701 27V45C148.701 51.2404 153.76 56.2993 160 56.2993L160 57.7007ZM178 14.2993C185.014 14.2993 190.701 19.9856 190.701 27V45C190.701 52.0144 185.014 57.7007 178 57.7007L178 56.2993C184.24 56.2993 189.299 51.2404 189.299 45V27C189.299 20.7596 184.24 15.7007 178 15.7007L178 14.2993Z" fill="url(#paint8_linear_1801_13564)" mask="url(#path-11-inside-3_1801_13564)"/><defs><linearGradient id="paint0_linear_1801_13564" x1="84.4015" y1="18.219" x2="49.2993" y2="53.9343" gradientUnits="userSpaceOnUse"><stop stop-color="#202020"/><stop offset="0.696"/></linearGradient><linearGradient id="paint1_linear_1801_13564" x1="68" y1="26" x2="68" y2="45" gradientUnits="userSpaceOnUse"><stop stop-color="#FCFCFC"/><stop offset="1" stop-color="#858585"/></linearGradient><linearGradient id="paint2_linear_1801_13564" x1="85.781" y1="17.7591" x2="74.438" y2="32.1679" gradientUnits="userSpaceOnUse"><stop stop-color="white" stop-opacity="0.22"/><stop offset="1" stop-color="white" stop-opacity="0"/></linearGradient><linearGradient id="paint3_linear_1801_13564" x1="134.901" y1="18.219" x2="99.7993" y2="53.9343" gradientUnits="userSpaceOnUse"><stop stop-color="#202020"/><stop offset="0.696"/></linearGradient><linearGradient id="paint4_linear_1801_13564" x1="118.6" y1="28" x2="118.6" y2="43.277" gradientUnits="userSpaceOnUse"><stop stop-color="#FCFCFC"/><stop offset="1" stop-color="#858585"/></linearGradient><linearGradient id="paint5_linear_1801_13564" x1="136.281" y1="17.7591" x2="124.938" y2="32.1679" gradientUnits="userSpaceOnUse"><stop stop-color="white" stop-opacity="0.22"/><stop offset="1" stop-color="white" stop-opacity="0"/></linearGradient><linearGradient id="paint6_linear_1801_13564" x1="185.401" y1="18.219" x2="150.299" y2="53.9343" gradientUnits="userSpaceOnUse"><stop stop-color="#202020"/><stop offset="0.696"/></linearGradient><linearGradient id="paint7_linear_1801_13564" x1="168.675" y1="23" x2="168.675" y2="48.4304" gradientUnits="userSpaceOnUse"><stop stop-color="#FCFCFC"/><stop offset="1" stop-color="#858585"/></linearGradient><linearGradient id="paint8_linear_1801_13564" x1="186.781" y1="17.7591" x2="175.438" y2="32.1679" gradientUnits="userSpaceOnUse"><stop stop-color="white" stop-opacity="0.22"/><stop offset="1" stop-color="white" stop-opacity="0"/></linearGradient></defs></svg>