<svg width="237" height="72" viewBox="0 0 237 72" fill="none" xmlns="http://www.w3.org/2000/svg">
<g clip-path="url(#clip0_3387_1421)">
<rect x="128" y="35" width="51" height="2" fill="#5B5B5B"/>
<rect x="57" y="35" width="51" height="2" fill="#5B5B5B"/>
<g clip-path="url(#clip1_3387_1421)">
<circle cx="118" cy="35.2941" r="23.2941" fill="url(#paint0_linear_3387_1421)"/>
<path d="M123.942 22.2C122.718 22.2 121.659 22.5304 120.925 22.8562C120.206 22.6148 119.013 22.2023 117.581 22.5C116.746 22.6453 115.98 22.9898 115.277 23.5171C114.119 22.9593 112.91 22.6171 111.642 22.5609C110.861 22.5 107.681 22.8609 106.539 24.539C106.12 25.2 105.7 26.039 105.52 27.0585C105.339 27.9585 105.339 28.9804 105.639 31.0804C105.82 32.5195 106.061 33.4804 106.6 35.4585C106.661 35.639 106.961 36.6 107.861 39.2414C108.039 39.7195 108.4 40.6195 109.12 41.4585C109.6 42.0585 110.081 42.4195 110.681 42.4195C111.461 42.4195 112 41.8804 112.481 41.2804C112.516 41.2406 112.553 41.196 112.588 41.1562C112.544 41.2265 112.504 41.3039 112.481 41.4C112.361 42 113.081 42.4804 113.681 42.7195C114.161 42.9585 114.7 43.0195 115.12 43.0195C115.659 43.0195 116.081 42.9 116.32 42.8414C116.526 42.771 116.971 42.5789 117.447 42.2625C117.468 43.7953 117.482 45.6046 117.52 46.0195C117.7 47.5804 118.12 48.6585 118.9 49.2585C119.5 49.739 120.581 49.8 120.642 49.8C121.72 49.8 123.4 49.0804 124.12 47.9414C124.481 47.4 124.6 46.9195 124.72 46.2585C124.839 45.9 124.959 43.8 125.02 43.3804C125.102 42.7171 125.165 42.0632 125.228 41.4281C125.624 41.5312 126.112 41.6414 126.642 41.6414C127.6 41.6414 128.861 40.9804 129.1 40.8585C129.581 40.5 130.539 39.6609 130.12 38.9414C129.881 38.5195 129.52 38.5195 128.62 38.6414C128.62 38.6414 127.181 38.8195 127.059 38.7585C126.972 38.7257 126.838 38.6414 126.688 38.5312C127 38.0484 127.277 37.5703 127.6 37.1414C128.32 35.7609 128.742 34.6804 129.042 33.8414C129.581 32.3414 129.881 31.139 130.059 30.3C130.481 28.5 130.6 27.6609 130.359 26.7C129.881 25.0195 128.139 23.5804 127.42 23.1609C126.939 22.9195 125.742 22.2 123.942 22.2ZM123.942 23.4C125.442 23.4 126.461 24 127 24.239C127.661 24.6 129.161 25.8 129.281 26.939C129.342 27.6 129.4 28.2609 128.981 30C128.742 30.839 128.5 31.9195 127.959 33.4195C127.659 34.2585 127.3 35.2804 126.581 36.5414C126.562 36.5718 126.541 36.6046 126.522 36.6375C126.592 36.3843 126.642 36.1804 126.642 36.1804C126.761 35.5804 126.761 35.1 126.7 34.3804C126.639 34.0195 126.581 33.1195 126.581 32.7585C126.581 32.5804 126.759 30.7195 126.82 30.0585C126.881 28.9804 126.22 27.6585 126.042 27.4195C125.142 26.039 124.661 25.2609 123.7 24.4804C123.461 24.2765 123.051 23.9367 122.493 23.5945C122.934 23.4867 123.421 23.4 123.942 23.4ZM118.64 23.646C119.423 23.6648 120.086 23.8804 120.581 24.0609C121.842 24.4804 122.62 25.139 122.981 25.439C123.761 26.1 124.181 26.7609 125.081 28.1414C125.146 28.2726 125.317 28.5515 125.453 28.9406C124.225 28.8281 123.41 29.2593 122.92 29.7C122.2 30.3 122.259 31.2 122.32 31.8585C122.32 32.339 122.442 32.9414 123.342 34.9804C123.7 35.8804 124.059 36.839 124.42 37.5C124.607 37.8726 124.837 38.2148 125.083 38.5195C124.94 38.5921 124.795 38.6859 124.659 38.8195C124.3 39.239 124.239 39.6609 124.12 40.4414C124 41.0414 123.881 42.3 123.82 43.3195C123.82 43.739 123.642 45.7804 123.581 46.0804C123.4 46.6804 123.339 46.9804 123.1 47.3414C122.681 48 121.361 48.5414 120.581 48.4804C120.342 48.4804 119.981 48.4804 119.681 48.2414C119.02 47.7609 118.781 46.6804 118.72 45.8414C118.659 45.2414 118.72 40.9195 118.6 39.9585C118.539 39.7195 118.481 39.1195 118 38.7C117.799 38.5312 117.381 38.4445 116.988 38.3859C116.992 38.1843 117.004 37.9828 117.042 37.8C117.1 37.439 117.22 37.2585 117.342 36.9585C117.4 36.7804 117.52 36.5414 117.642 36.2414C118.181 34.5609 118.059 32.339 117.759 30.9585C117.7 30.839 117.459 29.8804 116.62 29.3414C115.72 28.8 114.759 29.1 114.22 29.2804C113.997 29.3414 113.777 29.4375 113.556 29.55C113.594 29.2992 113.627 29.046 113.681 28.8C113.92 27.6 114.161 26.5804 114.942 25.5609C115.781 24.539 116.739 23.8804 117.82 23.7C118.106 23.6554 118.38 23.639 118.64 23.646ZM111.231 23.7515C111.372 23.7492 111.492 23.7515 111.581 23.7609C112.518 23.8101 113.416 24.0304 114.306 24.4054C114.196 24.5273 114.086 24.6492 113.981 24.7804C112.961 25.9804 112.72 27.239 112.481 28.5C112.181 30 112.12 31.5585 112.359 33.1195L112.242 34.2585C112.181 34.8585 112.059 36 112.72 37.2C112.952 37.5984 113.207 37.9359 113.488 38.2242C112.879 39.0304 112.232 39.7921 111.581 40.5C111.22 40.9195 110.92 41.2195 110.681 41.2195C110.62 41.2195 110.381 41.1 110.02 40.6804C109.359 39.9609 109.12 39.1804 109 38.8804C108.281 36.7195 107.861 35.339 107.8 35.1585C107.32 33.239 107.081 32.2804 106.839 30.9C106.539 28.9804 106.539 28.0195 106.72 27.2414C106.9 26.4 107.2 25.739 107.5 25.2609C108.236 24.1054 110.256 23.7773 111.231 23.7515ZM124.999 30.075C125.191 30.075 125.399 30.0984 125.62 30.1453C125.613 30.7054 125.381 32.4632 125.381 32.7C125.381 33.1804 125.5 34.139 125.5 34.5C125.561 35.1609 125.561 35.5195 125.5 36C125.5 36 125.411 36.4289 125.32 36.7335C125.041 36.1031 124.731 35.3507 124.359 34.5C123.459 32.4609 123.4 32.0414 123.4 31.7414C123.4 31.3195 123.4 30.7804 123.759 30.5414C124.096 30.2414 124.506 30.0796 124.999 30.075ZM115.685 30.2507C115.804 30.2648 115.914 30.3 116.02 30.3585C116.5 30.6 116.62 31.2 116.62 31.2C116.92 32.5195 117.039 34.5 116.559 35.8195C116.5 36.0585 116.381 36.239 116.32 36.4195C116.2 36.7195 116.081 37.0195 115.959 37.5585C115.928 37.7812 115.914 38.0015 115.907 38.2218C115.492 38.1351 115.101 37.9875 114.82 37.8C114.339 37.5609 113.981 37.139 113.742 36.6585C113.32 35.7585 113.381 34.9195 113.442 34.4414L113.559 33.0585C113.474 32.3835 113.435 31.7062 113.444 31.0335C113.72 30.7968 114.081 30.5554 114.581 30.4195C114.942 30.3304 115.335 30.2062 115.685 30.2507ZM124.532 30.6539C124.375 30.6609 124.209 30.689 124.12 30.7195C123.881 30.7804 123.82 30.7804 123.759 30.9C123.7 31.0195 123.881 31.2 123.942 31.3195C124 31.3195 124.181 31.5 124.42 31.4414C124.6 31.3804 124.72 31.2609 124.781 31.2C124.842 31.139 125.081 30.839 124.9 30.7195C124.839 30.6585 124.689 30.6445 124.532 30.6539ZM115.549 31.0898C115.483 31.0945 115.42 31.1109 115.359 31.1414C115.3 31.1414 115.181 31.2 115.12 31.3195C115.059 31.439 115.12 31.5585 115.181 31.6195C115.3 31.8 115.481 31.9804 115.781 31.9804C115.842 31.9804 116.081 31.9804 116.259 31.8C116.259 31.8 116.442 31.6195 116.442 31.4414C116.381 31.3195 116.261 31.2609 116.081 31.2C115.945 31.1554 115.743 31.0757 115.549 31.0898ZM114.445 38.9414C114.813 39.1382 115.256 39.2976 115.741 39.4078C115.612 39.6656 115.427 39.8789 115.242 40.0195C114.82 40.3195 114.281 40.5 113.742 40.6195C113.62 40.6195 113.561 40.6804 113.442 40.6804C113.151 40.7625 112.87 40.8539 112.678 41.0531C113.266 40.3992 113.856 39.6773 114.445 38.9414ZM126.013 39.4218C126.276 39.6187 126.534 39.764 126.759 39.8414C127.12 39.9609 127.42 39.9609 128.5 39.8414C128.32 40.0195 127.781 40.3195 127 40.4414C126.499 40.4906 125.875 40.371 125.369 40.2257C125.416 39.8859 125.47 39.6914 125.559 39.6C125.592 39.5695 125.791 39.5085 126.013 39.4218ZM116.978 39.6023C117.103 39.6234 117.201 39.6398 117.22 39.6585C117.339 39.7804 117.4 40.0804 117.4 40.2C117.407 40.3031 117.412 40.5632 117.417 40.7437C116.922 41.3226 116.128 41.6437 115.959 41.7C115.72 41.8195 115 41.939 114.281 41.7C114.881 41.5195 115.481 41.3414 115.959 40.9804C116.378 40.6804 116.739 40.2023 116.978 39.6023Z" fill="black"/>
</g>
<g filter="url(#filter0_dddi_3387_1421)">
<circle cx="176" cy="36" r="21" fill="#282B2E"/>
</g>
<rect x="155" y="15" width="42" height="42" rx="12" fill="url(#paint1_linear_3387_1421)"/>
<path d="M176 34.3333C172.834 34.3333 169.584 33.7499 167.667 32.3333V35.9999C167.667 38.2499 172 39.3333 176 39.3333C180 39.3333 184.334 38.2499 184.334 35.9999V32.3333C182.417 33.7499 179.167 34.3333 176 34.3333Z" fill="url(#paint2_linear_3387_1421)"/>
<path d="M176 41C172.834 41 169.584 40.4167 167.667 39V42.6667C167.667 44.9167 172 46 176 46C180 46 184.334 44.9167 184.334 42.6667V39C182.417 40.4167 179.167 41 176 41Z" fill="url(#paint3_linear_3387_1421)"/>
<path d="M176 26C172 26 167.667 27.0833 167.667 29.3333C167.667 31.5833 172 32.6667 176 32.6667C180 32.6667 184.334 31.5833 184.334 29.3333C184.334 27.0833 180 26 176 26Z" fill="url(#paint4_linear_3387_1421)"/>
<mask id="path-10-inside-1_3387_1421" fill="white">
<path d="M155 27C155 20.3726 160.373 15 167 15H185C191.627 15 197 20.3726 197 27V45C197 51.6274 191.627 57 185 57H167C160.373 57 155 51.6274 155 45V27Z"/>
</mask>
<path d="M167 15.7007H185V14.2993H167V15.7007ZM196.299 27V45H197.701V27H196.299ZM185 56.2993H167V57.7007H185V56.2993ZM155.701 45V27H154.299V45H155.701ZM167 56.2993C160.76 56.2993 155.701 51.2404 155.701 45H154.299C154.299 52.0144 159.986 57.7007 167 57.7007V56.2993ZM196.299 45C196.299 51.2404 191.24 56.2993 185 56.2993V57.7007C192.014 57.7007 197.701 52.0144 197.701 45H196.299ZM185 15.7007C191.24 15.7007 196.299 20.7596 196.299 27H197.701C197.701 19.9856 192.014 14.2993 185 14.2993V15.7007ZM167 14.2993C159.986 14.2993 154.299 19.9856 154.299 27H155.701C155.701 20.7596 160.76 15.7007 167 15.7007V14.2993Z" fill="url(#paint5_linear_3387_1421)" mask="url(#path-10-inside-1_3387_1421)"/>
<g filter="url(#filter1_dddi_3387_1421)">
<circle cx="60" cy="36" r="21" fill="#282B2E"/>
</g>
<rect x="39" y="15" width="42" height="42" rx="12" fill="url(#paint6_linear_3387_1421)"/>
<mask id="path-14-inside-2_3387_1421" fill="white">
<path d="M39 27C39 20.3726 44.3726 15 51 15H69C75.6274 15 81 20.3726 81 27V45C81 51.6274 75.6274 57 69 57H51C44.3726 57 39 51.6274 39 45V27Z"/>
</mask>
<path d="M51 15.7007H69V14.2993H51V15.7007ZM80.2993 27V45H81.7007V27H80.2993ZM69 56.2993H51V57.7007H69V56.2993ZM39.7007 45V27H38.2993V45H39.7007ZM51 56.2993C44.7596 56.2993 39.7007 51.2404 39.7007 45H38.2993C38.2993 52.0144 43.9856 57.7007 51 57.7007V56.2993ZM80.2993 45C80.2993 51.2404 75.2404 56.2993 69 56.2993V57.7007C76.0144 57.7007 81.7007 52.0144 81.7007 45H80.2993ZM69 15.7007C75.2404 15.7007 80.2993 20.7596 80.2993 27H81.7007C81.7007 19.9856 76.0144 14.2993 69 14.2993V15.7007ZM51 14.2993C43.9856 14.2993 38.2993 19.9856 38.2993 27H39.7007C39.7007 20.7596 44.7596 15.7007 51 15.7007V14.2993Z" fill="url(#paint7_linear_3387_1421)" mask="url(#path-14-inside-2_3387_1421)"/>
<path d="M60 35.25C61.7949 35.25 63.25 33.7949 63.25 32C63.25 30.2051 61.7949 28.75 60 28.75C58.2051 28.75 56.75 30.2051 56.75 32C56.75 33.7949 58.2051 35.25 60 35.25Z" fill="url(#paint8_linear_3387_1421)"/>
<path d="M54.8472 43.25H65.1522C66.2941 43.25 67.1737 42.2681 66.6405 41.2584C65.856 39.7731 64.0677 38 59.9997 38C55.9317 38 54.1434 39.7731 53.359 41.2584C52.8257 42.2681 53.7053 43.25 54.8472 43.25Z" fill="url(#paint9_linear_3387_1421)"/>
</g>
<defs>
<filter id="filter0_dddi_3387_1421" x="125" y="-5" width="102" height="102" filterUnits="userSpaceOnUse" color-interpolation-filters="sRGB">
<feFlood flood-opacity="0" result="BackgroundImageFix"/>
<feColorMatrix in="SourceAlpha" type="matrix" values="0 0 0 0 0 0 0 0 0 0 0 0 0 0 0 0 0 0 127 0" result="hardAlpha"/>
<feMorphology radius="4" operator="erode" in="SourceAlpha" result="effect1_dropShadow_3387_1421"/>
<feOffset dy="10"/>
<feGaussianBlur stdDeviation="17"/>
<feComposite in2="hardAlpha" operator="out"/>
<feColorMatrix type="matrix" values="0 0 0 0 0 0 0 0 0 0 0 0 0 0 0 0 0 0 0.06 0"/>
<feBlend mode="normal" in2="BackgroundImageFix" result="effect1_dropShadow_3387_1421"/>
<feColorMatrix in="SourceAlpha" type="matrix" values="0 0 0 0 0 0 0 0 0 0 0 0 0 0 0 0 0 0 127 0" result="hardAlpha"/>
<feMorphology radius="2.66667" operator="erode" in="SourceAlpha" result="effect2_dropShadow_3387_1421"/>
<feOffset dy="2.29021"/>
<feGaussianBlur stdDeviation="3.89336"/>
<feComposite in2="hardAlpha" operator="out"/>
<feColorMatrix type="matrix" values="0 0 0 0 0 0 0 0 0 0 0 0 0 0 0 0 0 0 0.2 0"/>
<feBlend mode="normal" in2="effect1_dropShadow_3387_1421" result="effect2_dropShadow_3387_1421"/>
<feColorMatrix in="SourceAlpha" type="matrix" values="0 0 0 0 0 0 0 0 0 0 0 0 0 0 0 0 0 0 127 0" result="hardAlpha"/>
<feMorphology radius="1.33333" operator="erode" in="SourceAlpha" result="effect3_dropShadow_3387_1421"/>
<feOffset dy="0.60323"/>
<feGaussianBlur stdDeviation="1.02549"/>
<feComposite in2="hardAlpha" operator="out"/>
<feColorMatrix type="matrix" values="0 0 0 0 0 0 0 0 0 0 0 0 0 0 0 0 0 0 0.227 0"/>
<feBlend mode="normal" in2="effect2_dropShadow_3387_1421" result="effect3_dropShadow_3387_1421"/>
<feBlend mode="normal" in="SourceGraphic" in2="effect3_dropShadow_3387_1421" result="shape"/>
<feColorMatrix in="SourceAlpha" type="matrix" values="0 0 0 0 0 0 0 0 0 0 0 0 0 0 0 0 0 0 127 0" result="hardAlpha"/>
<feMorphology radius="0.5" operator="erode" in="SourceAlpha" result="effect4_innerShadow_3387_1421"/>
<feOffset/>
<feComposite in2="hardAlpha" operator="arithmetic" k2="-1" k3="1"/>
<feColorMatrix type="matrix" values="0 0 0 0 1 0 0 0 0 1 0 0 0 0 1 0 0 0 0.05 0"/>
<feBlend mode="normal" in2="shape" result="effect4_innerShadow_3387_1421"/>
</filter>
<filter id="filter1_dddi_3387_1421" x="9" y="-5" width="102" height="102" filterUnits="userSpaceOnUse" color-interpolation-filters="sRGB">
<feFlood flood-opacity="0" result="BackgroundImageFix"/>
<feColorMatrix in="SourceAlpha" type="matrix" values="0 0 0 0 0 0 0 0 0 0 0 0 0 0 0 0 0 0 127 0" result="hardAlpha"/>
<feMorphology radius="4" operator="erode" in="SourceAlpha" result="effect1_dropShadow_3387_1421"/>
<feOffset dy="10"/>
<feGaussianBlur stdDeviation="17"/>
<feComposite in2="hardAlpha" operator="out"/>
<feColorMatrix type="matrix" values="0 0 0 0 0 0 0 0 0 0 0 0 0 0 0 0 0 0 0.06 0"/>
<feBlend mode="normal" in2="BackgroundImageFix" result="effect1_dropShadow_3387_1421"/>
<feColorMatrix in="SourceAlpha" type="matrix" values="0 0 0 0 0 0 0 0 0 0 0 0 0 0 0 0 0 0 127 0" result="hardAlpha"/>
<feMorphology radius="2.66667" operator="erode" in="SourceAlpha" result="effect2_dropShadow_3387_1421"/>
<feOffset dy="2.29021"/>
<feGaussianBlur stdDeviation="3.89336"/>
<feComposite in2="hardAlpha" operator="out"/>
<feColorMatrix type="matrix" values="0 0 0 0 0 0 0 0 0 0 0 0 0 0 0 0 0 0 0.2 0"/>
<feBlend mode="normal" in2="effect1_dropShadow_3387_1421" result="effect2_dropShadow_3387_1421"/>
<feColorMatrix in="SourceAlpha" type="matrix" values="0 0 0 0 0 0 0 0 0 0 0 0 0 0 0 0 0 0 127 0" result="hardAlpha"/>
<feMorphology radius="1.33333" operator="erode" in="SourceAlpha" result="effect3_dropShadow_3387_1421"/>
<feOffset dy="0.60323"/>
<feGaussianBlur stdDeviation="1.02549"/>
<feComposite in2="hardAlpha" operator="out"/>
<feColorMatrix type="matrix" values="0 0 0 0 0 0 0 0 0 0 0 0 0 0 0 0 0 0 0.227 0"/>
<feBlend mode="normal" in2="effect2_dropShadow_3387_1421" result="effect3_dropShadow_3387_1421"/>
<feBlend mode="normal" in="SourceGraphic" in2="effect3_dropShadow_3387_1421" result="shape"/>
<feColorMatrix in="SourceAlpha" type="matrix" values="0 0 0 0 0 0 0 0 0 0 0 0 0 0 0 0 0 0 127 0" result="hardAlpha"/>
<feMorphology radius="0.5" operator="erode" in="SourceAlpha" result="effect4_innerShadow_3387_1421"/>
<feOffset/>
<feComposite in2="hardAlpha" operator="arithmetic" k2="-1" k3="1"/>
<feColorMatrix type="matrix" values="0 0 0 0 1 0 0 0 0 1 0 0 0 0 1 0 0 0 0.05 0"/>
<feBlend mode="normal" in2="shape" result="effect4_innerShadow_3387_1421"/>
</filter>
<linearGradient id="paint0_linear_3387_1421" x1="118" y1="12" x2="118" y2="58.5882" gradientUnits="userSpaceOnUse">
<stop stop-color="#FCFCFC"/>
<stop offset="1" stop-color="#858585"/>
</linearGradient>
<linearGradient id="paint1_linear_3387_1421" x1="192.401" y1="18.219" x2="157.299" y2="53.9343" gradientUnits="userSpaceOnUse">
<stop stop-color="#202020"/>
<stop offset="0.696"/>
</linearGradient>
<linearGradient id="paint2_linear_3387_1421" x1="176" y1="32.3333" x2="176" y2="39.3333" gradientUnits="userSpaceOnUse">
<stop stop-color="white"/>
<stop offset="1" stop-color="white" stop-opacity="0.5"/>
</linearGradient>
<linearGradient id="paint3_linear_3387_1421" x1="176" y1="39" x2="176" y2="46" gradientUnits="userSpaceOnUse">
<stop stop-color="white"/>
<stop offset="1" stop-color="white" stop-opacity="0.5"/>
</linearGradient>
<linearGradient id="paint4_linear_3387_1421" x1="176" y1="26" x2="176" y2="32.6667" gradientUnits="userSpaceOnUse">
<stop stop-color="white"/>
<stop offset="1" stop-color="white" stop-opacity="0.5"/>
</linearGradient>
<linearGradient id="paint5_linear_3387_1421" x1="193.781" y1="17.7591" x2="182.438" y2="32.1679" gradientUnits="userSpaceOnUse">
<stop stop-color="white" stop-opacity="0.22"/>
<stop offset="1" stop-color="white" stop-opacity="0"/>
</linearGradient>
<linearGradient id="paint6_linear_3387_1421" x1="76.4015" y1="18.219" x2="41.2993" y2="53.9343" gradientUnits="userSpaceOnUse">
<stop stop-color="#202020"/>
<stop offset="0.696"/>
</linearGradient>
<linearGradient id="paint7_linear_3387_1421" x1="77.781" y1="17.7591" x2="66.438" y2="32.1679" gradientUnits="userSpaceOnUse">
<stop stop-color="white" stop-opacity="0.22"/>
<stop offset="1" stop-color="white" stop-opacity="0"/>
</linearGradient>
<linearGradient id="paint8_linear_3387_1421" x1="60" y1="28.75" x2="60" y2="35.25" gradientUnits="userSpaceOnUse">
<stop stop-color="white"/>
<stop offset="1" stop-color="white" stop-opacity="0.5"/>
</linearGradient>
<linearGradient id="paint9_linear_3387_1421" x1="59.9997" y1="38" x2="59.9997" y2="43.25" gradientUnits="userSpaceOnUse">
<stop stop-color="white"/>
<stop offset="1" stop-color="white" stop-opacity="0.5"/>
</linearGradient>
<clipPath id="clip0_3387_1421">
<rect width="237" height="72" fill="white"/>
</clipPath>
<clipPath id="clip1_3387_1421">
<rect width="48" height="48" fill="white" transform="translate(94 12)"/>
</clipPath>
</defs>
</svg>
