<svg width="237" height="72" viewBox="0 0 237 72" fill="none" xmlns="http://www.w3.org/2000/svg"><rect x="47" y="15" width="42" height="42" rx="12" fill="url(#paint0_linear_1801_13580)"/><path fill-rule="evenodd" clip-rule="evenodd" d="M72.2193 31.5861C71.2089 30.62 69.9236 30.128 68.4921 30.128C65.9528 30.128 63.8035 31.843 63.0367 34.1473V34.1478C62.8417 34.7328 62.7309 35.3577 62.7309 36.0003C62.7309 36.6429 62.8417 37.2678 63.0367 37.8528L63.0366 37.8529C63.8034 40.1573 65.9528 41.8723 68.4921 41.8723C69.804 41.8723 70.9208 41.5266 71.7939 40.9416L71.794 40.9418C72.8266 40.2504 73.5135 39.2178 73.7395 37.9991H68.4922V34.2276H77.675C77.7902 34.8658 77.8523 35.5305 77.8523 36.2219C77.8523 39.1912 76.7886 41.6908 74.945 43.3882H74.9447C73.3316 44.8772 71.1246 45.7502 68.4921 45.7502C64.6808 45.7502 61.3835 43.5653 59.7791 40.3788V40.3788C59.1188 39.0626 58.7422 37.5735 58.7422 36.0003C58.7422 34.427 59.1189 32.9379 59.7792 31.6217H59.7793L59.7791 31.6216C61.3835 28.4351 64.6808 26.2502 68.4921 26.2502C71.1202 26.2502 73.3273 27.2163 75.0158 28.7896L72.2193 31.5861Z" fill="url(#paint1_linear_1801_13580)"/><mask id="path-3-inside-1_1801_13580" fill="white"><path d="M47 27C47 20.3726 52.3726 15 59 15H77C83.6274 15 89 20.3726 89 27V45C89 51.6274 83.6274 57 77 57H59C52.3726 57 47 51.6274 47 45V27Z"/></mask><path d="M46.2993 27C46.2993 19.9856 51.9856 14.2993 59 14.2993H77C84.0144 14.2993 89.7007 19.9856 89.7007 27L88.2993 27C88.2993 20.7596 83.2404 15.7007 77 15.7007H59C52.7596 15.7007 47.7007 20.7596 47.7007 27L46.2993 27ZM89.7007 45C89.7007 52.0144 84.0144 57.7007 77 57.7007H59C51.9856 57.7007 46.2993 52.0144 46.2993 45L47.7007 45C47.7007 51.2404 52.7596 56.2993 59 56.2993H77C83.2404 56.2993 88.2993 51.2404 88.2993 45L89.7007 45ZM59 57.7007C51.9856 57.7007 46.2993 52.0144 46.2993 45V27C46.2993 19.9856 51.9856 14.2993 59 14.2993L59 15.7007C52.7596 15.7007 47.7007 20.7596 47.7007 27V45C47.7007 51.2404 52.7596 56.2993 59 56.2993L59 57.7007ZM77 14.2993C84.0144 14.2993 89.7007 19.9856 89.7007 27V45C89.7007 52.0144 84.0144 57.7007 77 57.7007L77 56.2993C83.2404 56.2993 88.2993 51.2404 88.2993 45V27C88.2993 20.7596 83.2404 15.7007 77 15.7007L77 14.2993Z" fill="url(#paint2_linear_1801_13580)" mask="url(#path-3-inside-1_1801_13580)"/><rect x="97.5" y="15" width="42" height="42" rx="12" fill="url(#paint3_linear_1801_13580)"/><g clip-path="url(#clip0_1801_13580)"><path fill-rule="evenodd" clip-rule="evenodd" d="M119.065 26.2502C113.633 26.2502 109.242 30.6738 109.242 36.1464C109.242 40.5209 112.056 44.2239 115.959 45.5345C116.447 45.633 116.626 45.3215 116.626 45.0595C116.626 44.8301 116.61 44.0437 116.61 43.2244C113.877 43.8143 113.308 42.0447 113.308 42.0447C112.869 40.8977 112.218 40.603 112.218 40.603C111.324 39.9967 112.283 39.9967 112.283 39.9967C113.276 40.0623 113.796 41.0125 113.796 41.0125C114.674 42.5198 116.089 42.0939 116.658 41.8317C116.74 41.1927 117 40.7503 117.276 40.5046C115.097 40.2752 112.804 39.4233 112.804 35.622C112.804 34.5406 113.194 33.6559 113.812 32.9678C113.715 32.7221 113.373 31.7061 113.91 30.3462C113.91 30.3462 114.739 30.084 116.61 31.362C117.41 31.1454 118.236 31.0352 119.065 31.0343C119.895 31.0343 120.74 31.1491 121.521 31.362C123.392 30.084 124.221 30.3462 124.221 30.3462C124.758 31.7061 124.416 32.7221 124.318 32.9678C124.953 33.6559 125.327 34.5406 125.327 35.622C125.327 39.4233 123.034 40.2587 120.838 40.5046C121.196 40.8159 121.505 41.4056 121.505 42.3396C121.505 43.6667 121.489 44.7318 121.489 45.0593C121.489 45.3215 121.668 45.633 122.156 45.5347C126.059 44.2237 128.872 40.5209 128.872 36.1464C128.888 30.6738 124.481 26.2502 119.065 26.2502Z" fill="url(#paint4_linear_1801_13580)"/></g><mask id="path-7-inside-2_1801_13580" fill="white"><path d="M97.5 27C97.5 20.3726 102.873 15 109.5 15H127.5C134.127 15 139.5 20.3726 139.5 27V45C139.5 51.6274 134.127 57 127.5 57H109.5C102.873 57 97.5 51.6274 97.5 45V27Z"/></mask><path d="M96.7993 27C96.7993 19.9856 102.486 14.2993 109.5 14.2993H127.5C134.514 14.2993 140.201 19.9856 140.201 27L138.799 27C138.799 20.7596 133.74 15.7007 127.5 15.7007H109.5C103.26 15.7007 98.2007 20.7596 98.2007 27L96.7993 27ZM140.201 45C140.201 52.0144 134.514 57.7007 127.5 57.7007H109.5C102.486 57.7007 96.7993 52.0144 96.7993 45L98.2007 45C98.2007 51.2404 103.26 56.2993 109.5 56.2993H127.5C133.74 56.2993 138.799 51.2404 138.799 45L140.201 45ZM109.5 57.7007C102.486 57.7007 96.7993 52.0144 96.7993 45V27C96.7993 19.9856 102.486 14.2993 109.5 14.2993L109.5 15.7007C103.26 15.7007 98.2007 20.7596 98.2007 27V45C98.2007 51.2404 103.26 56.2993 109.5 56.2993L109.5 57.7007ZM127.5 14.2993C134.514 14.2993 140.201 19.9856 140.201 27V45C140.201 52.0144 134.514 57.7007 127.5 57.7007L127.5 56.2993C133.74 56.2993 138.799 51.2404 138.799 45V27C138.799 20.7596 133.74 15.7007 127.5 15.7007L127.5 14.2993Z" fill="url(#paint5_linear_1801_13580)" mask="url(#path-7-inside-2_1801_13580)"/><rect x="148" y="15" width="42" height="42" rx="12" fill="url(#paint6_linear_1801_13580)"/><path fill-rule="evenodd" clip-rule="evenodd" d="M170.37 26.3842L169.973 31.2743C169.785 31.2529 169.597 31.2421 169.404 31.2421C169.163 31.2421 168.927 31.2582 168.696 31.2958L168.471 28.9258C168.465 28.8507 168.524 28.7864 168.599 28.7864H169.002L168.809 26.3896C168.803 26.3145 168.862 26.2502 168.932 26.2502H170.247C170.322 26.2502 170.381 26.3145 170.37 26.3896V26.3842ZM167.054 26.6255C167.033 26.5558 166.957 26.5129 166.888 26.5397L165.654 26.9901C165.584 27.0169 165.552 27.0973 165.584 27.1617L166.587 29.3494L166.206 29.4888C166.137 29.5156 166.104 29.596 166.137 29.6604L167.161 31.8105C167.532 31.6067 167.934 31.4512 168.358 31.3547L167.059 26.6255H167.054ZM164.028 27.9874L166.866 31.9874C166.507 32.2234 166.179 32.5022 165.9 32.8239L164.2 31.151C164.146 31.0974 164.151 31.0116 164.205 30.9633L164.516 30.7059L162.826 28.9955C162.772 28.9419 162.778 28.8561 162.837 28.8078L163.84 27.966C163.899 27.9177 163.98 27.9284 164.023 27.9874H164.028ZM161.646 30.3038C161.587 30.2609 161.501 30.2823 161.463 30.3467L160.809 31.4834C160.771 31.5478 160.798 31.6282 160.862 31.6604L163.041 32.6899L162.837 33.0384C162.799 33.1027 162.826 33.1885 162.896 33.2153L165.063 34.2073C165.219 33.8051 165.428 33.4298 165.686 33.092L161.646 30.3038ZM160.041 33.3923C160.052 33.3172 160.127 33.2743 160.197 33.2904L164.945 34.529C164.822 34.9312 164.752 35.3547 164.742 35.7944L162.365 35.6014C162.289 35.596 162.236 35.5263 162.252 35.4513L162.322 35.0545L159.923 34.8293C159.848 34.8239 159.8 34.7542 159.811 34.6791L160.036 33.3869L160.041 33.3923ZM159.864 36.5987C159.789 36.6041 159.741 36.6738 159.751 36.7489L159.982 38.0411C159.993 38.1162 160.068 38.159 160.138 38.143L162.466 37.5371L162.536 37.9338C162.547 38.0089 162.622 38.0518 162.692 38.0357L164.988 37.403C164.854 37.0062 164.768 36.5826 164.747 36.1483L159.859 36.5987H159.864ZM160.626 39.9982C160.589 39.9339 160.615 39.8534 160.68 39.8213L165.112 37.7194C165.278 38.1162 165.503 38.4861 165.772 38.8186L163.829 40.202C163.77 40.2448 163.684 40.2288 163.647 40.1644L163.443 39.8105L161.463 41.1778C161.404 41.2207 161.318 41.1993 161.281 41.1349L160.621 39.9982H160.626ZM165.997 39.0759L162.547 42.5666C162.493 42.6202 162.499 42.706 162.558 42.7542L163.566 43.5961C163.625 43.6443 163.706 43.6336 163.749 43.5746L165.144 41.6121L165.455 41.8749C165.514 41.9231 165.6 41.9124 165.643 41.8481L166.995 39.8856C166.63 39.6604 166.292 39.3869 166.002 39.0759H165.997ZM165.316 44.6792C165.246 44.6524 165.214 44.5719 165.246 44.5076L167.29 40.0465C167.666 40.2395 168.074 40.3843 168.497 40.4647L167.896 42.7703C167.88 42.84 167.8 42.8829 167.73 42.8561L167.349 42.7167L166.711 45.0384C166.689 45.1081 166.614 45.151 166.544 45.1242L165.31 44.6738L165.316 44.6792ZM168.835 40.5237L168.438 45.4138C168.433 45.4888 168.492 45.5532 168.562 45.5532H169.876C169.952 45.5532 170.011 45.4888 170 45.4138L169.807 43.017H170.209C170.284 43.017 170.343 42.9526 170.338 42.8776L170.112 40.5076C169.882 40.5451 169.646 40.5612 169.404 40.5612C169.211 40.5612 169.023 40.5505 168.835 40.5237ZM173.568 27.285C173.6 27.2153 173.568 27.1402 173.498 27.1134L172.264 26.663C172.194 26.6362 172.119 26.6791 172.098 26.7488L171.459 29.0705L171.078 28.9311C171.009 28.9043 170.933 28.9472 170.912 29.0169L170.311 31.3226C170.74 31.4084 171.143 31.5531 171.518 31.7408L173.568 27.285ZM176.261 29.2314L172.811 32.722C172.522 32.411 172.189 32.1376 171.819 31.9124L173.171 29.9499C173.214 29.8909 173.3 29.8748 173.359 29.9231L173.67 30.1858L175.065 28.2234C175.108 28.1644 175.194 28.1536 175.247 28.2019L176.256 29.0437C176.315 29.092 176.315 29.1778 176.267 29.2314H176.261ZM178.129 31.9767C178.198 31.9445 178.22 31.8641 178.182 31.7998L177.522 30.663C177.485 30.5987 177.399 30.5826 177.34 30.6201L175.36 31.9874L175.156 31.6389C175.119 31.5746 175.033 31.5531 174.974 31.6014L173.031 32.9848C173.3 33.3172 173.52 33.6872 173.691 34.084L178.123 31.9821L178.129 31.9767ZM178.826 33.7569L179.052 35.0491C179.062 35.1242 179.014 35.1885 178.939 35.1993L174.051 35.655C174.029 35.2153 173.944 34.7971 173.809 34.4003L176.106 33.7676C176.176 33.7462 176.251 33.7944 176.261 33.8695L176.331 34.2663L178.66 33.6604C178.73 33.6443 178.805 33.6872 178.815 33.7622L178.826 33.7569ZM178.606 38.5022C178.676 38.5183 178.751 38.4754 178.762 38.4003L178.987 37.1081C178.998 37.033 178.95 36.9687 178.875 36.958L176.476 36.7328L176.546 36.336C176.557 36.2609 176.508 36.1966 176.433 36.1859L174.056 35.9928C174.045 36.4325 173.976 36.8561 173.852 37.2582L178.601 38.4969L178.606 38.5022ZM177.34 41.4513C177.302 41.5156 177.217 41.5317 177.158 41.4942L173.117 38.706C173.375 38.3682 173.584 37.9928 173.74 37.5907L175.907 38.5826C175.977 38.6148 176.004 38.6952 175.966 38.7596L175.762 39.1081L177.941 40.1376C178.005 40.1698 178.032 40.2502 177.995 40.3146L177.34 41.4513ZM171.937 39.8052L174.775 43.8052C174.818 43.8642 174.904 43.8749 174.958 43.8266L175.961 42.9848C176.02 42.9365 176.02 42.8508 175.972 42.7971L174.282 41.0867L174.593 40.8293C174.652 40.781 174.652 40.6953 174.598 40.6416L172.897 38.9687C172.613 39.2904 172.291 39.5746 171.931 39.8052H171.937ZM171.91 45.2529C171.84 45.2797 171.765 45.2368 171.744 45.1671L170.445 40.4379C170.869 40.3414 171.271 40.1859 171.642 39.9821L172.666 42.1323C172.699 42.202 172.666 42.2824 172.597 42.3038L172.216 42.4432L173.219 44.6309C173.251 44.7006 173.219 44.7757 173.149 44.8025L171.915 45.2529H171.91Z" fill="url(#paint7_linear_1801_13580)"/><mask id="path-11-inside-3_1801_13580" fill="white"><path d="M148 27C148 20.3726 153.373 15 160 15H178C184.627 15 190 20.3726 190 27V45C190 51.6274 184.627 57 178 57H160C153.373 57 148 51.6274 148 45V27Z"/></mask><path d="M147.299 27C147.299 19.9856 152.986 14.2993 160 14.2993H178C185.014 14.2993 190.701 19.9856 190.701 27L189.299 27C189.299 20.7596 184.24 15.7007 178 15.7007H160C153.76 15.7007 148.701 20.7596 148.701 27L147.299 27ZM190.701 45C190.701 52.0144 185.014 57.7007 178 57.7007H160C152.986 57.7007 147.299 52.0144 147.299 45L148.701 45C148.701 51.2404 153.76 56.2993 160 56.2993H178C184.24 56.2993 189.299 51.2404 189.299 45L190.701 45ZM160 57.7007C152.986 57.7007 147.299 52.0144 147.299 45V27C147.299 19.9856 152.986 14.2993 160 14.2993L160 15.7007C153.76 15.7007 148.701 20.7596 148.701 27V45C148.701 51.2404 153.76 56.2993 160 56.2993L160 57.7007ZM178 14.2993C185.014 14.2993 190.701 19.9856 190.701 27V45C190.701 52.0144 185.014 57.7007 178 57.7007L178 56.2993C184.24 56.2993 189.299 51.2404 189.299 45V27C189.299 20.7596 184.24 15.7007 178 15.7007L178 14.2993Z" fill="url(#paint8_linear_1801_13580)" mask="url(#path-11-inside-3_1801_13580)"/><defs><linearGradient id="paint0_linear_1801_13580" x1="84.4015" y1="18.219" x2="49.2993" y2="53.9343" gradientUnits="userSpaceOnUse"><stop stop-color="#202020"/><stop offset="0.696"/></linearGradient><linearGradient id="paint1_linear_1801_13580" x1="68.2973" y1="26.2502" x2="68.2973" y2="45.7502" gradientUnits="userSpaceOnUse"><stop stop-color="white"/><stop offset="1" stop-color="white" stop-opacity="0.5"/></linearGradient><linearGradient id="paint2_linear_1801_13580" x1="85.781" y1="17.7591" x2="74.438" y2="32.1679" gradientUnits="userSpaceOnUse"><stop stop-color="white" stop-opacity="0.22"/><stop offset="1" stop-color="white" stop-opacity="0"/></linearGradient><linearGradient id="paint3_linear_1801_13580" x1="134.901" y1="18.219" x2="99.7993" y2="53.9343" gradientUnits="userSpaceOnUse"><stop stop-color="#202020"/><stop offset="0.696"/></linearGradient><linearGradient id="paint4_linear_1801_13580" x1="119.057" y1="26.2502" x2="119.057" y2="45.5533" gradientUnits="userSpaceOnUse"><stop stop-color="white"/><stop offset="1" stop-color="white" stop-opacity="0.5"/></linearGradient><linearGradient id="paint5_linear_1801_13580" x1="136.281" y1="17.7591" x2="124.938" y2="32.1679" gradientUnits="userSpaceOnUse"><stop stop-color="white" stop-opacity="0.22"/><stop offset="1" stop-color="white" stop-opacity="0"/></linearGradient><linearGradient id="paint6_linear_1801_13580" x1="185.401" y1="18.219" x2="150.299" y2="53.9343" gradientUnits="userSpaceOnUse"><stop stop-color="#202020"/><stop offset="0.696"/></linearGradient><linearGradient id="paint7_linear_1801_13580" x1="169.402" y1="26.2502" x2="169.402" y2="45.5532" gradientUnits="userSpaceOnUse"><stop stop-color="white"/><stop offset="1" stop-color="white" stop-opacity="0.5"/></linearGradient><linearGradient id="paint8_linear_1801_13580" x1="186.781" y1="17.7591" x2="175.438" y2="32.1679" gradientUnits="userSpaceOnUse"><stop stop-color="white" stop-opacity="0.22"/><stop offset="1" stop-color="white" stop-opacity="0"/></linearGradient><clipPath id="clip0_1801_13580"><rect width="19.7052" height="19.303" fill="white" transform="translate(109.242 26.2502)"/></clipPath></defs></svg>