<svg xmlns="http://www.w3.org/2000/svg" width="20" height="20" viewBox="0 0 20 20" fill="none">
  <g clip-path="url(#clip0_1523_1277)">
    <path fill-rule="evenodd" clip-rule="evenodd"
      d="M10.1182 0.348389C4.68617 0.348389 0.294922 4.772 0.294922 10.2446C0.294922 14.6192 3.10854 18.3221 7.01178 19.6327C7.49979 19.7312 7.67854 19.4198 7.67854 19.1578C7.67854 18.9284 7.66246 18.142 7.66246 17.3226C4.92987 17.9125 4.36083 16.1429 4.36083 16.1429C3.92168 14.996 3.27101 14.7012 3.27101 14.7012C2.37664 14.095 3.33616 14.095 3.33616 14.095C4.32826 14.1605 4.84883 15.1108 4.84883 15.1108C5.72692 16.618 7.14188 16.1922 7.71112 15.93C7.79235 15.2909 8.05274 14.8486 8.32922 14.6029C6.14978 14.3734 3.85674 13.5215 3.85674 9.72021C3.85674 8.63884 4.24682 7.75412 4.86492 7.06604C4.7674 6.82033 4.42578 5.80431 4.96264 4.44445C4.96264 4.44445 5.79207 4.18225 7.66225 5.46027C8.46295 5.24365 9.28869 5.13345 10.1182 5.13252C10.9476 5.13252 11.7931 5.24734 12.5739 5.46027C14.4443 4.18225 15.2737 4.44445 15.2737 4.44445C15.8106 5.80431 15.4687 6.82033 15.3712 7.06604C16.0056 7.75412 16.3796 8.63884 16.3796 9.72021C16.3796 13.5215 14.0866 14.357 11.8908 14.6029C12.2487 14.9141 12.5576 15.5039 12.5576 16.4379C12.5576 17.7649 12.5415 18.83 12.5415 19.1576C12.5415 19.4198 12.7205 19.7312 13.2083 19.6329C17.1115 18.3219 19.9251 14.6192 19.9251 10.2446C19.9412 4.772 15.5339 0.348389 10.1182 0.348389Z"
      fill="white" />
  </g>
  <defs>
    <clipPath id="clip0_1523_1277">
      <rect width="19.7052" height="19.303" fill="white" transform="translate(0.294922 0.348389)" />
    </clipPath>
  </defs>
</svg>