<svg xmlns="http://www.w3.org/2000/svg" width="122" height="34" viewBox="0 0 122 34" fill="none"><path d="M23.4977 14.5521H13.2458C12.9813 14.5521 12.7669 14.7734 12.7669 15.046V20.2113C12.7669 20.4839 12.9813 20.7059 13.2458 20.7059H17.245V27.1232C17.245 27.1232 16.3471 27.4388 13.8643 27.4388C10.9354 27.4388 6.84375 26.3358 6.84375 17.0639C6.84375 7.78949 11.1045 6.56955 15.1043 6.56955C18.2191 6.56955 19.7388 7.07764 20.7038 7.40026L20.7041 7.40038C20.8118 7.43638 20.9125 7.47006 21.0078 7.50047C21.3062 7.59472 21.5819 7.2886 21.5819 7.01564L22.7254 2.02521C22.7254 1.89711 22.6834 1.74387 22.5425 1.63951C22.1571 1.35607 19.8054 0 13.8643 0C7.02056 0 0 3.00047 0 17.4255C0 31.8505 8.03772 34 14.811 34C20.4191 34 23.8212 31.5304 23.8212 31.5304C23.9614 31.4505 23.9767 31.2484 23.9767 31.1562V15.046C23.9767 14.7734 23.7623 14.5521 23.4977 14.5521Z" fill="url(#paint0_linear_1848_5613)"/><path d="M76.3321 1.72855C76.3321 1.45349 76.1207 1.23184 75.8559 1.23184H70.0835C69.82 1.23184 69.6056 1.45349 69.6056 1.72855L69.6072 13.2243H60.6093V1.72855C60.6093 1.45349 60.3972 1.23184 60.133 1.23184H54.361C54.0985 1.23184 53.8841 1.45349 53.8841 1.72855V32.8561C53.8841 33.1308 54.0985 33.3539 54.361 33.3539H60.133C60.3972 33.3539 60.6093 33.1308 60.6093 32.8561V19.5415H69.6072L69.5913 32.8561C69.5913 33.1308 69.8054 33.3539 70.0696 33.3539H75.8555C76.1201 33.3539 76.3314 33.1308 76.3321 32.8561V1.72855Z" fill="url(#paint1_linear_1848_5613)"/><path d="M30.6683 1.94004C32.7243 1.94004 34.3904 3.671 34.3904 5.81279C34.3904 7.95284 32.7243 9.68869 30.6683 9.68869C28.6143 9.68869 26.9465 7.95284 26.9465 5.81279C26.9465 3.671 28.6143 1.94004 30.6683 1.94004Z" fill="url(#paint2_linear_1848_5613)"/><path d="M33.9779 11.9213C33.9779 11.6483 33.7642 11.4252 33.5003 11.4252H27.7459C27.482 11.4252 27.2459 11.7059 27.2459 11.9785V32.5647C27.2459 33.1695 27.6117 33.3496 28.0849 33.3496H33.2693C33.8384 33.3496 33.9779 33.0616 33.9779 32.5549V11.9213Z" fill="url(#paint3_linear_1848_5613)"/><path d="M92.5417 11.472H98.2697C98.5339 11.472 98.7476 11.6954 98.7476 11.9701L98.7497 32.8652C98.7497 33.1388 98.5346 33.3622 98.2724 33.3622L94.574 33.3793C94.389 33.3793 94.218 33.2435 94.1526 33.1095C94.0869 32.9755 93.9419 31.8414 93.9419 31.8414C93.9419 31.8414 90.8955 33.9929 87.1168 33.9929C82.5113 33.9929 79.1634 32.4785 79.1634 26.2876V11.9701C79.1634 11.6954 79.3785 11.472 79.6407 11.472H85.4544C85.7176 11.472 85.931 11.6954 85.931 11.9701V25.2802C85.931 27.3641 86.479 28.3299 88.5442 28.3299C90.6096 28.3299 92.0651 27.2325 92.0651 27.2325V11.9701C92.0651 11.6954 92.2792 11.472 92.5417 11.472Z" fill="url(#paint4_linear_1848_5613)"/><path fill-rule="evenodd" clip-rule="evenodd" d="M113.926 10.7728C110.672 10.7728 108.46 12.2685 108.46 12.2685V1.72851C108.46 1.45345 108.246 1.2318 107.983 1.2318H102.194C101.931 1.2318 101.717 1.45345 101.717 1.72851V32.856C101.717 33.1308 101.931 33.3539 102.195 33.3539H106.211C106.392 33.3539 106.529 33.2579 106.63 33.09C106.73 32.9224 106.874 31.6543 106.874 31.6543C106.874 31.6543 109.241 33.9661 113.722 33.9661C118.983 33.9661 122 31.2162 122 21.6214C122 12.0266 117.181 10.7728 113.926 10.7728ZM111.666 28.3111C109.68 28.2489 108.332 27.3194 108.332 27.3194V17.4621C108.332 17.4621 109.661 16.6223 111.293 16.4722C113.355 16.2816 115.343 16.9239 115.343 21.9949C115.343 27.3421 114.446 28.3973 111.666 28.3111Z" fill="url(#paint5_linear_1848_5613)"/><path d="M46.2381 11.4224H50.5682C50.8321 11.4224 51.0458 11.6437 51.0458 11.9184V16.7134C51.0458 16.9888 50.8321 17.2108 50.5682 17.2108H46.2378C46.2378 17.2108 46.2381 24.6442 46.2381 25.9626C46.2381 27.2817 46.9586 28.3009 49.0857 28.3009C49.4968 28.3009 49.9005 28.2603 50.2084 28.2293C50.3983 28.2102 50.5518 28.1948 50.6482 28.1948C50.9015 28.1948 51.1268 28.4175 51.1268 28.6919L51.1217 32.9028C51.1217 33.1014 51.0221 33.2844 50.8507 33.3496C50.5672 33.4572 48.8499 33.9326 47.4141 33.9326C44.2725 33.9326 39.6166 33.2606 39.6166 26.4202V17.2108H36.5911C36.3273 17.2108 36.1139 16.9888 36.1139 16.7134V12.8853C36.1139 12.6595 36.2606 12.4703 36.4594 12.4106C36.6596 12.3516 39.6166 11.6158 39.6166 11.6158V5.5241C39.6166 5.29686 39.7395 5.19285 39.9692 5.19285H45.8696C46.1199 5.19285 46.2317 5.30419 46.2317 5.52759L46.2381 11.4224Z" fill="url(#paint6_linear_1848_5613)"/><defs><linearGradient id="paint0_linear_1848_5613" x1="61" y1="0" x2="61" y2="34" gradientUnits="userSpaceOnUse"><stop stop-color="white"/><stop offset="1" stop-color="white" stop-opacity="0.5"/></linearGradient><linearGradient id="paint1_linear_1848_5613" x1="61" y1="0" x2="61" y2="34" gradientUnits="userSpaceOnUse"><stop stop-color="white"/><stop offset="1" stop-color="white" stop-opacity="0.5"/></linearGradient><linearGradient id="paint2_linear_1848_5613" x1="61" y1="0" x2="61" y2="34" gradientUnits="userSpaceOnUse"><stop stop-color="white"/><stop offset="1" stop-color="white" stop-opacity="0.5"/></linearGradient><linearGradient id="paint3_linear_1848_5613" x1="61" y1="0" x2="61" y2="34" gradientUnits="userSpaceOnUse"><stop stop-color="white"/><stop offset="1" stop-color="white" stop-opacity="0.5"/></linearGradient><linearGradient id="paint4_linear_1848_5613" x1="61" y1="0" x2="61" y2="34" gradientUnits="userSpaceOnUse"><stop stop-color="white"/><stop offset="1" stop-color="white" stop-opacity="0.5"/></linearGradient><linearGradient id="paint5_linear_1848_5613" x1="61" y1="0" x2="61" y2="34" gradientUnits="userSpaceOnUse"><stop stop-color="white"/><stop offset="1" stop-color="white" stop-opacity="0.5"/></linearGradient><linearGradient id="paint6_linear_1848_5613" x1="61" y1="0" x2="61" y2="34" gradientUnits="userSpaceOnUse"><stop stop-color="white"/><stop offset="1" stop-color="white" stop-opacity="0.5"/></linearGradient></defs></svg>