<svg xmlns="http://www.w3.org/2000/svg" width="82" height="73" viewBox="0 0 82 73" fill="none">
  <path fill-rule="evenodd" clip-rule="evenodd"
    d="M18.2224 0H9.11124V9.11111H18.2224V0ZM27.3336 0H18.2225V9.11111H27.3331V18.2222H36.4442V9.11109H27.3336V0ZM54.6669 0H63.7775H63.778H72.8886V9.11111H63.778H63.7775H54.6669V0ZM0 9.11109H9.11111V18.2222V18.2222V27.3333H0V18.2222V18.2222V9.11109ZM45.5556 9.11109H54.6667V18.2222H45.5556V9.11109ZM81.9999 9.11109H72.8888V18.2222V27.3333H81.9999V18.2222V9.11109ZM45.5555 18.2222H36.4444V27.3333H45.5555V18.2222ZM9.11111 27.3334H0V36.4445H9.11111V27.3334ZM72.8888 27.3334H81.9999V36.4445H72.8888V27.3334ZM18.2224 36.4445H9.11124V45.5556H18.2224V36.4445ZM63.7775 36.4445H72.8886V45.5556L63.778 45.5555V54.6667H54.6669V45.5555L63.7775 45.5556V36.4445ZM27.3336 45.5555H18.2225V54.6667L27.3331 54.6666V63.7778H36.4442V54.6666L27.3336 54.6667V45.5555ZM45.5556 54.6666H54.6667V63.7778H45.5556V54.6666ZM45.5555 63.7778H36.4444V72.8889H45.5555V63.7778Z"
    fill="#FEC26A" />
</svg>