<svg xmlns="http://www.w3.org/2000/svg" width="137" height="36" viewBox="0 0 137 36" fill="none">
  <path
    d="M41.2627 22.6406V12.9578H43.8249V16.5628H46.7149V12.9578H49.2771V22.6406H46.7149V18.7973H43.8249V22.6406H41.2627ZM53.4725 22.8193C52.6581 22.8193 52.0672 22.5462 51.6997 22C51.3323 21.4439 51.1486 20.704 51.1486 19.7804V15.1924H53.7108V19.4527C53.7108 19.9295 53.7705 20.2471 53.8896 20.406C54.0187 20.5649 54.2074 20.6444 54.4557 20.6444C54.6939 20.6444 54.8926 20.5948 55.0515 20.4955C55.2105 20.3962 55.3694 20.2273 55.5283 19.9889V15.1924H58.0904V22.6406H56.0048L55.8261 21.6575H55.7665C55.4686 22.0149 55.1359 22.298 54.7685 22.5066C54.411 22.7151 53.979 22.8193 53.4725 22.8193ZM62.5314 25.7093C61.9654 25.7093 61.4439 25.6447 60.9672 25.5157C60.4906 25.3964 60.1083 25.2028 59.8203 24.9346C59.5421 24.6666 59.4032 24.309 59.4032 23.862C59.4032 23.2762 59.7507 22.7995 60.4459 22.432V22.3724C60.2555 22.2316 60.0894 22.0605 59.9543 21.866C59.8252 21.6575 59.7607 21.3991 59.7607 21.0913C59.7607 20.8331 59.8352 20.5799 59.9841 20.3317C60.143 20.0833 60.3466 19.8698 60.5948 19.6911V19.6315C60.3267 19.4527 60.0884 19.1995 59.8799 18.8717C59.6812 18.534 59.5819 18.1517 59.5819 17.7247C59.5819 17.1089 59.7308 16.6026 60.0288 16.2053C60.3367 15.798 60.7339 15.5002 61.2205 15.3115C61.7072 15.1129 62.2236 15.0135 62.7698 15.0135C63.2067 15.0135 63.6039 15.0731 63.9614 15.1924H66.7323V17.0395H65.6597C65.6894 17.1289 65.7143 17.2431 65.7341 17.382C65.7639 17.5211 65.7788 17.6651 65.7788 17.814C65.7788 18.4 65.6448 18.8767 65.3767 19.2442C65.1085 19.6017 64.7461 19.8649 64.2892 20.0337C63.8323 20.2026 63.3259 20.2869 62.7698 20.2869C62.5215 20.2869 62.2434 20.2522 61.9356 20.1826C61.8163 20.2919 61.7568 20.4359 61.7568 20.6146C61.7568 20.7735 61.8363 20.8877 61.9952 20.9573C62.1639 21.0268 62.4321 21.0615 62.7996 21.0615H63.9168C64.8503 21.0615 65.5703 21.2155 66.0768 21.5233C66.5932 21.8213 66.8514 22.3128 66.8514 22.998C66.8514 23.5344 66.6727 24.006 66.3152 24.4133C65.9676 24.8204 65.471 25.1382 64.8254 25.3666C64.1799 25.5951 63.4152 25.7093 62.5314 25.7093ZM62.7698 18.7675C63.0081 18.7675 63.2017 18.6831 63.3507 18.5142C63.4997 18.3455 63.5741 18.0822 63.5741 17.7247C63.5741 17.3771 63.4997 17.1239 63.3507 16.9649C63.2017 16.7962 63.0081 16.7118 62.7698 16.7118C62.5314 16.7118 62.3377 16.7962 62.1888 16.9649C62.0398 17.1239 61.9654 17.3771 61.9654 17.7247C61.9654 18.0822 62.0398 18.3455 62.1888 18.5142C62.3377 18.6831 62.5314 18.7675 62.7698 18.7675ZM62.9485 24.1302C63.3656 24.1302 63.7132 24.0657 63.9912 23.9366C64.2694 23.8173 64.4083 23.6535 64.4083 23.445C64.4083 23.2464 64.319 23.1222 64.1403 23.0726C63.9714 23.0229 63.7281 22.998 63.4103 22.998H62.8294C62.5314 22.998 62.303 22.9882 62.1441 22.9682C61.9952 22.9584 61.8661 22.9386 61.7568 22.9087C61.5781 23.0875 61.4887 23.2662 61.4887 23.445C61.4887 23.6833 61.6227 23.8571 61.8908 23.9664C62.169 24.0757 62.5215 24.1302 62.9485 24.1302ZM70.6635 25.7093C70.0973 25.7093 69.576 25.6447 69.0993 25.5157C68.6226 25.3964 68.2402 25.2028 67.9522 24.9346C67.6742 24.6666 67.5351 24.309 67.5351 23.862C67.5351 23.2762 67.8827 22.7995 68.5778 22.432V22.3724C68.3874 22.2316 68.2214 22.0605 68.0864 21.866C67.9571 21.6575 67.8926 21.3991 67.8926 21.0913C67.8926 20.8331 67.9671 20.5799 68.116 20.3317C68.2749 20.0833 68.4786 19.8698 68.7269 19.6911V19.6315C68.4587 19.4527 68.2204 19.1995 68.0118 18.8717C67.8131 18.534 67.7138 18.1517 67.7138 17.7247C67.7138 17.1089 67.8629 16.6026 68.1608 16.2053C68.4686 15.798 68.8658 15.5002 69.3525 15.3115C69.8391 15.1129 70.3555 15.0135 70.9017 15.0135C71.3387 15.0135 71.736 15.0731 72.0935 15.1924H74.8642V17.0395H73.7917C73.8215 17.1289 73.8462 17.2431 73.8662 17.382C73.8959 17.5211 73.9108 17.6651 73.9108 17.814C73.9108 18.4 73.7767 18.8767 73.5086 19.2442C73.2405 19.6017 72.878 19.8649 72.4211 20.0337C71.9644 20.2026 71.4578 20.2869 70.9017 20.2869C70.6535 20.2869 70.3755 20.2522 70.0675 20.1826C69.9484 20.2919 69.8888 20.4359 69.8888 20.6146C69.8888 20.7735 69.9682 20.8877 70.1271 20.9573C70.296 21.0268 70.564 21.0615 70.9315 21.0615H72.0487C72.9822 21.0615 73.7022 21.2155 74.2087 21.5233C74.7251 21.8213 74.9833 22.3128 74.9833 22.998C74.9833 23.5344 74.8046 24.006 74.4471 24.4133C74.0995 24.8204 73.6029 25.1382 72.9575 25.3666C72.312 25.5951 71.5473 25.7093 70.6635 25.7093ZM70.9017 18.7675C71.14 18.7675 71.3337 18.6831 71.4827 18.5142C71.6317 18.3455 71.7062 18.0822 71.7062 17.7247C71.7062 17.3771 71.6317 17.1239 71.4827 16.9649C71.3337 16.7962 71.14 16.7118 70.9017 16.7118C70.6635 16.7118 70.4697 16.7962 70.3207 16.9649C70.1718 17.1239 70.0973 17.3771 70.0973 17.7247C70.0973 18.0822 70.1718 18.3455 70.3207 18.5142C70.4697 18.6831 70.6635 18.7675 70.9017 18.7675ZM71.0805 24.1302C71.4976 24.1302 71.8451 24.0657 72.1233 23.9366C72.4013 23.8173 72.5404 23.6535 72.5404 23.445C72.5404 23.2464 72.4509 23.1222 72.2722 23.0726C72.1035 23.0229 71.86 22.998 71.5422 22.998H70.9613C70.6635 22.998 70.4349 22.9882 70.276 22.9682C70.1271 22.9584 69.998 22.9386 69.8888 22.9087C69.71 23.0875 69.6206 23.2662 69.6206 23.445C69.6206 23.6833 69.7547 23.8571 70.0229 23.9664C70.3009 24.0757 70.6535 24.1302 71.0805 24.1302ZM76.0843 22.6406V15.1924H78.6465V22.6406H76.0843ZM77.3654 14.2687C76.9483 14.2687 76.6105 14.1546 76.3523 13.9262C76.0941 13.6878 75.965 13.3749 75.965 12.9876C75.965 12.6004 76.0941 12.2924 76.3523 12.064C76.6105 11.8257 76.9483 11.7065 77.3654 11.7065C77.7825 11.7065 78.1201 11.8257 78.3783 12.064C78.6365 12.2924 78.7656 12.6004 78.7656 12.9876C78.7656 13.3749 78.6365 13.6878 78.3783 13.9262C78.1201 14.1546 77.7825 14.2687 77.3654 14.2687ZM80.3757 22.6406V15.1924H82.4612L82.6399 16.086H82.6996C82.9974 15.798 83.3352 15.5498 83.7125 15.3413C84.0998 15.1228 84.5467 15.0135 85.0532 15.0135C85.8774 15.0135 86.4683 15.2917 86.8259 15.8478C87.1934 16.394 87.377 17.1289 87.377 18.0524V22.6406H84.8148V18.3802C84.8148 17.9035 84.7552 17.5857 84.6361 17.4268C84.5168 17.2679 84.3283 17.1884 84.0699 17.1884C83.8317 17.1884 83.633 17.238 83.4741 17.3375C83.3152 17.4367 83.1365 17.5758 82.9379 17.7546V22.6406H80.3757ZM91.7571 25.7093C91.1911 25.7093 90.6696 25.6447 90.1929 25.5157C89.7163 25.3964 89.334 25.2028 89.046 24.9346C88.7678 24.6666 88.6289 24.309 88.6289 23.862C88.6289 23.2762 88.9763 22.7995 89.6716 22.432V22.3724C89.4812 22.2316 89.3151 22.0605 89.18 21.866C89.0509 21.6575 88.9863 21.3991 88.9863 21.0913C88.9863 20.8331 89.0609 20.5799 89.2098 20.3317C89.3687 20.0833 89.5723 19.8698 89.8205 19.6911V19.6315C89.5523 19.4527 89.314 19.1995 89.1054 18.8717C88.9069 18.534 88.8076 18.1517 88.8076 17.7247C88.8076 17.1089 88.9565 16.6026 89.2545 16.2053C89.5623 15.798 89.9596 15.5002 90.4462 15.3115C90.9329 15.1129 91.4492 15.0135 91.9954 15.0135C92.4324 15.0135 92.8296 15.0731 93.1871 15.1924H95.9578V17.0395H94.8853C94.9151 17.1289 94.94 17.2431 94.9598 17.382C94.9896 17.5211 95.0045 17.6651 95.0045 17.814C95.0045 18.4 94.8705 18.8767 94.6023 19.2442C94.3342 19.6017 93.9716 19.8649 93.5149 20.0337C93.058 20.2026 92.5516 20.2869 91.9954 20.2869C91.7471 20.2869 91.4691 20.2522 91.1612 20.1826C91.042 20.2919 90.9825 20.4359 90.9825 20.6146C90.9825 20.7735 91.062 20.8877 91.2209 20.9573C91.3896 21.0268 91.6578 21.0615 92.0252 21.0615H93.1425C94.076 21.0615 94.796 21.2155 95.3025 21.5233C95.8189 21.8213 96.0771 22.3128 96.0771 22.998C96.0771 23.5344 95.8983 24.006 95.5407 24.4133C95.1932 24.8204 94.6967 25.1382 94.0511 25.3666C93.4056 25.5951 92.6409 25.7093 91.7571 25.7093ZM91.9954 18.7675C92.2338 18.7675 92.4274 18.6831 92.5763 18.5142C92.7254 18.3455 92.7998 18.0822 92.7998 17.7247C92.7998 17.3771 92.7254 17.1239 92.5763 16.9649C92.4274 16.7962 92.2338 16.7118 91.9954 16.7118C91.7571 16.7118 91.5634 16.7962 91.4145 16.9649C91.2654 17.1239 91.191 17.3771 91.191 17.7247C91.191 18.0822 91.2654 18.3455 91.4145 18.5142C91.5634 18.6831 91.7571 18.7675 91.9954 18.7675ZM92.1742 24.1302C92.5913 24.1302 92.9389 24.0657 93.2169 23.9366C93.495 23.8173 93.634 23.6535 93.634 23.445C93.634 23.2464 93.5447 23.1222 93.366 23.0726C93.1971 23.0229 92.9538 22.998 92.636 22.998H92.0551C91.7571 22.998 91.5287 22.9882 91.3698 22.9682C91.2209 22.9584 91.0916 22.9386 90.9825 22.9087C90.8036 23.0875 90.7143 23.2662 90.7143 23.445C90.7143 23.6833 90.8484 23.8571 91.1165 23.9664C91.3945 24.0757 91.7471 24.1302 92.1742 24.1302ZM100.369 22.6406V12.9578H106.685V15.1029H102.931V16.95H106.148V19.0951H102.931V22.6406H100.369ZM109.487 22.8193C109.02 22.8193 108.618 22.7151 108.28 22.5066C107.958 22.2939 107.696 22.0014 107.52 21.6575C107.342 21.3098 107.252 20.9324 107.252 20.5253C107.252 19.7506 107.57 19.1449 108.206 18.7079C108.841 18.2609 109.874 17.9631 111.304 17.814C111.244 17.2977 110.897 17.0395 110.261 17.0395C109.993 17.0395 109.71 17.094 109.412 17.2033C109.114 17.3026 108.772 17.4566 108.384 17.6651L107.491 15.9967C108.017 15.6789 108.548 15.4357 109.084 15.2668C109.63 15.0982 110.197 15.0128 110.768 15.0135C111.741 15.0135 112.501 15.2917 113.047 15.8478C113.593 16.394 113.866 17.2778 113.866 18.4993V22.6406H111.781L111.602 21.9255H111.542C111.244 22.1937 110.927 22.4122 110.589 22.5809C110.261 22.7399 109.894 22.8193 109.487 22.8193ZM110.38 20.8529C110.589 20.8529 110.763 20.8082 110.902 20.7189C111.041 20.6197 111.175 20.4955 111.304 20.3466V19.3335C110.698 19.4229 110.276 19.5569 110.038 19.7357C109.81 19.9146 109.695 20.1082 109.695 20.3167C109.695 20.6742 109.924 20.8529 110.38 20.8529ZM118.903 22.8193C118.198 22.8193 117.563 22.6653 116.997 22.3575C116.43 22.0497 115.979 21.6077 115.641 21.0317C115.313 20.4458 115.149 19.7407 115.149 18.9164C115.149 18.0922 115.333 17.392 115.701 16.816C116.078 16.23 116.57 15.7833 117.175 15.4753C117.781 15.1675 118.436 15.0135 119.142 15.0135C119.588 15.0135 119.991 15.0831 120.348 15.222C120.716 15.3611 121.038 15.5498 121.316 15.7882L120.125 17.4268C119.966 17.2878 119.822 17.1935 119.693 17.1438C119.565 17.0942 119.428 17.069 119.291 17.0693C118.814 17.0693 118.442 17.238 118.173 17.5758C117.905 17.9035 117.771 18.3504 117.771 18.9164C117.771 19.4826 117.91 19.9344 118.188 20.272C118.466 20.5997 118.804 20.7637 119.201 20.7637C119.41 20.7637 119.613 20.7189 119.812 20.6295C120.016 20.5332 120.21 20.4184 120.393 20.2869L121.376 21.9553C121.009 22.2831 120.602 22.5115 120.155 22.6406C119.708 22.7597 119.291 22.8193 118.903 22.8193ZM125.568 22.8193C124.843 22.8193 124.188 22.6653 123.602 22.3575C123.026 22.0497 122.569 21.6077 122.231 21.0317C121.894 20.4458 121.725 19.7407 121.725 18.9164C121.725 18.112 121.894 17.4218 122.231 16.8458C122.579 16.2599 123.026 15.808 123.572 15.4902C124.118 15.1724 124.694 15.0135 125.3 15.0135C126.035 15.0135 126.641 15.1775 127.117 15.5051C127.604 15.8229 127.961 16.2549 128.19 16.8011C128.428 17.3473 128.547 17.9531 128.547 18.6186C128.547 18.8369 128.532 19.0506 128.503 19.2591C128.483 19.4577 128.463 19.6017 128.443 19.6911H124.198C124.317 20.138 124.53 20.4508 124.838 20.6295C125.146 20.7984 125.508 20.8828 125.926 20.8828C126.402 20.8828 126.909 20.7338 127.445 20.4359L128.279 21.9553C127.882 22.2333 127.435 22.4469 126.938 22.5959C126.442 22.7448 125.985 22.8193 125.568 22.8193ZM124.168 18.0226H126.372C126.372 17.7346 126.298 17.4864 126.149 17.2778C126.01 17.0593 125.747 16.95 125.36 16.95C125.081 16.95 124.833 17.0346 124.615 17.2033C124.396 17.3722 124.247 17.6453 124.168 18.0226Z"
    fill="white" />
  <path
    d="M35.755 24.0597C35.6795 23.7747 35.5572 23.5043 35.3931 23.2593C35.4282 23.1302 35.4549 22.9991 35.4729 22.8668C35.5894 22.0264 35.2981 21.2571 34.749 20.6617C34.4516 20.3366 34.1328 20.122 33.7951 19.9902C34.0168 19.042 34.129 18.0715 34.1296 17.0977C34.1296 16.653 34.1044 16.2174 34.0622 15.7882C34.0401 15.5739 34.0135 15.36 33.9825 15.1468C33.8857 14.5178 33.7423 13.8968 33.5533 13.2891C33.4294 12.8899 33.2861 12.4968 33.1239 12.1115C32.8808 11.5409 32.5969 10.9885 32.2744 10.4586C32.0628 10.1062 31.8324 9.7653 31.5842 9.43755C31.4626 9.27203 31.3359 9.11043 31.204 8.95296C30.8133 8.47812 30.3889 8.03224 29.9337 7.61885C29.7827 7.47988 29.6273 7.34571 29.4677 7.21652C29.3106 7.08548 29.15 6.95864 28.9862 6.83613C28.6564 6.59071 28.3155 6.36045 27.9648 6.14608C26.0269 4.96905 23.7542 4.29419 21.3252 4.29419C14.2531 4.29419 8.52105 10.0263 8.52105 17.0982C8.52086 18.0843 8.63511 19.067 8.8615 20.0266C8.55775 20.1585 8.26651 20.364 7.99666 20.6614C7.44766 21.2564 7.15628 22.0231 7.27286 22.8633C7.29044 22.9969 7.31716 23.1291 7.35259 23.259C7.18858 23.5041 7.06628 23.7747 6.99062 24.0597C6.82187 24.7011 6.87742 25.2795 7.09187 25.7862C6.85886 26.4487 6.91708 27.1541 7.22069 27.7673C7.44147 28.2152 7.75745 28.5616 8.14684 28.8714C8.60992 29.2394 9.18958 29.5523 9.88891 29.8522C10.7231 30.208 11.7412 30.5423 12.2043 30.6649C13.4005 30.9747 14.5474 31.171 15.7099 31.1804C17.3659 31.1959 18.7921 30.8064 19.8134 29.8098C20.315 29.8712 20.8198 29.902 21.3252 29.9019C21.8592 29.9007 22.3926 29.867 22.9224 29.8012C23.9411 30.8041 25.3728 31.1972 27.035 31.1813C28.1973 31.1721 29.3442 30.9758 30.5373 30.6656C31.0035 30.543 32.0213 30.2087 32.8559 29.8531C33.5552 29.5524 34.1348 29.2397 34.6011 28.8721C34.9875 28.5624 35.3032 28.2159 35.5241 27.768C35.8308 27.1548 35.8861 26.4494 35.656 25.7869C35.8685 25.2802 35.9236 24.7006 35.755 24.0597ZM34.5683 25.7433C34.8033 26.1892 34.8183 26.6931 34.6109 27.1624C34.2965 27.8736 33.5154 28.4337 31.9985 29.0352C31.0553 29.4094 30.1915 29.6485 30.1839 29.6507C28.9363 29.9743 27.8079 30.1385 26.8311 30.1385C25.2136 30.1385 24.0102 29.6923 23.2469 28.8109C21.9561 29.0307 20.638 29.0381 19.3448 28.833C18.5806 29.6998 17.3838 30.1385 15.78 30.1385C14.803 30.1385 13.6748 29.9743 12.4272 29.6507C12.4195 29.6485 11.5562 29.4094 10.6126 29.0352C9.09564 28.4337 8.31447 27.8739 8.00017 27.1624C7.79275 26.6931 7.8078 26.1892 8.04278 25.7433C8.06458 25.702 8.08778 25.6615 8.11267 25.6225C7.97182 25.411 7.87736 25.1719 7.83547 24.9214C7.79359 24.6708 7.80525 24.414 7.86967 24.1682C7.96305 23.8135 8.15598 23.5185 8.41783 23.3066C8.29174 23.0993 8.20899 22.8686 8.17455 22.6285C8.09917 22.1062 8.27242 21.5846 8.66251 21.1595C8.96612 20.8286 9.39545 20.6465 9.87091 20.6465H9.88356C9.52515 19.4977 9.34341 18.3011 9.34455 17.0978C9.34455 10.5346 14.6654 5.2136 21.2293 5.2136C27.7934 5.2136 33.1141 10.5341 33.1141 17.0978C33.1149 18.3044 32.932 19.5041 32.5714 20.6555C32.6288 20.6499 32.685 20.6469 32.7402 20.6469C33.2155 20.6469 33.645 20.8289 33.9486 21.1598C34.3384 21.5846 34.5121 22.1066 34.4365 22.6287C34.4021 22.8689 34.3194 23.0997 34.1933 23.307C34.4551 23.5188 34.648 23.8138 34.7414 24.1686C34.8057 24.4144 34.8173 24.671 34.7754 24.9218C34.7335 25.1724 34.6392 25.4113 34.4984 25.6229C34.5233 25.6615 34.5468 25.702 34.5683 25.7433Z"
    fill="white" />
  <path
    d="M34.4992 25.6228C34.6399 25.4112 34.7343 25.1723 34.7762 24.9217C34.8181 24.6709 34.8064 24.4143 34.7422 24.1685C34.6488 23.8138 34.4558 23.5188 34.194 23.3069C34.32 23.0996 34.4028 22.869 34.4373 22.6288C34.5127 22.1065 34.3394 21.5849 33.9493 21.1598C33.6457 20.8289 33.2162 20.6468 32.7409 20.6468C32.6857 20.6468 32.6295 20.6496 32.5722 20.6554C32.9323 19.5039 33.115 18.3043 33.1139 17.0978C33.1139 10.5347 27.793 5.21362 21.2296 5.21362C14.6662 5.21362 9.34485 10.5342 9.34485 17.0978C9.34371 18.3012 9.52546 19.4978 9.88387 20.6465H9.87121C9.3959 20.6465 8.96657 20.8286 8.66296 21.1595C8.27315 21.5843 8.09962 22.1062 8.17499 22.6285C8.2094 22.8687 8.29216 23.0993 8.41827 23.3066C8.15643 23.5185 7.96349 23.8135 7.87026 24.1683C7.80588 24.4141 7.79427 24.6709 7.8362 24.9217C7.87813 25.1723 7.97265 25.4113 8.11354 25.6228C8.08837 25.6618 8.06531 25.7023 8.04365 25.7436C7.80881 26.1895 7.79362 26.6934 8.00104 27.1627C8.31534 27.8738 9.09651 28.4342 10.6134 29.0355C11.5566 29.4097 12.4205 29.6488 12.4281 29.651C13.6757 29.9746 14.8039 30.139 15.7807 30.139C17.3847 30.139 18.5814 29.7002 19.3457 28.8333C20.6389 29.0385 21.9569 29.031 23.2477 28.8112C24.0109 29.6926 25.2145 30.139 26.832 30.139C27.8088 30.139 28.9372 29.9746 30.1848 29.651C30.1924 29.6488 31.0558 29.4097 31.9994 29.0355C33.5163 28.4342 34.2975 27.8738 34.6118 27.1627C34.8192 26.6934 34.8042 26.1895 34.5692 25.7436C34.5477 25.7018 34.524 25.6615 34.4992 25.6228ZM18.7988 27.4763C18.733 27.5914 18.6625 27.7038 18.5874 27.813C18.3899 28.1023 18.13 28.3232 17.8285 28.4876C17.2518 28.8019 16.5221 28.9119 15.7806 28.9119C14.6094 28.9119 13.4088 28.6378 12.7357 28.4632C12.7027 28.4546 8.61065 27.2988 9.12871 26.315C9.2159 26.1496 9.35948 26.0835 9.54004 26.0835C10.2695 26.0835 11.5977 27.1697 12.1686 27.1697C12.296 27.1697 12.386 27.1153 12.4227 26.9829C12.666 26.1104 8.72526 25.7436 9.05713 24.4802C9.11577 24.2566 9.27454 24.1659 9.49799 24.1659C10.4623 24.1658 12.6268 25.8617 13.0794 25.8617C13.1142 25.8617 13.1391 25.8516 13.1526 25.8302L13.1585 25.8205C13.3708 25.4697 13.249 25.2146 11.7933 24.323L11.6535 24.2379C10.0518 23.2683 8.92734 22.685 9.5669 21.9889C9.64045 21.9085 9.74465 21.8729 9.87135 21.8729C10.0217 21.8729 10.2035 21.9233 10.4038 22.0075C11.2498 22.3643 12.4223 23.3372 12.9121 23.7616C13.0565 23.8874 13.1416 23.9641 13.1416 23.9641C13.1416 23.9641 13.7617 24.609 14.1368 24.609C14.2231 24.609 14.2963 24.5752 14.3459 24.4909C14.612 24.0426 11.8761 21.9695 11.7218 21.1142C11.6174 20.5346 11.7952 20.2411 12.1244 20.2411C12.2808 20.2411 12.4718 20.3076 12.6826 20.4413C13.3365 20.8565 14.599 23.026 15.0613 23.8699C15.2162 24.1529 15.4807 24.2724 15.7191 24.2724C16.192 24.2724 16.5617 23.8023 15.7624 23.2049C14.5611 22.3059 14.9827 20.8366 15.556 20.7462C15.5804 20.7424 15.6052 20.7405 15.6298 20.7403C16.1512 20.7403 16.3813 21.6389 16.3813 21.6389C16.3813 21.6389 17.0553 23.3318 18.2134 24.4888C19.2643 25.5391 19.4109 26.4012 18.7988 27.4763ZM22.5435 27.6745L22.4834 27.6817L22.3809 27.6935C22.3271 27.699 22.2732 27.7043 22.2191 27.7094L22.1662 27.7142L22.1181 27.7183L22.0496 27.7238C22.0244 27.7256 21.9993 27.7276 21.9741 27.7291L21.8987 27.7342L21.8821 27.7351L21.8228 27.7387L21.7976 27.7399L21.7273 27.7434L21.6456 27.7468L21.5714 27.7493L21.5219 27.7508H21.4968C21.4814 27.7508 21.466 27.7516 21.4506 27.7517H21.4259C21.4105 27.7517 21.3952 27.7517 21.3797 27.7526L21.3168 27.7533H21.2288C21.1597 27.7533 21.091 27.7526 21.0222 27.7513L20.9665 27.75C20.9508 27.75 20.9349 27.7492 20.9191 27.7488L20.8602 27.747L20.7868 27.7441L20.7209 27.7413L20.7037 27.7406L20.6408 27.7373C20.6234 27.7363 20.606 27.7354 20.5887 27.7343L20.548 27.7319C20.497 27.7287 20.4459 27.725 20.3949 27.7211L20.3414 27.7169L20.2739 27.7111L20.1951 27.7038C20.151 27.6997 20.107 27.6952 20.063 27.6903H20.0609C20.7036 26.2566 20.3786 24.9177 19.0799 23.62C18.2283 22.7695 17.6616 21.5133 17.5441 21.2376C17.3062 20.4212 16.6763 19.5138 15.6305 19.5138C15.5421 19.5139 15.4539 19.521 15.3666 19.5347C14.9083 19.6067 14.5078 19.8705 14.222 20.2674C13.9133 19.8833 13.6131 19.578 13.3417 19.4055C12.9325 19.1462 12.5242 19.0146 12.1263 19.0146C11.6299 19.0146 11.1859 19.2185 10.8765 19.5883L10.8688 19.5977L10.8514 19.5245L10.8507 19.5214C10.7918 19.2697 10.7424 19.0157 10.7024 18.7603C10.7024 18.7585 10.7024 18.7568 10.7016 18.7551L10.6929 18.6973C10.6882 18.6661 10.6836 18.6347 10.6791 18.6035C10.6754 18.5775 10.6718 18.5515 10.6684 18.5256C10.665 18.4997 10.6614 18.4737 10.6583 18.4477C10.6549 18.4215 10.6518 18.3955 10.6487 18.3695C10.6458 18.3448 10.6429 18.32 10.6402 18.2953L10.6393 18.2889C10.6266 18.1748 10.6158 18.0604 10.6067 17.946L10.6018 17.8797C10.6004 17.8616 10.5991 17.8433 10.598 17.8249C10.598 17.8207 10.5974 17.8163 10.5971 17.8124L10.5925 17.739C10.5908 17.7124 10.5895 17.6858 10.5881 17.6592C10.5867 17.6328 10.5853 17.6062 10.5842 17.5795L10.5814 17.5099L10.5805 17.4888L10.5784 17.4244L10.5769 17.3698C10.5769 17.348 10.5759 17.3261 10.5755 17.3043L10.5743 17.2355C10.5741 17.2126 10.5743 17.1898 10.5738 17.1669C10.5731 17.1438 10.5738 17.1209 10.5738 17.0978C10.5738 11.2124 15.3453 6.44084 21.2313 6.44084C27.1173 6.44084 31.8887 11.2121 31.8887 17.0978V17.2355C31.8887 17.2584 31.8882 17.2815 31.8876 17.3043C31.8876 17.3234 31.8869 17.3421 31.8863 17.3612C31.8863 17.3783 31.8856 17.3951 31.8849 17.4116C31.8849 17.4331 31.8837 17.4545 31.883 17.476V17.4778C31.8811 17.5245 31.8792 17.5712 31.8772 17.6179L31.8764 17.6333L31.8727 17.7031L31.8693 17.7584C31.8614 17.8893 31.8512 18.0202 31.8387 18.1508V18.1527C31.8364 18.1771 31.8339 18.2018 31.8312 18.2262C31.825 18.2832 31.8187 18.3401 31.8124 18.3971L31.8052 18.4543L31.7963 18.5215C31.7932 18.5461 31.7899 18.5706 31.7864 18.5951C31.7826 18.6225 31.7785 18.6498 31.7745 18.6771L31.7647 18.7415L31.7532 18.8146C31.7492 18.8389 31.7453 18.8631 31.7407 18.8874C31.7359 18.9116 31.7322 18.9358 31.728 18.9601C31.7196 19.0085 31.7108 19.0568 31.7014 19.105C31.6827 19.201 31.6632 19.2968 31.6425 19.3924C31.6373 19.4162 31.6319 19.4401 31.6265 19.4639C31.3265 19.1723 30.9294 19.0136 30.4912 19.0136C30.0937 19.0136 29.685 19.1451 29.2759 19.4045C29.0044 19.5769 28.7044 19.8824 28.3955 20.2664C28.1093 19.8694 27.7088 19.6058 27.2511 19.5336C27.1637 19.52 27.0754 19.5129 26.987 19.5128C25.9409 19.5128 25.3114 20.4203 25.0733 21.2366C24.9554 21.5123 24.3886 22.7684 23.536 23.6203C22.2383 24.9138 21.9108 26.2468 22.5435 27.6745ZM33.546 24.8047L33.5418 24.8172C33.5388 24.8252 33.5359 24.8332 33.5326 24.8411C33.5276 24.853 33.5222 24.8647 33.5166 24.8764C33.503 24.9042 33.4875 24.9312 33.4705 24.9571C33.447 24.9921 33.4213 25.0256 33.3933 25.0571C33.3868 25.0644 33.3806 25.0716 33.3733 25.0787C33.3635 25.0896 33.3529 25.1001 33.3425 25.1107C33.1531 25.2984 32.8645 25.4628 32.5383 25.6138C32.5013 25.6306 32.4639 25.6473 32.4259 25.664L32.3882 25.6808C32.3631 25.6919 32.338 25.703 32.3116 25.7138C32.2859 25.7248 32.26 25.7356 32.2341 25.7463L32.1556 25.7788C31.9721 25.8543 31.7841 25.9261 31.6006 25.9973L31.5223 26.0277L31.4446 26.0581C31.3932 26.0782 31.3423 26.0983 31.2921 26.1184L31.2174 26.1485L31.1441 26.1786L31.108 26.1936C31.0841 26.2037 31.0604 26.2136 31.0371 26.2237C30.4974 26.4552 30.1093 26.6907 30.1908 26.9831C30.1931 26.9914 30.1956 26.9993 30.1984 27.0068C30.2057 27.0285 30.2157 27.049 30.2281 27.0682C30.2354 27.0797 30.2438 27.0905 30.2533 27.1004C30.3492 27.1999 30.5237 27.1842 30.7438 27.1051C30.7616 27.0987 30.7799 27.0918 30.7983 27.0845C30.811 27.0797 30.8235 27.0746 30.8362 27.0696L30.8551 27.0616C30.9055 27.0402 30.9588 27.0164 31.0133 26.9904C31.027 26.9841 31.0408 26.9779 31.0545 26.9706C31.3236 26.8391 31.6286 26.6618 31.9312 26.5005C31.9776 26.4753 32.0242 26.4512 32.0704 26.4273C32.1461 26.3881 32.2224 26.3503 32.2995 26.3141C32.5861 26.1794 32.8554 26.0838 33.0721 26.0838C33.1736 26.0838 33.2635 26.1046 33.3382 26.1524L33.3507 26.1607C33.3885 26.1874 33.4214 26.2202 33.4483 26.2579C33.4544 26.2667 33.4609 26.2759 33.4664 26.2853C33.4723 26.295 33.4779 26.305 33.4833 26.3151C33.5903 26.5182 33.5007 26.7287 33.2912 26.935C33.0899 27.133 32.7769 27.3272 32.421 27.507C32.3947 27.5204 32.3681 27.5338 32.3414 27.5467C31.2824 28.0667 29.8958 28.4584 29.8764 28.4633C29.5068 28.5591 28.9784 28.6849 28.3831 28.779L28.2949 28.7926L28.2806 28.7948C28.1456 28.815 28.0102 28.8329 27.8744 28.8483L27.8619 28.8496C27.6151 28.8777 27.362 28.8981 27.1085 28.9067H27.1047C27.0135 28.9101 26.9226 28.9116 26.8314 28.9116H26.7265C26.5876 28.9096 26.4488 28.9035 26.3103 28.8928C26.307 28.8928 26.3037 28.8928 26.3003 28.8921C26.2508 28.8883 26.2011 28.8836 26.1518 28.8781C26.0669 28.869 25.9821 28.8578 25.8975 28.8445C25.8646 28.8391 25.8295 28.8333 25.7956 28.8274C25.7801 28.8246 25.7648 28.8218 25.7495 28.8187L25.7458 28.818C25.697 28.8087 25.6485 28.7984 25.6001 28.7873C25.5721 28.781 25.544 28.7746 25.5163 28.7672L25.4997 28.7628C25.4859 28.7595 25.4724 28.7558 25.4589 28.7521L25.4515 28.7502L25.408 28.7377C25.3923 28.7332 25.3767 28.7285 25.3609 28.7239L25.3553 28.7222L25.3144 28.7097C25.2989 28.7049 25.2836 28.6998 25.2682 28.6949C25.2556 28.6907 25.2431 28.6863 25.2304 28.6823L25.2027 28.6726C25.176 28.6633 25.1496 28.6534 25.1231 28.6433L25.0981 28.6336L25.0774 28.6253C25.0376 28.6093 24.998 28.5925 24.9587 28.575L24.9326 28.5624L24.9282 28.5605C24.9189 28.5561 24.9098 28.5518 24.9005 28.5478C24.8824 28.5391 24.8644 28.5301 24.8465 28.521L24.8412 28.5183L24.8153 28.5046C24.7693 28.4807 24.7242 28.4551 24.68 28.4279L24.6558 28.4131C24.6433 28.4055 24.6319 28.3978 24.62 28.39L24.5885 28.3691C24.5771 28.3615 24.5657 28.3538 24.5546 28.3457L24.5343 28.3314C24.5129 28.3161 24.492 28.3005 24.4713 28.2843C24.4604 28.2758 24.4495 28.2671 24.4387 28.2591C24.4147 28.2398 24.3912 28.22 24.368 28.1996L24.367 28.1988C24.3443 28.1792 24.3223 28.159 24.3007 28.1383L24.2996 28.1369C24.2884 28.1262 24.2774 28.1155 24.2664 28.1044C24.2556 28.0933 24.2446 28.0823 24.2341 28.0712C24.2234 28.06 24.2127 28.0486 24.2023 28.0369C24.1922 28.026 24.1823 28.0148 24.1725 28.0036L24.1691 27.9998C24.1184 27.9409 24.0708 27.8791 24.0268 27.8149L24.0094 27.7891C23.9978 27.7721 23.9864 27.755 23.9752 27.7378L23.942 27.6868C23.9257 27.6619 23.9098 27.6367 23.8943 27.6114C23.8832 27.5934 23.8723 27.5754 23.8614 27.5573C23.8523 27.5418 23.8432 27.5265 23.8344 27.5113C23.8295 27.503 23.8249 27.4945 23.8202 27.4861C23.8156 27.4774 23.8101 27.4685 23.8052 27.4597L23.7973 27.4457C23.7946 27.4411 23.7938 27.4397 23.7924 27.4366C23.7828 27.4199 23.7735 27.4028 23.7645 27.3856C23.7605 27.3781 23.7564 27.3705 23.752 27.3631L23.7394 27.3389L23.7269 27.3148L23.7027 27.266C23.6987 27.258 23.6949 27.25 23.6911 27.242C23.6828 27.2247 23.675 27.2077 23.6671 27.1906C23.664 27.1838 23.6608 27.1769 23.6579 27.17C23.6471 27.1465 23.6369 27.1227 23.6272 27.0987C23.6205 27.0828 23.6145 27.067 23.608 27.0513C23.5899 27.0049 23.5729 26.9581 23.5573 26.9107C23.5526 26.8966 23.548 26.8827 23.5439 26.8686C23.5338 26.8367 23.5246 26.8045 23.5165 26.772C23.5065 26.7342 23.4976 26.6959 23.4902 26.6575C23.4854 26.6349 23.4812 26.6121 23.4777 26.5892C23.4739 26.5665 23.4706 26.5439 23.468 26.5214C23.4622 26.4765 23.4581 26.4315 23.4557 26.3864C23.4557 26.379 23.455 26.3714 23.4549 26.3639C23.4542 26.349 23.4538 26.3341 23.4536 26.3192C23.4457 25.7184 23.7499 25.1406 24.4 24.4908C25.5579 23.3339 26.2321 21.6409 26.2321 21.6409C26.2321 21.6409 26.2502 21.5699 26.2881 21.4678C26.3007 21.4339 26.3139 21.4001 26.3279 21.3668C26.3437 21.3291 26.3608 21.2918 26.379 21.2553L26.3844 21.2446C26.4079 21.1979 26.4333 21.1525 26.461 21.1082C26.4674 21.0979 26.4735 21.0877 26.4809 21.0775C26.5014 21.0469 26.5232 21.0172 26.5461 20.9884C26.5638 20.9663 26.5827 20.9449 26.6025 20.9247C26.6697 20.8555 26.7464 20.799 26.8331 20.7687L26.8441 20.7652C26.8514 20.7628 26.8586 20.7606 26.866 20.7585C26.8747 20.7562 26.8835 20.7541 26.8922 20.7523L26.8961 20.7516C26.9145 20.7479 26.933 20.7454 26.9517 20.7441H26.9534C26.9631 20.7441 26.9728 20.7431 26.9827 20.7431C27.0076 20.7433 27.0324 20.7452 27.057 20.749C27.1613 20.7655 27.2608 20.8276 27.3463 20.9235L27.3578 20.937C27.3856 20.9697 27.4109 21.0045 27.4334 21.0411C27.4503 21.0683 27.4662 21.0968 27.4813 21.1268C27.4873 21.1394 27.4931 21.1509 27.4988 21.1633C27.5017 21.1696 27.5045 21.1758 27.5071 21.1823C27.5128 21.1948 27.518 21.2075 27.5232 21.2207C27.5526 21.2961 27.5753 21.3738 27.5914 21.4531C27.6084 21.5388 27.6182 21.6257 27.621 21.713C27.622 21.7514 27.622 21.7902 27.621 21.8296C27.6203 21.8445 27.6196 21.8595 27.6185 21.8746C27.607 22.0418 27.5706 22.2063 27.5104 22.3628C27.5043 22.3783 27.4977 22.3941 27.4915 22.4098C27.4613 22.4821 27.4261 22.5521 27.3865 22.6196C27.3638 22.6582 27.3394 22.6964 27.3132 22.7344L27.2972 22.7572C27.2352 22.8438 27.166 22.9251 27.0903 23.0002C27.0158 23.0748 26.9359 23.1439 26.8514 23.207C26.7666 23.2696 26.6872 23.3391 26.6137 23.4146C26.4024 23.6365 26.3532 23.8321 26.4007 23.9805C26.4063 23.9972 26.4129 24.0136 26.4205 24.0295C26.4381 24.064 26.4609 24.0956 26.4882 24.1232L26.4956 24.1306C26.5034 24.1381 26.5115 24.1453 26.5198 24.1522L26.5282 24.159C26.5488 24.1748 26.5704 24.1889 26.5931 24.2011C26.5995 24.2046 26.6056 24.2081 26.613 24.2115C26.6441 24.227 26.6766 24.2393 26.7101 24.2488L26.7194 24.2512L26.7319 24.2545L26.7428 24.2572L26.7545 24.2597L26.7662 24.2621L26.7773 24.264C26.7856 24.2655 26.794 24.2668 26.8023 24.2679L26.8105 24.269L26.825 24.2706L26.834 24.2714L26.8489 24.2725H26.8574L26.8729 24.2732H26.9217L26.9356 24.2725L26.9517 24.2716L26.9712 24.2697L26.9895 24.2675C26.9936 24.2675 26.9978 24.2663 27.002 24.2656C27.0664 24.2562 27.1291 24.2381 27.1885 24.2116C27.2011 24.2063 27.2137 24.2004 27.2252 24.1942C27.2499 24.1818 27.274 24.1679 27.297 24.1526C27.3292 24.1315 27.3596 24.1077 27.3882 24.0818L27.408 24.063C27.4111 24.0599 27.4143 24.057 27.4173 24.0537C27.4367 24.0343 27.455 24.0138 27.472 23.9923C27.5021 23.9543 27.5288 23.9139 27.552 23.8715C27.8272 23.3711 28.1156 22.8781 28.417 22.3931L28.4583 22.3268L28.5001 22.2605C28.521 22.227 28.542 22.1938 28.5629 22.161L28.5842 22.128L28.6265 22.062C28.6833 21.9742 28.7403 21.8873 28.7977 21.8012L28.8405 21.7371C28.9266 21.6097 29.0125 21.4856 29.0975 21.3676L29.1399 21.3094C29.2323 21.1817 29.3286 21.057 29.4286 20.9352L29.4684 20.8877C29.4749 20.8797 29.4809 20.8719 29.4881 20.8642L29.5271 20.8191C29.5335 20.8116 29.5397 20.8043 29.5465 20.7971L29.5842 20.7545L29.6032 20.734C29.6214 20.7142 29.64 20.6946 29.6588 20.6752C29.6715 20.6627 29.6832 20.65 29.6954 20.6384C29.7667 20.5654 29.8453 20.5 29.9301 20.4433L29.9496 20.4308L29.9695 20.4181C29.9821 20.4103 29.9949 20.4027 30.008 20.3955C30.3404 20.2069 30.6158 20.193 30.7741 20.3513C30.8702 20.4474 30.9232 20.6064 30.9204 20.8276C30.9204 20.8375 30.9204 20.8472 30.9195 20.8573V20.8683C30.9195 20.8783 30.9187 20.8885 30.918 20.8988C30.918 20.9113 30.9164 20.924 30.9152 20.9365C30.9139 20.9491 30.9134 20.9587 30.9121 20.9698C30.9121 20.973 30.9114 20.9763 30.911 20.9795C30.91 20.9894 30.9087 20.9993 30.9074 21.0092C30.9074 21.0123 30.9074 21.0152 30.9062 21.0183C30.9048 21.0317 30.9028 21.045 30.9004 21.0583C30.8989 21.0705 30.8969 21.0827 30.8945 21.095C30.8935 21.102 30.8921 21.1089 30.891 21.1159C30.8873 21.1359 30.8826 21.1557 30.8768 21.1751C30.866 21.2114 30.8527 21.247 30.8371 21.2816C30.8304 21.2966 30.8232 21.3117 30.8159 21.3264C30.8007 21.357 30.7836 21.3882 30.7647 21.4205C30.7553 21.4364 30.7456 21.4529 30.7352 21.4693L30.7194 21.4943C30.7034 21.5195 30.6867 21.545 30.6692 21.5707C30.6518 21.5964 30.6331 21.6227 30.613 21.6493C30.587 21.6848 30.5595 21.7209 30.5306 21.7575L30.5086 21.7852C30.4466 21.8624 30.3831 21.9383 30.3181 22.013L30.2665 22.0713L30.2402 22.1009C30.2043 22.1409 30.1683 22.1807 30.132 22.2203L30.1042 22.2503C30.0858 22.2703 30.0665 22.2906 30.0481 22.3107C30.0292 22.3311 30.0101 22.3513 29.991 22.3716L29.9331 22.4326L29.8744 22.4938C29.8549 22.5142 29.8352 22.5348 29.8154 22.5552L29.696 22.6783C29.1257 23.2631 28.5248 23.846 28.3215 24.2094C28.308 24.2332 28.2958 24.2575 28.2847 24.2824C28.2558 24.3485 28.2437 24.405 28.2519 24.4507C28.2546 24.4658 28.2599 24.4802 28.2676 24.4933C28.2792 24.5131 28.2931 24.5314 28.3091 24.5477C28.3166 24.555 28.3243 24.5619 28.3327 24.5681C28.3745 24.5979 28.4251 24.6133 28.4765 24.6117H28.4925L28.5089 24.6106L28.5255 24.6086L28.5392 24.6067C28.541 24.6065 28.5428 24.6061 28.5447 24.6057L28.5572 24.6033L28.5606 24.6024L28.5743 24.5995L28.5793 24.5982L28.594 24.5944L28.6116 24.5892C28.6231 24.5857 28.6347 24.5818 28.6465 24.5774C28.6719 24.5684 28.6968 24.558 28.7212 24.5463C28.7273 24.5434 28.7337 24.5406 28.7397 24.5373L28.7584 24.528C28.7829 24.5157 28.8072 24.5023 28.8317 24.4878C28.8512 24.4763 28.8706 24.4645 28.89 24.452L28.9089 24.4395C28.9151 24.4355 28.9214 24.4314 28.9276 24.4268L28.9463 24.4143L28.9561 24.4074L28.9831 24.3885C29.0083 24.3711 29.0318 24.3533 29.0557 24.3351L29.0578 24.3336L29.0955 24.3043C29.1471 24.2635 29.1962 24.2225 29.2405 24.1838L29.27 24.1578L29.2728 24.1553L29.2882 24.1416C29.3244 24.1091 29.3568 24.0788 29.3838 24.0536L29.3947 24.0429L29.4213 24.0177L29.4372 24.0023L29.4427 23.9966L29.4442 23.9951C29.4577 23.9816 29.4577 23.9816 29.4712 23.9679L29.4724 23.9668L29.4774 23.9623C29.479 23.9606 29.4811 23.9589 29.4835 23.9568L29.4854 23.955L29.4908 23.9502L29.5193 23.925L29.5354 23.9106C29.5432 23.9038 29.5518 23.8961 29.5605 23.8878L29.5798 23.8709C29.5832 23.8681 29.5866 23.8649 29.5901 23.8618L29.6102 23.8442L29.6399 23.8183L29.6555 23.8047C29.7166 23.7514 29.7912 23.6871 29.8765 23.6147L29.9115 23.5852L29.9695 23.5366L30.0285 23.4871C30.1059 23.423 30.1891 23.3548 30.2772 23.2839L30.335 23.2375C30.3842 23.1984 30.4348 23.1584 30.486 23.1181C30.5065 23.102 30.5275 23.0858 30.5489 23.0698C30.6013 23.0293 30.654 22.9889 30.7069 22.9491C30.8276 22.858 30.952 22.7667 31.0779 22.6777L31.132 22.6402C31.1697 22.614 31.2074 22.588 31.2452 22.5625L31.2794 22.5393C31.347 22.4938 31.4152 22.4492 31.484 22.4056L31.5182 22.3841L31.5521 22.363C31.586 22.342 31.6199 22.3212 31.6533 22.3011L31.6869 22.2811L31.7543 22.2419C31.7764 22.2291 31.7983 22.2166 31.8202 22.2042L31.8335 22.1968L31.8858 22.1682C31.9074 22.1564 31.9292 22.145 31.9507 22.1339L31.9831 22.1173L32.0143 22.1014C32.0857 22.0656 32.1584 22.0324 32.2324 22.002C32.2425 21.9978 32.2525 21.9937 32.2625 21.9893C32.2823 21.981 32.302 21.9735 32.3216 21.9667C32.3411 21.9601 32.3604 21.9532 32.3794 21.9465C32.3967 21.9407 32.4134 21.9353 32.4297 21.9303L32.4352 21.9286C32.4439 21.9259 32.4526 21.9234 32.4614 21.9211L32.4639 21.9204C32.4816 21.9154 32.4993 21.9107 32.5172 21.9065H32.5186C32.5449 21.9002 32.5705 21.8948 32.5955 21.8906C32.6041 21.8892 32.6125 21.8878 32.6207 21.8867C32.645 21.883 32.6695 21.8805 32.6939 21.8788C32.7094 21.8777 32.725 21.8773 32.7405 21.8773H32.7523C32.7681 21.8773 32.7832 21.8783 32.7983 21.8798C32.8052 21.8798 32.8121 21.8811 32.8188 21.882H32.8216C32.8284 21.8828 32.8353 21.8839 32.8419 21.8853C32.8485 21.8867 32.8552 21.8877 32.8617 21.8892H32.864C32.8704 21.8906 32.8765 21.8925 32.8832 21.8943C32.9369 21.9088 32.9863 21.936 33.0272 21.9737L33.0309 21.9774L33.0381 21.9844L33.0451 21.9919C33.1015 22.0512 33.1482 22.1191 33.1833 22.1931L33.1888 22.2056C33.2008 22.2338 33.2102 22.2629 33.2168 22.2927C33.2351 22.3758 33.2302 22.4624 33.2024 22.5428C33.1905 22.5779 33.1759 22.6119 33.1586 22.6445L33.147 22.6653C33.1032 22.7389 33.0514 22.8074 32.9925 22.8695L32.9798 22.8829C32.9521 22.9123 32.9233 22.9408 32.8936 22.9682C32.8842 22.9771 32.8745 22.986 32.8647 22.9948L32.8498 23.0083C32.8188 23.0357 32.7872 23.0625 32.7551 23.0886C32.7495 23.0931 32.7437 23.0976 32.7382 23.1024C32.7159 23.1204 32.6928 23.1387 32.6689 23.157C32.5865 23.22 32.5026 23.2807 32.4171 23.3393C32.3667 23.3738 32.3147 23.4085 32.261 23.4438C32.1608 23.5095 32.06 23.5738 31.9582 23.6368C31.9288 23.6549 31.8993 23.6733 31.8692 23.6916C31.5926 23.8618 31.2859 24.0437 30.9588 24.2416L30.8741 24.2931C30.7814 24.3496 30.694 24.4036 30.6117 24.4549L30.5702 24.4811L30.4918 24.5314C30.4607 24.5511 30.4304 24.5705 30.4011 24.5896C30.3788 24.6038 30.3572 24.6179 30.3359 24.6318L30.294 24.6594C30.2737 24.6728 30.2534 24.6861 30.2332 24.6998L30.2135 24.7123C30.1927 24.7262 30.1724 24.7398 30.1527 24.7533L30.1205 24.7753L30.0827 24.8016L30.0478 24.8259C29.9927 24.8646 29.9383 24.9041 29.8843 24.9443L29.8654 24.9586C29.8442 24.9747 29.8237 24.9907 29.8038 25.0063L29.7779 25.027C29.7344 25.062 29.6948 25.0956 29.6591 25.1277L29.6417 25.1437C29.6317 25.1528 29.6219 25.162 29.6126 25.171C29.606 25.1772 29.5999 25.1835 29.5933 25.1897L29.5842 25.1987C29.5641 25.2188 29.5445 25.2395 29.5255 25.2607L29.5162 25.2714C29.4956 25.2953 29.4776 25.3182 29.4617 25.3406L29.4547 25.3507C29.4364 25.3774 29.4202 25.4057 29.4064 25.4351L29.4016 25.4453L29.3987 25.4525L29.3963 25.4587L29.3931 25.4673C29.3921 25.4702 29.3901 25.4754 29.389 25.4799C29.3832 25.4967 29.379 25.514 29.3762 25.5315L29.3748 25.541L29.3737 25.5496L29.3729 25.5578V25.602C29.3729 25.6057 29.3729 25.6095 29.3738 25.6133C29.3739 25.6155 29.3742 25.6178 29.3745 25.62C29.3745 25.6237 29.3755 25.6273 29.3759 25.6311L29.3786 25.6466V25.6473C29.3796 25.6522 29.3805 25.6571 29.3818 25.662C29.3831 25.667 29.3843 25.6725 29.3859 25.6777C29.3904 25.6936 29.3959 25.7093 29.4022 25.7246C29.4022 25.7258 29.4032 25.727 29.4036 25.7281C29.4053 25.7319 29.4068 25.7359 29.4087 25.7397C29.4156 25.7557 29.4233 25.7713 29.4317 25.7866L29.4406 25.8025L29.4499 25.8186L29.4596 25.8346C29.4613 25.8373 29.4631 25.8397 29.4652 25.8421L29.4684 25.8454L29.4718 25.8485L29.4756 25.8515C29.4781 25.8533 29.4808 25.8548 29.4836 25.8564C29.4864 25.8577 29.4895 25.8591 29.4926 25.8602C29.496 25.8613 29.4994 25.8623 29.5027 25.8631C29.5839 25.8814 29.7507 25.8142 29.9722 25.6972L30.0119 25.6761L30.0793 25.6394L30.1124 25.6211C30.1357 25.6085 30.1597 25.5944 30.1841 25.5805L30.2287 25.5553C30.5216 25.3867 30.8716 25.17 31.2333 24.9585C31.267 24.9387 31.3011 24.919 31.3351 24.8993L31.4034 24.8557C31.4376 24.836 31.4716 24.8166 31.5058 24.7975C31.6512 24.7148 31.7986 24.6353 31.9475 24.5593L32.0143 24.5254C32.0587 24.5034 32.1028 24.4821 32.1462 24.4613C32.2304 24.4213 32.3155 24.3835 32.4014 24.3476L32.4486 24.3285L32.4543 24.3263C32.7038 24.2274 32.9301 24.1662 33.1132 24.1662C33.1528 24.1659 33.1923 24.1692 33.2314 24.1759H33.2325C33.2452 24.1782 33.2566 24.1807 33.2681 24.1837H33.2702C33.2871 24.1877 33.3037 24.1929 33.3197 24.1994C33.3325 24.2041 33.3449 24.2095 33.3569 24.216C33.4093 24.2426 33.4542 24.2818 33.4876 24.3302C33.4904 24.3343 33.4931 24.3385 33.4957 24.3428C33.508 24.3617 33.5187 24.3815 33.5274 24.4023C33.5326 24.4143 33.5374 24.4267 33.5419 24.44C33.5464 24.4535 33.5504 24.4665 33.5544 24.4804C33.5842 24.587 33.5813 24.6998 33.546 24.8047Z"
    fill="#FF9D00" />
  <path fill-rule="evenodd" clip-rule="evenodd"
    d="M31.8865 17.1668V17.0979C31.8865 11.2122 27.1168 6.44092 21.2306 6.44092C15.3448 6.44092 10.5732 11.2125 10.5732 17.0979L10.5731 17.121C10.5729 17.1363 10.5728 17.1515 10.5731 17.1668C10.5738 17.1897 10.574 17.2127 10.5738 17.2356L10.5746 17.2862L10.5749 17.3045L10.5756 17.3295C10.5759 17.343 10.5763 17.3564 10.5763 17.3699L10.5777 17.4246L10.58 17.4888L10.5807 17.5099L10.5835 17.5765V17.5795L10.5874 17.6573V17.6593C10.5888 17.6859 10.5902 17.7124 10.5919 17.7389C10.5933 17.7635 10.5949 17.788 10.5966 17.8124L10.597 17.8168C10.5982 17.8377 10.5996 17.8588 10.6012 17.8798L10.6016 17.8853C10.603 17.9055 10.6046 17.9259 10.6063 17.946L10.6066 17.95L10.6094 17.9851C10.6178 18.0865 10.6276 18.1879 10.6389 18.289L10.6396 18.2953L10.648 18.3696L10.6577 18.4478C10.6643 18.4998 10.6712 18.5517 10.6786 18.6036C10.6829 18.6349 10.6875 18.6662 10.6922 18.6974L10.6929 18.7012C10.7034 18.7718 10.7147 18.8424 10.7269 18.9127C10.7619 19.1167 10.803 19.3198 10.8501 19.5214L10.8508 19.5247L10.8553 19.5437C10.8595 19.5617 10.8638 19.5797 10.8683 19.5978L10.876 19.5884C11.1854 19.2185 11.6292 19.0146 12.1257 19.0146C12.5237 19.0146 12.9321 19.1461 13.3412 19.4056C13.6126 19.578 13.9127 19.8834 14.2215 20.2674C14.5072 19.8705 14.9077 19.6068 15.3659 19.5348C15.4533 19.521 15.5416 19.514 15.63 19.5138C16.6758 19.5138 17.3056 20.4214 17.5436 21.2376C17.661 21.5135 18.2277 22.7694 19.0822 23.6191C20.3808 24.9167 20.7058 26.2557 20.0632 27.6894H20.0653C20.1091 27.6941 20.1532 27.6986 20.1973 27.7027C20.2236 27.7052 20.2499 27.7078 20.2762 27.71L20.2855 27.7109C20.3047 27.7127 20.3242 27.7144 20.3436 27.7158L20.397 27.7202C20.4479 27.7241 20.499 27.7276 20.5503 27.731L20.5908 27.7334L20.623 27.7352L20.6431 27.7363L20.7058 27.7397L20.723 27.7404L20.7891 27.7432L20.8623 27.746L20.9214 27.7477L20.9312 27.7481C20.9436 27.7486 20.9563 27.7491 20.9688 27.7491L20.9821 27.7494C21.0651 27.7514 21.1479 27.7524 21.2309 27.7524H21.3189L21.3819 27.7517C21.3974 27.7508 21.4127 27.7508 21.4282 27.7508H21.4527L21.4739 27.7504C21.4822 27.7501 21.4906 27.7498 21.4989 27.7498H21.5241L21.5735 27.7484L21.6477 27.7459L21.7296 27.7424C21.753 27.7414 21.7764 27.7403 21.7999 27.739L21.825 27.7376L21.8623 27.7355L21.8844 27.7342L21.9008 27.7332L21.9764 27.7282C22.0015 27.7266 22.0267 27.7247 22.0519 27.7227L22.1202 27.7173L22.1685 27.7133L22.2212 27.7085C22.2753 27.7034 22.3293 27.6981 22.383 27.6925C22.4174 27.6887 22.4514 27.6849 22.4856 27.6808L22.5456 27.6736C21.9129 26.2458 22.2405 24.9129 23.5339 23.6204C24.3864 22.7686 24.9531 21.5124 25.0712 21.2366C25.3093 20.4203 25.9386 19.5129 26.9847 19.5129C27.0732 19.513 27.1615 19.5199 27.2488 19.5338C27.7065 19.6058 28.1072 19.8696 28.3934 20.2665C28.7023 19.8824 29.0023 19.577 29.2737 19.4046C29.6828 19.1451 30.0914 19.0136 30.489 19.0136C30.9271 19.0136 31.3244 19.1725 31.6244 19.4639C31.6408 19.3905 31.6567 19.3171 31.6719 19.2434C31.6812 19.1974 31.6903 19.1513 31.6993 19.105C31.7103 19.0482 31.7207 18.9911 31.7302 18.934C31.7328 18.9186 31.7355 18.9031 31.7384 18.8875C31.743 18.8632 31.7471 18.8391 31.7509 18.8147L31.7525 18.8054L31.7625 18.7417L31.7723 18.6771L31.7724 18.6764C31.7764 18.6494 31.7805 18.6223 31.7841 18.5951C31.7871 18.5746 31.7899 18.5541 31.7925 18.5334L31.7942 18.5216L31.803 18.4544L31.8101 18.3971C31.8145 18.3595 31.8187 18.3218 31.8228 18.2839C31.8246 18.2689 31.8262 18.2537 31.8277 18.2385L31.8291 18.2263C31.8318 18.2011 31.8342 18.1761 31.8364 18.1509L31.842 18.0924C31.8537 17.9627 31.8631 17.8331 31.8705 17.7032V17.7023L31.8743 17.6334L31.875 17.6179L31.8778 17.5525C31.8789 17.5279 31.8799 17.503 31.8807 17.4779V17.476L31.8814 17.4579C31.8821 17.4424 31.8827 17.427 31.8827 17.4116L31.883 17.4053C31.8835 17.391 31.8841 17.3761 31.8841 17.3613L31.8845 17.3486C31.8849 17.3339 31.8854 17.3192 31.8854 17.3045L31.8856 17.292C31.8861 17.2731 31.8865 17.2544 31.8865 17.2356V17.1668ZM18.5874 27.8131C19.4313 26.5753 19.3716 25.6464 18.2135 24.489C17.0555 23.3317 16.3815 21.6391 16.3815 21.6391C16.3815 21.6391 16.1299 20.6559 15.5561 20.7463C14.9824 20.8366 14.5615 22.3057 15.7627 23.205C16.9639 24.1043 15.5238 24.714 15.0614 23.8701C14.5989 23.0261 13.3367 20.8567 12.682 20.4417C12.0276 20.0267 11.5673 20.2593 11.7216 21.1146C11.7982 21.5391 12.5109 22.2636 13.1768 22.9406C13.8523 23.6275 14.4797 24.2653 14.3456 24.491C14.0794 24.9393 13.1419 23.9643 13.1419 23.9643C13.1419 23.9643 10.2062 21.2929 9.56706 21.9891C8.97798 22.6308 9.88642 23.1763 11.2865 24.0169C11.4056 24.0885 11.5282 24.1622 11.6538 24.2381C13.2555 25.2079 13.3801 25.4637 13.1529 25.8306C13.0689 25.9661 12.5327 25.6442 11.8732 25.2482C10.7489 24.5732 9.26626 23.6832 9.05701 24.4799C8.87575 25.1694 9.96643 25.5918 10.9556 25.975C11.7797 26.2942 12.5334 26.5862 12.4226 26.9824C12.3077 27.3932 11.6849 27.0506 11.004 26.676C10.2397 26.2554 9.40225 25.7946 9.12831 26.3146C8.61025 27.2976 12.7016 28.4548 12.7352 28.4632C14.0571 28.8061 17.4141 29.5325 18.5874 27.8131ZM24.0246 27.8131C23.1805 26.5753 23.2404 25.6464 24.3985 24.489C25.5565 23.3317 26.2307 21.6391 26.2307 21.6391C26.2307 21.6391 26.4821 20.6559 27.0559 20.7463C27.6296 20.8366 28.0507 22.3057 26.8493 23.205C25.6479 24.1043 27.0882 24.714 27.5507 23.8701C28.0131 23.0261 29.2748 20.8567 29.9293 20.4417C30.5837 20.0267 31.0441 20.2593 30.8899 21.1146C30.8132 21.5391 30.1005 22.2638 29.4345 22.9407C28.7591 23.6275 28.1318 24.2653 28.2658 24.491C28.5319 24.9393 29.4703 23.9638 29.4703 23.9638C29.4703 23.9638 32.4058 21.2923 33.045 21.9886C33.634 22.6302 32.7255 23.1759 31.3254 24.0167C31.2063 24.0881 31.0838 24.1616 30.9582 24.2377C29.3564 25.2073 29.2319 25.4633 29.4592 25.83C29.5431 25.9656 30.0793 25.6437 30.7387 25.2478C31.8631 24.5728 33.3458 23.6827 33.555 24.4793C33.7363 25.1688 32.6456 25.5914 31.6563 25.9746C30.8322 26.2938 30.0786 26.5856 30.1893 26.982C30.3042 27.3928 30.9267 27.0501 31.6073 26.6755C32.3716 26.2548 33.2092 25.7939 33.4833 26.314C34.0013 27.2977 29.9094 28.4537 29.8763 28.4622C28.5544 28.8061 25.1974 29.5325 24.0246 27.8131Z"
    fill="#FFD21E" />
  <path fill-rule="evenodd" clip-rule="evenodd"
    d="M24.692 14.1971C24.8581 14.2559 24.9817 14.4349 25.0992 14.6051C25.2582 14.8353 25.4061 15.0493 25.6331 14.9286C25.901 14.7863 26.1205 14.5678 26.264 14.3006C26.4076 14.0335 26.4687 13.7298 26.4395 13.4279C26.4179 13.2022 26.3465 12.984 26.2303 12.7893C26.1141 12.5945 25.9562 12.4279 25.7681 12.3015C25.5798 12.1751 25.3657 12.0921 25.1416 12.0583C24.9173 12.0246 24.6883 12.041 24.4712 12.1064C24.1808 12.1939 23.9229 12.3654 23.73 12.5994C23.5372 12.8334 23.4179 13.1193 23.3874 13.421C23.357 13.7228 23.4168 14.0267 23.5591 14.2946C23.6643 14.4924 23.8977 14.3992 24.1441 14.3006C24.3373 14.2234 24.5384 14.143 24.692 14.1971ZM17.4672 14.1972C17.3012 14.256 17.1774 14.435 17.0599 14.6052C16.901 14.8353 16.753 15.0494 16.526 14.9288C16.3259 14.8223 16.152 14.6727 16.0166 14.4909C15.8811 14.309 15.7878 14.0995 15.743 13.8772C15.6983 13.6549 15.7034 13.4256 15.758 13.2055C15.8127 12.9855 15.9153 12.7803 16.0586 12.6047C16.2022 12.4291 16.3827 12.2876 16.5875 12.1903C16.7922 12.0929 17.0161 12.0422 17.2428 12.0417C17.4695 12.0412 17.6935 12.0909 17.8987 12.1874C18.1039 12.2838 18.2851 12.4246 18.4294 12.5995C18.6223 12.8334 18.7416 13.1194 18.7721 13.4212C18.8025 13.7229 18.7427 14.0269 18.6003 14.2947C18.4948 14.4926 18.2614 14.3992 18.015 14.3006C17.8219 14.2234 17.6208 14.143 17.4672 14.1972ZM23.5743 20.7716C24.7194 19.8693 25.14 18.3966 25.14 17.4893C25.14 16.7721 24.6574 16.9978 23.885 17.3801L23.8415 17.4018C23.1323 17.7529 22.1885 18.2204 21.1523 18.2204C20.1161 18.2204 19.1722 17.7528 18.4633 17.4017C17.6658 17.0066 17.1656 16.7589 17.1656 17.4894C17.1656 18.4253 17.6131 19.9622 18.8414 20.8551C19.0034 20.5261 19.2315 20.234 19.5117 19.9972C19.7916 19.7604 20.1176 19.584 20.469 19.479C20.5917 19.4424 20.7179 19.6535 20.8473 19.8695C20.972 20.078 21.0995 20.2912 21.2292 20.2912C21.3673 20.2912 21.5032 20.0811 21.6358 19.876C21.7743 19.6616 21.9093 19.4527 22.04 19.4944C22.6975 19.7055 23.2475 20.1633 23.5743 20.7716Z"
    fill="#32343D" />
  <path
    d="M23.5743 20.7714C22.9779 21.2414 22.1852 21.5565 21.153 21.5565C20.1831 21.5565 19.4244 21.2783 18.8418 20.8549C19.0039 20.526 19.2322 20.2339 19.5122 19.9972C19.7921 19.7604 20.1181 19.584 20.4694 19.4788C20.7103 19.4069 20.9654 20.291 21.2295 20.291C21.5123 20.291 21.7847 19.4125 22.0403 19.4942C22.6976 19.7055 23.2474 20.1632 23.5743 20.7714Z"
    fill="#FF323D" />
  <path fill-rule="evenodd" clip-rule="evenodd"
    d="M14.729 15.4731C14.6202 15.5464 14.498 15.5974 14.3694 15.6233C14.2409 15.6492 14.1084 15.6495 13.9797 15.6241C13.8511 15.5987 13.7286 15.5482 13.6195 15.4755C13.5104 15.4027 13.4167 15.3091 13.3438 15.2C13.2709 15.091 13.2203 14.9685 13.1948 14.84C13.1693 14.7113 13.1694 14.5789 13.1952 14.4502C13.221 14.3217 13.2719 14.1995 13.345 14.0905C13.4182 13.9816 13.512 13.8882 13.6213 13.8157C13.8411 13.6698 14.1098 13.617 14.3684 13.6689C14.6271 13.7207 14.8547 13.873 15.0013 14.0923C15.1478 14.3117 15.2015 14.5801 15.1505 14.8389C15.0994 15.0978 14.9478 15.3259 14.729 15.4731ZM28.9901 15.4731C28.8812 15.5464 28.759 15.5974 28.6305 15.6233C28.502 15.6492 28.3695 15.6495 28.2408 15.6241C28.1122 15.5987 27.9897 15.5482 27.8806 15.4755C27.7714 15.4027 27.6778 15.3091 27.6049 15.2C27.5319 15.091 27.4813 14.9685 27.4559 14.84C27.4304 14.7113 27.4306 14.5789 27.4563 14.4502C27.482 14.3217 27.5329 14.1995 27.6061 14.0905C27.6792 13.9816 27.7731 13.8882 27.8824 13.8157C28.1022 13.6698 28.3709 13.617 28.6295 13.6689C28.8881 13.7207 29.1157 13.873 29.2623 14.0923C29.4089 14.3117 29.4626 14.5801 29.4115 14.8389C29.3605 15.0978 29.2089 15.3259 28.9901 15.4731Z"
    fill="#FFAD03" />
</svg>