<svg width="279" height="279" viewBox="0 0 279 279" fill="none" xmlns="http://www.w3.org/2000/svg">
  <rect width="278.595" height="278.595" rx="26.6795" fill="black" fill-opacity="0.6" />
  <rect x="0.5" y="0.5" width="277.595" height="277.595" rx="26.1795" stroke="white"
    stroke-opacity="0.05" />
  <rect x="11.2878" y="11.2873" width="256.02" height="256.02" rx="16.1616"
    fill="url(#paint0_linear_3933_5589)" stroke="url(#paint1_linear_3933_5589)"
    stroke-width="0.513067" />
  <g opacity="0.3" filter="url(#filter0_f_3933_5589)">
    <ellipse cx="186.115" cy="78.884" rx="70.9315" ry="57.3352" fill="url(#paint2_linear_3933_5589)" />
  </g>
  <g opacity="0.1" filter="url(#filter1_f_3933_5589)">
    <ellipse cx="95.3026" cy="189.45" rx="70.9315" ry="57.3352" fill="url(#paint3_linear_3933_5589)" />
  </g>
  <g filter="url(#filter2_f_3933_5589)">
    <path fill-rule="evenodd" clip-rule="evenodd"
      d="M63.3644 36.1714H215.232C230.25 36.1714 242.425 48.3459 242.425 63.3639V215.232C242.425 230.25 230.25 242.424 215.232 242.424H63.3644C48.3464 242.424 36.1719 230.25 36.1719 215.232V63.3639C36.1719 48.3459 48.3464 36.1714 63.3644 36.1714ZM63.3644 37.7106C49.1965 37.7106 37.7111 49.196 37.7111 63.3639V215.232C37.7111 229.4 49.1965 240.885 63.3644 240.885H215.232C229.4 240.885 240.885 229.4 240.885 215.232V63.3639C240.885 49.196 229.4 37.7106 215.232 37.7106H63.3644Z"
      fill="#333333" />
  </g>
  <circle cx="21.5484" cy="257.046" r="2.82187" fill="white" />
  <circle cx="257.046" cy="257.046" r="2.82187" fill="white" />
  <circle cx="21.5484" cy="21.5489" r="2.82187" fill="white" />
  <circle cx="257.046" cy="21.5489" r="2.82187" fill="white" />
  <path
    d="M32.5796 15.6484C33.4297 15.6484 34.1188 16.3376 34.1188 17.1876V25.9098C34.1188 26.7598 33.4297 27.449 32.5796 27.449C31.7296 27.449 31.0404 26.7598 31.0404 25.9098V17.1876C31.0404 16.3376 31.7296 15.6484 32.5796 15.6484Z"
    fill="#262626" />
  <path
    d="M42.3279 17.1876C42.3279 16.3376 41.6388 15.6484 40.7887 15.6484C39.9386 15.6484 39.2495 16.3376 39.2495 17.1876V25.9098C39.2495 26.7598 39.9386 27.449 40.7887 27.449C41.6388 27.449 42.3279 26.7598 42.3279 25.9098V17.1876Z"
    fill="#262626" />
  <path
    d="M48.9978 15.6484C49.8478 15.6484 50.537 16.3376 50.537 17.1876V25.9098C50.537 26.7598 49.8478 27.449 48.9978 27.449C48.1477 27.449 47.4586 26.7598 47.4586 25.9098V17.1876C47.4586 16.3376 48.1477 15.6484 48.9978 15.6484Z"
    fill="#262626" />
  <path
    d="M58.746 17.1876C58.746 16.3376 58.0569 15.6484 57.2068 15.6484C56.3568 15.6484 55.6676 16.3376 55.6676 17.1876V25.9098C55.6676 26.7598 56.3568 27.449 57.2068 27.449C58.0569 27.449 58.746 26.7598 58.746 25.9098V17.1876Z"
    fill="#262626" />
  <path
    d="M65.4159 15.6484C66.266 15.6484 66.9551 16.3376 66.9551 17.1876V25.9098C66.9551 26.7598 66.266 27.449 65.4159 27.449C64.5658 27.449 63.8767 26.7598 63.8767 25.9098V17.1876C63.8767 16.3376 64.5658 15.6484 65.4159 15.6484Z"
    fill="#262626" />
  <path
    d="M75.1642 17.1876C75.1642 16.3376 74.475 15.6484 73.625 15.6484C72.7749 15.6484 72.0858 16.3376 72.0858 17.1876V25.9098C72.0858 26.7598 72.7749 27.449 73.625 27.449C74.475 27.449 75.1642 26.7598 75.1642 25.9098V17.1876Z"
    fill="#262626" />
  <path
    d="M81.834 15.6484C82.6841 15.6484 83.3732 16.3376 83.3732 17.1876V25.9098C83.3732 26.7598 82.6841 27.449 81.834 27.449C80.984 27.449 80.2948 26.7598 80.2948 25.9098V17.1876C80.2948 16.3376 80.984 15.6484 81.834 15.6484Z"
    fill="#262626" />
  <path
    d="M91.5823 17.1876C91.5823 16.3376 90.8932 15.6484 90.0431 15.6484C89.193 15.6484 88.5039 16.3376 88.5039 17.1876V25.9098C88.5039 26.7598 89.193 27.449 90.0431 27.449C90.8932 27.449 91.5823 26.7598 91.5823 25.9098V17.1876Z"
    fill="#262626" />
  <path
    d="M98.2522 15.6484C99.1022 15.6484 99.7914 16.3376 99.7914 17.1876V25.9098C99.7914 26.7598 99.1022 27.449 98.2522 27.449C97.4021 27.449 96.713 26.7598 96.713 25.9098V17.1876C96.713 16.3376 97.4021 15.6484 98.2522 15.6484Z"
    fill="#262626" />
  <path
    d="M108 17.1876C108 16.3376 107.311 15.6484 106.461 15.6484C105.611 15.6484 104.922 16.3376 104.922 17.1876V25.9098C104.922 26.7598 105.611 27.449 106.461 27.449C107.311 27.449 108 26.7598 108 25.9098V17.1876Z"
    fill="#262626" />
  <path
    d="M114.67 15.6484C115.52 15.6484 116.21 16.3376 116.21 17.1876V25.9098C116.21 26.7598 115.52 27.449 114.67 27.449C113.82 27.449 113.131 26.7598 113.131 25.9098V17.1876C113.131 16.3376 113.82 15.6484 114.67 15.6484Z"
    fill="#262626" />
  <path
    d="M124.419 17.1876C124.419 16.3376 123.729 15.6484 122.879 15.6484C122.029 15.6484 121.34 16.3376 121.34 17.1876V25.9098C121.34 26.7598 122.029 27.449 122.879 27.449C123.729 27.449 124.419 26.7598 124.419 25.9098V17.1876Z"
    fill="#262626" />
  <path
    d="M131.088 15.6484C131.939 15.6484 132.628 16.3376 132.628 17.1876V25.9098C132.628 26.7598 131.939 27.449 131.088 27.449C130.238 27.449 129.549 26.7598 129.549 25.9098V17.1876C129.549 16.3376 130.238 15.6484 131.088 15.6484Z"
    fill="#262626" />
  <path
    d="M140.837 17.1876C140.837 16.3376 140.148 15.6484 139.298 15.6484C138.447 15.6484 137.758 16.3376 137.758 17.1876V25.9098C137.758 26.7598 138.447 27.449 139.298 27.449C140.148 27.449 140.837 26.7598 140.837 25.9098V17.1876Z"
    fill="#262626" />
  <path
    d="M147.507 15.6484C148.357 15.6484 149.046 16.3376 149.046 17.1876V25.9098C149.046 26.7598 148.357 27.449 147.507 27.449C146.656 27.449 145.967 26.7598 145.967 25.9098V17.1876C145.967 16.3376 146.656 15.6484 147.507 15.6484Z"
    fill="#262626" />
  <path
    d="M157.255 17.1876C157.255 16.3376 156.566 15.6484 155.716 15.6484C154.866 15.6484 154.176 16.3376 154.176 17.1876V25.9098C154.176 26.7598 154.866 27.449 155.716 27.449C156.566 27.449 157.255 26.7598 157.255 25.9098V17.1876Z"
    fill="#262626" />
  <path
    d="M163.925 15.6484C164.775 15.6484 165.464 16.3376 165.464 17.1876V25.9098C165.464 26.7598 164.775 27.449 163.925 27.449C163.075 27.449 162.385 26.7598 162.385 25.9098V17.1876C162.385 16.3376 163.075 15.6484 163.925 15.6484Z"
    fill="#262626" />
  <path
    d="M173.673 17.1876C173.673 16.3376 172.984 15.6484 172.134 15.6484C171.284 15.6484 170.595 16.3376 170.595 17.1876V25.9098C170.595 26.7598 171.284 27.449 172.134 27.449C172.984 27.449 173.673 26.7598 173.673 25.9098V17.1876Z"
    fill="#262626" />
  <path
    d="M180.343 15.6484C181.193 15.6484 181.882 16.3376 181.882 17.1876V25.9098C181.882 26.7598 181.193 27.449 180.343 27.449C179.493 27.449 178.804 26.7598 178.804 25.9098V17.1876C178.804 16.3376 179.493 15.6484 180.343 15.6484Z"
    fill="#262626" />
  <path
    d="M190.091 17.1876C190.091 16.3376 189.402 15.6484 188.552 15.6484C187.702 15.6484 187.013 16.3376 187.013 17.1876V25.9098C187.013 26.7598 187.702 27.449 188.552 27.449C189.402 27.449 190.091 26.7598 190.091 25.9098V17.1876Z"
    fill="#262626" />
  <path
    d="M196.761 15.6484C197.611 15.6484 198.3 16.3376 198.3 17.1876V25.9098C198.3 26.7598 197.611 27.449 196.761 27.449C195.911 27.449 195.222 26.7598 195.222 25.9098V17.1876C195.222 16.3376 195.911 15.6484 196.761 15.6484Z"
    fill="#262626" />
  <path
    d="M206.509 17.1876C206.509 16.3376 205.82 15.6484 204.97 15.6484C204.12 15.6484 203.431 16.3376 203.431 17.1876V25.9098C203.431 26.7598 204.12 27.449 204.97 27.449C205.82 27.449 206.509 26.7598 206.509 25.9098V17.1876Z"
    fill="#262626" />
  <path
    d="M213.179 15.6484C214.029 15.6484 214.718 16.3376 214.718 17.1876V25.9098C214.718 26.7598 214.029 27.449 213.179 27.449C212.329 27.449 211.64 26.7598 211.64 25.9098V17.1876C211.64 16.3376 212.329 15.6484 213.179 15.6484Z"
    fill="#262626" />
  <path
    d="M222.927 17.1876C222.927 16.3376 222.238 15.6484 221.388 15.6484C220.538 15.6484 219.849 16.3376 219.849 17.1876V25.9098C219.849 26.7598 220.538 27.449 221.388 27.449C222.238 27.449 222.927 26.7598 222.927 25.9098V17.1876Z"
    fill="#262626" />
  <path
    d="M229.597 15.6484C230.447 15.6484 231.136 16.3376 231.136 17.1876V25.9098C231.136 26.7598 230.447 27.449 229.597 27.449C228.747 27.449 228.058 26.7598 228.058 25.9098V17.1876C228.058 16.3376 228.747 15.6484 229.597 15.6484Z"
    fill="#262626" />
  <path
    d="M239.345 17.1876C239.345 16.3376 238.656 15.6484 237.806 15.6484C236.956 15.6484 236.267 16.3376 236.267 17.1876V25.9098C236.267 26.7598 236.956 27.449 237.806 27.449C238.656 27.449 239.345 26.7598 239.345 25.9098V17.1876Z"
    fill="#262626" />
  <path
    d="M247.555 17.1876C247.555 16.3376 246.865 15.6484 246.015 15.6484C245.165 15.6484 244.476 16.3376 244.476 17.1876V25.9098C244.476 26.7598 245.165 27.449 246.015 27.449C246.865 27.449 247.555 26.7598 247.555 25.9098V17.1876Z"
    fill="#262626" />
  <path
    d="M258.329 248.837C259.179 248.837 259.868 248.148 259.868 247.298C259.868 246.448 259.179 245.759 258.329 245.759H249.607C248.757 245.759 248.068 246.448 248.068 247.298C248.068 248.148 248.757 248.837 249.607 248.837H258.329Z"
    fill="#262626" />
  <path
    d="M259.868 239.089C259.868 239.939 259.179 240.628 258.329 240.628H249.607C248.757 240.628 248.068 239.939 248.068 239.089C248.068 238.239 248.757 237.55 249.607 237.55H258.329C259.179 237.55 259.868 238.239 259.868 239.089Z"
    fill="#262626" />
  <path
    d="M258.329 232.419C259.179 232.419 259.868 231.73 259.868 230.88C259.868 230.03 259.179 229.341 258.329 229.341H249.607C248.757 229.341 248.068 230.03 248.068 230.88C248.068 231.73 248.757 232.419 249.607 232.419H258.329Z"
    fill="#262626" />
  <path
    d="M259.868 222.671C259.868 223.521 259.179 224.21 258.329 224.21H249.607C248.757 224.21 248.068 223.521 248.068 222.671C248.068 221.821 248.757 221.132 249.607 221.132H258.329C259.179 221.132 259.868 221.821 259.868 222.671Z"
    fill="#262626" />
  <path
    d="M258.329 216.001C259.179 216.001 259.868 215.312 259.868 214.462C259.868 213.612 259.179 212.923 258.329 212.923H249.607C248.757 212.923 248.068 213.612 248.068 214.462C248.068 215.312 248.757 216.001 249.607 216.001H258.329Z"
    fill="#262626" />
  <path
    d="M259.868 206.253C259.868 207.103 259.179 207.792 258.329 207.792H249.607C248.757 207.792 248.068 207.103 248.068 206.253C248.068 205.403 248.757 204.714 249.607 204.714H258.329C259.179 204.714 259.868 205.403 259.868 206.253Z"
    fill="#262626" />
  <path
    d="M258.329 199.583C259.179 199.583 259.868 198.894 259.868 198.044C259.868 197.194 259.179 196.504 258.329 196.504H249.607C248.757 196.504 248.068 197.194 248.068 198.044C248.068 198.894 248.757 199.583 249.607 199.583H258.329Z"
    fill="#262626" />
  <path
    d="M259.868 189.835C259.868 190.685 259.179 191.374 258.329 191.374H249.607C248.757 191.374 248.068 190.685 248.068 189.835C248.068 188.984 248.757 188.295 249.607 188.295H258.329C259.179 188.295 259.868 188.984 259.868 189.835Z"
    fill="#262626" />
  <path
    d="M258.329 183.165C259.179 183.165 259.868 182.476 259.868 181.626C259.868 180.775 259.179 180.086 258.329 180.086H249.607C248.757 180.086 248.068 180.775 248.068 181.626C248.068 182.476 248.757 183.165 249.607 183.165H258.329Z"
    fill="#262626" />
  <path
    d="M259.868 173.416C259.868 174.267 259.179 174.956 258.329 174.956H249.607C248.757 174.956 248.068 174.267 248.068 173.416C248.068 172.566 248.757 171.877 249.607 171.877H258.329C259.179 171.877 259.868 172.566 259.868 173.416Z"
    fill="#262626" />
  <path
    d="M258.329 166.747C259.179 166.747 259.868 166.057 259.868 165.207C259.868 164.357 259.179 163.668 258.329 163.668H249.607C248.757 163.668 248.068 164.357 248.068 165.207C248.068 166.057 248.757 166.747 249.607 166.747H258.329Z"
    fill="#262626" />
  <path
    d="M259.868 156.998C259.868 157.848 259.179 158.538 258.329 158.538H249.607C248.757 158.538 248.068 157.848 248.068 156.998C248.068 156.148 248.757 155.459 249.607 155.459H258.329C259.179 155.459 259.868 156.148 259.868 156.998Z"
    fill="#262626" />
  <path
    d="M258.329 150.328C259.179 150.328 259.868 149.639 259.868 148.789C259.868 147.939 259.179 147.25 258.329 147.25H249.607C248.757 147.25 248.068 147.939 248.068 148.789C248.068 149.639 248.757 150.328 249.607 150.328H258.329Z"
    fill="#262626" />
  <path
    d="M259.868 140.58C259.868 141.43 259.179 142.119 258.329 142.119H249.607C248.757 142.119 248.068 141.43 248.068 140.58C248.068 139.73 248.757 139.041 249.607 139.041H258.329C259.179 139.041 259.868 139.73 259.868 140.58Z"
    fill="#262626" />
  <path
    d="M258.329 133.91C259.179 133.91 259.868 133.221 259.868 132.371C259.868 131.521 259.179 130.832 258.329 130.832H249.607C248.757 130.832 248.068 131.521 248.068 132.371C248.068 133.221 248.757 133.91 249.607 133.91H258.329Z"
    fill="#262626" />
  <path
    d="M259.868 124.162C259.868 125.012 259.179 125.701 258.329 125.701H249.607C248.757 125.701 248.068 125.012 248.068 124.162C248.068 123.312 248.757 122.623 249.607 122.623H258.329C259.179 122.623 259.868 123.312 259.868 124.162Z"
    fill="#262626" />
  <path
    d="M258.329 117.492C259.179 117.492 259.868 116.803 259.868 115.953C259.868 115.103 259.179 114.414 258.329 114.414H249.607C248.757 114.414 248.068 115.103 248.068 115.953C248.068 116.803 248.757 117.492 249.607 117.492H258.329Z"
    fill="#262626" />
  <path
    d="M259.868 107.744C259.868 108.594 259.179 109.283 258.329 109.283H249.607C248.757 109.283 248.068 108.594 248.068 107.744C248.068 106.894 248.757 106.205 249.607 106.205H258.329C259.179 106.205 259.868 106.894 259.868 107.744Z"
    fill="#262626" />
  <path
    d="M258.329 101.074C259.179 101.074 259.868 100.385 259.868 99.5348C259.868 98.6848 259.179 97.9956 258.329 97.9956H249.607C248.757 97.9956 248.068 98.6848 248.068 99.5348C248.068 100.385 248.757 101.074 249.607 101.074H258.329Z"
    fill="#262626" />
  <path
    d="M259.868 91.3258C259.868 92.1758 259.179 92.865 258.329 92.865H249.607C248.757 92.865 248.068 92.1758 248.068 91.3258C248.068 90.4757 248.757 89.7866 249.607 89.7866H258.329C259.179 89.7866 259.868 90.4757 259.868 91.3258Z"
    fill="#262626" />
  <path
    d="M258.329 84.6559C259.179 84.6559 259.868 83.9668 259.868 83.1167C259.868 82.2666 259.179 81.5775 258.329 81.5775H249.607C248.757 81.5775 248.068 82.2666 248.068 83.1167C248.068 83.9668 248.757 84.6559 249.607 84.6559H258.329Z"
    fill="#262626" />
  <path
    d="M259.868 74.9076C259.868 75.7577 259.179 76.4468 258.329 76.4468H249.607C248.757 76.4468 248.068 75.7577 248.068 74.9076C248.068 74.0576 248.757 73.3684 249.607 73.3684H258.329C259.179 73.3684 259.868 74.0576 259.868 74.9076Z"
    fill="#262626" />
  <path
    d="M258.329 68.2378C259.179 68.2378 259.868 67.5486 259.868 66.6986C259.868 65.8485 259.179 65.1594 258.329 65.1594H249.607C248.757 65.1594 248.068 65.8485 248.068 66.6986C248.068 67.5486 248.757 68.2378 249.607 68.2378H258.329Z"
    fill="#262626" />
  <path
    d="M259.868 58.4895C259.868 59.3396 259.179 60.0287 258.329 60.0287H249.607C248.757 60.0287 248.068 59.3396 248.068 58.4895C248.068 57.6394 248.757 56.9503 249.607 56.9503H258.329C259.179 56.9503 259.868 57.6394 259.868 58.4895Z"
    fill="#262626" />
  <path
    d="M258.329 51.8196C259.179 51.8196 259.868 51.1305 259.868 50.2804C259.868 49.4304 259.179 48.7412 258.329 48.7412H249.607C248.757 48.7412 248.068 49.4304 248.068 50.2804C248.068 51.1305 248.757 51.8196 249.607 51.8196H258.329Z"
    fill="#262626" />
  <path
    d="M259.868 42.0714C259.868 42.9214 259.179 43.6106 258.329 43.6106H249.607C248.757 43.6106 248.068 42.9214 248.068 42.0714C248.068 41.2213 248.757 40.5322 249.607 40.5322H258.329C259.179 40.5322 259.868 41.2213 259.868 42.0714Z"
    fill="#262626" />
  <path
    d="M258.329 35.4015C259.179 35.4015 259.868 34.7124 259.868 33.8623C259.868 33.0122 259.179 32.3231 258.329 32.3231H249.607C248.757 32.3231 248.068 33.0122 248.068 33.8623C248.068 34.7124 248.757 35.4015 249.607 35.4015H258.329Z"
    fill="#262626" />
  <path
    d="M29.5012 262.69C28.6512 262.69 27.962 262.001 27.962 261.151L27.962 252.429C27.962 251.579 28.6512 250.889 29.5012 250.889C30.3513 250.889 31.0404 251.579 31.0404 252.429L31.0404 261.151C31.0404 262.001 30.3513 262.69 29.5012 262.69Z"
    fill="#262626" />
  <path
    d="M36.1711 261.151C36.1711 262.001 36.8602 262.69 37.7103 262.69C38.5604 262.69 39.2495 262.001 39.2495 261.151V252.429C39.2495 251.579 38.5604 250.889 37.7103 250.889C36.8602 250.889 36.1711 251.579 36.1711 252.429V261.151Z"
    fill="#262626" />
  <path
    d="M45.9194 262.69C45.0693 262.69 44.3802 262.001 44.3802 261.151L44.3802 252.429C44.3802 251.579 45.0693 250.889 45.9194 250.889C46.7694 250.889 47.4586 251.579 47.4586 252.429L47.4586 261.151C47.4586 262.001 46.7694 262.69 45.9194 262.69Z"
    fill="#262626" />
  <path
    d="M52.5892 261.151C52.5892 262.001 53.2784 262.69 54.1284 262.69C54.9785 262.69 55.6676 262.001 55.6676 261.151V252.429C55.6676 251.579 54.9785 250.889 54.1284 250.889C53.2784 250.889 52.5892 251.579 52.5892 252.429V261.151Z"
    fill="#262626" />
  <path
    d="M62.3375 262.69C61.4874 262.69 60.7983 262.001 60.7983 261.151V252.429C60.7983 251.579 61.4874 250.889 62.3375 250.889C63.1876 250.889 63.8767 251.579 63.8767 252.429V261.151C63.8767 262.001 63.1876 262.69 62.3375 262.69Z"
    fill="#262626" />
  <path
    d="M69.0074 261.151C69.0074 262.001 69.6965 262.69 70.5466 262.69C71.3966 262.69 72.0858 262.001 72.0858 261.151V252.429C72.0858 251.579 71.3966 250.889 70.5466 250.889C69.6965 250.889 69.0074 251.579 69.0074 252.429V261.151Z"
    fill="#262626" />
  <path
    d="M78.7556 262.69C77.9056 262.69 77.2164 262.001 77.2164 261.151V252.429C77.2164 251.579 77.9056 250.889 78.7556 250.889C79.6057 250.889 80.2948 251.579 80.2948 252.429V261.151C80.2948 262.001 79.6057 262.69 78.7556 262.69Z"
    fill="#262626" />
  <path
    d="M85.4255 261.151C85.4255 262.001 86.1146 262.69 86.9647 262.69C87.8148 262.69 88.5039 262.001 88.5039 261.151V252.429C88.5039 251.579 87.8148 250.889 86.9647 250.889C86.1146 250.889 85.4255 251.579 85.4255 252.429V261.151Z"
    fill="#262626" />
  <path
    d="M95.1738 262.69C94.3237 262.69 93.6346 262.001 93.6346 261.151V252.429C93.6346 251.579 94.3237 250.889 95.1738 250.889C96.0238 250.889 96.713 251.579 96.713 252.429V261.151C96.713 262.001 96.0238 262.69 95.1738 262.69Z"
    fill="#262626" />
  <path
    d="M101.844 261.151C101.844 262.001 102.533 262.69 103.383 262.69C104.233 262.69 104.922 262.001 104.922 261.151V252.429C104.922 251.579 104.233 250.889 103.383 250.889C102.533 250.889 101.844 251.579 101.844 252.429V261.151Z"
    fill="#262626" />
  <path
    d="M111.592 262.69C110.742 262.69 110.053 262.001 110.053 261.151V252.429C110.053 251.579 110.742 250.889 111.592 250.889C112.442 250.889 113.131 251.579 113.131 252.429V261.151C113.131 262.001 112.442 262.69 111.592 262.69Z"
    fill="#262626" />
  <path
    d="M118.262 261.151C118.262 262.001 118.951 262.69 119.801 262.69C120.651 262.69 121.34 262.001 121.34 261.151V252.429C121.34 251.579 120.651 250.889 119.801 250.889C118.951 250.889 118.262 251.579 118.262 252.429V261.151Z"
    fill="#262626" />
  <path
    d="M128.01 262.69C127.16 262.69 126.471 262.001 126.471 261.151V252.429C126.471 251.579 127.16 250.889 128.01 250.889C128.86 250.889 129.549 251.579 129.549 252.429V261.151C129.549 262.001 128.86 262.69 128.01 262.69Z"
    fill="#262626" />
  <path
    d="M134.68 261.151C134.68 262.001 135.369 262.69 136.219 262.69C137.069 262.69 137.758 262.001 137.758 261.151V252.429C137.758 251.579 137.069 250.889 136.219 250.889C135.369 250.889 134.68 251.579 134.68 252.429V261.151Z"
    fill="#262626" />
  <path
    d="M144.428 262.69C143.578 262.69 142.889 262.001 142.889 261.151V252.429C142.889 251.579 143.578 250.889 144.428 250.889C145.278 250.889 145.967 251.579 145.967 252.429V261.151C145.967 262.001 145.278 262.69 144.428 262.69Z"
    fill="#262626" />
  <path
    d="M151.098 261.151C151.098 262.001 151.787 262.69 152.637 262.69C153.487 262.69 154.176 262.001 154.176 261.151V252.429C154.176 251.579 153.487 250.89 152.637 250.89C151.787 250.89 151.098 251.579 151.098 252.429V261.151Z"
    fill="#262626" />
  <path
    d="M160.846 262.69C159.996 262.69 159.307 262.001 159.307 261.151V252.429C159.307 251.579 159.996 250.89 160.846 250.89C161.696 250.89 162.385 251.579 162.385 252.429V261.151C162.385 262.001 161.696 262.69 160.846 262.69Z"
    fill="#262626" />
  <path
    d="M167.516 261.151C167.516 262.001 168.205 262.69 169.055 262.69C169.905 262.69 170.595 262.001 170.595 261.151V252.429C170.595 251.579 169.905 250.89 169.055 250.89C168.205 250.89 167.516 251.579 167.516 252.429V261.151Z"
    fill="#262626" />
  <path
    d="M177.264 262.69C176.414 262.69 175.725 262.001 175.725 261.151V252.429C175.725 251.579 176.414 250.89 177.264 250.89C178.115 250.89 178.804 251.579 178.804 252.429V261.151C178.804 262.001 178.115 262.69 177.264 262.69Z"
    fill="#262626" />
  <path
    d="M183.934 261.151C183.934 262.001 184.623 262.69 185.473 262.69C186.324 262.69 187.013 262.001 187.013 261.151V252.429C187.013 251.579 186.324 250.89 185.473 250.89C184.623 250.89 183.934 251.579 183.934 252.429V261.151Z"
    fill="#262626" />
  <path
    d="M193.683 262.69C192.832 262.69 192.143 262.001 192.143 261.151V252.429C192.143 251.579 192.832 250.89 193.683 250.89C194.533 250.89 195.222 251.579 195.222 252.429V261.151C195.222 262.001 194.533 262.69 193.683 262.69Z"
    fill="#262626" />
  <path
    d="M200.352 261.151C200.352 262.001 201.042 262.69 201.892 262.69C202.742 262.69 203.431 262.001 203.431 261.151V252.429C203.431 251.579 202.742 250.89 201.892 250.89C201.042 250.89 200.352 251.579 200.352 252.429V261.151Z"
    fill="#262626" />
  <path
    d="M210.101 262.69C209.251 262.69 208.561 262.001 208.561 261.151V252.429C208.561 251.579 209.251 250.89 210.101 250.89C210.951 250.89 211.64 251.579 211.64 252.429V261.151C211.64 262.001 210.951 262.69 210.101 262.69Z"
    fill="#262626" />
  <path
    d="M216.771 261.151C216.771 262.001 217.46 262.69 218.31 262.69C219.16 262.69 219.849 262.001 219.849 261.151V252.429C219.849 251.579 219.16 250.89 218.31 250.89C217.46 250.89 216.771 251.579 216.771 252.429V261.151Z"
    fill="#262626" />
  <path
    d="M226.519 262.69C225.669 262.69 224.98 262.001 224.98 261.151V252.429C224.98 251.579 225.669 250.89 226.519 250.89C227.369 250.89 228.058 251.579 228.058 252.429V261.151C228.058 262.001 227.369 262.69 226.519 262.69Z"
    fill="#262626" />
  <path
    d="M233.189 261.151C233.189 262.001 233.878 262.69 234.728 262.69C235.578 262.69 236.267 262.001 236.267 261.151V252.429C236.267 251.579 235.578 250.89 234.728 250.89C233.878 250.89 233.189 251.579 233.189 252.429V261.151Z"
    fill="#262626" />
  <path
    d="M242.937 262.69C242.087 262.69 241.398 262.001 241.398 261.151V252.429C241.398 251.579 242.087 250.89 242.937 250.89C243.787 250.89 244.476 251.579 244.476 252.429V261.151C244.476 262.001 243.787 262.69 242.937 262.69Z"
    fill="#262626" />
  <path
    d="M17.1876 29.5012C16.3376 29.5012 15.6484 30.1904 15.6484 31.0404C15.6484 31.8905 16.3376 32.5796 17.1876 32.5796H25.9098C26.7598 32.5796 27.449 31.8905 27.449 31.0404C27.449 30.1904 26.7598 29.5012 25.9098 29.5012H17.1876Z"
    fill="#262626" />
  <path
    d="M17.1876 37.7103C16.3376 37.7103 15.6484 38.3994 15.6484 39.2495C15.6484 40.0996 16.3376 40.7887 17.1876 40.7887H25.9098C26.7598 40.7887 27.449 40.0996 27.449 39.2495C27.449 38.3994 26.7598 37.7103 25.9098 37.7103H17.1876Z"
    fill="#262626" />
  <path
    d="M15.6484 47.4586C15.6484 46.6085 16.3376 45.9194 17.1876 45.9194H25.9098C26.7598 45.9194 27.449 46.6085 27.449 47.4586C27.449 48.3086 26.7598 48.9978 25.9098 48.9978H17.1876C16.3376 48.9978 15.6484 48.3086 15.6484 47.4586Z"
    fill="#262626" />
  <path
    d="M17.1876 54.1284C16.3376 54.1284 15.6484 54.8176 15.6484 55.6676C15.6484 56.5177 16.3376 57.2068 17.1876 57.2068H25.9098C26.7598 57.2068 27.449 56.5177 27.449 55.6676C27.449 54.8176 26.7598 54.1284 25.9098 54.1284H17.1876Z"
    fill="#262626" />
  <path
    d="M15.6484 63.8767C15.6484 63.0266 16.3376 62.3375 17.1876 62.3375H25.9098C26.7598 62.3375 27.449 63.0266 27.449 63.8767C27.449 64.7268 26.7598 65.4159 25.9098 65.4159H17.1876C16.3376 65.4159 15.6484 64.7268 15.6484 63.8767Z"
    fill="#262626" />
  <path
    d="M17.1876 70.5466C16.3376 70.5466 15.6484 71.2357 15.6484 72.0858C15.6484 72.9358 16.3376 73.625 17.1876 73.625H25.9098C26.7598 73.625 27.449 72.9358 27.449 72.0858C27.449 71.2357 26.7598 70.5466 25.9098 70.5466H17.1876Z"
    fill="#262626" />
  <path
    d="M15.6484 80.2948C15.6484 79.4448 16.3376 78.7556 17.1876 78.7556H25.9098C26.7598 78.7556 27.449 79.4448 27.449 80.2948C27.449 81.1449 26.7598 81.834 25.9098 81.834H17.1876C16.3376 81.834 15.6484 81.1449 15.6484 80.2948Z"
    fill="#262626" />
  <path
    d="M17.1876 86.9647C16.3376 86.9647 15.6484 87.6538 15.6484 88.5039C15.6484 89.354 16.3376 90.0431 17.1876 90.0431H25.9098C26.7598 90.0431 27.449 89.354 27.449 88.5039C27.449 87.6538 26.7598 86.9647 25.9098 86.9647H17.1876Z"
    fill="#262626" />
  <path
    d="M15.6484 96.713C15.6484 95.8629 16.3376 95.1738 17.1876 95.1738H25.9098C26.7598 95.1738 27.449 95.8629 27.449 96.713C27.449 97.563 26.7598 98.2522 25.9098 98.2522H17.1876C16.3376 98.2522 15.6484 97.563 15.6484 96.713Z"
    fill="#262626" />
  <path
    d="M17.1876 103.383C16.3376 103.383 15.6484 104.072 15.6484 104.922C15.6484 105.772 16.3376 106.461 17.1876 106.461H25.9098C26.7598 106.461 27.449 105.772 27.449 104.922C27.449 104.072 26.7598 103.383 25.9098 103.383H17.1876Z"
    fill="#262626" />
  <path
    d="M15.6484 113.131C15.6484 112.281 16.3376 111.592 17.1876 111.592H25.9098C26.7598 111.592 27.449 112.281 27.449 113.131C27.449 113.981 26.7598 114.67 25.9098 114.67H17.1876C16.3376 114.67 15.6484 113.981 15.6484 113.131Z"
    fill="#262626" />
  <path
    d="M17.1876 119.801C16.3376 119.801 15.6484 120.49 15.6484 121.34C15.6484 122.19 16.3376 122.879 17.1876 122.879H25.9098C26.7598 122.879 27.449 122.19 27.449 121.34C27.449 120.49 26.7598 119.801 25.9098 119.801H17.1876Z"
    fill="#262626" />
  <path
    d="M15.6484 129.549C15.6484 128.699 16.3376 128.01 17.1876 128.01H25.9098C26.7598 128.01 27.449 128.699 27.449 129.549C27.449 130.399 26.7598 131.088 25.9098 131.088H17.1876C16.3376 131.088 15.6484 130.399 15.6484 129.549Z"
    fill="#262626" />
  <path
    d="M17.1876 136.219C16.3376 136.219 15.6484 136.908 15.6484 137.758C15.6484 138.608 16.3376 139.298 17.1876 139.298H25.9098C26.7598 139.298 27.449 138.608 27.449 137.758C27.449 136.908 26.7598 136.219 25.9098 136.219H17.1876Z"
    fill="#262626" />
  <path
    d="M15.6484 145.967C15.6484 145.117 16.3376 144.428 17.1876 144.428H25.9098C26.7598 144.428 27.449 145.117 27.449 145.967C27.449 146.817 26.7598 147.507 25.9098 147.507H17.1876C16.3376 147.507 15.6484 146.817 15.6484 145.967Z"
    fill="#262626" />
  <path
    d="M17.1876 152.637C16.3376 152.637 15.6484 153.326 15.6484 154.176C15.6484 155.027 16.3376 155.716 17.1876 155.716H25.9098C26.7598 155.716 27.449 155.027 27.449 154.176C27.449 153.326 26.7598 152.637 25.9098 152.637H17.1876Z"
    fill="#262626" />
  <path
    d="M15.6484 162.385C15.6484 161.535 16.3376 160.846 17.1876 160.846H25.9098C26.7598 160.846 27.449 161.535 27.449 162.385C27.449 163.236 26.7598 163.925 25.9098 163.925H17.1876C16.3376 163.925 15.6484 163.236 15.6484 162.385Z"
    fill="#262626" />
  <path
    d="M17.1876 169.055C16.3376 169.055 15.6484 169.744 15.6484 170.595C15.6484 171.445 16.3376 172.134 17.1876 172.134H25.9098C26.7598 172.134 27.449 171.445 27.449 170.595C27.449 169.744 26.7598 169.055 25.9098 169.055H17.1876Z"
    fill="#262626" />
  <path
    d="M15.6484 178.804C15.6484 177.954 16.3376 177.264 17.1876 177.264H25.9098C26.7598 177.264 27.449 177.954 27.449 178.804C27.449 179.654 26.7598 180.343 25.9098 180.343H17.1876C16.3376 180.343 15.6484 179.654 15.6484 178.804Z"
    fill="#262626" />
  <path
    d="M17.1876 185.473C16.3376 185.473 15.6484 186.163 15.6484 187.013C15.6484 187.863 16.3376 188.552 17.1876 188.552H25.9098C26.7598 188.552 27.449 187.863 27.449 187.013C27.449 186.163 26.7598 185.473 25.9098 185.473H17.1876Z"
    fill="#262626" />
  <path
    d="M15.6484 195.222C15.6484 194.372 16.3376 193.683 17.1876 193.683H25.9098C26.7598 193.683 27.449 194.372 27.449 195.222C27.449 196.072 26.7598 196.761 25.9098 196.761H17.1876C16.3376 196.761 15.6484 196.072 15.6484 195.222Z"
    fill="#262626" />
  <path
    d="M17.1876 201.892C16.3376 201.892 15.6484 202.581 15.6484 203.431C15.6484 204.281 16.3376 204.97 17.1876 204.97H25.9098C26.7598 204.97 27.449 204.281 27.449 203.431C27.449 202.581 26.7598 201.892 25.9098 201.892H17.1876Z"
    fill="#262626" />
  <path
    d="M15.6484 211.64C15.6484 210.79 16.3376 210.101 17.1876 210.101H25.9098C26.7598 210.101 27.449 210.79 27.449 211.64C27.449 212.49 26.7598 213.179 25.9098 213.179H17.1876C16.3376 213.179 15.6484 212.49 15.6484 211.64Z"
    fill="#262626" />
  <path
    d="M17.1876 218.31C16.3376 218.31 15.6484 218.999 15.6484 219.849C15.6484 220.699 16.3376 221.388 17.1876 221.388H25.9098C26.7598 221.388 27.449 220.699 27.449 219.849C27.449 218.999 26.7598 218.31 25.9098 218.31H17.1876Z"
    fill="#262626" />
  <path
    d="M15.6484 228.058C15.6484 227.208 16.3376 226.519 17.1876 226.519H25.9098C26.7598 226.519 27.449 227.208 27.449 228.058C27.449 228.908 26.7598 229.597 25.9098 229.597H17.1876C16.3376 229.597 15.6484 228.908 15.6484 228.058Z"
    fill="#262626" />
  <path
    d="M17.1876 234.728C16.3376 234.728 15.6484 235.417 15.6484 236.267C15.6484 237.117 16.3376 237.806 17.1876 237.806H25.9098C26.7598 237.806 27.449 237.117 27.449 236.267C27.449 235.417 26.7598 234.728 25.9098 234.728H17.1876Z"
    fill="#262626" />
  <path
    d="M15.6484 244.476C15.6484 243.626 16.3376 242.937 17.1876 242.937H25.9098C26.7598 242.937 27.449 243.626 27.449 244.476C27.449 245.326 26.7598 246.015 25.9098 246.015H17.1876C16.3376 246.015 15.6484 245.326 15.6484 244.476Z"
    fill="#262626" />
  <rect x="36" y="36" width="207.174" height="207.174" rx="27.6533" fill="#252525"
    fill-opacity="0.1" stroke="url(#paint4_angular_3933_5589)" stroke-width="4" />
  <path opacity="0.3"
    d="M52.6676 48.5216L51.5234 47.3774L50.3793 48.5216L51.5234 49.6657L52.6676 48.5216Z"
    fill="#83D2ED" />
  <path opacity="0.3"
    d="M67.0504 48.5216L65.9062 47.3774L64.7621 48.5216L65.9062 49.6657L67.0504 48.5216Z"
    fill="#83D2ED" />
  <path opacity="0.3"
    d="M81.4332 48.5216L80.2891 47.3774L79.1449 48.5216L80.2891 49.6657L81.4332 48.5216Z"
    fill="#83D2ED" />
  <path d="M95.816 48.5216L94.6719 47.3774L93.5277 48.5216L94.6719 49.6657L95.816 48.5216Z"
    fill="#83D2ED" />
  <path opacity="0.3"
    d="M110.199 48.5216L109.055 47.3774L107.911 48.5216L109.055 49.6657L110.199 48.5216Z"
    fill="#83D2ED" />
  <path opacity="0.3"
    d="M124.582 48.5216L123.438 47.3774L122.293 48.5216L123.438 49.6657L124.582 48.5216Z"
    fill="#83D2ED" />
  <path opacity="0.3"
    d="M138.964 48.5216L137.82 47.3774L136.676 48.5216L137.82 49.6657L138.964 48.5216Z"
    fill="#83D2ED" />
  <path opacity="0.3"
    d="M153.347 48.5216L152.203 47.3774L151.059 48.5216L152.203 49.6657L153.347 48.5216Z"
    fill="#83D2ED" />
  <path opacity="0.3"
    d="M167.73 48.5216L166.586 47.3774L165.442 48.5216L166.586 49.6657L167.73 48.5216Z"
    fill="#83D2ED" />
  <path opacity="0.3"
    d="M182.113 48.5216L180.969 47.3774L179.825 48.5216L180.969 49.6657L182.113 48.5216Z"
    fill="#83D2ED" />
  <path opacity="0.3"
    d="M196.496 48.5216L195.352 47.3774L194.207 48.5216L195.352 49.6657L196.496 48.5216Z"
    fill="#83D2ED" />
  <path opacity="0.3"
    d="M210.879 48.5216L209.734 47.3774L208.59 48.5216L209.734 49.6657L210.879 48.5216Z"
    fill="#83D2ED" />
  <path opacity="0.3"
    d="M225.261 48.5216L224.117 47.3774L222.973 48.5216L224.117 49.6657L225.261 48.5216Z"
    fill="#83D2ED" />
  <path opacity="0.3"
    d="M52.6676 62.9044L51.5234 61.7603L50.3793 62.9044L51.5234 64.0486L52.6676 62.9044Z"
    fill="#83D2ED" />
  <path opacity="0.3"
    d="M67.0504 62.9044L65.9062 61.7603L64.7621 62.9044L65.9062 64.0486L67.0504 62.9044Z"
    fill="#83D2ED" />
  <path opacity="0.3"
    d="M81.4332 62.9044L80.2891 61.7603L79.1449 62.9044L80.2891 64.0486L81.4332 62.9044Z"
    fill="#83D2ED" />
  <path opacity="0.3"
    d="M95.816 62.9044L94.6719 61.7603L93.5277 62.9044L94.6719 64.0486L95.816 62.9044Z"
    fill="#83D2ED" />
  <path opacity="0.3"
    d="M110.199 62.9044L109.055 61.7603L107.911 62.9044L109.055 64.0486L110.199 62.9044Z"
    fill="#83D2ED" />
  <path opacity="0.3"
    d="M124.582 62.9044L123.438 61.7603L122.293 62.9044L123.438 64.0486L124.582 62.9044Z"
    fill="#83D2ED" />
  <path opacity="0.3"
    d="M138.964 62.9044L137.82 61.7603L136.676 62.9044L137.82 64.0486L138.964 62.9044Z"
    fill="#83D2ED" />
  <path d="M153.347 62.9044L152.203 61.7603L151.059 62.9044L152.203 64.0486L153.347 62.9044Z"
    fill="#83D2ED" />
  <path opacity="0.3"
    d="M167.73 62.9044L166.586 61.7603L165.442 62.9044L166.586 64.0486L167.73 62.9044Z"
    fill="#83D2ED" />
  <path opacity="0.3"
    d="M182.113 62.9044L180.969 61.7603L179.825 62.9044L180.969 64.0486L182.113 62.9044Z"
    fill="#83D2ED" />
  <path d="M196.496 62.9044L195.352 61.7603L194.207 62.9044L195.352 64.0486L196.496 62.9044Z"
    fill="#83D2ED" />
  <path opacity="0.3"
    d="M210.879 62.9044L209.734 61.7603L208.59 62.9044L209.734 64.0486L210.879 62.9044Z"
    fill="#83D2ED" />
  <path opacity="0.3"
    d="M225.261 62.9044L224.117 61.7603L222.973 62.9044L224.117 64.0486L225.261 62.9044Z"
    fill="#83D2ED" />
  <path opacity="0.3"
    d="M52.6676 77.2872L51.5234 76.1431L50.3793 77.2872L51.5234 78.4314L52.6676 77.2872Z"
    fill="#83D2ED" />
  <path opacity="0.3"
    d="M67.0504 77.2872L65.9062 76.1431L64.7621 77.2872L65.9062 78.4314L67.0504 77.2872Z"
    fill="#83D2ED" />
  <path d="M81.4332 77.2872L80.2891 76.1431L79.1449 77.2872L80.2891 78.4314L81.4332 77.2872Z"
    fill="#83D2ED" />
  <path opacity="0.3"
    d="M95.816 77.2872L94.6719 76.1431L93.5277 77.2872L94.6719 78.4314L95.816 77.2872Z"
    fill="#83D2ED" />
  <path opacity="0.3"
    d="M110.199 77.2872L109.055 76.1431L107.911 77.2872L109.055 78.4314L110.199 77.2872Z"
    fill="#83D2ED" />
  <path opacity="0.3"
    d="M124.582 77.2872L123.438 76.1431L122.293 77.2872L123.438 78.4314L124.582 77.2872Z"
    fill="#83D2ED" />
  <path opacity="0.3"
    d="M138.964 77.2872L137.82 76.1431L136.676 77.2872L137.82 78.4314L138.964 77.2872Z"
    fill="#83D2ED" />
  <path opacity="0.3"
    d="M153.347 77.2872L152.203 76.1431L151.059 77.2872L152.203 78.4314L153.347 77.2872Z"
    fill="#83D2ED" />
  <path opacity="0.3"
    d="M167.73 77.2872L166.586 76.1431L165.442 77.2872L166.586 78.4314L167.73 77.2872Z"
    fill="#83D2ED" />
  <path opacity="0.3"
    d="M182.113 77.2872L180.969 76.1431L179.825 77.2872L180.969 78.4314L182.113 77.2872Z"
    fill="#83D2ED" />
  <path opacity="0.3"
    d="M196.496 77.2872L195.352 76.1431L194.207 77.2872L195.352 78.4314L196.496 77.2872Z"
    fill="#83D2ED" />
  <path d="M210.879 77.2872L209.734 76.1431L208.59 77.2872L209.734 78.4314L210.879 77.2872Z"
    fill="#83D2ED" />
  <path opacity="0.3"
    d="M225.261 77.2872L224.117 76.1431L222.973 77.2872L224.117 78.4314L225.261 77.2872Z"
    fill="#83D2ED" />
  <path opacity="0.3"
    d="M52.6676 91.67L51.5234 90.5259L50.3793 91.67L51.5234 92.8142L52.6676 91.67Z" fill="#83D2ED" />
  <path d="M67.0504 91.67L65.9062 90.5259L64.7621 91.67L65.9062 92.8142L67.0504 91.67Z"
    fill="#83D2ED" />
  <path opacity="0.3"
    d="M81.4332 91.67L80.2891 90.5259L79.1449 91.67L80.2891 92.8142L81.4332 91.67Z" fill="#83D2ED" />
  <path opacity="0.3"
    d="M196.496 91.67L195.352 90.5259L194.207 91.67L195.352 92.8142L196.496 91.67Z" fill="#83D2ED" />
  <path opacity="0.3" d="M210.879 91.67L209.734 90.5259L208.59 91.67L209.734 92.8142L210.879 91.67Z"
    fill="#83D2ED" />
  <path opacity="0.3"
    d="M225.261 91.67L224.117 90.5259L222.973 91.67L224.117 92.8142L225.261 91.67Z" fill="#83D2ED" />
  <path opacity="0.3"
    d="M52.6676 106.053L51.5234 104.909L50.3793 106.053L51.5234 107.197L52.6676 106.053Z"
    fill="#83D2ED" />
  <path opacity="0.3"
    d="M67.0504 106.053L65.9062 104.909L64.7621 106.053L65.9062 107.197L67.0504 106.053Z"
    fill="#83D2ED" />
  <path opacity="0.3"
    d="M81.4332 106.053L80.2891 104.909L79.1449 106.053L80.2891 107.197L81.4332 106.053Z"
    fill="#83D2ED" />
  <path d="M196.496 106.053L195.352 104.909L194.207 106.053L195.352 107.197L196.496 106.053Z"
    fill="#83D2ED" />
  <path opacity="0.3"
    d="M210.879 106.053L209.734 104.909L208.59 106.053L209.734 107.197L210.879 106.053Z"
    fill="#83D2ED" />
  <path opacity="0.3"
    d="M225.261 106.053L224.117 104.909L222.973 106.053L224.117 107.197L225.261 106.053Z"
    fill="#83D2ED" />
  <path opacity="0.3"
    d="M52.6676 120.436L51.5234 119.292L50.3793 120.436L51.5234 121.58L52.6676 120.436Z"
    fill="#83D2ED" />
  <path opacity="0.3"
    d="M67.0504 120.436L65.9062 119.292L64.7621 120.436L65.9062 121.58L67.0504 120.436Z"
    fill="#83D2ED" />
  <path opacity="0.3"
    d="M81.4332 120.436L80.2891 119.292L79.1449 120.436L80.2891 121.58L81.4332 120.436Z"
    fill="#83D2ED" />
  <path opacity="0.3"
    d="M196.496 120.436L195.352 119.292L194.207 120.436L195.352 121.58L196.496 120.436Z"
    fill="#83D2ED" />
  <path opacity="0.3"
    d="M210.879 120.436L209.734 119.292L208.59 120.436L209.734 121.58L210.879 120.436Z"
    fill="#83D2ED" />
  <path opacity="0.3"
    d="M225.261 120.436L224.117 119.292L222.973 120.436L224.117 121.58L225.261 120.436Z"
    fill="#83D2ED" />
  <path opacity="0.3"
    d="M52.6676 134.819L51.5234 133.675L50.3793 134.819L51.5234 135.963L52.6676 134.819Z"
    fill="#83D2ED" />
  <path opacity="0.3"
    d="M67.0504 134.819L65.9062 133.675L64.7621 134.819L65.9062 135.963L67.0504 134.819Z"
    fill="#83D2ED" />
  <path opacity="0.3"
    d="M81.4332 134.819L80.2891 133.675L79.1449 134.819L80.2891 135.963L81.4332 134.819Z"
    fill="#83D2ED" />
  <path opacity="0.3"
    d="M196.496 134.819L195.352 133.675L194.207 134.819L195.352 135.963L196.496 134.819Z"
    fill="#83D2ED" />
  <path opacity="0.3"
    d="M210.879 134.819L209.734 133.675L208.59 134.819L209.734 135.963L210.879 134.819Z"
    fill="#83D2ED" />
  <path opacity="0.3"
    d="M225.261 134.819L224.117 133.675L222.973 134.819L224.117 135.963L225.261 134.819Z"
    fill="#83D2ED" />
  <path opacity="0.3"
    d="M52.6676 149.202L51.5234 148.058L50.3793 149.202L51.5234 150.346L52.6676 149.202Z"
    fill="#83D2ED" />
  <path d="M67.0504 149.202L65.9062 148.058L64.7621 149.202L65.9062 150.346L67.0504 149.202Z"
    fill="#83D2ED" />
  <path opacity="0.3"
    d="M81.4332 149.202L80.2891 148.058L79.1449 149.202L80.2891 150.346L81.4332 149.202Z"
    fill="#83D2ED" />
  <path opacity="0.3"
    d="M196.496 149.202L195.352 148.058L194.207 149.202L195.352 150.346L196.496 149.202Z"
    fill="#83D2ED" />
  <path opacity="0.3"
    d="M210.879 149.202L209.734 148.058L208.59 149.202L209.734 150.346L210.879 149.202Z"
    fill="#83D2ED" />
  <path opacity="0.3"
    d="M225.261 149.202L224.117 148.058L222.973 149.202L224.117 150.346L225.261 149.202Z"
    fill="#83D2ED" />
  <path opacity="0.3"
    d="M52.6676 163.585L51.5234 162.44L50.3793 163.585L51.5234 164.729L52.6676 163.585Z"
    fill="#83D2ED" />
  <path opacity="0.3"
    d="M67.0504 163.585L65.9062 162.44L64.7621 163.585L65.9062 164.729L67.0504 163.585Z"
    fill="#83D2ED" />
  <path opacity="0.3"
    d="M81.4332 163.585L80.2891 162.44L79.1449 163.585L80.2891 164.729L81.4332 163.585Z"
    fill="#83D2ED" />
  <path opacity="0.3"
    d="M196.496 163.585L195.352 162.44L194.207 163.585L195.352 164.729L196.496 163.585Z"
    fill="#83D2ED" />
  <path opacity="0.3"
    d="M210.879 163.585L209.734 162.44L208.59 163.585L209.734 164.729L210.879 163.585Z"
    fill="#83D2ED" />
  <path opacity="0.3"
    d="M225.261 163.585L224.117 162.44L222.973 163.585L224.117 164.729L225.261 163.585Z"
    fill="#83D2ED" />
  <path opacity="0.3"
    d="M52.6676 177.967L51.5234 176.823L50.3793 177.967L51.5234 179.112L52.6676 177.967Z"
    fill="#83D2ED" />
  <path d="M67.0504 177.967L65.9062 176.823L64.7621 177.967L65.9062 179.112L67.0504 177.967Z"
    fill="#83D2ED" />
  <path opacity="0.3"
    d="M81.4332 177.967L80.2891 176.823L79.1449 177.967L80.2891 179.112L81.4332 177.967Z"
    fill="#83D2ED" />
  <path opacity="0.3"
    d="M196.496 177.967L195.352 176.823L194.207 177.967L195.352 179.112L196.496 177.967Z"
    fill="#83D2ED" />
  <path opacity="0.3"
    d="M210.879 177.967L209.734 176.823L208.59 177.967L209.734 179.112L210.879 177.967Z"
    fill="#83D2ED" />
  <path opacity="0.3"
    d="M225.261 177.967L224.117 176.823L222.973 177.967L224.117 179.112L225.261 177.967Z"
    fill="#83D2ED" />
  <path opacity="0.3"
    d="M52.6676 192.351L51.5234 191.207L50.3793 192.351L51.5234 193.495L52.6676 192.351Z"
    fill="#83D2ED" />
  <path d="M67.0504 192.351L65.9062 191.207L64.7621 192.351L65.9062 193.495L67.0504 192.351Z"
    fill="#83D2ED" />
  <path opacity="0.3"
    d="M81.4332 192.351L80.2891 191.207L79.1449 192.351L80.2891 193.495L81.4332 192.351Z"
    fill="#83D2ED" />
  <path opacity="0.3"
    d="M196.496 192.351L195.352 191.207L194.207 192.351L195.352 193.495L196.496 192.351Z"
    fill="#83D2ED" />
  <path d="M210.879 192.351L209.734 191.207L208.59 192.351L209.734 193.495L210.879 192.351Z"
    fill="#83D2ED" />
  <path opacity="0.3"
    d="M225.261 192.351L224.117 191.207L222.973 192.351L224.117 193.495L225.261 192.351Z"
    fill="#83D2ED" />
  <path opacity="0.3"
    d="M52.6676 206.734L51.5234 205.589L50.3793 206.734L51.5234 207.878L52.6676 206.734Z"
    fill="#83D2ED" />
  <path d="M67.0504 206.734L65.9062 205.589L64.7621 206.734L65.9062 207.878L67.0504 206.734Z"
    fill="#83D2ED" />
  <path opacity="0.3"
    d="M81.4332 206.734L80.2891 205.589L79.1449 206.734L80.2891 207.878L81.4332 206.734Z"
    fill="#83D2ED" />
  <path opacity="0.3"
    d="M95.816 206.734L94.6719 205.589L93.5277 206.734L94.6719 207.878L95.816 206.734Z"
    fill="#83D2ED" />
  <path opacity="0.3"
    d="M110.199 206.734L109.055 205.589L107.911 206.734L109.055 207.878L110.199 206.734Z"
    fill="#83D2ED" />
  <path opacity="0.3"
    d="M124.582 206.734L123.438 205.589L122.293 206.734L123.438 207.878L124.582 206.734Z"
    fill="#83D2ED" />
  <path opacity="0.3"
    d="M138.964 206.734L137.82 205.589L136.676 206.734L137.82 207.878L138.964 206.734Z"
    fill="#83D2ED" />
  <path d="M153.347 206.734L152.203 205.589L151.059 206.734L152.203 207.878L153.347 206.734Z"
    fill="#83D2ED" />
  <path opacity="0.3"
    d="M167.73 206.734L166.586 205.589L165.442 206.734L166.586 207.878L167.73 206.734Z"
    fill="#83D2ED" />
  <path opacity="0.3"
    d="M182.113 206.734L180.969 205.589L179.825 206.734L180.969 207.878L182.113 206.734Z"
    fill="#83D2ED" />
  <path opacity="0.3"
    d="M196.496 206.734L195.352 205.589L194.207 206.734L195.352 207.878L196.496 206.734Z"
    fill="#83D2ED" />
  <path opacity="0.3"
    d="M210.879 206.734L209.734 205.589L208.59 206.734L209.734 207.878L210.879 206.734Z"
    fill="#83D2ED" />
  <path opacity="0.3"
    d="M225.261 206.734L224.117 205.589L222.973 206.734L224.117 207.878L225.261 206.734Z"
    fill="#83D2ED" />
  <path opacity="0.3"
    d="M52.6676 221.116L51.5234 219.972L50.3793 221.116L51.5234 222.26L52.6676 221.116Z"
    fill="#83D2ED" />
  <path opacity="0.3"
    d="M67.0504 221.116L65.9062 219.972L64.7621 221.116L65.9062 222.26L67.0504 221.116Z"
    fill="#83D2ED" />
  <path opacity="0.3"
    d="M81.4332 221.116L80.2891 219.972L79.1449 221.116L80.2891 222.26L81.4332 221.116Z"
    fill="#83D2ED" />
  <path d="M95.816 221.116L94.6719 219.972L93.5277 221.116L94.6719 222.26L95.816 221.116Z"
    fill="#83D2ED" />
  <path opacity="0.3"
    d="M110.199 221.116L109.055 219.972L107.911 221.116L109.055 222.26L110.199 221.116Z"
    fill="#83D2ED" />
  <path opacity="0.3"
    d="M124.582 221.116L123.438 219.972L122.293 221.116L123.438 222.26L124.582 221.116Z"
    fill="#83D2ED" />
  <path d="M138.964 221.116L137.82 219.972L136.676 221.116L137.82 222.26L138.964 221.116Z"
    fill="#83D2ED" />
  <path opacity="0.3"
    d="M153.347 221.116L152.203 219.972L151.059 221.116L152.203 222.26L153.347 221.116Z"
    fill="#83D2ED" />
  <path opacity="0.3"
    d="M167.73 221.116L166.586 219.972L165.442 221.116L166.586 222.26L167.73 221.116Z"
    fill="#83D2ED" />
  <path opacity="0.3"
    d="M182.113 221.116L180.969 219.972L179.825 221.116L180.969 222.26L182.113 221.116Z"
    fill="#83D2ED" />
  <path opacity="0.3"
    d="M196.496 221.116L195.352 219.972L194.207 221.116L195.352 222.26L196.496 221.116Z"
    fill="#83D2ED" />
  <path opacity="0.3"
    d="M210.879 221.116L209.734 219.972L208.59 221.116L209.734 222.26L210.879 221.116Z"
    fill="#83D2ED" />
  <path opacity="0.3"
    d="M225.261 221.116L224.117 219.972L222.973 221.116L224.117 222.26L225.261 221.116Z"
    fill="#83D2ED" />
  <path opacity="0.3"
    d="M52.6676 235.499L51.5234 234.355L50.3793 235.499L51.5234 236.643L52.6676 235.499Z"
    fill="#83D2ED" />
  <path opacity="0.3"
    d="M67.0504 235.499L65.9062 234.355L64.7621 235.499L65.9062 236.643L67.0504 235.499Z"
    fill="#83D2ED" />
  <path opacity="0.3"
    d="M81.4332 235.499L80.2891 234.355L79.1449 235.499L80.2891 236.643L81.4332 235.499Z"
    fill="#83D2ED" />
  <path opacity="0.3"
    d="M95.816 235.499L94.6719 234.355L93.5277 235.499L94.6719 236.643L95.816 235.499Z"
    fill="#83D2ED" />
  <path opacity="0.3"
    d="M110.199 235.499L109.055 234.355L107.911 235.499L109.055 236.643L110.199 235.499Z"
    fill="#83D2ED" />
  <path opacity="0.3"
    d="M124.582 235.499L123.438 234.355L122.293 235.499L123.438 236.643L124.582 235.499Z"
    fill="#83D2ED" />
  <path opacity="0.3"
    d="M138.964 235.499L137.82 234.355L136.676 235.499L137.82 236.643L138.964 235.499Z"
    fill="#83D2ED" />
  <path opacity="0.3"
    d="M153.347 235.499L152.203 234.355L151.059 235.499L152.203 236.643L153.347 235.499Z"
    fill="#83D2ED" />
  <path opacity="0.3"
    d="M167.73 235.499L166.586 234.355L165.442 235.499L166.586 236.643L167.73 235.499Z"
    fill="#83D2ED" />
  <path opacity="0.3"
    d="M182.113 235.499L180.969 234.355L179.825 235.499L180.969 236.643L182.113 235.499Z"
    fill="#83D2ED" />
  <path opacity="0.3"
    d="M196.496 235.499L195.352 234.355L194.207 235.499L195.352 236.643L196.496 235.499Z"
    fill="#83D2ED" />
  <path opacity="0.3"
    d="M210.879 235.499L209.734 234.355L208.59 235.499L209.734 236.643L210.879 235.499Z"
    fill="#83D2ED" />
  <path opacity="0.3"
    d="M225.261 235.499L224.117 234.355L222.973 235.499L224.117 236.643L225.261 235.499Z"
    fill="#83D2ED" />
  <path
    d="M160.638 160.934C145.065 159.097 131.664 149.072 125.537 134.66C123.894 130.678 119.951 127.875 115.383 127.875C109.308 127.875 104.379 132.804 104.379 138.873C104.379 141.908 105.603 144.666 107.6 146.65C112.407 151.456 112.407 159.271 107.6 164.078C105.622 166.056 104.379 168.82 104.379 171.854C104.379 177.923 109.308 182.852 115.377 182.852C121.446 182.852 126.375 177.923 126.375 171.854C126.375 168.82 125.151 166.062 123.153 164.078C119.616 160.541 118.688 155.374 120.351 150.992C133.204 154.446 143.906 163.614 149.195 176.068C150.838 180.05 154.781 182.852 159.349 182.852C165.418 182.852 170.347 177.923 170.347 171.854C170.347 166.21 166.088 161.572 160.631 160.94L160.638 160.934Z"
    fill="url(#paint5_linear_3933_5589)" />
  <path
    d="M167.126 119.152C169.104 117.174 170.347 114.41 170.347 111.375C170.347 105.306 165.418 100.377 159.349 100.377C153.28 100.377 148.351 105.306 148.351 111.375C148.351 114.41 149.575 117.167 151.573 119.152C155.11 122.689 156.038 127.856 154.375 132.237C141.522 128.784 130.82 119.616 125.531 107.162C123.888 103.18 119.951 100.377 115.377 100.377C109.308 100.377 104.379 105.306 104.379 111.375C104.379 117.019 108.638 121.658 114.095 122.29C129.667 124.1 143.042 134.131 149.176 148.544C150.819 152.526 154.762 155.328 159.33 155.328C165.399 155.328 170.328 150.4 170.328 144.33C170.328 141.296 169.104 138.538 167.106 136.554C162.326 131.773 162.326 123.978 167.126 119.152Z"
    fill="url(#paint6_linear_3933_5589)" />
  <defs>
    <filter id="filter0_f_3933_5589" x="26.9361" y="-66.6986" width="318.358" height="291.165"
      filterUnits="userSpaceOnUse" color-interpolation-filters="sRGB">
      <feFlood flood-opacity="0" result="BackgroundImageFix" />
      <feBlend mode="normal" in="SourceGraphic" in2="BackgroundImageFix" result="shape" />
      <feGaussianBlur stdDeviation="44.1237" result="effect1_foregroundBlur_3933_5589" />
    </filter>
    <filter id="filter1_f_3933_5589" x="-63.8764" y="43.8673" width="318.358" height="291.165"
      filterUnits="userSpaceOnUse" color-interpolation-filters="sRGB">
      <feFlood flood-opacity="0" result="BackgroundImageFix" />
      <feBlend mode="normal" in="SourceGraphic" in2="BackgroundImageFix" result="shape" />
      <feGaussianBlur stdDeviation="44.1237" result="effect1_foregroundBlur_3933_5589" />
    </filter>
    <filter id="filter2_f_3933_5589" x="33.1719" y="33.1714" width="212.252" height="212.253"
      filterUnits="userSpaceOnUse" color-interpolation-filters="sRGB">
      <feFlood flood-opacity="0" result="BackgroundImageFix" />
      <feBlend mode="normal" in="SourceGraphic" in2="BackgroundImageFix" result="shape" />
      <feGaussianBlur stdDeviation="1.5" result="effect1_foregroundBlur_3933_5589" />
    </filter>
    <linearGradient id="paint0_linear_3933_5589" x1="271.413" y1="267.564" x2="18.2142" y2="5.64357"
      gradientUnits="userSpaceOnUse">
      <stop stop-color="#131313" />
      <stop offset="1" stop-color="#141414" />
    </linearGradient>
    <linearGradient id="paint1_linear_3933_5589" x1="139.298" y1="11.0308" x2="139.298" y2="267.564"
      gradientUnits="userSpaceOnUse">
      <stop stop-color="white" stop-opacity="0.15" />
      <stop offset="1" stop-color="#1A1A1A" />
    </linearGradient>
    <linearGradient id="paint2_linear_3933_5589" x1="152.634" y1="7.41838" x2="252.131" y2="124.423"
      gradientUnits="userSpaceOnUse">
      <stop stop-color="#FDC066" />
      <stop offset="0.51" stop-color="#D8D3E9" />
      <stop offset="1" stop-color="#7BD1ED" />
    </linearGradient>
    <linearGradient id="paint3_linear_3933_5589" x1="61.8216" y1="117.984" x2="161.319" y2="234.989"
      gradientUnits="userSpaceOnUse">
      <stop stop-color="#FDC066" />
      <stop offset="0.51" stop-color="#D8D3E9" />
      <stop offset="1" stop-color="#7BD1ED" />
    </linearGradient>
    <radialGradient id="paint4_angular_3933_5589" cx="0" cy="0" r="1" gradientUnits="userSpaceOnUse"
      gradientTransform="translate(140 139.734) rotate(-90) scale(102)">
      <stop offset="0.195692" stop-color="#99D2EC" stop-opacity="0" />
      <stop offset="0.803551" stop-color="#F4C587" stop-opacity="0" />
      <stop offset="0.999486" stop-color="#D6D3E9" />
    </radialGradient>
    <linearGradient id="paint5_linear_3933_5589" x1="105.442" y1="135.433" x2="153.351" y2="190.088"
      gradientUnits="userSpaceOnUse">
      <stop stop-color="#FDC066" />
      <stop offset="0.51" stop-color="#D8D3E9" />
      <stop offset="1" stop-color="#7BD1ED" />
    </linearGradient>
    <linearGradient id="paint6_linear_3933_5589" x1="121.794" y1="93.606" x2="169.684" y2="148.254"
      gradientUnits="userSpaceOnUse">
      <stop stop-color="#FDC066" />
      <stop offset="0.51" stop-color="#D8D3E9" />
      <stop offset="1" stop-color="#7BD1ED" />
    </linearGradient>
  </defs>
</svg>
  