<svg width="410" height="403" viewBox="0 0 410 403" fill="none" xmlns="http://www.w3.org/2000/svg">
  <g filter="url(#filter0_b_3933_5278)">
    <rect x="64" y="67" width="278.595" height="278.595" rx="26.6795" fill="black"
      fill-opacity="0.6" />
    <rect x="64.5131" y="67.5131" width="277.569" height="277.569" rx="26.1664" stroke="white"
      stroke-opacity="0.05" stroke-width="1.02613" />
  </g>
  <rect x="75.2878" y="78.2873" width="256.02" height="256.02" rx="16.1616"
    fill="url(#paint0_linear_3933_5278)" stroke="url(#paint1_linear_3933_5278)"
    stroke-width="0.513067" />
  <g opacity="0.3" filter="url(#filter1_f_3933_5278)">
    <ellipse cx="250.115" cy="145.884" rx="70.9315" ry="57.3352"
      fill="url(#paint2_linear_3933_5278)" />
  </g>
  <g opacity="0.1" filter="url(#filter2_f_3933_5278)">
    <ellipse cx="159.303" cy="256.45" rx="70.9315" ry="57.3352" fill="url(#paint3_linear_3933_5278)" />
  </g>
  <g filter="url(#filter3_f_3933_5278)">
    <path fill-rule="evenodd" clip-rule="evenodd"
      d="M127.364 103.171H279.232C294.25 103.171 306.425 115.346 306.425 130.364V282.232C306.425 297.25 294.25 309.424 279.232 309.424H127.364C112.346 309.424 100.172 297.25 100.172 282.232V130.364C100.172 115.346 112.346 103.171 127.364 103.171ZM127.364 104.711C113.196 104.711 101.711 116.196 101.711 130.364V282.232C101.711 296.4 113.196 307.885 127.364 307.885H279.232C293.4 307.885 304.885 296.4 304.885 282.232V130.364C304.885 116.196 293.4 104.711 279.232 104.711H127.364Z"
      fill="url(#paint4_linear_3933_5278)" />
  </g>
  <circle cx="85.5484" cy="324.046" r="2.82187" fill="white" />
  <circle cx="321.046" cy="324.046" r="2.82187" fill="white" />
  <circle cx="85.5484" cy="88.5489" r="2.82187" fill="white" />
  <circle cx="321.046" cy="88.5489" r="2.82187" fill="white" />
  <path
    d="M96.5796 82.6484C97.4297 82.6484 98.1188 83.3376 98.1188 84.1876V92.9098C98.1188 93.7598 97.4297 94.449 96.5796 94.449C95.7296 94.449 95.0404 93.7598 95.0404 92.9098V84.1876C95.0404 83.3376 95.7296 82.6484 96.5796 82.6484Z"
    fill="#404040" />
  <path
    d="M106.328 84.1876C106.328 83.3376 105.639 82.6484 104.789 82.6484C103.939 82.6484 103.25 83.3376 103.25 84.1876V92.9098C103.25 93.7598 103.939 94.449 104.789 94.449C105.639 94.449 106.328 93.7598 106.328 92.9098V84.1876Z"
    fill="#404040" />
  <path
    d="M112.998 82.6484C113.848 82.6484 114.537 83.3376 114.537 84.1876V92.9098C114.537 93.7598 113.848 94.449 112.998 94.449C112.148 94.449 111.459 93.7598 111.459 92.9098V84.1876C111.459 83.3376 112.148 82.6484 112.998 82.6484Z"
    fill="#404040" />
  <path
    d="M122.746 84.1876C122.746 83.3376 122.057 82.6484 121.207 82.6484C120.357 82.6484 119.668 83.3376 119.668 84.1876V92.9098C119.668 93.7598 120.357 94.449 121.207 94.449C122.057 94.449 122.746 93.7598 122.746 92.9098V84.1876Z"
    fill="#404040" />
  <path
    d="M129.416 82.6484C130.266 82.6484 130.955 83.3376 130.955 84.1876V92.9098C130.955 93.7598 130.266 94.449 129.416 94.449C128.566 94.449 127.877 93.7598 127.877 92.9098V84.1876C127.877 83.3376 128.566 82.6484 129.416 82.6484Z"
    fill="#404040" />
  <path
    d="M139.164 84.1876C139.164 83.3376 138.475 82.6484 137.625 82.6484C136.775 82.6484 136.086 83.3376 136.086 84.1876V92.9098C136.086 93.7598 136.775 94.449 137.625 94.449C138.475 94.449 139.164 93.7598 139.164 92.9098V84.1876Z"
    fill="#404040" />
  <path
    d="M145.834 82.6484C146.684 82.6484 147.373 83.3376 147.373 84.1876V92.9098C147.373 93.7598 146.684 94.449 145.834 94.449C144.984 94.449 144.295 93.7598 144.295 92.9098V84.1876C144.295 83.3376 144.984 82.6484 145.834 82.6484Z"
    fill="#404040" />
  <path
    d="M155.582 84.1876C155.582 83.3376 154.893 82.6484 154.043 82.6484C153.193 82.6484 152.504 83.3376 152.504 84.1876V92.9098C152.504 93.7598 153.193 94.449 154.043 94.449C154.893 94.449 155.582 93.7598 155.582 92.9098V84.1876Z"
    fill="#404040" />
  <path
    d="M162.252 82.6484C163.102 82.6484 163.791 83.3376 163.791 84.1876V92.9098C163.791 93.7598 163.102 94.449 162.252 94.449C161.402 94.449 160.713 93.7598 160.713 92.9098V84.1876C160.713 83.3376 161.402 82.6484 162.252 82.6484Z"
    fill="#404040" />
  <path
    d="M172 84.1876C172 83.3376 171.311 82.6484 170.461 82.6484C169.611 82.6484 168.922 83.3376 168.922 84.1876V92.9098C168.922 93.7598 169.611 94.449 170.461 94.449C171.311 94.449 172 93.7598 172 92.9098V84.1876Z"
    fill="#404040" />
  <path
    d="M178.67 82.6484C179.52 82.6484 180.21 83.3376 180.21 84.1876V92.9098C180.21 93.7598 179.52 94.449 178.67 94.449C177.82 94.449 177.131 93.7598 177.131 92.9098V84.1876C177.131 83.3376 177.82 82.6484 178.67 82.6484Z"
    fill="#404040" />
  <path
    d="M188.419 84.1876C188.419 83.3376 187.729 82.6484 186.879 82.6484C186.029 82.6484 185.34 83.3376 185.34 84.1876V92.9098C185.34 93.7598 186.029 94.449 186.879 94.449C187.729 94.449 188.419 93.7598 188.419 92.9098V84.1876Z"
    fill="#404040" />
  <path
    d="M195.088 82.6484C195.939 82.6484 196.628 83.3376 196.628 84.1876V92.9098C196.628 93.7598 195.939 94.449 195.088 94.449C194.238 94.449 193.549 93.7598 193.549 92.9098V84.1876C193.549 83.3376 194.238 82.6484 195.088 82.6484Z"
    fill="#404040" />
  <path
    d="M204.837 84.1876C204.837 83.3376 204.148 82.6484 203.298 82.6484C202.447 82.6484 201.758 83.3376 201.758 84.1876V92.9098C201.758 93.7598 202.447 94.449 203.298 94.449C204.148 94.449 204.837 93.7598 204.837 92.9098V84.1876Z"
    fill="#404040" />
  <path
    d="M211.507 82.6484C212.357 82.6484 213.046 83.3376 213.046 84.1876V92.9098C213.046 93.7598 212.357 94.449 211.507 94.449C210.656 94.449 209.967 93.7598 209.967 92.9098V84.1876C209.967 83.3376 210.656 82.6484 211.507 82.6484Z"
    fill="#404040" />
  <path
    d="M221.255 84.1876C221.255 83.3376 220.566 82.6484 219.716 82.6484C218.866 82.6484 218.176 83.3376 218.176 84.1876V92.9098C218.176 93.7598 218.866 94.449 219.716 94.449C220.566 94.449 221.255 93.7598 221.255 92.9098V84.1876Z"
    fill="#404040" />
  <path
    d="M227.925 82.6484C228.775 82.6484 229.464 83.3376 229.464 84.1876V92.9098C229.464 93.7598 228.775 94.449 227.925 94.449C227.075 94.449 226.385 93.7598 226.385 92.9098V84.1876C226.385 83.3376 227.075 82.6484 227.925 82.6484Z"
    fill="#404040" />
  <path
    d="M237.673 84.1876C237.673 83.3376 236.984 82.6484 236.134 82.6484C235.284 82.6484 234.595 83.3376 234.595 84.1876V92.9098C234.595 93.7598 235.284 94.449 236.134 94.449C236.984 94.449 237.673 93.7598 237.673 92.9098V84.1876Z"
    fill="#404040" />
  <path
    d="M244.343 82.6484C245.193 82.6484 245.882 83.3376 245.882 84.1876V92.9098C245.882 93.7598 245.193 94.449 244.343 94.449C243.493 94.449 242.804 93.7598 242.804 92.9098V84.1876C242.804 83.3376 243.493 82.6484 244.343 82.6484Z"
    fill="#404040" />
  <path
    d="M254.091 84.1876C254.091 83.3376 253.402 82.6484 252.552 82.6484C251.702 82.6484 251.013 83.3376 251.013 84.1876V92.9098C251.013 93.7598 251.702 94.449 252.552 94.449C253.402 94.449 254.091 93.7598 254.091 92.9098V84.1876Z"
    fill="#404040" />
  <path
    d="M260.761 82.6484C261.611 82.6484 262.3 83.3376 262.3 84.1876V92.9098C262.3 93.7598 261.611 94.449 260.761 94.449C259.911 94.449 259.222 93.7598 259.222 92.9098V84.1876C259.222 83.3376 259.911 82.6484 260.761 82.6484Z"
    fill="#404040" />
  <path
    d="M270.509 84.1876C270.509 83.3376 269.82 82.6484 268.97 82.6484C268.12 82.6484 267.431 83.3376 267.431 84.1876V92.9098C267.431 93.7598 268.12 94.449 268.97 94.449C269.82 94.449 270.509 93.7598 270.509 92.9098V84.1876Z"
    fill="#404040" />
  <path
    d="M277.179 82.6484C278.029 82.6484 278.718 83.3376 278.718 84.1876V92.9098C278.718 93.7598 278.029 94.449 277.179 94.449C276.329 94.449 275.64 93.7598 275.64 92.9098V84.1876C275.64 83.3376 276.329 82.6484 277.179 82.6484Z"
    fill="#404040" />
  <path
    d="M286.927 84.1876C286.927 83.3376 286.238 82.6484 285.388 82.6484C284.538 82.6484 283.849 83.3376 283.849 84.1876V92.9098C283.849 93.7598 284.538 94.449 285.388 94.449C286.238 94.449 286.927 93.7598 286.927 92.9098V84.1876Z"
    fill="#404040" />
  <path
    d="M293.597 82.6484C294.447 82.6484 295.136 83.3376 295.136 84.1876V92.9098C295.136 93.7598 294.447 94.449 293.597 94.449C292.747 94.449 292.058 93.7598 292.058 92.9098V84.1876C292.058 83.3376 292.747 82.6484 293.597 82.6484Z"
    fill="#404040" />
  <path
    d="M303.345 84.1876C303.345 83.3376 302.656 82.6484 301.806 82.6484C300.956 82.6484 300.267 83.3376 300.267 84.1876V92.9098C300.267 93.7598 300.956 94.449 301.806 94.449C302.656 94.449 303.345 93.7598 303.345 92.9098V84.1876Z"
    fill="#404040" />
  <path
    d="M311.555 84.1876C311.555 83.3376 310.865 82.6484 310.015 82.6484C309.165 82.6484 308.476 83.3376 308.476 84.1876V92.9098C308.476 93.7598 309.165 94.449 310.015 94.449C310.865 94.449 311.555 93.7598 311.555 92.9098V84.1876Z"
    fill="#404040" />
  <path
    d="M322.329 315.837C323.179 315.837 323.868 315.148 323.868 314.298C323.868 313.448 323.179 312.759 322.329 312.759H313.607C312.757 312.759 312.068 313.448 312.068 314.298C312.068 315.148 312.757 315.837 313.607 315.837H322.329Z"
    fill="#404040" />
  <path
    d="M323.868 306.089C323.868 306.939 323.179 307.628 322.329 307.628H313.607C312.757 307.628 312.068 306.939 312.068 306.089C312.068 305.239 312.757 304.55 313.607 304.55H322.329C323.179 304.55 323.868 305.239 323.868 306.089Z"
    fill="#404040" />
  <path
    d="M322.329 299.419C323.179 299.419 323.868 298.73 323.868 297.88C323.868 297.03 323.179 296.341 322.329 296.341H313.607C312.757 296.341 312.068 297.03 312.068 297.88C312.068 298.73 312.757 299.419 313.607 299.419H322.329Z"
    fill="#404040" />
  <path
    d="M323.868 289.671C323.868 290.521 323.179 291.21 322.329 291.21H313.607C312.757 291.21 312.068 290.521 312.068 289.671C312.068 288.821 312.757 288.132 313.607 288.132H322.329C323.179 288.132 323.868 288.821 323.868 289.671Z"
    fill="#404040" />
  <path
    d="M322.329 283.001C323.179 283.001 323.868 282.312 323.868 281.462C323.868 280.612 323.179 279.923 322.329 279.923H313.607C312.757 279.923 312.068 280.612 312.068 281.462C312.068 282.312 312.757 283.001 313.607 283.001H322.329Z"
    fill="#404040" />
  <path
    d="M323.868 273.253C323.868 274.103 323.179 274.792 322.329 274.792H313.607C312.757 274.792 312.068 274.103 312.068 273.253C312.068 272.403 312.757 271.714 313.607 271.714H322.329C323.179 271.714 323.868 272.403 323.868 273.253Z"
    fill="#404040" />
  <path
    d="M322.329 266.583C323.179 266.583 323.868 265.894 323.868 265.044C323.868 264.194 323.179 263.504 322.329 263.504H313.607C312.757 263.504 312.068 264.194 312.068 265.044C312.068 265.894 312.757 266.583 313.607 266.583H322.329Z"
    fill="#404040" />
  <path
    d="M323.868 256.835C323.868 257.685 323.179 258.374 322.329 258.374H313.607C312.757 258.374 312.068 257.685 312.068 256.835C312.068 255.984 312.757 255.295 313.607 255.295H322.329C323.179 255.295 323.868 255.984 323.868 256.835Z"
    fill="#404040" />
  <path
    d="M322.329 250.165C323.179 250.165 323.868 249.476 323.868 248.626C323.868 247.775 323.179 247.086 322.329 247.086H313.607C312.757 247.086 312.068 247.775 312.068 248.626C312.068 249.476 312.757 250.165 313.607 250.165H322.329Z"
    fill="#404040" />
  <path
    d="M323.868 240.416C323.868 241.267 323.179 241.956 322.329 241.956H313.607C312.757 241.956 312.068 241.267 312.068 240.416C312.068 239.566 312.757 238.877 313.607 238.877H322.329C323.179 238.877 323.868 239.566 323.868 240.416Z"
    fill="#404040" />
  <path
    d="M322.329 233.747C323.179 233.747 323.868 233.057 323.868 232.207C323.868 231.357 323.179 230.668 322.329 230.668H313.607C312.757 230.668 312.068 231.357 312.068 232.207C312.068 233.057 312.757 233.747 313.607 233.747H322.329Z"
    fill="#404040" />
  <path
    d="M323.868 223.998C323.868 224.848 323.179 225.538 322.329 225.538H313.607C312.757 225.538 312.068 224.848 312.068 223.998C312.068 223.148 312.757 222.459 313.607 222.459H322.329C323.179 222.459 323.868 223.148 323.868 223.998Z"
    fill="#404040" />
  <path
    d="M322.329 217.328C323.179 217.328 323.868 216.639 323.868 215.789C323.868 214.939 323.179 214.25 322.329 214.25H313.607C312.757 214.25 312.068 214.939 312.068 215.789C312.068 216.639 312.757 217.328 313.607 217.328H322.329Z"
    fill="#404040" />
  <path
    d="M323.868 207.58C323.868 208.43 323.179 209.119 322.329 209.119H313.607C312.757 209.119 312.068 208.43 312.068 207.58C312.068 206.73 312.757 206.041 313.607 206.041H322.329C323.179 206.041 323.868 206.73 323.868 207.58Z"
    fill="#404040" />
  <path
    d="M322.329 200.91C323.179 200.91 323.868 200.221 323.868 199.371C323.868 198.521 323.179 197.832 322.329 197.832H313.607C312.757 197.832 312.068 198.521 312.068 199.371C312.068 200.221 312.757 200.91 313.607 200.91H322.329Z"
    fill="#404040" />
  <path
    d="M323.868 191.162C323.868 192.012 323.179 192.701 322.329 192.701H313.607C312.757 192.701 312.068 192.012 312.068 191.162C312.068 190.312 312.757 189.623 313.607 189.623H322.329C323.179 189.623 323.868 190.312 323.868 191.162Z"
    fill="#404040" />
  <path
    d="M322.329 184.492C323.179 184.492 323.868 183.803 323.868 182.953C323.868 182.103 323.179 181.414 322.329 181.414H313.607C312.757 181.414 312.068 182.103 312.068 182.953C312.068 183.803 312.757 184.492 313.607 184.492H322.329Z"
    fill="#404040" />
  <path
    d="M323.868 174.744C323.868 175.594 323.179 176.283 322.329 176.283H313.607C312.757 176.283 312.068 175.594 312.068 174.744C312.068 173.894 312.757 173.205 313.607 173.205H322.329C323.179 173.205 323.868 173.894 323.868 174.744Z"
    fill="#404040" />
  <path
    d="M322.329 168.074C323.179 168.074 323.868 167.385 323.868 166.535C323.868 165.685 323.179 164.996 322.329 164.996H313.607C312.757 164.996 312.068 165.685 312.068 166.535C312.068 167.385 312.757 168.074 313.607 168.074H322.329Z"
    fill="#404040" />
  <path
    d="M323.868 158.326C323.868 159.176 323.179 159.865 322.329 159.865H313.607C312.757 159.865 312.068 159.176 312.068 158.326C312.068 157.476 312.757 156.787 313.607 156.787H322.329C323.179 156.787 323.868 157.476 323.868 158.326Z"
    fill="#404040" />
  <path
    d="M322.329 151.656C323.179 151.656 323.868 150.967 323.868 150.117C323.868 149.267 323.179 148.577 322.329 148.577H313.607C312.757 148.577 312.068 149.267 312.068 150.117C312.068 150.967 312.757 151.656 313.607 151.656H322.329Z"
    fill="#404040" />
  <path
    d="M323.868 141.908C323.868 142.758 323.179 143.447 322.329 143.447H313.607C312.757 143.447 312.068 142.758 312.068 141.908C312.068 141.058 312.757 140.368 313.607 140.368H322.329C323.179 140.368 323.868 141.058 323.868 141.908Z"
    fill="#404040" />
  <path
    d="M322.329 135.238C323.179 135.238 323.868 134.549 323.868 133.699C323.868 132.848 323.179 132.159 322.329 132.159H313.607C312.757 132.159 312.068 132.848 312.068 133.699C312.068 134.549 312.757 135.238 313.607 135.238H322.329Z"
    fill="#404040" />
  <path
    d="M323.868 125.49C323.868 126.34 323.179 127.029 322.329 127.029H313.607C312.757 127.029 312.068 126.34 312.068 125.49C312.068 124.639 312.757 123.95 313.607 123.95H322.329C323.179 123.95 323.868 124.639 323.868 125.49Z"
    fill="#404040" />
  <path
    d="M322.329 118.82C323.179 118.82 323.868 118.131 323.868 117.28C323.868 116.43 323.179 115.741 322.329 115.741H313.607C312.757 115.741 312.068 116.43 312.068 117.28C312.068 118.131 312.757 118.82 313.607 118.82H322.329Z"
    fill="#404040" />
  <path
    d="M323.868 109.071C323.868 109.921 323.179 110.611 322.329 110.611H313.607C312.757 110.611 312.068 109.921 312.068 109.071C312.068 108.221 312.757 107.532 313.607 107.532H322.329C323.179 107.532 323.868 108.221 323.868 109.071Z"
    fill="#404040" />
  <path
    d="M322.329 102.402C323.179 102.402 323.868 101.712 323.868 100.862C323.868 100.012 323.179 99.3231 322.329 99.3231H313.607C312.757 99.3231 312.068 100.012 312.068 100.862C312.068 101.712 312.757 102.402 313.607 102.402H322.329Z"
    fill="#404040" />
  <path
    d="M93.5012 329.69C92.6512 329.69 91.962 329.001 91.962 328.151L91.962 319.429C91.962 318.579 92.6512 317.889 93.5012 317.889C94.3513 317.889 95.0404 318.579 95.0404 319.429L95.0404 328.151C95.0404 329.001 94.3513 329.69 93.5012 329.69Z"
    fill="#404040" />
  <path
    d="M100.171 328.151C100.171 329.001 100.86 329.69 101.71 329.69C102.56 329.69 103.25 329.001 103.25 328.151V319.429C103.25 318.579 102.56 317.889 101.71 317.889C100.86 317.889 100.171 318.579 100.171 319.429V328.151Z"
    fill="#404040" />
  <path
    d="M109.919 329.69C109.069 329.69 108.38 329.001 108.38 328.151L108.38 319.429C108.38 318.579 109.069 317.889 109.919 317.889C110.769 317.889 111.459 318.579 111.459 319.429L111.459 328.151C111.459 329.001 110.769 329.69 109.919 329.69Z"
    fill="#404040" />
  <path
    d="M116.589 328.151C116.589 329.001 117.278 329.69 118.128 329.69C118.979 329.69 119.668 329.001 119.668 328.151V319.429C119.668 318.579 118.979 317.889 118.128 317.889C117.278 317.889 116.589 318.579 116.589 319.429V328.151Z"
    fill="#404040" />
  <path
    d="M126.338 329.69C125.487 329.69 124.798 329.001 124.798 328.151V319.429C124.798 318.579 125.487 317.889 126.338 317.889C127.188 317.889 127.877 318.579 127.877 319.429V328.151C127.877 329.001 127.188 329.69 126.338 329.69Z"
    fill="#404040" />
  <path
    d="M133.007 328.151C133.007 329.001 133.696 329.69 134.547 329.69C135.397 329.69 136.086 329.001 136.086 328.151V319.429C136.086 318.579 135.397 317.889 134.547 317.889C133.696 317.889 133.007 318.579 133.007 319.429V328.151Z"
    fill="#404040" />
  <path
    d="M142.756 329.69C141.906 329.69 141.216 329.001 141.216 328.151V319.429C141.216 318.579 141.906 317.889 142.756 317.889C143.606 317.889 144.295 318.579 144.295 319.429V328.151C144.295 329.001 143.606 329.69 142.756 329.69Z"
    fill="#404040" />
  <path
    d="M149.425 328.151C149.425 329.001 150.115 329.69 150.965 329.69C151.815 329.69 152.504 329.001 152.504 328.151V319.429C152.504 318.579 151.815 317.889 150.965 317.889C150.115 317.889 149.425 318.579 149.425 319.429V328.151Z"
    fill="#404040" />
  <path
    d="M159.174 329.69C158.324 329.69 157.635 329.001 157.635 328.151V319.429C157.635 318.579 158.324 317.889 159.174 317.889C160.024 317.889 160.713 318.579 160.713 319.429V328.151C160.713 329.001 160.024 329.69 159.174 329.69Z"
    fill="#404040" />
  <path
    d="M165.844 328.151C165.844 329.001 166.533 329.69 167.383 329.69C168.233 329.69 168.922 329.001 168.922 328.151V319.429C168.922 318.579 168.233 317.889 167.383 317.889C166.533 317.889 165.844 318.579 165.844 319.429V328.151Z"
    fill="#404040" />
  <path
    d="M175.592 329.69C174.742 329.69 174.053 329.001 174.053 328.151V319.429C174.053 318.579 174.742 317.889 175.592 317.889C176.442 317.889 177.131 318.579 177.131 319.429V328.151C177.131 329.001 176.442 329.69 175.592 329.69Z"
    fill="#404040" />
  <path
    d="M182.262 328.151C182.262 329.001 182.951 329.69 183.801 329.69C184.651 329.69 185.34 329.001 185.34 328.151V319.429C185.34 318.579 184.651 317.889 183.801 317.889C182.951 317.889 182.262 318.579 182.262 319.429V328.151Z"
    fill="#404040" />
  <path
    d="M192.01 329.69C191.16 329.69 190.471 329.001 190.471 328.151V319.429C190.471 318.579 191.16 317.889 192.01 317.889C192.86 317.889 193.549 318.579 193.549 319.429V328.151C193.549 329.001 192.86 329.69 192.01 329.69Z"
    fill="#404040" />
  <path
    d="M198.68 328.151C198.68 329.001 199.369 329.69 200.219 329.69C201.069 329.69 201.758 329.001 201.758 328.151V319.429C201.758 318.579 201.069 317.889 200.219 317.889C199.369 317.889 198.68 318.579 198.68 319.429V328.151Z"
    fill="#404040" />
  <path
    d="M208.428 329.69C207.578 329.69 206.889 329.001 206.889 328.151V319.429C206.889 318.579 207.578 317.889 208.428 317.889C209.278 317.889 209.967 318.579 209.967 319.429V328.151C209.967 329.001 209.278 329.69 208.428 329.69Z"
    fill="#404040" />
  <path
    d="M215.098 328.151C215.098 329.001 215.787 329.69 216.637 329.69C217.487 329.69 218.176 329.001 218.176 328.151V319.429C218.176 318.579 217.487 317.89 216.637 317.89C215.787 317.89 215.098 318.579 215.098 319.429V328.151Z"
    fill="#404040" />
  <path
    d="M224.846 329.69C223.996 329.69 223.307 329.001 223.307 328.151V319.429C223.307 318.579 223.996 317.89 224.846 317.89C225.696 317.89 226.385 318.579 226.385 319.429V328.151C226.385 329.001 225.696 329.69 224.846 329.69Z"
    fill="#404040" />
  <path
    d="M231.516 328.151C231.516 329.001 232.205 329.69 233.055 329.69C233.905 329.69 234.595 329.001 234.595 328.151V319.429C234.595 318.579 233.905 317.89 233.055 317.89C232.205 317.89 231.516 318.579 231.516 319.429V328.151Z"
    fill="#404040" />
  <path
    d="M241.264 329.69C240.414 329.69 239.725 329.001 239.725 328.151V319.429C239.725 318.579 240.414 317.89 241.264 317.89C242.115 317.89 242.804 318.579 242.804 319.429V328.151C242.804 329.001 242.115 329.69 241.264 329.69Z"
    fill="#404040" />
  <path
    d="M247.934 328.151C247.934 329.001 248.623 329.69 249.473 329.69C250.324 329.69 251.013 329.001 251.013 328.151V319.429C251.013 318.579 250.324 317.89 249.473 317.89C248.623 317.89 247.934 318.579 247.934 319.429V328.151Z"
    fill="#404040" />
  <path
    d="M257.683 329.69C256.832 329.69 256.143 329.001 256.143 328.151V319.429C256.143 318.579 256.832 317.89 257.683 317.89C258.533 317.89 259.222 318.579 259.222 319.429V328.151C259.222 329.001 258.533 329.69 257.683 329.69Z"
    fill="#404040" />
  <path
    d="M264.352 328.151C264.352 329.001 265.042 329.69 265.892 329.69C266.742 329.69 267.431 329.001 267.431 328.151V319.429C267.431 318.579 266.742 317.89 265.892 317.89C265.042 317.89 264.352 318.579 264.352 319.429V328.151Z"
    fill="#404040" />
  <path
    d="M274.101 329.69C273.251 329.69 272.561 329.001 272.561 328.151V319.429C272.561 318.579 273.251 317.89 274.101 317.89C274.951 317.89 275.64 318.579 275.64 319.429V328.151C275.64 329.001 274.951 329.69 274.101 329.69Z"
    fill="#404040" />
  <path
    d="M280.771 328.151C280.771 329.001 281.46 329.69 282.31 329.69C283.16 329.69 283.849 329.001 283.849 328.151V319.429C283.849 318.579 283.16 317.89 282.31 317.89C281.46 317.89 280.771 318.579 280.771 319.429V328.151Z"
    fill="#404040" />
  <path
    d="M290.519 329.69C289.669 329.69 288.98 329.001 288.98 328.151V319.429C288.98 318.579 289.669 317.89 290.519 317.89C291.369 317.89 292.058 318.579 292.058 319.429V328.151C292.058 329.001 291.369 329.69 290.519 329.69Z"
    fill="#404040" />
  <path
    d="M297.189 328.151C297.189 329.001 297.878 329.69 298.728 329.69C299.578 329.69 300.267 329.001 300.267 328.151V319.429C300.267 318.579 299.578 317.89 298.728 317.89C297.878 317.89 297.189 318.579 297.189 319.429V328.151Z"
    fill="#404040" />
  <path
    d="M306.937 329.69C306.087 329.69 305.398 329.001 305.398 328.151V319.429C305.398 318.579 306.087 317.89 306.937 317.89C307.787 317.89 308.476 318.579 308.476 319.429V328.151C308.476 329.001 307.787 329.69 306.937 329.69Z"
    fill="#404040" />
  <path
    d="M81.1876 96.5012C80.3376 96.5012 79.6484 97.1904 79.6484 98.0404C79.6484 98.8905 80.3376 99.5796 81.1876 99.5796H89.9098C90.7598 99.5796 91.449 98.8905 91.449 98.0404C91.449 97.1904 90.7598 96.5012 89.9098 96.5012H81.1876Z"
    fill="#404040" />
  <path
    d="M81.1876 104.71C80.3376 104.71 79.6484 105.399 79.6484 106.25C79.6484 107.1 80.3376 107.789 81.1876 107.789H89.9098C90.7598 107.789 91.449 107.1 91.449 106.25C91.449 105.399 90.7598 104.71 89.9098 104.71H81.1876Z"
    fill="#404040" />
  <path
    d="M79.6484 114.459C79.6484 113.608 80.3376 112.919 81.1876 112.919H89.9098C90.7598 112.919 91.449 113.608 91.449 114.459C91.449 115.309 90.7598 115.998 89.9098 115.998H81.1876C80.3376 115.998 79.6484 115.309 79.6484 114.459Z"
    fill="#404040" />
  <path
    d="M81.1876 121.128C80.3376 121.128 79.6484 121.818 79.6484 122.668C79.6484 123.518 80.3376 124.207 81.1876 124.207H89.9098C90.7598 124.207 91.449 123.518 91.449 122.668C91.449 121.818 90.7598 121.128 89.9098 121.128H81.1876Z"
    fill="#404040" />
  <path
    d="M79.6484 130.877C79.6484 130.027 80.3376 129.338 81.1876 129.338H89.9098C90.7598 129.338 91.449 130.027 91.449 130.877C91.449 131.727 90.7598 132.416 89.9098 132.416H81.1876C80.3376 132.416 79.6484 131.727 79.6484 130.877Z"
    fill="#404040" />
  <path
    d="M81.1876 137.547C80.3376 137.547 79.6484 138.236 79.6484 139.086C79.6484 139.936 80.3376 140.625 81.1876 140.625H89.9098C90.7598 140.625 91.449 139.936 91.449 139.086C91.449 138.236 90.7598 137.547 89.9098 137.547H81.1876Z"
    fill="#404040" />
  <path
    d="M79.6484 147.295C79.6484 146.445 80.3376 145.756 81.1876 145.756H89.9098C90.7598 145.756 91.449 146.445 91.449 147.295C91.449 148.145 90.7598 148.834 89.9098 148.834H81.1876C80.3376 148.834 79.6484 148.145 79.6484 147.295Z"
    fill="#404040" />
  <path
    d="M81.1876 153.965C80.3376 153.965 79.6484 154.654 79.6484 155.504C79.6484 156.354 80.3376 157.043 81.1876 157.043H89.9098C90.7598 157.043 91.449 156.354 91.449 155.504C91.449 154.654 90.7598 153.965 89.9098 153.965H81.1876Z"
    fill="#404040" />
  <path
    d="M79.6484 163.713C79.6484 162.863 80.3376 162.174 81.1876 162.174H89.9098C90.7598 162.174 91.449 162.863 91.449 163.713C91.449 164.563 90.7598 165.252 89.9098 165.252H81.1876C80.3376 165.252 79.6484 164.563 79.6484 163.713Z"
    fill="#404040" />
  <path
    d="M81.1876 170.383C80.3376 170.383 79.6484 171.072 79.6484 171.922C79.6484 172.772 80.3376 173.461 81.1876 173.461H89.9098C90.7598 173.461 91.449 172.772 91.449 171.922C91.449 171.072 90.7598 170.383 89.9098 170.383H81.1876Z"
    fill="#404040" />
  <path
    d="M79.6484 180.131C79.6484 179.281 80.3376 178.592 81.1876 178.592H89.9098C90.7598 178.592 91.449 179.281 91.449 180.131C91.449 180.981 90.7598 181.67 89.9098 181.67H81.1876C80.3376 181.67 79.6484 180.981 79.6484 180.131Z"
    fill="#404040" />
  <path
    d="M81.1876 186.801C80.3376 186.801 79.6484 187.49 79.6484 188.34C79.6484 189.19 80.3376 189.879 81.1876 189.879H89.9098C90.7598 189.879 91.449 189.19 91.449 188.34C91.449 187.49 90.7598 186.801 89.9098 186.801H81.1876Z"
    fill="#404040" />
  <path
    d="M79.6484 196.549C79.6484 195.699 80.3376 195.01 81.1876 195.01H89.9098C90.7598 195.01 91.449 195.699 91.449 196.549C91.449 197.399 90.7598 198.088 89.9098 198.088H81.1876C80.3376 198.088 79.6484 197.399 79.6484 196.549Z"
    fill="#404040" />
  <path
    d="M81.1876 203.219C80.3376 203.219 79.6484 203.908 79.6484 204.758C79.6484 205.608 80.3376 206.298 81.1876 206.298H89.9098C90.7598 206.298 91.449 205.608 91.449 204.758C91.449 203.908 90.7598 203.219 89.9098 203.219H81.1876Z"
    fill="#404040" />
  <path
    d="M79.6484 212.967C79.6484 212.117 80.3376 211.428 81.1876 211.428H89.9098C90.7598 211.428 91.449 212.117 91.449 212.967C91.449 213.817 90.7598 214.507 89.9098 214.507H81.1876C80.3376 214.507 79.6484 213.817 79.6484 212.967Z"
    fill="#404040" />
  <path
    d="M81.1876 219.637C80.3376 219.637 79.6484 220.326 79.6484 221.176C79.6484 222.027 80.3376 222.716 81.1876 222.716H89.9098C90.7598 222.716 91.449 222.027 91.449 221.176C91.449 220.326 90.7598 219.637 89.9098 219.637H81.1876Z"
    fill="#404040" />
  <path
    d="M79.6484 229.385C79.6484 228.535 80.3376 227.846 81.1876 227.846H89.9098C90.7598 227.846 91.449 228.535 91.449 229.385C91.449 230.236 90.7598 230.925 89.9098 230.925H81.1876C80.3376 230.925 79.6484 230.236 79.6484 229.385Z"
    fill="#404040" />
  <path
    d="M81.1876 236.055C80.3376 236.055 79.6484 236.744 79.6484 237.595C79.6484 238.445 80.3376 239.134 81.1876 239.134H89.9098C90.7598 239.134 91.449 238.445 91.449 237.595C91.449 236.744 90.7598 236.055 89.9098 236.055H81.1876Z"
    fill="#404040" />
  <path
    d="M79.6484 245.804C79.6484 244.954 80.3376 244.264 81.1876 244.264H89.9098C90.7598 244.264 91.449 244.954 91.449 245.804C91.449 246.654 90.7598 247.343 89.9098 247.343H81.1876C80.3376 247.343 79.6484 246.654 79.6484 245.804Z"
    fill="#404040" />
  <path
    d="M81.1876 252.473C80.3376 252.473 79.6484 253.163 79.6484 254.013C79.6484 254.863 80.3376 255.552 81.1876 255.552H89.9098C90.7598 255.552 91.449 254.863 91.449 254.013C91.449 253.163 90.7598 252.473 89.9098 252.473H81.1876Z"
    fill="#404040" />
  <path
    d="M79.6484 262.222C79.6484 261.372 80.3376 260.683 81.1876 260.683H89.9098C90.7598 260.683 91.449 261.372 91.449 262.222C91.449 263.072 90.7598 263.761 89.9098 263.761H81.1876C80.3376 263.761 79.6484 263.072 79.6484 262.222Z"
    fill="#404040" />
  <path
    d="M81.1876 268.892C80.3376 268.892 79.6484 269.581 79.6484 270.431C79.6484 271.281 80.3376 271.97 81.1876 271.97H89.9098C90.7598 271.97 91.449 271.281 91.449 270.431C91.449 269.581 90.7598 268.892 89.9098 268.892H81.1876Z"
    fill="#404040" />
  <path
    d="M79.6484 278.64C79.6484 277.79 80.3376 277.101 81.1876 277.101H89.9098C90.7598 277.101 91.449 277.79 91.449 278.64C91.449 279.49 90.7598 280.179 89.9098 280.179H81.1876C80.3376 280.179 79.6484 279.49 79.6484 278.64Z"
    fill="#404040" />
  <path
    d="M81.1876 285.31C80.3376 285.31 79.6484 285.999 79.6484 286.849C79.6484 287.699 80.3376 288.388 81.1876 288.388H89.9098C90.7598 288.388 91.449 287.699 91.449 286.849C91.449 285.999 90.7598 285.31 89.9098 285.31H81.1876Z"
    fill="#404040" />
  <path
    d="M79.6484 295.058C79.6484 294.208 80.3376 293.519 81.1876 293.519H89.9098C90.7598 293.519 91.449 294.208 91.449 295.058C91.449 295.908 90.7598 296.597 89.9098 296.597H81.1876C80.3376 296.597 79.6484 295.908 79.6484 295.058Z"
    fill="#404040" />
  <path
    d="M81.1876 301.728C80.3376 301.728 79.6484 302.417 79.6484 303.267C79.6484 304.117 80.3376 304.806 81.1876 304.806H89.9098C90.7598 304.806 91.449 304.117 91.449 303.267C91.449 302.417 90.7598 301.728 89.9098 301.728H81.1876Z"
    fill="#404040" />
  <path
    d="M79.6484 311.476C79.6484 310.626 80.3376 309.937 81.1876 309.937H89.9098C90.7598 309.937 91.449 310.626 91.449 311.476C91.449 312.326 90.7598 313.015 89.9098 313.015H81.1876C80.3376 313.015 79.6484 312.326 79.6484 311.476Z"
    fill="#404040" />
  <rect x="101.25" y="104.25" width="204.674" height="204.674" rx="26.4033" fill="#252525"
    fill-opacity="0.1" stroke="url(#paint5_radial_3933_5278)" stroke-width="1.5" />
  <path opacity="0.3"
    d="M116.668 115.522L115.523 114.377L114.379 115.522L115.523 116.666L116.668 115.522Z"
    fill="#83D2ED" />
  <path opacity="0.3"
    d="M131.05 115.522L129.906 114.377L128.762 115.522L129.906 116.666L131.05 115.522Z"
    fill="#83D2ED" />
  <path opacity="0.3"
    d="M145.433 115.522L144.289 114.377L143.145 115.522L144.289 116.666L145.433 115.522Z"
    fill="#83D2ED" />
  <path d="M159.816 115.522L158.672 114.377L157.528 115.522L158.672 116.666L159.816 115.522Z"
    fill="#83D2ED" />
  <path opacity="0.3"
    d="M174.199 115.522L173.055 114.377L171.911 115.522L173.055 116.666L174.199 115.522Z"
    fill="#83D2ED" />
  <path opacity="0.3"
    d="M188.582 115.522L187.438 114.377L186.293 115.522L187.438 116.666L188.582 115.522Z"
    fill="#83D2ED" />
  <path opacity="0.3"
    d="M202.964 115.522L201.82 114.377L200.676 115.522L201.82 116.666L202.964 115.522Z"
    fill="#83D2ED" />
  <path opacity="0.3"
    d="M217.347 115.522L216.203 114.377L215.059 115.522L216.203 116.666L217.347 115.522Z"
    fill="#83D2ED" />
  <path opacity="0.3"
    d="M231.73 115.522L230.586 114.377L229.442 115.522L230.586 116.666L231.73 115.522Z"
    fill="#83D2ED" />
  <path opacity="0.3"
    d="M246.113 115.522L244.969 114.377L243.825 115.522L244.969 116.666L246.113 115.522Z"
    fill="#83D2ED" />
  <path opacity="0.3"
    d="M260.496 115.522L259.352 114.377L258.207 115.522L259.352 116.666L260.496 115.522Z"
    fill="#83D2ED" />
  <path opacity="0.3"
    d="M274.879 115.522L273.734 114.377L272.59 115.522L273.734 116.666L274.879 115.522Z"
    fill="#83D2ED" />
  <path opacity="0.3"
    d="M289.261 115.522L288.117 114.377L286.973 115.522L288.117 116.666L289.261 115.522Z"
    fill="#83D2ED" />
  <path opacity="0.3"
    d="M116.668 129.904L115.523 128.76L114.379 129.904L115.523 131.049L116.668 129.904Z"
    fill="#83D2ED" />
  <path opacity="0.3"
    d="M131.05 129.904L129.906 128.76L128.762 129.904L129.906 131.049L131.05 129.904Z"
    fill="#83D2ED" />
  <path opacity="0.3"
    d="M145.433 129.904L144.289 128.76L143.145 129.904L144.289 131.049L145.433 129.904Z"
    fill="#83D2ED" />
  <path opacity="0.3"
    d="M159.816 129.904L158.672 128.76L157.528 129.904L158.672 131.049L159.816 129.904Z"
    fill="#83D2ED" />
  <path opacity="0.3"
    d="M174.199 129.904L173.055 128.76L171.911 129.904L173.055 131.049L174.199 129.904Z"
    fill="#83D2ED" />
  <path opacity="0.3"
    d="M188.582 129.904L187.438 128.76L186.293 129.904L187.438 131.049L188.582 129.904Z"
    fill="#83D2ED" />
  <path opacity="0.3"
    d="M202.964 129.904L201.82 128.76L200.676 129.904L201.82 131.049L202.964 129.904Z"
    fill="#83D2ED" />
  <path d="M217.347 129.904L216.203 128.76L215.059 129.904L216.203 131.049L217.347 129.904Z"
    fill="#83D2ED" />
  <path opacity="0.3"
    d="M231.73 129.904L230.586 128.76L229.442 129.904L230.586 131.049L231.73 129.904Z"
    fill="#83D2ED" />
  <path opacity="0.3"
    d="M246.113 129.904L244.969 128.76L243.825 129.904L244.969 131.049L246.113 129.904Z"
    fill="#83D2ED" />
  <path d="M260.496 129.904L259.352 128.76L258.207 129.904L259.352 131.049L260.496 129.904Z"
    fill="#83D2ED" />
  <path opacity="0.3"
    d="M274.879 129.904L273.734 128.76L272.59 129.904L273.734 131.049L274.879 129.904Z"
    fill="#83D2ED" />
  <path opacity="0.3"
    d="M289.261 129.904L288.117 128.76L286.973 129.904L288.117 131.049L289.261 129.904Z"
    fill="#83D2ED" />
  <path opacity="0.3"
    d="M116.668 144.287L115.523 143.143L114.379 144.287L115.523 145.431L116.668 144.287Z"
    fill="#83D2ED" />
  <path opacity="0.3"
    d="M131.05 144.287L129.906 143.143L128.762 144.287L129.906 145.431L131.05 144.287Z"
    fill="#83D2ED" />
  <path d="M145.433 144.287L144.289 143.143L143.145 144.287L144.289 145.431L145.433 144.287Z"
    fill="#83D2ED" />
  <path opacity="0.3"
    d="M159.816 144.287L158.672 143.143L157.528 144.287L158.672 145.431L159.816 144.287Z"
    fill="#83D2ED" />
  <path opacity="0.3"
    d="M174.199 144.287L173.055 143.143L171.911 144.287L173.055 145.431L174.199 144.287Z"
    fill="#83D2ED" />
  <path opacity="0.3"
    d="M188.582 144.287L187.438 143.143L186.293 144.287L187.438 145.431L188.582 144.287Z"
    fill="#83D2ED" />
  <path opacity="0.3"
    d="M202.964 144.287L201.82 143.143L200.676 144.287L201.82 145.431L202.964 144.287Z"
    fill="#83D2ED" />
  <path opacity="0.3"
    d="M217.347 144.287L216.203 143.143L215.059 144.287L216.203 145.431L217.347 144.287Z"
    fill="#83D2ED" />
  <path opacity="0.3"
    d="M231.73 144.287L230.586 143.143L229.442 144.287L230.586 145.431L231.73 144.287Z"
    fill="#83D2ED" />
  <path opacity="0.3"
    d="M246.113 144.287L244.969 143.143L243.825 144.287L244.969 145.431L246.113 144.287Z"
    fill="#83D2ED" />
  <path opacity="0.3"
    d="M260.496 144.287L259.352 143.143L258.207 144.287L259.352 145.431L260.496 144.287Z"
    fill="#83D2ED" />
  <path d="M274.879 144.287L273.734 143.143L272.59 144.287L273.734 145.431L274.879 144.287Z"
    fill="#83D2ED" />
  <path opacity="0.3"
    d="M289.261 144.287L288.117 143.143L286.973 144.287L288.117 145.431L289.261 144.287Z"
    fill="#83D2ED" />
  <path opacity="0.3"
    d="M116.668 158.67L115.523 157.526L114.379 158.67L115.523 159.814L116.668 158.67Z"
    fill="#83D2ED" />
  <path d="M131.05 158.67L129.906 157.526L128.762 158.67L129.906 159.814L131.05 158.67Z"
    fill="#83D2ED" />
  <path opacity="0.3"
    d="M145.433 158.67L144.289 157.526L143.145 158.67L144.289 159.814L145.433 158.67Z"
    fill="#83D2ED" />
  <path opacity="0.3"
    d="M260.496 158.67L259.352 157.526L258.207 158.67L259.352 159.814L260.496 158.67Z"
    fill="#83D2ED" />
  <path opacity="0.3"
    d="M274.879 158.67L273.734 157.526L272.59 158.67L273.734 159.814L274.879 158.67Z" fill="#83D2ED" />
  <path opacity="0.3"
    d="M289.261 158.67L288.117 157.526L286.973 158.67L288.117 159.814L289.261 158.67Z"
    fill="#83D2ED" />
  <path opacity="0.3"
    d="M116.668 173.053L115.523 171.909L114.379 173.053L115.523 174.197L116.668 173.053Z"
    fill="#83D2ED" />
  <path opacity="0.3"
    d="M131.05 173.053L129.906 171.909L128.762 173.053L129.906 174.197L131.05 173.053Z"
    fill="#83D2ED" />
  <path opacity="0.3"
    d="M145.433 173.053L144.289 171.909L143.145 173.053L144.289 174.197L145.433 173.053Z"
    fill="#83D2ED" />
  <path d="M260.496 173.053L259.352 171.909L258.207 173.053L259.352 174.197L260.496 173.053Z"
    fill="#83D2ED" />
  <path opacity="0.3"
    d="M274.879 173.053L273.734 171.909L272.59 173.053L273.734 174.197L274.879 173.053Z"
    fill="#83D2ED" />
  <path opacity="0.3"
    d="M289.261 173.053L288.117 171.909L286.973 173.053L288.117 174.197L289.261 173.053Z"
    fill="#83D2ED" />
  <path opacity="0.3"
    d="M116.668 187.436L115.523 186.292L114.379 187.436L115.523 188.58L116.668 187.436Z"
    fill="#83D2ED" />
  <path opacity="0.3"
    d="M131.05 187.436L129.906 186.292L128.762 187.436L129.906 188.58L131.05 187.436Z"
    fill="#83D2ED" />
  <path opacity="0.3"
    d="M145.433 187.436L144.289 186.292L143.145 187.436L144.289 188.58L145.433 187.436Z"
    fill="#83D2ED" />
  <path opacity="0.3"
    d="M260.496 187.436L259.352 186.292L258.207 187.436L259.352 188.58L260.496 187.436Z"
    fill="#83D2ED" />
  <path opacity="0.3"
    d="M274.879 187.436L273.734 186.292L272.59 187.436L273.734 188.58L274.879 187.436Z"
    fill="#83D2ED" />
  <path opacity="0.3"
    d="M289.261 187.436L288.117 186.292L286.973 187.436L288.117 188.58L289.261 187.436Z"
    fill="#83D2ED" />
  <path opacity="0.3"
    d="M116.668 201.819L115.523 200.675L114.379 201.819L115.523 202.963L116.668 201.819Z"
    fill="#83D2ED" />
  <path opacity="0.3"
    d="M131.05 201.819L129.906 200.675L128.762 201.819L129.906 202.963L131.05 201.819Z"
    fill="#83D2ED" />
  <path opacity="0.3"
    d="M145.433 201.819L144.289 200.675L143.145 201.819L144.289 202.963L145.433 201.819Z"
    fill="#83D2ED" />
  <path opacity="0.3"
    d="M260.496 201.819L259.352 200.675L258.207 201.819L259.352 202.963L260.496 201.819Z"
    fill="#83D2ED" />
  <path opacity="0.3"
    d="M274.879 201.819L273.734 200.675L272.59 201.819L273.734 202.963L274.879 201.819Z"
    fill="#83D2ED" />
  <path opacity="0.3"
    d="M289.261 201.819L288.117 200.675L286.973 201.819L288.117 202.963L289.261 201.819Z"
    fill="#83D2ED" />
  <path opacity="0.3"
    d="M116.668 216.202L115.523 215.058L114.379 216.202L115.523 217.346L116.668 216.202Z"
    fill="#83D2ED" />
  <path d="M131.05 216.202L129.906 215.058L128.762 216.202L129.906 217.346L131.05 216.202Z"
    fill="#83D2ED" />
  <path opacity="0.3"
    d="M145.433 216.202L144.289 215.058L143.145 216.202L144.289 217.346L145.433 216.202Z"
    fill="#83D2ED" />
  <path opacity="0.3"
    d="M260.496 216.202L259.352 215.058L258.207 216.202L259.352 217.346L260.496 216.202Z"
    fill="#83D2ED" />
  <path opacity="0.3"
    d="M274.879 216.202L273.734 215.058L272.59 216.202L273.734 217.346L274.879 216.202Z"
    fill="#83D2ED" />
  <path opacity="0.3"
    d="M289.261 216.202L288.117 215.058L286.973 216.202L288.117 217.346L289.261 216.202Z"
    fill="#83D2ED" />
  <path opacity="0.3"
    d="M116.668 230.585L115.523 229.44L114.379 230.585L115.523 231.729L116.668 230.585Z"
    fill="#83D2ED" />
  <path opacity="0.3"
    d="M131.05 230.585L129.906 229.44L128.762 230.585L129.906 231.729L131.05 230.585Z"
    fill="#83D2ED" />
  <path opacity="0.3"
    d="M145.433 230.585L144.289 229.44L143.145 230.585L144.289 231.729L145.433 230.585Z"
    fill="#83D2ED" />
  <path opacity="0.3"
    d="M260.496 230.585L259.352 229.44L258.207 230.585L259.352 231.729L260.496 230.585Z"
    fill="#83D2ED" />
  <path opacity="0.3"
    d="M274.879 230.585L273.734 229.44L272.59 230.585L273.734 231.729L274.879 230.585Z"
    fill="#83D2ED" />
  <path opacity="0.3"
    d="M289.261 230.585L288.117 229.44L286.973 230.585L288.117 231.729L289.261 230.585Z"
    fill="#83D2ED" />
  <path opacity="0.3"
    d="M116.668 244.967L115.523 243.823L114.379 244.967L115.523 246.112L116.668 244.967Z"
    fill="#83D2ED" />
  <path d="M131.05 244.967L129.906 243.823L128.762 244.967L129.906 246.112L131.05 244.967Z"
    fill="#83D2ED" />
  <path opacity="0.3"
    d="M145.433 244.967L144.289 243.823L143.145 244.967L144.289 246.112L145.433 244.967Z"
    fill="#83D2ED" />
  <path opacity="0.3"
    d="M260.496 244.967L259.352 243.823L258.207 244.967L259.352 246.112L260.496 244.967Z"
    fill="#83D2ED" />
  <path opacity="0.3"
    d="M274.879 244.967L273.734 243.823L272.59 244.967L273.734 246.112L274.879 244.967Z"
    fill="#83D2ED" />
  <path opacity="0.3"
    d="M289.261 244.967L288.117 243.823L286.973 244.967L288.117 246.112L289.261 244.967Z"
    fill="#83D2ED" />
  <path opacity="0.3"
    d="M116.668 259.351L115.523 258.207L114.379 259.351L115.523 260.495L116.668 259.351Z"
    fill="#83D2ED" />
  <path d="M131.05 259.351L129.906 258.207L128.762 259.351L129.906 260.495L131.05 259.351Z"
    fill="#83D2ED" />
  <path opacity="0.3"
    d="M145.433 259.351L144.289 258.207L143.145 259.351L144.289 260.495L145.433 259.351Z"
    fill="#83D2ED" />
  <path opacity="0.3"
    d="M260.496 259.351L259.352 258.207L258.207 259.351L259.352 260.495L260.496 259.351Z"
    fill="#83D2ED" />
  <path d="M274.879 259.351L273.734 258.207L272.59 259.351L273.734 260.495L274.879 259.351Z"
    fill="#83D2ED" />
  <path opacity="0.3"
    d="M289.261 259.351L288.117 258.207L286.973 259.351L288.117 260.495L289.261 259.351Z"
    fill="#83D2ED" />
  <path opacity="0.3"
    d="M116.668 273.734L115.523 272.589L114.379 273.734L115.523 274.878L116.668 273.734Z"
    fill="#83D2ED" />
  <path d="M131.05 273.734L129.906 272.589L128.762 273.734L129.906 274.878L131.05 273.734Z"
    fill="#83D2ED" />
  <path opacity="0.3"
    d="M145.433 273.734L144.289 272.589L143.145 273.734L144.289 274.878L145.433 273.734Z"
    fill="#83D2ED" />
  <path opacity="0.3"
    d="M159.816 273.734L158.672 272.589L157.528 273.734L158.672 274.878L159.816 273.734Z"
    fill="#83D2ED" />
  <path opacity="0.3"
    d="M174.199 273.734L173.055 272.589L171.911 273.734L173.055 274.878L174.199 273.734Z"
    fill="#83D2ED" />
  <path opacity="0.3"
    d="M188.582 273.734L187.438 272.589L186.293 273.734L187.438 274.878L188.582 273.734Z"
    fill="#83D2ED" />
  <path opacity="0.3"
    d="M202.964 273.734L201.82 272.589L200.676 273.734L201.82 274.878L202.964 273.734Z"
    fill="#83D2ED" />
  <path d="M217.347 273.734L216.203 272.589L215.059 273.734L216.203 274.878L217.347 273.734Z"
    fill="#83D2ED" />
  <path opacity="0.3"
    d="M231.73 273.734L230.586 272.589L229.442 273.734L230.586 274.878L231.73 273.734Z"
    fill="#83D2ED" />
  <path opacity="0.3"
    d="M246.113 273.734L244.969 272.589L243.825 273.734L244.969 274.878L246.113 273.734Z"
    fill="#83D2ED" />
  <path opacity="0.3"
    d="M260.496 273.734L259.352 272.589L258.207 273.734L259.352 274.878L260.496 273.734Z"
    fill="#83D2ED" />
  <path opacity="0.3"
    d="M274.879 273.734L273.734 272.589L272.59 273.734L273.734 274.878L274.879 273.734Z"
    fill="#83D2ED" />
  <path opacity="0.3"
    d="M289.261 273.734L288.117 272.589L286.973 273.734L288.117 274.878L289.261 273.734Z"
    fill="#83D2ED" />
  <path opacity="0.3"
    d="M116.668 288.116L115.523 286.972L114.379 288.116L115.523 289.26L116.668 288.116Z"
    fill="#83D2ED" />
  <path opacity="0.3"
    d="M131.05 288.116L129.906 286.972L128.762 288.116L129.906 289.26L131.05 288.116Z"
    fill="#83D2ED" />
  <path opacity="0.3"
    d="M145.433 288.116L144.289 286.972L143.145 288.116L144.289 289.26L145.433 288.116Z"
    fill="#83D2ED" />
  <path d="M159.816 288.116L158.672 286.972L157.528 288.116L158.672 289.26L159.816 288.116Z"
    fill="#83D2ED" />
  <path opacity="0.3"
    d="M174.199 288.116L173.055 286.972L171.911 288.116L173.055 289.26L174.199 288.116Z"
    fill="#83D2ED" />
  <path opacity="0.3"
    d="M188.582 288.116L187.438 286.972L186.293 288.116L187.438 289.26L188.582 288.116Z"
    fill="#83D2ED" />
  <path d="M202.964 288.116L201.82 286.972L200.676 288.116L201.82 289.26L202.964 288.116Z"
    fill="#83D2ED" />
  <path opacity="0.3"
    d="M217.347 288.116L216.203 286.972L215.059 288.116L216.203 289.26L217.347 288.116Z"
    fill="#83D2ED" />
  <path opacity="0.3"
    d="M231.73 288.116L230.586 286.972L229.442 288.116L230.586 289.26L231.73 288.116Z"
    fill="#83D2ED" />
  <path opacity="0.3"
    d="M246.113 288.116L244.969 286.972L243.825 288.116L244.969 289.26L246.113 288.116Z"
    fill="#83D2ED" />
  <path opacity="0.3"
    d="M260.496 288.116L259.352 286.972L258.207 288.116L259.352 289.26L260.496 288.116Z"
    fill="#83D2ED" />
  <path opacity="0.3"
    d="M274.879 288.116L273.734 286.972L272.59 288.116L273.734 289.26L274.879 288.116Z"
    fill="#83D2ED" />
  <path opacity="0.3"
    d="M289.261 288.116L288.117 286.972L286.973 288.116L288.117 289.26L289.261 288.116Z"
    fill="#83D2ED" />
  <path opacity="0.3"
    d="M116.668 302.499L115.523 301.355L114.379 302.499L115.523 303.643L116.668 302.499Z"
    fill="#83D2ED" />
  <path opacity="0.3"
    d="M131.05 302.499L129.906 301.355L128.762 302.499L129.906 303.643L131.05 302.499Z"
    fill="#83D2ED" />
  <path opacity="0.3"
    d="M145.433 302.499L144.289 301.355L143.145 302.499L144.289 303.643L145.433 302.499Z"
    fill="#83D2ED" />
  <path opacity="0.3"
    d="M159.816 302.499L158.672 301.355L157.528 302.499L158.672 303.643L159.816 302.499Z"
    fill="#83D2ED" />
  <path opacity="0.3"
    d="M174.199 302.499L173.055 301.355L171.911 302.499L173.055 303.643L174.199 302.499Z"
    fill="#83D2ED" />
  <path opacity="0.3"
    d="M188.582 302.499L187.438 301.355L186.293 302.499L187.438 303.643L188.582 302.499Z"
    fill="#83D2ED" />
  <path opacity="0.3"
    d="M202.964 302.499L201.82 301.355L200.676 302.499L201.82 303.643L202.964 302.499Z"
    fill="#83D2ED" />
  <path opacity="0.3"
    d="M217.347 302.499L216.203 301.355L215.059 302.499L216.203 303.643L217.347 302.499Z"
    fill="#83D2ED" />
  <path opacity="0.3"
    d="M231.73 302.499L230.586 301.355L229.442 302.499L230.586 303.643L231.73 302.499Z"
    fill="#83D2ED" />
  <path opacity="0.3"
    d="M246.113 302.499L244.969 301.355L243.825 302.499L244.969 303.643L246.113 302.499Z"
    fill="#83D2ED" />
  <path opacity="0.3"
    d="M260.496 302.499L259.352 301.355L258.207 302.499L259.352 303.643L260.496 302.499Z"
    fill="#83D2ED" />
  <path opacity="0.3"
    d="M274.879 302.499L273.734 301.355L272.59 302.499L273.734 303.643L274.879 302.499Z"
    fill="#83D2ED" />
  <path opacity="0.3"
    d="M289.261 302.499L288.117 301.355L286.973 302.499L288.117 303.643L289.261 302.499Z"
    fill="#83D2ED" />
  <path
    d="M224.638 227.934C209.065 226.097 195.664 216.072 189.537 201.66C187.894 197.678 183.951 194.875 179.383 194.875C173.308 194.875 168.379 199.804 168.379 205.873C168.379 208.908 169.603 211.666 171.6 213.65C176.407 218.456 176.407 226.271 171.6 231.078C169.622 233.056 168.379 235.82 168.379 238.854C168.379 244.923 173.308 249.852 179.377 249.852C185.446 249.852 190.375 244.923 190.375 238.854C190.375 235.82 189.151 233.062 187.153 231.078C183.616 227.541 182.688 222.374 184.351 217.992C197.204 221.446 207.906 230.614 213.195 243.068C214.838 247.05 218.781 249.852 223.349 249.852C229.418 249.852 234.347 244.923 234.347 238.854C234.347 233.21 230.088 228.572 224.631 227.94L224.638 227.934Z"
    fill="#999999" />
  <path
    d="M231.126 186.152C233.104 184.174 234.347 181.41 234.347 178.375C234.347 172.306 229.418 167.377 223.349 167.377C217.28 167.377 212.351 172.306 212.351 178.375C212.351 181.41 213.575 184.167 215.573 186.152C219.11 189.689 220.038 194.856 218.375 199.237C205.522 195.784 194.82 186.616 189.531 174.162C187.888 170.18 183.951 167.377 179.377 167.377C173.308 167.377 168.379 172.306 168.379 178.375C168.379 184.019 172.638 188.658 178.095 189.29C193.667 191.1 207.042 201.131 213.176 215.544C214.819 219.526 218.762 222.328 223.33 222.328C229.399 222.328 234.328 217.4 234.328 211.33C234.328 208.296 233.104 205.538 231.106 203.554C226.326 198.773 226.326 190.978 231.126 186.152Z"
    fill="#999999" />
  <defs>
    <filter id="filter0_b_3933_5278" x="54" y="57" width="298.596" height="298.595"
      filterUnits="userSpaceOnUse" color-interpolation-filters="sRGB">
      <feFlood flood-opacity="0" result="BackgroundImageFix" />
      <feGaussianBlur in="BackgroundImageFix" stdDeviation="5" />
      <feComposite in2="SourceAlpha" operator="in" result="effect1_backgroundBlur_3933_5278" />
      <feBlend mode="normal" in="SourceGraphic" in2="effect1_backgroundBlur_3933_5278"
        result="shape" />
    </filter>
    <filter id="filter1_f_3933_5278" x="90.9361" y="0.301361" width="318.358" height="291.165"
      filterUnits="userSpaceOnUse" color-interpolation-filters="sRGB">
      <feFlood flood-opacity="0" result="BackgroundImageFix" />
      <feBlend mode="normal" in="SourceGraphic" in2="BackgroundImageFix" result="shape" />
      <feGaussianBlur stdDeviation="44.1237" result="effect1_foregroundBlur_3933_5278" />
    </filter>
    <filter id="filter2_f_3933_5278" x="0.123627" y="110.867" width="318.358" height="291.165"
      filterUnits="userSpaceOnUse" color-interpolation-filters="sRGB">
      <feFlood flood-opacity="0" result="BackgroundImageFix" />
      <feBlend mode="normal" in="SourceGraphic" in2="BackgroundImageFix" result="shape" />
      <feGaussianBlur stdDeviation="44.1237" result="effect1_foregroundBlur_3933_5278" />
    </filter>
    <filter id="filter3_f_3933_5278" x="94.0151" y="97.0146" width="218.566" height="218.567"
      filterUnits="userSpaceOnUse" color-interpolation-filters="sRGB">
      <feFlood flood-opacity="0" result="BackgroundImageFix" />
      <feBlend mode="normal" in="SourceGraphic" in2="BackgroundImageFix" result="shape" />
      <feGaussianBlur stdDeviation="3.0784" result="effect1_foregroundBlur_3933_5278" />
    </filter>
    <linearGradient id="paint0_linear_3933_5278" x1="335.413" y1="334.564" x2="82.2142" y2="72.6436"
      gradientUnits="userSpaceOnUse">
      <stop stop-color="#131313" />
      <stop offset="1" stop-color="#232323" />
    </linearGradient>
    <linearGradient id="paint1_linear_3933_5278" x1="203.298" y1="78.0308" x2="203.298" y2="334.564"
      gradientUnits="userSpaceOnUse">
      <stop stop-color="white" stop-opacity="0.15" />
      <stop offset="1" stop-color="#1A1A1A" />
    </linearGradient>
    <linearGradient id="paint2_linear_3933_5278" x1="216.634" y1="74.4184" x2="316.131" y2="191.423"
      gradientUnits="userSpaceOnUse">
      <stop stop-color="#FDC066" />
      <stop offset="0.51" stop-color="#D8D3E9" />
      <stop offset="1" stop-color="#7BD1ED" />
    </linearGradient>
    <linearGradient id="paint3_linear_3933_5278" x1="125.822" y1="184.984" x2="225.319" y2="301.989"
      gradientUnits="userSpaceOnUse">
      <stop stop-color="#FDC066" />
      <stop offset="0.51" stop-color="#D8D3E9" />
      <stop offset="1" stop-color="#7BD1ED" />
    </linearGradient>
    <linearGradient id="paint4_linear_3933_5278" x1="119.058" y1="206.298" x2="294.275" y2="206.45"
      gradientUnits="userSpaceOnUse">
      <stop stop-color="#F4C587" />
      <stop offset="0.5" stop-color="#D6D3E9" />
      <stop offset="1" stop-color="#99D2EC" />
    </linearGradient>
    <radialGradient id="paint5_radial_3933_5278" cx="0" cy="0" r="1" gradientUnits="userSpaceOnUse"
      gradientTransform="translate(204.001 207) rotate(-89.9997) scale(102 19819.7)">
      <stop stop-color="#F4C587" />
      <stop offset="0.5" stop-color="#D6D3E9" />
      <stop offset="1" stop-color="#99D2EC" />
    </radialGradient>
  </defs>
</svg>
  