<svg width="646" height="239" viewBox="0 0 646 239" fill="none" xmlns="http://www.w3.org/2000/svg">
<mask id="path-1-inside-1_3092_3718" fill="white">
<path fill-rule="evenodd" clip-rule="evenodd" d="M181.209 54.2192C186.922 48.5071 190.513 40.5249 190.513 31.7612C190.513 14.2339 176.279 0 158.751 0C141.224 0 126.99 14.2339 126.99 31.7612C126.99 40.5249 130.525 48.4885 136.293 54.2192C146.087 64.0125 148.954 78.1324 144.944 90.4307C144.649 91.3339 143.687 91.8224 142.773 91.5638C106.372 81.2644 76.14 55.0363 61.086 19.5926C56.3414 8.09381 44.9728 0 31.7622 0C14.2349 0 0.000976562 14.2339 0.000976562 31.7612C0.000976562 48.0605 12.2999 61.4572 28.0595 63.2806C73.0314 68.509 111.658 97.4793 129.372 139.102C134.116 150.601 145.504 158.695 158.696 158.695C176.223 158.695 190.457 144.461 190.457 126.933C190.457 118.17 186.922 110.206 181.154 104.475C167.348 90.6693 167.348 68.1555 181.209 54.2192ZM162.463 174.89C162.467 174.886 162.465 174.88 162.46 174.879C117.493 169.572 78.7977 140.622 61.1046 99.0037C56.36 87.5049 44.9728 79.4111 31.7808 79.4111C14.2349 79.4111 0.000976562 93.6451 0.000976562 111.172C0.000976562 119.936 3.53621 127.9 9.30421 133.63C23.1846 147.511 23.1846 170.08 9.30421 183.961C3.59203 189.673 0.000976562 197.655 0.000976562 206.419C0.000976562 223.946 14.2349 238.18 31.7622 238.18C49.2895 238.18 63.5235 223.946 63.5235 206.419C63.5235 197.655 59.9882 189.692 54.2202 183.961C44.427 174.168 41.56 160.048 45.5701 147.749C45.8646 146.846 46.8265 146.358 47.7407 146.616C84.1412 156.916 114.374 183.144 129.428 218.588C134.172 230.086 145.559 238.18 158.751 238.18C176.279 238.18 190.513 223.946 190.513 206.419C190.513 190.124 178.221 176.73 162.467 174.901C162.465 174.901 162.464 174.9 162.463 174.898C162.461 174.896 162.461 174.893 162.463 174.89ZM448.698 33.3413C452.531 37.044 454.411 41.7328 454.411 47.3892C454.411 53.0455 452.531 57.7344 448.698 61.5673C444.865 65.4002 440.065 67.2795 434.278 67.2795C428.492 67.2795 423.635 65.4002 419.728 61.5673C415.839 57.7344 413.886 53.0455 413.886 47.3892C413.886 41.7328 415.839 37.044 419.728 33.3413C423.617 29.6386 428.492 27.7407 434.278 27.7407C440.065 27.7407 444.865 29.5642 448.698 33.3413ZM416.565 82.8423C416.565 81.8206 417.393 80.9924 418.415 80.9924H449.826C450.847 80.9924 451.675 81.8206 451.675 82.8423V207.099C451.675 208.121 450.847 208.949 449.826 208.949H418.415C417.393 208.949 416.565 208.121 416.565 207.099V82.8423ZM255.017 208.952V36.5333C255.017 35.5117 255.845 34.6835 256.866 34.6835H287.859C288.474 34.6835 289.049 34.9896 289.393 35.5001L359.382 139.436C360.402 140.95 362.767 140.229 362.767 138.403V36.5334C362.767 35.5117 363.595 34.6835 364.617 34.6835H397.739C398.761 34.6835 399.589 35.5117 399.589 36.5334V207.046C399.589 208.068 398.761 208.896 397.739 208.896H366.505C365.889 208.896 365.314 208.59 364.971 208.079L295.037 104.218C294.017 102.704 291.653 103.426 291.653 105.251V207.12C291.653 208.142 290.825 208.97 289.803 208.97H255.035C255.025 208.97 255.017 208.962 255.017 208.952ZM472.944 34.6835C471.923 34.6835 471.094 35.5117 471.094 36.5333V207.046C471.094 208.068 471.923 208.896 472.944 208.896H504.355C505.377 208.896 506.205 208.068 506.205 207.046V36.5334C506.205 35.5117 505.377 34.6835 504.355 34.6835H472.944ZM523.755 110.495C523.749 110.498 523.743 110.492 523.746 110.486C529.16 100.633 536.711 92.9738 546.38 87.6185C556.111 82.204 567.313 79.5247 580.095 79.5247C592.878 79.5247 604.432 82.0738 614.294 87.1347C624.155 92.1771 631.877 99.3033 637.422 108.551C642.966 117.742 645.813 128.571 645.999 141.038C645.999 144.902 645.78 148.369 645.295 151.461C645.157 152.337 644.392 152.964 643.506 152.964H553.265C552.73 152.964 552.297 153.398 552.297 153.932C553.153 163.235 556.13 170.548 561.247 175.832C566.364 181.135 573.415 183.795 582.421 183.795C589.547 183.795 595.501 182.27 600.19 179.162C604.555 176.355 607.534 172.272 609.113 167.001C609.358 166.184 610.094 165.598 610.947 165.598H641.954C643.091 165.598 643.962 166.615 643.74 167.73C642.222 175.355 639.124 182.302 634.389 188.484C629.216 195.294 622.462 200.653 613.996 204.542C605.549 208.43 595.799 210.384 584.858 210.384C570.569 210.384 558.27 207.705 547.925 202.42C537.579 197.118 529.616 189.526 524.015 179.665C518.471 169.803 515.68 158.304 515.68 145.168C515.68 132.04 518.411 120.362 523.764 110.504C523.767 110.498 523.761 110.492 523.755 110.495ZM610.991 130.041C610.992 130.041 610.994 130.041 610.995 130.04C610.998 130.038 611 130.035 610.999 130.031C609.844 122.24 606.607 116.233 601.437 111.974C596.264 107.713 589.64 105.648 581.658 105.648C573.676 105.648 567.61 107.844 562.363 112.216C557.632 116.173 554.638 121.439 553.394 127.906C553.183 129.002 554.05 129.985 555.167 129.985H610.954C610.969 129.985 610.982 129.998 610.982 130.013V130.033C610.982 130.037 610.986 130.041 610.991 130.041Z"/>
</mask>
<path fill-rule="evenodd" clip-rule="evenodd" d="M181.209 54.2192C186.922 48.5071 190.513 40.5249 190.513 31.7612C190.513 14.2339 176.279 0 158.751 0C141.224 0 126.99 14.2339 126.99 31.7612C126.99 40.5249 130.525 48.4885 136.293 54.2192C146.087 64.0125 148.954 78.1324 144.944 90.4307C144.649 91.3339 143.687 91.8224 142.773 91.5638C106.372 81.2644 76.14 55.0363 61.086 19.5926C56.3414 8.09381 44.9728 0 31.7622 0C14.2349 0 0.000976562 14.2339 0.000976562 31.7612C0.000976562 48.0605 12.2999 61.4572 28.0595 63.2806C73.0314 68.509 111.658 97.4793 129.372 139.102C134.116 150.601 145.504 158.695 158.696 158.695C176.223 158.695 190.457 144.461 190.457 126.933C190.457 118.17 186.922 110.206 181.154 104.475C167.348 90.6693 167.348 68.1555 181.209 54.2192ZM162.463 174.89C162.467 174.886 162.465 174.88 162.46 174.879C117.493 169.572 78.7977 140.622 61.1046 99.0037C56.36 87.5049 44.9728 79.4111 31.7808 79.4111C14.2349 79.4111 0.000976562 93.6451 0.000976562 111.172C0.000976562 119.936 3.53621 127.9 9.30421 133.63C23.1846 147.511 23.1846 170.08 9.30421 183.961C3.59203 189.673 0.000976562 197.655 0.000976562 206.419C0.000976562 223.946 14.2349 238.18 31.7622 238.18C49.2895 238.18 63.5235 223.946 63.5235 206.419C63.5235 197.655 59.9882 189.692 54.2202 183.961C44.427 174.168 41.56 160.048 45.5701 147.749C45.8646 146.846 46.8265 146.358 47.7407 146.616C84.1412 156.916 114.374 183.144 129.428 218.588C134.172 230.086 145.559 238.18 158.751 238.18C176.279 238.18 190.513 223.946 190.513 206.419C190.513 190.124 178.221 176.73 162.467 174.901C162.465 174.901 162.464 174.9 162.463 174.898C162.461 174.896 162.461 174.893 162.463 174.89ZM448.698 33.3413C452.531 37.044 454.411 41.7328 454.411 47.3892C454.411 53.0455 452.531 57.7344 448.698 61.5673C444.865 65.4002 440.065 67.2795 434.278 67.2795C428.492 67.2795 423.635 65.4002 419.728 61.5673C415.839 57.7344 413.886 53.0455 413.886 47.3892C413.886 41.7328 415.839 37.044 419.728 33.3413C423.617 29.6386 428.492 27.7407 434.278 27.7407C440.065 27.7407 444.865 29.5642 448.698 33.3413ZM416.565 82.8423C416.565 81.8206 417.393 80.9924 418.415 80.9924H449.826C450.847 80.9924 451.675 81.8206 451.675 82.8423V207.099C451.675 208.121 450.847 208.949 449.826 208.949H418.415C417.393 208.949 416.565 208.121 416.565 207.099V82.8423ZM255.017 208.952V36.5333C255.017 35.5117 255.845 34.6835 256.866 34.6835H287.859C288.474 34.6835 289.049 34.9896 289.393 35.5001L359.382 139.436C360.402 140.95 362.767 140.229 362.767 138.403V36.5334C362.767 35.5117 363.595 34.6835 364.617 34.6835H397.739C398.761 34.6835 399.589 35.5117 399.589 36.5334V207.046C399.589 208.068 398.761 208.896 397.739 208.896H366.505C365.889 208.896 365.314 208.59 364.971 208.079L295.037 104.218C294.017 102.704 291.653 103.426 291.653 105.251V207.12C291.653 208.142 290.825 208.97 289.803 208.97H255.035C255.025 208.97 255.017 208.962 255.017 208.952ZM472.944 34.6835C471.923 34.6835 471.094 35.5117 471.094 36.5333V207.046C471.094 208.068 471.923 208.896 472.944 208.896H504.355C505.377 208.896 506.205 208.068 506.205 207.046V36.5334C506.205 35.5117 505.377 34.6835 504.355 34.6835H472.944ZM523.755 110.495C523.749 110.498 523.743 110.492 523.746 110.486C529.16 100.633 536.711 92.9738 546.38 87.6185C556.111 82.204 567.313 79.5247 580.095 79.5247C592.878 79.5247 604.432 82.0738 614.294 87.1347C624.155 92.1771 631.877 99.3033 637.422 108.551C642.966 117.742 645.813 128.571 645.999 141.038C645.999 144.902 645.78 148.369 645.295 151.461C645.157 152.337 644.392 152.964 643.506 152.964H553.265C552.73 152.964 552.297 153.398 552.297 153.932C553.153 163.235 556.13 170.548 561.247 175.832C566.364 181.135 573.415 183.795 582.421 183.795C589.547 183.795 595.501 182.27 600.19 179.162C604.555 176.355 607.534 172.272 609.113 167.001C609.358 166.184 610.094 165.598 610.947 165.598H641.954C643.091 165.598 643.962 166.615 643.74 167.73C642.222 175.355 639.124 182.302 634.389 188.484C629.216 195.294 622.462 200.653 613.996 204.542C605.549 208.43 595.799 210.384 584.858 210.384C570.569 210.384 558.27 207.705 547.925 202.42C537.579 197.118 529.616 189.526 524.015 179.665C518.471 169.803 515.68 158.304 515.68 145.168C515.68 132.04 518.411 120.362 523.764 110.504C523.767 110.498 523.761 110.492 523.755 110.495ZM610.991 130.041C610.992 130.041 610.994 130.041 610.995 130.04C610.998 130.038 611 130.035 610.999 130.031C609.844 122.24 606.607 116.233 601.437 111.974C596.264 107.713 589.64 105.648 581.658 105.648C573.676 105.648 567.61 107.844 562.363 112.216C557.632 116.173 554.638 121.439 553.394 127.906C553.183 129.002 554.05 129.985 555.167 129.985H610.954C610.969 129.985 610.982 129.998 610.982 130.013V130.033C610.982 130.037 610.986 130.041 610.991 130.041Z" fill="black"/>
<path d="M181.209 54.2192L179.247 52.2572L179.242 52.2625L181.209 54.2192ZM136.293 54.2192L138.255 52.2572L138.249 52.2509L136.293 54.2192ZM144.944 90.4307L142.305 89.5705L142.305 89.5706L144.944 90.4307ZM142.773 91.5638L142.017 94.2337L142.018 94.2337L142.773 91.5638ZM61.086 19.5926L58.521 20.651L58.5265 20.6642L58.5321 20.6773L61.086 19.5926ZM28.0595 63.2806L28.38 60.5244L28.3785 60.5242L28.0595 63.2806ZM129.372 139.102L131.937 138.044L131.931 138.029L131.925 138.015L129.372 139.102ZM181.154 104.475L179.192 106.437L179.198 106.444L181.154 104.475ZM162.46 174.879L162.785 172.124L162.785 172.124L162.46 174.879ZM61.1046 99.0037L58.5396 100.062L58.5453 100.076L58.551 100.089L61.1046 99.0037ZM9.30421 133.63L11.2663 131.668L11.2599 131.662L9.30421 133.63ZM9.30421 183.961L7.34215 181.999L7.34215 181.999L9.30421 183.961ZM54.2202 183.961L52.2582 185.923L52.2645 185.929L54.2202 183.961ZM45.5701 147.749L42.932 146.889L42.932 146.889L45.5701 147.749ZM47.7407 146.616L48.4961 143.946L48.4961 143.946L47.7407 146.616ZM129.428 218.588L131.993 217.529L131.987 217.516L131.982 217.503L129.428 218.588ZM162.467 174.901L162.139 177.656L162.147 177.657L162.467 174.901ZM162.463 174.898L160.216 176.526L160.222 176.535L162.463 174.898ZM448.698 33.3413L446.751 35.3177L446.761 35.3274L446.771 35.3369L448.698 33.3413ZM419.728 61.5673L417.78 63.5435L417.785 63.5481L419.728 61.5673ZM419.728 33.3413L417.815 31.3317L417.815 31.3317L419.728 33.3413ZM289.393 35.5001L287.091 37.0499L287.091 37.05L289.393 35.5001ZM359.382 139.436L357.081 140.986L357.081 140.986L359.382 139.436ZM364.971 208.079L367.272 206.529L367.272 206.529L364.971 208.079ZM295.037 104.218L292.735 105.768L292.735 105.768L295.037 104.218ZM523.746 110.486L526.171 111.836L526.175 111.829L526.178 111.822L523.746 110.486ZM546.38 87.6185L547.725 90.0458L547.729 90.0432L546.38 87.6185ZM614.294 87.1347L613.027 89.6034L613.031 89.6053L614.294 87.1347ZM637.422 108.551L635.042 109.978L635.046 109.984L637.422 108.551ZM645.999 141.038H648.774V141.017L648.774 140.996L645.999 141.038ZM645.295 151.461L642.553 151.031L642.553 151.031L645.295 151.461ZM552.297 153.932H549.522V154.059L549.534 154.186L552.297 153.932ZM561.247 175.832L563.244 173.905L563.24 173.902L561.247 175.832ZM600.19 179.162L598.689 176.829L598.673 176.839L598.657 176.849L600.19 179.162ZM609.113 167.001L606.455 166.205L606.455 166.205L609.113 167.001ZM643.74 167.73L641.018 167.188L641.018 167.188L643.74 167.73ZM634.389 188.484L632.186 186.797L632.179 186.806L634.389 188.484ZM613.996 204.542L612.838 202.02L612.836 202.021L613.996 204.542ZM547.925 202.42L546.659 204.89L546.662 204.891L547.925 202.42ZM524.015 179.665L521.597 181.025L521.603 181.035L524.015 179.665ZM523.764 110.504L521.327 109.176L521.325 109.18L523.764 110.504ZM610.995 130.04L609.459 127.729L609.45 127.735L610.995 130.04ZM610.999 130.031L608.254 130.438L608.256 130.451L608.258 130.464L610.999 130.031ZM601.437 111.974L603.201 109.833L603.201 109.833L601.437 111.974ZM562.363 112.216L560.587 110.085L560.583 110.088L562.363 112.216ZM553.394 127.906L556.119 128.43L556.119 128.43L553.394 127.906ZM187.738 31.7612C187.738 39.7573 184.462 47.0426 179.247 52.2572L183.171 56.1813C189.381 49.9716 193.287 41.2925 193.287 31.7612H187.738ZM158.751 2.77477C174.746 2.77477 187.738 15.7664 187.738 31.7612H193.287C193.287 12.7015 177.811 -2.77477 158.751 -2.77477V2.77477ZM129.765 31.7612C129.765 15.7664 142.757 2.77477 158.751 2.77477V-2.77477C139.692 -2.77477 124.215 12.7015 124.215 31.7612H129.765ZM138.249 52.2509C132.991 47.0267 129.765 39.7658 129.765 31.7612H124.215C124.215 41.2839 128.06 49.9503 134.338 56.1876L138.249 52.2509ZM147.582 91.2909C151.902 78.0418 148.818 62.8198 138.255 52.2572L134.331 56.1813C143.355 65.2051 146.005 78.223 142.305 89.5705L147.582 91.2909ZM142.018 94.2337C144.304 94.8808 146.806 93.67 147.582 91.2909L142.305 89.5706C142.492 88.9978 143.07 88.7641 143.528 88.8938L142.018 94.2337ZM58.5321 20.6773C73.9181 56.903 104.817 83.7081 142.017 94.2337L143.528 88.8938C107.928 78.8208 78.3618 53.1696 63.64 18.5079L58.5321 20.6773ZM31.7622 2.77477C43.815 2.77477 54.1918 10.159 58.521 20.651L63.651 18.5342C58.4909 6.02864 46.1306 -2.77477 31.7622 -2.77477V2.77477ZM2.77575 31.7612C2.77575 15.7664 15.7674 2.77477 31.7622 2.77477V-2.77477C12.7025 -2.77477 -2.77379 12.7015 -2.77379 31.7612H2.77575ZM28.3785 60.5242C13.9979 58.8603 2.77575 46.6307 2.77575 31.7612H-2.77379C-2.77379 49.4903 10.6019 64.054 27.7406 66.037L28.3785 60.5242ZM131.925 138.015C113.822 95.4782 74.3448 65.8683 28.38 60.5244L27.7391 66.0368C71.718 71.1498 109.494 99.4804 126.819 140.189L131.925 138.015ZM158.696 155.92C146.66 155.92 136.266 148.535 131.937 138.044L126.807 140.16C131.967 152.667 144.347 161.469 158.696 161.469V155.92ZM187.682 126.933C187.682 142.928 174.69 155.92 158.696 155.92V161.469C177.755 161.469 193.232 145.993 193.232 126.933H187.682ZM179.198 106.444C184.456 111.668 187.682 118.929 187.682 126.933H193.232C193.232 117.411 189.387 108.744 183.109 102.507L179.198 106.444ZM179.242 52.2625C164.309 67.2753 164.296 91.542 179.192 106.437L183.116 102.513C170.399 89.7966 170.386 69.0356 183.177 56.176L179.242 52.2625ZM162.134 177.635C159.864 177.367 158.847 174.582 160.501 172.928L164.425 176.852C166.087 175.191 165.066 172.393 162.785 172.124L162.134 177.635ZM58.551 100.089C76.6346 142.626 116.182 172.212 162.134 177.635L162.785 172.124C118.805 166.933 80.9608 138.618 63.6582 97.9182L58.551 100.089ZM31.7808 82.1859C43.816 82.1859 54.2108 89.571 58.5396 100.062L63.6696 97.9454C58.5092 85.4389 46.1297 76.6364 31.7808 76.6364V82.1859ZM2.77575 111.172C2.77575 95.1786 15.7663 82.1859 31.7808 82.1859V76.6364C12.7035 76.6364 -2.77379 92.1116 -2.77379 111.172H2.77575ZM11.2599 131.662C6.00179 126.438 2.77575 119.177 2.77575 111.172H-2.77379C-2.77379 120.695 1.07062 129.361 7.34851 135.599L11.2599 131.662ZM11.2663 185.923C26.2303 170.959 26.2303 146.632 11.2663 131.668L7.34215 135.592C20.139 148.389 20.139 169.202 7.34215 181.999L11.2663 185.923ZM2.77575 206.419C2.77575 198.423 6.05164 191.138 11.2663 185.923L7.34215 181.999C1.13241 188.209 -2.77379 196.888 -2.77379 206.419H2.77575ZM31.7622 235.405C15.7674 235.405 2.77575 222.414 2.77575 206.419H-2.77379C-2.77379 225.479 12.7025 240.955 31.7622 240.955V235.405ZM60.7487 206.419C60.7487 222.414 47.7571 235.405 31.7622 235.405V240.955C50.822 240.955 66.2982 225.479 66.2982 206.419H60.7487ZM52.2645 185.929C57.5226 191.153 60.7487 198.414 60.7487 206.419H66.2982C66.2982 196.896 62.4538 188.23 56.1759 181.992L52.2645 185.929ZM42.932 146.889C38.612 160.138 41.6955 175.36 52.2582 185.923L56.1823 181.999C47.1585 172.975 44.5081 159.957 48.2081 148.61L42.932 146.889ZM48.4961 143.946C46.2093 143.299 43.7077 144.51 42.932 146.889L48.2081 148.61C48.0214 149.182 47.4438 149.416 46.9852 149.286L48.4961 143.946ZM131.982 217.503C116.595 181.277 85.6964 154.472 48.4961 143.946L46.9852 149.286C82.5861 159.359 112.152 185.011 126.874 219.672L131.982 217.503ZM158.751 235.405C146.716 235.405 136.321 228.02 131.993 217.529L126.863 219.646C132.023 232.152 144.403 240.955 158.751 240.955V235.405ZM187.738 206.419C187.738 222.414 174.746 235.405 158.751 235.405V240.955C177.811 240.955 193.287 225.479 193.287 206.419H187.738ZM162.147 177.657C176.522 179.327 187.738 191.554 187.738 206.419H193.287C193.287 188.695 179.919 174.134 162.787 172.145L162.147 177.657ZM160.222 176.535C160.653 177.126 161.332 177.56 162.139 177.656L162.795 172.146C163.598 172.241 164.274 172.674 164.704 173.262L160.222 176.535ZM160.501 172.928C159.434 173.996 159.501 175.54 160.216 176.526L164.71 173.271C165.421 174.252 165.488 175.789 164.425 176.852L160.501 172.928ZM457.185 47.3892C457.185 41.0474 455.047 35.616 450.626 31.3456L446.771 35.3369C450.016 38.4719 451.636 42.4182 451.636 47.3892H457.185ZM450.66 63.5293C455.042 59.1476 457.185 53.7403 457.185 47.3892H451.636C451.636 52.3508 450.02 56.3211 446.736 59.6052L450.66 63.5293ZM434.278 70.0542C440.733 70.0542 446.261 67.9285 450.66 63.5293L446.736 59.6052C443.47 62.8719 439.397 64.5047 434.278 64.5047V70.0542ZM417.785 63.5481C422.253 67.9312 427.826 70.0542 434.278 70.0542V64.5047C429.157 64.5047 425.018 62.8693 421.671 59.5865L417.785 63.5481ZM411.111 47.3892C411.111 53.7704 413.35 59.1766 417.78 63.5435L421.676 59.5911C418.329 56.2922 416.66 52.3207 416.66 47.3892H411.111ZM417.815 31.3317C413.345 35.5874 411.111 41.0167 411.111 47.3892H416.66C416.66 42.4489 418.333 38.5006 421.641 35.3508L417.815 31.3317ZM434.278 24.966C427.828 24.966 422.254 27.1052 417.815 31.3317L421.641 35.3508C424.98 32.172 429.155 30.5155 434.278 30.5155V24.966ZM450.646 31.3649C446.237 27.0203 440.71 24.966 434.278 24.966V30.5155C439.42 30.5155 443.494 32.1081 446.751 35.3177L450.646 31.3649ZM418.415 78.2177C415.861 78.2177 413.79 80.2882 413.79 82.8423H419.34C419.34 83.3531 418.926 83.7672 418.415 83.7672V78.2177ZM449.826 78.2177H418.415V83.7672H449.826V78.2177ZM454.45 82.8423C454.45 80.2882 452.38 78.2177 449.826 78.2177V83.7672C449.315 83.7672 448.901 83.3531 448.901 82.8423H454.45ZM454.45 207.099V82.8423H448.901V207.099H454.45ZM449.826 211.724C452.38 211.724 454.45 209.653 454.45 207.099H448.901C448.901 206.588 449.315 206.174 449.826 206.174V211.724ZM418.415 211.724H449.826V206.174H418.415V211.724ZM413.79 207.099C413.79 209.653 415.861 211.724 418.415 211.724V206.174C418.926 206.174 419.34 206.588 419.34 207.099H413.79ZM413.79 82.8423V207.099H419.34V82.8423H413.79ZM252.242 36.5333V208.952H257.791V36.5333H252.242ZM256.866 31.9087C254.312 31.9087 252.242 33.9792 252.242 36.5333H257.791C257.791 37.0442 257.377 37.4583 256.866 37.4583V31.9087ZM287.859 31.9087H256.866V37.4583H287.859V31.9087ZM291.695 33.9503C290.835 32.674 289.397 31.9087 287.859 31.9087V37.4583C287.551 37.4583 287.263 37.3052 287.091 37.0499L291.695 33.9503ZM361.684 137.886L291.695 33.9503L287.091 37.05L357.081 140.986L361.684 137.886ZM359.992 138.403C359.992 138.233 360.056 138.015 360.204 137.827C360.338 137.658 360.5 137.563 360.647 137.518C360.794 137.473 360.981 137.462 361.187 137.527C361.414 137.6 361.589 137.745 361.684 137.886L357.081 140.986C359.63 144.772 365.541 142.967 365.541 138.403H359.992ZM359.992 36.5334V138.403H365.541V36.5334H359.992ZM364.617 31.9087C362.062 31.9087 359.992 33.9792 359.992 36.5334H365.541C365.541 37.0442 365.127 37.4583 364.617 37.4583V31.9087ZM397.739 31.9087H364.617V37.4583H397.739V31.9087ZM402.364 36.5334C402.364 33.9793 400.293 31.9087 397.739 31.9087V37.4583C397.228 37.4583 396.814 37.0442 396.814 36.5334H402.364ZM402.364 207.046V36.5334H396.814V207.046H402.364ZM397.739 211.671C400.293 211.671 402.364 209.6 402.364 207.046H396.814C396.814 206.535 397.228 206.121 397.739 206.121V211.671ZM366.505 211.671H397.739V206.121H366.505V211.671ZM362.669 209.629C363.528 210.905 364.966 211.671 366.505 211.671V206.121C366.813 206.121 367.1 206.274 367.272 206.529L362.669 209.629ZM292.735 105.768L362.669 209.629L367.272 206.529L297.339 102.668L292.735 105.768ZM294.428 105.251C294.428 105.421 294.363 105.64 294.215 105.827C294.082 105.996 293.92 106.091 293.773 106.136C293.626 106.181 293.438 106.193 293.233 106.127C293.005 106.054 292.83 105.909 292.735 105.768L297.339 102.668C294.789 98.8821 288.878 100.687 288.878 105.251H294.428ZM294.428 207.12V105.251H288.878V207.12H294.428ZM289.803 211.745C292.357 211.745 294.428 209.675 294.428 207.12H288.878C288.878 206.61 289.292 206.196 289.803 206.196V211.745ZM255.035 211.745H289.803V206.196H255.035V211.745ZM252.242 208.952C252.242 210.496 253.494 211.745 255.035 211.745V206.196C256.556 206.196 257.791 207.428 257.791 208.952H252.242ZM473.869 36.5333C473.869 37.0442 473.455 37.4583 472.944 37.4583V31.9087C470.39 31.9087 468.32 33.9792 468.32 36.5333H473.869ZM473.869 207.046V36.5333H468.32V207.046H473.869ZM472.944 206.121C473.455 206.121 473.869 206.535 473.869 207.046H468.32C468.32 209.6 470.39 211.671 472.944 211.671V206.121ZM504.355 206.121H472.944V211.671H504.355V206.121ZM503.43 207.046C503.43 206.535 503.844 206.121 504.355 206.121V211.671C506.909 211.671 508.98 209.6 508.98 207.046H503.43ZM503.43 36.5334V207.046H508.98V36.5334H503.43ZM504.355 37.4583C503.844 37.4583 503.43 37.0442 503.43 36.5334H508.98C508.98 33.9793 506.909 31.9087 504.355 31.9087V37.4583ZM472.944 37.4583H504.355V31.9087H472.944V37.4583ZM521.322 109.137C520.016 111.483 522.502 114.217 524.991 112.98L522.519 108.011C524.996 106.779 527.471 109.5 526.171 111.836L521.322 109.137ZM545.036 85.1911C534.895 90.8076 526.973 98.8517 521.315 109.15L526.178 111.822C531.347 102.415 538.527 95.14 547.725 90.0458L545.036 85.1911ZM580.095 76.7499C566.913 76.7499 555.234 79.5166 545.031 85.1938L547.729 90.0432C556.988 84.8914 567.712 82.2994 580.095 82.2994V76.7499ZM615.561 84.6661C605.247 79.3729 593.245 76.7499 580.095 76.7499V82.2994C592.511 82.2994 603.618 84.7746 613.027 89.6034L615.561 84.6661ZM639.802 107.124C633.98 97.4142 625.863 89.934 615.557 84.6642L613.031 89.6053C622.447 94.4201 629.774 101.192 635.042 109.978L639.802 107.124ZM648.774 140.996C648.582 128.122 645.636 116.796 639.798 107.118L635.046 109.984C640.297 118.689 643.045 129.02 643.225 141.079L648.774 140.996ZM648.036 151.892C648.55 148.618 648.774 145 648.774 141.038H643.225C643.225 144.803 643.011 148.119 642.553 151.031L648.036 151.892ZM643.506 155.739C645.697 155.739 647.677 154.176 648.036 151.892L642.553 151.031C642.637 150.498 643.086 150.19 643.506 150.19V155.739ZM553.265 155.739H643.506V150.19H553.265V155.739ZM555.072 153.932C555.072 154.93 554.263 155.739 553.265 155.739V150.19C551.198 150.19 549.522 151.865 549.522 153.932H555.072ZM563.24 173.902C558.674 169.185 555.874 162.529 555.06 153.678L549.534 154.186C550.432 163.942 553.587 171.91 559.253 177.762L563.24 173.902ZM582.421 181.021C573.993 181.021 567.727 178.551 563.244 173.905L559.25 177.758C565 183.718 572.838 186.57 582.421 186.57V181.021ZM598.657 176.849C594.539 179.578 589.161 181.021 582.421 181.021V186.57C589.934 186.57 596.463 184.961 601.723 181.475L598.657 176.849ZM606.455 166.205C605.051 170.891 602.456 174.406 598.689 176.829L601.691 181.496C606.655 178.304 610.017 173.654 611.771 167.797L606.455 166.205ZM610.947 162.823C608.782 162.823 607.026 164.298 606.455 166.205L611.771 167.797C611.689 168.07 611.405 168.373 610.947 168.373V162.823ZM641.954 162.823H610.947V168.373H641.954V162.823ZM646.461 168.272C647.04 165.364 644.763 162.823 641.954 162.823V168.373C641.42 168.373 640.883 167.866 641.018 167.188L646.461 168.272ZM636.592 190.171C641.591 183.644 644.862 176.303 646.461 168.272L641.018 167.188C639.581 174.407 636.657 180.96 632.186 186.797L636.592 190.171ZM615.154 207.063C624.007 202.997 631.132 197.359 636.599 190.163L632.179 186.806C627.301 193.229 620.918 198.309 612.838 202.02L615.154 207.063ZM584.858 213.159C596.129 213.159 606.286 211.145 615.157 207.062L612.836 202.021C604.811 205.715 595.469 207.609 584.858 207.609V213.159ZM546.662 204.891C557.473 210.414 570.222 213.159 584.858 213.159V207.609C570.915 207.609 559.066 204.996 549.187 199.949L546.662 204.891ZM521.603 181.035C527.476 191.377 535.843 199.346 546.659 204.89L549.19 199.951C539.316 194.89 531.756 187.675 526.428 178.294L521.603 181.035ZM512.905 145.168C512.905 158.707 515.785 170.688 521.597 181.025L526.434 178.305C521.157 168.919 518.454 157.902 518.454 145.168H512.905ZM521.325 109.18C515.718 119.507 512.905 131.655 512.905 145.168H518.454C518.454 132.426 521.105 121.217 526.202 111.828L521.325 109.18ZM524.991 112.98C522.615 114.161 520.006 111.6 521.327 109.176L526.2 111.832C527.527 109.396 524.907 106.823 522.519 108.011L524.991 112.98ZM609.45 127.735C609.903 127.432 610.438 127.266 610.991 127.266V132.816C611.546 132.816 612.085 132.65 612.541 132.345L609.45 127.735ZM608.258 130.464C608.078 129.32 608.625 128.284 609.459 127.729L612.531 132.351C613.371 131.792 613.922 130.75 613.74 129.599L608.258 130.464ZM599.673 114.116C604.237 117.876 607.185 123.223 608.254 130.438L613.744 129.624C612.504 121.257 608.978 114.591 603.201 109.833L599.673 114.116ZM581.658 108.423C589.149 108.423 595.103 110.352 599.673 114.116L603.201 109.833C597.426 105.075 590.132 102.873 581.658 102.873V108.423ZM564.14 114.348C568.845 110.427 574.266 108.423 581.658 108.423V102.873C573.086 102.873 566.376 105.26 560.587 110.085L564.14 114.348ZM556.119 128.43C557.252 122.538 559.942 117.858 564.143 114.345L560.583 110.088C555.322 114.487 552.024 120.34 550.669 127.382L556.119 128.43ZM555.167 127.211C555.671 127.211 556.26 127.697 556.119 128.43L550.669 127.382C550.107 130.307 552.429 132.76 555.167 132.76V127.211ZM610.954 127.211H555.167V132.76H610.954V127.211ZM613.757 130.013C613.757 128.469 612.506 127.211 610.954 127.211V132.76C609.433 132.76 608.207 131.526 608.207 130.013H613.757ZM613.757 130.033V130.013H608.207V130.033H613.757ZM610.991 127.266C612.502 127.266 613.757 128.489 613.757 130.033H608.207C608.207 131.586 609.469 132.816 610.991 132.816V127.266Z" fill="#DFEFFE" fill-opacity="0.137" mask="url(#path-1-inside-1_3092_3718)"/>
</svg>
