<svg xmlns="http://www.w3.org/2000/svg" width="100" height="28" viewBox="0 0 100 28" fill="none">
  <path fill-rule="evenodd" clip-rule="evenodd"
    d="M24.8012 5.86383C25.8007 7.57015 26.0159 9.62515 25.3909 11.5011L25.3918 11.4994C27.414 13.7377 27.7601 17.0255 26.2475 19.6358C25.2686 21.3551 23.5959 22.5681 21.658 22.965C20.7299 25.8378 18.0525 27.7818 15.0341 27.774C13.0566 27.7869 11.1695 26.9458 9.85746 25.4668C6.90625 26.1004 3.88445 24.754 2.3813 22.1368C1.38178 20.4305 1.16655 18.3755 1.79157 16.4995C-0.231568 14.2612 -0.576794 10.9708 0.93755 8.36047C1.91641 6.64123 3.58916 5.4282 5.52707 5.03132C6.45513 2.16104 9.13171 0.218826 12.1483 0.225714C14.1259 0.213661 16.0121 1.05477 17.325 2.53382C20.2762 1.90019 23.298 3.24665 24.8012 5.86383ZM11.7308 24.7789C12.658 25.5529 13.828 25.9756 15.0358 25.9739C17.8837 25.9678 20.1901 23.6589 20.1936 20.811V14.4067C20.1901 14.3791 20.1738 14.355 20.1488 14.3429L17.8304 13.0042V20.7378C17.8321 21.0606 17.6599 21.3594 17.3792 21.5186L11.8935 24.6868C11.8462 24.7161 11.773 24.7565 11.7308 24.7789ZM3.3283 17.7771C3.12082 18.966 3.33863 20.1911 3.94385 21.2363C5.37211 23.7028 8.52735 24.5482 10.9973 23.126L16.5424 19.9242C16.564 19.907 16.5769 19.8803 16.5752 19.8528V17.1753L9.87812 21.0426C9.59918 21.2053 9.25482 21.2053 8.97674 21.0426L3.49101 17.8744C3.4571 17.8549 3.41396 17.8288 3.377 17.8064C3.35861 17.7953 3.34175 17.7851 3.3283 17.7771ZM5.18701 6.99851C4.05405 7.41433 3.10274 8.21498 2.50011 9.26184L2.49924 9.26271C1.07874 11.7318 1.92416 14.8853 4.38895 16.3127L9.93494 19.517C9.96077 19.5282 9.99004 19.5256 10.0133 19.5101L12.3317 18.1714L5.63469 14.3051C5.35489 14.1458 5.18271 13.8471 5.18443 13.5251V7.18791C5.18443 7.15709 5.18514 7.11934 5.18582 7.0836C5.18643 7.05146 5.18701 7.02093 5.18701 6.99851ZM14.8516 9.82746L21.5486 13.6947C21.8276 13.8548 21.9998 14.1527 21.9972 14.4747V21.0012C23.1293 20.5846 24.0797 19.7839 24.6832 18.7388C26.1098 16.2697 25.2635 13.111 22.7944 11.6845L17.2484 8.48272C17.2226 8.47153 17.1933 8.47411 17.17 8.48961L14.8516 9.82746ZM23.8543 10.2208C23.8136 10.1957 23.7433 10.1534 23.6932 10.1245L18.2074 6.95632C17.9294 6.79361 17.585 6.79361 17.3061 6.95632L10.609 10.8235V8.1461C10.6073 8.11855 10.6202 8.09187 10.6417 8.07465L16.1869 4.8755C18.6568 3.45069 21.8147 4.29869 23.2386 6.76951C23.8402 7.81265 24.0581 9.0339 23.8543 10.2208ZM7.02936 13.6551L9.34866 14.9938L9.3521 7.26195C9.35038 6.9391 9.52256 6.64123 9.80322 6.48196L15.289 3.3138C15.3372 3.28453 15.4095 3.24407 15.4517 3.22169C14.5245 2.45031 13.3571 2.02674 12.1509 2.02674C9.29959 2.02502 6.98632 4.33571 6.9846 7.18705V13.5914C6.98804 13.6189 7.0044 13.643 7.02936 13.6551ZM13.5912 10.5558L10.6082 12.2785V15.7221L13.5912 17.444L16.5743 15.7221V12.2776L13.5912 10.5558Z"
    fill="white" />
  <path fill-rule="evenodd" clip-rule="evenodd"
    d="M31.45 13.47C31.45 17.9743 34.3427 21.1149 38.3511 21.1149C42.3595 21.1149 45.2522 17.9743 45.2522 13.47C45.2522 8.96568 42.3595 5.82507 38.3511 5.82507C34.3427 5.82507 31.45 8.96568 31.45 13.47ZM42.6074 13.47C42.6074 16.6932 40.8512 18.7801 38.3511 18.7801C35.851 18.7801 34.0947 16.6932 34.0947 13.47C34.0947 10.2467 35.851 8.15987 38.3511 8.15987C40.8512 8.15987 42.6074 10.2467 42.6074 13.47Z"
    fill="white" />
  <path fill-rule="evenodd" clip-rule="evenodd"
    d="M52.6998 21.1149C55.7371 21.1149 57.4727 18.5528 57.4727 15.4742C57.4727 12.3955 55.7371 9.83347 52.6998 9.83347C51.2948 9.83347 50.2617 10.3913 49.5799 11.1972V10.0401H47.1005V24.6067H49.5799V19.7512C50.2617 20.557 51.2948 21.1149 52.6998 21.1149ZM49.5179 15.1642C49.5179 13.1187 50.675 12.003 52.204 12.003C54.0015 12.003 54.9726 13.408 54.9726 15.4742C54.9726 17.5403 54.0015 18.9454 52.204 18.9454C50.675 18.9454 49.5179 17.809 49.5179 15.8048V15.1642Z"
    fill="white" />
  <path fill-rule="evenodd" clip-rule="evenodd"
    d="M68.8316 18.0776C68.0671 19.9784 66.3522 21.1149 64.1827 21.1149C61.0834 21.1149 58.9139 18.8214 58.9139 15.4742C58.9139 12.2922 60.9387 9.83347 64.0794 9.83347C67.22 9.83347 68.8936 12.2096 68.8936 15.1849V16.0114H61.29C61.476 17.8709 62.5917 19.0073 64.1827 19.0073C65.4017 19.0073 66.3728 18.3875 66.7034 17.2717L68.8316 18.0776ZM66.3935 14.1518C66.3728 12.9534 65.629 11.9203 64.0587 11.9203C62.7777 11.9203 61.7859 12.6848 61.414 14.1518H66.3935Z"
    fill="white" />
  <path
    d="M70.754 20.8876H73.2334V14.5237C73.2334 12.9741 74.3698 12.1476 75.4856 12.1476C76.8493 12.1476 77.3865 13.1187 77.3865 14.4617V20.8876H79.8659V13.7386C79.8659 11.4038 78.5022 9.83347 76.2294 9.83347C74.8244 9.83347 73.8533 10.474 73.2334 11.1972V10.0401H70.754V20.8876Z"
    fill="white" />
  <path fill-rule="evenodd" clip-rule="evenodd"
    d="M81.5076 20.8876L87.1276 6.05234H90.1236L95.7436 20.8876H93.0783L91.7972 17.499H85.392L84.1317 20.8876H81.5076ZM90.9294 15.1849L88.574 8.98633L86.2598 15.1849H90.9294Z"
    fill="white" />
  <path d="M100 6.09537H97.3553V20.9306H100V6.09537Z" fill="white" />
</svg>