<svg xmlns="http://www.w3.org/2000/svg" width="104" height="24" viewBox="0 0 104 24" fill="none">
  <path d="M17.727 0V2.17997H2.51799V19.366H0.0761719V0H17.727Z" fill="white" />
  <path d="M17.727 4.13464V6.31461H7.12962V19.366H4.68577V4.13464H17.727Z" fill="white" />
  <path d="M17.7271 10.4472V8.25507H9.2954V19.366H11.7392V10.4472H17.7271Z" fill="white" />
  <path fill-rule="evenodd" clip-rule="evenodd"
    d="M24.68 8.04195C27.5862 8.04239 30.0274 9.97064 30.0274 13.5548C30.0274 13.7923 30.0274 13.9932 30.0031 14.3566H21.271C21.3847 16.1732 22.8502 17.3748 24.6912 17.3748C26.244 17.3748 27.2852 16.6604 27.8597 15.684L29.727 17.0115C28.7244 18.5907 26.997 19.5913 24.6668 19.5913C21.2974 19.5913 18.8678 17.1982 18.8678 13.8166C18.88 10.547 21.3091 8.04243 24.68 8.04195ZM21.3989 12.5643H27.5755C27.3116 10.9608 26.0227 10.0961 24.5937 10.0961C23.1648 10.0961 21.7257 10.9222 21.3989 12.5643Z"
    fill="white" />
  <path fill-rule="evenodd" clip-rule="evenodd"
    d="M34.9497 8.25507H32.5078V24H34.9497V17.8742C35.5627 18.7652 36.9165 19.5913 38.52 19.5913C41.5626 19.5913 43.8685 16.9973 43.8685 13.8166C43.8685 10.636 41.5647 8.04195 38.52 8.04195C36.9287 8.04195 35.5769 8.85589 34.9497 9.74493V8.25507ZM34.7487 13.8166C34.7487 11.8112 36.1026 10.2585 38.0816 10.2585C40.0342 10.2585 41.3881 11.8112 41.3881 13.8166C41.3881 15.8221 40.0606 17.3748 38.0816 17.3748C36.1026 17.3748 34.7487 15.8221 34.7487 13.8166Z"
    fill="white" />
  <path d="M48.8049 2.70569H46.3631V19.3539H48.8049V2.70569Z" fill="white" />
  <path
    d="M51.677 4.19756C51.677 5.11096 52.428 5.83761 53.317 5.83761C54.2304 5.83761 54.9327 5.11298 54.9327 4.19756C54.9327 3.3207 54.2061 2.58186 53.317 2.58186C52.428 2.58186 51.677 3.28417 51.677 4.19756Z"
    fill="white" />
  <path d="M54.543 8.25507H52.1012V19.3539H54.543V8.25507Z" fill="white" />
  <path
    d="M62.8874 19.5792C59.5545 19.5792 57.0254 17.0866 57.0254 13.8045C57.0254 10.5223 59.5566 8.02977 62.8874 8.02977C65.179 8.02977 67.1093 9.25778 68.0613 11.0988L65.9321 12.2517C65.3942 11.1252 64.3164 10.297 62.8874 10.297C60.9084 10.297 59.518 11.8254 59.518 13.8045C59.518 15.7835 60.9206 17.3119 62.8874 17.3119C64.3022 17.3119 65.3922 16.4858 65.9321 15.3572L68.0613 16.5101C67.1093 18.3633 65.1668 19.5792 62.8874 19.5792Z"
    fill="white" />
  <path fill-rule="evenodd" clip-rule="evenodd"
    d="M78.4091 9.74493C77.7819 8.86807 76.4544 8.04195 74.8509 8.04195V8.04398C71.8083 8.04398 69.5024 10.6258 69.5024 13.8065C69.5024 16.9871 71.8062 19.5812 74.8509 19.5812C76.4544 19.5812 77.7819 18.753 78.4091 17.864V19.3539H80.8509V8.25507H78.4091V9.74493ZM71.995 13.8187C71.995 11.8133 73.3225 10.2605 75.3015 10.2605C77.2683 10.2605 78.608 11.8133 78.608 13.8187C78.608 15.8241 77.2805 17.3769 75.3015 17.3769C73.3225 17.3769 71.995 15.8241 71.995 13.8187Z"
    fill="white" />
  <path
    d="M85.0342 19.366V10.435H82.7162V8.25507H85.0342V5.17388H87.4781V8.25507H91.6858V10.435H87.4781V17.1739H91.6858V19.366H85.0342Z"
    fill="white" />
  <path fill-rule="evenodd" clip-rule="evenodd"
    d="M104 13.5548C104 9.97064 101.559 8.04239 98.653 8.04195H98.654H98.652H98.653C95.282 8.04243 92.8651 10.547 92.8407 13.8166C92.8407 17.1982 95.2704 19.5913 98.6398 19.5913C100.97 19.5913 102.697 18.5907 103.7 17.0115L101.833 15.684C101.258 16.6604 100.217 17.3748 98.6641 17.3748C96.8231 17.3748 95.3577 16.1732 95.244 14.3566H103.976C104 13.9934 104 13.7925 104 13.5552V13.5548ZM101.548 12.5643H95.3718C95.7108 10.9222 97.1378 10.0961 98.5667 10.0961C99.9957 10.0961 101.285 10.9608 101.548 12.5643Z"
    fill="white" />
</svg>