<svg width="60" height="60" viewBox="0 0 60 60" fill="none" xmlns="http://www.w3.org/2000/svg">
  <path fill-rule="evenodd" clip-rule="evenodd"
    d="M18.8323 19.6416C17.8864 19.6416 16.9792 20.0174 16.3103 20.6863C15.6414 21.3551 15.2656 22.2623 15.2656 23.2083V37.7916C15.2656 38.7375 15.6414 39.6447 16.3103 40.3136C16.9792 40.9825 17.8864 41.3583 18.8323 41.3583H33.4156C33.7746 41.3583 34.0656 41.0673 34.0656 40.7083C34.0656 40.3493 33.7746 40.0583 33.4156 40.0583H18.8323C18.2311 40.0583 17.6546 39.8195 17.2295 39.3944C16.8044 38.9693 16.5656 38.3928 16.5656 37.7916V23.2083C16.5656 22.6071 16.8044 22.0306 17.2295 21.6055C17.6546 21.1804 18.2311 20.9416 18.8323 20.9416H42.1656C42.7668 20.9416 43.3433 21.1804 43.7684 21.6055C44.1935 22.0306 44.4323 22.6071 44.4323 23.2083V26.1249V31.9583C44.4323 32.3173 44.7233 32.6083 45.0823 32.6083C45.4413 32.6083 45.7323 32.3173 45.7323 31.9583V26.1249V23.2083C45.7323 22.2623 45.3565 21.3551 44.6876 20.6863C44.0188 20.0174 43.1116 19.6416 42.1656 19.6416H18.8323ZM41.4365 34.2249C40.2389 34.2249 39.4354 34.7656 38.9559 35.4645C38.5001 36.1289 38.3554 36.9038 38.3554 37.427V39.361C38.0666 39.421 37.799 39.564 37.5873 39.7758C37.3013 40.0618 37.1406 40.4497 37.1406 40.8541V44.2083C37.1406 44.6127 37.3013 45.0006 37.5873 45.2866C37.8733 45.5726 38.2612 45.7333 38.6656 45.7333H44.2073C44.6117 45.7333 44.9996 45.5726 45.2856 45.2866C45.5716 45.0006 45.7323 44.6127 45.7323 44.2083V40.8541C45.7323 40.4497 45.5716 40.0618 45.2856 39.7758C45.0739 39.564 44.8063 39.421 44.5175 39.361V37.427C44.5175 36.9038 44.3728 36.1289 43.917 35.4645C43.4376 34.7656 42.6341 34.2249 41.4365 34.2249ZM43.2175 37.427V39.3291H39.6554V37.427C39.6554 37.1 39.7542 36.5989 40.028 36.1998C40.2781 35.8352 40.6901 35.5249 41.4365 35.5249C42.1828 35.5249 42.5948 35.8352 42.845 36.1998C43.1187 36.5989 43.2175 37.1 43.2175 37.427ZM38.5065 40.695C38.5487 40.6528 38.6059 40.6291 38.6656 40.6291H39.0054H43.8675H44.2073C44.267 40.6291 44.3242 40.6528 44.3664 40.695C44.4086 40.7372 44.4323 40.7944 44.4323 40.8541V44.2083C44.4323 44.2679 44.4086 44.3252 44.3664 44.3674C44.3242 44.4096 44.267 44.4333 44.2073 44.4333H38.6656C38.6059 44.4333 38.5487 44.4096 38.5065 44.3674C38.4643 44.3252 38.4406 44.2679 38.4406 44.2083V40.8541C38.4406 40.7944 38.4643 40.7372 38.5065 40.695ZM20.9996 24.0001C20.9996 24.5524 20.5519 25.0001 19.9996 25.0001C19.4473 25.0001 18.9996 24.5524 18.9996 24.0001C18.9996 23.4478 19.4473 23.0001 19.9996 23.0001C20.5519 23.0001 20.9996 23.4478 20.9996 24.0001ZM22.9996 25.0001C23.5519 25.0001 23.9996 24.5524 23.9996 24.0001C23.9996 23.4478 23.5519 23.0001 22.9996 23.0001C22.4473 23.0001 21.9996 23.4478 21.9996 24.0001C21.9996 24.5524 22.4473 25.0001 22.9996 25.0001ZM26.9996 24.0001C26.9996 24.5524 26.5519 25.0001 25.9996 25.0001C25.4473 25.0001 24.9996 24.5524 24.9996 24.0001C24.9996 23.4478 25.4473 23.0001 25.9996 23.0001C26.5519 23.0001 26.9996 23.4478 26.9996 24.0001Z"
    fill="url(#paint1_linear_3387_1396)" />
  <path
    d="M28 34.5306V34.1224C28 33.3647 28.301 32.638 28.8368 32.1021C29.3727 31.5663 30.0994 31.2653 30.8571 31.2653M30.8571 31.2653C31.6149 31.2653 32.3416 31.5663 32.8774 32.1021C33.4133 32.638 33.7143 33.3647 33.7143 34.1224V34.5306M30.8571 31.2653C31.2901 31.2653 31.7054 31.0933 32.0116 30.7871C32.3178 30.4809 32.4898 30.0657 32.4898 29.6327C32.4898 29.1996 32.3178 28.7844 32.0116 28.4782C31.7054 28.172 31.2901 28 30.8571 28C30.4241 28 30.0089 28.172 29.7027 28.4782C29.3965 28.7844 29.2245 29.1996 29.2245 29.6327C29.2245 30.0657 29.3965 30.4809 29.7027 30.7871C30.0089 31.0933 30.4241 31.2653 30.8571 31.2653Z"
    stroke="url(#paint2_linear_3387_1396)" stroke-width="0.84898" stroke-linecap="round"
    stroke-linejoin="round" />
  <mask id="path-4-inside-1_3387_1396" fill="white">
    <path
      d="M0 20C0 8.9543 8.95431 0 20 0H40C51.0457 0 60 8.95431 60 20V40C60 51.0457 51.0457 60 40 60H20C8.9543 60 0 51.0457 0 40V20Z" />
  </mask>
  <defs>
    <linearGradient id="paint0_linear_3387_1396" x1="53.4307" y1="4.59854" x2="3.28467" y2="55.6204"
      gradientUnits="userSpaceOnUse">
      <stop stop-color="#202020" />
      <stop offset="0.696" />
    </linearGradient>
    <linearGradient id="paint1_linear_3387_1396" x1="30.499" y1="19.6416" x2="30.499" y2="45.7333"
      gradientUnits="userSpaceOnUse">
      <stop stop-color="#FDC067" />
      <stop offset="0.505208" stop-color="#DAD2E2" />
      <stop offset="1" stop-color="#7CD1ED" />
    </linearGradient>
    <linearGradient id="paint2_linear_3387_1396" x1="30.8571" y1="28" x2="30.8571" y2="34.5306"
      gradientUnits="userSpaceOnUse">
      <stop stop-color="#FDC067" />
      <stop offset="0.505208" stop-color="#DAD2E2" />
      <stop offset="1" stop-color="#7CD1ED" />
    </linearGradient>
    <linearGradient id="paint3_linear_3387_1396" x1="55.4015" y1="3.94161" x2="39.1971" y2="24.5255"
      gradientUnits="userSpaceOnUse">
      <stop stop-color="white" stop-opacity="0.22" />
      <stop offset="1" stop-color="white" stop-opacity="0" />
    </linearGradient>
  </defs>
</svg>