<svg xmlns="http://www.w3.org/2000/svg" width="24" height="24" viewBox="0 0 24 24" fill="none"><path fill-rule="evenodd" clip-rule="evenodd" d="M11.2498 5.5C10.8464 5.49992 10.4554 5.63922 10.1428 5.89434C9.83031 6.14946 9.61553 6.50472 9.53485 6.9C9.46357 7.24919 9.15639 7.5 8.8 7.5H8.667C8.09228 7.5 7.54109 7.72831 7.1347 8.1347C6.87179 8.39761 6.68341 8.72113 6.58316 9.07241C6.7971 9.02502 7.01996 9 7.25 9C7.66421 9 8 9.33579 8 9.75C8 10.1642 7.66421 10.5 7.25 10.5C6.34971 10.5 5.5 11.3265 5.5 12.5C5.5 13.0969 5.72783 13.6205 6.07394 13.9795C6.12766 14.0353 6.1852 14.0879 6.24452 14.1353L6.2509 14.1404C6.53333 14.3715 6.88655 14.4984 7.25141 14.5H7.75C8.16421 14.5 8.5 14.8358 8.5 15.25C8.5 15.6642 8.16421 16 7.75 16H7.28252C7.67081 16.3225 8.16008 16.4997 8.666 16.5C8.66591 16.5 8.66609 16.5 8.666 16.5H8.8C9.15639 16.5 9.46357 16.7508 9.53485 17.1C9.61553 17.4953 9.83031 17.8505 10.1428 18.1057C10.4554 18.3608 10.8464 18.5001 11.2498 18.5L11.25 11.2585C10.8711 11.6068 10.4169 11.8815 9.89709 11.9854C9.49092 12.0667 9.0958 11.8033 9.01456 11.3971C8.93333 10.9909 9.19674 10.5958 9.60291 10.5146C9.94131 10.4469 10.3567 10.1291 10.7131 9.57537C11.062 9.03319 11.25 8.42225 11.25 8L11.2498 5.5ZM12.75 5.5V12.361C13.1722 12.1215 13.6216 12 14 12H14.25C14.6642 12 15 12.3358 15 12.75C15 13.1642 14.6642 13.5 14.25 13.5H14C13.8645 13.5 13.5357 13.5854 13.2422 13.8408C12.9768 14.0717 12.75 14.433 12.75 15V18.5C13.1534 18.5001 13.5446 18.3608 13.8572 18.1057C14.1697 17.8505 14.3845 17.4953 14.4652 17.1C14.5364 16.7508 14.8436 16.5 15.2 16.5H15.333C15.333 16.5 15.333 16.5 15.333 16.5C15.8392 16.5 16.3289 16.3227 16.7175 16H16.25C15.8358 16 15.5 15.6642 15.5 15.25C15.5 14.8358 15.8358 14.5 16.25 14.5H16.75C17.1182 14.5 17.4643 14.3701 17.7532 14.1371L17.7542 14.1363C17.8148 14.0877 17.8721 14.0353 17.9261 13.9795M11.25 20C10.5008 20.0001 9.77462 19.7414 9.19427 19.2676C8.77024 18.9215 8.4431 18.4761 8.23917 17.975C7.5062 17.8888 6.81258 17.583 6.25221 17.0926C5.65795 16.5726 5.24945 15.8765 5.08329 15.1098C5.05297 15.0806 5.02322 15.0508 4.99406 15.0205M4.99406 15.0205C4.3745 14.3776 4 13.4788 4 12.5C4 11.5296 4.37661 10.6212 5 9.97315V9.667C5 8.69445 5.38634 7.76174 6.07404 7.07404C6.66013 6.48795 7.42418 6.12075 8.23918 6.02503C8.44311 5.5239 8.77024 5.07849 9.19427 4.73235C9.77462 4.25859 10.5008 3.99988 11.25 4C11.2499 4 11.2501 4 11.25 4H12.7498C12.7498 4 12.7499 4 12.7498 4C13.499 3.99988 14.2254 4.25859 14.8057 4.73235C15.2298 5.07849 15.5569 5.5239 15.7608 6.02503C16.5758 6.12075 17.3399 6.48795 17.926 7.07404C18.6137 7.76174 19 8.69445 19 9.667V9.97315C19.6234 10.6212 20 11.5296 20 12.5C20 13.4791 19.6258 14.3776 19.0059 15.0205C18.9768 15.0507 18.947 15.0805 18.9168 15.1096C18.7506 15.8766 18.3419 16.5729 17.7473 17.093C17.187 17.5831 16.4936 17.8889 15.7608 17.975C15.5569 18.4761 15.2298 18.9215 14.8057 19.2676C14.2254 19.7414 13.4992 20.0001 12.75 20C12.7499 20 12.7501 20 12.75 20H11.25C11.2499 20 11.2501 20 11.25 20M12.75 5.5C13.1534 5.49992 13.5446 5.63922 13.8572 5.89434C14.1697 6.14946 14.3845 6.50472 14.4652 6.9C14.5364 7.24919 14.8436 7.5 15.2 7.5H15.333C15.9077 7.5 16.4589 7.72831 16.8653 8.1347C17.1282 8.39761 17.3166 8.72113 17.4168 9.07242C17.2029 9.02503 16.98 9 16.75 9C16.3358 9 16 9.33579 16 9.75C16 10.1642 16.3358 10.5 16.75 10.5C17.6503 10.5 18.5 11.3265 18.5 12.5C18.5 13.0968 18.2721 13.6205 17.9261 13.9795" fill="url(#paint0_linear_1787_8081)"/><defs><linearGradient id="paint0_linear_1787_8081" x1="5.46506" y1="12" x2="19.0575" y2="12.0118" gradientUnits="userSpaceOnUse"><stop stop-color="#F4C587"/><stop offset="0.5" stop-color="#D6D3E9"/><stop offset="1" stop-color="#99D2EC"/></linearGradient></defs></svg>