<svg xmlns="http://www.w3.org/2000/svg" width="24" height="24" viewBox="0 0 24 24" fill="none">
  <path
    d="M12 20V16.1379M12 20C10.774 20 9.59674 19.5199 8.72038 18.6625C7.84403 17.8051 7.33828 16.6387 7.31145 15.413M12 20C13.226 20 14.4033 19.5199 15.2796 18.6625C16.156 17.8051 16.6617 16.6387 16.6886 15.413M7.31145 15.413L5.43228 16.1181C5.01152 16.2758 4.64894 16.5582 4.393 16.9275C4.13705 17.2968 3.99994 17.7355 4 18.1848V20M7.31145 15.413L7.31034 15.3103V13.1034C7.31034 12.6985 7.3611 12.3068 7.45821 11.9316C7.71899 10.9254 8.30651 10.0343 9.12854 9.39817C9.95057 8.76203 10.9606 8.41688 12 8.41688C13.0394 8.41688 14.0494 8.76203 14.8715 9.39817C15.6935 10.0343 16.281 10.9254 16.5418 11.9316C16.6389 12.3068 16.6897 12.6985 16.6897 13.1034V15.3103L16.6886 15.413M16.6886 15.413L18.5677 16.1181C18.9885 16.2758 19.3511 16.5582 19.607 16.9275C19.8629 17.2968 20.0001 17.7355 20 18.1848V20M4 7.31034V8.77352C4 9.17482 4.10942 9.56852 4.31648 9.91227C4.52355 10.256 4.82043 10.5368 5.17517 10.7244L7.45821 11.9327M20 7.31034V8.77352C20 9.17482 19.8906 9.56852 19.6835 9.91227C19.4765 10.256 19.1796 10.5368 18.8248 10.7244L16.5418 11.9327M9.51724 6.75862V6.2069C9.51724 5.62159 9.74975 5.06026 10.1636 4.64638C10.5775 4.23251 11.1388 4 11.7241 4H12.2759C12.8612 4 13.4225 4.23251 13.8364 4.64638C14.2502 5.06026 14.4828 5.62159 14.4828 6.2069V6.75862M9.51724 6.75862V8.96552M9.51724 6.75862L8.53076 6.26538C8.1639 6.08206 7.85538 5.80014 7.63981 5.45126C7.42424 5.10237 7.31015 4.70032 7.31034 4.29021V4M14.4828 6.75862V8.96552M14.4828 6.75862L15.4692 6.26538C15.8361 6.08206 16.1446 5.80014 16.3602 5.45126C16.5758 5.10237 16.6898 4.70032 16.6897 4.29021V4"
    stroke="#BCBCBC" stroke-width="1.5" stroke-linecap="round" stroke-linejoin="round" />
</svg>