<svg xmlns="http://www.w3.org/2000/svg" fill="none" viewBox="0 0.5 101.9 17.02">
  <path fill="#39594D" d="M28.706 17.4966c2.5252 0 4.7353-1.2626 5.609-3.8119.1696-.5105-.0737-.8497-.5585-.8497h-.9474c-.4369 0-.7281.1936-.9234.6064-.7521 1.482-1.7971 2.0148-3.1077 2.0148-2.3317 0-3.7639-1.6276-3.7639-4.3464 0-2.71884 1.4819-4.34637 3.7142-4.34637 1.3602 0 2.4773.58248 3.1814 1.96674.2193.41288.4848.60647.9234.60647h.9474c.4848 0 .7281-.31523.5585-.77779-1.0194-2.76851-3.3031-3.83583-5.633-3.83583-3.5206 0-6.1435 2.59891-6.1435 6.38678 0 3.7879 2.5013 6.3868 6.1435 6.3868ZM92.25 9.99279c.3152-2.06439 1.7235-3.351 3.6422-3.351 1.9188 0 3.351 1.31059 3.5206 3.351H92.25Zm3.7399 7.50381c2.234 0 4.4681-1.0434 5.5611-3.399.267-.5585.024-.9474-.461-.9474h-.898c-.4365 0-.7038.1936-.9231.5825-.7281 1.2866-1.9907 1.8211-3.2773 1.8211-2.21 0-3.6422-1.5059-3.8119-3.9575h8.9123c.485 0 .802-.2672.802-.7777-.098-3.8119-2.5737-6.09387-5.9983-6.09387-3.4247 0-6.1435 2.47728-6.1435 6.38677 0 3.9095 2.6468 6.3868 6.2411 6.3868l-.0034-.0017Zm-14.1321-6.0699h.8017c.4849 0 .7521-.2672.8258-.7778.4626-3.28071 2.3831-3.71587 4.4252-3.61821.4368.02055.7949-.31523.7949-.75381v-.75209c0-.48483-.2433-.77779-.7281-.80177-1.8074-.06853-3.4195.55164-4.3515 2.30767-.0514.09593-.1953.07024-.2073-.03769l-.1508-1.3243c-.0479-.48483-.3152-.72811-.8017-.72811h-3.6663c-.4283 0-.7778.34778-.7778.77779v.41288c0 .4283.3478.77779.7778.77779h1.5059c.4283 0 .7778.34778.7778.77779v2.96206c0 .4283.3478.7778.7778.7778h-.0034Zm-3.2774 5.8283h7.5997c.4849 0 .7778-.2912.7778-.7778v-.4129c0-.4848-.2912-.7777-.7778-.7777h-1.9427c-.4848 0-.7778-.2913-.7778-.7778v-1.3363c0-.4849-.2912-.7778-.7778-.7778h-.8257c-.4849 0-.7778.2912-.7778.7778v1.3363c0 .4848-.2913.7778-.7778.7778H78.577c-.4848 0-.7778.2912-.7778.7777v.4129c0 .4849.2913.7778.7778.7778h.0034ZM66.8519 9.99451c.3153-2.0644 1.7235-3.351 3.6423-3.351 1.9187 0 3.351 1.31059 3.5206 3.351h-7.1629Zm3.7399 7.50379c2.234 0 4.468-1.0433 5.561-3.399.2673-.5585.024-.9474-.4608-.9474h-.8977c-.4369 0-.7041.1936-.9234.5825-.7281 1.2866-1.9908 1.8211-3.2774 1.8211-2.21 0-3.6422-1.5059-3.8118-3.9574h8.912c.4848 0 .8018-.2673.8018-.7778-.0977-3.81188-2.5732-6.09386-5.9979-6.09386-3.4247 0-6.1435 2.47728-6.1435 6.38676 0 3.9095 2.6469 6.3868 6.2412 6.3868l-.0035-.0017Zm-28.0929 0c3.6423 0 6.2412-2.6949 6.2412-6.3868 0-3.69192-2.5989-6.38677-6.2412-6.38677-3.6422 0-6.2411 2.74453-6.2411 6.38677 0 .8498.1456 1.7971.5824 2.8405.2193.5105.6322.5825 1.0691.2672l.7041-.5105c.3649-.2673.4608-.5825.3392-1.0433-.1936-.6065-.2433-1.141-.2433-1.6019 0-2.54919 1.5299-4.29836 3.7879-4.29836s3.7879 1.72347 3.7879 4.34636c0 2.6229-1.5059 4.3464-3.7399 4.3464-.7778 0-1.5059-.1456-2.3797-.8018-.3649-.2912-.7041-.3392-1.093-.048l-.5345.3889c-.4369.3153-.4848.7521-.0737 1.093 1.2627 1.0194 2.7189 1.4083 4.0312 1.4083h.0034Zm9.3232-.2433h.8018c.4283 0 .7778-.3478.7778-.7778v-5.8026c0-2.45153 1.3105-3.90946 3.351-3.90946 1.8451 0 2.9141 1.21465 2.9141 3.44866v6.2651c0 .4283.3478.7778.7778.7778h.8257c.4283 0 .7778-.3478.7778-.7778v-6.654c0-3.27733-1.6755-5.09846-4.5159-5.09846-1.9342 0-3.0769.7915-3.9301 1.89308-.0651.08395-.197.03769-.197-.06681V1.27779C53.3999.847778 53.0522.5 52.6239.5h-.8018c-.4283 0-.7778.347778-.7778.77779V16.4772c0 .4283.3478.7778.7778.7778Z"/>
  <g clip-path="url(#a)">
    <path fill="#39594D" fill-rule="evenodd" d="M5.50773 10.6219c.45757 0 1.36777-.0251 2.62589-.5431 1.46611-.60362 4.38298-1.69938 6.48718-2.8249 1.4716-.78722 2.1167-1.82837 2.1167-3.23046C16.7375 2.07751 15.16.5 13.2141.5H5.06095C2.26586.5 0 2.76586 0 5.56095s2.12151 5.06095 5.50773 5.06095Z" clip-rule="evenodd"/>
    <path fill="#D18EE2" fill-rule="evenodd" d="M6.88672 14.107c0-1.3701.82483-2.6054 2.09027-3.1306l2.56761-1.0656c2.5971-1.07786 5.4557.8307 5.4557 3.6427 0 2.1785-1.7664 3.9444-3.945 3.9438l-2.7799-.0007c-1.87168-.0005-3.38868-1.5179-3.38868-3.3896Z" clip-rule="evenodd"/>
    <path fill="#FF7759" d="M2.91749 11.2891h-.00005C1.30618 11.2891 0 12.5952 0 14.2065v.3779c0 1.6112 1.30618 2.9174 2.91744 2.9174h.00005c1.61126 0 2.91744-1.3062 2.91744-2.9174v-.3779c0-1.6113-1.30618-2.9174-2.91744-2.9174Z"/>
  </g>
  <defs>
    <clipPath id="a">
      <path fill="#fff" d="M0 .5h17v17H0z"/>
    </clipPath>
  </defs>
</svg>
