<?xml version="1.0" encoding="utf-8"?>
<!-- Generator: Adobe Illustrator 24.0.3, SVG Export Plug-In . SVG Version: 6.00 Build 0)  -->
<svg version="1.1" id="Layer_1" xmlns="http://www.w3.org/2000/svg" xmlns:xlink="http://www.w3.org/1999/xlink" x="0px" y="0px"
	 viewBox="0 0 1073 1073" style="enable-background:new 0 0 1073 1073;" xml:space="preserve">
<style type="text/css">
	.st0{fill:#00AFBA;}
	.st1{fill:none;}
</style>
<g>
	<path class="st0" d="M720.81,547.34c20.42-1.1,40.85-1.76,61.27-3.25v-15.7c-20.43-1.49-40.85-2.15-61.27-3.25l-61.28-1.9
		c-35.96-1.11-71.92-1.4-107.88-1.61c-0.08-35.98-0.25-71.96-1.22-107.94l-1.71-61.28c-1.05-20.42-1.65-40.85-3.09-61.27h-17.31
		c-1.44,20.43-2.04,40.85-3.09,61.27l-1.71,61.28c-0.45,16.88-0.67,33.77-0.85,50.65c-6.63-15.53-13.29-31.05-20.17-46.47
		l-25.03-55.95c-8.79-18.47-17.16-37.11-26.31-55.43l-15.99,6.62c6.48,19.42,13.75,38.52,20.59,57.8l21.87,57.26
		c6.04,15.77,12.31,31.45,18.6,47.12c-12.07-11.81-24.15-23.59-36.41-35.21l-44.54-42.12c-15.18-13.7-30.05-27.72-45.51-41.14
		l-12.24,12.23c13.43,15.47,27.45,30.33,41.14,45.52l42.12,44.54c11.62,12.26,23.41,24.35,35.22,36.42
		c-15.67-6.29-31.35-12.56-47.12-18.6l-57.27-21.86c-19.27-6.85-38.37-14.11-57.8-20.6l-6.62,15.99
		c18.32,9.15,36.96,17.52,55.43,26.3l55.96,25.03c15.42,6.88,30.94,13.53,46.47,20.16c-16.88,0.18-33.77,0.39-50.65,0.85
		l-61.27,1.71c-20.42,1.05-40.85,1.65-61.27,3.09v17.3c20.43,1.44,40.85,2.04,61.27,3.1l61.27,1.71
		c35.98,0.97,71.96,1.14,107.94,1.22c0.22,35.96,0.5,71.92,1.61,107.88l1.9,61.27c1.1,20.42,1.76,40.85,3.25,61.27h15.7
		c1.49-20.43,2.15-40.85,3.25-61.27l1.91-61.27c0.53-17.29,0.81-34.58,1.05-51.87c6.84,15.88,13.71,31.75,20.82,47.52l25.21,55.88
		c8.83,18.45,17.26,37.07,26.45,55.37l14.51-6.01c-6.44-19.44-13.64-38.57-20.45-57.86l-21.69-57.34
		c-6.13-16.18-12.49-32.26-18.88-48.33c12.4,12.06,24.83,24.09,37.43,35.94l44.67,41.98c15.22,13.67,30.13,27.64,45.63,41.03
		l11.1-11.11c-13.39-15.49-27.36-30.41-41.03-45.62l-41.98-44.68c-11.85-12.6-23.88-25.02-35.93-37.42
		c16.07,6.39,32.15,12.75,48.33,18.87l57.34,21.7c19.29,6.8,38.41,14,57.85,20.45l6.01-14.51c-18.3-9.2-36.91-17.63-55.37-26.45
		l-55.88-25.21c-15.77-7.11-31.64-13.99-47.52-20.83c17.29-0.24,34.58-0.52,51.87-1.06L720.81,547.34z"/>
	<path class="st0" d="M536.98,170.46c-201.69,0-365.77,164.09-365.77,365.77c0,201.69,164.08,365.78,365.77,365.78
		s365.78-164.09,365.78-365.78C902.76,334.55,738.67,170.46,536.98,170.46 M536.98,935.24c-220.01,0-399-178.99-399-399
		c0-220.01,178.99-399,399-399c220.01,0,399,178.99,399,399C935.98,756.25,757,935.24,536.98,935.24"/>
</g>
<g>
	<rect class="st1" width="1073" height="1073"/>
</g>
</svg>