<?xml version="1.0" encoding="UTF-8"?>
<!DOCTYPE svg PUBLIC "-//W3C//DTD SVG 1.1//EN" "http://www.w3.org/Graphics/SVG/1.1/DTD/svg11.dtd">
<svg xmlns="http://www.w3.org/2000/svg" version="1.1" width="512px" height="512px" style="shape-rendering:geometricPrecision; text-rendering:geometricPrecision; image-rendering:optimizeQuality; fill-rule:evenodd; clip-rule:evenodd" xmlns:xlink="http://www.w3.org/1999/xlink">
<g><path style="opacity:1" fill="#2a3275" d="M 263.5,63.5 C 268.346,67.7531 268.68,72.4198 264.5,77.5C 263.252,76.9598 262.085,76.2931 261,75.5C 258.393,76.1233 255.893,76.79 253.5,77.5C 235.471,82.754 229.971,94.0873 237,111.5C 240.103,115.114 243.603,118.114 247.5,120.5C 247.326,122.861 246.993,125.194 246.5,127.5C 245.5,127.5 244.5,127.5 243.5,127.5C 243.5,126.167 243.5,124.833 243.5,123.5C 238.321,123.198 233.321,123.865 228.5,125.5C 221.126,117.18 217.459,107.68 217.5,97C 222.625,71.6977 237.958,60.5311 263.5,63.5 Z"/></g>
<g><path style="opacity:1" fill="#2a3275" d="M 263.5,63.5 C 285.301,70.083 294.801,84.7497 292,107.5C 287.408,123.876 277.075,133.876 261,137.5C 257,137.5 253,137.5 249,137.5C 241.402,135.268 234.568,131.268 228.5,125.5C 233.321,123.865 238.321,123.198 243.5,123.5C 243.5,124.833 243.5,126.167 243.5,127.5C 244.5,127.5 245.5,127.5 246.5,127.5C 246.993,125.194 247.326,122.861 247.5,120.5C 262.53,123.738 272.363,118.071 277,103.5C 277.719,87.6944 269.885,79.0278 253.5,77.5C 255.893,76.79 258.393,76.1233 261,75.5C 262.085,76.2931 263.252,76.9598 264.5,77.5C 268.68,72.4198 268.346,67.7531 263.5,63.5 Z"/></g>
<g><path style="opacity:0.999" fill="#5697d9" d="M 320.5,138.5 C 319.292,137.766 317.959,137.433 316.5,137.5C 307.271,135.771 301.937,130.271 300.5,121C 302.886,112.934 308.22,109.268 316.5,110C 326.281,113.724 335.948,117.724 345.5,122C 352.135,130.359 351.135,137.859 342.5,144.5C 341.094,143.332 339.928,143.665 339,145.5C 336.282,144.653 333.616,143.653 331,142.5C 330.667,142.833 330.333,143.167 330,143.5C 327.08,141.36 323.913,139.694 320.5,138.5 Z"/></g>
<g><path style="opacity:1" fill="#2a3274" d="M 107.5,114.5 C 130.159,112.349 144.992,122.015 152,143.5C 154.415,168.537 143.582,183.87 119.5,189.5C 109.958,189.422 100.958,186.922 92.5,182C 90.4274,178.924 87.7608,176.59 84.5,175C 84.8333,174.667 85.1667,174.333 85.5,174C 83.5,171 81.5,168 79.5,165C 79.8333,164.667 80.1667,164.333 80.5,164C 80.0037,162.004 79.0037,160.337 77.5,159C 76.1785,137.061 86.1785,122.228 107.5,114.5 Z M 112.5,129.5 C 126.817,129.271 135.151,136.771 137.5,152C 135.834,164.497 128.501,171.664 115.5,173.5C 102.5,171.833 95.1667,164.5 93.5,151.5C 95.1599,139.541 101.493,132.208 112.5,129.5 Z"/></g>
<g><path style="opacity:0.998" fill="#5797da" d="M 193.5,109.5 C 206.367,108.867 211.534,114.867 209,127.5C 207.833,130 206,131.833 203.5,133C 194.516,136.872 184.516,140.706 173.5,144.5C 162.305,141.775 158.805,135.108 163,124.5C 164.938,121.894 167.438,120.061 170.5,119C 178.388,116.1 186.055,112.934 193.5,109.5 Z"/></g>
<g><path style="opacity:0.997" fill="#2a3275" d="M 403.5,115.5 C 404.452,116.452 405.452,117.452 406.5,118.5C 407.022,122.035 408.022,125.368 409.5,128.5C 407.293,129.635 404.96,130.301 402.5,130.5C 385.934,127.951 376.267,134.951 373.5,151.5C 374.329,161.988 379.662,168.988 389.5,172.5C 391.048,173.794 393.048,174.461 395.5,174.5C 397.952,174.461 399.952,173.794 401.5,172.5C 402.167,172.5 402.833,172.5 403.5,172.5C 404.268,173.263 404.768,174.263 405,175.5C 406.754,173.75 408.921,173.083 411.5,173.5C 411.187,177.413 411.853,181.079 413.5,184.5C 412.778,184.918 412.278,185.584 412,186.5C 411.667,186.167 411.333,185.833 411,185.5C 408.05,186.392 405.383,187.725 403,189.5C 399.179,188.598 395.179,188.598 391,189.5C 385.406,187.66 379.572,185.494 373.5,183C 369.159,178.26 364.825,172.927 360.5,167C 360.833,166.667 361.167,166.333 361.5,166C 355.044,149.743 358.378,135.243 371.5,122.5C 381.226,115.131 391.892,112.798 403.5,115.5 Z"/></g>
<g><path style="opacity:0.012" fill="#5555aa" d="M 316.5,137.5 C 317.959,137.433 319.292,137.766 320.5,138.5C 319.038,139.471 317.705,139.138 316.5,137.5 Z"/></g>
<g><path style="opacity:1" fill="#2a3275" d="M 403.5,115.5 C 414.212,117.36 422.378,123.027 428,132.5C 437.449,154.057 432.616,171.39 413.5,184.5C 411.853,181.079 411.187,177.413 411.5,173.5C 408.921,173.083 406.754,173.75 405,175.5C 404.768,174.263 404.268,173.263 403.5,172.5C 417.343,164.139 420.51,152.805 413,138.5C 409.352,135.264 405.852,132.597 402.5,130.5C 404.96,130.301 407.293,129.635 409.5,128.5C 408.022,125.368 407.022,122.035 406.5,118.5C 405.452,117.452 404.452,116.452 403.5,115.5 Z"/></g>
<g><path style="opacity:0.998" fill="#5697d9" d="M 169.5,160.5 C 181.275,162.88 192.608,166.714 203.5,172C 209.886,177.144 211.052,183.311 207,190.5C 204.007,193.336 200.507,195.336 196.5,196.5C 186.26,192.279 175.594,187.946 164.5,183.5C 157.859,173.807 159.525,166.141 169.5,160.5 Z"/></g>
<g><path style="opacity:0.999" fill="#5697d9" d="M 331.5,189.5 C 330.167,190.167 328.833,190.833 327.5,191.5C 327.167,190.167 326.833,190.167 326.5,191.5C 322.171,192.748 318.004,194.414 314,196.5C 311.123,195.544 308.456,194.211 306,192.5C 305.667,192.833 305.333,193.167 305,193.5C 302.57,190.865 301.07,188.032 300.5,185C 300.319,178.694 302.986,174.027 308.5,171C 317.167,167.667 325.833,164.333 334.5,161C 343.777,160.137 349.11,164.303 350.5,173.5C 348.596,181.238 344.429,185.572 338,186.5C 336.324,187.061 334.991,188.061 334,189.5C 333.023,188.226 332.189,188.226 331.5,189.5 Z"/></g>
<g><path style="opacity:0.621" fill="#2a3867" d="M 389.5,172.5 C 393.5,173.833 397.5,173.833 401.5,172.5C 399.952,173.794 397.952,174.461 395.5,174.5C 393.048,174.461 391.048,173.794 389.5,172.5 Z"/></g>
<g><path style="opacity:0.999" fill="#2a3275" d="M 282.5,178.5 C 291.38,187.661 294.546,198.661 292,211.5C 288.203,225.965 279.203,235.632 265,240.5C 263.374,240.146 261.541,240.146 259.5,240.5C 258.432,239.566 257.099,239.232 255.5,239.5C 255.808,237.076 255.474,234.743 254.5,232.5C 253.232,233.428 251.899,233.595 250.5,233C 246.377,226.934 248.043,224.768 255.5,226.5C 257.64,226.444 259.306,225.777 260.5,224.5C 275.464,218.739 280.297,208.406 275,193.5C 272.972,190.308 270.472,187.641 267.5,185.5C 270.925,183.239 272.259,179.906 271.5,175.5C 273.604,175.201 275.604,175.534 277.5,176.5C 278.532,179.193 280.198,179.86 282.5,178.5 Z"/></g>
<g><path style="opacity:0.997" fill="#2a3274" d="M 282.5,178.5 C 280.198,179.86 278.532,179.193 277.5,176.5C 275.604,175.534 273.604,175.201 271.5,175.5C 272.259,179.906 270.925,183.239 267.5,185.5C 256.024,179.334 246.191,181 238,190.5C 230.817,202.518 232.65,213.018 243.5,222C 248.897,225.215 254.563,226.048 260.5,224.5C 259.306,225.777 257.64,226.444 255.5,226.5C 248.043,224.768 246.377,226.934 250.5,233C 251.899,233.595 253.232,233.428 254.5,232.5C 255.474,234.743 255.808,237.076 255.5,239.5C 257.099,239.232 258.432,239.566 259.5,240.5C 246.001,242.061 235.001,237.728 226.5,227.5C 222.822,222.305 219.822,216.805 217.5,211C 216.292,188.542 226.292,173.876 247.5,167C 261.517,164.243 273.183,168.076 282.5,178.5 Z"/></g>
<g><path style="opacity:0.012" fill="#5555aa" d="M 331.5,189.5 C 332.833,190.167 332.833,190.167 331.5,189.5 Z"/></g>
<g><path style="opacity:0.012" fill="#5555aa" d="M 326.5,191.5 C 326.833,191.5 327.167,191.5 327.5,191.5C 327.315,192.17 326.981,192.17 326.5,191.5 Z"/></g>
<g><path style="opacity:0.992" fill="#2a3375" d="M 138.5,226.5 C 137.85,226.804 137.183,227.137 136.5,227.5C 135.15,226.05 133.484,225.383 131.5,225.5C 131.719,224.325 131.386,223.325 130.5,222.5C 124.331,223.093 117.998,223.426 111.5,223.5C 111.5,226.5 111.5,229.5 111.5,232.5C 113.099,232.232 114.432,232.566 115.5,233.5C 107.711,233.726 101.711,237.059 97.5,243.5C 92.3723,251.273 92.2056,259.273 97,267.5C 99.3722,269.703 101.539,272.037 103.5,274.5C 101.849,274.664 100.182,275.664 98.5,277.5C 98.1667,277.167 97.8333,276.833 97.5,276.5C 98.1667,275.833 98.8333,275.167 99.5,274.5C 97.9991,273.248 96.3325,272.248 94.5,271.5C 93.3466,268.554 92.3466,265.554 91.5,262.5C 92.8085,258.302 92.8085,254.136 91.5,250C 92.2931,248.915 92.9598,247.748 93.5,246.5C 91.7752,241.05 90.9419,235.384 91,229.5C 89.3409,230.817 88.1743,232.483 87.5,234.5C 88.0662,237.417 88.0662,240.417 87.5,243.5C 84.8858,243.277 83.2191,244.444 82.5,247C 83.448,247.483 84.448,247.649 85.5,247.5C 85.5789,249.666 86.2455,251.666 87.5,253.5C 87.1132,255.274 86.4465,256.941 85.5,258.5C 86.9264,260.826 88.5931,261.992 90.5,262C 90.3865,263.28 89.7199,264.113 88.5,264.5C 85.9607,263.885 83.4607,263.218 81,262.5C 81.5589,264.638 81.3922,266.638 80.5,268.5C 74.4519,251.823 78.7852,237.323 93.5,225C 104.051,218.461 115.384,216.794 127.5,220C 131.577,221.6 135.244,223.766 138.5,226.5 Z"/></g>
<g><path style="opacity:1" fill="#5697d9" d="M 335.5,246.5 C 326.364,242.778 317.031,239.278 307.5,236C 305.792,233.957 303.792,232.29 301.5,231C 302.214,229.657 301.88,228.324 300.5,227C 299.77,217.876 304.104,212.71 313.5,211.5C 324.031,214.764 334.365,218.598 344.5,223C 352.342,230.669 352.009,238.002 343.5,245C 340.937,246.079 338.271,246.579 335.5,246.5 Z"/></g>
<g><path style="opacity:0.995" fill="#5698d9" d="M 199.5,241.5 C 190.431,244.729 181.764,248.062 173.5,251.5C 169.053,250.11 165.053,247.944 161.5,245C 162.214,243.657 161.88,242.324 160.5,241C 160.571,237.536 161.405,234.036 163,230.5C 163.833,229.667 164.667,228.833 165.5,228C 175.847,222.992 186.514,218.826 197.5,215.5C 208.64,218.113 212.14,224.78 208,235.5C 205.678,238.395 202.845,240.395 199.5,241.5 Z"/></g>
<g><path style="opacity:1" fill="#2a3275" d="M 411.5,221.5 C 409.987,225.318 409.32,229.318 409.5,233.5C 407.5,233.833 405.5,234.167 403.5,234.5C 391.454,231.886 382.288,235.552 376,245.5C 375.16,248.202 374.327,250.868 373.5,253.5C 372.776,256.083 371.943,258.749 371,261.5C 369.505,257.334 368.005,257 366.5,260.5C 369.953,261.479 370.286,262.979 367.5,265C 366.258,265.311 365.258,264.811 364.5,263.5C 363.158,265.005 361.492,265.672 359.5,265.5C 354.94,242.285 364.273,226.785 387.5,219C 395.763,217.848 403.763,218.681 411.5,221.5 Z"/></g>
<g><path style="opacity:0.012" fill="#5555aa" d="M 199.5,241.5 C 200.833,242.167 200.833,242.167 199.5,241.5 Z"/></g>
<g><path style="opacity:0.991" fill="#2a3275" d="M 138.5,226.5 C 151.468,237.348 155.634,251.014 151,267.5C 141.84,288.144 126.34,296.144 104.5,291.5C 93.0368,287.437 85.0368,279.77 80.5,268.5C 81.3922,266.638 81.5589,264.638 81,262.5C 83.4607,263.218 85.9607,263.885 88.5,264.5C 89.7199,264.113 90.3865,263.28 90.5,262C 88.5931,261.992 86.9264,260.826 85.5,258.5C 86.4465,256.941 87.1132,255.274 87.5,253.5C 86.2455,251.666 85.5789,249.666 85.5,247.5C 84.448,247.649 83.448,247.483 82.5,247C 83.2191,244.444 84.8858,243.277 87.5,243.5C 88.0662,240.417 88.0662,237.417 87.5,234.5C 88.1743,232.483 89.3409,230.817 91,229.5C 90.9419,235.384 91.7752,241.05 93.5,246.5C 92.9598,247.748 92.2931,248.915 91.5,250C 92.8085,254.136 92.8085,258.302 91.5,262.5C 92.3466,265.554 93.3466,268.554 94.5,271.5C 96.3325,272.248 97.9991,273.248 99.5,274.5C 98.8333,275.167 98.1667,275.833 97.5,276.5C 97.8333,276.833 98.1667,277.167 98.5,277.5C 100.182,275.664 101.849,274.664 103.5,274.5C 121.971,281.041 133.304,274.708 137.5,255.5C 135.873,242.54 128.54,235.207 115.5,233.5C 114.432,232.566 113.099,232.232 111.5,232.5C 111.5,229.5 111.5,226.5 111.5,223.5C 117.998,223.426 124.331,223.093 130.5,222.5C 131.386,223.325 131.719,224.325 131.5,225.5C 133.484,225.383 135.15,226.05 136.5,227.5C 137.183,227.137 137.85,226.804 138.5,226.5 Z M 115.5,233.5 C 128.54,235.207 135.873,242.54 137.5,255.5C 133.304,274.708 121.971,281.041 103.5,274.5C 101.539,272.037 99.3722,269.703 97,267.5C 92.2056,259.273 92.3723,251.273 97.5,243.5C 101.711,237.059 107.711,233.726 115.5,233.5 Z"/></g>
<g><path style="opacity:0.012" fill="#5555aa" d="M 335.5,246.5 C 334.833,247.167 334.833,247.167 335.5,246.5 Z"/></g>
<g><path style="opacity:0.997" fill="#5697d9" d="M 168.5,262.5 C 181.559,264.632 193.892,268.965 205.5,275.5C 210.959,282.799 210.459,289.799 204,296.5C 203.667,296.167 203.333,295.833 203,295.5C 200.367,297.16 197.534,297.66 194.5,297C 185.57,293.691 176.737,290.191 168,286.5C 167.667,286.833 167.333,287.167 167,287.5C 157.907,279.07 158.407,270.737 168.5,262.5 Z"/></g>
<g><path style="opacity:0.999" fill="#5697d9" d="M 334.5,262.5 C 348.258,263.03 352.758,269.697 348,282.5C 347.167,283.333 346.333,284.167 345.5,285C 335.926,289.038 326.426,293.204 317,297.5C 311.971,297.497 307.138,295.997 302.5,293C 302.848,290.945 302.181,288.945 300.5,287C 300.445,281.722 302.445,277.388 306.5,274C 315.974,270.238 325.307,266.405 334.5,262.5 Z"/></g>
<g><path style="opacity:1" fill="#2a3275" d="M 411.5,221.5 C 430.737,232.692 436.904,249.026 430,270.5C 421.386,286.978 407.719,294.645 389,293.5C 385.048,291.445 380.881,289.779 376.5,288.5C 370.996,284.151 366.329,279.651 362.5,275C 362.833,274.667 363.167,274.333 363.5,274C 361.754,271.341 360.42,268.508 359.5,265.5C 361.492,265.672 363.158,265.005 364.5,263.5C 365.258,264.811 366.258,265.311 367.5,265C 370.286,262.979 369.953,261.479 366.5,260.5C 368.005,257 369.505,257.334 371,261.5C 371.943,258.749 372.776,256.083 373.5,253.5C 374.23,267.563 381.563,275.563 395.5,277.5C 403.957,276.688 410.457,272.688 415,265.5C 420.225,252.5 416.391,242.166 403.5,234.5C 405.5,234.167 407.5,233.833 409.5,233.5C 409.32,229.318 409.987,225.318 411.5,221.5 Z"/></g>
<g><path style="opacity:1" fill="#2a3275" d="M 247.5,270.5 C 268.473,267.895 282.973,276.228 291,295.5C 295.792,321.97 285.459,338.636 260,345.5C 257,344.167 254,344.167 251,345.5C 228.039,339.54 216.873,324.707 217.5,301C 222.016,285.318 232.016,275.151 247.5,270.5 Z M 251.5,285.5 C 254.051,286.29 256.384,286.29 258.5,285.5C 261.825,286.896 264.825,288.063 267.5,289C 278.207,297.577 280.04,308.077 273,320.5C 259.574,333.197 247.241,332.197 236,317.5C 231.135,301.368 236.302,290.701 251.5,285.5 Z"/></g>
<g><path style="opacity:0.999" fill="#5697d9" d="M 164.5,348.5 C 163.298,346.608 161.965,344.774 160.5,343C 160.869,340.448 160.869,337.781 160.5,335C 162.395,332.194 164.728,329.86 167.5,328C 175.913,324.862 184.246,321.529 192.5,318C 205.333,316.167 210.833,321.667 209,334.5C 207.167,337 205.333,339.5 203.5,342C 197.794,342.667 192.461,344.834 187.5,348.5C 185.49,347.651 183.823,348.318 182.5,350.5C 179.782,350.055 177.115,350.721 174.5,352.5C 170.657,352.211 167.324,350.877 164.5,348.5 Z"/></g>
<g><path style="opacity:1" fill="#5697d9" d="M 309.5,313.5 C 321.654,315.607 333.321,319.44 344.5,325C 352.409,333.593 351.575,341.426 342,348.5C 340.32,347.397 338.82,347.73 337.5,349.5C 331.604,346.917 325.437,344.25 319,341.5C 318.667,341.833 318.333,342.167 318,342.5C 316.54,340.578 314.873,339.911 313,340.5C 310.896,338.262 308.562,337.262 306,337.5C 300.525,331.415 299.525,325.081 303,318.5C 304.965,316.45 307.132,314.783 309.5,313.5 Z"/></g>
<g><path style="opacity:0.998" fill="#2a3275" d="M 106.5,322.5 C 127.822,319.572 142.655,327.905 151,347.5C 155.473,376.682 143.473,393.349 115,397.5C 102.452,396.144 92.4521,390.811 85,381.5C 73.7331,363.417 75.5665,346.584 90.5,331C 95.4828,327.344 100.816,324.511 106.5,322.5 Z M 111.5,337.5 C 126.28,336.905 134.947,344.239 137.5,359.5C 135.861,372.472 128.528,379.806 115.5,381.5C 96.1479,377.319 89.9812,365.986 97,347.5C 100.689,342.28 105.522,338.947 111.5,337.5 Z"/></g>
<g><path style="opacity:0.999" fill="#2a3275" d="M 432.5,355.5 C 431.539,357.265 431.205,359.265 431.5,361.5C 429.167,361.5 426.833,361.5 424.5,361.5C 424.5,362.833 424.5,364.167 424.5,365.5C 420.738,365.694 419.071,363.86 419.5,360C 418.888,356.449 420.222,353.949 423.5,352.5C 423.333,352.167 423.167,351.833 423,351.5C 420.358,349.762 417.524,348.429 414.5,347.5C 401.099,333.617 388.099,334.284 375.5,349.5C 374.542,349.953 373.708,350.619 373,351.5C 372.403,357.431 372.57,363.097 373.5,368.5C 373.167,368.833 372.833,369.167 372.5,369.5C 371.672,368.585 370.672,367.919 369.5,367.5C 367.964,368.249 366.631,369.249 365.5,370.5C 364.614,369.675 364.281,368.675 364.5,367.5C 362.833,367.5 361.167,367.5 359.5,367.5C 358.766,366.122 358.099,364.622 357.5,363C 357.5,360.333 357.5,357.667 357.5,355C 363.257,331.32 378.59,320.653 403.5,323C 420.422,327.335 430.088,338.168 432.5,355.5 Z"/></g>
<g><path style="opacity:0.012" fill="#5555aa" d="M 164.5,348.5 C 163.833,349.167 163.833,349.167 164.5,348.5 Z"/></g>
<g><path style="opacity:0.999" fill="#293274" d="M 414.5,347.5 C 417.524,348.429 420.358,349.762 423,351.5C 423.167,351.833 423.333,352.167 423.5,352.5C 420.222,353.949 418.888,356.449 419.5,360C 419.071,363.86 420.738,365.694 424.5,365.5C 424.5,364.167 424.5,362.833 424.5,361.5C 426.833,361.5 429.167,361.5 431.5,361.5C 431.205,359.265 431.539,357.265 432.5,355.5C 433.736,367.124 430.403,377.124 422.5,385.5C 411.012,395.924 397.512,398.924 382,394.5C 369.603,388.991 362.103,379.991 359.5,367.5C 361.167,367.5 362.833,367.5 364.5,367.5C 364.281,368.675 364.614,369.675 365.5,370.5C 366.631,369.249 367.964,368.249 369.5,367.5C 370.672,367.919 371.672,368.585 372.5,369.5C 372.833,369.167 373.167,368.833 373.5,368.5C 372.57,363.097 372.403,357.431 373,351.5C 373.708,350.619 374.542,349.953 375.5,349.5C 370.997,367.162 377.664,377.829 395.5,381.5C 409.399,379.445 416.732,371.612 417.5,358C 416.321,354.457 415.321,350.957 414.5,347.5 Z"/></g>
<g><path style="opacity:0.997" fill="#5697d9" d="M 169.5,371.5 C 181.275,373.88 192.608,377.714 203.5,383C 209.892,388.184 211.058,394.35 207,401.5C 204.42,403.872 201.587,405.872 198.5,407.5C 187.016,403.561 175.683,399.228 164.5,394.5C 157.757,384.736 159.423,377.07 169.5,371.5 Z"/></g>
<g><path style="opacity:0.999" fill="#5697d9" d="M 346.5,393.5 C 337.711,398 328.878,401.666 320,404.5C 317.037,406.244 313.871,406.744 310.5,406C 307.371,404.601 304.371,402.935 301.5,401C 301.534,396.974 301.701,392.807 302,388.5C 302.785,386.714 303.951,385.214 305.5,384C 315.852,378.989 326.519,374.822 337.5,371.5C 345.462,372.128 349.795,376.462 350.5,384.5C 349.913,387.88 348.579,390.88 346.5,393.5 Z"/></g>
<g><path style="opacity:0.998" fill="#293274" d="M 273.5,378.5 C 273.712,380.384 274.712,381.717 276.5,382.5C 275.264,383.357 273.931,384.023 272.5,384.5C 272.167,385.667 271.833,386.833 271.5,388C 272.089,389.972 272.589,391.805 273,393.5C 270.057,391.777 266.89,390.777 263.5,390.5C 246.501,387.131 236.501,394.131 233.5,411.5C 233.753,413.858 234.086,416.192 234.5,418.5C 234.657,419.873 234.49,421.207 234,422.5C 233.667,421.833 233.333,421.167 233,420.5C 230.372,422.986 227.372,424.986 224,426.5C 223.29,425.027 222.124,424.36 220.5,424.5C 214.164,400.344 222.831,383.844 246.5,375C 255.925,373.518 264.925,374.685 273.5,378.5 Z"/></g>
<g><path style="opacity:0.996" fill="#2a3375" d="M 273.5,378.5 C 290.193,389.052 296.026,404.052 291,423.5C 288.954,429.617 285.454,434.617 280.5,438.5C 280.077,437.735 279.743,436.902 279.5,436C 280.509,434.832 281.509,433.665 282.5,432.5C 280.703,431.305 279.703,429.638 279.5,427.5C 277.143,427.337 274.81,427.503 272.5,428C 270.389,429.735 268.389,431.568 266.5,433.5C 265.139,433.212 263.806,432.879 262.5,432.5C 271.111,428.604 276.111,422.271 277.5,413.5C 276.86,411.481 276.86,409.647 277.5,408C 275.126,400.744 270.459,394.911 263.5,390.5C 266.89,390.777 270.057,391.777 273,393.5C 272.589,391.805 272.089,389.972 271.5,388C 271.833,386.833 272.167,385.667 272.5,384.5C 273.931,384.023 275.264,383.357 276.5,382.5C 274.712,381.717 273.712,380.384 273.5,378.5 Z"/></g>
<g><path style="opacity:0.012" fill="#545554" d="M 422.5,385.5 C 423.833,386.167 423.833,386.167 422.5,385.5 Z"/></g>
<g><path style="opacity:0.012" fill="#5555aa" d="M 346.5,393.5 C 347.833,394.167 347.833,394.167 346.5,393.5 Z"/></g>
<g><path style="opacity:0.993" fill="#2a3274" d="M 234.5,418.5 C 240.265,430.049 249.598,434.716 262.5,432.5C 263.806,432.879 265.139,433.212 266.5,433.5C 268.389,431.568 270.389,429.735 272.5,428C 274.81,427.503 277.143,427.337 279.5,427.5C 279.703,429.638 280.703,431.305 282.5,432.5C 281.509,433.665 280.509,434.832 279.5,436C 279.743,436.902 280.077,437.735 280.5,438.5C 273.813,445.421 265.48,448.754 255.5,448.5C 242.05,448.1 231.05,442.267 222.5,431C 222.833,430.667 223.167,430.333 223.5,430C 222.361,428.22 221.361,426.386 220.5,424.5C 222.124,424.36 223.29,425.027 224,426.5C 227.372,424.986 230.372,422.986 233,420.5C 233.333,421.167 233.667,421.833 234,422.5C 234.49,421.207 234.657,419.873 234.5,418.5 Z"/></g>
</svg>
