<svg xmlns="http://www.w3.org/2000/svg" width="24" height="24" viewBox="0 0 24 24" fill="none"><path fill-rule="evenodd" clip-rule="evenodd" d="M4 4.75C4 4.33579 4.33579 4 4.75 4H9.25C9.66421 4 10 4.33579 10 4.75C10 5.16421 9.66421 5.5 9.25 5.5H5.5V9.25C5.5 9.66421 5.16421 10 4.75 10C4.33579 10 4 9.66421 4 9.25V4.75ZM7 7.75C7 7.33579 7.33579 7 7.75 7H11.25C11.6642 7 12 7.33579 12 7.75C12 8.16421 11.6642 8.5 11.25 8.5H9.56066L15.5 14.4393V12.75C15.5 12.3358 15.8358 12 16.25 12C16.6642 12 17 12.3358 17 12.75V16.25C17 16.6642 16.6642 17 16.25 17H12.75C12.3358 17 12 16.6642 12 16.25C12 15.8358 12.3358 15.5 12.75 15.5H14.4393L8.5 9.56066V11.25C8.5 11.6642 8.16421 12 7.75 12C7.33579 12 7 11.6642 7 11.25V7.75ZM19.25 14C19.6642 14 20 14.3358 20 14.75V19.25C20 19.6642 19.6642 20 19.25 20H14.75C14.3358 20 14 19.6642 14 19.25C14 18.8358 14.3358 18.5 14.75 18.5H18.5V14.75C18.5 14.3358 18.8358 14 19.25 14Z" fill="url(#paint0_linear_1787_8104)"/><defs><linearGradient id="paint0_linear_1787_8104" x1="5.46506" y1="12" x2="19.0575" y2="12.0118" gradientUnits="userSpaceOnUse"><stop stop-color="#F4C587"/><stop offset="0.5" stop-color="#D6D3E9"/><stop offset="1" stop-color="#99D2EC"/></linearGradient></defs></svg>