<?xml version="1.0" encoding="utf-8"?>
<!-- Generator: Adobe Illustrator 27.3.1, SVG Export Plug-In . SVG Version: 6.00 Build 0)  -->
<svg version="1.1" id="Layer_1" xmlns="http://www.w3.org/2000/svg" xmlns:xlink="http://www.w3.org/1999/xlink" x="0px" y="0px"
	 viewBox="0 0 100 100" style="enable-background:new 0 0 100 100;" xml:space="preserve">
<style type="text/css">
	.st0{fill:#03D47C;}
</style>
<g>
	<polygon class="st0" points="68.2,35.1 68.2,24.8 33,24.8 33,75 68.2,75 68.2,64.6 46,64.6 46,55 63.8,55 63.8,44.3 46,44.3 
		46,35.1 	"/>
	<path class="st0" d="M79.5,9.5c-8-5.9-18-9.4-28.9-9.4C23.2,0.1,0.8,22.5,0.8,49.9c0,10.9,3.4,20.9,9.4,29.1
		c1.3,1.9,4.2,1.9,5.7,0.4s1.5-3.8,0.4-5.6c-4.6-6.9-7.5-15.1-7.5-23.9c0.1-23,18.8-41.8,41.8-41.8c8.8,0,17,2.7,23.7,7.5
		c1.7,1.1,4,1.1,5.6-0.4C81.6,13.5,81.4,10.8,79.5,9.5z"/>
	<path class="st0" d="M91.5,21.7c-1.3-1.9-4.2-2.1-5.9-0.4c-1.5,1.5-1.5,3.8-0.4,5.6c4.4,6.5,6.9,14.5,6.9,23s-2.7,16.7-7.3,23.4
		c-1.1,1.7-1.1,4,0.4,5.6c1.7,1.7,4.4,1.5,5.7-0.4c5.7-8,9-18,9-28.5C100.4,39.3,97.1,29.8,91.5,21.7z"/>
	<path class="st0" d="M73.8,84.5c-6.6,4.4-14.6,7.1-23.2,7.1c-8.4,0-16.5-2.5-23-6.9c-1.7-1.1-4-1-5.6,0.4c-1.7,1.7-1.5,4.6,0.4,5.9
		c8,5.4,17.8,8.6,28.1,8.6c10.5,0,20.5-3.4,28.5-9c1.9-1.3,2.1-4.2,0.4-5.7C77.9,83.4,75.6,83.4,73.8,84.5z"/>
</g>
</svg>
