<svg xmlns="http://www.w3.org/2000/svg" width="24" height="25" viewBox="0 0 24 25" fill="none">
  <path
    d="M9.82759 21H5.48276C4.11157 21 3 19.9502 3 18.6552V7.51724H18.5172C19.8885 7.51724 21 8.56706 21 9.86207V10.4483M13.8621 7.51724L12.7057 5.22201C12.2707 4.4687 11.4347 4 10.5261 4H5.48276C4.11157 4 3 5.04981 3 6.34483V11.3276M14.1724 21C14.1724 21 15.7241 19.2414 17.5862 19.2414C19.4483 19.2414 21 21 21 21M17.5862 16.3103C18.786 16.3103 19.7586 15.3918 19.7586 14.2586C19.7586 13.1255 18.786 12.2069 17.5862 12.2069C16.3864 12.2069 15.4138 13.1255 15.4138 14.2586C15.4138 15.3918 16.3864 16.3103 17.5862 16.3103Z"
    stroke="#BCBCBC" stroke-width="1.5" stroke-linecap="round" stroke-linejoin="round" />
</svg>