<svg xmlns="http://www.w3.org/2000/svg" width="26" height="26" viewBox="0 0 26 26" fill="none"><path d="M11.2678 1.73328C11.038 1.73328 10.8175 1.82459 10.655 1.98712C10.4924 2.14965 10.4011 2.37009 10.4011 2.59994C10.4011 6.98268 4.33447 10.3999 4.33447 16.4666C4.33447 21.0754 9.3295 24.0551 11.0884 24.248C11.1474 24.2604 11.2075 24.2667 11.2678 24.2666C11.4977 24.2666 11.7181 24.1753 11.8806 24.0128C12.0432 23.8502 12.1345 23.6298 12.1345 23.3999C12.1344 23.2712 12.1057 23.1441 12.0503 23.0278C11.995 22.9116 11.9144 22.8092 11.8146 22.7279V22.7262C11.0259 22.0866 9.53447 20.2311 9.53447 18.5368C9.53447 15.7557 12.1345 14.7333 12.1345 14.7333C10.6516 18.9279 15.5105 19.4348 16.4881 23.5878H16.4898C16.5325 23.7801 16.6394 23.9521 16.793 24.0755C16.9465 24.1989 17.1375 24.2663 17.3345 24.2666C17.517 24.2662 17.6947 24.2081 17.8423 24.1007C17.8579 24.0894 17.8732 24.0775 17.888 24.0652C18.029 23.9736 21.6678 21.567 21.6678 16.4666C21.6678 14.3843 20.6264 10.8077 19.8769 9.22351L19.8752 9.21843L19.8735 9.21505C19.8097 9.05338 19.6988 8.91463 19.5551 8.81683C19.4114 8.71903 19.2416 8.66669 19.0678 8.66661C18.8654 8.6668 18.6694 8.73783 18.5139 8.86738C18.3584 8.99692 18.2531 9.17682 18.2164 9.37585V9.37924C18.2143 9.38871 17.8162 11.1566 16.4678 12.1333C16.4678 8.04986 13.5197 3.83201 11.9652 2.08705C11.9419 2.05546 11.9164 2.02548 11.889 1.99734C11.8084 1.91401 11.7119 1.8477 11.6052 1.80234C11.4985 1.75698 11.3838 1.7335 11.2678 1.73328Z" fill="#FF6726"/></svg>