<svg width="60" height="60" viewBox="0 0 60 60" fill="none" xmlns="http://www.w3.org/2000/svg">
  <path d="M41.1673 41.1668H19.834V19.8335" stroke="url(#paint1_linear_3387_1375)"
    stroke-width="1.3" stroke-linecap="round" stroke-linejoin="round" />
  <path d="M19.834 36.5L30.5007 26.5L34.5007 30.5L40.5007 24.5"
    stroke="url(#paint2_linear_3387_1375)" stroke-width="1.3" stroke-linecap="round"
    stroke-linejoin="round" />
  <mask id="path-4-inside-1_3387_1375" fill="white">
    <path
      d="M0 20C0 8.9543 8.95431 0 20 0H40C51.0457 0 60 8.95431 60 20V40C60 51.0457 51.0457 60 40 60H20C8.9543 60 0 51.0457 0 40V20Z" />
  </mask>
  <defs>
    <linearGradient id="paint0_linear_3387_1375" x1="53.4307" y1="4.59854" x2="3.28467" y2="55.6204"
      gradientUnits="userSpaceOnUse">
      <stop stop-color="#202020" />
      <stop offset="0.696" />
    </linearGradient>
    <linearGradient id="paint1_linear_3387_1375" x1="30.5007" y1="19.8335" x2="30.5007" y2="41.1668"
      gradientUnits="userSpaceOnUse">
      <stop stop-color="#FDC067" />
      <stop offset="0.505208" stop-color="#DAD2E2" />
      <stop offset="1" stop-color="#7CD1ED" />
    </linearGradient>
    <linearGradient id="paint2_linear_3387_1375" x1="30.1673" y1="24.5" x2="30.1673" y2="36.5"
      gradientUnits="userSpaceOnUse">
      <stop stop-color="#FDC067" />
      <stop offset="0.505208" stop-color="#DAD2E2" />
      <stop offset="1" stop-color="#7CD1ED" />
    </linearGradient>
    <linearGradient id="paint3_linear_3387_1375" x1="55.4015" y1="3.94161" x2="39.1971" y2="24.5255"
      gradientUnits="userSpaceOnUse">
      <stop stop-color="white" stop-opacity="0.22" />
      <stop offset="1" stop-color="white" stop-opacity="0" />
    </linearGradient>
  </defs>
</svg>