<svg width="148" height="148" viewBox="0 0 148 148" fill="none" xmlns="http://www.w3.org/2000/svg">
  <rect width="148" height="148" rx="20" fill="url(#paint0_linear_4824_6141)"/>
  <path d="M76.994 44V47H97.994V53H76.994V95H88.994V101H58.9942V95H70.994V53H49.9941V47H70.994V44H76.994ZM52.9942 57.0295L61.4794 65.5147C63.651 67.6863 64.9941 70.6862 64.9941 74C64.9941 80.6273 59.6216 86 52.9942 86C46.3667 86 40.9941 80.6273 40.9941 74C40.9941 70.6862 42.3373 67.6863 44.5089 65.5147L52.9942 57.0295ZM94.994 57.0295L103.479 65.5147C105.651 67.6863 106.994 70.6862 106.994 74C106.994 80.6273 101.622 86 94.994 86C88.3667 86 82.994 80.6273 82.994 74C82.994 70.6862 84.3374 67.6863 86.5088 65.5147L94.994 57.0295ZM94.994 65.5147L90.7514 69.7574C89.6297 70.8791 88.994 72.3818 88.994 74L100.994 74.003C100.994 72.3818 100.359 70.8791 99.2369 69.7574L94.994 65.5147ZM52.9942 65.5147L48.7515 69.7574C47.6296 70.8791 46.9941 72.3818 46.9941 74L58.9942 74.003C58.9942 72.3818 58.3586 70.8791 57.2368 69.7574L52.9942 65.5147Z" fill="black"/>
  <defs>
  <linearGradient id="paint0_linear_4824_6141" x1="138.348" y1="144.036" x2="115.682" y2="-14.2605" gradientUnits="userSpaceOnUse">
  <stop stop-color="#D8D3FF"/>
  <stop offset="1" stop-color="#BAB2F5"/>
  </linearGradient>
  </defs>
  </svg>
  