<svg xmlns="http://www.w3.org/2000/svg" width="24" height="25" viewBox="0 0 24 25" fill="none">
  <path
    d="M16.001 12.4998H17.401C17.5601 12.4998 17.7127 12.563 17.8252 12.6755C17.9378 12.788 18.001 12.9406 18.001 13.0998V19.8998C18.001 20.0589 17.9378 20.2115 17.8252 20.324C17.7127 20.4365 17.5601 20.4998 17.401 20.4998H6.60098C6.44185 20.4998 6.28923 20.4365 6.17671 20.324C6.06419 20.2115 6.00098 20.0589 6.00098 19.8998V13.0998C6.00098 12.9406 6.06419 12.788 6.17671 12.6755C6.28923 12.563 6.44185 12.4998 6.60098 12.4998H8.00098M16.001 12.4998V8.49976C16.001 7.16676 15.201 4.49976 12.001 4.49976C8.80098 4.49976 8.00098 7.16676 8.00098 8.49976V12.4998M16.001 12.4998H8.00098"
    stroke="#BCBCBC" stroke-width="1.5" stroke-linecap="round" stroke-linejoin="round" />
</svg>