<svg xmlns="http://www.w3.org/2000/svg" width="30" height="30" viewBox="0 0 30 30" fill="none"><path d="M8.75 19.0625C9.61294 19.0625 10.3125 18.3629 10.3125 17.5C10.3125 16.6371 9.61294 15.9375 8.75 15.9375C7.88706 15.9375 7.1875 16.6371 7.1875 17.5C7.1875 18.3629 7.88706 19.0625 8.75 19.0625Z" stroke="#83D2ED" stroke-width="1.5" stroke-linecap="round" stroke-linejoin="round"/><path d="M15 19.0625C15.8629 19.0625 16.5625 18.3629 16.5625 17.5C16.5625 16.6371 15.8629 15.9375 15 15.9375C14.1371 15.9375 13.4375 16.6371 13.4375 17.5C13.4375 18.3629 14.1371 19.0625 15 19.0625Z" stroke="#83D2ED" stroke-width="1.5" stroke-linecap="round" stroke-linejoin="round"/><path d="M11.25 14.0625C12.1129 14.0625 12.8125 13.3629 12.8125 12.5C12.8125 11.6371 12.1129 10.9375 11.25 10.9375C10.3871 10.9375 9.6875 11.6371 9.6875 12.5C9.6875 13.3629 10.3871 14.0625 11.25 14.0625Z" stroke="#83D2ED" stroke-width="1.5" stroke-linecap="round" stroke-linejoin="round"/><path d="M18.75 14.0625C19.6129 14.0625 20.3125 13.3629 20.3125 12.5C20.3125 11.6371 19.6129 10.9375 18.75 10.9375C17.8871 10.9375 17.1875 11.6371 17.1875 12.5C17.1875 13.3629 17.8871 14.0625 18.75 14.0625Z" stroke="#83D2ED" stroke-width="1.5" stroke-linecap="round" stroke-linejoin="round"/><path d="M15 9.0625C15.8629 9.0625 16.5625 8.36294 16.5625 7.5C16.5625 6.63706 15.8629 5.9375 15 5.9375C14.1371 5.9375 13.4375 6.63706 13.4375 7.5C13.4375 8.36294 14.1371 9.0625 15 9.0625Z" stroke="#83D2ED" stroke-width="1.5" stroke-linecap="round" stroke-linejoin="round"/><path d="M21.25 19.0625C22.1129 19.0625 22.8125 18.3629 22.8125 17.5C22.8125 16.6371 22.1129 15.9375 21.25 15.9375C20.3871 15.9375 19.6875 16.6371 19.6875 17.5C19.6875 18.3629 20.3871 19.0625 21.25 19.0625Z" stroke="#83D2ED" stroke-width="1.5" stroke-linecap="round" stroke-linejoin="round"/><path d="M11.875 24.0625C11.875 24.0625 11.5625 20.9375 8.75 20.9375C5.93749 20.9375 5.9375 24.0625 5.9375 24.0625" stroke="#83D2ED" stroke-width="1.5" stroke-linecap="round" stroke-linejoin="round"/><path d="M18.125 24.0625C18.125 24.0625 17.8125 20.9375 15 20.9375C12.1875 20.9375 11.875 24.0625 11.875 24.0625" stroke="#83D2ED" stroke-width="1.5" stroke-linecap="round" stroke-linejoin="round"/><path d="M24.0625 24.0625C24.0625 24.0625 24.0625 20.9375 21.25 20.9375C18.4375 20.9375 18.125 24.0625 18.125 24.0625" stroke="#83D2ED" stroke-width="1.5" stroke-linecap="round" stroke-linejoin="round"/></svg>