<?xml version="1.0" encoding="UTF-8"?>
<svg id="logosandtypes_com" data-name="logosandtypes com" xmlns="http://www.w3.org/2000/svg" viewBox="0 0 150 150">
  <defs>
    <style>
      .cls-1 {
        fill: #014847;
      }

      .cls-2 {
        fill: none;
      }

      .cls-3 {
        fill: #05bdba;
      }
    </style>
  </defs>
  <path class="cls-2" d="M0,0H150V150H0V0Z"/>
  <path class="cls-3" d="M43.91,116.64h-1.34l-6.67-6.67v-1.34l10.19-10.19h7.06l.94,.94v7.06l-10.19,10.19Z"/>
  <path class="cls-3" d="M35.9,41.22v-1.34l6.67-6.67h1.34l10.19,10.19v7.06l-.94,.94h-7.06l-10.19-10.19Z"/>
  <path class="cls-1" d="M94.6,95.14h-9.7l-.81-.81v-22.71c0-4.04-1.59-7.17-6.46-7.28-2.51-.07-5.38,0-8.44,.12l-.46,.47v29.39l-.81,.81h-9.7l-.81-.81V55.53l.81-.81h21.83c8.48,0,15.36,6.88,15.36,15.36v24.25l-.81,.81Z"/>
  <path class="cls-3" d="M45.29,80.6H6.49l-.81-.81v-9.72l.81-.81H45.29l.81,.81v9.72l-.81,.81Z"/>
  <path class="cls-3" d="M146.34,80.6h-38.8l-.81-.81v-9.72l.81-.81h38.8l.81,.81v9.72l-.81,.81Z"/>
  <path class="cls-3" d="M70.82,42.6V13.5l.81-.81h9.72l.81,.81v29.1l-.81,.81h-9.72l-.81-.81Z"/>
  <path class="cls-3" d="M70.82,136.36v-29.1l.81-.81h9.72l.81,.81v29.1l-.81,.81h-9.72l-.81-.81Z"/>
</svg>