<svg xmlns="http://www.w3.org/2000/svg" width="42" height="42" viewBox="0 0 42 42" fill="none"><g clip-path="url(#clip0_2645_9434)"><path d="M19.627 0.0327762C19.5368 0.0409786 19.2497 0.0696867 18.9913 0.0901925C13.0323 0.627445 7.45064 3.84276 3.91544 8.78466C1.94688 11.5324 0.687826 14.6493 0.212091 17.9508C0.0439433 19.1032 0.0234375 19.4436 0.0234375 21.0061C0.0234375 22.5687 0.0439433 22.9091 0.212091 24.0615C1.35221 31.9398 6.9585 38.5591 14.5621 41.0116C15.9236 41.4504 17.359 41.7498 18.9913 41.9302C19.627 42 22.3748 42 23.0105 41.9302C25.8279 41.6186 28.2148 40.9214 30.5689 39.7197C30.9298 39.5352 30.9995 39.486 30.9503 39.4449C30.9175 39.4203 29.3796 37.3575 27.534 34.8639L24.1793 30.3322L19.9756 24.1107C17.6625 20.6903 15.7596 17.8933 15.7432 17.8933C15.7268 17.8892 15.7104 20.6534 15.7022 24.0287C15.6899 29.9384 15.6858 30.1763 15.612 30.3158C15.5053 30.5167 15.4233 30.5987 15.2511 30.689C15.1198 30.7546 15.005 30.7669 14.3857 30.7669H13.6762L13.4876 30.6479C13.3645 30.57 13.2743 30.4675 13.2128 30.3486L13.1266 30.164L13.1349 21.9412L13.1472 13.7143L13.2743 13.5543C13.3399 13.4682 13.4794 13.3574 13.5778 13.3041C13.7459 13.2221 13.8115 13.2139 14.521 13.2139C15.3577 13.2139 15.4971 13.2467 15.7145 13.4846C15.776 13.5502 18.0521 16.9788 20.7753 21.1086C23.4985 25.2385 27.2223 30.8776 29.0515 33.6459L32.3734 38.678L32.5416 38.5673C34.0303 37.5994 35.6051 36.2214 36.8519 34.786C39.5053 31.7389 41.2155 28.0232 41.7897 24.0615C41.9578 22.9091 41.9783 22.5687 41.9783 21.0061C41.9783 19.4436 41.9578 19.1032 41.7897 17.9508C40.6496 10.0724 35.0433 3.45315 27.4397 1.00065C26.0986 0.565927 24.6714 0.266542 23.072 0.0860913C22.6783 0.0450797 19.9674 -3.30508e-05 19.627 0.0327762ZM28.2148 12.7218C28.4117 12.8202 28.5716 13.0089 28.629 13.2057C28.6619 13.3123 28.6701 15.5926 28.6619 20.7313L28.6495 28.1052L27.3495 26.1121L26.0453 24.1189V18.7587C26.0453 15.2932 26.0617 13.3451 26.0863 13.2508C26.1519 13.0212 26.2955 12.8407 26.4923 12.7341C26.6605 12.6479 26.722 12.6397 27.3659 12.6397C27.9729 12.6397 28.0795 12.6479 28.2148 12.7218Z" fill="white"/><path d="M32.1684 38.7683C32.0249 38.8585 31.9798 38.92 32.1069 38.8503C32.1971 38.797 32.3448 38.6862 32.3202 38.6821C32.3079 38.6821 32.2381 38.7231 32.1684 38.7683ZM31.8854 38.9528C31.8116 39.0102 31.8116 39.0143 31.9019 38.9692C31.9511 38.9446 31.9921 38.9159 31.9921 38.9077C31.9921 38.8749 31.9716 38.8831 31.8854 38.9528ZM31.6804 39.0758C31.6066 39.1333 31.6066 39.1374 31.6968 39.0922C31.746 39.0676 31.787 39.0389 31.787 39.0307C31.787 38.9979 31.7665 39.0061 31.6804 39.0758ZM31.4753 39.1989C31.4015 39.2563 31.4015 39.2604 31.4917 39.2153C31.541 39.1907 31.582 39.162 31.582 39.1538C31.582 39.121 31.5615 39.1292 31.4753 39.1989ZM31.1636 39.3629C31.0078 39.4449 31.016 39.4778 31.1718 39.3998C31.2416 39.3629 31.2949 39.326 31.2949 39.3178C31.2949 39.2891 31.2908 39.2932 31.1636 39.3629Z" fill="white"/></g><defs><clipPath id="clip0_2645_9434"><rect width="42" height="42" fill="white"/></clipPath></defs></svg>