<svg xmlns="http://www.w3.org/2000/svg" width="55" height="56" viewBox="0 0 55 56" fill="none"><rect x="0.611111" y="1.11111" width="53.7778" height="53.7778" rx="14.0556" fill="#D9D9D9" fill-opacity="0.03" stroke="url(#paint0_linear_2680_979)" stroke-width="1.22222"/><path d="M39.6907 17.3263C39.6907 18.4281 39.242 19.4316 38.5283 20.1497C36.7965 21.9018 36.7965 24.7323 38.5214 26.468C39.242 27.1885 39.6837 28.1897 39.6837 29.2914C39.6837 31.495 37.9053 33.2845 35.7155 33.2845C34.0674 33.2845 32.6447 32.2669 32.0519 30.8213C29.8388 25.5884 25.0129 21.9463 19.3942 21.2889C17.4253 21.0597 15.8887 19.3755 15.8887 17.3263C15.8887 15.1228 17.667 13.3333 19.8568 13.3333C21.5073 13.3333 22.9277 14.3508 23.5205 15.7965C25.429 20.3182 29.2902 23.6469 33.9279 24.9007C34.5276 23.31 34.1929 21.434 32.9167 20.1497C32.196 19.4293 31.7543 18.4281 31.7543 17.3263C31.7543 15.1228 33.5327 13.3333 35.7225 13.3333C37.9123 13.3333 39.6907 15.1228 39.6907 17.3263Z" fill="url(#paint1_linear_2680_979)"/><path d="M23.5228 25.7803C25.7335 31.0132 30.5688 34.653 36.1874 35.3197L36.1851 35.322C38.1541 35.5512 39.6907 37.2355 39.6907 39.2846C39.6907 41.4882 37.9123 43.2777 35.7225 43.2777C34.0743 43.2777 32.6517 42.2601 32.0589 40.8145C30.1503 36.2928 26.2891 32.9641 21.6515 31.7102C21.0517 33.3009 21.3864 35.177 22.6627 36.4612C23.3833 37.1817 23.825 38.1829 23.825 39.2846C23.825 41.4882 22.0466 43.2777 19.8568 43.2777C17.667 43.2777 15.8887 41.4882 15.8887 39.2846C15.8887 38.1829 16.3373 37.1793 17.051 36.4612C18.7852 34.7161 18.7852 31.8787 17.051 30.1336C16.3304 29.4131 15.8887 28.4119 15.8887 27.3102C15.8887 25.1066 17.667 23.3171 19.8592 23.3171C21.5073 23.3171 22.93 24.3347 23.5228 25.7803Z" fill="url(#paint2_linear_2680_979)"/><defs><linearGradient id="paint0_linear_2680_979" x1="50.7847" y1="4.11314" x2="35.9307" y2="22.9818" gradientUnits="userSpaceOnUse"><stop stop-color="white" stop-opacity="0.22"/><stop offset="1" stop-color="white" stop-opacity="0"/></linearGradient><linearGradient id="paint1_linear_2680_979" x1="22.1722" y1="10.8747" x2="39.5736" y2="30.6081" gradientUnits="userSpaceOnUse"><stop stop-color="#FDC066"/><stop offset="0.51" stop-color="#D8D3E9"/><stop offset="1" stop-color="#7BD1ED"/></linearGradient><linearGradient id="paint2_linear_2680_979" x1="22.1722" y1="10.8747" x2="39.5736" y2="30.6081" gradientUnits="userSpaceOnUse"><stop stop-color="#FDC066"/><stop offset="0.51" stop-color="#D8D3E9"/><stop offset="1" stop-color="#7BD1ED"/></linearGradient></defs></svg>