<svg xmlns="http://www.w3.org/2000/svg" width="13" height="16" viewBox="0 0 13 16" fill="none"><path d="M10.6749 11.689C7.72011 11.3383 5.1773 9.42389 4.0147 6.67155C3.70296 5.91119 2.95479 5.37598 2.08804 5.37598C0.935215 5.37598 0 6.31721 0 7.47621C0 8.05572 0.232276 8.58232 0.611252 8.96127C1.52324 9.87912 1.52324 11.3716 0.611252 12.2894C0.235943 12.6671 0 13.195 0 13.7745C0 14.9335 0.935215 15.8747 2.08681 15.8747C3.23841 15.8747 4.17363 14.9335 4.17363 13.7745C4.17363 13.195 3.94135 12.6684 3.56238 12.2894C2.89122 11.6139 2.71518 10.6272 3.03059 9.79054C5.46948 10.45 7.50006 12.2008 8.50374 14.5791C8.81547 15.3395 9.56365 15.8747 10.4304 15.8747C11.582 15.8747 12.5172 14.9335 12.5172 13.7745C12.5172 12.6967 11.7091 11.8108 10.6737 11.6902L10.6749 11.689Z" fill="url(#paint0_linear_1790_5)"/><path d="M11.906 3.71005C12.2813 3.33233 12.5172 2.8045 12.5172 2.22499C12.5172 1.06599 11.582 0.124756 10.4304 0.124756C9.2788 0.124756 8.34359 1.06599 8.34359 2.22499C8.34359 2.8045 8.57586 3.3311 8.95484 3.71005C9.62599 4.38552 9.80203 5.37228 9.48663 6.20893C7.04773 5.54945 5.01716 3.79864 4.01348 1.42033C3.70174 0.659966 2.95479 0.124756 2.08681 0.124756C0.935215 0.124756 0 1.06599 0 2.22499C0 3.3028 0.808075 4.18866 1.84354 4.30924C4.79833 4.65497 7.33624 6.57066 8.50007 9.32299C8.81181 10.0834 9.55998 10.6186 10.4267 10.6186C11.5783 10.6186 12.5135 9.67733 12.5135 8.51833C12.5135 7.93882 12.2813 7.41223 11.9023 7.03327C10.9952 6.12034 10.9952 4.63159 11.906 3.71005Z" fill="url(#paint1_linear_1790_5)"/><defs><linearGradient id="paint0_linear_1790_5" x1="0.201713" y1="6.8192" x2="9.35823" y2="17.1982" gradientUnits="userSpaceOnUse"><stop stop-color="#FDC066"/><stop offset="0.51" stop-color="#D8D3E9"/><stop offset="1" stop-color="#7BD1ED"/></linearGradient><linearGradient id="paint1_linear_1790_5" x1="3.30443" y1="-1.16836" x2="12.4573" y2="9.20944" gradientUnits="userSpaceOnUse"><stop stop-color="#FDC066"/><stop offset="0.51" stop-color="#D8D3E9"/><stop offset="1" stop-color="#7BD1ED"/></linearGradient></defs></svg>