<svg width="32" height="32" viewBox="0 0 32 32" fill="none" xmlns="http://www.w3.org/2000/svg">
<path d="M2.66699 24V27.3333C2.66699 28.8061 3.8609 30 5.33366 30H8.66699" stroke="url(#paint0_linear_3392_1521)" stroke-width="1.33333" stroke-linejoin="round"/>
<path d="M30.001 24V27.3333C30.001 28.8061 28.8071 30 27.3343 30H24.001" stroke="url(#paint1_linear_3392_1521)" stroke-width="1.33333" stroke-linejoin="round"/>
<path d="M30.001 8.66675V5.33341C30.001 3.86065 28.8071 2.66675 27.3343 2.66675H24.001" stroke="url(#paint2_linear_3392_1521)" stroke-width="1.33333" stroke-linejoin="round"/>
<path d="M12.8889 18H10.1111C9.49745 18 9 17.7015 9 17.3333V15.6667C9 15.2985 9.49745 15 10.1111 15H12.8889C13.5026 15 14 15.2985 14 15.6667V17.3333C14 17.7015 13.5026 18 12.8889 18Z" stroke="url(#paint3_linear_3392_1521)" stroke-width="1.33333" stroke-linejoin="round"/>
<path d="M11.5 13C12.3284 13 13 12.3284 13 11.5C13 10.6716 12.3284 10 11.5 10C10.6716 10 10 10.6716 10 11.5C10 12.3284 10.6716 13 11.5 13Z" stroke="url(#paint4_linear_3392_1521)" stroke-width="1.33333" stroke-linejoin="round"/>
<path d="M16.75 9.75H23.25" stroke="url(#paint5_linear_3392_1521)" stroke-width="1.33333" stroke-linejoin="round"/>
<path d="M16.75 14.25H23.25" stroke="url(#paint6_linear_3392_1521)" stroke-width="1.33333" stroke-linejoin="round"/>
<path d="M17 18L23 18" stroke="url(#paint7_linear_3392_1521)" stroke-width="1.33333" stroke-linejoin="round"/>
<path d="M8.75 22.25H23.25" stroke="url(#paint8_linear_3392_1521)" stroke-width="1.33333" stroke-linejoin="round"/>
<path d="M2.66699 8.66675V5.33341C2.66699 3.86065 3.8609 2.66675 5.33366 2.66675H8.66699" stroke="url(#paint9_linear_3392_1521)" stroke-width="1.33333" stroke-linejoin="round"/>
<defs>
<linearGradient id="paint0_linear_3392_1521" x1="3.21639" y1="27" x2="8.31354" y2="27.0044" gradientUnits="userSpaceOnUse">
<stop stop-color="#F4C587"/>
<stop offset="0.5" stop-color="#D6D3E9"/>
<stop offset="1" stop-color="#99D2EC"/>
</linearGradient>
<linearGradient id="paint1_linear_3392_1521" x1="24.5504" y1="27" x2="29.6475" y2="27.0044" gradientUnits="userSpaceOnUse">
<stop stop-color="#F4C587"/>
<stop offset="0.5" stop-color="#D6D3E9"/>
<stop offset="1" stop-color="#99D2EC"/>
</linearGradient>
<linearGradient id="paint2_linear_3392_1521" x1="24.5504" y1="5.66675" x2="29.6475" y2="5.67118" gradientUnits="userSpaceOnUse">
<stop stop-color="#F4C587"/>
<stop offset="0.5" stop-color="#D6D3E9"/>
<stop offset="1" stop-color="#99D2EC"/>
</linearGradient>
<linearGradient id="paint3_linear_3392_1521" x1="9.45783" y1="16.5" x2="13.7055" y2="16.5062" gradientUnits="userSpaceOnUse">
<stop stop-color="#F4C587"/>
<stop offset="0.5" stop-color="#D6D3E9"/>
<stop offset="1" stop-color="#99D2EC"/>
</linearGradient>
<linearGradient id="paint4_linear_3392_1521" x1="10.2747" y1="11.5" x2="12.8233" y2="11.5022" gradientUnits="userSpaceOnUse">
<stop stop-color="#F4C587"/>
<stop offset="0.5" stop-color="#D6D3E9"/>
<stop offset="1" stop-color="#99D2EC"/>
</linearGradient>
<linearGradient id="paint5_linear_3392_1521" x1="17.3452" y1="10.25" x2="22.8669" y2="10.2812" gradientUnits="userSpaceOnUse">
<stop stop-color="#F4C587"/>
<stop offset="0.5" stop-color="#D6D3E9"/>
<stop offset="1" stop-color="#99D2EC"/>
</linearGradient>
<linearGradient id="paint6_linear_3392_1521" x1="17.3452" y1="14.75" x2="22.8669" y2="14.7812" gradientUnits="userSpaceOnUse">
<stop stop-color="#F4C587"/>
<stop offset="0.5" stop-color="#D6D3E9"/>
<stop offset="1" stop-color="#99D2EC"/>
</linearGradient>
<linearGradient id="paint7_linear_3392_1521" x1="17.5494" y1="18.5" x2="22.6464" y2="18.5266" gradientUnits="userSpaceOnUse">
<stop stop-color="#F4C587"/>
<stop offset="0.5" stop-color="#D6D3E9"/>
<stop offset="1" stop-color="#99D2EC"/>
</linearGradient>
<linearGradient id="paint8_linear_3392_1521" x1="10.0777" y1="22.75" x2="22.3939" y2="22.9052" gradientUnits="userSpaceOnUse">
<stop stop-color="#F4C587"/>
<stop offset="0.5" stop-color="#D6D3E9"/>
<stop offset="1" stop-color="#99D2EC"/>
</linearGradient>
<linearGradient id="paint9_linear_3392_1521" x1="3.21639" y1="5.66675" x2="8.31354" y2="5.67118" gradientUnits="userSpaceOnUse">
<stop stop-color="#F4C587"/>
<stop offset="0.5" stop-color="#D6D3E9"/>
<stop offset="1" stop-color="#99D2EC"/>
</linearGradient>
</defs>
</svg>
