<svg xmlns="http://www.w3.org/2000/svg" width="40" height="40" viewBox="0 0 40 40" fill="none"><path d="M7.7095 25.6667H17.625C18.3777 25.6667 18.9699 25.0423 18.8199 24.3047C18.4059 22.2683 17.0535 18.6667 12.6673 18.6667C8.28101 18.6667 6.92866 22.2683 6.51458 24.3047C6.36459 25.0423 6.95683 25.6667 7.7095 25.6667Z" stroke="url(#paint0_linear_1686_28903)" stroke-width="2" stroke-linecap="round" stroke-linejoin="round"/><path d="M21 18.6667C23.7717 18.6667 24.9069 21.5306 25.3652 23.5947C25.6127 24.7094 24.7111 25.6667 23.5692 25.6667H22.3333" stroke="url(#paint1_linear_1686_28903)" stroke-width="2" stroke-linecap="round" stroke-linejoin="round"/><path d="M12.6667 13.6666C14.6917 13.6666 16.3333 12.025 16.3333 9.99992C16.3333 7.97487 14.6917 6.33325 12.6667 6.33325C10.6416 6.33325 9 7.97487 9 9.99992C9 12.025 10.6416 13.6666 12.6667 13.6666Z" stroke="url(#paint2_linear_1686_28903)" stroke-width="2" stroke-linecap="round" stroke-linejoin="round"/><path d="M19.667 13.6666C21.6921 13.6666 23.0003 12.025 23.0003 9.99992C23.0003 7.97488 21.6921 6.33325 19.667 6.33325" stroke="url(#paint3_linear_1686_28903)" stroke-width="2" stroke-linecap="round" stroke-linejoin="round"/><defs><linearGradient id="paint0_linear_1686_28903" x1="12.6673" y1="18.6667" x2="12.6673" y2="25.6667" gradientUnits="userSpaceOnUse"><stop stop-color="#FDC169"/><stop offset="0.505208" stop-color="#E0D0CF"/><stop offset="1" stop-color="#83D1ED"/></linearGradient><linearGradient id="paint1_linear_1686_28903" x1="23.2032" y1="18.6667" x2="23.2032" y2="25.6667" gradientUnits="userSpaceOnUse"><stop stop-color="#FDC169"/><stop offset="0.505208" stop-color="#E0D0CF"/><stop offset="1" stop-color="#83D1ED"/></linearGradient><linearGradient id="paint2_linear_1686_28903" x1="12.6667" y1="6.33325" x2="12.6667" y2="13.6666" gradientUnits="userSpaceOnUse"><stop stop-color="#FDC169"/><stop offset="0.505208" stop-color="#E0D0CF"/><stop offset="1" stop-color="#83D1ED"/></linearGradient><linearGradient id="paint3_linear_1686_28903" x1="21.3337" y1="6.33325" x2="21.3337" y2="13.6666" gradientUnits="userSpaceOnUse"><stop stop-color="#FDC169"/><stop offset="0.505208" stop-color="#E0D0CF"/><stop offset="1" stop-color="#83D1ED"/></linearGradient></defs></svg>