<svg xmlns="http://www.w3.org/2000/svg" width="24" height="24" viewBox="0 0 24 24" fill="none"><path d="M6.75 19C6.75 19 8 15.75 12 15.75C16 15.75 17.25 19 17.25 19M14.25 10C14.25 10.5967 14.0129 11.169 13.591 11.591C13.169 12.0129 12.5967 12.25 12 12.25C11.4033 12.25 10.831 12.0129 10.409 11.591C9.98705 11.169 9.75 10.5967 9.75 10C9.75 9.40326 9.98705 8.83097 10.409 8.40901C10.831 7.98705 11.4033 7.75 12 7.75C12.5967 7.75 13.169 7.98705 13.591 8.40901C14.0129 8.83097 14.25 9.40326 14.25 10ZM7.75 19.25H16.25C17.0456 19.25 17.8087 18.9339 18.3713 18.3713C18.9339 17.8087 19.25 17.0456 19.25 16.25V7.75C19.25 6.95435 18.9339 6.19129 18.3713 5.62868C17.8087 5.06607 17.0456 4.75 16.25 4.75H7.75C6.95435 4.75 6.19129 5.06607 5.62868 5.62868C5.06607 6.19129 4.75 6.95435 4.75 7.75V16.25C4.75 17.0456 5.06607 17.8087 5.62868 18.3713C6.19129 18.9339 6.95435 19.25 7.75 19.25Z" stroke="url(#paint0_linear_1787_8090)" stroke-width="1.5" stroke-linecap="round" stroke-linejoin="round"/><defs><linearGradient id="paint0_linear_1787_8090" x1="12" y1="4.75" x2="12" y2="19.25" gradientUnits="userSpaceOnUse"><stop stop-color="#F4C587"/><stop offset="0.541667" stop-color="#D0D3EA"/><stop offset="1" stop-color="#A7D3EC"/></linearGradient></defs></svg>