<svg xmlns="http://www.w3.org/2000/svg" width="26" height="26" viewBox="0 0 26 26" fill="none"><path d="M14.744 4.00012C14.4007 4.00012 14.1221 4.27875 14.1221 4.62206V11.2561C14.1221 11.5994 14.4007 11.878 14.744 11.878H21.3781C21.7214 11.878 22 11.5994 22 11.2561C22 7.25536 18.7448 4.00012 14.744 4.00012ZM12.2547 6.48788C7.8849 6.48871 4.40493 10.3725 5.08534 14.8695C5.55304 17.9618 8.03834 20.4471 11.1306 20.9148C15.6277 21.5952 19.5114 18.1152 19.5122 13.7455C19.5122 13.4022 19.2336 13.1219 18.8903 13.1219H13.7075C13.2493 13.1219 12.8782 12.7508 12.8782 12.2927V7.10982C12.8782 6.76651 12.598 6.48788 12.2547 6.48788Z" fill="url(#paint0_linear_884_9898)"/><defs><linearGradient id="paint0_linear_884_9898" x1="13.5" y1="4.00012" x2="13.5" y2="21.0001" gradientUnits="userSpaceOnUse"><stop stop-color="white"/><stop offset="1" stop-color="white" stop-opacity="0.5"/></linearGradient></defs></svg>