<svg xmlns="http://www.w3.org/2000/svg" width="41" height="40" viewBox="0 0 41 40" fill="none"><path d="M30.7503 18.3333C30.7503 25 20.3337 32.0833 20.3337 32.0833C20.3337 32.0833 9.91699 25 9.91699 18.3333C9.91699 12.5 14.8108 7.91667 20.3337 7.91667C25.8565 7.91667 30.7503 12.5 30.7503 18.3333Z" stroke="url(#paint0_linear_996_4307)" stroke-width="1.6" stroke-linecap="round" stroke-linejoin="round"/><path d="M20.334 22.0833C22.4051 22.0833 24.084 20.4044 24.084 18.3333C24.084 16.2623 22.4051 14.5833 20.334 14.5833C18.2629 14.5833 16.584 16.2623 16.584 18.3333C16.584 20.4044 18.2629 22.0833 20.334 22.0833Z" stroke="url(#paint1_linear_996_4307)" stroke-width="1.6" stroke-linecap="round" stroke-linejoin="round"/><defs><linearGradient id="paint0_linear_996_4307" x1="20.3337" y1="7.91667" x2="20.3337" y2="32.0833" gradientUnits="userSpaceOnUse"><stop stop-color="#FDC067"/><stop offset="0.505208" stop-color="#DAD2E2"/><stop offset="1" stop-color="#7CD1ED"/></linearGradient><linearGradient id="paint1_linear_996_4307" x1="20.334" y1="14.5833" x2="20.334" y2="22.0833" gradientUnits="userSpaceOnUse"><stop stop-color="#FDC067"/><stop offset="0.505208" stop-color="#DAD2E2"/><stop offset="1" stop-color="#7CD1ED"/></linearGradient></defs></svg>