<svg xmlns="http://www.w3.org/2000/svg" width="38" height="34" viewBox="0 0 38 34" fill="none"><g clip-path="url(#clip0_2645_9442)"><path d="M19.0002 20.2915C20.8708 20.2915 22.3872 18.7751 22.3872 16.9045C22.3872 15.034 20.8708 13.5176 19.0002 13.5176C17.1297 13.5176 15.6133 15.034 15.6133 16.9045C15.6133 18.7751 17.1297 20.2915 19.0002 20.2915Z" fill="#61DAFB"/><path d="M18.9981 23.8441C29.0353 23.8441 37.172 20.7373 37.172 16.905C37.172 13.0726 29.0353 9.96582 18.9981 9.96582C8.96096 9.96582 0.824219 13.0726 0.824219 16.905C0.824219 20.7373 8.96096 23.8441 18.9981 23.8441Z" stroke="#61DAFB" stroke-width="1.65217"/><path d="M12.9899 20.3745C18.0085 29.0669 24.7674 34.5602 28.0863 32.644C31.4053 30.7278 30.0274 22.1278 25.0088 13.4354C19.9902 4.74291 13.2313 -0.750334 9.91241 1.16585C6.59348 3.08204 7.97132 11.682 12.9899 20.3745Z" stroke="#61DAFB" stroke-width="1.65217"/><path d="M12.9879 13.4357C7.96928 22.1281 6.59144 30.7281 9.91037 32.6443C13.2293 34.5605 19.9882 29.0673 25.0068 20.3748C30.0254 11.6824 31.4032 3.08237 28.0843 1.16618C24.7654 -0.750011 18.0065 4.74323 12.9879 13.4357Z" stroke="#61DAFB" stroke-width="1.65217"/></g><defs><clipPath id="clip0_2645_9442"><rect width="38" height="33.8092" fill="white"/></clipPath></defs></svg>