<svg xmlns="http://www.w3.org/2000/svg" width="24" height="24" viewBox="0 0 24 24" fill="none">
  <path
    d="M10.5587 9.11991C10.5587 9.65007 10.1288 10.0799 9.59867 10.0799C9.06851 10.0799 8.63867 9.65007 8.63867 9.11991C8.63867 8.58975 9.06851 8.15991 9.59867 8.15991C10.1288 8.15991 10.5587 8.58975 10.5587 9.11991Z"
    fill="black" />
  <path
    d="M15.3585 9.11991C15.3585 9.65007 14.9286 10.0799 14.3985 10.0799C13.8683 10.0799 13.4385 9.65007 13.4385 9.11991C13.4385 8.58975 13.8683 8.15991 14.3985 8.15991C14.9286 8.15991 15.3585 8.58975 15.3585 9.11991Z"
    fill="black" />
  <path
    d="M9.71666 13.92H11.0391V15.6H8.15908C7.39526 15.6 6.66276 15.9034 6.12268 16.4435C5.5826 16.9836 5.27916 17.7161 5.27916 18.4799V18.7199C5.27916 19.0628 5.46213 19.3798 5.75916 19.5513C6.0562 19.7228 6.42212 19.7228 6.71916 19.5513C7.0162 19.3798 7.19916 19.0628 7.19916 18.7199V18.4799C7.19916 18.2253 7.30033 17.9811 7.48034 17.8011C7.66042 17.6211 7.90456 17.5199 8.15916 17.5199H15.8392C16.0938 17.5199 16.3379 17.621 16.518 17.8011C16.698 17.9811 16.7992 18.2253 16.7992 18.4799V18.7199C16.7992 19.0628 16.9821 19.3798 17.2792 19.5513C17.5762 19.7228 17.9421 19.7228 18.2392 19.5513C18.5362 19.3798 18.7192 19.0628 18.7192 18.7199V18.4799C18.7192 17.7161 18.4157 16.9836 17.8756 16.4435C17.3355 15.9034 16.603 15.6 15.8392 15.6H12.9592V13.92H14.2817C16.8809 13.92 19.0985 11.9016 19.1993 9.30475C19.2325 8.44155 19.0322 7.58529 18.6194 6.82655C18.2066 6.06765 17.5967 5.43421 16.854 4.99311C16.1112 4.55193 15.2632 4.31943 14.3994 4.32007H9.59936C8.73546 4.31944 7.8874 4.55195 7.14476 4.99311C6.40202 5.43421 5.7921 6.06765 5.3793 6.82655C4.96648 7.58537 4.76618 8.44163 4.79946 9.30475C4.90024 11.9016 7.11786 13.92 9.71706 13.92H9.71666ZM9.59908 6.23995H14.3991C15.428 6.23995 16.3788 6.78885 16.8933 7.67995C17.4077 8.57105 17.4077 9.66885 16.8933 10.56C16.3788 11.4511 15.428 12 14.3991 12H9.59908C8.57018 12 7.6194 11.4511 7.10488 10.56C6.59042 9.66885 6.59042 8.57105 7.10488 7.67995C7.61934 6.78885 8.57012 6.23995 9.59908 6.23995Z"
    fill="black" />
</svg>