<svg xmlns="http://www.w3.org/2000/svg" width="40" height="40" viewBox="10 10 40 40" fill="none"><path fill-rule="evenodd" clip-rule="evenodd" d="M18.9688 19.8442C18.9688 19.361 19.3605 18.9692 19.8438 18.9692H36.1562V26.4067H19.8438C19.3605 26.4067 18.9688 26.015 18.9688 25.5317V19.8442ZM37.6562 26.4067V18.9692H40.1562C40.6395 18.9692 41.0312 19.361 41.0312 19.8442V25.5317C41.0312 26.015 40.6395 26.4067 40.1562 26.4067H37.6562ZM19.8438 17.4692C18.5321 17.4692 17.4688 18.5326 17.4688 19.8442V25.5317C17.4688 26.8434 18.5321 27.9067 19.8438 27.9067H40.1562C41.468 27.9067 42.5312 26.8434 42.5312 25.5317V19.8442C42.5312 18.5326 41.468 17.4692 40.1562 17.4692H19.8438ZM18.9688 34.4692C18.9688 33.986 19.3605 33.5942 19.8438 33.5942H36.1562V41.0317H19.8438C19.3605 41.0317 18.9688 40.64 18.9688 40.1567V34.4692ZM37.6562 41.0317H40.1562C40.6395 41.0317 41.0312 40.64 41.0312 40.1567V34.4692C41.0312 33.986 40.6395 33.5942 40.1562 33.5942H37.6562V41.0317ZM19.8438 32.0942C18.5321 32.0942 17.4688 33.1575 17.4688 34.4692V40.1567C17.4688 41.4684 18.5321 42.5317 19.8438 42.5317H40.1562C41.468 42.5317 42.5312 41.4684 42.5312 40.1567V34.4692C42.5312 33.1575 41.468 32.0942 40.1562 32.0942H19.8438Z" fill="url(#paint1_linear_1119_4568)"/><defs><linearGradient id="paint1_linear_1119_4568" x1="30" y1="17.4692" x2="30" y2="42.5317" gradientUnits="userSpaceOnUse"><stop stop-color="#FDC067"/><stop offset="0.473958" stop-color="#D9D9D9"/><stop offset="1" stop-color="#7CD1ED"/></linearGradient></defs></svg>