<svg xmlns="http://www.w3.org/2000/svg" width="24" height="25" viewBox="0 0 24 25" fill="none">
  <path
    d="M18.001 22.9302C18.7966 22.9302 19.5597 22.6141 20.1223 22.0515C20.6849 21.4889 21.001 20.7258 21.001 19.9302C21.001 19.1345 20.6849 18.3715 20.1223 17.8089C19.5597 17.2462 18.7966 16.9302 18.001 16.9302C17.2053 16.9302 16.4423 17.2462 15.8797 17.8089C15.317 18.3715 15.001 19.1345 15.001 19.9302C15.001 20.7258 15.317 21.4889 15.8797 22.0515C16.4423 22.6141 17.2053 22.9302 18.001 22.9302ZM18.001 8.93018C18.7966 8.93018 19.5597 8.61411 20.1223 8.0515C20.6849 7.48889 21.001 6.72583 21.001 5.93018C21.001 5.13453 20.6849 4.37146 20.1223 3.80886C19.5597 3.24625 18.7966 2.93018 18.001 2.93018C17.2053 2.93018 16.4423 3.24625 15.8797 3.80886C15.317 4.37146 15.001 5.13453 15.001 5.93018C15.001 6.72583 15.317 7.48889 15.8797 8.0515C16.4423 8.61411 17.2053 8.93018 18.001 8.93018ZM6.00098 15.9302C6.79663 15.9302 7.55969 15.6141 8.1223 15.0515C8.68491 14.4889 9.00098 13.7258 9.00098 12.9302C9.00098 12.1345 8.68491 11.3715 8.1223 10.8089C7.55969 10.2462 6.79663 9.93018 6.00098 9.93018C5.20533 9.93018 4.44227 10.2462 3.87966 10.8089C3.31705 11.3715 3.00098 12.1345 3.00098 12.9302C3.00098 13.7258 3.31705 14.4889 3.87966 15.0515C4.44227 15.6141 5.20533 15.9302 6.00098 15.9302Z"
    stroke="#BCBCBC" stroke-width="1.5" stroke-linecap="round" stroke-linejoin="round" />
  <path d="M15.5 7.43005L8.5 11.4301M8.5 14.4301L15.5 18.4301" stroke="#BCBCBC"
    stroke-width="1.18404" stroke-linecap="round" stroke-linejoin="round" />
</svg>