<svg width="148" height="148" viewBox="0 0 148 148" fill="none" xmlns="http://www.w3.org/2000/svg">
  <rect width="148" height="148" rx="20" fill="url(#paint0_linear_4824_6148)"/>
  <path d="M101 50H59C55.6863 50 53 52.6863 53 56C53 59.3137 55.6863 62 59 62H101V101C101 102.657 99.6569 104 98 104H59C52.3726 104 47 98.6273 47 92V56C47 49.3726 52.3726 44 59 44H98C99.6569 44 101 45.3432 101 47V50ZM98 59H59C57.3432 59 56 57.6568 56 56C56 54.3432 57.3432 53 59 53H98V59Z" fill="url(#paint1_linear_4824_6148)"/>
  <defs>
  <linearGradient id="paint0_linear_4824_6148" x1="-2.26865" y1="47.4224" x2="129.338" y2="105.66" gradientUnits="userSpaceOnUse">
  <stop stop-color="#131313"/>
  <stop offset="1" stop-color="#373636"/>
  </linearGradient>
  <linearGradient id="paint1_linear_4824_6148" x1="50.8347" y1="65.5964" x2="86.4124" y2="65.6133" gradientUnits="userSpaceOnUse">
  <stop stop-color="#F4C587"/>
  <stop offset="0.5" stop-color="#D6D3E9"/>
  <stop offset="1" stop-color="#99D2EC"/>
  </linearGradient>
  </defs>
  </svg>
  