<svg width="148" height="148" viewBox="0 0 148 148" fill="none" xmlns="http://www.w3.org/2000/svg">
  <rect width="148" height="148" rx="20" fill="url(#paint0_linear_4824_6150)"/>
  <path d="M74.0147 104.009C57.4461 104.009 44.0146 90.5773 44.0146 74.0086C44.0146 57.4402 57.4461 44.0088 74.0147 44.0088C90.5831 44.0088 104.015 57.4402 104.015 74.0086C104.015 90.5773 90.5831 104.009 74.0147 104.009ZM63.5147 80.0086V86.0086H71.0147V92.0086H77.0147V86.0086H80.0147C84.1568 86.0086 87.5147 82.651 87.5147 78.5086C87.5147 74.3665 84.1568 71.0086 80.0147 71.0086H68.0147C67.1862 71.0086 66.5147 70.3372 66.5147 69.5086C66.5147 68.6803 67.1862 68.0086 68.0147 68.0086H84.5147V62.0088H77.0147V56.0088H71.0147V62.0088H68.0147C63.8725 62.0088 60.5147 65.3666 60.5147 69.5086C60.5147 73.651 63.8725 77.0086 68.0147 77.0086H80.0147C80.843 77.0086 81.5147 77.6803 81.5147 78.5086C81.5147 79.3372 80.843 80.0086 80.0147 80.0086H63.5147Z" fill="black"/>
  <defs>
  <linearGradient id="paint0_linear_4824_6150" x1="0" y1="0" x2="148" y2="-0.000221313" gradientUnits="userSpaceOnUse">
  <stop stop-color="#F4C587"/>
  <stop offset="0.5" stop-color="#D6D3E9"/>
  <stop offset="1" stop-color="#99D2EC"/>
  </linearGradient>
  </defs>
  </svg>
  