<svg xmlns="http://www.w3.org/2000/svg" width="24" height="24" viewBox="0 0 24 24" fill="none"><path d="M4 12C4 14.2055 4.897 16.2055 6.346 17.654L4.929 19.071C3.1195 17.2615 2 14.7615 2 12C2 6.477 6.477 2 12 2C17.523 2 22 6.477 22 12C22 14.7615 20.8805 17.2615 19.071 19.071L17.654 17.654C19.103 16.2055 20 14.2055 20 12C20 7.589 16.411 4 12 4C7.589 4 4 7.589 4 12Z" fill="url(#paint0_linear_1787_8075)"/><path d="M10 12L12 14L16.707 8.70697L15.293 7.29297L10 12Z" fill="url(#paint1_linear_1787_8075)"/><defs><linearGradient id="paint0_linear_1787_8075" x1="3.83132" y1="10.5355" x2="20.8218" y2="10.5528" gradientUnits="userSpaceOnUse"><stop stop-color="#F4C587"/><stop offset="0.5" stop-color="#D6D3E9"/><stop offset="1" stop-color="#99D2EC"/></linearGradient><linearGradient id="paint1_linear_1787_8075" x1="3.83132" y1="10.5355" x2="20.8218" y2="10.5528" gradientUnits="userSpaceOnUse"><stop stop-color="#F4C587"/><stop offset="0.5" stop-color="#D6D3E9"/><stop offset="1" stop-color="#99D2EC"/></linearGradient></defs></svg>