<svg width="148" height="148" viewBox="0 0 148 148" fill="none" xmlns="http://www.w3.org/2000/svg">
  <rect width="148" height="148" rx="20" fill="url(#paint0_linear_4824_6143)"/>
  <path d="M50 69.2V50C50 48.3432 51.3432 47 53 47H68V41H80V47H95C96.6569 47 98 48.3432 98 50V69.2L101.257 70.1771C102.792 70.6376 103.694 72.2234 103.305 73.7783L98.7548 91.9814C98.5046 91.9937 98.2532 92 98 92C93.0932 92 88.7366 89.6441 86 86.0015C83.2634 89.6441 78.9068 92 74 92C69.0932 92 64.7367 89.6441 62 86.0015C59.2633 89.6441 54.9068 92 50 92C49.7469 92 49.4953 91.9937 49.2453 91.9814L44.6946 73.7783C44.3058 72.2234 45.2079 70.6376 46.7429 70.1771L50 69.2ZM56 67.4L74 62L82.2623 64.4787L87.6881 66.1065L92 67.4V53H56V67.4ZM50 98C54.6101 98 58.8155 96.2669 62 93.4166C65.1845 96.2669 69.3899 98 74 98C78.6101 98 82.8155 96.2669 86 93.4166C89.1845 96.2669 93.3899 98 98 98H104V104H98C93.6287 104 89.5301 102.831 86 100.789C82.4699 102.831 78.3713 104 74 104C69.6287 104 65.5301 102.831 62 100.789C58.4699 102.831 54.3714 104 50 104H44V98H50Z" fill="url(#paint1_linear_4824_6143)"/>
  <defs>
  <linearGradient id="paint0_linear_4824_6143" x1="-2.26865" y1="47.4224" x2="129.338" y2="105.66" gradientUnits="userSpaceOnUse">
  <stop stop-color="#131313"/>
  <stop offset="1" stop-color="#373636"/>
  </linearGradient>
  <linearGradient id="paint1_linear_4824_6143" x1="48.2608" y1="63.6762" x2="87.7916" y2="63.6961" gradientUnits="userSpaceOnUse">
  <stop stop-color="#F4C587"/>
  <stop offset="0.5" stop-color="#D6D3E9"/>
  <stop offset="1" stop-color="#99D2EC"/>
  </linearGradient>
  </defs>
  </svg>
  