<svg version="1.1" xmlns="http://www.w3.org/2000/svg" viewBox="0 0 1270.678099891538 1093.372040369753" width="1270.678099891538" height="1093.372040369753">
  <!-- svg-source:excalidraw -->
  
  <defs>
    <style class="style-fonts">
      @font-face {
        font-family: "Virgil";
        src: url("https://excalidraw.com/Virgil.woff2");
      }
      @font-face {
        font-family: "Cascadia";
        src: url("https://excalidraw.com/Cascadia.woff2");
      }
      @font-face {
        font-family: "Assistant";
        src: url("https://app.excalidraw.com//dist/excalidraw-assets/Assistant-Regular.woff2");
      }
    </style>
    
  </defs>
  <g stroke-linecap="round" transform="translate(805.6731208529322 15) rotate(0 151.5 66)"><path d="M32 0 C83.58 -2.17, 138.06 0.39, 271 0 M32 0 C122.69 -0.18, 213.63 -1, 271 0 M271 0 C291.37 0.63, 302.25 11.78, 303 32 M271 0 C293.23 -0.57, 303.28 10.9, 303 32 M303 32 C303.11 51.64, 304.35 69.15, 303 100 M303 32 C302.71 47.18, 303.5 61.11, 303 100 M303 100 C302.58 122.78, 290.39 130.11, 271 132 M303 100 C302.34 120.84, 292.01 134.13, 271 132 M271 132 C217.76 132.18, 164.37 133.28, 32 132 M271 132 C185.21 132.26, 100.79 133.26, 32 132 M32 132 C11.31 132.52, 1.14 121.8, 0 100 M32 132 C10.46 132.85, 1.1 122.65, 0 100 M0 100 C-0.98 75.38, 1.09 53.91, 0 32 M0 100 C-0.14 73.7, -0.7 48.42, 0 32 M0 32 C0.43 11.71, 11.03 -1.48, 32 0 M0 32 C-1.81 11.25, 12.92 0.93, 32 0" stroke="#f08c00" stroke-width="2" fill="none"></path></g><g stroke-linecap="round"><g transform="translate(813.6731208529322 64) rotate(0 152 -1)"><path d="M-1.13 0.56 C49.6 0.52, 253.67 -0.62, 304.71 -1.03 M0.48 -0.19 C51.08 -0.49, 253.4 -2.59, 304.14 -2.65" stroke="#f08c00" stroke-width="2" fill="none"></path></g></g><mask></mask><g transform="translate(900.6731208529322 29) rotate(0 41.015625 12)"><text x="0" y="0" font-family="Cascadia, Segoe UI Emoji" font-size="20px" fill="#f08c00" text-anchor="start" style="white-space: pre;" direction="ltr" dominant-baseline="text-before-edge">tenants</text></g><g stroke-linecap="round"><g transform="translate(955.6731208529322 63) rotate(0 -0.5 42)"><path d="M1.11 0.11 C0.75 13.94, -0.99 70.2, -1.41 83.99 M0.23 -0.88 C-0.38 13.07, -2.13 71.46, -2.58 85.52" stroke="#f08c00" stroke-width="2" fill="none"></path></g></g><mask></mask><g stroke-linecap="round"><g transform="translate(816.1936330454841 104.26218103460496) rotate(0 150 -0.5)"><path d="M-0.41 -0.01 C49.32 -0.39, 249.56 -2.08, 299.54 -2.18 M1.57 -1.06 C51.01 -1.35, 248.88 -0.98, 298.35 -1.27" stroke="#f08c00" stroke-width="2" fill="none"></path></g></g><mask></mask><g transform="translate(981.6731208529322 75) rotate(0 11.71875 12)"><text x="0" y="0" font-family="Cascadia, Segoe UI Emoji" font-size="20px" fill="#f08c00" text-anchor="start" style="white-space: pre;" direction="ltr" dominant-baseline="text-before-edge">id</text></g><g transform="translate(823.6731208529322 75) rotate(0 23.4375 12)"><text x="0" y="0" font-family="Cascadia, Segoe UI Emoji" font-size="20px" fill="#f08c00" text-anchor="start" style="white-space: pre;" direction="ltr" dominant-baseline="text-before-edge">UUID</text></g><g transform="translate(829.6731208529322 114) rotate(0 23.4375 12)"><text x="0" y="0" font-family="Cascadia, Segoe UI Emoji" font-size="20px" fill="#f08c00" text-anchor="start" style="white-space: pre;" direction="ltr" dominant-baseline="text-before-edge">TEXT</text></g><g transform="translate(976.6731208529322 111) rotate(0 23.4375 12)"><text x="0" y="0" font-family="Cascadia, Segoe UI Emoji" font-size="20px" fill="#f08c00" text-anchor="start" style="white-space: pre;" direction="ltr" dominant-baseline="text-before-edge">name</text></g><g stroke-linecap="round" transform="translate(10 10) rotate(0 151.5 87)"><path d="M32 0 C113.19 -0.84, 193.78 -0.34, 271 0 M32 0 C106.77 -2.19, 181.11 -1.37, 271 0 M271 0 C290.85 1.52, 303.09 11.19, 303 32 M271 0 C291.85 1.66, 300.77 8.49, 303 32 M303 32 C304.62 60.27, 304.37 91.54, 303 142 M303 32 C304.05 64.46, 302.35 96.3, 303 142 M303 142 C301.66 161.54, 292.95 174.59, 271 174 M303 142 C303.74 163.93, 293.64 174.54, 271 174 M271 174 C202.45 175.55, 132.56 173.71, 32 174 M271 174 C208.04 175.99, 145.22 175.65, 32 174 M32 174 C10.11 173.17, -1.68 163.71, 0 142 M32 174 C11.16 175.2, 0.42 161.63, 0 142 M0 142 C0.53 118.26, 0.7 93, 0 32 M0 142 C0.55 119.92, -0.25 98.52, 0 32 M0 32 C-0.25 12.64, 10.84 1.11, 32 0 M0 32 C-1.19 8.38, 10.34 1.2, 32 0" stroke="#f08c00" stroke-width="2" fill="none"></path></g><g stroke-linecap="round"><g transform="translate(13 52) rotate(0 152 -1)"><path d="M-0.43 -0.18 C50.2 -0.52, 253.03 -1.71, 303.93 -1.87 M1.55 -1.33 C52 -1.45, 252.41 0.01, 302.95 -0.27" stroke="#f08c00" stroke-width="2" fill="none"></path></g></g><mask></mask><g transform="translate(100.00000000000011 17) rotate(0 29.296875 12)"><text x="0" y="0" font-family="Cascadia, Segoe UI Emoji" font-size="20px" fill="#f08c00" text-anchor="start" style="white-space: pre;" direction="ltr" dominant-baseline="text-before-edge">users</text></g><g stroke-linecap="round"><g transform="translate(155.0000000000001 51) rotate(0 -0.5 64)"><path d="M1 0.87 C0.96 22.01, -0.09 105.74, -0.29 126.95 M0.06 0.29 C-0.07 21.53, -0.76 106.39, -0.86 127.93" stroke="#f08c00" stroke-width="2" fill="none"></path></g></g><mask></mask><g stroke-linecap="round"><g transform="translate(15.520512192551905 92.26218103460496) rotate(0 150 -0.5)"><path d="M0.71 -1.05 C50.68 -1.35, 251.07 -1.03, 300.8 -0.87 M-0.37 1.01 C49.42 0.85, 249.95 1.22, 300.27 0.73" stroke="#f08c00" stroke-width="2" fill="none"></path></g></g><mask></mask><g transform="translate(181.0000000000001 63) rotate(0 11.71875 12)"><text x="0" y="0" font-family="Cascadia, Segoe UI Emoji" font-size="20px" fill="#f08c00" text-anchor="start" style="white-space: pre;" direction="ltr" dominant-baseline="text-before-edge">id</text></g><g transform="translate(23 63) rotate(0 23.4375 12)"><text x="0" y="0" font-family="Cascadia, Segoe UI Emoji" font-size="20px" fill="#f08c00" text-anchor="start" style="white-space: pre;" direction="ltr" dominant-baseline="text-before-edge">UUID</text></g><g transform="translate(29 102) rotate(0 23.4375 12)"><text x="0" y="0" font-family="Cascadia, Segoe UI Emoji" font-size="20px" fill="#f08c00" text-anchor="start" style="white-space: pre;" direction="ltr" dominant-baseline="text-before-edge">TEXT</text></g><g transform="translate(176.0000000000001 99) rotate(0 23.4375 12)"><text x="0" y="0" font-family="Cascadia, Segoe UI Emoji" font-size="20px" fill="#f08c00" text-anchor="start" style="white-space: pre;" direction="ltr" dominant-baseline="text-before-edge">name</text></g><g stroke-linecap="round"><g transform="translate(17.033515253742394 134.22343120045844) rotate(0 150 -0.5)"><path d="M-1.16 -1.14 C48.82 -1.49, 249.49 -1.46, 299.65 -1.26 M0.43 0.88 C50.24 0.63, 248.77 0.57, 298.53 0.15" stroke="#f08c00" stroke-width="2" fill="none"></path></g></g><mask></mask><g transform="translate(37.67312085293236 145) rotate(0 23.4375 12)"><text x="0" y="0" font-family="Cascadia, Segoe UI Emoji" font-size="20px" fill="#f08c00" text-anchor="start" style="white-space: pre;" direction="ltr" dominant-baseline="text-before-edge">TEXT</text></g><g transform="translate(182.67312085293236 145) rotate(0 29.296875 12)"><text x="0" y="0" font-family="Cascadia, Segoe UI Emoji" font-size="20px" fill="#f08c00" text-anchor="start" style="white-space: pre;" direction="ltr" dominant-baseline="text-before-edge">email</text></g><g stroke-linecap="round" transform="translate(351.67312085293236 21) rotate(0 137.99999999999994 109.5)"><path d="M32 0 C94.01 1.34, 153.02 1.78, 244 0 M32 0 C88.64 -0.61, 146.2 -1.85, 244 0 M244 0 C265.95 0.59, 276.64 11.19, 276 32 M244 0 C266.64 0.54, 275.79 11.52, 276 32 M276 32 C277.57 84.4, 276.14 138, 276 187 M276 32 C275.51 89.16, 275.43 145.1, 276 187 M276 187 C274.32 208.71, 265.76 220.05, 244 219 M276 187 C276.42 206.63, 263.53 219.58, 244 219 M244 219 C160.52 219.31, 73.57 219.13, 32 219 M244 219 C200.54 219.69, 157.89 219.92, 32 219 M32 219 C10.84 220.11, -1.03 206.34, 0 187 M32 219 C10.34 220.2, 0.18 207.81, 0 187 M0 187 C-0.03 145.25, -0.38 100.19, 0 32 M0 187 C-2.27 152.03, -0.93 118.86, 0 32 M0 32 C0.1 11.38, 12.19 1.76, 32 0 M0 32 C0.87 11.7, 12.7 1.44, 32 0" stroke="#f08c00" stroke-width="2" fill="none"></path></g><g transform="translate(416.67312085293236 37) rotate(0 70.3125 12)"><text x="0" y="0" font-family="Cascadia, Segoe UI Emoji" font-size="20px" fill="#f08c00" text-anchor="start" style="white-space: pre;" direction="ltr" dominant-baseline="text-before-edge">tenant_users</text></g><g stroke-linecap="round"><g transform="translate(351.56570572667306 68.66131352707748) rotate(0 136.5 0.5)"><path d="M0.22 -0.35 C45.9 -0.05, 228.72 1.35, 274.01 1.68 M-1.12 -1.58 C44.5 -1.62, 227.69 -0.28, 273.59 -0.09" stroke="#f08c00" stroke-width="2" fill="none"></path></g></g><mask></mask><g transform="translate(361.23562085293247 81) rotate(0 23.4375 12)"><text x="0" y="0" font-family="Cascadia, Segoe UI Emoji" font-size="20px" fill="#f08c00" text-anchor="start" style="white-space: pre;" direction="ltr" dominant-baseline="text-before-edge">UUID</text></g><g transform="translate(365.23562085293224 119) rotate(0 23.4375 12)"><text x="0" y="0" font-family="Cascadia, Segoe UI Emoji" font-size="20px" fill="#f08c00" text-anchor="start" style="white-space: pre;" direction="ltr" dominant-baseline="text-before-edge">UUID</text></g><g transform="translate(365.23562085293247 157) rotate(0 23.4375 12)"><text x="0" y="0" font-family="Cascadia, Segoe UI Emoji" font-size="20px" fill="#f08c00" text-anchor="start" style="white-space: pre;" direction="ltr" dominant-baseline="text-before-edge">TEXT</text></g><g transform="translate(366.23562085293224 199) rotate(0 35.15625 12)"><text x="0" y="0" font-family="Cascadia, Segoe UI Emoji" font-size="20px" fill="#f08c00" text-anchor="start" style="white-space: pre;" direction="ltr" dominant-baseline="text-before-edge">TEXT[]</text></g><g stroke-linecap="round"><g transform="translate(457.76481694676454 68.99123567864308) rotate(0 -0.5 87)"><path d="M0.38 0.31 C0.27 29.3, -0.07 145.26, -0.32 174.28 M-0.87 -0.57 C-1.12 28.01, -0.73 143.49, -0.91 172.31" stroke="#f08c00" stroke-width="2" fill="none"></path></g></g><mask></mask><g stroke-linecap="round"><g transform="translate(353.0335152537424 112.22343120045844) rotate(0 138.49999999999994 -1)"><path d="M0.68 0.28 C46.77 -0.03, 230.74 -1.29, 276.89 -1.56 M-0.42 -0.62 C45.47 -1.32, 229.63 -3, 275.88 -3.45" stroke="#f08c00" stroke-width="2" fill="none"></path></g></g><mask></mask><g stroke-linecap="round"><g transform="translate(354.0027969751508 150.6228897211654) rotate(0 138.50000000000006 -1)"><path d="M-0.11 0.44 C46.04 0.18, 231.31 -0.98, 277.57 -1.32 M-1.63 -0.37 C44.35 -1.01, 230.5 -2.52, 276.92 -3.08" stroke="#f08c00" stroke-width="2" fill="none"></path></g></g><mask></mask><g stroke-linecap="round"><g transform="translate(349.1776938337832 190.94235865548262) rotate(0 138.5 -1)"><path d="M0.57 0.68 C46.83 0.35, 231.51 -1.07, 277.43 -1.59 M-0.59 0 C45.56 -0.75, 230.19 -3.27, 276.71 -3.5" stroke="#f08c00" stroke-width="2" fill="none"></path></g></g><mask></mask><g transform="translate(483.67312085293236 81) rotate(0 52.73437499999994 12)"><text x="0" y="0" font-family="Cascadia, Segoe UI Emoji" font-size="20px" fill="#f08c00" text-anchor="start" style="white-space: pre;" direction="ltr" dominant-baseline="text-before-edge">tenant_id</text></g><g transform="translate(480.93874585293236 120) rotate(0 41.015625 12)"><text x="0" y="0" font-family="Cascadia, Segoe UI Emoji" font-size="20px" fill="#f08c00" text-anchor="start" style="white-space: pre;" direction="ltr" dominant-baseline="text-before-edge">user_id</text></g><g transform="translate(484.67312085293236 157) rotate(0 29.296875 12)"><text x="0" y="0" font-family="Cascadia, Segoe UI Emoji" font-size="20px" fill="#f08c00" text-anchor="start" style="white-space: pre;" direction="ltr" dominant-baseline="text-before-edge">email</text></g><g transform="translate(487.67312085293236 200) rotate(0 29.296875 12)"><text x="0" y="0" font-family="Cascadia, Segoe UI Emoji" font-size="20px" fill="#f08c00" text-anchor="start" style="white-space: pre;" direction="ltr" dominant-baseline="text-before-edge">roles</text></g><g stroke-linecap="round" transform="translate(339.2012110952894 287.5540800400079) rotate(0 138 144.5)"><path d="M32 0 C92.39 -0.1, 150.66 -1.09, 244 0 M32 0 C99.74 -1.63, 166.46 -0.75, 244 0 M244 0 C267.29 0.81, 276.61 11.65, 276 32 M244 0 C264.99 -2.28, 275.43 8.43, 276 32 M276 32 C277.31 105.38, 277.74 179.34, 276 257 M276 32 C274.88 112.48, 275.07 191.87, 276 257 M276 257 C275.48 279.8, 264.97 290.11, 244 289 M276 257 C276.78 279.2, 263.1 287.16, 244 289 M244 289 C158.54 288.51, 76.26 287.63, 32 289 M244 289 C173.2 291.03, 102.52 291.19, 32 289 M32 289 C9.1 288.14, 1.81 280.11, 0 257 M32 289 C12.39 287.76, 1.08 279.05, 0 257 M0 257 C-1.47 205.14, -0.19 150.05, 0 32 M0 257 C-0.88 174.26, 0.55 93.37, 0 32 M0 32 C-0.64 11.49, 9.75 -0.66, 32 0 M0 32 C0.53 8.73, 12.63 -2.27, 32 0" stroke="#f08c00" stroke-width="2" fill="none"></path></g><g transform="translate(404.2012110952894 294.5540800400079) rotate(0 52.734375 12)"><text x="0" y="0" font-family="Cascadia, Segoe UI Emoji" font-size="20px" fill="#f08c00" text-anchor="start" style="white-space: pre;" direction="ltr" dominant-baseline="text-before-edge">employees</text></g><g stroke-linecap="round"><g transform="translate(339.09379596903 326.21539356708536) rotate(0 136.5 0.5)"><path d="M-1.01 0.23 C44.59 0.58, 227.55 1.65, 273.26 1.63 M0.66 -0.7 C46.16 -0.66, 227.13 -0.44, 272.44 -0.17" stroke="#f08c00" stroke-width="2" fill="none"></path></g></g><mask></mask><g transform="translate(353.76371109528964 373.5540800400081) rotate(0 23.4375 12)"><text x="0" y="0" font-family="Cascadia, Segoe UI Emoji" font-size="20px" fill="#f08c00" text-anchor="start" style="white-space: pre;" direction="ltr" dominant-baseline="text-before-edge">UUID</text></g><g transform="translate(357.7637110952892 411.5540800400081) rotate(0 23.4375 12)"><text x="0" y="0" font-family="Cascadia, Segoe UI Emoji" font-size="20px" fill="#f08c00" text-anchor="start" style="white-space: pre;" direction="ltr" dominant-baseline="text-before-edge">UUID</text></g><g transform="translate(357.76371109528964 449.5540800400081) rotate(0 23.4375 12)"><text x="0" y="0" font-family="Cascadia, Segoe UI Emoji" font-size="20px" fill="#f08c00" text-anchor="start" style="white-space: pre;" direction="ltr" dominant-baseline="text-before-edge">TEXT</text></g><g transform="translate(351.7637110952892 493.5540800400081) rotate(0 41.015625 12)"><text x="0" y="0" font-family="Cascadia, Segoe UI Emoji" font-size="20px" fill="#f08c00" text-anchor="start" style="white-space: pre;" direction="ltr" dominant-baseline="text-before-edge">INTEGER</text></g><g stroke-linecap="round"><g transform="translate(445.2929071891217 326.5453157186507) rotate(0 -0.5 123.5)"><path d="M0.37 0.59 C-0.02 41.48, -0.9 204.94, -1.18 245.81 M-0.9 -0.15 C-1.57 40.8, -2 205.61, -2.22 246.73" stroke="#f08c00" stroke-width="2" fill="none"></path></g></g><mask></mask><g stroke-linecap="round"><g transform="translate(342.56160549609945 363.7775112404661) rotate(0 138.5 -1)"><path d="M-0.18 -1.19 C45.88 -1.81, 230.45 -3.04, 276.7 -3.17 M-1.73 0.8 C44.11 0.23, 229.18 -2, 275.59 -2.24" stroke="#f08c00" stroke-width="2" fill="none"></path></g></g><mask></mask><g stroke-linecap="round"><g transform="translate(341.5308872175078 408.17696976117304) rotate(0 138.5 -1)"><path d="M-0.3 -1.17 C45.95 -1.3, 231.21 -1.98, 277.33 -1.97 M1.74 0.84 C47.88 1.02, 230.96 0.22, 276.55 -0.42" stroke="#f08c00" stroke-width="2" fill="none"></path></g></g><mask></mask><g stroke-linecap="round"><g transform="translate(342.7057840761404 483.49643869549027) rotate(0 138.5 -1)"><path d="M0.33 0.03 C46.44 0.04, 230.28 -0.98, 276.37 -1.12 M-0.96 -1 C45.57 -1.22, 232.59 -2.52, 278.75 -2.78" stroke="#f08c00" stroke-width="2" fill="none"></path></g></g><mask></mask><g transform="translate(476.2012110952894 373.5540800400081) rotate(0 52.734375 12)"><text x="0" y="0" font-family="Cascadia, Segoe UI Emoji" font-size="20px" fill="#f08c00" text-anchor="start" style="white-space: pre;" direction="ltr" dominant-baseline="text-before-edge">tenant_id</text></g><g transform="translate(473.4668360952894 412.5540800400081) rotate(0 41.015625 12)"><text x="0" y="0" font-family="Cascadia, Segoe UI Emoji" font-size="20px" fill="#f08c00" text-anchor="start" style="white-space: pre;" direction="ltr" dominant-baseline="text-before-edge">user_id</text></g><g transform="translate(477.2012110952894 449.5540800400081) rotate(0 23.4375 12)"><text x="0" y="0" font-family="Cascadia, Segoe UI Emoji" font-size="20px" fill="#f08c00" text-anchor="start" style="white-space: pre;" direction="ltr" dominant-baseline="text-before-edge">name</text></g><g transform="translate(480.2012110952894 492.5540800400081) rotate(0 58.59375 12)"><text x="0" y="0" font-family="Cascadia, Segoe UI Emoji" font-size="20px" fill="#f08c00" text-anchor="start" style="white-space: pre;" direction="ltr" dominant-baseline="text-before-edge">department</text></g><g stroke-linecap="round"><g transform="translate(341.3640808547009 528.8978394830369) rotate(0 138.5 -1)"><path d="M-0.17 0.63 C46.12 0.45, 230.95 -1.98, 277.09 -2.27 M-1.72 -0.09 C44.47 0.02, 229.95 -0.39, 276.2 -0.88" stroke="#f08c00" stroke-width="2" fill="none"></path></g></g><mask></mask><g transform="translate(355.23562085293247 536) rotate(0 41.015625 12)"><text x="0" y="0" font-family="Cascadia, Segoe UI Emoji" font-size="20px" fill="#f08c00" text-anchor="start" style="white-space: pre;" direction="ltr" dominant-baseline="text-before-edge">INTEGER</text></g><g transform="translate(481.67312085293236 535) rotate(0 41.015625 12)"><text x="0" y="0" font-family="Cascadia, Segoe UI Emoji" font-size="20px" fill="#f08c00" text-anchor="start" style="white-space: pre;" direction="ltr" dominant-baseline="text-before-edge">manager</text></g><g stroke-linecap="round"><g transform="translate(338.68481272645295 444.2784267134962) rotate(0 138.5 -1)"><path d="M-0.22 0.67 C46.07 0.26, 231.4 -0.94, 277.41 -1.55 M-1.79 -0.03 C44.4 -0.88, 230.02 -3.08, 276.68 -3.43" stroke="#f08c00" stroke-width="2" fill="none"></path></g></g><mask></mask><g transform="translate(354.67312085293236 334) rotate(0 41.015625 12)"><text x="0" y="0" font-family="Cascadia, Segoe UI Emoji" font-size="20px" fill="#f08c00" text-anchor="start" style="white-space: pre;" direction="ltr" dominant-baseline="text-before-edge">INTEGER</text></g><g transform="translate(477.67312085293236 336) rotate(0 11.71875 12)"><text x="0" y="0" font-family="Cascadia, Segoe UI Emoji" font-size="20px" fill="#f08c00" text-anchor="start" style="white-space: pre;" direction="ltr" dominant-baseline="text-before-edge">id</text></g><g stroke-linecap="round" transform="translate(330.5941840545253 606.5) rotate(0 137.99999999999994 145.5)"><path d="M32 0 C76.27 -3.17, 116.52 -0.81, 244 0 M32 0 C97.79 0.11, 162.58 -0.27, 244 0 M244 0 C267.1 1.25, 274.43 9.81, 276 32 M244 0 C267.41 2.04, 277.73 9.42, 276 32 M276 32 C277.34 110.57, 275.97 190.39, 276 259 M276 32 C274.44 108.45, 273.57 184.66, 276 259 M276 259 C277.33 281.65, 264.69 291.82, 244 291 M276 259 C274.95 279.58, 265.86 289.07, 244 291 M244 291 C161.59 287.99, 79.58 290.33, 32 291 M244 291 C180.86 289.48, 117.44 289.66, 32 291 M32 291 C12.32 290.28, -0.14 278.39, 0 259 M32 291 C9.25 292.63, -0.56 281.11, 0 259 M0 259 C2.04 192.05, 2.95 125.66, 0 32 M0 259 C-1.23 182.62, -1.99 107.01, 0 32 M0 32 C-0.28 10.78, 12.67 -1.51, 32 0 M0 32 C1.12 11.13, 10.4 -0.92, 32 0" stroke="#f08c00" stroke-width="2" fill="none"></path></g><g transform="translate(395.5941840545253 613.5) rotate(0 82.03125 12)"><text x="0" y="0" font-family="Cascadia, Segoe UI Emoji" font-size="20px" fill="#f08c00" text-anchor="start" style="white-space: pre;" direction="ltr" dominant-baseline="text-before-edge">expense_report</text></g><g stroke-linecap="round"><g transform="translate(330.48676892826563 645.1613135270777) rotate(0 136.49999999999994 0.5)"><path d="M0.67 0.09 C46.33 0.5, 227.52 1.1, 273.06 1.43 M-0.44 -0.91 C45.15 -0.78, 226.47 -0.67, 272.15 -0.47" stroke="#f08c00" stroke-width="2" fill="none"></path></g></g><mask></mask><g transform="translate(345.1566840545253 692.5) rotate(0 23.4375 12)"><text x="0" y="0" font-family="Cascadia, Segoe UI Emoji" font-size="20px" fill="#f08c00" text-anchor="start" style="white-space: pre;" direction="ltr" dominant-baseline="text-before-edge">UUID</text></g><g transform="translate(349.1566840545248 730.5) rotate(0 41.015625 12)"><text x="0" y="0" font-family="Cascadia, Segoe UI Emoji" font-size="20px" fill="#f08c00" text-anchor="start" style="white-space: pre;" direction="ltr" dominant-baseline="text-before-edge">INTEGER</text></g><g transform="translate(349.1566840545253 768.5) rotate(0 23.4375 12)"><text x="0" y="0" font-family="Cascadia, Segoe UI Emoji" font-size="20px" fill="#f08c00" text-anchor="start" style="white-space: pre;" direction="ltr" dominant-baseline="text-before-edge">TEXT</text></g><g transform="translate(343.1566840545248 813.9000000000001) rotate(0 42.1875 9.599999999999909)"><text x="0" y="0" font-family="Cascadia, Segoe UI Emoji" font-size="16px" fill="#f08c00" text-anchor="start" style="white-space: pre;" direction="ltr" dominant-baseline="text-before-edge">TIMESTAMP</text></g><g stroke-linecap="round"><g transform="translate(436.68588014835734 645.4912356786431) rotate(0 -0.5 123.5)"><path d="M-0.94 -0.52 C-1.1 40.7, -0.05 206.92, 0.09 248.06 M0.77 1.83 C0.45 42.67, -0.1 205.58, -0.29 246.5" stroke="#f08c00" stroke-width="2" fill="none"></path></g></g><mask></mask><g stroke-linecap="round"><g transform="translate(333.9545784553353 682.723431200458) rotate(0 138.49999999999994 -1)"><path d="M1.09 1.06 C47.56 0.71, 231.82 -2.2, 277.9 -2.65 M0.2 0.58 C46.67 0.41, 231.28 -0.73, 277.43 -1.45" stroke="#f08c00" stroke-width="2" fill="none"></path></g></g><mask></mask><g stroke-linecap="round"><g transform="translate(332.92386017674346 727.1228897211654) rotate(0 138.49999999999994 -1)"><path d="M0.9 -0.65 C46.98 -1.1, 231.68 -1.49, 277.56 -1.63 M-0.08 1.63 C45.79 1.32, 230.45 -2.69, 276.91 -3.55" stroke="#f08c00" stroke-width="2" fill="none"></path></g></g><mask></mask><g stroke-linecap="round"><g transform="translate(334.098757035376 802.4423586554826) rotate(0 138.49999999999994 -1)"><path d="M0.56 0.37 C46.45 0.23, 230.16 -1.01, 276.21 -1.48 M-0.6 -0.48 C45.59 -0.92, 232.41 -3.19, 278.51 -3.33" stroke="#f08c00" stroke-width="2" fill="none"></path></g></g><mask></mask><g transform="translate(467.5941840545253 692.5) rotate(0 52.734375 12)"><text x="0" y="0" font-family="Cascadia, Segoe UI Emoji" font-size="20px" fill="#f08c00" text-anchor="start" style="white-space: pre;" direction="ltr" dominant-baseline="text-before-edge">tenant_id</text></g><g transform="translate(464.8598090545253 731.5) rotate(0 64.45312499999994 12)"><text x="0" y="0" font-family="Cascadia, Segoe UI Emoji" font-size="20px" fill="#f08c00" text-anchor="start" style="white-space: pre;" direction="ltr" dominant-baseline="text-before-edge">employee_id</text></g><g transform="translate(468.5941840545253 768.5) rotate(0 35.15625 12)"><text x="0" y="0" font-family="Cascadia, Segoe UI Emoji" font-size="20px" fill="#f08c00" text-anchor="start" style="white-space: pre;" direction="ltr" dominant-baseline="text-before-edge">status</text></g><g transform="translate(471.5941840545253 811.5) rotate(0 58.59374999999994 12)"><text x="0" y="0" font-family="Cascadia, Segoe UI Emoji" font-size="20px" fill="#f08c00" text-anchor="start" style="white-space: pre;" direction="ltr" dominant-baseline="text-before-edge">created_at</text></g><g stroke-linecap="round"><g transform="translate(332.75705381393675 847.8437594430288) rotate(0 138.49999999999994 -1)"><path d="M0.02 -0.28 C46.15 -0.89, 229.51 -2.74, 275.8 -2.89 M-1.43 -1.47 C45.13 -2.02, 231.41 -1.55, 277.89 -1.83" stroke="#f08c00" stroke-width="2" fill="none"></path></g></g><mask></mask><g stroke-linecap="round"><g transform="translate(330.0777856856886 763.2243466734885) rotate(0 138.49999999999994 -1)"><path d="M-1.2 -0.89 C45.1 -1.05, 231.5 -1.11, 277.8 -1.21 M0.38 1.25 C46.59 0.78, 231.39 -2.11, 277.27 -2.92" stroke="#f08c00" stroke-width="2" fill="none"></path></g></g><mask></mask><g transform="translate(346.0660938121681 652.9459199599919) rotate(0 41.015625 12)"><text x="0" y="0" font-family="Cascadia, Segoe UI Emoji" font-size="20px" fill="#f08c00" text-anchor="start" style="white-space: pre;" direction="ltr" dominant-baseline="text-before-edge">INTEGER</text></g><g transform="translate(469.0660938121681 654.9459199599919) rotate(0 11.71875 12)"><text x="0" y="0" font-family="Cascadia, Segoe UI Emoji" font-size="20px" fill="#f08c00" text-anchor="start" style="white-space: pre;" direction="ltr" dominant-baseline="text-before-edge">id</text></g><g transform="translate(342.48562085293236 856.4000000000001) rotate(0 42.1875 9.599999999999909)"><text x="0" y="0" font-family="Cascadia, Segoe UI Emoji" font-size="16px" fill="#f08c00" text-anchor="start" style="white-space: pre;" direction="ltr" dominant-baseline="text-before-edge">TIMESTAMP</text></g><g transform="translate(470.07937085293236 856) rotate(0 58.59374999999994 12)"><text x="0" y="0" font-family="Cascadia, Segoe UI Emoji" font-size="20px" fill="#f08c00" text-anchor="start" style="white-space: pre;" direction="ltr" dominant-baseline="text-before-edge">updated_at</text></g><g stroke-linecap="round" transform="translate(783.6526171501123 603.5) rotate(0 179 238.5)"><path d="M32 0 C125.45 -2.87, 221.28 -3.35, 326 0 M32 0 C104.23 -0.42, 177.33 -0.31, 326 0 M326 0 C347.77 -0.51, 359.66 9.95, 358 32 M326 0 C347.17 -2.24, 356.58 12.3, 358 32 M358 32 C357.96 145.87, 359.15 260.17, 358 445 M358 32 C360.56 192.02, 360.31 352.37, 358 445 M358 445 C356.86 464.52, 347.06 477.11, 326 477 M358 445 C360.3 464.59, 348.45 477.46, 326 477 M326 477 C239.91 474.25, 156.73 476.45, 32 477 M326 477 C241.9 477.07, 156.84 476.94, 32 477 M32 477 C10.09 476.21, -1.87 468.07, 0 445 M32 477 C12.73 476.34, -2.23 467.52, 0 445 M0 445 C0.3 345.51, 0.62 244.59, 0 32 M0 445 C-0.5 320.18, -0.86 195.43, 0 32 M0 32 C-1.02 11.71, 9.2 0.64, 32 0 M0 32 C0.72 9.98, 10.73 2.26, 32 0" stroke="#f08c00" stroke-width="2" fill="none"></path></g><g transform="translate(848.6526171501123 610.5) rotate(0 117.1875 12)"><text x="0" y="0" font-family="Cascadia, Segoe UI Emoji" font-size="20px" fill="#f08c00" text-anchor="start" style="white-space: pre;" direction="ltr" dominant-baseline="text-before-edge">expense_report_items</text></g><g stroke-linecap="round"><g transform="translate(783.5452020238527 642.1613135270777) rotate(0 180.5 -1.5)"><path d="M-1.2 -0.64 C59.17 -1.06, 301.13 -2.5, 361.4 -3.01 M0.37 1.64 C60.69 1.46, 300.82 -0.74, 360.66 -1.48" stroke="#f08c00" stroke-width="2" fill="none"></path></g></g><mask></mask><g transform="translate(798.2151171501123 689.5) rotate(0 23.4375 12)"><text x="0" y="0" font-family="Cascadia, Segoe UI Emoji" font-size="20px" fill="#f08c00" text-anchor="start" style="white-space: pre;" direction="ltr" dominant-baseline="text-before-edge">UUID</text></g><g transform="translate(802.2151171501118 727.5) rotate(0 23.4375 12)"><text x="0" y="0" font-family="Cascadia, Segoe UI Emoji" font-size="20px" fill="#f08c00" text-anchor="start" style="white-space: pre;" direction="ltr" dominant-baseline="text-before-edge">UUID</text></g><g transform="translate(796.2151171501118 808.5) rotate(0 23.4375 12)"><text x="0" y="0" font-family="Cascadia, Segoe UI Emoji" font-size="20px" fill="#f08c00" text-anchor="start" style="white-space: pre;" direction="ltr" dominant-baseline="text-before-edge">TEXT</text></g><g stroke-linecap="round"><g transform="translate(889.7443132439444 642.4912356786431) rotate(0 1 220)"><path d="M0.26 -0.3 C0.71 73.05, 2.72 366.38, 2.99 439.57 M-1.06 -1.51 C-0.72 72.06, 2.21 367.37, 2.57 440.88" stroke="#f08c00" stroke-width="2" fill="none"></path></g></g><mask></mask><g stroke-linecap="round"><g transform="translate(787.0130115509223 679.723431200458) rotate(0 176 -0.5)"><path d="M0.99 -0.43 C59.6 -0.74, 293.54 -2.21, 351.91 -2.17 M0.06 -1.7 C58.48 -1.88, 291.97 -1.18, 350.92 -1.24" stroke="#f08c00" stroke-width="2" fill="none"></path></g></g><mask></mask><g stroke-linecap="round"><g transform="translate(785.9822932723305 724.1228897211654) rotate(0 178 -1)"><path d="M-0.09 -1.17 C58.96 -1.29, 295.96 -1.08, 355.26 -1.15 M-1.59 0.84 C57.75 0.42, 298.19 -2.06, 357.58 -2.82" stroke="#f08c00" stroke-width="2" fill="none"></path></g></g><mask></mask><g stroke-linecap="round"><g transform="translate(787.157190130963 799.4423586554826) rotate(0 176.5 -2.5)"><path d="M-0.74 0.85 C58.06 0.28, 293.76 -3.47, 352.71 -4.59 M1.07 0.25 C59.7 -0.59, 293.09 -5.62, 351.61 -6.5" stroke="#f08c00" stroke-width="2" fill="none"></path></g></g><mask></mask><g transform="translate(920.6526171501123 689.5) rotate(0 52.734375 12)"><text x="0" y="0" font-family="Cascadia, Segoe UI Emoji" font-size="20px" fill="#f08c00" text-anchor="start" style="white-space: pre;" direction="ltr" dominant-baseline="text-before-edge">tenant_id</text></g><g transform="translate(917.9182421501123 728.5) rotate(0 41.015625 12)"><text x="0" y="0" font-family="Cascadia, Segoe UI Emoji" font-size="20px" fill="#f08c00" text-anchor="start" style="white-space: pre;" direction="ltr" dominant-baseline="text-before-edge">item_id</text></g><g transform="translate(924.6526171501123 808.5) rotate(0 35.15625 12)"><text x="0" y="0" font-family="Cascadia, Segoe UI Emoji" font-size="20px" fill="#f08c00" text-anchor="start" style="white-space: pre;" direction="ltr" dominant-baseline="text-before-edge">vendor</text></g><g stroke-linecap="round"><g transform="translate(785.8154869095238 844.8437594430288) rotate(0 177.5 -1.5)"><path d="M0.37 1.06 C59.74 0.56, 296.88 -1.78, 356.14 -2.6 M-0.89 0.57 C58.42 -0.34, 296.36 -3.91, 355.79 -4.52" stroke="#f08c00" stroke-width="2" fill="none"></path></g></g><mask></mask><g stroke-linecap="round"><g transform="translate(783.1362187812756 760.2243466734885) rotate(0 179.5 -0.5)"><path d="M1.14 0.4 C61.07 -0.1, 300.22 -1.49, 359.93 -1.9 M0.28 -0.44 C60.1 -0.29, 299.71 -0.69, 359.47 -0.84" stroke="#f08c00" stroke-width="2" fill="none"></path></g></g><mask></mask><g transform="translate(799.1245269077549 649.9459199599919) rotate(0 41.015625 12)"><text x="0" y="0" font-family="Cascadia, Segoe UI Emoji" font-size="20px" fill="#f08c00" text-anchor="start" style="white-space: pre;" direction="ltr" dominant-baseline="text-before-edge">INTEGER</text></g><g transform="translate(922.1245269077549 651.9459199599919) rotate(0 99.609375 12)"><text x="0" y="0" font-family="Cascadia, Segoe UI Emoji" font-size="20px" fill="#f08c00" text-anchor="start" style="white-space: pre;" direction="ltr" dominant-baseline="text-before-edge">expense_report_id</text></g><g transform="translate(923.1378039485194 853) rotate(0 35.15625 12)"><text x="0" y="0" font-family="Cascadia, Segoe UI Emoji" font-size="20px" fill="#f08c00" text-anchor="start" style="white-space: pre;" direction="ltr" dominant-baseline="text-before-edge">amount</text></g><g stroke-linecap="round"><g transform="translate(313.67312085293236 70.7645263671875) rotate(0 19.5 0)"><path d="M-0.08 0.03 C6.57 0.04, 32.99 -0.43, 39.55 -0.42 M-0.78 -0.43 C5.87 -0.32, 32.76 -0.13, 39.4 0.07" stroke="#f08c00" stroke-width="2" fill="none"></path></g></g><mask></mask><g stroke-linecap="round"><g transform="translate(801.6731208529322 86.7645263671875) rotate(0 -87 0)"><path d="M1.2 -0.91 C-27.68 -0.88, -144.19 0.17, -173.42 0.24 M0.37 1.23 C-28.6 0.87, -144.83 -1.65, -174.06 -1.76" stroke="#f08c00" stroke-width="2" fill="none"></path></g></g><mask></mask><g stroke-linecap="round"><g transform="translate(472.67312085293236 240.7645263671875) rotate(0 -0.5 23.5)"><path d="M0.27 0.11 C0 7.98, -0.79 39.05, -1.06 46.78 M-0.26 -0.31 C-0.65 7.67, -1.53 39.51, -1.53 47.37" stroke="#f08c00" stroke-width="2" fill="none"></path></g></g><mask></mask><g stroke-linecap="round"><g transform="translate(335.67312085293236 455.7645263671875) rotate(0 -38.5 132)"><path d="M-0.14 -0.48 C-9.54 -0.53, -42.84 -38.7, -55.82 -0.09 C-68.8 38.52, -86.12 187.19, -78.02 231.18 C-69.92 275.17, -18.82 258.4, -7.24 263.86 M-1.67 -1.78 C-10.75 -1.74, -41.21 -38.18, -53.54 0.88 C-65.87 39.94, -83.48 188.58, -75.66 232.59 C-67.84 276.59, -18.1 259.61, -6.6 264.89" stroke="#f08c00" stroke-width="2" fill="none"></path></g></g><mask></mask><g transform="translate(804.2356208529322 766.7645263671875) rotate(0 23.4375 12)"><text x="0" y="0" font-family="Cascadia, Segoe UI Emoji" font-size="20px" fill="#f08c00" text-anchor="start" style="white-space: pre;" direction="ltr" dominant-baseline="text-before-edge">TEXT</text></g><g transform="translate(915.6731208529322 767.7645263671875) rotate(0 46.875 12)"><text x="0" y="0" font-family="Cascadia, Segoe UI Emoji" font-size="20px" fill="#f08c00" text-anchor="start" style="white-space: pre;" direction="ltr" dominant-baseline="text-before-edge">category</text></g><g transform="translate(798.6731208529322 855.7645263671875) rotate(0 41.015625 12)"><text x="0" y="0" font-family="Cascadia, Segoe UI Emoji" font-size="20px" fill="#f08c00" text-anchor="start" style="white-space: pre;" direction="ltr" dominant-baseline="text-before-edge">DECIMAL</text></g><g stroke-linecap="round"><g transform="translate(781.6539412874727 892.7477220721544) rotate(0 177.5 -1.5)"><path d="M-0.54 -0.08 C58.68 -0.5, 296.71 -2.19, 356.07 -2.66 M1.38 -1.16 C60.46 -1.95, 296.72 -4.54, 355.68 -4.6" stroke="#f08c00" stroke-width="2" fill="none"></path></g></g><mask></mask><g transform="translate(803.6731208529322 901.7645263671875) rotate(0 23.4375 12)"><text x="0" y="0" font-family="Cascadia, Segoe UI Emoji" font-size="20px" fill="#f08c00" text-anchor="start" style="white-space: pre;" direction="ltr" dominant-baseline="text-before-edge">TEXT</text></g><g transform="translate(917.6731208529322 897.7645263671875) rotate(0 46.875 12)"><text x="0" y="0" font-family="Cascadia, Segoe UI Emoji" font-size="20px" fill="#f08c00" text-anchor="start" style="white-space: pre;" direction="ltr" dominant-baseline="text-before-edge">currency</text></g><g stroke-linecap="round"><g transform="translate(788.6731208529322 931.7645263671875) rotate(0 177 -2)"><path d="M-0.35 -0.48 C58.37 -0.99, 293.64 -2.31, 352.88 -2.96 M1.67 -1.77 C60.69 -2.61, 296.13 -4.3, 355 -4.54" stroke="#f08c00" stroke-width="2" fill="none"></path></g></g><mask></mask><g transform="translate(796.4856208529322 950.1645263671876) rotate(0 42.1875 9.599999999999909)"><text x="0" y="0" font-family="Cascadia, Segoe UI Emoji" font-size="16px" fill="#f08c00" text-anchor="start" style="white-space: pre;" direction="ltr" dominant-baseline="text-before-edge">TIMESTAMP</text></g><g transform="translate(923.6731208529322 948.7645263671875) rotate(0 70.3125 12)"><text x="0" y="0" font-family="Cascadia, Segoe UI Emoji" font-size="20px" fill="#f08c00" text-anchor="start" style="white-space: pre;" direction="ltr" dominant-baseline="text-before-edge">expense_date</text></g><g stroke-linecap="round"><g transform="translate(790.3532090417343 986.3266367010679) rotate(0 177 -2)"><path d="M-1.16 0.62 C57.54 0.02, 294.15 -3.23, 353.3 -3.92 M0.43 -0.1 C59.43 -0.46, 296.91 -1.43, 355.65 -2.34" stroke="#f08c00" stroke-width="2" fill="none"></path></g></g><mask></mask><g transform="translate(807.6731208529322 997.7645263671875) rotate(0 23.4375 12)"><text x="0" y="0" font-family="Cascadia, Segoe UI Emoji" font-size="20px" fill="#f08c00" text-anchor="start" style="white-space: pre;" direction="ltr" dominant-baseline="text-before-edge">TEXT</text></g><g transform="translate(920.6731208529322 998.7645263671875) rotate(0 64.453125 12)"><text x="0" y="0" font-family="Cascadia, Segoe UI Emoji" font-size="20px" fill="#f08c00" text-anchor="start" style="white-space: pre;" direction="ltr" dominant-baseline="text-before-edge">receipt_url</text></g><g transform="translate(809.2356208529322 1038.7645263671875) rotate(0 23.4375 12)"><text x="0" y="0" font-family="Cascadia, Segoe UI Emoji" font-size="20px" fill="#f08c00" text-anchor="start" style="white-space: pre;" direction="ltr" dominant-baseline="text-before-edge">TEXT</text></g><g transform="translate(923.6731208529322 1045.7645263671875) rotate(0 41.015625 12)"><text x="0" y="0" font-family="Cascadia, Segoe UI Emoji" font-size="20px" fill="#f08c00" text-anchor="start" style="white-space: pre;" direction="ltr" dominant-baseline="text-before-edge">comment</text></g><g stroke-linecap="round"><g transform="translate(782.229661692013 1030.755481530647) rotate(0 177 -2)"><path d="M0.25 -0.92 C59.33 -1.62, 295.11 -3.63, 353.92 -4.18 M-1.08 1.22 C57.89 0.7, 293.5 -2.03, 352.94 -2.73" stroke="#f08c00" stroke-width="2" fill="none"></path></g></g><mask></mask><g stroke-linecap="round" transform="translate(805.1278791855234 250.36795963050326) rotate(0 179 146.5)"><path d="M32 0 C126.07 -0.95, 220.34 -0.62, 326 0 M32 0 C135.73 -0.92, 239.03 0.04, 326 0 M326 0 C345.7 -1.68, 359.11 10.21, 358 32 M326 0 C348.66 -0.61, 358.03 8.8, 358 32 M358 32 C357.48 90.37, 360.31 150.57, 358 261 M358 32 C358.49 118.77, 358.25 205.47, 358 261 M358 261 C359.41 281.11, 348.29 293.28, 326 293 M358 261 C359.06 281.66, 348.01 291.58, 326 293 M326 293 C243.23 293.16, 161.41 293.68, 32 293 M326 293 C211.91 293.36, 99.8 293.43, 32 293 M32 293 C10.55 293.25, -1.75 281.73, 0 261 M32 293 C12.21 292.2, 1.09 281.22, 0 261 M0 261 C-2.43 196.59, -0.24 131.13, 0 32 M0 261 C0.47 205.57, -0.59 149.42, 0 32 M0 32 C0.01 11.43, 11.37 -0.76, 32 0 M0 32 C0.57 10.49, 11.3 -1.95, 32 0" stroke="#f08c00" stroke-width="2" fill="none"></path></g><g transform="translate(845.1278791855234 258.36795963050326) rotate(0 140.625 12)"><text x="0" y="0" font-family="Cascadia, Segoe UI Emoji" font-size="20px" fill="#f08c00" text-anchor="start" style="white-space: pre;" direction="ltr" dominant-baseline="text-before-edge">expense_report_approvals</text></g><g stroke-linecap="round"><g transform="translate(805.0204640592638 289.02927315758075) rotate(0 180.5 -1.5)"><path d="M-0.61 0.62 C59.56 0.22, 299.79 -1.96, 360.12 -2.62 M1.27 -0.09 C61.89 -0.86, 302.45 -4.19, 362.37 -4.54" stroke="#f08c00" stroke-width="2" fill="none"></path></g></g><mask></mask><g transform="translate(819.6903791855234 336.36795963050326) rotate(0 23.4375 12)"><text x="0" y="0" font-family="Cascadia, Segoe UI Emoji" font-size="20px" fill="#f08c00" text-anchor="start" style="white-space: pre;" direction="ltr" dominant-baseline="text-before-edge">UUID</text></g><g transform="translate(823.6903791855229 374.36795963050326) rotate(0 41.015625 12)"><text x="0" y="0" font-family="Cascadia, Segoe UI Emoji" font-size="20px" fill="#f08c00" text-anchor="start" style="white-space: pre;" direction="ltr" dominant-baseline="text-before-edge">INTEGER</text></g><g transform="translate(817.6903791855229 455.36795963050326) rotate(0 23.4375 12)"><text x="0" y="0" font-family="Cascadia, Segoe UI Emoji" font-size="20px" fill="#f08c00" text-anchor="start" style="white-space: pre;" direction="ltr" dominant-baseline="text-before-edge">TEXT</text></g><g stroke-linecap="round"><g transform="translate(911.2195752793555 289.35919530914634) rotate(0 0 127.5)"><path d="M-0.98 -1.01 C-0.87 41.25, 0.39 212.11, 0.66 254.73 M0.71 1.08 C0.71 44.02, 0.13 213.66, 0.06 256.12" stroke="#f08c00" stroke-width="2" fill="none"></path></g></g><mask></mask><g stroke-linecap="round"><g transform="translate(808.4882735863334 326.5913908309617) rotate(0 176 -0.5)"><path d="M0.66 -0.27 C59.61 -0.33, 294.13 -1.04, 352.69 -1.32 M-0.45 -1.46 C58.49 -1.25, 293.49 0, 352.1 0.05" stroke="#f08c00" stroke-width="2" fill="none"></path></g></g><mask></mask><g stroke-linecap="round"><g transform="translate(807.4575553077416 370.99084935166866) rotate(0 178 -1)"><path d="M0.69 -0.32 C59.92 -0.77, 296.88 -2.76, 356.02 -2.98 M-0.41 -1.53 C58.6 -1.84, 295.92 -1.59, 355.08 -1.95" stroke="#f08c00" stroke-width="2" fill="none"></path></g></g><mask></mask><g stroke-linecap="round"><g transform="translate(808.6324521663742 446.3103182859859) rotate(0 176.5 -2.5)"><path d="M0.02 -0.98 C58.66 -1.69, 293.56 -3.79, 352.54 -4.59 M-1.43 1.13 C56.95 0.07, 292.17 -5.49, 351.35 -6.5" stroke="#f08c00" stroke-width="2" fill="none"></path></g></g><mask></mask><g transform="translate(942.1278791855234 336.36795963050326) rotate(0 52.734375 12)"><text x="0" y="0" font-family="Cascadia, Segoe UI Emoji" font-size="20px" fill="#f08c00" text-anchor="start" style="white-space: pre;" direction="ltr" dominant-baseline="text-before-edge">tenant_id</text></g><g transform="translate(939.3935041855234 375.36795963050326) rotate(0 64.453125 12)"><text x="0" y="0" font-family="Cascadia, Segoe UI Emoji" font-size="20px" fill="#f08c00" text-anchor="start" style="white-space: pre;" direction="ltr" dominant-baseline="text-before-edge">approver_id</text></g><g transform="translate(946.1278791855234 455.36795963050326) rotate(0 35.15625 12)"><text x="0" y="0" font-family="Cascadia, Segoe UI Emoji" font-size="20px" fill="#f08c00" text-anchor="start" style="white-space: pre;" direction="ltr" dominant-baseline="text-before-edge">status</text></g><g stroke-linecap="round"><g transform="translate(807.2907489449349 491.7117190735321) rotate(0 177.5 -1.5)"><path d="M-0.84 0.95 C58.61 0.2, 296.48 -2.68, 355.65 -3.36 M0.92 0.41 C60.36 0.33, 295.75 -1.63, 355.04 -2.02" stroke="#f08c00" stroke-width="2" fill="none"></path></g></g><mask></mask><g stroke-linecap="round"><g transform="translate(804.6114808166867 407.09230630399134) rotate(0 179.5 -0.5)"><path d="M0.65 -0.36 C60.49 -0.71, 298.66 -0.97, 358.19 -1.14 M-0.47 -1.6 C59.83 -1.84, 300.38 0.1, 360.48 0.32" stroke="#f08c00" stroke-width="2" fill="none"></path></g></g><mask></mask><g transform="translate(820.599788943166 296.8138795904954) rotate(0 41.015625 12)"><text x="0" y="0" font-family="Cascadia, Segoe UI Emoji" font-size="20px" fill="#f08c00" text-anchor="start" style="white-space: pre;" direction="ltr" dominant-baseline="text-before-edge">INTEGER</text></g><g transform="translate(943.599788943166 298.8138795904954) rotate(0 99.609375 12)"><text x="0" y="0" font-family="Cascadia, Segoe UI Emoji" font-size="20px" fill="#f08c00" text-anchor="start" style="white-space: pre;" direction="ltr" dominant-baseline="text-before-edge">expense_report_id</text></g><g transform="translate(944.6130659839305 499.86795963050326) rotate(0 35.15625 12)"><text x="0" y="0" font-family="Cascadia, Segoe UI Emoji" font-size="20px" fill="#f08c00" text-anchor="start" style="white-space: pre;" direction="ltr" dominant-baseline="text-before-edge">reason</text></g><g transform="translate(937.1483828883433 414.63248599769076) rotate(0 64.453125 12)"><text x="0" y="0" font-family="Cascadia, Segoe UI Emoji" font-size="20px" fill="#f08c00" text-anchor="start" style="white-space: pre;" direction="ltr" dominant-baseline="text-before-edge">approved_at</text></g><g transform="translate(820.1483828883433 502.63248599769076) rotate(0 23.4375 12)"><text x="0" y="0" font-family="Cascadia, Segoe UI Emoji" font-size="20px" fill="#f08c00" text-anchor="start" style="white-space: pre;" direction="ltr" dominant-baseline="text-before-edge">TEXT</text></g><g transform="translate(818.4856208529322 416.1645263671876) rotate(0 42.1875 9.600000000000023)"><text x="0" y="0" font-family="Cascadia, Segoe UI Emoji" font-size="16px" fill="#f08c00" text-anchor="start" style="white-space: pre;" direction="ltr" dominant-baseline="text-before-edge">TIMESTAMP</text></g><g stroke-linecap="round"><g transform="translate(607.6731208529322 697.734375) rotate(0 88 1)"><path d="M-0.23 -0.23 C29.18 0.19, 147.62 1.34, 176.81 1.76 M-1.82 -1.4 C27.48 -0.73, 146.45 2.32, 176.29 3.18" stroke="#f08c00" stroke-width="2" fill="none"></path></g></g><mask></mask><g stroke-linecap="round"><g transform="translate(614.6731208529322 345.734375) rotate(0 95 -1)"><path d="M0.81 -0.24 C32.34 -0.48, 157.51 -1.59, 188.93 -1.71 M-0.22 -1.4 C31.69 -2.01, 159.67 -3.46, 191.08 -3.68" stroke="#f08c00" stroke-width="2" fill="none"></path></g></g><mask></mask><g stroke-linecap="round"><g transform="translate(801.6731208529322 108.734375) rotate(0 -32 153.5)"><path d="M-1.07 0.29 C-11.98 3.33, -53.68 -29.61, -64.65 18.03 C-75.62 65.68, -78.17 237.98, -66.89 286.16 C-55.62 334.34, -9.02 303.6, 2.99 307.11 M0.57 -0.61 C-10.02 2.14, -51 -31.58, -62.27 16.45 C-73.55 64.48, -77.91 238.92, -67.08 287.56 C-56.25 336.2, -9.19 304.91, 2.7 308.27" stroke="#f08c00" stroke-width="2" fill="none"></path></g></g><mask></mask><g stroke-linecap="round"><g transform="translate(1109.6731208529322 82.77142684044793) rotate(0 70 398.2056032610508)"><path d="M-0.65 1.03 C23.05 8.48, 120 -79.57, 141.11 45 C162.21 169.58, 143.81 623.21, 125.99 748.48 C108.16 873.75, 49.67 788.62, 34.16 796.64 M1.22 0.53 C24.94 8.17, 119.55 -78.27, 140.74 46.62 C161.93 171.51, 146.58 624.65, 128.35 749.86 C110.12 875.06, 47.51 790, 31.35 797.86" stroke="#f08c00" stroke-width="2" fill="none"></path></g></g><mask></mask></svg>