<svg version="1.1" xmlns="http://www.w3.org/2000/svg" viewBox="0 0 1269.4214989186776 1094.2931334733685" width="2538.842997837355" height="2188.586266946737">
  <!-- svg-source:excalidraw -->
  
  <defs>
    <style class="style-fonts">
      @font-face {
        font-family: "Virgil";
        src: url("https://excalidraw.com/Virgil.woff2");
      }
      @font-face {
        font-family: "Cascadia";
        src: url("https://excalidraw.com/Cascadia.woff2");
      }
      @font-face {
        font-family: "Assistant";
        src: url("https://app.excalidraw.com//dist/excalidraw-assets/Assistant-Regular.woff2");
      }
    </style>
    
  </defs>
  <rect x="0" y="0" width="1269.4214989186776" height="1094.2931334733685" fill="#ffffff"></rect><g stroke-linecap="round" transform="translate(805.6731208529324 15) rotate(0 151.5 66)"><path d="M32 0 C92.89 0.37, 154.28 -1.21, 271 0 M32 0 C106.3 -1.24, 180.05 -2.17, 271 0 M271 0 C290.41 0.14, 303.38 10.82, 303 32 M271 0 C290.82 2.14, 304.17 8.75, 303 32 M303 32 C301.38 44.71, 302.33 59.8, 303 100 M303 32 C301.52 48.57, 302.99 64.71, 303 100 M303 100 C301.11 120.8, 292.12 132.8, 271 132 M303 100 C301.18 120.01, 293.57 133.33, 271 132 M271 132 C205.78 130.26, 140.33 131.65, 32 132 M271 132 C220.5 131.27, 169.24 129.95, 32 132 M32 132 C10.53 131.91, 1.32 122.9, 0 100 M32 132 C12.41 133.47, -0.87 119.56, 0 100 M0 100 C-1.01 80.47, 1.49 62.06, 0 32 M0 100 C0.03 75.58, 0.55 53.48, 0 32 M0 32 C1.93 12.25, 10.03 -0.16, 32 0 M0 32 C1.21 9.45, 8.51 -0.51, 32 0" stroke="#1e1e1e" stroke-width="2" fill="none"></path></g><g stroke-linecap="round"><g transform="translate(813.6731208529324 64) rotate(0 152 -1)"><path d="M1.14 0.45 C52.02 -0.09, 253.92 -1.94, 304.35 -2.17 M0.27 -0.36 C51.11 -0.19, 253.17 -0.32, 303.58 -0.72" stroke="#1e1e1e" stroke-width="2" fill="none"></path></g></g><mask></mask><g transform="translate(900.6731208529324 29) rotate(0 41.015625 12)"><text x="0" y="0" font-family="Cascadia, Segoe UI Emoji" font-size="20px" fill="#1e1e1e" text-anchor="start" style="white-space: pre;" direction="ltr" dominant-baseline="text-before-edge">tenants</text></g><g stroke-linecap="round"><g transform="translate(955.6731208529324 63) rotate(0 -0.5 42)"><path d="M0.19 1.12 C-0.27 15.3, -1.94 70.28, -2.1 84.2 M-1.17 0.66 C-1.33 14.53, 0.07 68.51, 0.04 82.18" stroke="#1e1e1e" stroke-width="2" fill="none"></path></g></g><mask></mask><g stroke-linecap="round"><g transform="translate(816.1936330454843 104.26218103460505) rotate(0 150 -0.5)"><path d="M-0.45 -0.38 C49.55 -0.53, 249.7 -0.59, 299.69 -0.64 M1.51 -1.63 C51.36 -2.18, 249.08 -2.98, 298.57 -2.58" stroke="#1e1e1e" stroke-width="2" fill="none"></path></g></g><mask></mask><g transform="translate(981.6731208529324 75) rotate(0 11.71875 12)"><text x="0" y="0" font-family="Cascadia, Segoe UI Emoji" font-size="20px" fill="#1e1e1e" text-anchor="start" style="white-space: pre;" direction="ltr" dominant-baseline="text-before-edge">id</text></g><g transform="translate(823.6731208529324 75) rotate(0 23.4375 12)"><text x="0" y="0" font-family="Cascadia, Segoe UI Emoji" font-size="20px" fill="#1e1e1e" text-anchor="start" style="white-space: pre;" direction="ltr" dominant-baseline="text-before-edge">UUID</text></g><g transform="translate(829.6731208529324 114) rotate(0 23.4375 12)"><text x="0" y="0" font-family="Cascadia, Segoe UI Emoji" font-size="20px" fill="#1e1e1e" text-anchor="start" style="white-space: pre;" direction="ltr" dominant-baseline="text-before-edge">TEXT</text></g><g transform="translate(976.6731208529324 111) rotate(0 23.4375 12)"><text x="0" y="0" font-family="Cascadia, Segoe UI Emoji" font-size="20px" fill="#1e1e1e" text-anchor="start" style="white-space: pre;" direction="ltr" dominant-baseline="text-before-edge">name</text></g><g stroke-linecap="round" transform="translate(10 10) rotate(0 151.5 87)"><path d="M32 0 C89.39 -0.85, 149.55 -1.7, 271 0 M32 0 C107.08 2.49, 182.23 2.47, 271 0 M271 0 C291.96 -1.77, 302.47 9.07, 303 32 M271 0 C294.59 2.2, 303.88 9.09, 303 32 M303 32 C301.96 64.85, 303.91 98.5, 303 142 M303 32 C303.52 59.44, 303.7 86.78, 303 142 M303 142 C301.83 164.68, 290.79 174.46, 271 174 M303 142 C305.24 165.59, 291.13 173.05, 271 174 M271 174 C177.98 176.88, 86 175.03, 32 174 M271 174 C187.46 175.09, 104.71 174.85, 32 174 M32 174 C9.57 173.51, 0.06 165.17, 0 142 M32 174 C11.94 172.39, 1.26 162.38, 0 142 M0 142 C0.48 99.55, 0.63 55.21, 0 32 M0 142 C0.59 117.41, 0.19 94.75, 0 32 M0 32 C1.55 11.46, 11.39 -0.22, 32 0 M0 32 C2.07 11.91, 9.02 -1.41, 32 0" stroke="#1e1e1e" stroke-width="2" fill="none"></path></g><g stroke-linecap="round"><g transform="translate(13 52) rotate(0 152 -1)"><path d="M0.11 0.49 C50.59 0.32, 252.8 -1.23, 303.51 -1.82 M-1.29 -0.29 C48.94 -0.18, 251.45 0.15, 302.3 -0.18" stroke="#1e1e1e" stroke-width="2" fill="none"></path></g></g><mask></mask><g transform="translate(100.00000000000011 17) rotate(0 29.296875 12)"><text x="0" y="0" font-family="Cascadia, Segoe UI Emoji" font-size="20px" fill="#1e1e1e" text-anchor="start" style="white-space: pre;" direction="ltr" dominant-baseline="text-before-edge">users</text></g><g stroke-linecap="round"><g transform="translate(155.0000000000001 51) rotate(0 -0.5 64)"><path d="M0.36 -1.05 C0.21 20.43, -1.05 107.39, -1.39 129.07 M-0.9 1.01 C-1.2 22.16, -2.23 106.47, -2.55 127.51" stroke="#1e1e1e" stroke-width="2" fill="none"></path></g></g><mask></mask><g stroke-linecap="round"><g transform="translate(15.520512192551905 92.26218103460508) rotate(0 150 -0.5)"><path d="M-0.39 1.07 C49.43 1.25, 249.29 0.56, 299.32 0.03 M1.6 0.58 C51.79 0.54, 252.12 -1.23, 301.67 -1.54" stroke="#1e1e1e" stroke-width="2" fill="none"></path></g></g><mask></mask><g transform="translate(181.0000000000001 63) rotate(0 11.71875 12)"><text x="0" y="0" font-family="Cascadia, Segoe UI Emoji" font-size="20px" fill="#1e1e1e" text-anchor="start" style="white-space: pre;" direction="ltr" dominant-baseline="text-before-edge">id</text></g><g transform="translate(23 63) rotate(0 23.4375 12)"><text x="0" y="0" font-family="Cascadia, Segoe UI Emoji" font-size="20px" fill="#1e1e1e" text-anchor="start" style="white-space: pre;" direction="ltr" dominant-baseline="text-before-edge">UUID</text></g><g transform="translate(29 102) rotate(0 23.4375 12)"><text x="0" y="0" font-family="Cascadia, Segoe UI Emoji" font-size="20px" fill="#1e1e1e" text-anchor="start" style="white-space: pre;" direction="ltr" dominant-baseline="text-before-edge">TEXT</text></g><g transform="translate(176.0000000000001 99) rotate(0 23.4375 12)"><text x="0" y="0" font-family="Cascadia, Segoe UI Emoji" font-size="20px" fill="#1e1e1e" text-anchor="start" style="white-space: pre;" direction="ltr" dominant-baseline="text-before-edge">name</text></g><g stroke-linecap="round"><g transform="translate(17.033515253742394 134.22343120045838) rotate(0 150 -0.5)"><path d="M0.31 1.1 C50.07 1, 249.09 0.6, 298.99 0.08 M-0.99 0.63 C49.1 0.16, 251.22 -1.16, 301.17 -1.47" stroke="#1e1e1e" stroke-width="2" fill="none"></path></g></g><mask></mask><g transform="translate(37.67312085293236 145) rotate(0 23.4375 12)"><text x="0" y="0" font-family="Cascadia, Segoe UI Emoji" font-size="20px" fill="#1e1e1e" text-anchor="start" style="white-space: pre;" direction="ltr" dominant-baseline="text-before-edge">TEXT</text></g><g transform="translate(182.67312085293236 145) rotate(0 29.296875 12)"><text x="0" y="0" font-family="Cascadia, Segoe UI Emoji" font-size="20px" fill="#1e1e1e" text-anchor="start" style="white-space: pre;" direction="ltr" dominant-baseline="text-before-edge">email</text></g><g stroke-linecap="round" transform="translate(351.67312085293236 21) rotate(0 138 109.5)"><path d="M32 0 C92.06 1.58, 150.86 2.15, 244 0 M32 0 C97.69 -1, 161.54 0.01, 244 0 M244 0 C266.47 1.1, 277.53 12.02, 276 32 M244 0 C267.63 -0.26, 275.67 9.89, 276 32 M276 32 C275.72 91.36, 277.5 147.57, 276 187 M276 32 C273.59 70.86, 274.03 112.28, 276 187 M276 187 C275.95 210.12, 263.96 219.73, 244 219 M276 187 C277.38 210.22, 264.81 219.42, 244 219 M244 219 C170.91 222.2, 94.56 220.12, 32 219 M244 219 C165.91 218.92, 87.05 218.17, 32 219 M32 219 C11.97 217.45, 1.79 206.85, 0 187 M32 219 C9.2 219.92, -0.78 207.66, 0 187 M0 187 C-0.24 140.46, -0.62 91.37, 0 32 M0 187 C-1.4 153.3, -1.52 117.22, 0 32 M0 32 C-0.66 12.51, 10.24 -1.9, 32 0 M0 32 C0.5 11.17, 11.87 -1.65, 32 0" stroke="#1e1e1e" stroke-width="2" fill="none"></path></g><g transform="translate(416.67312085293236 37) rotate(0 70.3125 12)"><text x="0" y="0" font-family="Cascadia, Segoe UI Emoji" font-size="20px" fill="#1e1e1e" text-anchor="start" style="white-space: pre;" direction="ltr" dominant-baseline="text-before-edge">tenant_users</text></g><g stroke-linecap="round"><g transform="translate(351.56570572667306 68.66131352707743) rotate(0 136.5 0.5)"><path d="M0.68 -0.76 C46.24 -0.76, 228.22 0.31, 273.71 0.59 M-0.43 1.46 C45.01 1.58, 227.53 1.79, 273.13 1.91" stroke="#1e1e1e" stroke-width="2" fill="none"></path></g></g><mask></mask><g transform="translate(361.23562085293247 81) rotate(0 23.4375 12)"><text x="0" y="0" font-family="Cascadia, Segoe UI Emoji" font-size="20px" fill="#1e1e1e" text-anchor="start" style="white-space: pre;" direction="ltr" dominant-baseline="text-before-edge">UUID</text></g><g transform="translate(365.23562085293224 119) rotate(0 23.4375 12)"><text x="0" y="0" font-family="Cascadia, Segoe UI Emoji" font-size="20px" fill="#1e1e1e" text-anchor="start" style="white-space: pre;" direction="ltr" dominant-baseline="text-before-edge">UUID</text></g><g transform="translate(365.23562085293247 157) rotate(0 23.4375 12)"><text x="0" y="0" font-family="Cascadia, Segoe UI Emoji" font-size="20px" fill="#1e1e1e" text-anchor="start" style="white-space: pre;" direction="ltr" dominant-baseline="text-before-edge">TEXT</text></g><g transform="translate(366.23562085293224 199) rotate(0 35.15625 12)"><text x="0" y="0" font-family="Cascadia, Segoe UI Emoji" font-size="20px" fill="#1e1e1e" text-anchor="start" style="white-space: pre;" direction="ltr" dominant-baseline="text-before-edge">TEXT[]</text></g><g stroke-linecap="round"><g transform="translate(457.76481694676454 68.99123567864297) rotate(0 -0.5 87)"><path d="M-0.73 -0.45 C-1.05 28.5, -1.46 146.01, -1.59 174.9 M1.09 -1.74 C1.13 27.39, 1.42 144.03, 0.81 173.25" stroke="#1e1e1e" stroke-width="2" fill="none"></path></g></g><mask></mask><g stroke-linecap="round"><g transform="translate(353.0335152537424 112.22343120045832) rotate(0 138.5 -1)"><path d="M-0.56 -0.89 C45.92 -1.44, 231.8 -2.41, 277.9 -2.5 M1.35 1.26 C47.83 0.79, 231.24 -0.43, 277.42 -1.23" stroke="#1e1e1e" stroke-width="2" fill="none"></path></g></g><mask></mask><g stroke-linecap="round"><g transform="translate(354.0027969751508 150.62288972116545) rotate(0 138.5 -1)"><path d="M-0.37 0.23 C46 -0.2, 231.32 -1.58, 277.36 -2.12 M1.64 -0.69 C47.96 -0.98, 230.51 -0.38, 276.6 -0.64" stroke="#1e1e1e" stroke-width="2" fill="none"></path></g></g><mask></mask><g stroke-linecap="round"><g transform="translate(349.1776938337832 190.94235865548262) rotate(0 138.5 -1)"><path d="M0.79 -0.49 C46.96 -0.75, 230.48 -1.89, 276.56 -2.11 M-0.25 -1.79 C45.75 -1.81, 229.22 -0.86, 275.38 -0.63" stroke="#1e1e1e" stroke-width="2" fill="none"></path></g></g><mask></mask><g transform="translate(483.67312085293236 81) rotate(0 52.734375 12)"><text x="0" y="0" font-family="Cascadia, Segoe UI Emoji" font-size="20px" fill="#1e1e1e" text-anchor="start" style="white-space: pre;" direction="ltr" dominant-baseline="text-before-edge">tenant_id</text></g><g transform="translate(480.93874585293236 120) rotate(0 41.015625 12)"><text x="0" y="0" font-family="Cascadia, Segoe UI Emoji" font-size="20px" fill="#1e1e1e" text-anchor="start" style="white-space: pre;" direction="ltr" dominant-baseline="text-before-edge">user_id</text></g><g transform="translate(484.67312085293236 157) rotate(0 29.296875 12)"><text x="0" y="0" font-family="Cascadia, Segoe UI Emoji" font-size="20px" fill="#1e1e1e" text-anchor="start" style="white-space: pre;" direction="ltr" dominant-baseline="text-before-edge">email</text></g><g transform="translate(487.67312085293236 200) rotate(0 29.296875 12)"><text x="0" y="0" font-family="Cascadia, Segoe UI Emoji" font-size="20px" fill="#1e1e1e" text-anchor="start" style="white-space: pre;" direction="ltr" dominant-baseline="text-before-edge">roles</text></g><g stroke-linecap="round" transform="translate(339.2012110952894 287.5540800400079) rotate(0 138 144.5)"><path d="M32 0 C110.42 -0.47, 184.65 0.87, 244 0 M32 0 C84.82 -1.6, 138.7 -1.16, 244 0 M244 0 C267.22 -1.52, 277.9 9.2, 276 32 M244 0 C263.19 1.17, 276.18 8.43, 276 32 M276 32 C278.95 100.65, 279.39 169.1, 276 257 M276 32 C278.06 79.73, 277.4 127.67, 276 257 M276 257 C276.81 279.14, 266.28 290.17, 244 289 M276 257 C275.92 280.06, 266.47 288.75, 244 289 M244 289 C182.34 288.47, 121.23 287.6, 32 289 M244 289 C172.76 289.3, 101.26 288.99, 32 289 M32 289 C9.26 289.61, 1.98 279.96, 0 257 M32 289 C11.31 288.53, -0.15 278.04, 0 257 M0 257 C1.84 190.42, 1.6 125.8, 0 32 M0 257 C0.45 192.35, 0.32 127.12, 0 32 M0 32 C-0.09 9.27, 9.76 -1.74, 32 0 M0 32 C-1.83 8.87, 8.76 1.14, 32 0" stroke="#1e1e1e" stroke-width="2" fill="none"></path></g><g transform="translate(404.2012110952894 294.5540800400079) rotate(0 52.734375 12)"><text x="0" y="0" font-family="Cascadia, Segoe UI Emoji" font-size="20px" fill="#1e1e1e" text-anchor="start" style="white-space: pre;" direction="ltr" dominant-baseline="text-before-edge">employees</text></g><g stroke-linecap="round"><g transform="translate(339.09379596903 326.21539356708536) rotate(0 136.5 0.5)"><path d="M0.36 -0.6 C46 -0.18, 227.85 1.67, 273.25 1.88 M-0.91 1.7 C44.64 1.85, 226.98 0.2, 272.43 0.22" stroke="#1e1e1e" stroke-width="2" fill="none"></path></g></g><mask></mask><g transform="translate(353.76371109528964 373.5540800400079) rotate(0 23.4375 12)"><text x="0" y="0" font-family="Cascadia, Segoe UI Emoji" font-size="20px" fill="#1e1e1e" text-anchor="start" style="white-space: pre;" direction="ltr" dominant-baseline="text-before-edge">UUID</text></g><g transform="translate(357.7637110952892 411.5540800400079) rotate(0 23.4375 12)"><text x="0" y="0" font-family="Cascadia, Segoe UI Emoji" font-size="20px" fill="#1e1e1e" text-anchor="start" style="white-space: pre;" direction="ltr" dominant-baseline="text-before-edge">UUID</text></g><g transform="translate(357.76371109528964 449.5540800400079) rotate(0 23.4375 12)"><text x="0" y="0" font-family="Cascadia, Segoe UI Emoji" font-size="20px" fill="#1e1e1e" text-anchor="start" style="white-space: pre;" direction="ltr" dominant-baseline="text-before-edge">TEXT</text></g><g transform="translate(351.7637110952892 493.5540800400079) rotate(0 41.015625 12)"><text x="0" y="0" font-family="Cascadia, Segoe UI Emoji" font-size="20px" fill="#1e1e1e" text-anchor="start" style="white-space: pre;" direction="ltr" dominant-baseline="text-before-edge">INTEGER</text></g><g stroke-linecap="round"><g transform="translate(445.2929071891217 326.54531571865084) rotate(0 -0.5 123.5)"><path d="M1.14 -0.88 C0.6 40.54, -1.78 206.49, -2.12 247.61 M0.28 1.27 C-0.01 42.42, 0.33 204.93, 0.01 245.81" stroke="#1e1e1e" stroke-width="2" fill="none"></path></g></g><mask></mask><g stroke-linecap="round"><g transform="translate(342.56160549609945 363.7775112404662) rotate(0 138.5 -1)"><path d="M-1.12 0.61 C44.88 0.23, 230.73 -2.92, 277.09 -3.17 M0.5 -0.12 C46.24 -0.32, 230.23 -1.83, 276.19 -2.24" stroke="#1e1e1e" stroke-width="2" fill="none"></path></g></g><mask></mask><g stroke-linecap="round"><g transform="translate(341.5308872175078 408.17696976117327) rotate(0 138.5 -1)"><path d="M0.09 -1.17 C46.45 -1.41, 231.07 -0.85, 277.03 -0.86 M-1.32 0.84 C44.98 0.23, 229.52 -1.71, 276.1 -2.38" stroke="#1e1e1e" stroke-width="2" fill="none"></path></g></g><mask></mask><g stroke-linecap="round"><g transform="translate(342.7057840761404 483.4964386954905) rotate(0 138.5 -1)"><path d="M0.03 1.14 C46 1.13, 229.67 -0.88, 275.89 -1.22 M-1.41 0.7 C44.91 0.45, 231.66 -2.38, 278.02 -2.94" stroke="#1e1e1e" stroke-width="2" fill="none"></path></g></g><mask></mask><g transform="translate(476.2012110952894 373.5540800400079) rotate(0 52.734375 12)"><text x="0" y="0" font-family="Cascadia, Segoe UI Emoji" font-size="20px" fill="#1e1e1e" text-anchor="start" style="white-space: pre;" direction="ltr" dominant-baseline="text-before-edge">tenant_id</text></g><g transform="translate(473.4668360952894 412.5540800400079) rotate(0 41.015625 12)"><text x="0" y="0" font-family="Cascadia, Segoe UI Emoji" font-size="20px" fill="#1e1e1e" text-anchor="start" style="white-space: pre;" direction="ltr" dominant-baseline="text-before-edge">user_id</text></g><g transform="translate(477.2012110952894 449.5540800400079) rotate(0 23.4375 12)"><text x="0" y="0" font-family="Cascadia, Segoe UI Emoji" font-size="20px" fill="#1e1e1e" text-anchor="start" style="white-space: pre;" direction="ltr" dominant-baseline="text-before-edge">name</text></g><g transform="translate(480.2012110952894 492.5540800400079) rotate(0 58.59375 12)"><text x="0" y="0" font-family="Cascadia, Segoe UI Emoji" font-size="20px" fill="#1e1e1e" text-anchor="start" style="white-space: pre;" direction="ltr" dominant-baseline="text-before-edge">department</text></g><g stroke-linecap="round"><g transform="translate(341.3640808547009 528.8978394830367) rotate(0 138.5 -1)"><path d="M0.37 -0.77 C46.72 -0.91, 231.1 -0.93, 277.05 -1.07 M-0.9 1.45 C45.39 0.99, 229.57 -1.84, 276.12 -2.71" stroke="#1e1e1e" stroke-width="2" fill="none"></path></g></g><mask></mask><g transform="translate(355.23562085293247 536) rotate(0 41.015625 12)"><text x="0" y="0" font-family="Cascadia, Segoe UI Emoji" font-size="20px" fill="#1e1e1e" text-anchor="start" style="white-space: pre;" direction="ltr" dominant-baseline="text-before-edge">INTEGER</text></g><g transform="translate(481.67312085293236 535) rotate(0 41.015625 12)"><text x="0" y="0" font-family="Cascadia, Segoe UI Emoji" font-size="20px" fill="#1e1e1e" text-anchor="start" style="white-space: pre;" direction="ltr" dominant-baseline="text-before-edge">manager</text></g><g stroke-linecap="round"><g transform="translate(338.68481272645295 444.2784267134963) rotate(0 138.5 -1)"><path d="M-0.85 -0.4 C45.16 -0.79, 229.63 -2.55, 276.06 -2.99 M0.9 -1.66 C47.29 -1.87, 232.21 -1.88, 278.28 -1.97" stroke="#1e1e1e" stroke-width="2" fill="none"></path></g></g><mask></mask><g transform="translate(354.67312085293236 334) rotate(0 41.015625 12)"><text x="0" y="0" font-family="Cascadia, Segoe UI Emoji" font-size="20px" fill="#1e1e1e" text-anchor="start" style="white-space: pre;" direction="ltr" dominant-baseline="text-before-edge">INTEGER</text></g><g transform="translate(477.67312085293236 336) rotate(0 11.71875 12)"><text x="0" y="0" font-family="Cascadia, Segoe UI Emoji" font-size="20px" fill="#1e1e1e" text-anchor="start" style="white-space: pre;" direction="ltr" dominant-baseline="text-before-edge">id</text></g><g stroke-linecap="round" transform="translate(330.5941840545253 606.5) rotate(0 138 145.5)"><path d="M32 0 C91.45 -0.41, 151.68 -1.82, 244 0 M32 0 C111.22 0.75, 190.37 1.41, 244 0 M244 0 C263.67 1.52, 274.92 8.73, 276 32 M244 0 C264.26 -1.58, 273.76 10.58, 276 32 M276 32 C276.93 77.57, 276.06 126.27, 276 259 M276 32 C275.43 92.3, 275.02 151.99, 276 259 M276 259 C277.22 280.47, 265.36 289.29, 244 291 M276 259 C276.86 282.28, 265.9 289.61, 244 291 M244 291 C169.47 289.16, 91.25 288.78, 32 291 M244 291 C198.5 292.06, 153.64 292.66, 32 291 M32 291 C11.33 289.92, 0.89 279.09, 0 259 M32 291 C11.25 292.31, -1.1 279.93, 0 259 M0 259 C-0.39 206.74, -2.05 152.91, 0 32 M0 259 C0.12 192.9, 0.7 127.92, 0 32 M0 32 C1.85 12.67, 9.93 0.11, 32 0 M0 32 C-0.58 12.14, 12 1.82, 32 0" stroke="#1e1e1e" stroke-width="2" fill="none"></path></g><g transform="translate(395.5941840545253 613.5) rotate(0 82.03125 12)"><text x="0" y="0" font-family="Cascadia, Segoe UI Emoji" font-size="20px" fill="#1e1e1e" text-anchor="start" style="white-space: pre;" direction="ltr" dominant-baseline="text-before-edge">expense_report</text></g><g stroke-linecap="round"><g transform="translate(330.48676892826563 645.1613135270775) rotate(0 136.5 0.5)"><path d="M-0.96 0.89 C44.47 0.87, 226.97 0.53, 272.61 0.57 M0.73 0.31 C45.98 0.4, 226.24 1.52, 271.46 1.88" stroke="#1e1e1e" stroke-width="2" fill="none"></path></g></g><mask></mask><g transform="translate(345.1566840545253 692.5) rotate(0 23.4375 12)"><text x="0" y="0" font-family="Cascadia, Segoe UI Emoji" font-size="20px" fill="#1e1e1e" text-anchor="start" style="white-space: pre;" direction="ltr" dominant-baseline="text-before-edge">UUID</text></g><g transform="translate(349.1566840545248 730.5) rotate(0 41.015625 12)"><text x="0" y="0" font-family="Cascadia, Segoe UI Emoji" font-size="20px" fill="#1e1e1e" text-anchor="start" style="white-space: pre;" direction="ltr" dominant-baseline="text-before-edge">INTEGER</text></g><g transform="translate(349.1566840545253 768.5) rotate(0 23.4375 12)"><text x="0" y="0" font-family="Cascadia, Segoe UI Emoji" font-size="20px" fill="#1e1e1e" text-anchor="start" style="white-space: pre;" direction="ltr" dominant-baseline="text-before-edge">TEXT</text></g><g transform="translate(343.1566840545248 813.9) rotate(0 42.1875 9.600000000000023)"><text x="0" y="0" font-family="Cascadia, Segoe UI Emoji" font-size="16px" fill="#1e1e1e" text-anchor="start" style="white-space: pre;" direction="ltr" dominant-baseline="text-before-edge">TIMESTAMP</text></g><g stroke-linecap="round"><g transform="translate(436.68588014835734 645.491235678643) rotate(0 -0.5 123.5)"><path d="M-0.65 -1.16 C-0.74 39.71, -1.31 204.82, -1.56 246.17 M1.21 0.84 C1 41.77, -2.62 206.04, -2.8 247.28" stroke="#1e1e1e" stroke-width="2" fill="none"></path></g></g><mask></mask><g stroke-linecap="round"><g transform="translate(333.9545784553353 682.7234312004582) rotate(0 138.5 -1)"><path d="M-0.56 -0.83 C45.52 -0.97, 229.76 -1.89, 275.83 -2.04 M1.34 1.36 C47.83 1.51, 231.79 -0.25, 277.93 -0.53" stroke="#1e1e1e" stroke-width="2" fill="none"></path></g></g><mask></mask><g stroke-linecap="round"><g transform="translate(332.92386017674346 727.1228897211654) rotate(0 138.5 -1)"><path d="M-1.17 -0.04 C44.9 -0.2, 229.7 -1.49, 275.86 -1.76 M0.42 -1.11 C46.89 -1.58, 231.7 -3.31, 277.98 -3.75" stroke="#1e1e1e" stroke-width="2" fill="none"></path></g></g><mask></mask><g stroke-linecap="round"><g transform="translate(334.098757035376 802.4423586554826) rotate(0 138.5 -1)"><path d="M-1.14 0.24 C45.03 -0.02, 229.58 -1.21, 275.81 -1.63 M0.47 -0.67 C47.08 -1.31, 231.51 -3.49, 277.9 -3.56" stroke="#1e1e1e" stroke-width="2" fill="none"></path></g></g><mask></mask><g transform="translate(467.5941840545253 692.5) rotate(0 52.734375 12)"><text x="0" y="0" font-family="Cascadia, Segoe UI Emoji" font-size="20px" fill="#1e1e1e" text-anchor="start" style="white-space: pre;" direction="ltr" dominant-baseline="text-before-edge">tenant_id</text></g><g transform="translate(464.8598090545253 731.5) rotate(0 64.453125 12)"><text x="0" y="0" font-family="Cascadia, Segoe UI Emoji" font-size="20px" fill="#1e1e1e" text-anchor="start" style="white-space: pre;" direction="ltr" dominant-baseline="text-before-edge">employee_id</text></g><g transform="translate(468.5941840545253 768.5) rotate(0 35.15625 12)"><text x="0" y="0" font-family="Cascadia, Segoe UI Emoji" font-size="20px" fill="#1e1e1e" text-anchor="start" style="white-space: pre;" direction="ltr" dominant-baseline="text-before-edge">status</text></g><g transform="translate(471.5941840545253 811.5) rotate(0 58.59375 12)"><text x="0" y="0" font-family="Cascadia, Segoe UI Emoji" font-size="20px" fill="#1e1e1e" text-anchor="start" style="white-space: pre;" direction="ltr" dominant-baseline="text-before-edge">created_at</text></g><g stroke-linecap="round"><g transform="translate(332.75705381393675 847.8437594430288) rotate(0 138.5 -1)"><path d="M-0.37 0.52 C45.68 0.14, 229.72 -1.42, 276.07 -1.83 M1.64 -0.25 C48.08 -0.46, 232.34 -0.15, 278.29 -0.2" stroke="#1e1e1e" stroke-width="2" fill="none"></path></g></g><mask></mask><g stroke-linecap="round"><g transform="translate(330.0777856856886 763.2243466734883) rotate(0 138.5 -1)"><path d="M0.02 -1.03 C46.13 -1.2, 231.24 -0.7, 277.45 -0.98 M-1.44 1.05 C44.5 0.55, 230.39 -2.1, 276.74 -2.57" stroke="#1e1e1e" stroke-width="2" fill="none"></path></g></g><mask></mask><g transform="translate(346.0660938121681 652.9459199599921) rotate(0 41.015625 12)"><text x="0" y="0" font-family="Cascadia, Segoe UI Emoji" font-size="20px" fill="#1e1e1e" text-anchor="start" style="white-space: pre;" direction="ltr" dominant-baseline="text-before-edge">INTEGER</text></g><g transform="translate(469.0660938121681 654.9459199599921) rotate(0 11.71875 12)"><text x="0" y="0" font-family="Cascadia, Segoe UI Emoji" font-size="20px" fill="#1e1e1e" text-anchor="start" style="white-space: pre;" direction="ltr" dominant-baseline="text-before-edge">id</text></g><g transform="translate(342.48562085293236 856.4) rotate(0 42.1875 9.600000000000023)"><text x="0" y="0" font-family="Cascadia, Segoe UI Emoji" font-size="16px" fill="#1e1e1e" text-anchor="start" style="white-space: pre;" direction="ltr" dominant-baseline="text-before-edge">TIMESTAMP</text></g><g transform="translate(470.07937085293236 856) rotate(0 58.59375 12)"><text x="0" y="0" font-family="Cascadia, Segoe UI Emoji" font-size="20px" fill="#1e1e1e" text-anchor="start" style="white-space: pre;" direction="ltr" dominant-baseline="text-before-edge">updated_at</text></g><g stroke-linecap="round" transform="translate(783.6526171501124 603.5) rotate(0 179 238.5)"><path d="M32 0 C140.82 -0.98, 248.15 -2.16, 326 0 M32 0 C144.62 1.99, 257.88 1.87, 326 0 M326 0 C347.7 1.49, 357.38 11.58, 358 32 M326 0 C347.02 0.33, 358.34 9.18, 358 32 M358 32 C358.01 133.33, 358.7 236.55, 358 445 M358 32 C359.52 176.68, 359.48 321.22, 358 445 M358 445 C359.08 465.97, 348.4 475.48, 326 477 M358 445 C358.72 467.06, 347.86 478.03, 326 477 M326 477 C266.31 477.87, 206.1 478.58, 32 477 M326 477 C226.24 477.27, 125.69 478.01, 32 477 M32 477 C12.42 475.72, 0.56 466.76, 0 445 M32 477 C10.97 478, 0.02 466.31, 0 445 M0 445 C0.52 287.09, 0.82 127.26, 0 32 M0 445 C2.52 331.01, 2.54 216.21, 0 32 M0 32 C0.49 10.66, 11.14 0.54, 32 0 M0 32 C0.77 8.88, 9.86 0.18, 32 0" stroke="#1e1e1e" stroke-width="2" fill="none"></path></g><g transform="translate(848.6526171501124 610.5) rotate(0 117.1875 12)"><text x="0" y="0" font-family="Cascadia, Segoe UI Emoji" font-size="20px" fill="#1e1e1e" text-anchor="start" style="white-space: pre;" direction="ltr" dominant-baseline="text-before-edge">expense_report_items</text></g><g stroke-linecap="round"><g transform="translate(783.5452020238528 642.1613135270775) rotate(0 180.5 -1.5)"><path d="M-0.13 1 C59.94 0.5, 301.07 -3.36, 361.23 -3.96 M-1.65 0.48 C58.2 0.18, 300.14 -2.06, 360.41 -2.93" stroke="#1e1e1e" stroke-width="2" fill="none"></path></g></g><mask></mask><g transform="translate(798.2151171501124 689.5) rotate(0 23.4375 12)"><text x="0" y="0" font-family="Cascadia, Segoe UI Emoji" font-size="20px" fill="#1e1e1e" text-anchor="start" style="white-space: pre;" direction="ltr" dominant-baseline="text-before-edge">UUID</text></g><g transform="translate(802.215117150112 727.5) rotate(0 23.4375 12)"><text x="0" y="0" font-family="Cascadia, Segoe UI Emoji" font-size="20px" fill="#1e1e1e" text-anchor="start" style="white-space: pre;" direction="ltr" dominant-baseline="text-before-edge">UUID</text></g><g transform="translate(796.215117150112 808.5000000000001) rotate(0 23.4375 12)"><text x="0" y="0" font-family="Cascadia, Segoe UI Emoji" font-size="20px" fill="#1e1e1e" text-anchor="start" style="white-space: pre;" direction="ltr" dominant-baseline="text-before-edge">TEXT</text></g><g stroke-linecap="round"><g transform="translate(889.7443132439445 642.491235678643) rotate(0 1 220.00000000000006)"><path d="M-0.37 0.55 C-0.1 73.76, 1.41 367.06, 1.84 440.17 M1.63 -0.21 C1.71 73.14, 0.82 368.41, 0.8 441.8" stroke="#1e1e1e" stroke-width="2" fill="none"></path></g></g><mask></mask><g stroke-linecap="round"><g transform="translate(787.0130115509224 679.7234312004582) rotate(0 176 -0.5)"><path d="M-0.16 0.17 C58.59 -0.21, 293.59 -1.68, 352.18 -1.78 M-1.71 -0.78 C56.94 -1.08, 292.66 -0.37, 351.33 -0.65" stroke="#1e1e1e" stroke-width="2" fill="none"></path></g></g><mask></mask><g stroke-linecap="round"><g transform="translate(785.9822932723306 724.1228897211654) rotate(0 178 -1)"><path d="M0.18 -0.78 C59.44 -1.04, 296.26 -1.02, 355.37 -1.42 M-1.18 1.43 C58.48 0.79, 298.03 -2.58, 357.75 -3.23" stroke="#1e1e1e" stroke-width="2" fill="none"></path></g></g><mask></mask><g stroke-linecap="round"><g transform="translate(787.1571901309632 799.4423586554826) rotate(0 176.5 -2.5)"><path d="M-0.63 0.58 C57.98 -0.32, 293.08 -5.18, 351.86 -6.19 M1.24 -0.16 C60.19 -0.89, 295.11 -4.57, 353.97 -5.27" stroke="#1e1e1e" stroke-width="2" fill="none"></path></g></g><mask></mask><g transform="translate(920.6526171501124 689.5) rotate(0 52.734375 12)"><text x="0" y="0" font-family="Cascadia, Segoe UI Emoji" font-size="20px" fill="#1e1e1e" text-anchor="start" style="white-space: pre;" direction="ltr" dominant-baseline="text-before-edge">tenant_id</text></g><g transform="translate(917.9182421501124 728.5) rotate(0 41.015625 12)"><text x="0" y="0" font-family="Cascadia, Segoe UI Emoji" font-size="20px" fill="#1e1e1e" text-anchor="start" style="white-space: pre;" direction="ltr" dominant-baseline="text-before-edge">item_id</text></g><g transform="translate(924.6526171501124 808.5) rotate(0 35.15625 12)"><text x="0" y="0" font-family="Cascadia, Segoe UI Emoji" font-size="20px" fill="#1e1e1e" text-anchor="start" style="white-space: pre;" direction="ltr" dominant-baseline="text-before-edge">vendor</text></g><g stroke-linecap="round"><g transform="translate(785.8154869095239 844.8437594430288) rotate(0 177.5 -1.5)"><path d="M-0.44 -0.22 C58.49 -0.72, 295.13 -3.24, 354.47 -3.74 M1.54 -1.39 C60.18 -1.68, 294.3 -2.49, 353.25 -2.6" stroke="#1e1e1e" stroke-width="2" fill="none"></path></g></g><mask></mask><g stroke-linecap="round"><g transform="translate(783.1362187812757 760.2243466734883) rotate(0 179.5 -0.5)"><path d="M-0.53 -0.74 C59.49 -0.91, 299.62 -1.02, 359.65 -1.22 M1.4 1.48 C61.35 1.52, 299.4 0.63, 359.04 0.21" stroke="#1e1e1e" stroke-width="2" fill="none"></path></g></g><mask></mask><g transform="translate(799.124526907755 649.9459199599921) rotate(0 41.015625 12)"><text x="0" y="0" font-family="Cascadia, Segoe UI Emoji" font-size="20px" fill="#1e1e1e" text-anchor="start" style="white-space: pre;" direction="ltr" dominant-baseline="text-before-edge">INTEGER</text></g><g transform="translate(922.124526907755 651.9459199599921) rotate(0 99.609375 12)"><text x="0" y="0" font-family="Cascadia, Segoe UI Emoji" font-size="20px" fill="#1e1e1e" text-anchor="start" style="white-space: pre;" direction="ltr" dominant-baseline="text-before-edge">expense_report_id</text></g><g transform="translate(923.1378039485195 853) rotate(0 35.15625 12)"><text x="0" y="0" font-family="Cascadia, Segoe UI Emoji" font-size="20px" fill="#1e1e1e" text-anchor="start" style="white-space: pre;" direction="ltr" dominant-baseline="text-before-edge">amount</text></g><g stroke-linecap="round"><g transform="translate(313.67312085293236 70.7645263671875) rotate(0 19.5 0)"><path d="M-0.39 -0.27 C6.07 -0.29, 32.47 -0.53, 39.01 -0.47 M0.41 0.77 C6.78 0.85, 32.24 -0.01, 38.59 -0.02" stroke="#f08c00" stroke-width="2" fill="none"></path></g></g><mask></mask><g stroke-linecap="round"><g transform="translate(801.6731208529324 86.7645263671875) rotate(0 -87 0)"><path d="M0.44 0.18 C-28.46 0.08, -144.86 -0.63, -174 -0.73 M-0.79 -0.77 C-29.8 -0.72, -145.86 0.18, -174.94 0.42" stroke="#f08c00" stroke-width="2" fill="none"></path></g></g><mask></mask><g stroke-linecap="round"><g transform="translate(472.67312085293236 240.7645263671875) rotate(0 -0.5 23.5)"><path d="M-0.09 0.25 C-0.24 8.12, -0.46 39.05, -0.56 46.88 M-0.8 -0.1 C-1.01 7.89, -0.76 39.79, -0.76 47.51" stroke="#f08c00" stroke-width="2" fill="none"></path></g></g><mask></mask><g stroke-linecap="round"><g transform="translate(335.67312085293236 455.7645263671875) rotate(0 -38.5 132)"><path d="M-0.36 -1.19 C-9.41 -1.16, -42.53 -38.74, -55.14 0.06 C-67.76 38.85, -84.08 187.67, -76.07 231.56 C-68.06 275.44, -18.39 257.85, -7.06 263.34 M1.65 0.8 C-7.49 0.97, -43.17 -37.02, -56.17 1.1 C-69.17 39.22, -84.65 185.67, -76.35 229.5 C-68.04 273.34, -17.44 258.16, -6.32 264.1" stroke="#f08c00" stroke-width="2" fill="none"></path></g></g><mask></mask><g transform="translate(804.2356208529324 766.7645263671874) rotate(0 23.4375 12)"><text x="0" y="0" font-family="Cascadia, Segoe UI Emoji" font-size="20px" fill="#1e1e1e" text-anchor="start" style="white-space: pre;" direction="ltr" dominant-baseline="text-before-edge">TEXT</text></g><g transform="translate(915.6731208529324 767.7645263671875) rotate(0 46.875 12)"><text x="0" y="0" font-family="Cascadia, Segoe UI Emoji" font-size="20px" fill="#1e1e1e" text-anchor="start" style="white-space: pre;" direction="ltr" dominant-baseline="text-before-edge">category</text></g><g transform="translate(798.6731208529324 855.7645263671875) rotate(0 41.015625 12)"><text x="0" y="0" font-family="Cascadia, Segoe UI Emoji" font-size="20px" fill="#1e1e1e" text-anchor="start" style="white-space: pre;" direction="ltr" dominant-baseline="text-before-edge">DECIMAL</text></g><g stroke-linecap="round"><g transform="translate(781.6539412874728 892.7477220721544) rotate(0 177.5 -1.5)"><path d="M0.86 -0.5 C60.25 -1.17, 296.32 -2.86, 355.39 -3.34 M-0.15 -1.81 C59.2 -2.36, 295.51 -1.9, 354.65 -1.98" stroke="#1e1e1e" stroke-width="2" fill="none"></path></g></g><mask></mask><g transform="translate(803.6731208529324 901.7645263671875) rotate(0 23.4375 12)"><text x="0" y="0" font-family="Cascadia, Segoe UI Emoji" font-size="20px" fill="#1e1e1e" text-anchor="start" style="white-space: pre;" direction="ltr" dominant-baseline="text-before-edge">TEXT</text></g><g transform="translate(917.6731208529324 897.7645263671875) rotate(0 46.875 12)"><text x="0" y="0" font-family="Cascadia, Segoe UI Emoji" font-size="20px" fill="#1e1e1e" text-anchor="start" style="white-space: pre;" direction="ltr" dominant-baseline="text-before-edge">currency</text></g><g stroke-linecap="round"><g transform="translate(788.6731208529324 931.7645263671875) rotate(0 177 -2)"><path d="M-0.92 -0.66 C57.83 -1.16, 293.99 -2.55, 353.25 -3.09 M0.79 1.61 C59.87 0.79, 296.66 -4.04, 355.56 -4.74" stroke="#1e1e1e" stroke-width="2" fill="none"></path></g></g><mask></mask><g transform="translate(798.4856208529324 944.1645263671875) rotate(0 42.1875 9.600000000000023)"><text x="0" y="0" font-family="Cascadia, Segoe UI Emoji" font-size="16px" fill="#1e1e1e" text-anchor="start" style="white-space: pre;" direction="ltr" dominant-baseline="text-before-edge">TIMESTAMP</text></g><g transform="translate(923.6731208529324 948.7645263671875) rotate(0 70.3125 12)"><text x="0" y="0" font-family="Cascadia, Segoe UI Emoji" font-size="20px" fill="#1e1e1e" text-anchor="start" style="white-space: pre;" direction="ltr" dominant-baseline="text-before-edge">expense_date</text></g><g stroke-linecap="round"><g transform="translate(790.3532090417344 986.3266367010679) rotate(0 177 -2)"><path d="M1.17 0.94 C60.34 0.49, 295.75 -2.25, 354.57 -3.21 M0.32 0.39 C59.43 -0.36, 295.08 -4.19, 353.92 -4.92" stroke="#1e1e1e" stroke-width="2" fill="none"></path></g></g><mask></mask><g transform="translate(807.6731208529324 997.7645263671875) rotate(0 23.4375 12)"><text x="0" y="0" font-family="Cascadia, Segoe UI Emoji" font-size="20px" fill="#1e1e1e" text-anchor="start" style="white-space: pre;" direction="ltr" dominant-baseline="text-before-edge">TEXT</text></g><g transform="translate(920.6731208529324 998.7645263671875) rotate(0 64.453125 12)"><text x="0" y="0" font-family="Cascadia, Segoe UI Emoji" font-size="20px" fill="#1e1e1e" text-anchor="start" style="white-space: pre;" direction="ltr" dominant-baseline="text-before-edge">receipt_url</text></g><g transform="translate(809.2356208529324 1038.7645263671875) rotate(0 23.4375 12)"><text x="0" y="0" font-family="Cascadia, Segoe UI Emoji" font-size="20px" fill="#1e1e1e" text-anchor="start" style="white-space: pre;" direction="ltr" dominant-baseline="text-before-edge">TEXT</text></g><g transform="translate(923.6731208529324 1045.7645263671875) rotate(0 41.015625 12)"><text x="0" y="0" font-family="Cascadia, Segoe UI Emoji" font-size="20px" fill="#1e1e1e" text-anchor="start" style="white-space: pre;" direction="ltr" dominant-baseline="text-before-edge">comment</text></g><g stroke-linecap="round"><g transform="translate(782.2296616920129 1030.7554815306469) rotate(0 177 -2)"><path d="M0.46 -0.77 C59.58 -1.62, 295.06 -4.19, 354.09 -4.57 M-0.75 1.44 C58.27 0.69, 294.03 -2.28, 353.19 -3.34" stroke="#1e1e1e" stroke-width="2" fill="none"></path></g></g><mask></mask><g stroke-linecap="round" transform="translate(805.1278791855233 250.36795963050326) rotate(0 179 146.5)"><path d="M32 0 C132.07 1.41, 229.66 1.29, 326 0 M32 0 C135.14 0.06, 237.97 0, 326 0 M326 0 C347.17 -0.59, 356.46 8.98, 358 32 M326 0 C349.05 -1.52, 358.23 11.42, 358 32 M358 32 C358.38 110.38, 356.4 189.64, 358 261 M358 32 C359.83 122.61, 359.4 212.84, 358 261 M358 261 C357.85 283.72, 345.64 293.31, 326 293 M358 261 C356.11 281.05, 345.57 294.89, 326 293 M326 293 C267.33 291.75, 206.29 291.98, 32 293 M326 293 C244.41 292.19, 164.1 292.09, 32 293 M32 293 C11.4 291.98, 1 281.47, 0 261 M32 293 C8.7 293.13, -1.31 282.54, 0 261 M0 261 C-2.87 193.62, 0.01 128.08, 0 32 M0 261 C0.29 198.1, 0.88 132.97, 0 32 M0 32 C-1.89 9.85, 11.75 1.97, 32 0 M0 32 C1.85 11.59, 8.8 1.25, 32 0" stroke="#1e1e1e" stroke-width="2" fill="none"></path></g><g transform="translate(845.1278791855233 258.36795963050326) rotate(0 140.625 12)"><text x="0" y="0" font-family="Cascadia, Segoe UI Emoji" font-size="20px" fill="#1e1e1e" text-anchor="start" style="white-space: pre;" direction="ltr" dominant-baseline="text-before-edge">expense_report_approvals</text></g><g stroke-linecap="round"><g transform="translate(805.0204640592636 289.02927315758075) rotate(0 180.5 -1.5)"><path d="M0.3 0.61 C60.57 0.19, 301.83 -2.3, 361.98 -2.78 M-1 -0.12 C59.16 -0.89, 301.29 -4.11, 361.54 -4.79" stroke="#1e1e1e" stroke-width="2" fill="none"></path></g></g><mask></mask><g transform="translate(819.6903791855233 336.36795963050326) rotate(0 23.4375 12)"><text x="0" y="0" font-family="Cascadia, Segoe UI Emoji" font-size="20px" fill="#1e1e1e" text-anchor="start" style="white-space: pre;" direction="ltr" dominant-baseline="text-before-edge">UUID</text></g><g transform="translate(823.6903791855228 374.36795963050326) rotate(0 41.015625 12)"><text x="0" y="0" font-family="Cascadia, Segoe UI Emoji" font-size="20px" fill="#1e1e1e" text-anchor="start" style="white-space: pre;" direction="ltr" dominant-baseline="text-before-edge">INTEGER</text></g><g transform="translate(817.6903791855228 455.3679596305035) rotate(0 23.4375 12)"><text x="0" y="0" font-family="Cascadia, Segoe UI Emoji" font-size="20px" fill="#1e1e1e" text-anchor="start" style="white-space: pre;" direction="ltr" dominant-baseline="text-before-edge">TEXT</text></g><g stroke-linecap="round"><g transform="translate(911.2195752793554 289.35919530914634) rotate(0 0 127.5)"><path d="M-0.1 -0.35 C-0.23 41.87, -1.09 211.56, -0.92 253.99 M-1.61 -1.59 C-1.36 40.7, 0.94 212.21, 1.31 254.99" stroke="#1e1e1e" stroke-width="2" fill="none"></path></g></g><mask></mask><g stroke-linecap="round"><g transform="translate(808.4882735863333 326.5913908309615) rotate(0 176 -0.5)"><path d="M-0.92 -1.01 C57.91 -1.25, 294.06 -1.86, 352.9 -1.79 M0.8 1.07 C59.56 1, 293.98 -0.04, 352.42 -0.67" stroke="#1e1e1e" stroke-width="2" fill="none"></path></g></g><mask></mask><g stroke-linecap="round"><g transform="translate(807.4575553077415 370.99084935166866) rotate(0 178 -1)"><path d="M0.9 -0.79 C60.4 -0.89, 296.84 -1.41, 356.12 -1.61 M-0.09 1.4 C59.35 1.02, 295.87 -3.18, 355.24 -3.53" stroke="#1e1e1e" stroke-width="2" fill="none"></path></g></g><mask></mask><g stroke-linecap="round"><g transform="translate(808.632452166374 446.3103182859859) rotate(0 176.5 -2.5)"><path d="M0.12 0.39 C58.9 -0.31, 294.87 -4.15, 353.55 -5 M-1.28 -0.45 C57.31 -0.88, 293.57 -3, 352.9 -3.47" stroke="#1e1e1e" stroke-width="2" fill="none"></path></g></g><mask></mask><g transform="translate(942.1278791855233 336.36795963050326) rotate(0 52.734375 12)"><text x="0" y="0" font-family="Cascadia, Segoe UI Emoji" font-size="20px" fill="#1e1e1e" text-anchor="start" style="white-space: pre;" direction="ltr" dominant-baseline="text-before-edge">tenant_id</text></g><g transform="translate(939.3935041855233 375.36795963050326) rotate(0 64.453125 12)"><text x="0" y="0" font-family="Cascadia, Segoe UI Emoji" font-size="20px" fill="#1e1e1e" text-anchor="start" style="white-space: pre;" direction="ltr" dominant-baseline="text-before-edge">approver_id</text></g><g transform="translate(946.1278791855233 455.36795963050326) rotate(0 35.15625 12)"><text x="0" y="0" font-family="Cascadia, Segoe UI Emoji" font-size="20px" fill="#1e1e1e" text-anchor="start" style="white-space: pre;" direction="ltr" dominant-baseline="text-before-edge">status</text></g><g stroke-linecap="round"><g transform="translate(807.2907489449348 491.7117190735321) rotate(0 177.5 -1.5)"><path d="M-0.66 1.13 C58.76 0.98, 296.54 -1.41, 355.9 -2 M1.19 0.67 C60.59 0.31, 296.46 -2.74, 355.43 -3.6" stroke="#1e1e1e" stroke-width="2" fill="none"></path></g></g><mask></mask><g stroke-linecap="round"><g transform="translate(804.6114808166866 407.09230630399156) rotate(0 179.5 -0.5)"><path d="M0.9 1 C60.93 0.73, 299.84 -0.21, 359.51 -0.44 M-0.08 0.47 C59.89 0.37, 299.14 -1.79, 358.83 -2.28" stroke="#1e1e1e" stroke-width="2" fill="none"></path></g></g><mask></mask><g transform="translate(820.5997889431659 296.8138795904954) rotate(0 41.015625 12)"><text x="0" y="0" font-family="Cascadia, Segoe UI Emoji" font-size="20px" fill="#1e1e1e" text-anchor="start" style="white-space: pre;" direction="ltr" dominant-baseline="text-before-edge">INTEGER</text></g><g transform="translate(943.5997889431659 298.8138795904954) rotate(0 99.609375 12)"><text x="0" y="0" font-family="Cascadia, Segoe UI Emoji" font-size="20px" fill="#1e1e1e" text-anchor="start" style="white-space: pre;" direction="ltr" dominant-baseline="text-before-edge">expense_report_id</text></g><g transform="translate(944.6130659839304 499.86795963050326) rotate(0 35.15625 12)"><text x="0" y="0" font-family="Cascadia, Segoe UI Emoji" font-size="20px" fill="#1e1e1e" text-anchor="start" style="white-space: pre;" direction="ltr" dominant-baseline="text-before-edge">reason</text></g><g transform="translate(937.1483828883432 414.63248599769076) rotate(0 64.453125 12)"><text x="0" y="0" font-family="Cascadia, Segoe UI Emoji" font-size="20px" fill="#1e1e1e" text-anchor="start" style="white-space: pre;" direction="ltr" dominant-baseline="text-before-edge">approved_at</text></g><g transform="translate(820.1483828883432 502.63248599769076) rotate(0 23.4375 12)"><text x="0" y="0" font-family="Cascadia, Segoe UI Emoji" font-size="20px" fill="#1e1e1e" text-anchor="start" style="white-space: pre;" direction="ltr" dominant-baseline="text-before-edge">TEXT</text></g><g transform="translate(818.4856208529324 416.1645263671875) rotate(0 42.1875 9.599999999999994)"><text x="0" y="0" font-family="Cascadia, Segoe UI Emoji" font-size="16px" fill="#1e1e1e" text-anchor="start" style="white-space: pre;" direction="ltr" dominant-baseline="text-before-edge">TIMESTAMP</text></g><g stroke-linecap="round"><g transform="translate(607.6731208529324 697.734375) rotate(0 88 1)"><path d="M-0.17 1.05 C29.17 1.23, 145.63 1.95, 174.99 2.25 M-1.72 0.56 C28.07 0.86, 147.68 0.19, 177.18 0.26" stroke="#f08c00" stroke-width="2" fill="none"></path></g></g><mask></mask><g stroke-linecap="round"><g transform="translate(614.6731208529324 345.734375) rotate(0 95 -1)"><path d="M-0.54 -0.38 C31.15 -0.77, 157.37 -2.02, 189.23 -2.45 M1.37 -1.62 C33.53 -1.85, 160.08 -1.06, 191.53 -1.14" stroke="#f08c00" stroke-width="2" fill="none"></path></g></g><mask></mask><g stroke-linecap="round"><g transform="translate(801.6731208529324 108.734375) rotate(0 -32 153.5)"><path d="M0.3 0.38 C-10.22 3.56, -51.47 -29.65, -62.81 18.14 C-74.16 65.92, -79.09 239.14, -67.78 287.1 C-56.46 335.06, -6.95 302.69, 5.08 305.89 M-0.99 -0.47 C-11.6 2.5, -51.9 -31.03, -63.14 16.61 C-74.38 64.24, -79.32 237.04, -68.43 285.34 C-57.53 333.64, -9.7 302.91, 2.23 306.41" stroke="#f08c00" stroke-width="2" fill="none"></path></g></g><mask></mask><g stroke-linecap="round"><g transform="translate(1109.6731208529322 82.77142684044782) rotate(0 70 398.20560326105084)"><path d="M0.63 -0.96 C23.71 6.68, 118.43 -79.96, 139.56 44.83 C160.68 169.61, 145.17 622.36, 127.38 747.75 C109.59 873.14, 48.37 789.03, 32.82 797.17 M-0.49 1.15 C22.29 9.08, 117.16 -78.24, 138.38 46.36 C159.59 170.96, 144.38 623.97, 126.81 748.75 C109.24 873.52, 48.58 786.95, 32.98 795.01" stroke="#f08c00" stroke-width="2" fill="none"></path></g></g><mask></mask></svg>