<svg xmlns="http://www.w3.org/2000/svg" viewBox="0 0 48 48"><g data-name="sticky note"><path d="M44 3H28V1a1 1 0 0 0-1-1h-6a1 1 0 0 0-1 1v2H4a1 1 0 0 0-1 1v43a1 1 0 0 0 1 1c34.25 0 32.09 0 32.38-.08s-.4.51 8.33-8.21C45.17 39.24 45 41 45 4a1 1 0 0 0-1-1zm-1 2v3H28V5zM22 2h4v8h-4zm-2 3v3H5V5zM5 10h15v1a1 1 0 0 0 1 1h6a1 1 0 0 0 1-1v-1h15v28h-7a1 1 0 0 0-1 1v7H5zm32 34.59V40h4.59z"/><path d="M9 18h30a1 1 0 0 0 0-2H9a1 1 0 0 0 0 2zM9 24h30a1 1 0 0 0 0-2H9a1 1 0 0 0 0 2zM9 30h30a1 1 0 0 0 0-2H9a1 1 0 0 0 0 2zM24 34H9a1 1 0 0 0 0 2h15a1 1 0 0 0 0-2z"/></g></svg>