<svg width="641" height="215" viewBox="0 0 641 215" fill="none" xmlns="http://www.w3.org/2000/svg">
  <path
    d="M11.4145 4.6614V13.3887H10.3577V5.76935H10.3066L8.17588 7.18413V6.11026L10.3577 4.6614H11.4145ZM14.9259 12.1955L14.8577 12.6557C14.8094 12.9796 14.7355 13.3262 14.6361 13.6955C14.5395 14.0648 14.4387 14.4128 14.3335 14.7395C14.2284 15.0662 14.1418 15.3262 14.0736 15.5194H13.3066C13.3435 15.3375 13.3918 15.0975 13.4514 14.7992C13.5111 14.5009 13.5708 14.1671 13.6304 13.7978C13.6929 13.4313 13.7441 13.0563 13.7838 12.6728L13.835 12.1955H14.9259ZM19.4685 4.54208C19.8264 4.54492 20.1844 4.6131 20.5424 4.74663C20.9003 4.88015 21.227 5.10174 21.5225 5.4114C21.8179 5.71822 22.0551 6.13725 22.2341 6.6685C22.4131 7.19975 22.5026 7.86594 22.5026 8.66708C22.5026 9.44265 22.4287 10.1316 22.281 10.7338C22.1361 11.3333 21.9259 11.839 21.6503 12.2509C21.3776 12.6628 21.0452 12.9753 20.6531 13.1884C20.2639 13.4015 19.8236 13.508 19.3321 13.508C18.8435 13.508 18.4074 13.4114 18.0239 13.2182C17.6432 13.0222 17.3307 12.7509 17.0864 12.4043C16.8449 12.0549 16.6901 11.65 16.6219 11.1898H17.6617C17.7554 11.5904 17.9415 11.9213 18.2199 12.1827C18.5012 12.4412 18.8719 12.5705 19.3321 12.5705C20.0054 12.5705 20.5367 12.2765 20.9259 11.6884C21.3179 11.1003 21.5139 10.2694 21.5139 9.19549H21.4458C21.2867 9.43413 21.0978 9.64009 20.879 9.81339C20.6603 9.98668 20.4174 10.1202 20.1503 10.214C19.8833 10.3077 19.5992 10.3546 19.298 10.3546C18.798 10.3546 18.3392 10.231 17.9216 9.98384C17.5068 9.73384 17.1745 9.39151 16.9245 8.95685C16.6773 8.51935 16.5537 8.01935 16.5537 7.45685C16.5537 6.92276 16.673 6.43413 16.9117 5.99094C17.1531 5.54492 17.4912 5.18981 17.9259 4.9256C18.3634 4.6614 18.8776 4.53356 19.4685 4.54208ZM19.4685 5.47958C19.1105 5.47958 18.7881 5.56907 18.5012 5.74805C18.2171 5.92418 17.9912 6.16282 17.8236 6.46396C17.6588 6.76225 17.5764 7.09322 17.5764 7.45685C17.5764 7.82049 17.656 8.15146 17.8151 8.44975C17.977 8.74521 18.1972 8.981 18.4756 9.15714C18.7568 9.33043 19.0764 9.41708 19.4344 9.41708C19.7043 9.41708 19.9557 9.36452 20.1887 9.25941C20.4216 9.15146 20.6247 9.00515 20.798 8.82049C20.9742 8.63299 21.112 8.42134 21.2114 8.18555C21.3108 7.94691 21.3605 7.69833 21.3605 7.43981C21.3605 7.0989 21.2781 6.7793 21.1134 6.481C20.9514 6.18271 20.727 5.94123 20.4401 5.75657C20.156 5.57191 19.8321 5.47958 19.4685 5.47958ZM26.9056 13.508C26.4056 13.508 25.9553 13.4086 25.5548 13.2097C25.1542 13.0108 24.8332 12.7381 24.5917 12.3915C24.3502 12.0449 24.2181 11.65 24.1954 11.2069H25.2181C25.2579 11.6017 25.4369 11.9284 25.7551 12.187C26.0761 12.4426 26.4596 12.5705 26.9056 12.5705C27.2636 12.5705 27.5818 12.4867 27.8602 12.3191C28.1414 12.1515 28.3616 11.9213 28.5207 11.6287C28.6826 11.3333 28.7636 10.9995 28.7636 10.6273C28.7636 10.2466 28.6798 9.90714 28.5122 9.60884C28.3474 9.30771 28.1201 9.07049 27.8303 8.89719C27.5406 8.7239 27.2096 8.63583 26.8375 8.63299C26.5704 8.63015 26.2963 8.67134 26.015 8.75657C25.7338 8.83896 25.5022 8.94549 25.3204 9.07617L24.3318 8.95685L24.8602 4.6614H29.3943V5.5989H25.7465L25.4397 8.17276H25.4909C25.6698 8.03072 25.8943 7.91282 26.1642 7.81907C26.434 7.72532 26.7153 7.67844 27.0079 7.67844C27.542 7.67844 28.0178 7.80629 28.4355 8.06197C28.8559 8.31481 29.1855 8.6614 29.4241 9.10174C29.6656 9.54208 29.7863 10.0449 29.7863 10.6103C29.7863 11.1671 29.6613 11.6642 29.4113 12.1017C29.1642 12.5364 28.8232 12.8801 28.3886 13.133C27.9539 13.383 27.4596 13.508 26.9056 13.508ZM34.3257 13.508C33.6837 13.508 33.1368 13.3333 32.6851 12.9838C32.2334 12.6316 31.8882 12.1216 31.6496 11.454C31.411 10.7836 31.2916 9.9739 31.2916 9.02504C31.2916 8.08185 31.411 7.27646 31.6496 6.60884C31.8911 5.93839 32.2377 5.42702 32.6894 5.07475C33.1439 4.71964 33.6894 4.54208 34.3257 4.54208C34.9621 4.54208 35.5061 4.71964 35.9578 5.07475C36.4124 5.42702 36.759 5.93839 36.9976 6.60884C37.2391 7.27646 37.3598 8.08185 37.3598 9.02504C37.3598 9.9739 37.2405 10.7836 37.0019 11.454C36.7632 12.1216 36.4181 12.6316 35.9664 12.9838C35.5147 13.3333 34.9678 13.508 34.3257 13.508ZM34.3257 12.5705C34.9621 12.5705 35.4564 12.2637 35.8087 11.65C36.161 11.0364 36.3371 10.1614 36.3371 9.02504C36.3371 8.26935 36.2561 7.62589 36.0942 7.09464C35.9351 6.56339 35.705 6.15856 35.4039 5.88015C35.1056 5.60174 34.7462 5.46254 34.3257 5.46254C33.6951 5.46254 33.2022 5.77361 32.847 6.39577C32.4919 7.01509 32.3144 7.89151 32.3144 9.02504C32.3144 9.78072 32.3939 10.4228 32.553 10.9512C32.7121 11.4796 32.9408 11.8816 33.2391 12.1571C33.5402 12.4327 33.9024 12.5705 34.3257 12.5705Z"
    fill="white" />
  <path
    d="M11.309 61.2884V70.0156H10.2522V62.3963H10.2011L8.07041 63.8111V62.7372L10.2522 61.2884H11.309ZM14.8204 68.8224L14.7522 69.2827C14.7039 69.6065 14.6301 69.9531 14.5306 70.3224C14.434 70.6918 14.3332 71.0398 14.2281 71.3665C14.123 71.6932 14.0363 71.9531 13.9681 72.1463H13.2011C13.238 71.9645 13.2863 71.7244 13.346 71.4261C13.4056 71.1278 13.4653 70.794 13.525 70.4247C13.5875 70.0582 13.6386 69.6832 13.6784 69.2997L13.7295 68.8224H14.8204ZM19.2874 70.1349C18.7249 70.1349 18.2235 70.0384 17.7831 69.8452C17.3456 69.652 16.9976 69.3835 16.7391 69.0398C16.4834 68.6932 16.3442 68.2912 16.3215 67.8338H17.3953C17.4181 68.1151 17.5147 68.358 17.6851 68.5625C17.8556 68.7642 18.0786 68.9205 18.3541 69.0312C18.6297 69.142 18.9351 69.1974 19.2703 69.1974C19.6453 69.1974 19.9777 69.1321 20.2675 69.0014C20.5573 68.8707 20.7845 68.6889 20.9493 68.456C21.1141 68.223 21.1965 67.9531 21.1965 67.6463C21.1965 67.3253 21.1169 67.0426 20.9578 66.7983C20.7987 66.5511 20.5658 66.358 20.259 66.2188C19.9522 66.0795 19.5772 66.0099 19.134 66.0099H18.4351V65.0724H19.134C19.4806 65.0724 19.7845 65.0099 20.0459 64.8849C20.3101 64.7599 20.5161 64.5838 20.6638 64.3565C20.8144 64.1293 20.8897 63.8622 20.8897 63.5554C20.8897 63.2599 20.8243 63.0028 20.6936 62.7841C20.5629 62.5653 20.3783 62.3949 20.1397 62.2727C19.9039 62.1506 19.6254 62.0895 19.3044 62.0895C19.0033 62.0895 18.7192 62.1449 18.4522 62.2557C18.1879 62.3636 17.972 62.5213 17.8044 62.7287C17.6368 62.9332 17.5459 63.1804 17.5317 63.4702H16.509C16.526 63.0128 16.6638 62.6122 16.9223 62.2685C17.1808 61.9219 17.5189 61.652 17.9365 61.4588C18.357 61.2656 18.8186 61.169 19.3215 61.169C19.8612 61.169 20.3243 61.2784 20.7107 61.4972C21.097 61.7131 21.3939 61.9986 21.6013 62.3537C21.8087 62.7088 21.9124 63.0923 21.9124 63.5043C21.9124 63.9957 21.7831 64.4148 21.5246 64.7614C21.2689 65.108 20.9209 65.348 20.4806 65.4815V65.5497C21.0317 65.6406 21.4621 65.875 21.7718 66.2528C22.0814 66.6278 22.2362 67.0923 22.2362 67.6463C22.2362 68.1207 22.107 68.5469 21.8485 68.9247C21.5928 69.2997 21.2433 69.5952 20.8002 69.8111C20.357 70.027 19.8527 70.1349 19.2874 70.1349ZM26.8257 70.1349C26.1837 70.1349 25.6368 69.9602 25.1851 69.6108C24.7334 69.2585 24.3882 68.7486 24.1496 68.081C23.911 67.4105 23.7916 66.6009 23.7916 65.652C23.7916 64.7088 23.911 63.9034 24.1496 63.2358C24.3911 62.5653 24.7377 62.054 25.1894 61.7017C25.6439 61.3466 26.1894 61.169 26.8257 61.169C27.4621 61.169 28.0061 61.3466 28.4578 61.7017C28.9124 62.054 29.259 62.5653 29.4976 63.2358C29.7391 63.9034 29.8598 64.7088 29.8598 65.652C29.8598 66.6009 29.7405 67.4105 29.5019 68.081C29.2632 68.7486 28.9181 69.2585 28.4664 69.6108C28.0147 69.9602 27.4678 70.1349 26.8257 70.1349ZM26.8257 69.1974C27.4621 69.1974 27.9564 68.8906 28.3087 68.277C28.661 67.6634 28.8371 66.7884 28.8371 65.652C28.8371 64.8963 28.7561 64.2528 28.5942 63.7216C28.4351 63.1903 28.205 62.7855 27.9039 62.5071C27.6056 62.2287 27.2462 62.0895 26.8257 62.0895C26.1951 62.0895 25.7022 62.4006 25.347 63.0227C24.9919 63.642 24.8144 64.5185 24.8144 65.652C24.8144 66.4077 24.8939 67.0497 25.053 67.5781C25.2121 68.1065 25.4408 68.5085 25.7391 68.7841C26.0402 69.0597 26.4024 69.1974 26.8257 69.1974ZM34.3257 70.1349C33.6837 70.1349 33.1368 69.9602 32.6851 69.6108C32.2334 69.2585 31.8882 68.7486 31.6496 68.081C31.411 67.4105 31.2916 66.6009 31.2916 65.652C31.2916 64.7088 31.411 63.9034 31.6496 63.2358C31.8911 62.5653 32.2377 62.054 32.6894 61.7017C33.1439 61.3466 33.6894 61.169 34.3257 61.169C34.9621 61.169 35.5061 61.3466 35.9578 61.7017C36.4124 62.054 36.759 62.5653 36.9976 63.2358C37.2391 63.9034 37.3598 64.7088 37.3598 65.652C37.3598 66.6009 37.2405 67.4105 37.0019 68.081C36.7632 68.7486 36.4181 69.2585 35.9664 69.6108C35.5147 69.9602 34.9678 70.1349 34.3257 70.1349ZM34.3257 69.1974C34.9621 69.1974 35.4564 68.8906 35.8087 68.277C36.161 67.6634 36.3371 66.7884 36.3371 65.652C36.3371 64.8963 36.2561 64.2528 36.0942 63.7216C35.9351 63.1903 35.705 62.7855 35.4039 62.5071C35.1056 62.2287 34.7462 62.0895 34.3257 62.0895C33.6951 62.0895 33.2022 62.4006 32.847 63.0227C32.4919 63.642 32.3144 64.5185 32.3144 65.652C32.3144 66.4077 32.3939 67.0497 32.553 67.5781C32.7121 68.1065 32.9408 68.5085 33.2391 68.7841C33.5402 69.0597 33.9024 69.1974 34.3257 69.1974Z"
    fill="white" />
  <path
    d="M19.5876 126.761C19.2297 126.755 18.8717 126.687 18.5138 126.556C18.1558 126.426 17.8291 126.206 17.5336 125.896C17.2382 125.583 17.001 125.161 16.822 124.63C16.643 124.096 16.5535 123.426 16.5535 122.619C16.5535 121.846 16.626 121.161 16.7709 120.565C16.9157 119.965 17.126 119.461 17.4015 119.052C17.6771 118.64 18.0095 118.328 18.3987 118.115C18.7907 117.902 19.2325 117.795 19.724 117.795C20.2126 117.795 20.6473 117.893 21.028 118.089C21.4115 118.282 21.724 118.552 21.9655 118.899C22.2069 119.245 22.3632 119.644 22.4342 120.096H21.3944C21.2978 119.704 21.1103 119.379 20.8319 119.12C20.5535 118.862 20.1842 118.733 19.724 118.733C19.0478 118.733 18.5152 119.027 18.126 119.615C17.7396 120.203 17.545 121.028 17.5422 122.09H17.6103C17.7694 121.849 17.9584 121.643 18.1771 121.473C18.3987 121.299 18.643 121.166 18.9101 121.072C19.1771 120.978 19.4598 120.931 19.7581 120.931C20.2581 120.931 20.7155 121.056 21.1302 121.306C21.545 121.554 21.8774 121.896 22.1274 122.333C22.3774 122.768 22.5024 123.267 22.5024 123.829C22.5024 124.369 22.3817 124.863 22.1402 125.312C21.8987 125.758 21.5592 126.113 21.1217 126.377C20.6871 126.639 20.1757 126.767 19.5876 126.761ZM19.5876 125.823C19.9456 125.823 20.2666 125.734 20.5507 125.555C20.8376 125.376 21.0635 125.136 21.2282 124.835C21.3959 124.534 21.4797 124.198 21.4797 123.829C21.4797 123.468 21.3987 123.14 21.2368 122.845C21.0777 122.546 20.8575 122.309 20.5763 122.133C20.2978 121.957 19.9797 121.869 19.6217 121.869C19.3518 121.869 19.1004 121.923 18.8675 122.031C18.6345 122.136 18.43 122.281 18.2538 122.465C18.0805 122.65 17.9442 122.862 17.8447 123.1C17.7453 123.336 17.6956 123.585 17.6956 123.846C17.6956 124.193 17.7765 124.517 17.9385 124.818C18.1032 125.119 18.3277 125.362 18.6118 125.546C18.8987 125.731 19.224 125.823 19.5876 125.823ZM26.9054 126.761C26.4054 126.761 25.9552 126.661 25.5546 126.463C25.154 126.264 24.833 125.991 24.5915 125.644C24.3501 125.298 24.2179 124.903 24.1952 124.46H25.2179C25.2577 124.855 25.4367 125.181 25.7549 125.44C26.0759 125.696 26.4594 125.823 26.9054 125.823C27.2634 125.823 27.5816 125.74 27.86 125.572C28.1412 125.404 28.3614 125.174 28.5205 124.882C28.6824 124.586 28.7634 124.252 28.7634 123.88C28.7634 123.5 28.6796 123.16 28.512 122.862C28.3472 122.561 28.1199 122.323 27.8302 122.15C27.5404 121.977 27.2094 121.889 26.8373 121.886C26.5702 121.883 26.2961 121.924 26.0148 122.009C25.7336 122.092 25.502 122.198 25.3202 122.329L24.3316 122.21L24.86 117.914H29.3941V118.852H25.7464L25.4395 121.426H25.4907C25.6697 121.284 25.8941 121.166 26.164 121.072C26.4339 120.978 26.7151 120.931 27.0077 120.931C27.5418 120.931 28.0177 121.059 28.4353 121.315C28.8557 121.568 29.1853 121.914 29.4239 122.355C29.6654 122.795 29.7861 123.298 29.7861 123.863C29.7861 124.42 29.6611 124.917 29.4111 125.355C29.164 125.789 28.8231 126.133 28.3884 126.386C27.9537 126.636 27.4594 126.761 26.9054 126.761ZM34.3255 126.761C33.6835 126.761 33.1366 126.586 32.6849 126.237C32.2332 125.884 31.888 125.375 31.6494 124.707C31.4108 124.036 31.2915 123.227 31.2915 122.278C31.2915 121.335 31.4108 120.529 31.6494 119.862C31.8909 119.191 32.2375 118.68 32.6892 118.328C33.1437 117.973 33.6892 117.795 34.3255 117.795C34.9619 117.795 35.5059 117.973 35.9577 118.328C36.4122 118.68 36.7588 119.191 36.9974 119.862C37.2389 120.529 37.3596 121.335 37.3596 122.278C37.3596 123.227 37.2403 124.036 37.0017 124.707C36.763 125.375 36.4179 125.884 35.9662 126.237C35.5145 126.586 34.9676 126.761 34.3255 126.761ZM34.3255 125.823C34.9619 125.823 35.4562 125.517 35.8085 124.903C36.1608 124.289 36.3369 123.414 36.3369 122.278C36.3369 121.522 36.2559 120.879 36.094 120.348C35.9349 119.816 35.7048 119.411 35.4037 119.133C35.1054 118.855 34.746 118.715 34.3255 118.715C33.6949 118.715 33.202 119.027 32.8469 119.649C32.4917 120.268 32.3142 121.144 32.3142 122.278C32.3142 123.034 32.3937 123.676 32.5528 124.204C32.7119 124.733 32.9406 125.134 33.2389 125.41C33.54 125.686 33.9023 125.823 34.3255 125.823Z"
    fill="white" />
  <path
    d="M34.3249 183.388C33.6828 183.388 33.136 183.213 32.6843 182.864C32.2326 182.511 31.8874 182.002 31.6488 181.334C31.4101 180.663 31.2908 179.854 31.2908 178.905C31.2908 177.962 31.4101 177.156 31.6488 176.489C31.8902 175.818 32.2368 175.307 32.6885 174.955C33.1431 174.6 33.6885 174.422 34.3249 174.422C34.9613 174.422 35.5053 174.6 35.957 174.955C36.4115 175.307 36.7581 175.818 36.9968 176.489C37.2382 177.156 37.359 177.962 37.359 178.905C37.359 179.854 37.2397 180.663 37.001 181.334C36.7624 182.002 36.4172 182.511 35.9655 182.864C35.5138 183.213 34.9669 183.388 34.3249 183.388ZM34.3249 182.45C34.9613 182.45 35.4556 182.144 35.8078 181.53C36.1601 180.916 36.3363 180.041 36.3363 178.905C36.3363 178.149 36.2553 177.506 36.0934 176.975C35.9343 176.443 35.7042 176.038 35.403 175.76C35.1047 175.482 34.7453 175.342 34.3249 175.342C33.6942 175.342 33.2013 175.653 32.8462 176.276C32.4911 176.895 32.3135 177.771 32.3135 178.905C32.3135 179.661 32.3931 180.303 32.5522 180.831C32.7113 181.359 32.94 181.761 33.2382 182.037C33.5394 182.313 33.9016 182.45 34.3249 182.45Z"
    fill="white" />
  <line x1="47.7732" y1="8.9043" x2="640.5" y2="8.9043" stroke="#333333" />
  <line x1="47.7732" y1="65.5303" x2="640.5" y2="65.5303" stroke="#333333" />
  <line x1="47.7732" y1="122.157" x2="640.5" y2="122.157" stroke="#333333" />
  <line x1="47.7732" y1="178.783" x2="640.5" y2="178.783" stroke="#333333" />
  <path
    d="M73.8583 201.586H75.1196L78.0856 208.831H78.1878L81.1537 201.586H82.4151V210.313H81.4265V203.683H81.3412L78.614 210.313H77.6594L74.9321 203.683H74.8469V210.313H73.8583V201.586ZM86.3238 210.467C85.9091 210.467 85.5326 210.389 85.1946 210.233C84.8565 210.073 84.588 209.845 84.3892 209.546C84.1903 209.245 84.0909 208.882 84.0909 208.456C84.0909 208.081 84.1647 207.777 84.3125 207.544C84.4602 207.308 84.6576 207.123 84.9048 206.99C85.152 206.856 85.4247 206.757 85.723 206.691C86.0241 206.623 86.3267 206.569 86.6307 206.529C87.0284 206.478 87.3508 206.44 87.598 206.414C87.848 206.386 88.0298 206.339 88.1434 206.274C88.2599 206.208 88.3182 206.095 88.3182 205.933V205.899C88.3182 205.478 88.2031 205.152 87.973 204.919C87.7457 204.686 87.4005 204.569 86.9375 204.569C86.4574 204.569 86.0809 204.674 85.8082 204.884C85.5355 205.095 85.3437 205.319 85.2329 205.558L84.2784 205.217C84.4488 204.819 84.6761 204.509 84.9602 204.288C85.2471 204.063 85.5596 203.907 85.8977 203.819C86.2386 203.728 86.5738 203.683 86.9034 203.683C87.1136 203.683 87.3551 203.708 87.6278 203.759C87.9034 203.808 88.169 203.909 88.4247 204.062C88.6832 204.215 88.8977 204.447 89.0682 204.757C89.2386 205.066 89.3238 205.481 89.3238 206.001V210.313H88.3182V209.427H88.267C88.1988 209.569 88.0852 209.721 87.9261 209.883C87.767 210.045 87.5554 210.183 87.2912 210.296C87.027 210.41 86.7045 210.467 86.3238 210.467ZM86.4772 209.563C86.875 209.563 87.2102 209.485 87.4829 209.329C87.7585 209.173 87.9659 208.971 88.1051 208.724C88.2471 208.477 88.3182 208.217 88.3182 207.944V207.024C88.2755 207.075 88.1818 207.122 88.0369 207.164C87.8949 207.204 87.7301 207.24 87.5426 207.271C87.3579 207.299 87.1775 207.325 87.0014 207.348C86.8281 207.367 86.6875 207.384 86.5795 207.399C86.3182 207.433 86.0738 207.488 85.8466 207.565C85.6221 207.639 85.4403 207.751 85.3011 207.902C85.1647 208.049 85.0966 208.251 85.0966 208.507C85.0966 208.856 85.2258 209.12 85.4843 209.299C85.7457 209.475 86.0767 209.563 86.4772 209.563ZM91.5728 212.768C91.4023 212.768 91.2503 212.754 91.1168 212.725C90.9833 212.7 90.8909 212.674 90.8398 212.649L91.0955 211.762C91.3398 211.825 91.5557 211.848 91.7432 211.831C91.9307 211.813 92.0969 211.73 92.2418 211.579C92.3895 211.431 92.5245 211.191 92.6466 210.859L92.8341 210.348L90.4137 203.768H91.5046L93.3114 208.984H93.3796L95.1864 203.768H96.2773L93.4989 211.268C93.3739 211.606 93.2191 211.886 93.0344 212.108C92.8498 212.332 92.6353 212.498 92.3909 212.606C92.1495 212.714 91.8767 212.768 91.5728 212.768Z"
    fill="white" />
  <path
    d="M160.099 201.586H161.156V207.825C161.156 208.382 161.053 208.855 160.849 209.244C160.644 209.633 160.356 209.929 159.984 210.13C159.612 210.332 159.173 210.433 158.667 210.433C158.19 210.433 157.765 210.346 157.393 210.173C157.021 209.997 156.728 209.747 156.515 209.423C156.302 209.099 156.195 208.714 156.195 208.268H157.235C157.235 208.515 157.296 208.731 157.418 208.916C157.543 209.098 157.714 209.24 157.93 209.342C158.146 209.444 158.391 209.495 158.667 209.495C158.971 209.495 159.23 209.431 159.443 209.304C159.656 209.176 159.818 208.988 159.928 208.741C160.042 208.491 160.099 208.186 160.099 207.825V201.586ZM167.262 207.637V203.768H168.268V210.313H167.262V209.206H167.194C167.041 209.538 166.802 209.821 166.478 210.054C166.154 210.284 165.745 210.399 165.251 210.399C164.842 210.399 164.478 210.309 164.16 210.13C163.842 209.948 163.592 209.676 163.41 209.312C163.228 208.946 163.137 208.484 163.137 207.927V203.768H164.143V207.859C164.143 208.336 164.276 208.717 164.543 209.001C164.813 209.285 165.157 209.427 165.575 209.427C165.825 209.427 166.079 209.363 166.337 209.235C166.599 209.108 166.818 208.911 166.994 208.647C167.173 208.383 167.262 208.046 167.262 207.637ZM171.116 206.376V210.313H170.11V203.768H171.081V204.791H171.167C171.32 204.458 171.553 204.191 171.866 203.99C172.178 203.785 172.581 203.683 173.076 203.683C173.519 203.683 173.907 203.774 174.239 203.956C174.572 204.134 174.83 204.407 175.015 204.774C175.199 205.137 175.292 205.598 175.292 206.154V210.313H174.286V206.223C174.286 205.708 174.152 205.308 173.885 205.021C173.618 204.731 173.252 204.586 172.786 204.586C172.465 204.586 172.178 204.656 171.925 204.795C171.675 204.934 171.478 205.137 171.333 205.404C171.188 205.671 171.116 205.995 171.116 206.376Z"
    fill="white" />
  <path
    d="M243.396 201.586H244.453V207.825C244.453 208.382 244.351 208.855 244.146 209.244C243.942 209.633 243.653 209.929 243.281 210.13C242.909 210.332 242.47 210.433 241.964 210.433C241.487 210.433 241.062 210.346 240.69 210.173C240.318 209.997 240.025 209.747 239.812 209.423C239.599 209.099 239.493 208.714 239.493 208.268H240.533C240.533 208.515 240.594 208.731 240.716 208.916C240.841 209.098 241.011 209.24 241.227 209.342C241.443 209.444 241.689 209.495 241.964 209.495C242.268 209.495 242.527 209.431 242.74 209.304C242.953 209.176 243.115 208.988 243.226 208.741C243.339 208.491 243.396 208.186 243.396 207.825V201.586ZM250.56 207.637V203.768H251.565V210.313H250.56V209.206H250.491C250.338 209.538 250.099 209.821 249.775 210.054C249.452 210.284 249.043 210.399 248.548 210.399C248.139 210.399 247.775 210.309 247.457 210.13C247.139 209.948 246.889 209.676 246.707 209.312C246.525 208.946 246.435 208.484 246.435 207.927V203.768H247.44V207.859C247.44 208.336 247.574 208.717 247.841 209.001C248.111 209.285 248.454 209.427 248.872 209.427C249.122 209.427 249.376 209.363 249.635 209.235C249.896 209.108 250.115 208.911 250.291 208.647C250.47 208.383 250.56 208.046 250.56 207.637ZM254.413 201.586V210.313H253.407V201.586H254.413Z"
    fill="white" />
  <path
    d="M318.596 210.313H317.488L320.693 201.586H321.784L324.988 210.313H323.88L321.272 202.967H321.204L318.596 210.313ZM319.005 206.904H323.471V207.842H319.005V206.904ZM330.336 207.637V203.768H331.342V210.313H330.336V209.206H330.268C330.115 209.538 329.876 209.821 329.552 210.054C329.228 210.284 328.819 210.399 328.325 210.399C327.916 210.399 327.552 210.309 327.234 210.13C326.916 209.948 326.666 209.676 326.484 209.312C326.302 208.946 326.211 208.484 326.211 207.927V203.768H327.217V207.859C327.217 208.336 327.351 208.717 327.618 209.001C327.888 209.285 328.231 209.427 328.649 209.427C328.899 209.427 329.153 209.363 329.412 209.235C329.673 209.108 329.892 208.911 330.068 208.647C330.247 208.383 330.336 208.046 330.336 207.637ZM335.826 212.904C335.34 212.904 334.923 212.842 334.573 212.717C334.224 212.595 333.933 212.433 333.7 212.231C333.47 212.032 333.286 211.819 333.15 211.592L333.951 211.029C334.042 211.149 334.157 211.285 334.296 211.438C334.435 211.595 334.626 211.73 334.867 211.843C335.112 211.96 335.431 212.018 335.826 212.018C336.355 212.018 336.791 211.89 337.134 211.634C337.478 211.379 337.65 210.978 337.65 210.433V209.103H337.565C337.491 209.223 337.386 209.37 337.249 209.546C337.116 209.72 336.923 209.875 336.67 210.011C336.42 210.144 336.082 210.211 335.656 210.211C335.127 210.211 334.653 210.086 334.232 209.836C333.815 209.586 333.484 209.223 333.239 208.745C332.998 208.268 332.877 207.688 332.877 207.007C332.877 206.336 332.995 205.752 333.231 205.255C333.467 204.755 333.795 204.369 334.215 204.096C334.636 203.821 335.122 203.683 335.673 203.683C336.099 203.683 336.437 203.754 336.687 203.896C336.94 204.035 337.133 204.194 337.266 204.373C337.403 204.549 337.508 204.694 337.582 204.808H337.684V203.768H338.656V210.501C338.656 211.063 338.528 211.521 338.272 211.873C338.019 212.228 337.678 212.488 337.249 212.653C336.823 212.821 336.349 212.904 335.826 212.904ZM335.792 209.308C336.195 209.308 336.536 209.215 336.815 209.031C337.093 208.846 337.305 208.581 337.45 208.234C337.595 207.887 337.667 207.473 337.667 206.99C337.667 206.518 337.596 206.102 337.454 205.741C337.312 205.38 337.102 205.098 336.823 204.893C336.545 204.688 336.201 204.586 335.792 204.586C335.366 204.586 335.011 204.694 334.727 204.91C334.445 205.126 334.234 205.416 334.092 205.779C333.953 206.143 333.883 206.546 333.883 206.99C333.883 207.444 333.954 207.846 334.096 208.196C334.241 208.542 334.454 208.815 334.735 209.014C335.019 209.21 335.372 209.308 335.792 209.308Z"
    fill="white" />
  <path
    d="M404.446 203.768C404.395 203.336 404.187 203.001 403.824 202.762C403.46 202.524 403.014 202.404 402.485 202.404C402.099 202.404 401.761 202.467 401.471 202.592C401.184 202.717 400.96 202.889 400.798 203.108C400.639 203.326 400.559 203.575 400.559 203.853C400.559 204.086 400.615 204.286 400.726 204.454C400.839 204.619 400.984 204.757 401.16 204.867C401.336 204.975 401.521 205.065 401.714 205.136C401.907 205.204 402.085 205.259 402.247 205.302L403.133 205.541C403.36 205.6 403.613 205.683 403.892 205.788C404.173 205.893 404.441 206.036 404.697 206.218C404.956 206.397 405.169 206.627 405.336 206.909C405.504 207.19 405.588 207.535 405.588 207.944C405.588 208.416 405.464 208.842 405.217 209.223C404.973 209.603 404.615 209.906 404.143 210.13C403.674 210.355 403.105 210.467 402.434 210.467C401.809 210.467 401.268 210.366 400.811 210.164C400.356 209.963 399.998 209.681 399.737 209.321C399.478 208.96 399.332 208.541 399.298 208.063H400.389C400.417 208.393 400.528 208.666 400.721 208.882C400.917 209.095 401.164 209.254 401.463 209.359C401.764 209.461 402.088 209.512 402.434 209.512C402.838 209.512 403.2 209.447 403.521 209.316C403.842 209.183 404.096 208.998 404.284 208.762C404.471 208.524 404.565 208.245 404.565 207.927C404.565 207.637 404.484 207.402 404.322 207.22C404.16 207.038 403.947 206.89 403.683 206.777C403.419 206.663 403.133 206.563 402.826 206.478L401.753 206.171C401.071 205.975 400.531 205.696 400.133 205.332C399.735 204.968 399.537 204.492 399.537 203.904C399.537 203.416 399.669 202.99 399.933 202.626C400.2 202.259 400.558 201.975 401.007 201.774C401.458 201.569 401.963 201.467 402.52 201.467C403.082 201.467 403.582 201.568 404.02 201.769C404.457 201.968 404.804 202.241 405.059 202.588C405.318 202.934 405.454 203.328 405.468 203.768H404.446ZM409.933 210.45C409.303 210.45 408.759 210.311 408.301 210.032C407.847 209.751 407.496 209.359 407.249 208.856C407.004 208.35 406.882 207.762 406.882 207.092C406.882 206.421 407.004 205.831 407.249 205.319C407.496 204.805 407.84 204.404 408.28 204.117C408.723 203.828 409.24 203.683 409.831 203.683C410.172 203.683 410.509 203.74 410.841 203.853C411.173 203.967 411.476 204.152 411.749 204.407C412.021 204.66 412.239 204.995 412.401 205.413C412.563 205.831 412.644 206.345 412.644 206.956V207.382H407.598V206.512H411.621C411.621 206.143 411.547 205.813 411.399 205.524C411.254 205.234 411.047 205.005 410.777 204.838C410.51 204.67 410.195 204.586 409.831 204.586C409.43 204.586 409.084 204.686 408.791 204.884C408.501 205.081 408.278 205.336 408.122 205.652C407.966 205.967 407.888 206.305 407.888 206.666V207.245C407.888 207.74 407.973 208.159 408.144 208.502C408.317 208.843 408.557 209.103 408.864 209.282C409.17 209.458 409.527 209.546 409.933 209.546C410.197 209.546 410.436 209.509 410.649 209.436C410.865 209.359 411.051 209.245 411.207 209.095C411.364 208.941 411.484 208.751 411.57 208.524L412.541 208.796C412.439 209.126 412.267 209.416 412.026 209.666C411.784 209.913 411.486 210.106 411.131 210.245C410.776 210.382 410.376 210.45 409.933 210.45ZM414.173 212.768V203.768H415.145V204.808H415.264C415.338 204.694 415.44 204.549 415.571 204.373C415.705 204.194 415.895 204.035 416.142 203.896C416.392 203.754 416.73 203.683 417.156 203.683C417.707 203.683 418.193 203.821 418.614 204.096C419.034 204.372 419.362 204.762 419.598 205.268C419.834 205.774 419.952 206.37 419.952 207.058C419.952 207.751 419.834 208.352 419.598 208.86C419.362 209.366 419.036 209.758 418.618 210.036C418.2 210.312 417.719 210.45 417.173 210.45C416.753 210.45 416.416 210.38 416.163 210.241C415.911 210.099 415.716 209.938 415.58 209.759C415.443 209.578 415.338 209.427 415.264 209.308H415.179V212.768H414.173ZM415.162 207.041C415.162 207.535 415.234 207.971 415.379 208.349C415.524 208.724 415.736 209.018 416.014 209.231C416.293 209.441 416.634 209.546 417.037 209.546C417.457 209.546 417.808 209.436 418.09 209.214C418.374 208.99 418.587 208.688 418.729 208.311C418.874 207.93 418.946 207.507 418.946 207.041C418.946 206.581 418.875 206.166 418.733 205.796C418.594 205.424 418.382 205.13 418.098 204.914C417.817 204.696 417.463 204.586 417.037 204.586C416.628 204.586 416.284 204.69 416.006 204.897C415.727 205.102 415.517 205.389 415.375 205.758C415.233 206.125 415.162 206.552 415.162 207.041Z"
    fill="white" />
  <path
    d="M489.123 205.95C489.123 206.87 488.957 207.666 488.624 208.336C488.292 209.007 487.836 209.524 487.256 209.887C486.677 210.251 486.015 210.433 485.271 210.433C484.526 210.433 483.864 210.251 483.285 209.887C482.705 209.524 482.249 209.007 481.917 208.336C481.584 207.666 481.418 206.87 481.418 205.95C481.418 205.029 481.584 204.234 481.917 203.563C482.249 202.893 482.705 202.376 483.285 202.012C483.864 201.649 484.526 201.467 485.271 201.467C486.015 201.467 486.677 201.649 487.256 202.012C487.836 202.376 488.292 202.893 488.624 203.563C488.957 204.234 489.123 205.029 489.123 205.95ZM488.1 205.95C488.1 205.194 487.974 204.556 487.721 204.036C487.471 203.517 487.131 203.123 486.702 202.856C486.276 202.589 485.799 202.456 485.271 202.456C484.742 202.456 484.263 202.589 483.834 202.856C483.408 203.123 483.069 203.517 482.816 204.036C482.566 204.556 482.441 205.194 482.441 205.95C482.441 206.706 482.566 207.343 482.816 207.863C483.069 208.383 483.408 208.777 483.834 209.044C484.263 209.311 484.742 209.444 485.271 209.444C485.799 209.444 486.276 209.311 486.702 209.044C487.131 208.777 487.471 208.383 487.721 207.863C487.974 207.343 488.1 206.706 488.1 205.95ZM493.423 210.45C492.809 210.45 492.28 210.305 491.837 210.015C491.394 209.725 491.053 209.326 490.815 208.818C490.576 208.309 490.457 207.728 490.457 207.075C490.457 206.41 490.579 205.823 490.823 205.315C491.07 204.804 491.414 204.404 491.854 204.117C492.298 203.828 492.815 203.683 493.405 203.683C493.866 203.683 494.28 203.768 494.65 203.938C495.019 204.109 495.322 204.348 495.557 204.654C495.793 204.961 495.94 205.319 495.996 205.728H494.991C494.914 205.43 494.744 205.166 494.479 204.936C494.218 204.703 493.866 204.586 493.423 204.586C493.03 204.586 492.687 204.688 492.391 204.893C492.099 205.095 491.87 205.38 491.705 205.75C491.543 206.116 491.462 206.546 491.462 207.041C491.462 207.546 491.542 207.987 491.701 208.362C491.863 208.737 492.09 209.028 492.383 209.235C492.678 209.443 493.025 209.546 493.423 209.546C493.684 209.546 493.921 209.501 494.134 209.41C494.347 209.319 494.528 209.188 494.675 209.018C494.823 208.848 494.928 208.643 494.991 208.404H495.996C495.94 208.791 495.799 209.139 495.574 209.448C495.353 209.755 495.059 210 494.692 210.181C494.329 210.36 493.905 210.45 493.423 210.45ZM500.313 203.768V204.62H496.921V203.768H500.313ZM497.91 202.2H498.915V208.438C498.915 208.723 498.957 208.936 499.039 209.078C499.124 209.217 499.232 209.311 499.363 209.359C499.496 209.404 499.637 209.427 499.785 209.427C499.896 209.427 499.986 209.421 500.057 209.41C500.128 209.396 500.185 209.384 500.228 209.376L500.432 210.279C500.364 210.305 500.269 210.331 500.147 210.356C500.025 210.384 499.87 210.399 499.682 210.399C499.398 210.399 499.12 210.338 498.847 210.215C498.577 210.093 498.353 209.907 498.174 209.657C497.998 209.407 497.91 209.092 497.91 208.711V202.2Z"
    fill="white" />
  <path
    d="M568.673 201.586V210.313H567.651L562.895 203.461H562.81V210.313H561.753V201.586H562.776L567.548 208.456H567.633V201.586H568.673ZM573.311 210.45C572.72 210.45 572.201 210.309 571.755 210.028C571.312 209.747 570.966 209.353 570.716 208.848C570.468 208.342 570.345 207.751 570.345 207.075C570.345 206.393 570.468 205.798 570.716 205.289C570.966 204.781 571.312 204.386 571.755 204.105C572.201 203.823 572.72 203.683 573.311 203.683C573.902 203.683 574.419 203.823 574.862 204.105C575.308 204.386 575.654 204.781 575.902 205.289C576.152 205.798 576.277 206.393 576.277 207.075C576.277 207.751 576.152 208.342 575.902 208.848C575.654 209.353 575.308 209.747 574.862 210.028C574.419 210.309 573.902 210.45 573.311 210.45ZM573.311 209.546C573.76 209.546 574.129 209.431 574.419 209.201C574.708 208.971 574.923 208.669 575.062 208.294C575.201 207.919 575.271 207.512 575.271 207.075C575.271 206.637 575.201 206.23 575.062 205.852C574.923 205.474 574.708 205.169 574.419 204.936C574.129 204.703 573.76 204.586 573.311 204.586C572.862 204.586 572.493 204.703 572.203 204.936C571.913 205.169 571.698 205.474 571.559 205.852C571.42 206.23 571.35 206.637 571.35 207.075C571.35 207.512 571.42 207.919 571.559 208.294C571.698 208.669 571.913 208.971 572.203 209.201C572.493 209.431 572.862 209.546 573.311 209.546ZM582.93 203.768L580.509 210.313H579.486L577.066 203.768H578.157L579.964 208.984H580.032L581.839 203.768H582.93Z"
    fill="white" />
  <rect x="55.6064" y="98.8887" width="82.9801" height="80" fill="url(#paint0_linear_3616_2047)"
    stroke="url(#paint1_linear_3616_2047)" />
  <g clip-path="url(#clip0_3616_2047)">
    <mask id="mask0_3616_2047" style="mask-type:luminance" maskUnits="userSpaceOnUse" x="111"
      y="146" width="33" height="33">
      <path d="M143.94 146.389H111.94V178.389H143.94V146.389Z" fill="white" />
    </mask>
    <g mask="url(#mask0_3616_2047)">
      <path
        d="M123.24 166.789C122.94 166.389 122.64 165.689 122.04 164.789C121.74 164.289 120.84 163.289 120.54 162.889C120.34 162.489 120.34 162.289 120.44 161.889C120.54 161.289 121.14 160.789 121.84 160.789C122.34 160.789 122.84 161.189 123.24 161.489C123.44 161.689 123.74 162.089 123.94 162.289C124.14 162.489 124.14 162.589 124.34 162.789C124.54 163.089 124.64 163.289 124.54 162.889C124.44 162.389 124.34 161.589 124.14 160.789C124.04 160.189 123.94 160.089 123.84 159.689C123.74 159.189 123.64 158.889 123.54 158.389C123.44 158.089 123.34 157.289 123.24 156.889C123.14 156.389 123.14 155.489 123.54 155.089C123.84 154.789 124.44 154.689 124.84 154.889C125.34 155.189 125.64 155.889 125.74 156.189C125.94 156.689 126.14 157.389 126.24 158.189C126.44 159.189 126.74 160.689 126.74 160.989C126.74 160.589 126.64 159.889 126.74 159.489C126.84 159.189 127.04 158.789 127.44 158.689C127.74 158.589 128.04 158.589 128.34 158.589C128.64 158.689 128.94 158.889 129.14 159.089C129.54 159.689 129.54 160.989 129.54 160.889C129.64 160.489 129.64 159.689 129.84 159.289C129.94 159.089 130.34 158.889 130.54 158.789C130.84 158.689 131.24 158.689 131.54 158.789C131.74 158.789 132.14 159.089 132.24 159.289C132.44 159.589 132.54 160.589 132.64 160.989C132.64 161.089 132.74 160.589 132.94 160.289C133.34 159.689 134.74 159.489 134.84 160.889C134.84 161.589 134.84 161.489 134.84 161.989C134.84 162.489 134.84 162.789 134.84 163.189C134.84 163.589 134.74 164.489 134.64 164.889C134.54 165.189 134.24 165.889 133.94 166.289C133.94 166.289 132.84 167.489 132.74 168.089C132.64 168.689 132.64 168.689 132.64 169.089C132.64 169.489 132.74 169.989 132.74 169.989C132.74 169.989 131.94 170.089 131.54 169.989C131.14 169.889 130.64 169.189 130.54 168.889C130.34 168.589 130.04 168.589 129.84 168.889C129.64 169.289 129.14 169.989 128.74 169.989C128.04 170.089 126.64 169.989 125.64 169.989C125.64 169.989 125.84 168.989 125.44 168.589C125.14 168.289 124.64 167.789 124.34 167.489L123.24 166.789Z"
        fill="white" />
    </g>
    <mask id="mask1_3616_2047" style="mask-type:luminance" maskUnits="userSpaceOnUse" x="111"
      y="146" width="33" height="33">
      <path d="M143.94 146.389H111.94V178.389H143.94V146.389Z" fill="white" />
    </mask>
    <g mask="url(#mask1_3616_2047)">
      <path
        d="M123.24 166.789C122.94 166.389 122.64 165.689 122.04 164.789C121.74 164.289 120.84 163.289 120.54 162.889C120.34 162.489 120.34 162.289 120.44 161.889C120.54 161.289 121.14 160.789 121.84 160.789C122.34 160.789 122.84 161.189 123.24 161.489C123.44 161.689 123.74 162.089 123.94 162.289C124.14 162.489 124.14 162.589 124.34 162.789C124.54 163.089 124.64 163.289 124.54 162.889C124.44 162.389 124.34 161.589 124.14 160.789C124.04 160.189 123.94 160.089 123.84 159.689C123.74 159.189 123.64 158.889 123.54 158.389C123.44 158.089 123.34 157.289 123.24 156.889C123.14 156.389 123.14 155.489 123.54 155.089C123.84 154.789 124.44 154.689 124.84 154.889C125.34 155.189 125.64 155.889 125.74 156.189C125.94 156.689 126.14 157.389 126.24 158.189C126.44 159.189 126.74 160.689 126.74 160.989C126.74 160.589 126.64 159.889 126.74 159.489C126.84 159.189 127.04 158.789 127.44 158.689C127.74 158.589 128.04 158.589 128.34 158.589C128.64 158.689 128.94 158.889 129.14 159.089C129.54 159.689 129.54 160.989 129.54 160.889C129.64 160.489 129.64 159.689 129.84 159.289C129.94 159.089 130.34 158.889 130.54 158.789C130.84 158.689 131.24 158.689 131.54 158.789C131.74 158.789 132.14 159.089 132.24 159.289C132.44 159.589 132.54 160.589 132.64 160.989C132.64 161.089 132.74 160.589 132.94 160.289C133.34 159.689 134.74 159.489 134.84 160.889C134.84 161.589 134.84 161.489 134.84 161.989C134.84 162.489 134.84 162.789 134.84 163.189C134.84 163.589 134.74 164.489 134.64 164.889C134.54 165.189 134.24 165.889 133.94 166.289C133.94 166.289 132.84 167.489 132.74 168.089C132.64 168.689 132.64 168.689 132.64 169.089C132.64 169.489 132.74 169.989 132.74 169.989C132.74 169.989 131.94 170.089 131.54 169.989C131.14 169.889 130.64 169.189 130.54 168.889C130.34 168.589 130.04 168.589 129.84 168.889C129.64 169.289 129.14 169.989 128.74 169.989C128.04 170.089 126.64 169.989 125.64 169.989C125.64 169.989 125.84 168.989 125.44 168.589C125.14 168.289 124.64 167.789 124.34 167.489L123.24 166.789Z"
        stroke="black" stroke-width="0.75" stroke-linecap="round" stroke-linejoin="round" />
    </g>
    <mask id="mask2_3616_2047" style="mask-type:luminance" maskUnits="userSpaceOnUse" x="111"
      y="146" width="33" height="33">
      <path d="M143.94 146.389H111.94V178.389H143.94V146.389Z" fill="white" />
    </mask>
    <g mask="url(#mask2_3616_2047)">
      <path d="M131.54 167.088V163.688" stroke="black" stroke-width="0.75" stroke-linecap="round" />
    </g>
    <mask id="mask3_3616_2047" style="mask-type:luminance" maskUnits="userSpaceOnUse" x="111"
      y="146" width="33" height="33">
      <path d="M143.94 146.389H111.94V178.389H143.94V146.389Z" fill="white" />
    </mask>
    <g mask="url(#mask3_3616_2047)">
      <path d="M129.54 167.088L129.44 163.688" stroke="black" stroke-width="0.75"
        stroke-linecap="round" />
    </g>
    <mask id="mask4_3616_2047" style="mask-type:luminance" maskUnits="userSpaceOnUse" x="111"
      y="146" width="33" height="33">
      <path d="M143.94 146.389H111.94V178.389H143.94V146.389Z" fill="white" />
    </mask>
    <g mask="url(#mask4_3616_2047)">
      <path d="M127.54 163.688V167.088" stroke="black" stroke-width="0.75" stroke-linecap="round" />
    </g>
  </g>
  <rect x="149.587" y="132.889" width="82.98" height="46" fill="#1C1C1C"
    stroke="url(#paint2_linear_3616_2047)" />
  <rect x="243.566" y="76.8887" width="84.0178" height="102" fill="#1C1C1C"
    stroke="url(#paint3_linear_3616_2047)" />
  <rect x="337.547" y="150.889" width="84.0178" height="28" fill="#1C1C1C"
    stroke="url(#paint4_linear_3616_2047)" />
  <rect x="432.565" y="125.889" width="82.98" height="53" fill="#1C1C1C"
    stroke="url(#paint5_linear_3616_2047)" />
  <rect x="526.544" y="117.889" width="82.98" height="61" fill="#1C1C1C"
    stroke="url(#paint6_linear_3616_2047)" />
  <defs>
    <linearGradient id="paint0_linear_3616_2047" x1="97.6771" y1="99.3515" x2="110.185" y2="176.692"
      gradientUnits="userSpaceOnUse">
      <stop stop-color="#F4C587" />
      <stop offset="0.5" stop-color="#D6D3E9" />
      <stop offset="1" stop-color="#99D2EC" />
    </linearGradient>
    <linearGradient id="paint1_linear_3616_2047" x1="97.6771" y1="99.3515" x2="110.185" y2="176.692"
      gradientUnits="userSpaceOnUse">
      <stop stop-color="#F4C587" />
      <stop offset="0.5" stop-color="#D6D3E9" />
      <stop offset="1" stop-color="#99D2EC" />
    </linearGradient>
    <linearGradient id="paint2_linear_3616_2047" x1="191.657" y1="133.368" x2="195.787" y2="178.194"
      gradientUnits="userSpaceOnUse">
      <stop stop-color="#F4C587" />
      <stop offset="0.5" stop-color="#D6D3E9" />
      <stop offset="1" stop-color="#99D2EC" />
    </linearGradient>
    <linearGradient id="paint3_linear_3616_2047" x1="286.163" y1="77.3412" x2="306.051" y2="174.745"
      gradientUnits="userSpaceOnUse">
      <stop stop-color="#F4C587" />
      <stop offset="0.5" stop-color="#D6D3E9" />
      <stop offset="1" stop-color="#99D2EC" />
    </linearGradient>
    <linearGradient id="paint4_linear_3616_2047" x1="380.143" y1="151.376" x2="381.62" y2="178.42"
      gradientUnits="userSpaceOnUse">
      <stop stop-color="#F4C587" />
      <stop offset="0.5" stop-color="#D6D3E9" />
      <stop offset="1" stop-color="#99D2EC" />
    </linearGradient>
    <linearGradient id="paint5_linear_3616_2047" x1="474.635" y1="126.364" x2="480.134" y2="178.018"
      gradientUnits="userSpaceOnUse">
      <stop stop-color="#F4C587" />
      <stop offset="0.5" stop-color="#D6D3E9" />
      <stop offset="1" stop-color="#99D2EC" />
    </linearGradient>
    <linearGradient id="paint6_linear_3616_2047" x1="568.615" y1="118.36" x2="575.909" y2="177.741"
      gradientUnits="userSpaceOnUse">
      <stop stop-color="#F4C587" />
      <stop offset="0.5" stop-color="#D6D3E9" />
      <stop offset="1" stop-color="#99D2EC" />
    </linearGradient>
    <clipPath id="clip0_3616_2047">
      <rect width="32" height="32" fill="white" transform="translate(111.94 146.389)" />
    </clipPath>
  </defs>
</svg>
  