<svg width="265" height="137" viewBox="0 0 265 137" fill="none" xmlns="http://www.w3.org/2000/svg">
<rect x="0.5" y="1.38867" width="320" height="33" fill="url(#paint0_linear_3661_2791)"/>
<rect x="0.5" y="1.38867" width="320" height="33" stroke="url(#paint1_linear_3661_2791)"/>
<path d="M12.656 13.6167C12.824 13.7847 12.922 14.0087 12.922 14.2607C12.922 14.5267 12.824 14.7507 12.656 14.9187C12.474 15.0867 12.25 15.1707 11.998 15.1707C11.732 15.1707 11.508 15.0867 11.34 14.9187C11.158 14.7507 11.074 14.5267 11.074 14.2607C11.074 14.0087 11.158 13.7847 11.34 13.6167C11.508 13.4487 11.732 13.3507 11.998 13.3507C12.25 13.3507 12.474 13.4487 12.656 13.6167ZM11.242 16.2207H12.754V23.3887H11.242V16.2207ZM14.8381 17.5507H13.5921V16.2207H14.8381V14.2187H16.3641V16.2207H18.0861V17.5507H16.3641V21.2887C16.3641 21.5687 16.4201 21.7787 16.5321 21.8907C16.6441 22.0027 16.8261 22.0587 17.1061 22.0587H18.2541V23.3887H16.7981C16.1121 23.3887 15.6081 23.2347 15.3001 22.9127C14.9921 22.6047 14.8381 22.1147 14.8381 21.4427V17.5507ZM19.2232 17.8867C19.5172 17.3267 19.9232 16.9067 20.4552 16.5987C20.9872 16.2907 21.5892 16.1367 22.2752 16.1367C22.9612 16.1367 23.5632 16.2767 24.0952 16.5567C24.6272 16.8367 25.0332 17.2427 25.3412 17.7467C25.6492 18.2647 25.8032 18.8667 25.8172 19.5527C25.8172 19.7487 25.8032 19.9307 25.7752 20.1267H20.3712V20.2107C20.3992 20.8407 20.5952 21.3307 20.9592 21.6947C21.3092 22.0587 21.7852 22.2407 22.3732 22.2407C22.8352 22.2407 23.2272 22.1427 23.5492 21.9187C23.8572 21.6947 24.0672 21.3867 24.1792 20.9807H25.6912C25.5512 21.7087 25.2012 22.3107 24.6272 22.7727C24.0532 23.2487 23.3392 23.4727 22.4852 23.4727C21.7292 23.4727 21.0852 23.3327 20.5252 23.0247C19.9652 22.7167 19.5452 22.2967 19.2372 21.7367C18.9292 21.1907 18.7892 20.5467 18.7892 19.8187C18.7892 19.0907 18.9292 18.4467 19.2232 17.8867ZM24.2772 19.0207C24.2072 18.5027 23.9972 18.0967 23.6472 17.8027C23.2972 17.5087 22.8632 17.3547 22.3312 17.3547C21.8272 17.3547 21.4072 17.5087 21.0432 17.8167C20.6792 18.1247 20.4832 18.5167 20.4272 19.0207H24.2772ZM37.3716 16.9067C37.8616 17.4107 38.1136 18.2227 38.1136 19.3427V23.3887H36.6016V19.3567C36.6016 18.7407 36.4756 18.2647 36.2236 17.9287C35.9716 17.6067 35.5936 17.4387 35.1036 17.4387C34.5716 17.4387 34.1656 17.6347 33.8576 17.9987C33.5496 18.3627 33.4096 18.8667 33.4096 19.5107V23.3887H31.8836V19.3567C31.8836 18.7267 31.7436 18.2507 31.4916 17.9287C31.2396 17.6067 30.8616 17.4387 30.3716 17.4387C29.8536 17.4387 29.4476 17.6347 29.1396 18.0127C28.8316 18.4047 28.6916 18.9087 28.6916 19.5527V23.3887H27.1796V16.2207H28.4956L28.6636 17.1587C29.1676 16.4867 29.8676 16.1507 30.7636 16.1367C31.2676 16.1367 31.7016 16.2487 32.0936 16.4587C32.4716 16.6827 32.7656 17.0047 32.9756 17.4387C33.2276 17.0327 33.5496 16.7107 33.9696 16.4867C34.3756 16.2627 34.8656 16.1367 35.4536 16.1367C36.2376 16.1367 36.8676 16.4027 37.3716 16.9067ZM40.8283 21.0227C40.8563 21.4007 41.0243 21.7087 41.3463 21.9467C41.6683 22.1847 42.0883 22.2967 42.6063 22.2967C43.0543 22.2967 43.4323 22.2127 43.7123 22.0447C43.9923 21.8767 44.1463 21.6387 44.1463 21.3447C44.1463 21.1067 44.0763 20.9247 43.9503 20.7987C43.8103 20.6867 43.6423 20.6027 43.4183 20.5467C43.1943 20.4907 42.8583 20.4347 42.4103 20.3787C41.7803 20.3087 41.2623 20.2107 40.8563 20.0847C40.4503 19.9587 40.1283 19.7627 39.8763 19.4827C39.6243 19.2027 39.5123 18.8387 39.5123 18.3627C39.5123 17.9287 39.6243 17.5367 39.8763 17.2007C40.1283 16.8647 40.4643 16.5987 40.8983 16.4027C41.3323 16.2207 41.8223 16.1227 42.3823 16.1227C43.2783 16.1227 44.0203 16.3327 44.5803 16.7247C45.1403 17.1307 45.4483 17.6907 45.5043 18.4187H44.0343C43.9923 18.0967 43.8243 17.8307 43.5443 17.6207C43.2503 17.4107 42.8863 17.2987 42.4523 17.2987C42.0043 17.2987 41.6543 17.3827 41.3883 17.5507C41.1083 17.7187 40.9823 17.9567 40.9823 18.2367C40.9823 18.4607 41.0383 18.6147 41.1783 18.7267C41.3183 18.8387 41.4863 18.9087 41.6963 18.9507C41.8923 18.9927 42.2283 19.0347 42.6903 19.0907C43.3063 19.1607 43.8243 19.2587 44.2443 19.3987C44.6643 19.5387 45.0003 19.7487 45.2523 20.0427C45.5043 20.3367 45.6303 20.7287 45.6303 21.2327C45.6303 21.6807 45.4903 22.0867 45.2383 22.4227C44.9723 22.7587 44.6083 23.0247 44.1603 23.2067C43.6983 23.3887 43.1803 23.4727 42.6203 23.4727C41.6543 23.4727 40.8703 23.2627 40.2823 22.8287C39.6943 22.3947 39.3863 21.7927 39.3723 21.0227H40.8283Z" fill="black"/>
<path d="M0.5 34.3887H320.5V68.3887H0.5V34.3887Z" fill="white" fill-opacity="0.05"/>
<path d="M0.5 34.3887H320.5V68.3887H0.5V34.3887Z" stroke="url(#paint2_linear_3661_2791)"/>
<path d="M15.148 47.5687C14.8213 47.5687 14.5927 47.5033 14.462 47.3727C14.3313 47.2327 14.266 47.06 14.266 46.8547V46.6307C14.266 46.4253 14.3313 46.2573 14.462 46.1267C14.5927 45.9867 14.8213 45.9167 15.148 45.9167C15.4747 45.9167 15.7033 45.9867 15.834 46.1267C15.9647 46.2573 16.03 46.4253 16.03 46.6307V46.8547C16.03 47.06 15.9647 47.2327 15.834 47.3727C15.7033 47.5033 15.4747 47.5687 15.148 47.5687ZM11.984 55.4367H14.588V50.1167H11.984V49.1647H15.708V55.4367H18.144V56.3887H11.984V55.4367ZM23.4445 56.3887C22.8939 56.3887 22.4879 56.2347 22.2265 55.9267C21.9745 55.6187 21.8485 55.222 21.8485 54.7367V50.1167H19.4405V49.1647H21.2325C21.4752 49.1647 21.6432 49.118 21.7365 49.0247C21.8392 48.922 21.8905 48.7493 21.8905 48.5067V46.6167H22.9685V49.1647H26.2585V50.1167H22.9685V55.4367H26.2585V56.3887H23.4445ZM31.6151 56.5567C31.0924 56.5567 30.6211 56.468 30.2011 56.2907C29.7904 56.1133 29.4357 55.8613 29.1371 55.5347C28.8477 55.1987 28.6237 54.802 28.4651 54.3447C28.3064 53.878 28.2271 53.36 28.2271 52.7907C28.2271 52.212 28.3064 51.6893 28.4651 51.2227C28.6331 50.756 28.8617 50.3593 29.1511 50.0327C29.4404 49.6967 29.7857 49.44 30.1871 49.2627C30.5977 49.0853 31.0504 48.9967 31.5451 48.9967C32.0304 48.9967 32.4691 49.0853 32.8611 49.2627C33.2624 49.44 33.6031 49.6873 33.8831 50.0047C34.1631 50.3127 34.3777 50.6813 34.5271 51.1107C34.6764 51.54 34.7511 52.0113 34.7511 52.5247V53.0567H29.4031V53.3927C29.4031 53.71 29.4544 54.004 29.5571 54.2747C29.6597 54.5453 29.8044 54.7787 29.9911 54.9747C30.1871 55.1707 30.4204 55.3247 30.6911 55.4367C30.9711 55.5393 31.2791 55.5907 31.6151 55.5907C32.1004 55.5907 32.5204 55.4787 32.8751 55.2547C33.2297 55.0307 33.5004 54.7227 33.6871 54.3307L34.5131 54.8907C34.2984 55.376 33.9391 55.7773 33.4351 56.0947C32.9404 56.4027 32.3337 56.5567 31.6151 56.5567ZM31.5451 49.9207C31.2371 49.9207 30.9524 49.9767 30.6911 50.0887C30.4297 50.2007 30.2011 50.3547 30.0051 50.5507C29.8184 50.7467 29.6691 50.98 29.5571 51.2507C29.4544 51.512 29.4031 51.8013 29.4031 52.1187V52.2167H33.5471V52.0627C33.5471 51.7453 33.4957 51.456 33.3931 51.1947C33.2997 50.9333 33.1644 50.7093 32.9871 50.5227C32.8191 50.3267 32.6091 50.1773 32.3571 50.0747C32.1144 49.972 31.8437 49.9207 31.5451 49.9207ZM36.4396 56.3887V49.1647H37.4756V50.0047H37.5316C37.6436 49.7247 37.8023 49.4867 38.0076 49.2907C38.2129 49.0947 38.5163 48.9967 38.9176 48.9967C39.3376 48.9967 39.6503 49.104 39.8556 49.3187C40.0609 49.524 40.1869 49.7947 40.2336 50.1307H40.2756C40.4063 49.804 40.5929 49.5333 40.8356 49.3187C41.0783 49.104 41.4143 48.9967 41.8436 48.9967C42.4316 48.9967 42.8236 49.202 43.0196 49.6127C43.2249 50.0233 43.3276 50.6113 43.3276 51.3767V56.3887H42.2916V51.5587C42.2916 50.9427 42.2263 50.518 42.0956 50.2847C41.9743 50.042 41.7456 49.9207 41.4096 49.9207C41.1109 49.9207 40.8683 50.0187 40.6816 50.2147C40.4949 50.4013 40.4016 50.6907 40.4016 51.0827V56.3887H39.3656V51.5587C39.3656 50.9427 39.3003 50.518 39.1696 50.2847C39.0483 50.042 38.8243 49.9207 38.4976 49.9207C38.1989 49.9207 37.9516 50.0187 37.7556 50.2147C37.5689 50.4013 37.4756 50.6907 37.4756 51.0827V56.3887H36.4396ZM48.3621 56.5567C47.6061 56.5567 46.9528 56.4307 46.4021 56.1787C45.8608 55.9173 45.3988 55.572 45.0161 55.1427L45.7721 54.4847C46.1175 54.8487 46.4955 55.1287 46.9061 55.3247C47.3168 55.5207 47.8115 55.6187 48.3901 55.6187C48.9501 55.6187 49.4075 55.5207 49.7621 55.3247C50.1261 55.1193 50.3081 54.802 50.3081 54.3727C50.3081 54.186 50.2708 54.032 50.1961 53.9107C50.1308 53.78 50.0375 53.6773 49.9161 53.6027C49.7948 53.528 49.6595 53.472 49.5101 53.4347C49.3608 53.388 49.2021 53.3507 49.0341 53.3227L47.9001 53.1547C47.6481 53.1173 47.3728 53.066 47.0741 53.0007C46.7848 52.9353 46.5188 52.8327 46.2761 52.6927C46.0335 52.5433 45.8281 52.3473 45.6601 52.1047C45.5015 51.862 45.4221 51.5447 45.4221 51.1527C45.4221 50.7887 45.4921 50.476 45.6321 50.2147C45.7815 49.944 45.9868 49.72 46.2481 49.5427C46.5095 49.356 46.8175 49.2207 47.1721 49.1367C47.5268 49.0433 47.9141 48.9967 48.3341 48.9967C48.9875 48.9967 49.5521 49.0993 50.0281 49.3047C50.5135 49.51 50.9288 49.7947 51.2741 50.1587L50.5461 50.8447C50.4621 50.742 50.3548 50.6393 50.2241 50.5367C50.1028 50.4247 49.9488 50.3267 49.7621 50.2427C49.5848 50.1493 49.3748 50.0747 49.1321 50.0187C48.8895 49.9627 48.6095 49.9347 48.2921 49.9347C47.7228 49.9347 47.2841 50.0327 46.9761 50.2287C46.6775 50.4247 46.5281 50.7093 46.5281 51.0827C46.5281 51.2693 46.5608 51.428 46.6261 51.5587C46.7008 51.68 46.7988 51.778 46.9201 51.8527C47.0415 51.9273 47.1768 51.988 47.3261 52.0347C47.4848 52.072 47.6435 52.1047 47.8021 52.1327L48.9361 52.3007C49.1975 52.338 49.4728 52.3893 49.7621 52.4547C50.0515 52.52 50.3175 52.6273 50.5601 52.7767C50.8028 52.9167 51.0035 53.108 51.1621 53.3507C51.3301 53.5933 51.4141 53.9107 51.4141 54.3027C51.4141 55.0213 51.1341 55.5767 50.5741 55.9687C50.0235 56.3607 49.2861 56.5567 48.3621 56.5567ZM53.3127 58.7547V57.7187H60.0327V58.7547H53.3127ZM65.5152 47.5687C65.1885 47.5687 64.9599 47.5033 64.8292 47.3727C64.6985 47.2327 64.6332 47.06 64.6332 46.8547V46.6307C64.6332 46.4253 64.6985 46.2573 64.8292 46.1267C64.9599 45.9867 65.1885 45.9167 65.5152 45.9167C65.8419 45.9167 66.0705 45.9867 66.2012 46.1267C66.3319 46.2573 66.3972 46.4253 66.3972 46.6307V46.8547C66.3972 47.06 66.3319 47.2327 66.2012 47.3727C66.0705 47.5033 65.8419 47.5687 65.5152 47.5687ZM62.3512 55.4367H64.9552V50.1167H62.3512V49.1647H66.0752V55.4367H68.5112V56.3887H62.3512V55.4367ZM75.2117 55.2127H75.1557C74.6891 56.1087 73.9471 56.5567 72.9297 56.5567C72.0431 56.5567 71.3477 56.2253 70.8437 55.5627C70.3491 54.9 70.1017 53.9713 70.1017 52.7767C70.1017 51.582 70.3491 50.6533 70.8437 49.9907C71.3477 49.328 72.0431 48.9967 72.9297 48.9967C73.9471 48.9967 74.6891 49.4447 75.1557 50.3407H75.2117V46.0287H76.3317V56.3887H75.2117V55.2127ZM73.3637 55.5627C73.6157 55.5627 73.8537 55.53 74.0777 55.4647C74.3017 55.3993 74.4977 55.306 74.6657 55.1847C74.8337 55.054 74.9644 54.9 75.0577 54.7227C75.1604 54.536 75.2117 54.3213 75.2117 54.0787V51.4747C75.2117 51.232 75.1604 51.022 75.0577 50.8447C74.9644 50.658 74.8337 50.504 74.6657 50.3827C74.4977 50.252 74.3017 50.154 74.0777 50.0887C73.8537 50.0233 73.6157 49.9907 73.3637 49.9907C72.7104 49.9907 72.2017 50.1913 71.8377 50.5927C71.4831 50.9847 71.3057 51.5073 71.3057 52.1607V53.3927C71.3057 54.046 71.4831 54.5733 71.8377 54.9747C72.2017 55.3667 72.7104 55.5627 73.3637 55.5627Z" fill="white"/>
<path d="M252.676 56.3887V55.4507H255.112V47.5547H252.676V46.6167H258.724V47.5547H256.288V55.4507H258.724V56.3887H252.676ZM262.177 48.1147H262.079V56.3887H261.015V46.6167H262.681L266.013 54.8067H266.111V46.6167H267.175V56.3887H265.509L262.177 48.1147ZM273.077 47.6387V56.3887H271.901V47.6387H268.639V46.6167H276.339V47.6387H273.077ZM277.944 56.3887V46.6167H283.964V47.6387H279.12V50.9287H283.796V51.9507H279.12V55.3667H283.964V56.3887H277.944ZM291.294 55.0867H291.224C291.14 55.2733 291.042 55.4553 290.93 55.6327C290.818 55.81 290.673 55.9687 290.496 56.1087C290.328 56.2393 290.123 56.3467 289.88 56.4307C289.637 56.5147 289.348 56.5567 289.012 56.5567C287.948 56.5567 287.155 56.1273 286.632 55.2687C286.119 54.41 285.862 53.178 285.862 51.5727C285.862 49.8927 286.147 48.6187 286.716 47.7507C287.285 46.8827 288.163 46.4487 289.348 46.4487C289.805 46.4487 290.202 46.5093 290.538 46.6307C290.874 46.752 291.159 46.9153 291.392 47.1207C291.635 47.326 291.835 47.5593 291.994 47.8207C292.153 48.0727 292.283 48.3293 292.386 48.5907L291.378 49.0527C291.294 48.838 291.196 48.6373 291.084 48.4507C290.981 48.2547 290.851 48.0867 290.692 47.9467C290.543 47.7973 290.361 47.6807 290.146 47.5967C289.931 47.5127 289.679 47.4707 289.39 47.4707C288.606 47.4707 288.027 47.7647 287.654 48.3527C287.29 48.9407 287.108 49.7247 287.108 50.7047V52.2167C287.108 52.7113 287.145 53.164 287.22 53.5747C287.295 53.976 287.416 54.326 287.584 54.6247C287.761 54.9233 287.985 55.1567 288.256 55.3247C288.536 55.4833 288.877 55.5627 289.278 55.5627C289.913 55.5627 290.407 55.3713 290.762 54.9887C291.117 54.606 291.294 54.1113 291.294 53.5047V52.4967H289.236V51.5587H292.386V56.3887H291.294V55.0867ZM294.733 56.3887V46.6167H300.753V47.6387H295.909V50.9287H300.585V51.9507H295.909V55.3667H300.753V56.3887H294.733ZM304.303 56.3887H303.127V46.6167H306.683C307.589 46.6167 308.279 46.864 308.755 47.3587C309.231 47.8533 309.469 48.544 309.469 49.4307C309.469 50.224 309.264 50.8587 308.853 51.3347C308.443 51.8107 307.845 52.086 307.061 52.1607L309.553 56.3887H308.237L305.857 52.2167H304.303V56.3887ZM306.655 51.2227C307.15 51.2227 307.533 51.1013 307.803 50.8587C308.083 50.6067 308.223 50.252 308.223 49.7947V49.0667C308.223 48.6093 308.083 48.2593 307.803 48.0167C307.533 47.7647 307.15 47.6387 306.655 47.6387H304.303V51.2227H306.655Z" fill="white" fill-opacity="0.6"/>
<path d="M0.5 68.3887H320.5V102.389H0.5V68.3887Z" fill="white" fill-opacity="0.05"/>
<path d="M0.5 68.3887H320.5V102.389H0.5V68.3887Z" stroke="url(#paint3_linear_3661_2791)"/>
<path d="M15.148 81.5687C14.8213 81.5687 14.5927 81.5033 14.462 81.3727C14.3313 81.2327 14.266 81.06 14.266 80.8547V80.6307C14.266 80.4253 14.3313 80.2573 14.462 80.1267C14.5927 79.9867 14.8213 79.9167 15.148 79.9167C15.4747 79.9167 15.7033 79.9867 15.834 80.1267C15.9647 80.2573 16.03 80.4253 16.03 80.6307V80.8547C16.03 81.06 15.9647 81.2327 15.834 81.3727C15.7033 81.5033 15.4747 81.5687 15.148 81.5687ZM11.984 89.4367H14.588V84.1167H11.984V83.1647H15.708V89.4367H18.144V90.3887H11.984V89.4367ZM23.4445 90.3887C22.8939 90.3887 22.4879 90.2347 22.2265 89.9267C21.9745 89.6187 21.8485 89.222 21.8485 88.7367V84.1167H19.4405V83.1647H21.2325C21.4752 83.1647 21.6432 83.118 21.7365 83.0247C21.8392 82.922 21.8905 82.7493 21.8905 82.5067V80.6167H22.9685V83.1647H26.2585V84.1167H22.9685V89.4367H26.2585V90.3887H23.4445ZM31.6151 90.5567C31.0924 90.5567 30.6211 90.468 30.2011 90.2907C29.7904 90.1133 29.4357 89.8613 29.1371 89.5347C28.8477 89.1987 28.6237 88.802 28.4651 88.3447C28.3064 87.878 28.2271 87.36 28.2271 86.7907C28.2271 86.212 28.3064 85.6893 28.4651 85.2227C28.6331 84.756 28.8617 84.3593 29.1511 84.0327C29.4404 83.6967 29.7857 83.44 30.1871 83.2627C30.5977 83.0853 31.0504 82.9967 31.5451 82.9967C32.0304 82.9967 32.4691 83.0853 32.8611 83.2627C33.2624 83.44 33.6031 83.6873 33.8831 84.0047C34.1631 84.3127 34.3777 84.6813 34.5271 85.1107C34.6764 85.54 34.7511 86.0113 34.7511 86.5247V87.0567H29.4031V87.3927C29.4031 87.71 29.4544 88.004 29.5571 88.2747C29.6597 88.5453 29.8044 88.7787 29.9911 88.9747C30.1871 89.1707 30.4204 89.3247 30.6911 89.4367C30.9711 89.5393 31.2791 89.5907 31.6151 89.5907C32.1004 89.5907 32.5204 89.4787 32.8751 89.2547C33.2297 89.0307 33.5004 88.7227 33.6871 88.3307L34.5131 88.8907C34.2984 89.376 33.9391 89.7773 33.4351 90.0947C32.9404 90.4027 32.3337 90.5567 31.6151 90.5567ZM31.5451 83.9207C31.2371 83.9207 30.9524 83.9767 30.6911 84.0887C30.4297 84.2007 30.2011 84.3547 30.0051 84.5507C29.8184 84.7467 29.6691 84.98 29.5571 85.2507C29.4544 85.512 29.4031 85.8013 29.4031 86.1187V86.2167H33.5471V86.0627C33.5471 85.7453 33.4957 85.456 33.3931 85.1947C33.2997 84.9333 33.1644 84.7093 32.9871 84.5227C32.8191 84.3267 32.6091 84.1773 32.3571 84.0747C32.1144 83.972 31.8437 83.9207 31.5451 83.9207ZM36.4396 90.3887V83.1647H37.4756V84.0047H37.5316C37.6436 83.7247 37.8023 83.4867 38.0076 83.2907C38.2129 83.0947 38.5163 82.9967 38.9176 82.9967C39.3376 82.9967 39.6503 83.104 39.8556 83.3187C40.0609 83.524 40.1869 83.7947 40.2336 84.1307H40.2756C40.4063 83.804 40.5929 83.5333 40.8356 83.3187C41.0783 83.104 41.4143 82.9967 41.8436 82.9967C42.4316 82.9967 42.8236 83.202 43.0196 83.6127C43.2249 84.0233 43.3276 84.6113 43.3276 85.3767V90.3887H42.2916V85.5587C42.2916 84.9427 42.2263 84.518 42.0956 84.2847C41.9743 84.042 41.7456 83.9207 41.4096 83.9207C41.1109 83.9207 40.8683 84.0187 40.6816 84.2147C40.4949 84.4013 40.4016 84.6907 40.4016 85.0827V90.3887H39.3656V85.5587C39.3656 84.9427 39.3003 84.518 39.1696 84.2847C39.0483 84.042 38.8243 83.9207 38.4976 83.9207C38.1989 83.9207 37.9516 84.0187 37.7556 84.2147C37.5689 84.4013 37.4756 84.6907 37.4756 85.0827V90.3887H36.4396ZM44.9181 92.7547V91.7187H51.6381V92.7547H44.9181ZM53.8447 90.3887V83.1647H54.9647V84.3407H55.0207C55.0953 84.1633 55.1887 83.9953 55.3007 83.8367C55.4127 83.6687 55.548 83.524 55.7067 83.4027C55.8747 83.2813 56.0707 83.1833 56.2947 83.1087C56.5187 83.034 56.78 82.9967 57.0787 82.9967C57.8347 82.9967 58.4413 83.2393 58.8987 83.7247C59.356 84.2007 59.5847 84.8773 59.5847 85.7547V90.3887H58.4647V85.9507C58.4647 85.288 58.32 84.798 58.0307 84.4807C57.7413 84.154 57.3167 83.9907 56.7567 83.9907C56.5327 83.9907 56.3133 84.0187 56.0987 84.0747C55.884 84.1307 55.6927 84.2147 55.5247 84.3267C55.3567 84.4387 55.2213 84.5833 55.1187 84.7607C55.016 84.938 54.9647 85.1433 54.9647 85.3767V90.3887H53.8447ZM67.7972 90.3887C67.3585 90.3887 67.0459 90.2767 66.8592 90.0527C66.6725 89.8287 66.5559 89.5487 66.5092 89.2127H66.4392C66.2805 89.6327 66.0239 89.964 65.6692 90.2067C65.3239 90.44 64.8572 90.5567 64.2692 90.5567C63.5132 90.5567 62.9112 90.3607 62.4632 89.9687C62.0152 89.5767 61.7912 89.04 61.7912 88.3587C61.7912 87.6867 62.0339 87.1687 62.5192 86.8047C63.0139 86.4407 63.8072 86.2587 64.8992 86.2587H66.4392V85.5447C66.4392 85.0127 66.2899 84.616 65.9912 84.3547C65.6925 84.084 65.2679 83.9487 64.7172 83.9487C64.2319 83.9487 63.8352 84.0467 63.5272 84.2427C63.2192 84.4293 62.9719 84.686 62.7852 85.0127L62.0292 84.4527C62.1225 84.266 62.2485 84.084 62.4072 83.9067C62.5659 83.7293 62.7619 83.5753 62.9952 83.4447C63.2285 83.3047 63.4945 83.1973 63.7932 83.1227C64.0919 83.0387 64.4232 82.9967 64.7872 82.9967C65.6365 82.9967 66.3085 83.2113 66.8032 83.6407C67.3072 84.07 67.5592 84.6673 67.5592 85.4327V89.4087H68.5672V90.3887H67.7972ZM64.4652 89.6187C64.7545 89.6187 65.0159 89.586 65.2492 89.5207C65.4919 89.446 65.7019 89.3527 65.8792 89.2407C66.0565 89.1193 66.1919 88.9793 66.2852 88.8207C66.3879 88.6527 66.4392 88.4753 66.4392 88.2887V87.0987H64.8992C64.2272 87.0987 63.7372 87.192 63.4292 87.3787C63.1212 87.5653 62.9672 87.836 62.9672 88.1907V88.4847C62.9672 88.858 63.0979 89.1427 63.3592 89.3387C63.6299 89.5253 63.9985 89.6187 64.4652 89.6187ZM70.0177 90.3887V83.1647H71.0537V84.0047H71.1097C71.2217 83.7247 71.3804 83.4867 71.5857 83.2907C71.7911 83.0947 72.0944 82.9967 72.4957 82.9967C72.9157 82.9967 73.2284 83.104 73.4337 83.3187C73.6391 83.524 73.7651 83.7947 73.8117 84.1307H73.8537C73.9844 83.804 74.1711 83.5333 74.4137 83.3187C74.6564 83.104 74.9924 82.9967 75.4217 82.9967C76.0097 82.9967 76.4017 83.202 76.5977 83.6127C76.8031 84.0233 76.9057 84.6113 76.9057 85.3767V90.3887H75.8697V85.5587C75.8697 84.9427 75.8044 84.518 75.6737 84.2847C75.5524 84.042 75.3237 83.9207 74.9877 83.9207C74.6891 83.9207 74.4464 84.0187 74.2597 84.2147C74.0731 84.4013 73.9797 84.6907 73.9797 85.0827V90.3887H72.9437V85.5587C72.9437 84.9427 72.8784 84.518 72.7477 84.2847C72.6264 84.042 72.4024 83.9207 72.0757 83.9207C71.7771 83.9207 71.5297 84.0187 71.3337 84.2147C71.1471 84.4013 71.0537 84.6907 71.0537 85.0827V90.3887H70.0177ZM81.9823 90.5567C81.4596 90.5567 80.9883 90.468 80.5683 90.2907C80.1576 90.1133 79.8029 89.8613 79.5042 89.5347C79.2149 89.1987 78.9909 88.802 78.8323 88.3447C78.6736 87.878 78.5943 87.36 78.5943 86.7907C78.5943 86.212 78.6736 85.6893 78.8323 85.2227C79.0003 84.756 79.2289 84.3593 79.5183 84.0327C79.8076 83.6967 80.1529 83.44 80.5543 83.2627C80.9649 83.0853 81.4176 82.9967 81.9123 82.9967C82.3976 82.9967 82.8363 83.0853 83.2283 83.2627C83.6296 83.44 83.9703 83.6873 84.2503 84.0047C84.5303 84.3127 84.7449 84.6813 84.8943 85.1107C85.0436 85.54 85.1183 86.0113 85.1183 86.5247V87.0567H79.7703V87.3927C79.7703 87.71 79.8216 88.004 79.9243 88.2747C80.0269 88.5453 80.1716 88.7787 80.3583 88.9747C80.5543 89.1707 80.7876 89.3247 81.0583 89.4367C81.3383 89.5393 81.6463 89.5907 81.9823 89.5907C82.4676 89.5907 82.8876 89.4787 83.2423 89.2547C83.5969 89.0307 83.8676 88.7227 84.0543 88.3307L84.8803 88.8907C84.6656 89.376 84.3063 89.7773 83.8023 90.0947C83.3076 90.4027 82.7009 90.5567 81.9823 90.5567ZM81.9123 83.9207C81.6043 83.9207 81.3196 83.9767 81.0583 84.0887C80.7969 84.2007 80.5683 84.3547 80.3723 84.5507C80.1856 84.7467 80.0363 84.98 79.9243 85.2507C79.8216 85.512 79.7703 85.8013 79.7703 86.1187V86.2167H83.9143V86.0627C83.9143 85.7453 83.8629 85.456 83.7603 85.1947C83.6669 84.9333 83.5316 84.7093 83.3543 84.5227C83.1863 84.3267 82.9763 84.1773 82.7243 84.0747C82.4816 83.972 82.2109 83.9207 81.9123 83.9207Z" fill="white"/>
<path d="M212.902 90.3887L210.004 80.6167H211.25L212.636 85.5027L213.686 89.1987H213.756L214.806 85.5027L216.192 80.6167H217.396L214.498 90.3887H212.902ZM224.629 90.3887L223.803 87.6027H220.373L219.547 90.3887H218.329L221.325 80.6167H222.879L225.875 90.3887H224.629ZM222.151 81.8627H222.025L220.653 86.5807H223.523L222.151 81.8627ZM228.725 90.3887H227.549V80.6167H231.105C232.01 80.6167 232.701 80.864 233.177 81.3587C233.653 81.8533 233.891 82.544 233.891 83.4307C233.891 84.224 233.686 84.8587 233.275 85.3347C232.864 85.8107 232.267 86.086 231.483 86.1607L233.975 90.3887H232.659L230.279 86.2167H228.725V90.3887ZM231.077 85.2227C231.572 85.2227 231.954 85.1013 232.225 84.8587C232.505 84.6067 232.645 84.252 232.645 83.7947V83.0667C232.645 82.6093 232.505 82.2593 232.225 82.0167C231.954 81.7647 231.572 81.6387 231.077 81.6387H228.725V85.2227H231.077ZM239.206 90.5567C238.011 90.5567 237.12 90.1227 236.532 89.2547C235.953 88.3867 235.664 87.136 235.664 85.5027C235.664 83.8693 235.953 82.6187 236.532 81.7507C237.12 80.8827 238.011 80.4487 239.206 80.4487C239.654 80.4487 240.041 80.5093 240.368 80.6307C240.694 80.752 240.974 80.9153 241.208 81.1207C241.441 81.326 241.637 81.5593 241.796 81.8207C241.954 82.0727 242.094 82.3293 242.216 82.5907L241.208 83.0527C241.124 82.838 241.026 82.6373 240.914 82.4507C240.802 82.2547 240.666 82.0867 240.508 81.9467C240.358 81.7973 240.176 81.6807 239.962 81.5967C239.756 81.5127 239.504 81.4707 239.206 81.4707C238.431 81.4707 237.852 81.7647 237.47 82.3527C237.096 82.9407 236.91 83.7247 236.91 84.7047V86.3007C236.91 87.2807 237.096 88.0647 237.47 88.6527C237.852 89.2407 238.431 89.5347 239.206 89.5347C239.504 89.5347 239.756 89.4927 239.962 89.4087C240.176 89.3247 240.358 89.2127 240.508 89.0727C240.666 88.9233 240.802 88.7553 240.914 88.5687C241.026 88.3727 241.124 88.1673 241.208 87.9527L242.216 88.4147C242.094 88.6853 241.954 88.9467 241.796 89.1987C241.637 89.4507 241.441 89.6793 241.208 89.8847C240.974 90.09 240.694 90.2533 240.368 90.3747C240.041 90.496 239.654 90.5567 239.206 90.5567ZM249.182 85.9507H245.374V90.3887H244.198V80.6167H245.374V84.9287H249.182V80.6167H250.358V90.3887H249.182V85.9507ZM258.207 90.3887L257.381 87.6027H253.951L253.125 90.3887H251.907L254.903 80.6167H256.457L259.453 90.3887H258.207ZM255.729 81.8627H255.603L254.231 86.5807H257.101L255.729 81.8627ZM262.303 90.3887H261.127V80.6167H264.683C265.589 80.6167 266.279 80.864 266.755 81.3587C267.231 81.8533 267.469 82.544 267.469 83.4307C267.469 84.224 267.264 84.8587 266.853 85.3347C266.443 85.8107 265.845 86.086 265.061 86.1607L267.553 90.3887H266.237L263.857 86.2167H262.303V90.3887ZM264.655 85.2227C265.15 85.2227 265.533 85.1013 265.803 84.8587C266.083 84.6067 266.223 84.252 266.223 83.7947V83.0667C266.223 82.6093 266.083 82.2593 265.803 82.0167C265.533 81.7647 265.15 81.6387 264.655 81.6387H262.303V85.2227H264.655ZM271.132 86.0347C271.132 85.3533 271.206 84.7 271.356 84.0747C271.514 83.44 271.724 82.852 271.986 82.3107C272.256 81.7693 272.569 81.284 272.924 80.8547C273.278 80.416 273.652 80.0473 274.044 79.7487H275.178C274.767 80.0567 274.38 80.416 274.016 80.8267C273.661 81.228 273.344 81.6713 273.064 82.1567C272.793 82.6327 272.578 83.1507 272.42 83.7107C272.261 84.2613 272.182 84.8353 272.182 85.4327V86.6367C272.182 87.234 272.261 87.8127 272.42 88.3727C272.578 88.9233 272.793 89.4413 273.064 89.9267C273.344 90.4027 273.661 90.8413 274.016 91.2427C274.38 91.6533 274.767 92.0127 275.178 92.3207H274.044C273.652 92.0313 273.278 91.6673 272.924 91.2287C272.569 90.79 272.256 90.3 271.986 89.7587C271.724 89.2173 271.514 88.634 271.356 88.0087C271.206 87.374 271.132 86.716 271.132 86.0347ZM277.846 90.3887V89.3667H280.646V81.4847H280.548L278.084 83.7807L277.398 83.0387L279.988 80.6167H281.822V89.3667H284.398V90.3887H277.846ZM289.251 90.5567C288.653 90.5567 288.14 90.4447 287.711 90.2207C287.281 89.9873 286.927 89.656 286.647 89.2267C286.367 88.7973 286.161 88.27 286.031 87.6447C285.9 87.0193 285.835 86.3053 285.835 85.5027C285.835 84.7093 285.9 84 286.031 83.3747C286.161 82.74 286.367 82.208 286.647 81.7787C286.927 81.3493 287.281 81.0227 287.711 80.7987C288.14 80.5653 288.653 80.4487 289.251 80.4487C289.848 80.4487 290.361 80.5653 290.791 80.7987C291.22 81.0227 291.575 81.3493 291.855 81.7787C292.135 82.208 292.34 82.74 292.471 83.3747C292.601 84 292.667 84.7093 292.667 85.5027C292.667 86.3053 292.601 87.0193 292.471 87.6447C292.34 88.27 292.135 88.7973 291.855 89.2267C291.575 89.656 291.22 89.9873 290.791 90.2207C290.361 90.4447 289.848 90.5567 289.251 90.5567ZM289.251 89.5347C289.643 89.5347 289.979 89.46 290.259 89.3107C290.539 89.152 290.763 88.9327 290.931 88.6527C291.108 88.3727 291.239 88.0367 291.323 87.6447C291.407 87.2433 291.449 86.7953 291.449 86.3007V84.7047C291.449 84.2193 291.407 83.776 291.323 83.3747C291.239 82.9733 291.108 82.6327 290.931 82.3527C290.763 82.0727 290.539 81.858 290.259 81.7087C289.979 81.55 289.643 81.4707 289.251 81.4707C288.859 81.4707 288.523 81.55 288.243 81.7087C287.963 81.858 287.734 82.0727 287.557 82.3527C287.389 82.6327 287.263 82.9733 287.179 83.3747C287.095 83.776 287.053 84.2193 287.053 84.7047V86.3007C287.053 86.7953 287.095 87.2433 287.179 87.6447C287.263 88.0367 287.389 88.3727 287.557 88.6527C287.734 88.9327 287.963 89.152 288.243 89.3107C288.523 89.46 288.859 89.5347 289.251 89.5347ZM289.251 86.3287C288.924 86.3287 288.695 86.2633 288.565 86.1327C288.443 86.002 288.383 85.8433 288.383 85.6567V85.3487C288.383 85.162 288.443 85.0033 288.565 84.8727C288.695 84.742 288.924 84.6767 289.251 84.6767C289.577 84.6767 289.801 84.742 289.923 84.8727C290.053 85.0033 290.119 85.162 290.119 85.3487V85.6567C290.119 85.8433 290.053 86.002 289.923 86.1327C289.801 86.2633 289.577 86.3287 289.251 86.3287ZM297.645 90.5567C297.048 90.5567 296.535 90.4447 296.105 90.2207C295.676 89.9873 295.321 89.656 295.041 89.2267C294.761 88.7973 294.556 88.27 294.425 87.6447C294.295 87.0193 294.229 86.3053 294.229 85.5027C294.229 84.7093 294.295 84 294.425 83.3747C294.556 82.74 294.761 82.208 295.041 81.7787C295.321 81.3493 295.676 81.0227 296.105 80.7987C296.535 80.5653 297.048 80.4487 297.645 80.4487C298.243 80.4487 298.756 80.5653 299.185 80.7987C299.615 81.0227 299.969 81.3493 300.249 81.7787C300.529 82.208 300.735 82.74 300.865 83.3747C300.996 84 301.061 84.7093 301.061 85.5027C301.061 86.3053 300.996 87.0193 300.865 87.6447C300.735 88.27 300.529 88.7973 300.249 89.2267C299.969 89.656 299.615 89.9873 299.185 90.2207C298.756 90.4447 298.243 90.5567 297.645 90.5567ZM297.645 89.5347C298.037 89.5347 298.373 89.46 298.653 89.3107C298.933 89.152 299.157 88.9327 299.325 88.6527C299.503 88.3727 299.633 88.0367 299.717 87.6447C299.801 87.2433 299.843 86.7953 299.843 86.3007V84.7047C299.843 84.2193 299.801 83.776 299.717 83.3747C299.633 82.9733 299.503 82.6327 299.325 82.3527C299.157 82.0727 298.933 81.858 298.653 81.7087C298.373 81.55 298.037 81.4707 297.645 81.4707C297.253 81.4707 296.917 81.55 296.637 81.7087C296.357 81.858 296.129 82.0727 295.951 82.3527C295.783 82.6327 295.657 82.9733 295.573 83.3747C295.489 83.776 295.447 84.2193 295.447 84.7047V86.3007C295.447 86.7953 295.489 87.2433 295.573 87.6447C295.657 88.0367 295.783 88.3727 295.951 88.6527C296.129 88.9327 296.357 89.152 296.637 89.3107C296.917 89.46 297.253 89.5347 297.645 89.5347ZM297.645 86.3287C297.319 86.3287 297.09 86.2633 296.959 86.1327C296.838 86.002 296.777 85.8433 296.777 85.6567V85.3487C296.777 85.162 296.838 85.0033 296.959 84.8727C297.09 84.742 297.319 84.6767 297.645 84.6767C297.972 84.6767 298.196 84.742 298.317 84.8727C298.448 85.0033 298.513 85.162 298.513 85.3487V85.6567C298.513 85.8433 298.448 86.002 298.317 86.1327C298.196 86.2633 297.972 86.3287 297.645 86.3287ZM307.37 86.0347C307.37 86.716 307.291 87.374 307.132 88.0087C306.983 88.634 306.773 89.2173 306.502 89.7587C306.241 90.3 305.933 90.79 305.578 91.2287C305.223 91.6673 304.85 92.0313 304.458 92.3207H303.324C303.725 92.0127 304.108 91.6533 304.472 91.2427C304.836 90.8413 305.153 90.4027 305.424 89.9267C305.704 89.4413 305.923 88.9233 306.082 88.3727C306.241 87.8127 306.32 87.234 306.32 86.6367V85.4327C306.32 84.8353 306.241 84.2613 306.082 83.7107C305.923 83.1507 305.704 82.6327 305.424 82.1567C305.153 81.6713 304.836 81.228 304.472 80.8267C304.108 80.416 303.725 80.0567 303.324 79.7487H304.458C304.85 80.0473 305.223 80.416 305.578 80.8547C305.933 81.284 306.241 81.7693 306.502 82.3107C306.773 82.852 306.983 83.44 307.132 84.0747C307.291 84.7 307.37 85.3533 307.37 86.0347Z" fill="white" fill-opacity="0.6"/>
<path d="M0.5 102.389H320.5V136.389H0.5V102.389Z" fill="white" fill-opacity="0.05"/>
<path d="M0.5 102.389H320.5V136.389H0.5V102.389Z" stroke="url(#paint4_linear_3661_2791)"/>
<path d="M15.148 115.569C14.8213 115.569 14.5927 115.503 14.462 115.373C14.3313 115.233 14.266 115.06 14.266 114.855V114.631C14.266 114.425 14.3313 114.257 14.462 114.127C14.5927 113.987 14.8213 113.917 15.148 113.917C15.4747 113.917 15.7033 113.987 15.834 114.127C15.9647 114.257 16.03 114.425 16.03 114.631V114.855C16.03 115.06 15.9647 115.233 15.834 115.373C15.7033 115.503 15.4747 115.569 15.148 115.569ZM11.984 123.437H14.588V118.117H11.984V117.165H15.708V123.437H18.144V124.389H11.984V123.437ZM23.4445 124.389C22.8939 124.389 22.4879 124.235 22.2265 123.927C21.9745 123.619 21.8485 123.222 21.8485 122.737V118.117H19.4405V117.165H21.2325C21.4752 117.165 21.6432 117.118 21.7365 117.025C21.8392 116.922 21.8905 116.749 21.8905 116.507V114.617H22.9685V117.165H26.2585V118.117H22.9685V123.437H26.2585V124.389H23.4445ZM31.6151 124.557C31.0924 124.557 30.6211 124.468 30.2011 124.291C29.7904 124.113 29.4357 123.861 29.1371 123.535C28.8477 123.199 28.6237 122.802 28.4651 122.345C28.3064 121.878 28.2271 121.36 28.2271 120.791C28.2271 120.212 28.3064 119.689 28.4651 119.223C28.6331 118.756 28.8617 118.359 29.1511 118.033C29.4404 117.697 29.7857 117.44 30.1871 117.263C30.5977 117.085 31.0504 116.997 31.5451 116.997C32.0304 116.997 32.4691 117.085 32.8611 117.263C33.2624 117.44 33.6031 117.687 33.8831 118.005C34.1631 118.313 34.3777 118.681 34.5271 119.111C34.6764 119.54 34.7511 120.011 34.7511 120.525V121.057H29.4031V121.393C29.4031 121.71 29.4544 122.004 29.5571 122.275C29.6597 122.545 29.8044 122.779 29.9911 122.975C30.1871 123.171 30.4204 123.325 30.6911 123.437C30.9711 123.539 31.2791 123.591 31.6151 123.591C32.1004 123.591 32.5204 123.479 32.8751 123.255C33.2297 123.031 33.5004 122.723 33.6871 122.331L34.5131 122.891C34.2984 123.376 33.9391 123.777 33.4351 124.095C32.9404 124.403 32.3337 124.557 31.6151 124.557ZM31.5451 117.921C31.2371 117.921 30.9524 117.977 30.6911 118.089C30.4297 118.201 30.2011 118.355 30.0051 118.551C29.8184 118.747 29.6691 118.98 29.5571 119.251C29.4544 119.512 29.4031 119.801 29.4031 120.119V120.217H33.5471V120.063C33.5471 119.745 33.4957 119.456 33.3931 119.195C33.2997 118.933 33.1644 118.709 32.9871 118.523C32.8191 118.327 32.6091 118.177 32.3571 118.075C32.1144 117.972 31.8437 117.921 31.5451 117.921ZM36.4396 124.389V117.165H37.4756V118.005H37.5316C37.6436 117.725 37.8023 117.487 38.0076 117.291C38.2129 117.095 38.5163 116.997 38.9176 116.997C39.3376 116.997 39.6503 117.104 39.8556 117.319C40.0609 117.524 40.1869 117.795 40.2336 118.131H40.2756C40.4063 117.804 40.5929 117.533 40.8356 117.319C41.0783 117.104 41.4143 116.997 41.8436 116.997C42.4316 116.997 42.8236 117.202 43.0196 117.613C43.2249 118.023 43.3276 118.611 43.3276 119.377V124.389H42.2916V119.559C42.2916 118.943 42.2263 118.518 42.0956 118.285C41.9743 118.042 41.7456 117.921 41.4096 117.921C41.1109 117.921 40.8683 118.019 40.6816 118.215C40.4949 118.401 40.4016 118.691 40.4016 119.083V124.389H39.3656V119.559C39.3656 118.943 39.3003 118.518 39.1696 118.285C39.0483 118.042 38.8243 117.921 38.4976 117.921C38.1989 117.921 37.9516 118.019 37.7556 118.215C37.5689 118.401 37.4756 118.691 37.4756 119.083V124.389H36.4396ZM44.9181 126.755V125.719H51.6381V126.755H44.9181ZM53.8027 117.165H54.9227V118.341H54.9787C55.4453 117.445 56.1873 116.997 57.2047 116.997C58.0913 116.997 58.782 117.328 59.2767 117.991C59.7807 118.653 60.0327 119.582 60.0327 120.777C60.0327 121.971 59.7807 122.9 59.2767 123.563C58.782 124.225 58.0913 124.557 57.2047 124.557C56.1873 124.557 55.4453 124.109 54.9787 123.213H54.9227V127.189H53.8027V117.165ZM56.7707 123.563C57.424 123.563 57.928 123.367 58.2827 122.975C58.6467 122.573 58.8287 122.046 58.8287 121.393V120.161C58.8287 119.507 58.6467 118.985 58.2827 118.593C57.928 118.191 57.424 117.991 56.7707 117.991C56.5187 117.991 56.2807 118.023 56.0567 118.089C55.8327 118.154 55.6367 118.252 55.4687 118.383C55.3007 118.504 55.1653 118.658 55.0627 118.845C54.9693 119.022 54.9227 119.232 54.9227 119.475V122.079C54.9227 122.321 54.9693 122.536 55.0627 122.723C55.1653 122.9 55.3007 123.054 55.4687 123.185C55.6367 123.306 55.8327 123.399 56.0567 123.465C56.2807 123.53 56.5187 123.563 56.7707 123.563ZM61.9452 123.437H64.0592V118.117H61.9452V117.165H65.1792V118.985H65.2492C65.3985 118.415 65.6785 117.972 66.0892 117.655C66.5092 117.328 67.0412 117.165 67.6852 117.165H68.6932V118.285H67.3352C66.6912 118.285 66.1685 118.471 65.7672 118.845C65.3752 119.218 65.1792 119.708 65.1792 120.315V123.437H67.9792V124.389H61.9452V123.437ZM73.9097 115.569C73.5831 115.569 73.3544 115.503 73.2237 115.373C73.0931 115.233 73.0277 115.06 73.0277 114.855V114.631C73.0277 114.425 73.0931 114.257 73.2237 114.127C73.3544 113.987 73.5831 113.917 73.9097 113.917C74.2364 113.917 74.4651 113.987 74.5957 114.127C74.7264 114.257 74.7917 114.425 74.7917 114.631V114.855C74.7917 115.06 74.7264 115.233 74.5957 115.373C74.4651 115.503 74.2364 115.569 73.9097 115.569ZM70.7457 123.437H73.3497V118.117H70.7457V117.165H74.4697V123.437H76.9057V124.389H70.7457V123.437ZM82.1083 124.557C81.5856 124.557 81.1189 124.468 80.7083 124.291C80.3069 124.104 79.9663 123.847 79.6863 123.521C79.4063 123.194 79.1916 122.797 79.0423 122.331C78.9023 121.864 78.8323 121.346 78.8323 120.777C78.8323 120.207 78.9069 119.689 79.0563 119.223C79.2056 118.756 79.4203 118.359 79.7003 118.033C79.9803 117.697 80.3209 117.44 80.7223 117.263C81.1236 117.085 81.5809 116.997 82.0943 116.997C82.7943 116.997 83.3636 117.151 83.8023 117.459C84.2409 117.767 84.5629 118.168 84.7683 118.663L83.8723 119.139C83.7416 118.765 83.5223 118.476 83.2143 118.271C82.9156 118.065 82.5423 117.963 82.0943 117.963C81.7676 117.963 81.4736 118.019 81.2123 118.131C80.9603 118.233 80.7456 118.383 80.5683 118.579C80.3909 118.775 80.2556 119.008 80.1623 119.279C80.0783 119.549 80.0363 119.843 80.0363 120.161V121.393C80.0363 121.71 80.0783 122.004 80.1623 122.275C80.2556 122.545 80.3909 122.779 80.5683 122.975C80.7456 123.171 80.9649 123.325 81.2263 123.437C81.4876 123.539 81.7863 123.591 82.1223 123.591C82.6076 123.591 83.0089 123.479 83.3263 123.255C83.6436 123.031 83.8956 122.723 84.0823 122.331L84.8803 122.877C84.6656 123.362 84.3296 123.763 83.8723 124.081C83.4243 124.398 82.8363 124.557 82.1083 124.557ZM90.3768 124.557C89.8541 124.557 89.3828 124.468 88.9628 124.291C88.5521 124.113 88.1974 123.861 87.8988 123.535C87.6094 123.199 87.3854 122.802 87.2268 122.345C87.0681 121.878 86.9888 121.36 86.9888 120.791C86.9888 120.212 87.0681 119.689 87.2268 119.223C87.3948 118.756 87.6234 118.359 87.9128 118.033C88.2021 117.697 88.5474 117.44 88.9488 117.263C89.3594 117.085 89.8121 116.997 90.3068 116.997C90.7921 116.997 91.2308 117.085 91.6228 117.263C92.0241 117.44 92.3648 117.687 92.6448 118.005C92.9248 118.313 93.1394 118.681 93.2888 119.111C93.4381 119.54 93.5128 120.011 93.5128 120.525V121.057H88.1648V121.393C88.1648 121.71 88.2161 122.004 88.3188 122.275C88.4214 122.545 88.5661 122.779 88.7528 122.975C88.9488 123.171 89.1821 123.325 89.4528 123.437C89.7328 123.539 90.0408 123.591 90.3768 123.591C90.8621 123.591 91.2821 123.479 91.6368 123.255C91.9914 123.031 92.2621 122.723 92.4488 122.331L93.2748 122.891C93.0601 123.376 92.7008 123.777 92.1968 124.095C91.7021 124.403 91.0954 124.557 90.3768 124.557ZM90.3068 117.921C89.9988 117.921 89.7141 117.977 89.4528 118.089C89.1914 118.201 88.9628 118.355 88.7668 118.551C88.5801 118.747 88.4308 118.98 88.3188 119.251C88.2161 119.512 88.1648 119.801 88.1648 120.119V120.217H92.3088V120.063C92.3088 119.745 92.2574 119.456 92.1548 119.195C92.0614 118.933 91.9261 118.709 91.7488 118.523C91.5808 118.327 91.3708 118.177 91.1188 118.075C90.8761 117.972 90.6054 117.921 90.3068 117.921Z" fill="white"/>
<path d="M253.782 116.115H253.684V124.389H252.62V114.617H254.286L257.618 122.807H257.716V114.617H258.78V124.389H257.114L253.782 116.115ZM262.191 114.617V120.483C262.191 120.959 262.205 121.383 262.233 121.757C262.261 122.13 262.335 122.452 262.457 122.723C262.578 122.984 262.765 123.185 263.017 123.325C263.278 123.465 263.637 123.535 264.095 123.535C264.552 123.535 264.907 123.465 265.159 123.325C265.42 123.185 265.611 122.984 265.733 122.723C265.854 122.452 265.929 122.13 265.957 121.757C265.985 121.383 265.999 120.959 265.999 120.483V114.617H267.175V120.203C267.175 120.931 267.137 121.565 267.063 122.107C266.997 122.648 266.853 123.101 266.629 123.465C266.414 123.829 266.101 124.104 265.691 124.291C265.289 124.468 264.757 124.557 264.095 124.557C263.432 124.557 262.895 124.468 262.485 124.291C262.083 124.104 261.771 123.829 261.547 123.465C261.332 123.101 261.187 122.648 261.113 122.107C261.047 121.565 261.015 120.931 261.015 120.203V114.617H262.191ZM274.659 119.489V116.395H274.547L272.489 121.421L270.431 116.395H270.319V119.489V124.389H269.241V114.617H270.753L272.475 118.929H272.559L274.281 114.617H275.737V124.389H274.659V119.489ZM277.944 124.389V114.617H283.964V115.639H279.12V118.929H283.796V119.951H279.12V123.367H283.964V124.389H277.944ZM287.514 124.389H286.338V114.617H289.894C290.799 114.617 291.49 114.864 291.966 115.359C292.442 115.853 292.68 116.544 292.68 117.431C292.68 118.224 292.475 118.859 292.064 119.335C291.653 119.811 291.056 120.086 290.272 120.161L292.764 124.389H291.448L289.068 120.217H287.514V124.389ZM289.866 119.223C290.361 119.223 290.743 119.101 291.014 118.859C291.294 118.607 291.434 118.252 291.434 117.795V117.067C291.434 116.609 291.294 116.259 291.014 116.017C290.743 115.765 290.361 115.639 289.866 115.639H287.514V119.223H289.866ZM294.649 124.389V123.451H297.085V115.555H294.649V114.617H300.697V115.555H298.261V123.451H300.697V124.389H294.649ZM306.389 124.557C305.195 124.557 304.303 124.123 303.715 123.255C303.137 122.387 302.847 121.136 302.847 119.503C302.847 117.869 303.137 116.619 303.715 115.751C304.303 114.883 305.195 114.449 306.389 114.449C306.837 114.449 307.225 114.509 307.551 114.631C307.878 114.752 308.158 114.915 308.391 115.121C308.625 115.326 308.821 115.559 308.979 115.821C309.138 116.073 309.278 116.329 309.399 116.591L308.391 117.053C308.307 116.838 308.209 116.637 308.097 116.451C307.985 116.255 307.85 116.087 307.691 115.947C307.542 115.797 307.36 115.681 307.145 115.597C306.94 115.513 306.688 115.471 306.389 115.471C305.615 115.471 305.036 115.765 304.653 116.353C304.28 116.941 304.093 117.725 304.093 118.705V120.301C304.093 121.281 304.28 122.065 304.653 122.653C305.036 123.241 305.615 123.535 306.389 123.535C306.688 123.535 306.94 123.493 307.145 123.409C307.36 123.325 307.542 123.213 307.691 123.073C307.85 122.923 307.985 122.755 308.097 122.569C308.209 122.373 308.307 122.167 308.391 121.953L309.399 122.415C309.278 122.685 309.138 122.947 308.979 123.199C308.821 123.451 308.625 123.679 308.391 123.885C308.158 124.09 307.878 124.253 307.551 124.375C307.225 124.496 306.837 124.557 306.389 124.557Z" fill="white" fill-opacity="0.6"/>
<defs>
<linearGradient id="paint0_linear_3661_2791" x1="162.766" y1="1.37316" x2="163.34" y2="34.515" gradientUnits="userSpaceOnUse">
<stop stop-color="#F4C587"/>
<stop offset="0.5" stop-color="#D6D3E9"/>
<stop offset="1" stop-color="#99D2EC"/>
</linearGradient>
<linearGradient id="paint1_linear_3661_2791" x1="0.5" y1="1.38867" x2="320.5" y2="1.38403" gradientUnits="userSpaceOnUse">
<stop stop-color="#F4C587"/>
<stop offset="0.5" stop-color="#D6D3E9"/>
<stop offset="1" stop-color="#99D2EC"/>
</linearGradient>
<linearGradient id="paint2_linear_3661_2791" x1="0.5" y1="34.3887" x2="320.5" y2="34.3842" gradientUnits="userSpaceOnUse">
<stop stop-color="#F4C587"/>
<stop offset="0.5" stop-color="#D6D3E9"/>
<stop offset="1" stop-color="#99D2EC"/>
</linearGradient>
<linearGradient id="paint3_linear_3661_2791" x1="0.5" y1="68.3887" x2="320.5" y2="68.3842" gradientUnits="userSpaceOnUse">
<stop stop-color="#F4C587"/>
<stop offset="0.5" stop-color="#D6D3E9"/>
<stop offset="1" stop-color="#99D2EC"/>
</linearGradient>
<linearGradient id="paint4_linear_3661_2791" x1="0.5" y1="102.389" x2="320.5" y2="102.384" gradientUnits="userSpaceOnUse">
<stop stop-color="#F4C587"/>
<stop offset="0.5" stop-color="#D6D3E9"/>
<stop offset="1" stop-color="#99D2EC"/>
</linearGradient>
</defs>
</svg>
