<svg width="321" height="137" viewBox="0 0 321 137" fill="none" xmlns="http://www.w3.org/2000/svg">
<rect x="0.5" y="1.38867" width="320" height="33" fill="url(#paint0_linear_3661_2585)"/>
<rect x="0.5" y="1.38867" width="320" height="33" stroke="url(#paint1_linear_3661_2585)"/>
<path d="M12.712 23.0247C12.152 22.7167 11.732 22.2967 11.424 21.7367C11.116 21.1767 10.976 20.5327 10.976 19.8047C10.976 19.0907 11.116 18.4607 11.424 17.9007C11.732 17.3407 12.152 16.9067 12.712 16.5987C13.272 16.2907 13.902 16.1367 14.63 16.1367C15.344 16.1367 15.974 16.2907 16.534 16.5987C17.094 16.9067 17.514 17.3407 17.822 17.9007C18.13 18.4607 18.284 19.0907 18.284 19.8047C18.284 20.5327 18.13 21.1767 17.822 21.7367C17.514 22.2967 17.094 22.7167 16.534 23.0247C15.974 23.3327 15.344 23.4727 14.63 23.4727C13.902 23.4727 13.272 23.3327 12.712 23.0247ZM16.156 21.5267C16.548 21.0787 16.744 20.5047 16.744 19.8047C16.744 19.1047 16.548 18.5447 16.156 18.0967C15.764 17.6487 15.26 17.4247 14.63 17.4247C13.986 17.4247 13.482 17.6487 13.104 18.0967C12.712 18.5447 12.53 19.1047 12.53 19.8047C12.53 20.5047 12.712 21.0787 13.104 21.5267C13.482 21.9747 13.986 22.1847 14.63 22.1847C15.26 22.1847 15.764 21.9747 16.156 21.5267ZM23.6018 16.2207V17.6347H22.9298C22.2998 17.6347 21.8518 17.8447 21.5718 18.2507C21.2918 18.6567 21.1518 19.1747 21.1518 19.7907V23.3887H19.6398V16.2207H20.9838L21.1518 17.2987C21.3478 16.9627 21.6138 16.7107 21.9498 16.5147C22.2718 16.3187 22.7058 16.2207 23.2658 16.2207H23.6018ZM31.3179 13.5887V23.3887H30.0019L29.8199 22.3107C29.2459 23.0947 28.4619 23.4727 27.4819 23.4727C26.8239 23.4727 26.2359 23.3327 25.7319 23.0387C25.2139 22.7447 24.8079 22.3247 24.5279 21.7647C24.2339 21.2047 24.0939 20.5607 24.0939 19.8047C24.0939 19.0767 24.2339 18.4467 24.5279 17.8867C24.8219 17.3267 25.2279 16.9067 25.7459 16.5987C26.2499 16.2907 26.8379 16.1367 27.4819 16.1367C27.9999 16.1367 28.4619 16.2347 28.8539 16.4307C29.2459 16.6267 29.5539 16.8787 29.8059 17.2147V13.5887H31.3179ZM29.2459 21.5407C29.6239 21.1067 29.8199 20.5327 29.8199 19.8327C29.8199 19.1187 29.6239 18.5447 29.2459 18.0967C28.8539 17.6487 28.3499 17.4247 27.7339 17.4247C27.1039 17.4247 26.5999 17.6487 26.2219 18.0967C25.8299 18.5447 25.6479 19.1047 25.6479 19.8047C25.6479 20.5187 25.8299 21.0927 26.2219 21.5407C26.5999 21.9887 27.1039 22.1987 27.7339 22.1987C28.3499 22.1987 28.8539 21.9887 29.2459 21.5407ZM33.1034 17.8867C33.3974 17.3267 33.8034 16.9067 34.3354 16.5987C34.8674 16.2907 35.4694 16.1367 36.1554 16.1367C36.8414 16.1367 37.4434 16.2767 37.9754 16.5567C38.5074 16.8367 38.9134 17.2427 39.2214 17.7467C39.5294 18.2647 39.6834 18.8667 39.6974 19.5527C39.6974 19.7487 39.6834 19.9307 39.6554 20.1267H34.2514V20.2107C34.2794 20.8407 34.4754 21.3307 34.8394 21.6947C35.1894 22.0587 35.6654 22.2407 36.2534 22.2407C36.7154 22.2407 37.1074 22.1427 37.4294 21.9187C37.7374 21.6947 37.9474 21.3867 38.0594 20.9807H39.5714C39.4314 21.7087 39.0814 22.3107 38.5074 22.7727C37.9334 23.2487 37.2194 23.4727 36.3654 23.4727C35.6094 23.4727 34.9654 23.3327 34.4054 23.0247C33.8454 22.7167 33.4254 22.2967 33.1174 21.7367C32.8094 21.1907 32.6694 20.5467 32.6694 19.8187C32.6694 19.0907 32.8094 18.4467 33.1034 17.8867ZM38.1574 19.0207C38.0874 18.5027 37.8774 18.0967 37.5274 17.8027C37.1774 17.5087 36.7434 17.3547 36.2114 17.3547C35.7074 17.3547 35.2874 17.5087 34.9234 17.8167C34.5594 18.1247 34.3634 18.5167 34.3074 19.0207H38.1574ZM45.0218 16.2207V17.6347H44.3498C43.7198 17.6347 43.2718 17.8447 42.9918 18.2507C42.7118 18.6567 42.5718 19.1747 42.5718 19.7907V23.3887H41.0598V16.2207H42.4038L42.5718 17.2987C42.7678 16.9627 43.0338 16.7107 43.3698 16.5147C43.6918 16.3187 44.1258 16.2207 44.6858 16.2207H45.0218ZM47.1206 21.0227C47.1486 21.4007 47.3166 21.7087 47.6386 21.9467C47.9606 22.1847 48.3806 22.2967 48.8986 22.2967C49.3466 22.2967 49.7246 22.2127 50.0046 22.0447C50.2846 21.8767 50.4386 21.6387 50.4386 21.3447C50.4386 21.1067 50.3686 20.9247 50.2426 20.7987C50.1026 20.6867 49.9346 20.6027 49.7106 20.5467C49.4866 20.4907 49.1506 20.4347 48.7026 20.3787C48.0726 20.3087 47.5546 20.2107 47.1486 20.0847C46.7426 19.9587 46.4206 19.7627 46.1686 19.4827C45.9166 19.2027 45.8046 18.8387 45.8046 18.3627C45.8046 17.9287 45.9166 17.5367 46.1686 17.2007C46.4206 16.8647 46.7566 16.5987 47.1906 16.4027C47.6246 16.2207 48.1146 16.1227 48.6746 16.1227C49.5706 16.1227 50.3126 16.3327 50.8726 16.7247C51.4326 17.1307 51.7406 17.6907 51.7966 18.4187H50.3266C50.2846 18.0967 50.1166 17.8307 49.8366 17.6207C49.5426 17.4107 49.1786 17.2987 48.7446 17.2987C48.2966 17.2987 47.9466 17.3827 47.6806 17.5507C47.4006 17.7187 47.2746 17.9567 47.2746 18.2367C47.2746 18.4607 47.3306 18.6147 47.4706 18.7267C47.6106 18.8387 47.7786 18.9087 47.9886 18.9507C48.1846 18.9927 48.5206 19.0347 48.9826 19.0907C49.5986 19.1607 50.1166 19.2587 50.5366 19.3987C50.9566 19.5387 51.2926 19.7487 51.5446 20.0427C51.7966 20.3367 51.9226 20.7287 51.9226 21.2327C51.9226 21.6807 51.7826 22.0867 51.5306 22.4227C51.2646 22.7587 50.9006 23.0247 50.4526 23.2067C49.9906 23.3887 49.4726 23.4727 48.9126 23.4727C47.9466 23.4727 47.1626 23.2627 46.5746 22.8287C45.9866 22.3947 45.6786 21.7927 45.6646 21.0227H47.1206Z" fill="black"/>
<path d="M0.5 34.3887H320.5V68.3887H0.5V34.3887Z" fill="white" fill-opacity="0.05"/>
<path d="M0.5 34.3887H320.5V68.3887H0.5V34.3887Z" stroke="url(#paint2_linear_3661_2585)"/>
<path d="M14.7 56.5567C14.196 56.5567 13.7387 56.468 13.328 56.2907C12.9267 56.1133 12.5813 55.8613 12.292 55.5347C12.012 55.1987 11.7973 54.802 11.648 54.3447C11.4987 53.878 11.424 53.3553 11.424 52.7767C11.424 52.2073 11.4987 51.6893 11.648 51.2227C11.7973 50.756 12.012 50.3593 12.292 50.0327C12.5813 49.6967 12.9267 49.44 13.328 49.2627C13.7387 49.0853 14.196 48.9967 14.7 48.9967C15.204 48.9967 15.6567 49.0853 16.058 49.2627C16.4687 49.44 16.814 49.6967 17.094 50.0327C17.3833 50.3593 17.6027 50.756 17.752 51.2227C17.9013 51.6893 17.976 52.2073 17.976 52.7767C17.976 53.3553 17.9013 53.878 17.752 54.3447C17.6027 54.802 17.3833 55.1987 17.094 55.5347C16.814 55.8613 16.4687 56.1133 16.058 56.2907C15.6567 56.468 15.204 56.5567 14.7 56.5567ZM14.7 55.5907C15.3253 55.5907 15.8293 55.404 16.212 55.0307C16.5947 54.6573 16.786 54.0787 16.786 53.2947V52.2587C16.786 51.4747 16.5947 50.896 16.212 50.5227C15.8293 50.1493 15.3253 49.9627 14.7 49.9627C14.0747 49.9627 13.5707 50.1493 13.188 50.5227C12.8053 50.896 12.614 51.4747 12.614 52.2587V53.2947C12.614 54.0787 12.8053 54.6573 13.188 55.0307C13.5707 55.404 14.0747 55.5907 14.7 55.5907ZM19.9725 55.4367H22.0865V50.1167H19.9725V49.1647H23.2065V50.9847H23.2765C23.4259 50.4153 23.7059 49.972 24.1165 49.6547C24.5365 49.328 25.0685 49.1647 25.7125 49.1647H26.7205V50.2847H25.3625C24.7185 50.2847 24.1959 50.4713 23.7945 50.8447C23.4025 51.218 23.2065 51.708 23.2065 52.3147V55.4367H26.0065V56.3887H19.9725V55.4367ZM33.2391 55.2127H33.1831C32.7164 56.1087 31.9744 56.5567 30.9571 56.5567C30.0704 56.5567 29.3751 56.2253 28.8711 55.5627C28.3764 54.9 28.1291 53.9713 28.1291 52.7767C28.1291 51.582 28.3764 50.6533 28.8711 49.9907C29.3751 49.328 30.0704 48.9967 30.9571 48.9967C31.9744 48.9967 32.7164 49.4447 33.1831 50.3407H33.2391V46.0287H34.3591V56.3887H33.2391V55.2127ZM31.3911 55.5627C31.6431 55.5627 31.8811 55.53 32.1051 55.4647C32.3291 55.3993 32.5251 55.306 32.6931 55.1847C32.8611 55.054 32.9917 54.9 33.0851 54.7227C33.1877 54.536 33.2391 54.3213 33.2391 54.0787V51.4747C33.2391 51.232 33.1877 51.022 33.0851 50.8447C32.9917 50.658 32.8611 50.504 32.6931 50.3827C32.5251 50.252 32.3291 50.154 32.1051 50.0887C31.8811 50.0233 31.6431 49.9907 31.3911 49.9907C30.7377 49.9907 30.2291 50.1913 29.8651 50.5927C29.5104 50.9847 29.3331 51.5073 29.3331 52.1607V53.3927C29.3331 54.046 29.5104 54.5733 29.8651 54.9747C30.2291 55.3667 30.7377 55.5627 31.3911 55.5627ZM40.0096 56.5567C39.4869 56.5567 39.0156 56.468 38.5956 56.2907C38.1849 56.1133 37.8303 55.8613 37.5316 55.5347C37.2423 55.1987 37.0183 54.802 36.8596 54.3447C36.7009 53.878 36.6216 53.36 36.6216 52.7907C36.6216 52.212 36.7009 51.6893 36.8596 51.2227C37.0276 50.756 37.2563 50.3593 37.5456 50.0327C37.8349 49.6967 38.1803 49.44 38.5816 49.2627C38.9923 49.0853 39.4449 48.9967 39.9396 48.9967C40.4249 48.9967 40.8636 49.0853 41.2556 49.2627C41.6569 49.44 41.9976 49.6873 42.2776 50.0047C42.5576 50.3127 42.7723 50.6813 42.9216 51.1107C43.0709 51.54 43.1456 52.0113 43.1456 52.5247V53.0567H37.7976V53.3927C37.7976 53.71 37.8489 54.004 37.9516 54.2747C38.0543 54.5453 38.1989 54.7787 38.3856 54.9747C38.5816 55.1707 38.8149 55.3247 39.0856 55.4367C39.3656 55.5393 39.6736 55.5907 40.0096 55.5907C40.4949 55.5907 40.9149 55.4787 41.2696 55.2547C41.6243 55.0307 41.8949 54.7227 42.0816 54.3307L42.9076 54.8907C42.6929 55.376 42.3336 55.7773 41.8296 56.0947C41.3349 56.4027 40.7283 56.5567 40.0096 56.5567ZM39.9396 49.9207C39.6316 49.9207 39.3469 49.9767 39.0856 50.0887C38.8243 50.2007 38.5956 50.3547 38.3996 50.5507C38.2129 50.7467 38.0636 50.98 37.9516 51.2507C37.8489 51.512 37.7976 51.8013 37.7976 52.1187V52.2167H41.9416V52.0627C41.9416 51.7453 41.8903 51.456 41.7876 51.1947C41.6943 50.9333 41.5589 50.7093 41.3816 50.5227C41.2136 50.3267 41.0036 50.1773 40.7516 50.0747C40.5089 49.972 40.2383 49.9207 39.9396 49.9207ZM45.1561 55.4367H47.2701V50.1167H45.1561V49.1647H48.3901V50.9847H48.4601C48.6095 50.4153 48.8895 49.972 49.3001 49.6547C49.7201 49.328 50.2521 49.1647 50.8961 49.1647H51.9041V50.2847H50.5461C49.9021 50.2847 49.3795 50.4713 48.9781 50.8447C48.5861 51.218 48.3901 51.708 48.3901 52.3147V55.4367H51.1901V56.3887H45.1561V55.4367ZM53.3127 58.7547V57.7187H60.0327V58.7547H53.3127ZM65.5152 47.5687C65.1885 47.5687 64.9599 47.5033 64.8292 47.3727C64.6985 47.2327 64.6332 47.06 64.6332 46.8547V46.6307C64.6332 46.4253 64.6985 46.2573 64.8292 46.1267C64.9599 45.9867 65.1885 45.9167 65.5152 45.9167C65.8419 45.9167 66.0705 45.9867 66.2012 46.1267C66.3319 46.2573 66.3972 46.4253 66.3972 46.6307V46.8547C66.3972 47.06 66.3319 47.2327 66.2012 47.3727C66.0705 47.5033 65.8419 47.5687 65.5152 47.5687ZM62.3512 55.4367H64.9552V50.1167H62.3512V49.1647H66.0752V55.4367H68.5112V56.3887H62.3512V55.4367ZM75.2117 55.2127H75.1557C74.6891 56.1087 73.9471 56.5567 72.9297 56.5567C72.0431 56.5567 71.3477 56.2253 70.8437 55.5627C70.3491 54.9 70.1017 53.9713 70.1017 52.7767C70.1017 51.582 70.3491 50.6533 70.8437 49.9907C71.3477 49.328 72.0431 48.9967 72.9297 48.9967C73.9471 48.9967 74.6891 49.4447 75.1557 50.3407H75.2117V46.0287H76.3317V56.3887H75.2117V55.2127ZM73.3637 55.5627C73.6157 55.5627 73.8537 55.53 74.0777 55.4647C74.3017 55.3993 74.4977 55.306 74.6657 55.1847C74.8337 55.054 74.9644 54.9 75.0577 54.7227C75.1604 54.536 75.2117 54.3213 75.2117 54.0787V51.4747C75.2117 51.232 75.1604 51.022 75.0577 50.8447C74.9644 50.658 74.8337 50.504 74.6657 50.3827C74.4977 50.252 74.3017 50.154 74.0777 50.0887C73.8537 50.0233 73.6157 49.9907 73.3637 49.9907C72.7104 49.9907 72.2017 50.1913 71.8377 50.5927C71.4831 50.9847 71.3057 51.5073 71.3057 52.1607V53.3927C71.3057 54.046 71.4831 54.5733 71.8377 54.9747C72.2017 55.3667 72.7104 55.5627 73.3637 55.5627Z" fill="white"/>
<path d="M252.676 56.3887V55.4507H255.112V47.5547H252.676V46.6167H258.724V47.5547H256.288V55.4507H258.724V56.3887H252.676ZM262.177 48.1147H262.079V56.3887H261.015V46.6167H262.681L266.013 54.8067H266.111V46.6167H267.175V56.3887H265.509L262.177 48.1147ZM273.077 47.6387V56.3887H271.901V47.6387H268.639V46.6167H276.339V47.6387H273.077ZM277.944 56.3887V46.6167H283.964V47.6387H279.12V50.9287H283.796V51.9507H279.12V55.3667H283.964V56.3887H277.944ZM291.294 55.0867H291.224C291.14 55.2733 291.042 55.4553 290.93 55.6327C290.818 55.81 290.673 55.9687 290.496 56.1087C290.328 56.2393 290.123 56.3467 289.88 56.4307C289.637 56.5147 289.348 56.5567 289.012 56.5567C287.948 56.5567 287.155 56.1273 286.632 55.2687C286.119 54.41 285.862 53.178 285.862 51.5727C285.862 49.8927 286.147 48.6187 286.716 47.7507C287.285 46.8827 288.163 46.4487 289.348 46.4487C289.805 46.4487 290.202 46.5093 290.538 46.6307C290.874 46.752 291.159 46.9153 291.392 47.1207C291.635 47.326 291.835 47.5593 291.994 47.8207C292.153 48.0727 292.283 48.3293 292.386 48.5907L291.378 49.0527C291.294 48.838 291.196 48.6373 291.084 48.4507C290.981 48.2547 290.851 48.0867 290.692 47.9467C290.543 47.7973 290.361 47.6807 290.146 47.5967C289.931 47.5127 289.679 47.4707 289.39 47.4707C288.606 47.4707 288.027 47.7647 287.654 48.3527C287.29 48.9407 287.108 49.7247 287.108 50.7047V52.2167C287.108 52.7113 287.145 53.164 287.22 53.5747C287.295 53.976 287.416 54.326 287.584 54.6247C287.761 54.9233 287.985 55.1567 288.256 55.3247C288.536 55.4833 288.877 55.5627 289.278 55.5627C289.913 55.5627 290.407 55.3713 290.762 54.9887C291.117 54.606 291.294 54.1113 291.294 53.5047V52.4967H289.236V51.5587H292.386V56.3887H291.294V55.0867ZM294.733 56.3887V46.6167H300.753V47.6387H295.909V50.9287H300.585V51.9507H295.909V55.3667H300.753V56.3887H294.733ZM304.303 56.3887H303.127V46.6167H306.683C307.589 46.6167 308.279 46.864 308.755 47.3587C309.231 47.8533 309.469 48.544 309.469 49.4307C309.469 50.224 309.264 50.8587 308.853 51.3347C308.443 51.8107 307.845 52.086 307.061 52.1607L309.553 56.3887H308.237L305.857 52.2167H304.303V56.3887ZM306.655 51.2227C307.15 51.2227 307.533 51.1013 307.803 50.8587C308.083 50.6067 308.223 50.252 308.223 49.7947V49.0667C308.223 48.6093 308.083 48.2593 307.803 48.0167C307.533 47.7647 307.15 47.6387 306.655 47.6387H304.303V51.2227H306.655Z" fill="white" fill-opacity="0.6"/>
<path d="M0.5 68.3887H320.5V102.389H0.5V68.3887Z" fill="white" fill-opacity="0.05"/>
<path d="M0.5 68.3887H320.5V102.389H0.5V68.3887Z" stroke="url(#paint3_linear_3661_2585)"/>
<path d="M14.7 90.5567C14.196 90.5567 13.7387 90.468 13.328 90.2907C12.9267 90.1133 12.5813 89.8613 12.292 89.5347C12.012 89.1987 11.7973 88.802 11.648 88.3447C11.4987 87.878 11.424 87.3553 11.424 86.7767C11.424 86.2073 11.4987 85.6893 11.648 85.2227C11.7973 84.756 12.012 84.3593 12.292 84.0327C12.5813 83.6967 12.9267 83.44 13.328 83.2627C13.7387 83.0853 14.196 82.9967 14.7 82.9967C15.204 82.9967 15.6567 83.0853 16.058 83.2627C16.4687 83.44 16.814 83.6967 17.094 84.0327C17.3833 84.3593 17.6027 84.756 17.752 85.2227C17.9013 85.6893 17.976 86.2073 17.976 86.7767C17.976 87.3553 17.9013 87.878 17.752 88.3447C17.6027 88.802 17.3833 89.1987 17.094 89.5347C16.814 89.8613 16.4687 90.1133 16.058 90.2907C15.6567 90.468 15.204 90.5567 14.7 90.5567ZM14.7 89.5907C15.3253 89.5907 15.8293 89.404 16.212 89.0307C16.5947 88.6573 16.786 88.0787 16.786 87.2947V86.2587C16.786 85.4747 16.5947 84.896 16.212 84.5227C15.8293 84.1493 15.3253 83.9627 14.7 83.9627C14.0747 83.9627 13.5707 84.1493 13.188 84.5227C12.8053 84.896 12.614 85.4747 12.614 86.2587V87.2947C12.614 88.0787 12.8053 88.6573 13.188 89.0307C13.5707 89.404 14.0747 89.5907 14.7 89.5907ZM19.9725 89.4367H22.0865V84.1167H19.9725V83.1647H23.2065V84.9847H23.2765C23.4259 84.4153 23.7059 83.972 24.1165 83.6547C24.5365 83.328 25.0685 83.1647 25.7125 83.1647H26.7205V84.2847H25.3625C24.7185 84.2847 24.1959 84.4713 23.7945 84.8447C23.4025 85.218 23.2065 85.708 23.2065 86.3147V89.4367H26.0065V90.3887H19.9725V89.4367ZM33.2391 89.2127H33.1831C32.7164 90.1087 31.9744 90.5567 30.9571 90.5567C30.0704 90.5567 29.3751 90.2253 28.8711 89.5627C28.3764 88.9 28.1291 87.9713 28.1291 86.7767C28.1291 85.582 28.3764 84.6533 28.8711 83.9907C29.3751 83.328 30.0704 82.9967 30.9571 82.9967C31.9744 82.9967 32.7164 83.4447 33.1831 84.3407H33.2391V80.0287H34.3591V90.3887H33.2391V89.2127ZM31.3911 89.5627C31.6431 89.5627 31.8811 89.53 32.1051 89.4647C32.3291 89.3993 32.5251 89.306 32.6931 89.1847C32.8611 89.054 32.9917 88.9 33.0851 88.7227C33.1877 88.536 33.2391 88.3213 33.2391 88.0787V85.4747C33.2391 85.232 33.1877 85.022 33.0851 84.8447C32.9917 84.658 32.8611 84.504 32.6931 84.3827C32.5251 84.252 32.3291 84.154 32.1051 84.0887C31.8811 84.0233 31.6431 83.9907 31.3911 83.9907C30.7377 83.9907 30.2291 84.1913 29.8651 84.5927C29.5104 84.9847 29.3331 85.5073 29.3331 86.1607V87.3927C29.3331 88.046 29.5104 88.5733 29.8651 88.9747C30.2291 89.3667 30.7377 89.5627 31.3911 89.5627ZM40.0096 90.5567C39.4869 90.5567 39.0156 90.468 38.5956 90.2907C38.1849 90.1133 37.8303 89.8613 37.5316 89.5347C37.2423 89.1987 37.0183 88.802 36.8596 88.3447C36.7009 87.878 36.6216 87.36 36.6216 86.7907C36.6216 86.212 36.7009 85.6893 36.8596 85.2227C37.0276 84.756 37.2563 84.3593 37.5456 84.0327C37.8349 83.6967 38.1803 83.44 38.5816 83.2627C38.9923 83.0853 39.4449 82.9967 39.9396 82.9967C40.4249 82.9967 40.8636 83.0853 41.2556 83.2627C41.6569 83.44 41.9976 83.6873 42.2776 84.0047C42.5576 84.3127 42.7723 84.6813 42.9216 85.1107C43.0709 85.54 43.1456 86.0113 43.1456 86.5247V87.0567H37.7976V87.3927C37.7976 87.71 37.8489 88.004 37.9516 88.2747C38.0543 88.5453 38.1989 88.7787 38.3856 88.9747C38.5816 89.1707 38.8149 89.3247 39.0856 89.4367C39.3656 89.5393 39.6736 89.5907 40.0096 89.5907C40.4949 89.5907 40.9149 89.4787 41.2696 89.2547C41.6243 89.0307 41.8949 88.7227 42.0816 88.3307L42.9076 88.8907C42.6929 89.376 42.3336 89.7773 41.8296 90.0947C41.3349 90.4027 40.7283 90.5567 40.0096 90.5567ZM39.9396 83.9207C39.6316 83.9207 39.3469 83.9767 39.0856 84.0887C38.8243 84.2007 38.5956 84.3547 38.3996 84.5507C38.2129 84.7467 38.0636 84.98 37.9516 85.2507C37.8489 85.512 37.7976 85.8013 37.7976 86.1187V86.2167H41.9416V86.0627C41.9416 85.7453 41.8903 85.456 41.7876 85.1947C41.6943 84.9333 41.5589 84.7093 41.3816 84.5227C41.2136 84.3267 41.0036 84.1773 40.7516 84.0747C40.5089 83.972 40.2383 83.9207 39.9396 83.9207ZM45.1561 89.4367H47.2701V84.1167H45.1561V83.1647H48.3901V84.9847H48.4601C48.6095 84.4153 48.8895 83.972 49.3001 83.6547C49.7201 83.328 50.2521 83.1647 50.8961 83.1647H51.9041V84.2847H50.5461C49.9021 84.2847 49.3795 84.4713 48.9781 84.8447C48.5861 85.218 48.3901 85.708 48.3901 86.3147V89.4367H51.1901V90.3887H45.1561V89.4367ZM53.3127 92.7547V91.7187H60.0327V92.7547H53.3127ZM65.5152 81.5687C65.1885 81.5687 64.9599 81.5033 64.8292 81.3727C64.6985 81.2327 64.6332 81.06 64.6332 80.8547V80.6307C64.6332 80.4253 64.6985 80.2573 64.8292 80.1267C64.9599 79.9867 65.1885 79.9167 65.5152 79.9167C65.8419 79.9167 66.0705 79.9867 66.2012 80.1267C66.3319 80.2573 66.3972 80.4253 66.3972 80.6307V80.8547C66.3972 81.06 66.3319 81.2327 66.2012 81.3727C66.0705 81.5033 65.8419 81.5687 65.5152 81.5687ZM62.3512 89.4367H64.9552V84.1167H62.3512V83.1647H66.0752V89.4367H68.5112V90.3887H62.3512V89.4367ZM75.2117 89.2127H75.1557C74.6891 90.1087 73.9471 90.5567 72.9297 90.5567C72.0431 90.5567 71.3477 90.2253 70.8437 89.5627C70.3491 88.9 70.1017 87.9713 70.1017 86.7767C70.1017 85.582 70.3491 84.6533 70.8437 83.9907C71.3477 83.328 72.0431 82.9967 72.9297 82.9967C73.9471 82.9967 74.6891 83.4447 75.1557 84.3407H75.2117V80.0287H76.3317V90.3887H75.2117V89.2127ZM73.3637 89.5627C73.6157 89.5627 73.8537 89.53 74.0777 89.4647C74.3017 89.3993 74.4977 89.306 74.6657 89.1847C74.8337 89.054 74.9644 88.9 75.0577 88.7227C75.1604 88.536 75.2117 88.3213 75.2117 88.0787V85.4747C75.2117 85.232 75.1604 85.022 75.0577 84.8447C74.9644 84.658 74.8337 84.504 74.6657 84.3827C74.4977 84.252 74.3017 84.154 74.0777 84.0887C73.8537 84.0233 73.6157 83.9907 73.3637 83.9907C72.7104 83.9907 72.2017 84.1913 71.8377 84.5927C71.4831 84.9847 71.3057 85.5073 71.3057 86.1607V87.3927C71.3057 88.046 71.4831 88.5733 71.8377 88.9747C72.2017 89.3667 72.7104 89.5627 73.3637 89.5627Z" fill="white"/>
<path d="M277.83 80.6167H280.56C281.755 80.6167 282.646 81.0273 283.234 81.8487C283.822 82.67 284.116 83.888 284.116 85.5027C284.116 87.1173 283.822 88.3353 283.234 89.1567C282.646 89.978 281.755 90.3887 280.56 90.3887H277.83V80.6167ZM280.504 89.3667C281.288 89.3667 281.876 89.096 282.268 88.5547C282.669 88.0133 282.87 87.248 282.87 86.2587V84.7467C282.87 83.7573 282.669 82.992 282.268 82.4507C281.876 81.9093 281.288 81.6387 280.504 81.6387H279.006V89.3667H280.504ZM291.629 90.3887L290.803 87.6027H287.373L286.547 90.3887H285.329L288.325 80.6167H289.879L292.875 90.3887H291.629ZM289.151 81.8627H289.025L287.653 86.5807H290.523L289.151 81.8627ZM298.077 81.6387V90.3887H296.901V81.6387H293.639V80.6167H301.339V81.6387H298.077ZM302.944 90.3887V80.6167H308.964V81.6387H304.12V84.9287H308.796V85.9507H304.12V89.3667H308.964V90.3887H302.944Z" fill="white" fill-opacity="0.6"/>
<path d="M0.5 102.389H320.5V136.389H0.5V102.389Z" fill="white" fill-opacity="0.05"/>
<path d="M0.5 102.389H320.5V136.389H0.5V102.389Z" stroke="url(#paint4_linear_3661_2585)"/>
<path d="M14.952 124.557C14.4293 124.557 13.9627 124.468 13.552 124.291C13.1507 124.104 12.81 123.847 12.53 123.521C12.25 123.194 12.0353 122.797 11.886 122.331C11.746 121.864 11.676 121.346 11.676 120.777C11.676 120.207 11.7507 119.689 11.9 119.223C12.0493 118.756 12.264 118.359 12.544 118.033C12.824 117.697 13.1647 117.44 13.566 117.263C13.9673 117.085 14.4247 116.997 14.938 116.997C15.638 116.997 16.2073 117.151 16.646 117.459C17.0847 117.767 17.4067 118.168 17.612 118.663L16.716 119.139C16.5853 118.765 16.366 118.476 16.058 118.271C15.7593 118.065 15.386 117.963 14.938 117.963C14.6113 117.963 14.3173 118.019 14.056 118.131C13.804 118.233 13.5893 118.383 13.412 118.579C13.2347 118.775 13.0993 119.008 13.006 119.279C12.922 119.549 12.88 119.843 12.88 120.161V121.393C12.88 121.71 12.922 122.004 13.006 122.275C13.0993 122.545 13.2347 122.779 13.412 122.975C13.5893 123.171 13.8087 123.325 14.07 123.437C14.3313 123.539 14.63 123.591 14.966 123.591C15.4513 123.591 15.8527 123.479 16.17 123.255C16.4873 123.031 16.7393 122.723 16.926 122.331L17.724 122.877C17.5093 123.362 17.1733 123.763 16.716 124.081C16.268 124.398 15.68 124.557 14.952 124.557ZM24.8025 123.213H24.7465C24.6719 123.39 24.5785 123.563 24.4665 123.731C24.3545 123.889 24.2145 124.029 24.0465 124.151C23.8879 124.272 23.6965 124.37 23.4725 124.445C23.2485 124.519 22.9872 124.557 22.6885 124.557C21.9325 124.557 21.3259 124.319 20.8685 123.843C20.4112 123.357 20.1825 122.676 20.1825 121.799V117.165H21.3025V121.603C21.3025 122.265 21.4472 122.76 21.7365 123.087C22.0259 123.404 22.4505 123.563 23.0105 123.563C23.2345 123.563 23.4539 123.535 23.6685 123.479C23.8832 123.423 24.0745 123.339 24.2425 123.227C24.4105 123.115 24.5459 122.975 24.6485 122.807C24.7512 122.629 24.8025 122.419 24.8025 122.177V117.165H25.9225V124.389H24.8025V123.213ZM31.5731 124.557C30.8171 124.557 30.1637 124.431 29.6131 124.179C29.0717 123.917 28.6097 123.572 28.2271 123.143L28.9831 122.485C29.3284 122.849 29.7064 123.129 30.1171 123.325C30.5277 123.521 31.0224 123.619 31.6011 123.619C32.1611 123.619 32.6184 123.521 32.9731 123.325C33.3371 123.119 33.5191 122.802 33.5191 122.373C33.5191 122.186 33.4817 122.032 33.4071 121.911C33.3417 121.78 33.2484 121.677 33.1271 121.603C33.0057 121.528 32.8704 121.472 32.7211 121.435C32.5717 121.388 32.4131 121.351 32.2451 121.323L31.1111 121.155C30.8591 121.117 30.5837 121.066 30.2851 121.001C29.9957 120.935 29.7297 120.833 29.4871 120.693C29.2444 120.543 29.0391 120.347 28.8711 120.105C28.7124 119.862 28.6331 119.545 28.6331 119.153C28.6331 118.789 28.7031 118.476 28.8431 118.215C28.9924 117.944 29.1977 117.72 29.4591 117.543C29.7204 117.356 30.0284 117.221 30.3831 117.137C30.7377 117.043 31.1251 116.997 31.5451 116.997C32.1984 116.997 32.7631 117.099 33.2391 117.305C33.7244 117.51 34.1397 117.795 34.4851 118.159L33.7571 118.845C33.6731 118.742 33.5657 118.639 33.4351 118.537C33.3137 118.425 33.1597 118.327 32.9731 118.243C32.7957 118.149 32.5857 118.075 32.3431 118.019C32.1004 117.963 31.8204 117.935 31.5031 117.935C30.9337 117.935 30.4951 118.033 30.1871 118.229C29.8884 118.425 29.7391 118.709 29.7391 119.083C29.7391 119.269 29.7717 119.428 29.8371 119.559C29.9117 119.68 30.0097 119.778 30.1311 119.853C30.2524 119.927 30.3877 119.988 30.5371 120.035C30.6957 120.072 30.8544 120.105 31.0131 120.133L32.1471 120.301C32.4084 120.338 32.6837 120.389 32.9731 120.455C33.2624 120.52 33.5284 120.627 33.7711 120.777C34.0137 120.917 34.2144 121.108 34.3731 121.351C34.5411 121.593 34.6251 121.911 34.6251 122.303C34.6251 123.021 34.3451 123.577 33.7851 123.969C33.2344 124.361 32.4971 124.557 31.5731 124.557ZM40.2336 124.389C39.6829 124.389 39.2769 124.235 39.0156 123.927C38.7636 123.619 38.6376 123.222 38.6376 122.737V118.117H36.2296V117.165H38.0216C38.2643 117.165 38.4323 117.118 38.5256 117.025C38.6283 116.922 38.6796 116.749 38.6796 116.507V114.617H39.7576V117.165H43.0476V118.117H39.7576V123.437H43.0476V124.389H40.2336ZM48.2781 124.557C47.7741 124.557 47.3168 124.468 46.9061 124.291C46.5048 124.113 46.1595 123.861 45.8701 123.535C45.5901 123.199 45.3755 122.802 45.2261 122.345C45.0768 121.878 45.0021 121.355 45.0021 120.777C45.0021 120.207 45.0768 119.689 45.2261 119.223C45.3755 118.756 45.5901 118.359 45.8701 118.033C46.1595 117.697 46.5048 117.44 46.9061 117.263C47.3168 117.085 47.7741 116.997 48.2781 116.997C48.7821 116.997 49.2348 117.085 49.6361 117.263C50.0468 117.44 50.3921 117.697 50.6721 118.033C50.9615 118.359 51.1808 118.756 51.3301 119.223C51.4795 119.689 51.5541 120.207 51.5541 120.777C51.5541 121.355 51.4795 121.878 51.3301 122.345C51.1808 122.802 50.9615 123.199 50.6721 123.535C50.3921 123.861 50.0468 124.113 49.6361 124.291C49.2348 124.468 48.7821 124.557 48.2781 124.557ZM48.2781 123.591C48.9035 123.591 49.4075 123.404 49.7901 123.031C50.1728 122.657 50.3641 122.079 50.3641 121.295V120.259C50.3641 119.475 50.1728 118.896 49.7901 118.523C49.4075 118.149 48.9035 117.963 48.2781 117.963C47.6528 117.963 47.1488 118.149 46.7661 118.523C46.3835 118.896 46.1921 119.475 46.1921 120.259V121.295C46.1921 122.079 46.3835 122.657 46.7661 123.031C47.1488 123.404 47.6528 123.591 48.2781 123.591ZM53.2287 124.389V117.165H54.2647V118.005H54.3207C54.4327 117.725 54.5913 117.487 54.7967 117.291C55.002 117.095 55.3053 116.997 55.7067 116.997C56.1267 116.997 56.4393 117.104 56.6447 117.319C56.85 117.524 56.976 117.795 57.0227 118.131H57.0647C57.1953 117.804 57.382 117.533 57.6247 117.319C57.8673 117.104 58.2033 116.997 58.6327 116.997C59.2207 116.997 59.6127 117.202 59.8087 117.613C60.014 118.023 60.1167 118.611 60.1167 119.377V124.389H59.0807V119.559C59.0807 118.943 59.0153 118.518 58.8847 118.285C58.7633 118.042 58.5347 117.921 58.1987 117.921C57.9 117.921 57.6573 118.019 57.4707 118.215C57.284 118.401 57.1907 118.691 57.1907 119.083V124.389H56.1547V119.559C56.1547 118.943 56.0893 118.518 55.9587 118.285C55.8373 118.042 55.6133 117.921 55.2867 117.921C54.988 117.921 54.7407 118.019 54.5447 118.215C54.358 118.401 54.2647 118.691 54.2647 119.083V124.389H53.2287ZM65.1932 124.557C64.6705 124.557 64.1992 124.468 63.7792 124.291C63.3685 124.113 63.0139 123.861 62.7152 123.535C62.4259 123.199 62.2019 122.802 62.0432 122.345C61.8845 121.878 61.8052 121.36 61.8052 120.791C61.8052 120.212 61.8845 119.689 62.0432 119.223C62.2112 118.756 62.4399 118.359 62.7292 118.033C63.0185 117.697 63.3639 117.44 63.7652 117.263C64.1759 117.085 64.6285 116.997 65.1232 116.997C65.6085 116.997 66.0472 117.085 66.4392 117.263C66.8405 117.44 67.1812 117.687 67.4612 118.005C67.7412 118.313 67.9559 118.681 68.1052 119.111C68.2545 119.54 68.3292 120.011 68.3292 120.525V121.057H62.9812V121.393C62.9812 121.71 63.0325 122.004 63.1352 122.275C63.2379 122.545 63.3825 122.779 63.5692 122.975C63.7652 123.171 63.9985 123.325 64.2692 123.437C64.5492 123.539 64.8572 123.591 65.1932 123.591C65.6785 123.591 66.0985 123.479 66.4532 123.255C66.8079 123.031 67.0785 122.723 67.2652 122.331L68.0912 122.891C67.8765 123.376 67.5172 123.777 67.0132 124.095C66.5185 124.403 65.9119 124.557 65.1932 124.557ZM65.1232 117.921C64.8152 117.921 64.5305 117.977 64.2692 118.089C64.0079 118.201 63.7792 118.355 63.5832 118.551C63.3965 118.747 63.2472 118.98 63.1352 119.251C63.0325 119.512 62.9812 119.801 62.9812 120.119V120.217H67.1252V120.063C67.1252 119.745 67.0739 119.456 66.9712 119.195C66.8779 118.933 66.7425 118.709 66.5652 118.523C66.3972 118.327 66.1872 118.177 65.9352 118.075C65.6925 117.972 65.4219 117.921 65.1232 117.921ZM70.3397 123.437H72.4537V118.117H70.3397V117.165H73.5737V118.985H73.6437C73.7931 118.415 74.0731 117.972 74.4837 117.655C74.9037 117.328 75.4357 117.165 76.0797 117.165H77.0877V118.285H75.7297C75.0857 118.285 74.5631 118.471 74.1617 118.845C73.7697 119.218 73.5737 119.708 73.5737 120.315V123.437H76.3737V124.389H70.3397V123.437ZM78.4963 126.755V125.719H85.2163V126.755H78.4963ZM90.6988 115.569C90.3721 115.569 90.1434 115.503 90.0128 115.373C89.8821 115.233 89.8168 115.06 89.8168 114.855V114.631C89.8168 114.425 89.8821 114.257 90.0128 114.127C90.1434 113.987 90.3721 113.917 90.6988 113.917C91.0254 113.917 91.2541 113.987 91.3848 114.127C91.5154 114.257 91.5808 114.425 91.5808 114.631V114.855C91.5808 115.06 91.5154 115.233 91.3848 115.373C91.2541 115.503 91.0254 115.569 90.6988 115.569ZM87.5348 123.437H90.1388V118.117H87.5348V117.165H91.2588V123.437H93.6948V124.389H87.5348V123.437ZM100.395 123.213H100.339C99.8726 124.109 99.1306 124.557 98.1133 124.557C97.2266 124.557 96.5313 124.225 96.0273 123.563C95.5326 122.9 95.2853 121.971 95.2853 120.777C95.2853 119.582 95.5326 118.653 96.0273 117.991C96.5313 117.328 97.2266 116.997 98.1133 116.997C99.1306 116.997 99.8726 117.445 100.339 118.341H100.395V114.029H101.515V124.389H100.395V123.213ZM98.5473 123.563C98.7993 123.563 99.0373 123.53 99.2613 123.465C99.4853 123.399 99.6813 123.306 99.8493 123.185C100.017 123.054 100.148 122.9 100.241 122.723C100.344 122.536 100.395 122.321 100.395 122.079V119.475C100.395 119.232 100.344 119.022 100.241 118.845C100.148 118.658 100.017 118.504 99.8493 118.383C99.6813 118.252 99.4853 118.154 99.2613 118.089C99.0373 118.023 98.7993 117.991 98.5473 117.991C97.894 117.991 97.3853 118.191 97.0213 118.593C96.6666 118.985 96.4893 119.507 96.4893 120.161V121.393C96.4893 122.046 96.6666 122.573 97.0213 122.975C97.3853 123.367 97.894 123.563 98.5473 123.563Z" fill="white"/>
<path d="M252.676 124.389V123.451H255.112V115.555H252.676V114.617H258.724V115.555H256.288V123.451H258.724V124.389H252.676ZM262.177 116.115H262.079V124.389H261.015V114.617H262.681L266.013 122.807H266.111V114.617H267.175V124.389H265.509L262.177 116.115ZM273.077 115.639V124.389H271.901V115.639H268.639V114.617H276.339V115.639H273.077ZM277.944 124.389V114.617H283.964V115.639H279.12V118.929H283.796V119.951H279.12V123.367H283.964V124.389H277.944ZM291.294 123.087H291.224C291.14 123.273 291.042 123.455 290.93 123.633C290.818 123.81 290.673 123.969 290.496 124.109C290.328 124.239 290.123 124.347 289.88 124.431C289.637 124.515 289.348 124.557 289.012 124.557C287.948 124.557 287.155 124.127 286.632 123.269C286.119 122.41 285.862 121.178 285.862 119.573C285.862 117.893 286.147 116.619 286.716 115.751C287.285 114.883 288.163 114.449 289.348 114.449C289.805 114.449 290.202 114.509 290.538 114.631C290.874 114.752 291.159 114.915 291.392 115.121C291.635 115.326 291.835 115.559 291.994 115.821C292.153 116.073 292.283 116.329 292.386 116.591L291.378 117.053C291.294 116.838 291.196 116.637 291.084 116.451C290.981 116.255 290.851 116.087 290.692 115.947C290.543 115.797 290.361 115.681 290.146 115.597C289.931 115.513 289.679 115.471 289.39 115.471C288.606 115.471 288.027 115.765 287.654 116.353C287.29 116.941 287.108 117.725 287.108 118.705V120.217C287.108 120.711 287.145 121.164 287.22 121.575C287.295 121.976 287.416 122.326 287.584 122.625C287.761 122.923 287.985 123.157 288.256 123.325C288.536 123.483 288.877 123.563 289.278 123.563C289.913 123.563 290.407 123.371 290.762 122.989C291.117 122.606 291.294 122.111 291.294 121.505V120.497H289.236V119.559H292.386V124.389H291.294V123.087ZM294.733 124.389V114.617H300.753V115.639H295.909V118.929H300.585V119.951H295.909V123.367H300.753V124.389H294.733ZM304.303 124.389H303.127V114.617H306.683C307.589 114.617 308.279 114.864 308.755 115.359C309.231 115.853 309.469 116.544 309.469 117.431C309.469 118.224 309.264 118.859 308.853 119.335C308.443 119.811 307.845 120.086 307.061 120.161L309.553 124.389H308.237L305.857 120.217H304.303V124.389ZM306.655 119.223C307.15 119.223 307.533 119.101 307.803 118.859C308.083 118.607 308.223 118.252 308.223 117.795V117.067C308.223 116.609 308.083 116.259 307.803 116.017C307.533 115.765 307.15 115.639 306.655 115.639H304.303V119.223H306.655Z" fill="white" fill-opacity="0.6"/>
<defs>
<linearGradient id="paint0_linear_3661_2585" x1="162.766" y1="1.37316" x2="163.34" y2="34.515" gradientUnits="userSpaceOnUse">
<stop stop-color="#F4C587"/>
<stop offset="0.5" stop-color="#D6D3E9"/>
<stop offset="1" stop-color="#99D2EC"/>
</linearGradient>
<linearGradient id="paint1_linear_3661_2585" x1="0.5" y1="1.38867" x2="320.5" y2="1.38403" gradientUnits="userSpaceOnUse">
<stop stop-color="#F4C587"/>
<stop offset="0.5" stop-color="#D6D3E9"/>
<stop offset="1" stop-color="#99D2EC"/>
</linearGradient>
<linearGradient id="paint2_linear_3661_2585" x1="0.5" y1="34.3887" x2="320.5" y2="34.3842" gradientUnits="userSpaceOnUse">
<stop stop-color="#F4C587"/>
<stop offset="0.5" stop-color="#D6D3E9"/>
<stop offset="1" stop-color="#99D2EC"/>
</linearGradient>
<linearGradient id="paint3_linear_3661_2585" x1="0.5" y1="68.3887" x2="320.5" y2="68.3842" gradientUnits="userSpaceOnUse">
<stop stop-color="#F4C587"/>
<stop offset="0.5" stop-color="#D6D3E9"/>
<stop offset="1" stop-color="#99D2EC"/>
</linearGradient>
<linearGradient id="paint4_linear_3661_2585" x1="0.5" y1="102.389" x2="320.5" y2="102.384" gradientUnits="userSpaceOnUse">
<stop stop-color="#F4C587"/>
<stop offset="0.5" stop-color="#D6D3E9"/>
<stop offset="1" stop-color="#99D2EC"/>
</linearGradient>
</defs>
</svg>
