<svg width="321" height="129" viewBox="0 0 321 129" fill="none" xmlns="http://www.w3.org/2000/svg">
<rect x="0.5" y="1.38867" width="320" height="31" fill="url(#paint0_linear_3661_2741)"/>
<rect x="0.5" y="1.38867" width="320" height="31" stroke="url(#paint1_linear_3661_2741)"/>
<path d="M16.772 21.7727C16.184 22.2487 15.442 22.4727 14.546 22.4727C13.832 22.4727 13.202 22.3327 12.67 22.0247C12.124 21.7167 11.704 21.2827 11.41 20.7227C11.116 20.1627 10.976 19.5187 10.976 18.7907C10.976 18.0627 11.116 17.4327 11.424 16.8727C11.718 16.3267 12.138 15.9067 12.684 15.5987C13.23 15.2907 13.86 15.1367 14.588 15.1367C15.484 15.1367 16.212 15.3747 16.786 15.8507C17.346 16.3267 17.71 16.9567 17.85 17.7687H16.296C16.184 17.3627 15.988 17.0407 15.68 16.7887C15.372 16.5507 14.994 16.4247 14.546 16.4247C13.93 16.4247 13.44 16.6487 13.076 17.0827C12.712 17.5307 12.53 18.0907 12.53 18.7907C12.53 19.5047 12.712 20.0787 13.076 20.5267C13.44 20.9747 13.93 21.1847 14.546 21.1847C15.008 21.1847 15.4 21.0727 15.708 20.8207C16.016 20.5687 16.212 20.2327 16.31 19.8127H17.85C17.71 20.6527 17.346 21.2967 16.772 21.7727ZM25.6283 15.2207V22.3887H24.2983L24.1303 21.4787C23.5843 22.1507 22.8423 22.4727 21.9183 22.4727C21.0783 22.4727 20.3923 22.2207 19.8743 21.6887C19.3423 21.1707 19.0903 20.3307 19.0903 19.1687V15.2207H20.6023V19.0147C20.6023 19.7147 20.7423 20.2467 21.0223 20.6107C21.3023 20.9747 21.7083 21.1567 22.2683 21.1567C22.8423 21.1567 23.2903 20.9467 23.6263 20.5267C23.9483 20.1067 24.1163 19.5187 24.1163 18.7767V15.2207H25.6283ZM28.4623 20.0227C28.4903 20.4007 28.6583 20.7087 28.9803 20.9467C29.3023 21.1847 29.7223 21.2967 30.2403 21.2967C30.6883 21.2967 31.0663 21.2127 31.3463 21.0447C31.6263 20.8767 31.7803 20.6387 31.7803 20.3447C31.7803 20.1067 31.7103 19.9247 31.5843 19.7987C31.4443 19.6867 31.2763 19.6027 31.0523 19.5467C30.8283 19.4907 30.4923 19.4347 30.0443 19.3787C29.4143 19.3087 28.8963 19.2107 28.4903 19.0847C28.0843 18.9587 27.7623 18.7627 27.5103 18.4827C27.2583 18.2027 27.1463 17.8387 27.1463 17.3627C27.1463 16.9287 27.2583 16.5367 27.5103 16.2007C27.7623 15.8647 28.0983 15.5987 28.5323 15.4027C28.9663 15.2207 29.4563 15.1227 30.0163 15.1227C30.9123 15.1227 31.6543 15.3327 32.2143 15.7247C32.7743 16.1307 33.0823 16.6907 33.1383 17.4187H31.6683C31.6263 17.0967 31.4583 16.8307 31.1783 16.6207C30.8843 16.4107 30.5203 16.2987 30.0863 16.2987C29.6383 16.2987 29.2883 16.3827 29.0223 16.5507C28.7423 16.7187 28.6163 16.9567 28.6163 17.2367C28.6163 17.4607 28.6723 17.6147 28.8123 17.7267C28.9523 17.8387 29.1203 17.9087 29.3303 17.9507C29.5263 17.9927 29.8623 18.0347 30.3243 18.0907C30.9403 18.1607 31.4583 18.2587 31.8783 18.3987C32.2983 18.5387 32.6343 18.7487 32.8863 19.0427C33.1383 19.3367 33.2643 19.7287 33.2643 20.2327C33.2643 20.6807 33.1243 21.0867 32.8723 21.4227C32.6063 21.7587 32.2423 22.0247 31.7943 22.2067C31.3323 22.3887 30.8143 22.4727 30.2543 22.4727C29.2883 22.4727 28.5043 22.2627 27.9163 21.8287C27.3283 21.3947 27.0203 20.7927 27.0063 20.0227H28.4623ZM35.0928 16.5507H33.8468V15.2207H35.0928V13.2187H36.6188V15.2207H38.3408V16.5507H36.6188V20.2887C36.6188 20.5687 36.6748 20.7787 36.7868 20.8907C36.8988 21.0027 37.0808 21.0587 37.3608 21.0587H38.5088V22.3887H37.0528C36.3668 22.3887 35.8628 22.2347 35.5548 21.9127C35.2468 21.6047 35.0928 21.1147 35.0928 20.4427V16.5507ZM40.7798 22.0247C40.2198 21.7167 39.7998 21.2967 39.4918 20.7367C39.1838 20.1767 39.0438 19.5327 39.0438 18.8047C39.0438 18.0907 39.1838 17.4607 39.4918 16.9007C39.7998 16.3407 40.2198 15.9067 40.7798 15.5987C41.3398 15.2907 41.9698 15.1367 42.6978 15.1367C43.4118 15.1367 44.0418 15.2907 44.6018 15.5987C45.1618 15.9067 45.5818 16.3407 45.8898 16.9007C46.1978 17.4607 46.3518 18.0907 46.3518 18.8047C46.3518 19.5327 46.1978 20.1767 45.8898 20.7367C45.5818 21.2967 45.1618 21.7167 44.6018 22.0247C44.0418 22.3327 43.4118 22.4727 42.6978 22.4727C41.9698 22.4727 41.3398 22.3327 40.7798 22.0247ZM44.2238 20.5267C44.6158 20.0787 44.8118 19.5047 44.8118 18.8047C44.8118 18.1047 44.6158 17.5447 44.2238 17.0967C43.8318 16.6487 43.3278 16.4247 42.6978 16.4247C42.0538 16.4247 41.5498 16.6487 41.1718 17.0967C40.7798 17.5447 40.5978 18.1047 40.5978 18.8047C40.5978 19.5047 40.7798 20.0787 41.1718 20.5267C41.5498 20.9747 42.0538 21.1847 42.6978 21.1847C43.3278 21.1847 43.8318 20.9747 44.2238 20.5267ZM57.8996 15.9067C58.3896 16.4107 58.6416 17.2227 58.6416 18.3427V22.3887H57.1296V18.3567C57.1296 17.7407 57.0036 17.2647 56.7516 16.9287C56.4996 16.6067 56.1216 16.4387 55.6316 16.4387C55.0996 16.4387 54.6936 16.6347 54.3856 16.9987C54.0776 17.3627 53.9376 17.8667 53.9376 18.5107V22.3887H52.4116V18.3567C52.4116 17.7267 52.2716 17.2507 52.0196 16.9287C51.7676 16.6067 51.3896 16.4387 50.8996 16.4387C50.3816 16.4387 49.9756 16.6347 49.6676 17.0127C49.3596 17.4047 49.2196 17.9087 49.2196 18.5527V22.3887H47.7076V15.2207H49.0236L49.1916 16.1587C49.6956 15.4867 50.3956 15.1507 51.2916 15.1367C51.7956 15.1367 52.2296 15.2487 52.6216 15.4587C52.9996 15.6827 53.2936 16.0047 53.5036 16.4387C53.7556 16.0327 54.0776 15.7107 54.4976 15.4867C54.9036 15.2627 55.3936 15.1367 55.9816 15.1367C56.7656 15.1367 57.3956 15.4027 57.8996 15.9067ZM60.3203 16.8867C60.6143 16.3267 61.0203 15.9067 61.5523 15.5987C62.0843 15.2907 62.6863 15.1367 63.3723 15.1367C64.0583 15.1367 64.6603 15.2767 65.1923 15.5567C65.7243 15.8367 66.1303 16.2427 66.4383 16.7467C66.7463 17.2647 66.9003 17.8667 66.9143 18.5527C66.9143 18.7487 66.9003 18.9307 66.8723 19.1267H61.4683V19.2107C61.4963 19.8407 61.6923 20.3307 62.0563 20.6947C62.4063 21.0587 62.8823 21.2407 63.4703 21.2407C63.9323 21.2407 64.3243 21.1427 64.6463 20.9187C64.9543 20.6947 65.1643 20.3867 65.2763 19.9807H66.7883C66.6483 20.7087 66.2983 21.3107 65.7243 21.7727C65.1503 22.2487 64.4363 22.4727 63.5823 22.4727C62.8263 22.4727 62.1823 22.3327 61.6223 22.0247C61.0623 21.7167 60.6423 21.2967 60.3343 20.7367C60.0263 20.1907 59.8863 19.5467 59.8863 18.8187C59.8863 18.0907 60.0263 17.4467 60.3203 16.8867ZM65.3743 18.0207C65.3043 17.5027 65.0943 17.0967 64.7443 16.8027C64.3943 16.5087 63.9603 16.3547 63.4283 16.3547C62.9243 16.3547 62.5043 16.5087 62.1403 16.8167C61.7763 17.1247 61.5803 17.5167 61.5243 18.0207H65.3743ZM72.2387 15.2207V16.6347H71.5667C70.9367 16.6347 70.4887 16.8447 70.2087 17.2507C69.9287 17.6567 69.7887 18.1747 69.7887 18.7907V22.3887H68.2767V15.2207H69.6207L69.7887 16.2987C69.9847 15.9627 70.2507 15.7107 70.5867 15.5147C70.9087 15.3187 71.3427 15.2207 71.9027 15.2207H72.2387ZM74.3375 20.0227C74.3655 20.4007 74.5335 20.7087 74.8555 20.9467C75.1775 21.1847 75.5975 21.2967 76.1155 21.2967C76.5635 21.2967 76.9415 21.2127 77.2215 21.0447C77.5015 20.8767 77.6555 20.6387 77.6555 20.3447C77.6555 20.1067 77.5855 19.9247 77.4595 19.7987C77.3195 19.6867 77.1515 19.6027 76.9275 19.5467C76.7035 19.4907 76.3675 19.4347 75.9195 19.3787C75.2895 19.3087 74.7715 19.2107 74.3655 19.0847C73.9595 18.9587 73.6375 18.7627 73.3855 18.4827C73.1335 18.2027 73.0215 17.8387 73.0215 17.3627C73.0215 16.9287 73.1335 16.5367 73.3855 16.2007C73.6375 15.8647 73.9735 15.5987 74.4075 15.4027C74.8415 15.2207 75.3315 15.1227 75.8915 15.1227C76.7875 15.1227 77.5295 15.3327 78.0895 15.7247C78.6495 16.1307 78.9575 16.6907 79.0135 17.4187H77.5435C77.5015 17.0967 77.3335 16.8307 77.0535 16.6207C76.7595 16.4107 76.3955 16.2987 75.9615 16.2987C75.5135 16.2987 75.1635 16.3827 74.8975 16.5507C74.6175 16.7187 74.4915 16.9567 74.4915 17.2367C74.4915 17.4607 74.5475 17.6147 74.6875 17.7267C74.8275 17.8387 74.9955 17.9087 75.2055 17.9507C75.4015 17.9927 75.7375 18.0347 76.1995 18.0907C76.8155 18.1607 77.3335 18.2587 77.7535 18.3987C78.1735 18.5387 78.5095 18.7487 78.7615 19.0427C79.0135 19.3367 79.1395 19.7287 79.1395 20.2327C79.1395 20.6807 78.9995 21.0867 78.7475 21.4227C78.4815 21.7587 78.1175 22.0247 77.6695 22.2067C77.2075 22.3887 76.6895 22.4727 76.1295 22.4727C75.1635 22.4727 74.3795 22.2627 73.7915 21.8287C73.2035 21.3947 72.8955 20.7927 72.8815 20.0227H74.3375Z" fill="black"/>
<path d="M0.5 32.3887H320.5V64.3887H0.5V32.3887Z" fill="white" fill-opacity="0.05"/>
<path d="M0.5 32.3887H320.5V64.3887H0.5V32.3887Z" stroke="url(#paint2_linear_3661_2741)"/>
<path d="M14.952 53.5567C14.4293 53.5567 13.9627 53.468 13.552 53.2907C13.1507 53.104 12.81 52.8473 12.53 52.5207C12.25 52.194 12.0353 51.7973 11.886 51.3307C11.746 50.864 11.676 50.346 11.676 49.7767C11.676 49.2073 11.7507 48.6893 11.9 48.2227C12.0493 47.756 12.264 47.3593 12.544 47.0327C12.824 46.6967 13.1647 46.44 13.566 46.2627C13.9673 46.0853 14.4247 45.9967 14.938 45.9967C15.638 45.9967 16.2073 46.1507 16.646 46.4587C17.0847 46.7667 17.4067 47.168 17.612 47.6627L16.716 48.1387C16.5853 47.7653 16.366 47.476 16.058 47.2707C15.7593 47.0653 15.386 46.9627 14.938 46.9627C14.6113 46.9627 14.3173 47.0187 14.056 47.1307C13.804 47.2333 13.5893 47.3827 13.412 47.5787C13.2347 47.7747 13.0993 48.008 13.006 48.2787C12.922 48.5493 12.88 48.8433 12.88 49.1607V50.3927C12.88 50.71 12.922 51.004 13.006 51.2747C13.0993 51.5453 13.2347 51.7787 13.412 51.9747C13.5893 52.1707 13.8087 52.3247 14.07 52.4367C14.3313 52.5393 14.63 52.5907 14.966 52.5907C15.4513 52.5907 15.8527 52.4787 16.17 52.2547C16.4873 52.0307 16.7393 51.7227 16.926 51.3307L17.724 51.8767C17.5093 52.362 17.1733 52.7633 16.716 53.0807C16.268 53.398 15.68 53.5567 14.952 53.5567ZM24.8025 52.2127H24.7465C24.6719 52.39 24.5785 52.5627 24.4665 52.7307C24.3545 52.8893 24.2145 53.0293 24.0465 53.1507C23.8879 53.272 23.6965 53.37 23.4725 53.4447C23.2485 53.5193 22.9872 53.5567 22.6885 53.5567C21.9325 53.5567 21.3259 53.3187 20.8685 52.8427C20.4112 52.3573 20.1825 51.676 20.1825 50.7987V46.1647H21.3025V50.6027C21.3025 51.2653 21.4472 51.76 21.7365 52.0867C22.0259 52.404 22.4505 52.5627 23.0105 52.5627C23.2345 52.5627 23.4539 52.5347 23.6685 52.4787C23.8832 52.4227 24.0745 52.3387 24.2425 52.2267C24.4105 52.1147 24.5459 51.9747 24.6485 51.8067C24.7512 51.6293 24.8025 51.4193 24.8025 51.1767V46.1647H25.9225V53.3887H24.8025V52.2127ZM31.5731 53.5567C30.8171 53.5567 30.1637 53.4307 29.6131 53.1787C29.0717 52.9173 28.6097 52.572 28.2271 52.1427L28.9831 51.4847C29.3284 51.8487 29.7064 52.1287 30.1171 52.3247C30.5277 52.5207 31.0224 52.6187 31.6011 52.6187C32.1611 52.6187 32.6184 52.5207 32.9731 52.3247C33.3371 52.1193 33.5191 51.802 33.5191 51.3727C33.5191 51.186 33.4817 51.032 33.4071 50.9107C33.3417 50.78 33.2484 50.6773 33.1271 50.6027C33.0057 50.528 32.8704 50.472 32.7211 50.4347C32.5717 50.388 32.4131 50.3507 32.2451 50.3227L31.1111 50.1547C30.8591 50.1173 30.5837 50.066 30.2851 50.0007C29.9957 49.9353 29.7297 49.8327 29.4871 49.6927C29.2444 49.5433 29.0391 49.3473 28.8711 49.1047C28.7124 48.862 28.6331 48.5447 28.6331 48.1527C28.6331 47.7887 28.7031 47.476 28.8431 47.2147C28.9924 46.944 29.1977 46.72 29.4591 46.5427C29.7204 46.356 30.0284 46.2207 30.3831 46.1367C30.7377 46.0433 31.1251 45.9967 31.5451 45.9967C32.1984 45.9967 32.7631 46.0993 33.2391 46.3047C33.7244 46.51 34.1397 46.7947 34.4851 47.1587L33.7571 47.8447C33.6731 47.742 33.5657 47.6393 33.4351 47.5367C33.3137 47.4247 33.1597 47.3267 32.9731 47.2427C32.7957 47.1493 32.5857 47.0747 32.3431 47.0187C32.1004 46.9627 31.8204 46.9347 31.5031 46.9347C30.9337 46.9347 30.4951 47.0327 30.1871 47.2287C29.8884 47.4247 29.7391 47.7093 29.7391 48.0827C29.7391 48.2693 29.7717 48.428 29.8371 48.5587C29.9117 48.68 30.0097 48.778 30.1311 48.8527C30.2524 48.9273 30.3877 48.988 30.5371 49.0347C30.6957 49.072 30.8544 49.1047 31.0131 49.1327L32.1471 49.3007C32.4084 49.338 32.6837 49.3893 32.9731 49.4547C33.2624 49.52 33.5284 49.6273 33.7711 49.7767C34.0137 49.9167 34.2144 50.108 34.3731 50.3507C34.5411 50.5933 34.6251 50.9107 34.6251 51.3027C34.6251 52.0213 34.3451 52.5767 33.7851 52.9687C33.2344 53.3607 32.4971 53.5567 31.5731 53.5567ZM40.2336 53.3887C39.6829 53.3887 39.2769 53.2347 39.0156 52.9267C38.7636 52.6187 38.6376 52.222 38.6376 51.7367V47.1167H36.2296V46.1647H38.0216C38.2643 46.1647 38.4323 46.118 38.5256 46.0247C38.6283 45.922 38.6796 45.7493 38.6796 45.5067V43.6167H39.7576V46.1647H43.0476V47.1167H39.7576V52.4367H43.0476V53.3887H40.2336ZM48.2781 53.5567C47.7741 53.5567 47.3168 53.468 46.9061 53.2907C46.5048 53.1133 46.1595 52.8613 45.8701 52.5347C45.5901 52.1987 45.3755 51.802 45.2261 51.3447C45.0768 50.878 45.0021 50.3553 45.0021 49.7767C45.0021 49.2073 45.0768 48.6893 45.2261 48.2227C45.3755 47.756 45.5901 47.3593 45.8701 47.0327C46.1595 46.6967 46.5048 46.44 46.9061 46.2627C47.3168 46.0853 47.7741 45.9967 48.2781 45.9967C48.7821 45.9967 49.2348 46.0853 49.6361 46.2627C50.0468 46.44 50.3921 46.6967 50.6721 47.0327C50.9615 47.3593 51.1808 47.756 51.3301 48.2227C51.4795 48.6893 51.5541 49.2073 51.5541 49.7767C51.5541 50.3553 51.4795 50.878 51.3301 51.3447C51.1808 51.802 50.9615 52.1987 50.6721 52.5347C50.3921 52.8613 50.0468 53.1133 49.6361 53.2907C49.2348 53.468 48.7821 53.5567 48.2781 53.5567ZM48.2781 52.5907C48.9035 52.5907 49.4075 52.404 49.7901 52.0307C50.1728 51.6573 50.3641 51.0787 50.3641 50.2947V49.2587C50.3641 48.4747 50.1728 47.896 49.7901 47.5227C49.4075 47.1493 48.9035 46.9627 48.2781 46.9627C47.6528 46.9627 47.1488 47.1493 46.7661 47.5227C46.3835 47.896 46.1921 48.4747 46.1921 49.2587V50.2947C46.1921 51.0787 46.3835 51.6573 46.7661 52.0307C47.1488 52.404 47.6528 52.5907 48.2781 52.5907ZM53.2287 53.3887V46.1647H54.2647V47.0047H54.3207C54.4327 46.7247 54.5913 46.4867 54.7967 46.2907C55.002 46.0947 55.3053 45.9967 55.7067 45.9967C56.1267 45.9967 56.4393 46.104 56.6447 46.3187C56.85 46.524 56.976 46.7947 57.0227 47.1307H57.0647C57.1953 46.804 57.382 46.5333 57.6247 46.3187C57.8673 46.104 58.2033 45.9967 58.6327 45.9967C59.2207 45.9967 59.6127 46.202 59.8087 46.6127C60.014 47.0233 60.1167 47.6113 60.1167 48.3767V53.3887H59.0807V48.5587C59.0807 47.9427 59.0153 47.518 58.8847 47.2847C58.7633 47.042 58.5347 46.9207 58.1987 46.9207C57.9 46.9207 57.6573 47.0187 57.4707 47.2147C57.284 47.4013 57.1907 47.6907 57.1907 48.0827V53.3887H56.1547V48.5587C56.1547 47.9427 56.0893 47.518 55.9587 47.2847C55.8373 47.042 55.6133 46.9207 55.2867 46.9207C54.988 46.9207 54.7407 47.0187 54.5447 47.2147C54.358 47.4013 54.2647 47.6907 54.2647 48.0827V53.3887H53.2287ZM65.1932 53.5567C64.6705 53.5567 64.1992 53.468 63.7792 53.2907C63.3685 53.1133 63.0139 52.8613 62.7152 52.5347C62.4259 52.1987 62.2019 51.802 62.0432 51.3447C61.8845 50.878 61.8052 50.36 61.8052 49.7907C61.8052 49.212 61.8845 48.6893 62.0432 48.2227C62.2112 47.756 62.4399 47.3593 62.7292 47.0327C63.0185 46.6967 63.3639 46.44 63.7652 46.2627C64.1759 46.0853 64.6285 45.9967 65.1232 45.9967C65.6085 45.9967 66.0472 46.0853 66.4392 46.2627C66.8405 46.44 67.1812 46.6873 67.4612 47.0047C67.7412 47.3127 67.9559 47.6813 68.1052 48.1107C68.2545 48.54 68.3292 49.0113 68.3292 49.5247V50.0567H62.9812V50.3927C62.9812 50.71 63.0325 51.004 63.1352 51.2747C63.2379 51.5453 63.3825 51.7787 63.5692 51.9747C63.7652 52.1707 63.9985 52.3247 64.2692 52.4367C64.5492 52.5393 64.8572 52.5907 65.1932 52.5907C65.6785 52.5907 66.0985 52.4787 66.4532 52.2547C66.8079 52.0307 67.0785 51.7227 67.2652 51.3307L68.0912 51.8907C67.8765 52.376 67.5172 52.7773 67.0132 53.0947C66.5185 53.4027 65.9119 53.5567 65.1932 53.5567ZM65.1232 46.9207C64.8152 46.9207 64.5305 46.9767 64.2692 47.0887C64.0079 47.2007 63.7792 47.3547 63.5832 47.5507C63.3965 47.7467 63.2472 47.98 63.1352 48.2507C63.0325 48.512 62.9812 48.8013 62.9812 49.1187V49.2167H67.1252V49.0627C67.1252 48.7453 67.0739 48.456 66.9712 48.1947C66.8779 47.9333 66.7425 47.7093 66.5652 47.5227C66.3972 47.3267 66.1872 47.1773 65.9352 47.0747C65.6925 46.972 65.4219 46.9207 65.1232 46.9207ZM70.3397 52.4367H72.4537V47.1167H70.3397V46.1647H73.5737V47.9847H73.6437C73.7931 47.4153 74.0731 46.972 74.4837 46.6547C74.9037 46.328 75.4357 46.1647 76.0797 46.1647H77.0877V47.2847H75.7297C75.0857 47.2847 74.5631 47.4713 74.1617 47.8447C73.7697 48.218 73.5737 48.708 73.5737 49.3147V52.4367H76.3737V53.3887H70.3397V52.4367ZM78.4963 55.7547V54.7187H85.2163V55.7547H78.4963ZM90.6988 44.5687C90.3721 44.5687 90.1434 44.5033 90.0128 44.3727C89.8821 44.2327 89.8168 44.06 89.8168 43.8547V43.6307C89.8168 43.4253 89.8821 43.2573 90.0128 43.1267C90.1434 42.9867 90.3721 42.9167 90.6988 42.9167C91.0254 42.9167 91.2541 42.9867 91.3848 43.1267C91.5154 43.2573 91.5808 43.4253 91.5808 43.6307V43.8547C91.5808 44.06 91.5154 44.2327 91.3848 44.3727C91.2541 44.5033 91.0254 44.5687 90.6988 44.5687ZM87.5348 52.4367H90.1388V47.1167H87.5348V46.1647H91.2588V52.4367H93.6948V53.3887H87.5348V52.4367ZM100.395 52.2127H100.339C99.8726 53.1087 99.1306 53.5567 98.1133 53.5567C97.2266 53.5567 96.5313 53.2253 96.0273 52.5627C95.5326 51.9 95.2853 50.9713 95.2853 49.7767C95.2853 48.582 95.5326 47.6533 96.0273 46.9907C96.5313 46.328 97.2266 45.9967 98.1133 45.9967C99.1306 45.9967 99.8726 46.4447 100.339 47.3407H100.395V43.0287H101.515V53.3887H100.395V52.2127ZM98.5473 52.5627C98.7993 52.5627 99.0373 52.53 99.2613 52.4647C99.4853 52.3993 99.6813 52.306 99.8493 52.1847C100.017 52.054 100.148 51.9 100.241 51.7227C100.344 51.536 100.395 51.3213 100.395 51.0787V48.4747C100.395 48.232 100.344 48.022 100.241 47.8447C100.148 47.658 100.017 47.504 99.8493 47.3827C99.6813 47.252 99.4853 47.154 99.2613 47.0887C99.0373 47.0233 98.7993 46.9907 98.5473 46.9907C97.894 46.9907 97.3853 47.1913 97.0213 47.5927C96.6666 47.9847 96.4893 48.5073 96.4893 49.1607V50.3927C96.4893 51.046 96.6666 51.5733 97.0213 51.9747C97.3853 52.3667 97.894 52.5627 98.5473 52.5627Z" fill="white"/>
<path d="M252.676 53.3887V52.4507H255.112V44.5547H252.676V43.6167H258.724V44.5547H256.288V52.4507H258.724V53.3887H252.676ZM262.177 45.1147H262.079V53.3887H261.015V43.6167H262.681L266.013 51.8067H266.111V43.6167H267.175V53.3887H265.509L262.177 45.1147ZM273.077 44.6387V53.3887H271.901V44.6387H268.639V43.6167H276.339V44.6387H273.077ZM277.944 53.3887V43.6167H283.964V44.6387H279.12V47.9287H283.796V48.9507H279.12V52.3667H283.964V53.3887H277.944ZM291.294 52.0867H291.224C291.14 52.2733 291.042 52.4553 290.93 52.6327C290.818 52.81 290.673 52.9687 290.496 53.1087C290.328 53.2393 290.123 53.3467 289.88 53.4307C289.637 53.5147 289.348 53.5567 289.012 53.5567C287.948 53.5567 287.155 53.1273 286.632 52.2687C286.119 51.41 285.862 50.178 285.862 48.5727C285.862 46.8927 286.147 45.6187 286.716 44.7507C287.285 43.8827 288.163 43.4487 289.348 43.4487C289.805 43.4487 290.202 43.5093 290.538 43.6307C290.874 43.752 291.159 43.9153 291.392 44.1207C291.635 44.326 291.835 44.5593 291.994 44.8207C292.153 45.0727 292.283 45.3293 292.386 45.5907L291.378 46.0527C291.294 45.838 291.196 45.6373 291.084 45.4507C290.981 45.2547 290.851 45.0867 290.692 44.9467C290.543 44.7973 290.361 44.6807 290.146 44.5967C289.931 44.5127 289.679 44.4707 289.39 44.4707C288.606 44.4707 288.027 44.7647 287.654 45.3527C287.29 45.9407 287.108 46.7247 287.108 47.7047V49.2167C287.108 49.7113 287.145 50.164 287.22 50.5747C287.295 50.976 287.416 51.326 287.584 51.6247C287.761 51.9233 287.985 52.1567 288.256 52.3247C288.536 52.4833 288.877 52.5627 289.278 52.5627C289.913 52.5627 290.407 52.3713 290.762 51.9887C291.117 51.606 291.294 51.1113 291.294 50.5047V49.4967H289.236V48.5587H292.386V53.3887H291.294V52.0867ZM294.733 53.3887V43.6167H300.753V44.6387H295.909V47.9287H300.585V48.9507H295.909V52.3667H300.753V53.3887H294.733ZM304.303 53.3887H303.127V43.6167H306.683C307.589 43.6167 308.279 43.864 308.755 44.3587C309.231 44.8533 309.469 45.544 309.469 46.4307C309.469 47.224 309.264 47.8587 308.853 48.3347C308.443 48.8107 307.845 49.086 307.061 49.1607L309.553 53.3887H308.237L305.857 49.2167H304.303V53.3887ZM306.655 48.2227C307.15 48.2227 307.533 48.1013 307.803 47.8587C308.083 47.6067 308.223 47.252 308.223 46.7947V46.0667C308.223 45.6093 308.083 45.2593 307.803 45.0167C307.533 44.7647 307.15 44.6387 306.655 44.6387H304.303V48.2227H306.655Z" fill="white" fill-opacity="0.6"/>
<path d="M0.5 64.3887H320.5V96.3887H0.5V64.3887Z" fill="white" fill-opacity="0.05"/>
<path d="M0.5 64.3887H320.5V96.3887H0.5V64.3887Z" stroke="url(#paint3_linear_3661_2741)"/>
<path d="M14.952 85.5567C14.4293 85.5567 13.9627 85.468 13.552 85.2907C13.1507 85.104 12.81 84.8473 12.53 84.5207C12.25 84.194 12.0353 83.7973 11.886 83.3307C11.746 82.864 11.676 82.346 11.676 81.7767C11.676 81.2073 11.7507 80.6893 11.9 80.2227C12.0493 79.756 12.264 79.3593 12.544 79.0327C12.824 78.6967 13.1647 78.44 13.566 78.2627C13.9673 78.0853 14.4247 77.9967 14.938 77.9967C15.638 77.9967 16.2073 78.1507 16.646 78.4587C17.0847 78.7667 17.4067 79.168 17.612 79.6627L16.716 80.1387C16.5853 79.7653 16.366 79.476 16.058 79.2707C15.7593 79.0653 15.386 78.9627 14.938 78.9627C14.6113 78.9627 14.3173 79.0187 14.056 79.1307C13.804 79.2333 13.5893 79.3827 13.412 79.5787C13.2347 79.7747 13.0993 80.008 13.006 80.2787C12.922 80.5493 12.88 80.8433 12.88 81.1607V82.3927C12.88 82.71 12.922 83.004 13.006 83.2747C13.0993 83.5453 13.2347 83.7787 13.412 83.9747C13.5893 84.1707 13.8087 84.3247 14.07 84.4367C14.3313 84.5393 14.63 84.5907 14.966 84.5907C15.4513 84.5907 15.8527 84.4787 16.17 84.2547C16.4873 84.0307 16.7393 83.7227 16.926 83.3307L17.724 83.8767C17.5093 84.362 17.1733 84.7633 16.716 85.0807C16.268 85.398 15.68 85.5567 14.952 85.5567ZM24.8025 84.2127H24.7465C24.6719 84.39 24.5785 84.5627 24.4665 84.7307C24.3545 84.8893 24.2145 85.0293 24.0465 85.1507C23.8879 85.272 23.6965 85.37 23.4725 85.4447C23.2485 85.5193 22.9872 85.5567 22.6885 85.5567C21.9325 85.5567 21.3259 85.3187 20.8685 84.8427C20.4112 84.3573 20.1825 83.676 20.1825 82.7987V78.1647H21.3025V82.6027C21.3025 83.2653 21.4472 83.76 21.7365 84.0867C22.0259 84.404 22.4505 84.5627 23.0105 84.5627C23.2345 84.5627 23.4539 84.5347 23.6685 84.4787C23.8832 84.4227 24.0745 84.3387 24.2425 84.2267C24.4105 84.1147 24.5459 83.9747 24.6485 83.8067C24.7512 83.6293 24.8025 83.4193 24.8025 83.1767V78.1647H25.9225V85.3887H24.8025V84.2127ZM31.5731 85.5567C30.8171 85.5567 30.1637 85.4307 29.6131 85.1787C29.0717 84.9173 28.6097 84.572 28.2271 84.1427L28.9831 83.4847C29.3284 83.8487 29.7064 84.1287 30.1171 84.3247C30.5277 84.5207 31.0224 84.6187 31.6011 84.6187C32.1611 84.6187 32.6184 84.5207 32.9731 84.3247C33.3371 84.1193 33.5191 83.802 33.5191 83.3727C33.5191 83.186 33.4817 83.032 33.4071 82.9107C33.3417 82.78 33.2484 82.6773 33.1271 82.6027C33.0057 82.528 32.8704 82.472 32.7211 82.4347C32.5717 82.388 32.4131 82.3507 32.2451 82.3227L31.1111 82.1547C30.8591 82.1173 30.5837 82.066 30.2851 82.0007C29.9957 81.9353 29.7297 81.8327 29.4871 81.6927C29.2444 81.5433 29.0391 81.3473 28.8711 81.1047C28.7124 80.862 28.6331 80.5447 28.6331 80.1527C28.6331 79.7887 28.7031 79.476 28.8431 79.2147C28.9924 78.944 29.1977 78.72 29.4591 78.5427C29.7204 78.356 30.0284 78.2207 30.3831 78.1367C30.7377 78.0433 31.1251 77.9967 31.5451 77.9967C32.1984 77.9967 32.7631 78.0993 33.2391 78.3047C33.7244 78.51 34.1397 78.7947 34.4851 79.1587L33.7571 79.8447C33.6731 79.742 33.5657 79.6393 33.4351 79.5367C33.3137 79.4247 33.1597 79.3267 32.9731 79.2427C32.7957 79.1493 32.5857 79.0747 32.3431 79.0187C32.1004 78.9627 31.8204 78.9347 31.5031 78.9347C30.9337 78.9347 30.4951 79.0327 30.1871 79.2287C29.8884 79.4247 29.7391 79.7093 29.7391 80.0827C29.7391 80.2693 29.7717 80.428 29.8371 80.5587C29.9117 80.68 30.0097 80.778 30.1311 80.8527C30.2524 80.9273 30.3877 80.988 30.5371 81.0347C30.6957 81.072 30.8544 81.1047 31.0131 81.1327L32.1471 81.3007C32.4084 81.338 32.6837 81.3893 32.9731 81.4547C33.2624 81.52 33.5284 81.6273 33.7711 81.7767C34.0137 81.9167 34.2144 82.108 34.3731 82.3507C34.5411 82.5933 34.6251 82.9107 34.6251 83.3027C34.6251 84.0213 34.3451 84.5767 33.7851 84.9687C33.2344 85.3607 32.4971 85.5567 31.5731 85.5567ZM40.2336 85.3887C39.6829 85.3887 39.2769 85.2347 39.0156 84.9267C38.7636 84.6187 38.6376 84.222 38.6376 83.7367V79.1167H36.2296V78.1647H38.0216C38.2643 78.1647 38.4323 78.118 38.5256 78.0247C38.6283 77.922 38.6796 77.7493 38.6796 77.5067V75.6167H39.7576V78.1647H43.0476V79.1167H39.7576V84.4367H43.0476V85.3887H40.2336ZM48.2781 85.5567C47.7741 85.5567 47.3168 85.468 46.9061 85.2907C46.5048 85.1133 46.1595 84.8613 45.8701 84.5347C45.5901 84.1987 45.3755 83.802 45.2261 83.3447C45.0768 82.878 45.0021 82.3553 45.0021 81.7767C45.0021 81.2073 45.0768 80.6893 45.2261 80.2227C45.3755 79.756 45.5901 79.3593 45.8701 79.0327C46.1595 78.6967 46.5048 78.44 46.9061 78.2627C47.3168 78.0853 47.7741 77.9967 48.2781 77.9967C48.7821 77.9967 49.2348 78.0853 49.6361 78.2627C50.0468 78.44 50.3921 78.6967 50.6721 79.0327C50.9615 79.3593 51.1808 79.756 51.3301 80.2227C51.4795 80.6893 51.5541 81.2073 51.5541 81.7767C51.5541 82.3553 51.4795 82.878 51.3301 83.3447C51.1808 83.802 50.9615 84.1987 50.6721 84.5347C50.3921 84.8613 50.0468 85.1133 49.6361 85.2907C49.2348 85.468 48.7821 85.5567 48.2781 85.5567ZM48.2781 84.5907C48.9035 84.5907 49.4075 84.404 49.7901 84.0307C50.1728 83.6573 50.3641 83.0787 50.3641 82.2947V81.2587C50.3641 80.4747 50.1728 79.896 49.7901 79.5227C49.4075 79.1493 48.9035 78.9627 48.2781 78.9627C47.6528 78.9627 47.1488 79.1493 46.7661 79.5227C46.3835 79.896 46.1921 80.4747 46.1921 81.2587V82.2947C46.1921 83.0787 46.3835 83.6573 46.7661 84.0307C47.1488 84.404 47.6528 84.5907 48.2781 84.5907ZM53.2287 85.3887V78.1647H54.2647V79.0047H54.3207C54.4327 78.7247 54.5913 78.4867 54.7967 78.2907C55.002 78.0947 55.3053 77.9967 55.7067 77.9967C56.1267 77.9967 56.4393 78.104 56.6447 78.3187C56.85 78.524 56.976 78.7947 57.0227 79.1307H57.0647C57.1953 78.804 57.382 78.5333 57.6247 78.3187C57.8673 78.104 58.2033 77.9967 58.6327 77.9967C59.2207 77.9967 59.6127 78.202 59.8087 78.6127C60.014 79.0233 60.1167 79.6113 60.1167 80.3767V85.3887H59.0807V80.5587C59.0807 79.9427 59.0153 79.518 58.8847 79.2847C58.7633 79.042 58.5347 78.9207 58.1987 78.9207C57.9 78.9207 57.6573 79.0187 57.4707 79.2147C57.284 79.4013 57.1907 79.6907 57.1907 80.0827V85.3887H56.1547V80.5587C56.1547 79.9427 56.0893 79.518 55.9587 79.2847C55.8373 79.042 55.6133 78.9207 55.2867 78.9207C54.988 78.9207 54.7407 79.0187 54.5447 79.2147C54.358 79.4013 54.2647 79.6907 54.2647 80.0827V85.3887H53.2287ZM65.1932 85.5567C64.6705 85.5567 64.1992 85.468 63.7792 85.2907C63.3685 85.1133 63.0139 84.8613 62.7152 84.5347C62.4259 84.1987 62.2019 83.802 62.0432 83.3447C61.8845 82.878 61.8052 82.36 61.8052 81.7907C61.8052 81.212 61.8845 80.6893 62.0432 80.2227C62.2112 79.756 62.4399 79.3593 62.7292 79.0327C63.0185 78.6967 63.3639 78.44 63.7652 78.2627C64.1759 78.0853 64.6285 77.9967 65.1232 77.9967C65.6085 77.9967 66.0472 78.0853 66.4392 78.2627C66.8405 78.44 67.1812 78.6873 67.4612 79.0047C67.7412 79.3127 67.9559 79.6813 68.1052 80.1107C68.2545 80.54 68.3292 81.0113 68.3292 81.5247V82.0567H62.9812V82.3927C62.9812 82.71 63.0325 83.004 63.1352 83.2747C63.2379 83.5453 63.3825 83.7787 63.5692 83.9747C63.7652 84.1707 63.9985 84.3247 64.2692 84.4367C64.5492 84.5393 64.8572 84.5907 65.1932 84.5907C65.6785 84.5907 66.0985 84.4787 66.4532 84.2547C66.8079 84.0307 67.0785 83.7227 67.2652 83.3307L68.0912 83.8907C67.8765 84.376 67.5172 84.7773 67.0132 85.0947C66.5185 85.4027 65.9119 85.5567 65.1932 85.5567ZM65.1232 78.9207C64.8152 78.9207 64.5305 78.9767 64.2692 79.0887C64.0079 79.2007 63.7792 79.3547 63.5832 79.5507C63.3965 79.7467 63.2472 79.98 63.1352 80.2507C63.0325 80.512 62.9812 80.8013 62.9812 81.1187V81.2167H67.1252V81.0627C67.1252 80.7453 67.0739 80.456 66.9712 80.1947C66.8779 79.9333 66.7425 79.7093 66.5652 79.5227C66.3972 79.3267 66.1872 79.1773 65.9352 79.0747C65.6925 78.972 65.4219 78.9207 65.1232 78.9207ZM70.3397 84.4367H72.4537V79.1167H70.3397V78.1647H73.5737V79.9847H73.6437C73.7931 79.4153 74.0731 78.972 74.4837 78.6547C74.9037 78.328 75.4357 78.1647 76.0797 78.1647H77.0877V79.2847H75.7297C75.0857 79.2847 74.5631 79.4713 74.1617 79.8447C73.7697 80.218 73.5737 80.708 73.5737 81.3147V84.4367H76.3737V85.3887H70.3397V84.4367ZM78.4963 87.7547V86.7187H85.2163V87.7547H78.4963ZM87.3808 78.1647H88.5008V79.3407H88.5568C89.0234 78.4447 89.7654 77.9967 90.7828 77.9967C91.6694 77.9967 92.3601 78.328 92.8548 78.9907C93.3588 79.6533 93.6108 80.582 93.6108 81.7767C93.6108 82.9713 93.3588 83.9 92.8548 84.5627C92.3601 85.2253 91.6694 85.5567 90.7828 85.5567C89.7654 85.5567 89.0234 85.1087 88.5568 84.2127H88.5008V88.1887H87.3808V78.1647ZM90.3488 84.5627C91.0021 84.5627 91.5061 84.3667 91.8608 83.9747C92.2248 83.5733 92.4068 83.046 92.4068 82.3927V81.1607C92.4068 80.5073 92.2248 79.9847 91.8608 79.5927C91.5061 79.1913 91.0021 78.9907 90.3488 78.9907C90.0968 78.9907 89.8588 79.0233 89.6348 79.0887C89.4108 79.154 89.2148 79.252 89.0468 79.3827C88.8788 79.504 88.7434 79.658 88.6408 79.8447C88.5474 80.022 88.5008 80.232 88.5008 80.4747V83.0787C88.5008 83.3213 88.5474 83.536 88.6408 83.7227C88.7434 83.9 88.8788 84.054 89.0468 84.1847C89.2148 84.306 89.4108 84.3993 89.6348 84.4647C89.8588 84.53 90.0968 84.5627 90.3488 84.5627ZM95.8173 75.0287H96.9373V79.3407H96.9933C97.068 79.1633 97.1613 78.9953 97.2733 78.8367C97.3853 78.6687 97.5206 78.524 97.6793 78.4027C97.8473 78.2813 98.0433 78.1833 98.2673 78.1087C98.4913 78.034 98.7526 77.9967 99.0513 77.9967C99.8073 77.9967 100.414 78.2393 100.871 78.7247C101.329 79.2007 101.557 79.8773 101.557 80.7547V85.3887H100.437V80.9507C100.437 80.288 100.293 79.798 100.003 79.4807C99.714 79.154 99.2893 78.9907 98.7293 78.9907C98.5053 78.9907 98.286 79.0187 98.0713 79.0747C97.8566 79.1307 97.6653 79.2147 97.4973 79.3267C97.3293 79.4387 97.194 79.5833 97.0913 79.7607C96.9886 79.938 96.9373 80.1433 96.9373 80.3767V85.3887H95.8173V75.0287ZM107.04 85.5567C106.536 85.5567 106.079 85.468 105.668 85.2907C105.267 85.1133 104.921 84.8613 104.632 84.5347C104.352 84.1987 104.137 83.802 103.988 83.3447C103.839 82.878 103.764 82.3553 103.764 81.7767C103.764 81.2073 103.839 80.6893 103.988 80.2227C104.137 79.756 104.352 79.3593 104.632 79.0327C104.921 78.6967 105.267 78.44 105.668 78.2627C106.079 78.0853 106.536 77.9967 107.04 77.9967C107.544 77.9967 107.997 78.0853 108.398 78.2627C108.809 78.44 109.154 78.6967 109.434 79.0327C109.723 79.3593 109.943 79.756 110.092 80.2227C110.241 80.6893 110.316 81.2073 110.316 81.7767C110.316 82.3553 110.241 82.878 110.092 83.3447C109.943 83.802 109.723 84.1987 109.434 84.5347C109.154 84.8613 108.809 85.1133 108.398 85.2907C107.997 85.468 107.544 85.5567 107.04 85.5567ZM107.04 84.5907C107.665 84.5907 108.169 84.404 108.552 84.0307C108.935 83.6573 109.126 83.0787 109.126 82.2947V81.2587C109.126 80.4747 108.935 79.896 108.552 79.5227C108.169 79.1493 107.665 78.9627 107.04 78.9627C106.415 78.9627 105.911 79.1493 105.528 79.5227C105.145 79.896 104.954 80.4747 104.954 81.2587V82.2947C104.954 83.0787 105.145 83.6573 105.528 84.0307C105.911 84.404 106.415 84.5907 107.04 84.5907ZM112.606 85.3887V78.1647H113.726V79.3407H113.782C113.857 79.1633 113.95 78.9953 114.062 78.8367C114.174 78.6687 114.31 78.524 114.468 78.4027C114.636 78.2813 114.832 78.1833 115.056 78.1087C115.28 78.034 115.542 77.9967 115.84 77.9967C116.596 77.9967 117.203 78.2393 117.66 78.7247C118.118 79.2007 118.346 79.8773 118.346 80.7547V85.3887H117.226V80.9507C117.226 80.288 117.082 79.798 116.792 79.4807C116.503 79.154 116.078 78.9907 115.518 78.9907C115.294 78.9907 115.075 79.0187 114.86 79.0747C114.646 79.1307 114.454 79.2147 114.286 79.3267C114.118 79.4387 113.983 79.5833 113.88 79.7607C113.778 79.938 113.726 80.1433 113.726 80.3767V85.3887H112.606ZM123.955 85.5567C123.432 85.5567 122.961 85.468 122.541 85.2907C122.13 85.1133 121.776 84.8613 121.477 84.5347C121.188 84.1987 120.964 83.802 120.805 83.3447C120.646 82.878 120.567 82.36 120.567 81.7907C120.567 81.212 120.646 80.6893 120.805 80.2227C120.973 79.756 121.202 79.3593 121.491 79.0327C121.78 78.6967 122.126 78.44 122.527 78.2627C122.938 78.0853 123.39 77.9967 123.885 77.9967C124.37 77.9967 124.809 78.0853 125.201 78.2627C125.602 78.44 125.943 78.6873 126.223 79.0047C126.503 79.3127 126.718 79.6813 126.867 80.1107C127.016 80.54 127.091 81.0113 127.091 81.5247V82.0567H121.743V82.3927C121.743 82.71 121.794 83.004 121.897 83.2747C122 83.5453 122.144 83.7787 122.331 83.9747C122.527 84.1707 122.76 84.3247 123.031 84.4367C123.311 84.5393 123.619 84.5907 123.955 84.5907C124.44 84.5907 124.86 84.4787 125.215 84.2547C125.57 84.0307 125.84 83.7227 126.027 83.3307L126.853 83.8907C126.638 84.376 126.279 84.7773 125.775 85.0947C125.28 85.4027 124.674 85.5567 123.955 85.5567ZM123.885 78.9207C123.577 78.9207 123.292 78.9767 123.031 79.0887C122.77 79.2007 122.541 79.3547 122.345 79.5507C122.158 79.7467 122.009 79.98 121.897 80.2507C121.794 80.512 121.743 80.8013 121.743 81.1187V81.2167H125.887V81.0627C125.887 80.7453 125.836 80.456 125.733 80.1947C125.64 79.9333 125.504 79.7093 125.327 79.5227C125.159 79.3267 124.949 79.1773 124.697 79.0747C124.454 78.972 124.184 78.9207 123.885 78.9207Z" fill="white"/>
<path d="M220.902 85.3887L218.004 75.6167H219.25L220.636 80.5027L221.686 84.1987H221.756L222.806 80.5027L224.192 75.6167H225.396L222.498 85.3887H220.902ZM232.629 85.3887L231.803 82.6027H228.373L227.547 85.3887H226.329L229.325 75.6167H230.879L233.875 85.3887H232.629ZM230.151 76.8627H230.025L228.653 81.5807H231.523L230.151 76.8627ZM236.725 85.3887H235.549V75.6167H239.105C240.01 75.6167 240.701 75.864 241.177 76.3587C241.653 76.8533 241.891 77.544 241.891 78.4307C241.891 79.224 241.686 79.8587 241.275 80.3347C240.864 80.8107 240.267 81.086 239.483 81.1607L241.975 85.3887H240.659L238.279 81.2167H236.725V85.3887ZM239.077 80.2227C239.572 80.2227 239.954 80.1013 240.225 79.8587C240.505 79.6067 240.645 79.252 240.645 78.7947V78.0667C240.645 77.6093 240.505 77.2593 240.225 77.0167C239.954 76.7647 239.572 76.6387 239.077 76.6387H236.725V80.2227H239.077ZM247.206 85.5567C246.011 85.5567 245.12 85.1227 244.532 84.2547C243.953 83.3867 243.664 82.136 243.664 80.5027C243.664 78.8693 243.953 77.6187 244.532 76.7507C245.12 75.8827 246.011 75.4487 247.206 75.4487C247.654 75.4487 248.041 75.5093 248.368 75.6307C248.694 75.752 248.974 75.9153 249.208 76.1207C249.441 76.326 249.637 76.5593 249.796 76.8207C249.954 77.0727 250.094 77.3293 250.216 77.5907L249.208 78.0527C249.124 77.838 249.026 77.6373 248.914 77.4507C248.802 77.2547 248.666 77.0867 248.508 76.9467C248.358 76.7973 248.176 76.6807 247.962 76.5967C247.756 76.5127 247.504 76.4707 247.206 76.4707C246.431 76.4707 245.852 76.7647 245.47 77.3527C245.096 77.9407 244.91 78.7247 244.91 79.7047V81.3007C244.91 82.2807 245.096 83.0647 245.47 83.6527C245.852 84.2407 246.431 84.5347 247.206 84.5347C247.504 84.5347 247.756 84.4927 247.962 84.4087C248.176 84.3247 248.358 84.2127 248.508 84.0727C248.666 83.9233 248.802 83.7553 248.914 83.5687C249.026 83.3727 249.124 83.1673 249.208 82.9527L250.216 83.4147C250.094 83.6853 249.954 83.9467 249.796 84.1987C249.637 84.4507 249.441 84.6793 249.208 84.8847C248.974 85.09 248.694 85.2533 248.368 85.3747C248.041 85.496 247.654 85.5567 247.206 85.5567ZM257.182 80.9507H253.374V85.3887H252.198V75.6167H253.374V79.9287H257.182V75.6167H258.358V85.3887H257.182V80.9507ZM266.207 85.3887L265.381 82.6027H261.951L261.125 85.3887H259.907L262.903 75.6167H264.457L267.453 85.3887H266.207ZM263.729 76.8627H263.603L262.231 81.5807H265.101L263.729 76.8627ZM270.303 85.3887H269.127V75.6167H272.683C273.589 75.6167 274.279 75.864 274.755 76.3587C275.231 76.8533 275.469 77.544 275.469 78.4307C275.469 79.224 275.264 79.8587 274.853 80.3347C274.443 80.8107 273.845 81.086 273.061 81.1607L275.553 85.3887H274.237L271.857 81.2167H270.303V85.3887ZM272.655 80.2227C273.15 80.2227 273.533 80.1013 273.803 79.8587C274.083 79.6067 274.223 79.252 274.223 78.7947V78.0667C274.223 77.6093 274.083 77.2593 273.803 77.0167C273.533 76.7647 273.15 76.6387 272.655 76.6387H270.303V80.2227H272.655ZM279.132 81.0347C279.132 80.3533 279.206 79.7 279.356 79.0747C279.514 78.44 279.724 77.852 279.986 77.3107C280.256 76.7693 280.569 76.284 280.924 75.8547C281.278 75.416 281.652 75.0473 282.044 74.7487H283.178C282.767 75.0567 282.38 75.416 282.016 75.8267C281.661 76.228 281.344 76.6713 281.064 77.1567C280.793 77.6327 280.578 78.1507 280.42 78.7107C280.261 79.2613 280.182 79.8353 280.182 80.4327V81.6367C280.182 82.234 280.261 82.8127 280.42 83.3727C280.578 83.9233 280.793 84.4413 281.064 84.9267C281.344 85.4027 281.661 85.8413 282.016 86.2427C282.38 86.6533 282.767 87.0127 283.178 87.3207H282.044C281.652 87.0313 281.278 86.6673 280.924 86.2287C280.569 85.79 280.256 85.3 279.986 84.7587C279.724 84.2173 279.514 83.634 279.356 83.0087C279.206 82.374 279.132 81.716 279.132 81.0347ZM285.846 85.3887V84.3667H288.646V76.4847H288.548L286.084 78.7807L285.398 78.0387L287.988 75.6167H289.822V84.3667H292.398V85.3887H285.846ZM300.569 85.3887H294.045V84.1847L297.307 81.2447C297.783 80.8153 298.175 80.3767 298.483 79.9287C298.791 79.4713 298.945 78.9907 298.945 78.4867V78.3187C298.945 77.7307 298.791 77.278 298.483 76.9607C298.175 76.634 297.717 76.4707 297.111 76.4707C296.513 76.4707 296.051 76.6247 295.725 76.9327C295.407 77.2313 295.169 77.6327 295.011 78.1367L293.961 77.7447C294.054 77.4553 294.18 77.1753 294.339 76.9047C294.507 76.6247 294.717 76.3773 294.969 76.1627C295.221 75.948 295.524 75.7753 295.879 75.6447C296.243 75.514 296.663 75.4487 297.139 75.4487C297.624 75.4487 298.053 75.5187 298.427 75.6587C298.809 75.7987 299.127 75.9947 299.379 76.2467C299.64 76.4987 299.836 76.7973 299.967 77.1427C300.107 77.488 300.177 77.866 300.177 78.2767C300.177 78.65 300.121 79 300.009 79.3267C299.906 79.6533 299.757 79.966 299.561 80.2647C299.374 80.5633 299.145 80.8573 298.875 81.1467C298.613 81.4267 298.319 81.7067 297.993 81.9867L295.263 84.3667H300.569V85.3887ZM306.975 81.0347C306.975 81.716 306.896 82.374 306.737 83.0087C306.588 83.634 306.378 84.2173 306.107 84.7587C305.846 85.3 305.538 85.79 305.183 86.2287C304.829 86.6673 304.455 87.0313 304.063 87.3207H302.929C303.331 87.0127 303.713 86.6533 304.077 86.2427C304.441 85.8413 304.759 85.4027 305.029 84.9267C305.309 84.4413 305.529 83.9233 305.687 83.3727C305.846 82.8127 305.925 82.234 305.925 81.6367V80.4327C305.925 79.8353 305.846 79.2613 305.687 78.7107C305.529 78.1507 305.309 77.6327 305.029 77.1567C304.759 76.6713 304.441 76.228 304.077 75.8267C303.713 75.416 303.331 75.0567 302.929 74.7487H304.063C304.455 75.0473 304.829 75.416 305.183 75.8547C305.538 76.284 305.846 76.7693 306.107 77.3107C306.378 77.852 306.588 78.44 306.737 79.0747C306.896 79.7 306.975 80.3533 306.975 81.0347Z" fill="white" fill-opacity="0.6"/>
<path d="M0.5 96.3887H320.5V128.389H0.5V96.3887Z" fill="white" fill-opacity="0.05"/>
<path d="M0.5 96.3887H320.5V128.389H0.5V96.3887Z" stroke="url(#paint4_linear_3661_2741)"/>
<path d="M14.952 117.557C14.4293 117.557 13.9627 117.468 13.552 117.291C13.1507 117.104 12.81 116.847 12.53 116.521C12.25 116.194 12.0353 115.797 11.886 115.331C11.746 114.864 11.676 114.346 11.676 113.777C11.676 113.207 11.7507 112.689 11.9 112.223C12.0493 111.756 12.264 111.359 12.544 111.033C12.824 110.697 13.1647 110.44 13.566 110.263C13.9673 110.085 14.4247 109.997 14.938 109.997C15.638 109.997 16.2073 110.151 16.646 110.459C17.0847 110.767 17.4067 111.168 17.612 111.663L16.716 112.139C16.5853 111.765 16.366 111.476 16.058 111.271C15.7593 111.065 15.386 110.963 14.938 110.963C14.6113 110.963 14.3173 111.019 14.056 111.131C13.804 111.233 13.5893 111.383 13.412 111.579C13.2347 111.775 13.0993 112.008 13.006 112.279C12.922 112.549 12.88 112.843 12.88 113.161V114.393C12.88 114.71 12.922 115.004 13.006 115.275C13.0993 115.545 13.2347 115.779 13.412 115.975C13.5893 116.171 13.8087 116.325 14.07 116.437C14.3313 116.539 14.63 116.591 14.966 116.591C15.4513 116.591 15.8527 116.479 16.17 116.255C16.4873 116.031 16.7393 115.723 16.926 115.331L17.724 115.877C17.5093 116.362 17.1733 116.763 16.716 117.081C16.268 117.398 15.68 117.557 14.952 117.557ZM24.8025 116.213H24.7465C24.6719 116.39 24.5785 116.563 24.4665 116.731C24.3545 116.889 24.2145 117.029 24.0465 117.151C23.8879 117.272 23.6965 117.37 23.4725 117.445C23.2485 117.519 22.9872 117.557 22.6885 117.557C21.9325 117.557 21.3259 117.319 20.8685 116.843C20.4112 116.357 20.1825 115.676 20.1825 114.799V110.165H21.3025V114.603C21.3025 115.265 21.4472 115.76 21.7365 116.087C22.0259 116.404 22.4505 116.563 23.0105 116.563C23.2345 116.563 23.4539 116.535 23.6685 116.479C23.8832 116.423 24.0745 116.339 24.2425 116.227C24.4105 116.115 24.5459 115.975 24.6485 115.807C24.7512 115.629 24.8025 115.419 24.8025 115.177V110.165H25.9225V117.389H24.8025V116.213ZM31.5731 117.557C30.8171 117.557 30.1637 117.431 29.6131 117.179C29.0717 116.917 28.6097 116.572 28.2271 116.143L28.9831 115.485C29.3284 115.849 29.7064 116.129 30.1171 116.325C30.5277 116.521 31.0224 116.619 31.6011 116.619C32.1611 116.619 32.6184 116.521 32.9731 116.325C33.3371 116.119 33.5191 115.802 33.5191 115.373C33.5191 115.186 33.4817 115.032 33.4071 114.911C33.3417 114.78 33.2484 114.677 33.1271 114.603C33.0057 114.528 32.8704 114.472 32.7211 114.435C32.5717 114.388 32.4131 114.351 32.2451 114.323L31.1111 114.155C30.8591 114.117 30.5837 114.066 30.2851 114.001C29.9957 113.935 29.7297 113.833 29.4871 113.693C29.2444 113.543 29.0391 113.347 28.8711 113.105C28.7124 112.862 28.6331 112.545 28.6331 112.153C28.6331 111.789 28.7031 111.476 28.8431 111.215C28.9924 110.944 29.1977 110.72 29.4591 110.543C29.7204 110.356 30.0284 110.221 30.3831 110.137C30.7377 110.043 31.1251 109.997 31.5451 109.997C32.1984 109.997 32.7631 110.099 33.2391 110.305C33.7244 110.51 34.1397 110.795 34.4851 111.159L33.7571 111.845C33.6731 111.742 33.5657 111.639 33.4351 111.537C33.3137 111.425 33.1597 111.327 32.9731 111.243C32.7957 111.149 32.5857 111.075 32.3431 111.019C32.1004 110.963 31.8204 110.935 31.5031 110.935C30.9337 110.935 30.4951 111.033 30.1871 111.229C29.8884 111.425 29.7391 111.709 29.7391 112.083C29.7391 112.269 29.7717 112.428 29.8371 112.559C29.9117 112.68 30.0097 112.778 30.1311 112.853C30.2524 112.927 30.3877 112.988 30.5371 113.035C30.6957 113.072 30.8544 113.105 31.0131 113.133L32.1471 113.301C32.4084 113.338 32.6837 113.389 32.9731 113.455C33.2624 113.52 33.5284 113.627 33.7711 113.777C34.0137 113.917 34.2144 114.108 34.3731 114.351C34.5411 114.593 34.6251 114.911 34.6251 115.303C34.6251 116.021 34.3451 116.577 33.7851 116.969C33.2344 117.361 32.4971 117.557 31.5731 117.557ZM40.2336 117.389C39.6829 117.389 39.2769 117.235 39.0156 116.927C38.7636 116.619 38.6376 116.222 38.6376 115.737V111.117H36.2296V110.165H38.0216C38.2643 110.165 38.4323 110.118 38.5256 110.025C38.6283 109.922 38.6796 109.749 38.6796 109.507V107.617H39.7576V110.165H43.0476V111.117H39.7576V116.437H43.0476V117.389H40.2336ZM48.2781 117.557C47.7741 117.557 47.3168 117.468 46.9061 117.291C46.5048 117.113 46.1595 116.861 45.8701 116.535C45.5901 116.199 45.3755 115.802 45.2261 115.345C45.0768 114.878 45.0021 114.355 45.0021 113.777C45.0021 113.207 45.0768 112.689 45.2261 112.223C45.3755 111.756 45.5901 111.359 45.8701 111.033C46.1595 110.697 46.5048 110.44 46.9061 110.263C47.3168 110.085 47.7741 109.997 48.2781 109.997C48.7821 109.997 49.2348 110.085 49.6361 110.263C50.0468 110.44 50.3921 110.697 50.6721 111.033C50.9615 111.359 51.1808 111.756 51.3301 112.223C51.4795 112.689 51.5541 113.207 51.5541 113.777C51.5541 114.355 51.4795 114.878 51.3301 115.345C51.1808 115.802 50.9615 116.199 50.6721 116.535C50.3921 116.861 50.0468 117.113 49.6361 117.291C49.2348 117.468 48.7821 117.557 48.2781 117.557ZM48.2781 116.591C48.9035 116.591 49.4075 116.404 49.7901 116.031C50.1728 115.657 50.3641 115.079 50.3641 114.295V113.259C50.3641 112.475 50.1728 111.896 49.7901 111.523C49.4075 111.149 48.9035 110.963 48.2781 110.963C47.6528 110.963 47.1488 111.149 46.7661 111.523C46.3835 111.896 46.1921 112.475 46.1921 113.259V114.295C46.1921 115.079 46.3835 115.657 46.7661 116.031C47.1488 116.404 47.6528 116.591 48.2781 116.591ZM53.2287 117.389V110.165H54.2647V111.005H54.3207C54.4327 110.725 54.5913 110.487 54.7967 110.291C55.002 110.095 55.3053 109.997 55.7067 109.997C56.1267 109.997 56.4393 110.104 56.6447 110.319C56.85 110.524 56.976 110.795 57.0227 111.131H57.0647C57.1953 110.804 57.382 110.533 57.6247 110.319C57.8673 110.104 58.2033 109.997 58.6327 109.997C59.2207 109.997 59.6127 110.202 59.8087 110.613C60.014 111.023 60.1167 111.611 60.1167 112.377V117.389H59.0807V112.559C59.0807 111.943 59.0153 111.518 58.8847 111.285C58.7633 111.042 58.5347 110.921 58.1987 110.921C57.9 110.921 57.6573 111.019 57.4707 111.215C57.284 111.401 57.1907 111.691 57.1907 112.083V117.389H56.1547V112.559C56.1547 111.943 56.0893 111.518 55.9587 111.285C55.8373 111.042 55.6133 110.921 55.2867 110.921C54.988 110.921 54.7407 111.019 54.5447 111.215C54.358 111.401 54.2647 111.691 54.2647 112.083V117.389H53.2287ZM65.1932 117.557C64.6705 117.557 64.1992 117.468 63.7792 117.291C63.3685 117.113 63.0139 116.861 62.7152 116.535C62.4259 116.199 62.2019 115.802 62.0432 115.345C61.8845 114.878 61.8052 114.36 61.8052 113.791C61.8052 113.212 61.8845 112.689 62.0432 112.223C62.2112 111.756 62.4399 111.359 62.7292 111.033C63.0185 110.697 63.3639 110.44 63.7652 110.263C64.1759 110.085 64.6285 109.997 65.1232 109.997C65.6085 109.997 66.0472 110.085 66.4392 110.263C66.8405 110.44 67.1812 110.687 67.4612 111.005C67.7412 111.313 67.9559 111.681 68.1052 112.111C68.2545 112.54 68.3292 113.011 68.3292 113.525V114.057H62.9812V114.393C62.9812 114.71 63.0325 115.004 63.1352 115.275C63.2379 115.545 63.3825 115.779 63.5692 115.975C63.7652 116.171 63.9985 116.325 64.2692 116.437C64.5492 116.539 64.8572 116.591 65.1932 116.591C65.6785 116.591 66.0985 116.479 66.4532 116.255C66.8079 116.031 67.0785 115.723 67.2652 115.331L68.0912 115.891C67.8765 116.376 67.5172 116.777 67.0132 117.095C66.5185 117.403 65.9119 117.557 65.1932 117.557ZM65.1232 110.921C64.8152 110.921 64.5305 110.977 64.2692 111.089C64.0079 111.201 63.7792 111.355 63.5832 111.551C63.3965 111.747 63.2472 111.98 63.1352 112.251C63.0325 112.512 62.9812 112.801 62.9812 113.119V113.217H67.1252V113.063C67.1252 112.745 67.0739 112.456 66.9712 112.195C66.8779 111.933 66.7425 111.709 66.5652 111.523C66.3972 111.327 66.1872 111.177 65.9352 111.075C65.6925 110.972 65.4219 110.921 65.1232 110.921ZM70.3397 116.437H72.4537V111.117H70.3397V110.165H73.5737V111.985H73.6437C73.7931 111.415 74.0731 110.972 74.4837 110.655C74.9037 110.328 75.4357 110.165 76.0797 110.165H77.0877V111.285H75.7297C75.0857 111.285 74.5631 111.471 74.1617 111.845C73.7697 112.218 73.5737 112.708 73.5737 113.315V116.437H76.3737V117.389H70.3397V116.437ZM78.4963 119.755V118.719H85.2163V119.755H78.4963ZM90.3768 117.557C89.8541 117.557 89.3828 117.468 88.9628 117.291C88.5521 117.113 88.1974 116.861 87.8988 116.535C87.6094 116.199 87.3854 115.802 87.2268 115.345C87.0681 114.878 86.9888 114.36 86.9888 113.791C86.9888 113.212 87.0681 112.689 87.2268 112.223C87.3948 111.756 87.6234 111.359 87.9128 111.033C88.2021 110.697 88.5474 110.44 88.9488 110.263C89.3594 110.085 89.8121 109.997 90.3068 109.997C90.7921 109.997 91.2308 110.085 91.6228 110.263C92.0241 110.44 92.3648 110.687 92.6448 111.005C92.9248 111.313 93.1394 111.681 93.2888 112.111C93.4381 112.54 93.5128 113.011 93.5128 113.525V114.057H88.1648V114.393C88.1648 114.71 88.2161 115.004 88.3188 115.275C88.4214 115.545 88.5661 115.779 88.7528 115.975C88.9488 116.171 89.1821 116.325 89.4528 116.437C89.7328 116.539 90.0408 116.591 90.3768 116.591C90.8621 116.591 91.2821 116.479 91.6368 116.255C91.9914 116.031 92.2621 115.723 92.4488 115.331L93.2748 115.891C93.0601 116.376 92.7008 116.777 92.1968 117.095C91.7021 117.403 91.0954 117.557 90.3768 117.557ZM90.3068 110.921C89.9988 110.921 89.7141 110.977 89.4528 111.089C89.1914 111.201 88.9628 111.355 88.7668 111.551C88.5801 111.747 88.4308 111.98 88.3188 112.251C88.2161 112.512 88.1648 112.801 88.1648 113.119V113.217H92.3088V113.063C92.3088 112.745 92.2574 112.456 92.1548 112.195C92.0614 111.933 91.9261 111.709 91.7488 111.523C91.5808 111.327 91.3708 111.177 91.1188 111.075C90.8761 110.972 90.6054 110.921 90.3068 110.921ZM95.2013 117.389V110.165H96.2373V111.005H96.2933C96.4053 110.725 96.564 110.487 96.7693 110.291C96.9746 110.095 97.278 109.997 97.6793 109.997C98.0993 109.997 98.412 110.104 98.6173 110.319C98.8226 110.524 98.9486 110.795 98.9953 111.131H99.0373C99.168 110.804 99.3546 110.533 99.5973 110.319C99.84 110.104 100.176 109.997 100.605 109.997C101.193 109.997 101.585 110.202 101.781 110.613C101.987 111.023 102.089 111.611 102.089 112.377V117.389H101.053V112.559C101.053 111.943 100.988 111.518 100.857 111.285C100.736 111.042 100.507 110.921 100.171 110.921C99.8726 110.921 99.63 111.019 99.4433 111.215C99.2566 111.401 99.1633 111.691 99.1633 112.083V117.389H98.1273V112.559C98.1273 111.943 98.062 111.518 97.9313 111.285C97.81 111.042 97.586 110.921 97.2593 110.921C96.9606 110.921 96.7133 111.019 96.5173 111.215C96.3306 111.401 96.2373 111.691 96.2373 112.083V117.389H95.2013ZM109.77 117.389C109.331 117.389 109.019 117.277 108.832 117.053C108.645 116.829 108.529 116.549 108.482 116.213H108.412C108.253 116.633 107.997 116.964 107.642 117.207C107.297 117.44 106.83 117.557 106.242 117.557C105.486 117.557 104.884 117.361 104.436 116.969C103.988 116.577 103.764 116.04 103.764 115.359C103.764 114.687 104.007 114.169 104.492 113.805C104.987 113.441 105.78 113.259 106.872 113.259H108.412V112.545C108.412 112.013 108.263 111.616 107.964 111.355C107.665 111.084 107.241 110.949 106.69 110.949C106.205 110.949 105.808 111.047 105.5 111.243C105.192 111.429 104.945 111.686 104.758 112.013L104.002 111.453C104.095 111.266 104.221 111.084 104.38 110.907C104.539 110.729 104.735 110.575 104.968 110.445C105.201 110.305 105.467 110.197 105.766 110.123C106.065 110.039 106.396 109.997 106.76 109.997C107.609 109.997 108.281 110.211 108.776 110.641C109.28 111.07 109.532 111.667 109.532 112.433V116.409H110.54V117.389H109.77ZM106.438 116.619C106.727 116.619 106.989 116.586 107.222 116.521C107.465 116.446 107.675 116.353 107.852 116.241C108.029 116.119 108.165 115.979 108.258 115.821C108.361 115.653 108.412 115.475 108.412 115.289V114.099H106.872C106.2 114.099 105.71 114.192 105.402 114.379C105.094 114.565 104.94 114.836 104.94 115.191V115.485C104.94 115.858 105.071 116.143 105.332 116.339C105.603 116.525 105.971 116.619 106.438 116.619ZM115.882 108.569C115.556 108.569 115.327 108.503 115.196 108.373C115.066 108.233 115 108.06 115 107.855V107.631C115 107.425 115.066 107.257 115.196 107.127C115.327 106.987 115.556 106.917 115.882 106.917C116.209 106.917 116.438 106.987 116.568 107.127C116.699 107.257 116.764 107.425 116.764 107.631V107.855C116.764 108.06 116.699 108.233 116.568 108.373C116.438 108.503 116.209 108.569 115.882 108.569ZM112.718 116.437H115.322V111.117H112.718V110.165H116.442V116.437H118.878V117.389H112.718V116.437ZM120.749 116.437H123.269V107.981H120.749V107.029H124.389V116.437H126.909V117.389H120.749V116.437Z" fill="white"/>
<path d="M281.288 108.639V117.389H280.112V108.639H276.85V107.617H284.55V108.639H281.288ZM286.155 117.389V107.617H292.175V108.639H287.331V111.929H292.007V112.951H287.331V116.367H292.175V117.389H286.155ZM301.339 117.389H300.009L298.847 115.443L297.559 113.315H297.503L296.173 115.443L294.941 117.389H293.653L296.845 112.405L293.835 107.617H295.165L296.299 109.507L297.517 111.481H297.573L298.777 109.507L299.953 107.617H301.241L298.217 112.391L301.339 117.389ZM306.472 108.639V117.389H305.296V108.639H302.034V107.617H309.734V108.639H306.472Z" fill="white" fill-opacity="0.6"/>
<defs>
<linearGradient id="paint0_linear_3661_2741" x1="162.766" y1="1.3741" x2="163.273" y2="32.5084" gradientUnits="userSpaceOnUse">
<stop stop-color="#F4C587"/>
<stop offset="0.5" stop-color="#D6D3E9"/>
<stop offset="1" stop-color="#99D2EC"/>
</linearGradient>
<linearGradient id="paint1_linear_3661_2741" x1="0.5" y1="1.38867" x2="320.5" y2="1.38373" gradientUnits="userSpaceOnUse">
<stop stop-color="#F4C587"/>
<stop offset="0.5" stop-color="#D6D3E9"/>
<stop offset="1" stop-color="#99D2EC"/>
</linearGradient>
<linearGradient id="paint2_linear_3661_2741" x1="0.5" y1="32.3887" x2="320.5" y2="32.3839" gradientUnits="userSpaceOnUse">
<stop stop-color="#F4C587"/>
<stop offset="0.5" stop-color="#D6D3E9"/>
<stop offset="1" stop-color="#99D2EC"/>
</linearGradient>
<linearGradient id="paint3_linear_3661_2741" x1="0.5" y1="64.3887" x2="320.5" y2="64.3839" gradientUnits="userSpaceOnUse">
<stop stop-color="#F4C587"/>
<stop offset="0.5" stop-color="#D6D3E9"/>
<stop offset="1" stop-color="#99D2EC"/>
</linearGradient>
<linearGradient id="paint4_linear_3661_2741" x1="0.5" y1="96.3887" x2="320.5" y2="96.3839" gradientUnits="userSpaceOnUse">
<stop stop-color="#F4C587"/>
<stop offset="0.5" stop-color="#D6D3E9"/>
<stop offset="1" stop-color="#99D2EC"/>
</linearGradient>
</defs>
</svg>
