<svg width="265" height="103" viewBox="0 0 265 103" fill="none" xmlns="http://www.w3.org/2000/svg">
<rect x="0.5" y="1.38867" width="320" height="33" fill="url(#paint0_linear_3661_2779)"/>
<rect x="0.5" y="1.38867" width="320" height="33" stroke="url(#paint1_linear_3661_2779)"/>
<path d="M12.712 23.0247C12.152 22.7167 11.732 22.2967 11.424 21.7367C11.116 21.1767 10.976 20.5327 10.976 19.8047C10.976 19.0907 11.116 18.4607 11.424 17.9007C11.732 17.3407 12.152 16.9067 12.712 16.5987C13.272 16.2907 13.902 16.1367 14.63 16.1367C15.344 16.1367 15.974 16.2907 16.534 16.5987C17.094 16.9067 17.514 17.3407 17.822 17.9007C18.13 18.4607 18.284 19.0907 18.284 19.8047C18.284 20.5327 18.13 21.1767 17.822 21.7367C17.514 22.2967 17.094 22.7167 16.534 23.0247C15.974 23.3327 15.344 23.4727 14.63 23.4727C13.902 23.4727 13.272 23.3327 12.712 23.0247ZM16.156 21.5267C16.548 21.0787 16.744 20.5047 16.744 19.8047C16.744 19.1047 16.548 18.5447 16.156 18.0967C15.764 17.6487 15.26 17.4247 14.63 17.4247C13.986 17.4247 13.482 17.6487 13.104 18.0967C12.712 18.5447 12.53 19.1047 12.53 19.8047C12.53 20.5047 12.712 21.0787 13.104 21.5267C13.482 21.9747 13.986 22.1847 14.63 22.1847C15.26 22.1847 15.764 21.9747 16.156 21.5267ZM23.6018 16.2207V17.6347H22.9298C22.2998 17.6347 21.8518 17.8447 21.5718 18.2507C21.2918 18.6567 21.1518 19.1747 21.1518 19.7907V23.3887H19.6398V16.2207H20.9838L21.1518 17.2987C21.3478 16.9627 21.6138 16.7107 21.9498 16.5147C22.2718 16.3187 22.7058 16.2207 23.2658 16.2207H23.6018ZM31.3179 13.5887V23.3887H30.0019L29.8199 22.3107C29.2459 23.0947 28.4619 23.4727 27.4819 23.4727C26.8239 23.4727 26.2359 23.3327 25.7319 23.0387C25.2139 22.7447 24.8079 22.3247 24.5279 21.7647C24.2339 21.2047 24.0939 20.5607 24.0939 19.8047C24.0939 19.0767 24.2339 18.4467 24.5279 17.8867C24.8219 17.3267 25.2279 16.9067 25.7459 16.5987C26.2499 16.2907 26.8379 16.1367 27.4819 16.1367C27.9999 16.1367 28.4619 16.2347 28.8539 16.4307C29.2459 16.6267 29.5539 16.8787 29.8059 17.2147V13.5887H31.3179ZM29.2459 21.5407C29.6239 21.1067 29.8199 20.5327 29.8199 19.8327C29.8199 19.1187 29.6239 18.5447 29.2459 18.0967C28.8539 17.6487 28.3499 17.4247 27.7339 17.4247C27.1039 17.4247 26.5999 17.6487 26.2219 18.0967C25.8299 18.5447 25.6479 19.1047 25.6479 19.8047C25.6479 20.5187 25.8299 21.0927 26.2219 21.5407C26.5999 21.9887 27.1039 22.1987 27.7339 22.1987C28.3499 22.1987 28.8539 21.9887 29.2459 21.5407ZM33.1034 17.8867C33.3974 17.3267 33.8034 16.9067 34.3354 16.5987C34.8674 16.2907 35.4694 16.1367 36.1554 16.1367C36.8414 16.1367 37.4434 16.2767 37.9754 16.5567C38.5074 16.8367 38.9134 17.2427 39.2214 17.7467C39.5294 18.2647 39.6834 18.8667 39.6974 19.5527C39.6974 19.7487 39.6834 19.9307 39.6554 20.1267H34.2514V20.2107C34.2794 20.8407 34.4754 21.3307 34.8394 21.6947C35.1894 22.0587 35.6654 22.2407 36.2534 22.2407C36.7154 22.2407 37.1074 22.1427 37.4294 21.9187C37.7374 21.6947 37.9474 21.3867 38.0594 20.9807H39.5714C39.4314 21.7087 39.0814 22.3107 38.5074 22.7727C37.9334 23.2487 37.2194 23.4727 36.3654 23.4727C35.6094 23.4727 34.9654 23.3327 34.4054 23.0247C33.8454 22.7167 33.4254 22.2967 33.1174 21.7367C32.8094 21.1907 32.6694 20.5467 32.6694 19.8187C32.6694 19.0907 32.8094 18.4467 33.1034 17.8867ZM38.1574 19.0207C38.0874 18.5027 37.8774 18.0967 37.5274 17.8027C37.1774 17.5087 36.7434 17.3547 36.2114 17.3547C35.7074 17.3547 35.2874 17.5087 34.9234 17.8167C34.5594 18.1247 34.3634 18.5167 34.3074 19.0207H38.1574ZM45.0218 16.2207V17.6347H44.3498C43.7198 17.6347 43.2718 17.8447 42.9918 18.2507C42.7118 18.6567 42.5718 19.1747 42.5718 19.7907V23.3887H41.0598V16.2207H42.4038L42.5718 17.2987C42.7678 16.9627 43.0338 16.7107 43.3698 16.5147C43.6918 16.3187 44.1258 16.2207 44.6858 16.2207H45.0218ZM47.1206 21.0227C47.1486 21.4007 47.3166 21.7087 47.6386 21.9467C47.9606 22.1847 48.3806 22.2967 48.8986 22.2967C49.3466 22.2967 49.7246 22.2127 50.0046 22.0447C50.2846 21.8767 50.4386 21.6387 50.4386 21.3447C50.4386 21.1067 50.3686 20.9247 50.2426 20.7987C50.1026 20.6867 49.9346 20.6027 49.7106 20.5467C49.4866 20.4907 49.1506 20.4347 48.7026 20.3787C48.0726 20.3087 47.5546 20.2107 47.1486 20.0847C46.7426 19.9587 46.4206 19.7627 46.1686 19.4827C45.9166 19.2027 45.8046 18.8387 45.8046 18.3627C45.8046 17.9287 45.9166 17.5367 46.1686 17.2007C46.4206 16.8647 46.7566 16.5987 47.1906 16.4027C47.6246 16.2207 48.1146 16.1227 48.6746 16.1227C49.5706 16.1227 50.3126 16.3327 50.8726 16.7247C51.4326 17.1307 51.7406 17.6907 51.7966 18.4187H50.3266C50.2846 18.0967 50.1166 17.8307 49.8366 17.6207C49.5426 17.4107 49.1786 17.2987 48.7446 17.2987C48.2966 17.2987 47.9466 17.3827 47.6806 17.5507C47.4006 17.7187 47.2746 17.9567 47.2746 18.2367C47.2746 18.4607 47.3306 18.6147 47.4706 18.7267C47.6106 18.8387 47.7786 18.9087 47.9886 18.9507C48.1846 18.9927 48.5206 19.0347 48.9826 19.0907C49.5986 19.1607 50.1166 19.2587 50.5366 19.3987C50.9566 19.5387 51.2926 19.7487 51.5446 20.0427C51.7966 20.3367 51.9226 20.7287 51.9226 21.2327C51.9226 21.6807 51.7826 22.0867 51.5306 22.4227C51.2646 22.7587 50.9006 23.0247 50.4526 23.2067C49.9906 23.3887 49.4726 23.4727 48.9126 23.4727C47.9466 23.4727 47.1626 23.2627 46.5746 22.8287C45.9866 22.3947 45.6786 21.7927 45.6646 21.0227H47.1206ZM52.6881 24.9147V23.4727H58.1901V24.9147H52.6881ZM61.2551 13.6167C61.4231 13.7847 61.5211 14.0087 61.5211 14.2607C61.5211 14.5267 61.4231 14.7507 61.2551 14.9187C61.0731 15.0867 60.8491 15.1707 60.5971 15.1707C60.3311 15.1707 60.1071 15.0867 59.9391 14.9187C59.7571 14.7507 59.6731 14.5267 59.6731 14.2607C59.6731 14.0087 59.7571 13.7847 59.9391 13.6167C60.1071 13.4487 60.3311 13.3507 60.5971 13.3507C60.8491 13.3507 61.0731 13.4487 61.2551 13.6167ZM59.8411 16.2207H61.3531V23.3887H59.8411V16.2207ZM63.4373 17.5507H62.1913V16.2207H63.4373V14.2187H64.9633V16.2207H66.6853V17.5507H64.9633V21.2887C64.9633 21.5687 65.0193 21.7787 65.1313 21.8907C65.2433 22.0027 65.4253 22.0587 65.7053 22.0587H66.8533V23.3887H65.3973C64.7113 23.3887 64.2073 23.2347 63.8993 22.9127C63.5913 22.6047 63.4373 22.1147 63.4373 21.4427V17.5507ZM67.8223 17.8867C68.1163 17.3267 68.5223 16.9067 69.0543 16.5987C69.5863 16.2907 70.1883 16.1367 70.8743 16.1367C71.5603 16.1367 72.1623 16.2767 72.6943 16.5567C73.2263 16.8367 73.6323 17.2427 73.9403 17.7467C74.2483 18.2647 74.4023 18.8667 74.4163 19.5527C74.4163 19.7487 74.4023 19.9307 74.3743 20.1267H68.9703V20.2107C68.9983 20.8407 69.1943 21.3307 69.5583 21.6947C69.9083 22.0587 70.3843 22.2407 70.9723 22.2407C71.4343 22.2407 71.8263 22.1427 72.1483 21.9187C72.4563 21.6947 72.6663 21.3867 72.7783 20.9807H74.2903C74.1503 21.7087 73.8003 22.3107 73.2263 22.7727C72.6523 23.2487 71.9383 23.4727 71.0843 23.4727C70.3283 23.4727 69.6843 23.3327 69.1243 23.0247C68.5643 22.7167 68.1443 22.2967 67.8363 21.7367C67.5283 21.1907 67.3883 20.5467 67.3883 19.8187C67.3883 19.0907 67.5283 18.4467 67.8223 17.8867ZM72.8763 19.0207C72.8063 18.5027 72.5963 18.0967 72.2463 17.8027C71.8963 17.5087 71.4623 17.3547 70.9303 17.3547C70.4263 17.3547 70.0063 17.5087 69.6423 17.8167C69.2783 18.1247 69.0823 18.5167 69.0263 19.0207H72.8763ZM85.9707 16.9067C86.4607 17.4107 86.7127 18.2227 86.7127 19.3427V23.3887H85.2007V19.3567C85.2007 18.7407 85.0747 18.2647 84.8227 17.9287C84.5707 17.6067 84.1927 17.4387 83.7027 17.4387C83.1707 17.4387 82.7647 17.6347 82.4567 17.9987C82.1487 18.3627 82.0087 18.8667 82.0087 19.5107V23.3887H80.4827V19.3567C80.4827 18.7267 80.3427 18.2507 80.0907 17.9287C79.8387 17.6067 79.4607 17.4387 78.9707 17.4387C78.4527 17.4387 78.0467 17.6347 77.7387 18.0127C77.4307 18.4047 77.2907 18.9087 77.2907 19.5527V23.3887H75.7787V16.2207H77.0947L77.2627 17.1587C77.7667 16.4867 78.4667 16.1507 79.3627 16.1367C79.8667 16.1367 80.3007 16.2487 80.6927 16.4587C81.0707 16.6827 81.3647 17.0047 81.5747 17.4387C81.8267 17.0327 82.1487 16.7107 82.5687 16.4867C82.9747 16.2627 83.4647 16.1367 84.0527 16.1367C84.8367 16.1367 85.4667 16.4027 85.9707 16.9067ZM89.4274 21.0227C89.4554 21.4007 89.6234 21.7087 89.9454 21.9467C90.2674 22.1847 90.6874 22.2967 91.2054 22.2967C91.6534 22.2967 92.0314 22.2127 92.3114 22.0447C92.5914 21.8767 92.7454 21.6387 92.7454 21.3447C92.7454 21.1067 92.6754 20.9247 92.5494 20.7987C92.4094 20.6867 92.2414 20.6027 92.0174 20.5467C91.7934 20.4907 91.4574 20.4347 91.0094 20.3787C90.3794 20.3087 89.8614 20.2107 89.4554 20.0847C89.0494 19.9587 88.7274 19.7627 88.4754 19.4827C88.2234 19.2027 88.1114 18.8387 88.1114 18.3627C88.1114 17.9287 88.2234 17.5367 88.4754 17.2007C88.7274 16.8647 89.0634 16.5987 89.4974 16.4027C89.9314 16.2207 90.4214 16.1227 90.9814 16.1227C91.8774 16.1227 92.6194 16.3327 93.1794 16.7247C93.7394 17.1307 94.0474 17.6907 94.1034 18.4187H92.6334C92.5914 18.0967 92.4234 17.8307 92.1434 17.6207C91.8494 17.4107 91.4854 17.2987 91.0514 17.2987C90.6034 17.2987 90.2534 17.3827 89.9874 17.5507C89.7074 17.7187 89.5814 17.9567 89.5814 18.2367C89.5814 18.4607 89.6374 18.6147 89.7774 18.7267C89.9174 18.8387 90.0854 18.9087 90.2954 18.9507C90.4914 18.9927 90.8274 19.0347 91.2894 19.0907C91.9054 19.1607 92.4234 19.2587 92.8434 19.3987C93.2634 19.5387 93.5994 19.7487 93.8514 20.0427C94.1034 20.3367 94.2294 20.7287 94.2294 21.2327C94.2294 21.6807 94.0894 22.0867 93.8374 22.4227C93.5714 22.7587 93.2074 23.0247 92.7594 23.2067C92.2974 23.3887 91.7794 23.4727 91.2194 23.4727C90.2534 23.4727 89.4694 23.2627 88.8814 22.8287C88.2934 22.3947 87.9854 21.7927 87.9714 21.0227H89.4274Z" fill="black"/>
<path d="M0.5 34.3887H320.5V68.3887H0.5V34.3887Z" fill="white" fill-opacity="0.05"/>
<path d="M0.5 34.3887H320.5V68.3887H0.5V34.3887Z" stroke="url(#paint2_linear_3661_2779)"/>
<path d="M14.7 56.5567C14.196 56.5567 13.7387 56.468 13.328 56.2907C12.9267 56.1133 12.5813 55.8613 12.292 55.5347C12.012 55.1987 11.7973 54.802 11.648 54.3447C11.4987 53.878 11.424 53.3553 11.424 52.7767C11.424 52.2073 11.4987 51.6893 11.648 51.2227C11.7973 50.756 12.012 50.3593 12.292 50.0327C12.5813 49.6967 12.9267 49.44 13.328 49.2627C13.7387 49.0853 14.196 48.9967 14.7 48.9967C15.204 48.9967 15.6567 49.0853 16.058 49.2627C16.4687 49.44 16.814 49.6967 17.094 50.0327C17.3833 50.3593 17.6027 50.756 17.752 51.2227C17.9013 51.6893 17.976 52.2073 17.976 52.7767C17.976 53.3553 17.9013 53.878 17.752 54.3447C17.6027 54.802 17.3833 55.1987 17.094 55.5347C16.814 55.8613 16.4687 56.1133 16.058 56.2907C15.6567 56.468 15.204 56.5567 14.7 56.5567ZM14.7 55.5907C15.3253 55.5907 15.8293 55.404 16.212 55.0307C16.5947 54.6573 16.786 54.0787 16.786 53.2947V52.2587C16.786 51.4747 16.5947 50.896 16.212 50.5227C15.8293 50.1493 15.3253 49.9627 14.7 49.9627C14.0747 49.9627 13.5707 50.1493 13.188 50.5227C12.8053 50.896 12.614 51.4747 12.614 52.2587V53.2947C12.614 54.0787 12.8053 54.6573 13.188 55.0307C13.5707 55.404 14.0747 55.5907 14.7 55.5907ZM19.9725 55.4367H22.0865V50.1167H19.9725V49.1647H23.2065V50.9847H23.2765C23.4259 50.4153 23.7059 49.972 24.1165 49.6547C24.5365 49.328 25.0685 49.1647 25.7125 49.1647H26.7205V50.2847H25.3625C24.7185 50.2847 24.1959 50.4713 23.7945 50.8447C23.4025 51.218 23.2065 51.708 23.2065 52.3147V55.4367H26.0065V56.3887H19.9725V55.4367ZM33.2391 55.2127H33.1831C32.7164 56.1087 31.9744 56.5567 30.9571 56.5567C30.0704 56.5567 29.3751 56.2253 28.8711 55.5627C28.3764 54.9 28.1291 53.9713 28.1291 52.7767C28.1291 51.582 28.3764 50.6533 28.8711 49.9907C29.3751 49.328 30.0704 48.9967 30.9571 48.9967C31.9744 48.9967 32.7164 49.4447 33.1831 50.3407H33.2391V46.0287H34.3591V56.3887H33.2391V55.2127ZM31.3911 55.5627C31.6431 55.5627 31.8811 55.53 32.1051 55.4647C32.3291 55.3993 32.5251 55.306 32.6931 55.1847C32.8611 55.054 32.9917 54.9 33.0851 54.7227C33.1877 54.536 33.2391 54.3213 33.2391 54.0787V51.4747C33.2391 51.232 33.1877 51.022 33.0851 50.8447C32.9917 50.658 32.8611 50.504 32.6931 50.3827C32.5251 50.252 32.3291 50.154 32.1051 50.0887C31.8811 50.0233 31.6431 49.9907 31.3911 49.9907C30.7377 49.9907 30.2291 50.1913 29.8651 50.5927C29.5104 50.9847 29.3331 51.5073 29.3331 52.1607V53.3927C29.3331 54.046 29.5104 54.5733 29.8651 54.9747C30.2291 55.3667 30.7377 55.5627 31.3911 55.5627ZM40.0096 56.5567C39.4869 56.5567 39.0156 56.468 38.5956 56.2907C38.1849 56.1133 37.8303 55.8613 37.5316 55.5347C37.2423 55.1987 37.0183 54.802 36.8596 54.3447C36.7009 53.878 36.6216 53.36 36.6216 52.7907C36.6216 52.212 36.7009 51.6893 36.8596 51.2227C37.0276 50.756 37.2563 50.3593 37.5456 50.0327C37.8349 49.6967 38.1803 49.44 38.5816 49.2627C38.9923 49.0853 39.4449 48.9967 39.9396 48.9967C40.4249 48.9967 40.8636 49.0853 41.2556 49.2627C41.6569 49.44 41.9976 49.6873 42.2776 50.0047C42.5576 50.3127 42.7723 50.6813 42.9216 51.1107C43.0709 51.54 43.1456 52.0113 43.1456 52.5247V53.0567H37.7976V53.3927C37.7976 53.71 37.8489 54.004 37.9516 54.2747C38.0543 54.5453 38.1989 54.7787 38.3856 54.9747C38.5816 55.1707 38.8149 55.3247 39.0856 55.4367C39.3656 55.5393 39.6736 55.5907 40.0096 55.5907C40.4949 55.5907 40.9149 55.4787 41.2696 55.2547C41.6243 55.0307 41.8949 54.7227 42.0816 54.3307L42.9076 54.8907C42.6929 55.376 42.3336 55.7773 41.8296 56.0947C41.3349 56.4027 40.7283 56.5567 40.0096 56.5567ZM39.9396 49.9207C39.6316 49.9207 39.3469 49.9767 39.0856 50.0887C38.8243 50.2007 38.5956 50.3547 38.3996 50.5507C38.2129 50.7467 38.0636 50.98 37.9516 51.2507C37.8489 51.512 37.7976 51.8013 37.7976 52.1187V52.2167H41.9416V52.0627C41.9416 51.7453 41.8903 51.456 41.7876 51.1947C41.6943 50.9333 41.5589 50.7093 41.3816 50.5227C41.2136 50.3267 41.0036 50.1773 40.7516 50.0747C40.5089 49.972 40.2383 49.9207 39.9396 49.9207ZM45.1561 55.4367H47.2701V50.1167H45.1561V49.1647H48.3901V50.9847H48.4601C48.6095 50.4153 48.8895 49.972 49.3001 49.6547C49.7201 49.328 50.2521 49.1647 50.8961 49.1647H51.9041V50.2847H50.5461C49.9021 50.2847 49.3795 50.4713 48.9781 50.8447C48.5861 51.218 48.3901 51.708 48.3901 52.3147V55.4367H51.1901V56.3887H45.1561V55.4367ZM53.3127 58.7547V57.7187H60.0327V58.7547H53.3127ZM65.5152 47.5687C65.1885 47.5687 64.9599 47.5033 64.8292 47.3727C64.6985 47.2327 64.6332 47.06 64.6332 46.8547V46.6307C64.6332 46.4253 64.6985 46.2573 64.8292 46.1267C64.9599 45.9867 65.1885 45.9167 65.5152 45.9167C65.8419 45.9167 66.0705 45.9867 66.2012 46.1267C66.3319 46.2573 66.3972 46.4253 66.3972 46.6307V46.8547C66.3972 47.06 66.3319 47.2327 66.2012 47.3727C66.0705 47.5033 65.8419 47.5687 65.5152 47.5687ZM62.3512 55.4367H64.9552V50.1167H62.3512V49.1647H66.0752V55.4367H68.5112V56.3887H62.3512V55.4367ZM75.2117 55.2127H75.1557C74.6891 56.1087 73.9471 56.5567 72.9297 56.5567C72.0431 56.5567 71.3477 56.2253 70.8437 55.5627C70.3491 54.9 70.1017 53.9713 70.1017 52.7767C70.1017 51.582 70.3491 50.6533 70.8437 49.9907C71.3477 49.328 72.0431 48.9967 72.9297 48.9967C73.9471 48.9967 74.6891 49.4447 75.1557 50.3407H75.2117V46.0287H76.3317V56.3887H75.2117V55.2127ZM73.3637 55.5627C73.6157 55.5627 73.8537 55.53 74.0777 55.4647C74.3017 55.3993 74.4977 55.306 74.6657 55.1847C74.8337 55.054 74.9644 54.9 75.0577 54.7227C75.1604 54.536 75.2117 54.3213 75.2117 54.0787V51.4747C75.2117 51.232 75.1604 51.022 75.0577 50.8447C74.9644 50.658 74.8337 50.504 74.6657 50.3827C74.4977 50.252 74.3017 50.154 74.0777 50.0887C73.8537 50.0233 73.6157 49.9907 73.3637 49.9907C72.7104 49.9907 72.2017 50.1913 71.8377 50.5927C71.4831 50.9847 71.3057 51.5073 71.3057 52.1607V53.3927C71.3057 54.046 71.4831 54.5733 71.8377 54.9747C72.2017 55.3667 72.7104 55.5627 73.3637 55.5627Z" fill="white"/>
<path d="M252.676 56.3887V55.4507H255.112V47.5547H252.676V46.6167H258.724V47.5547H256.288V55.4507H258.724V56.3887H252.676ZM262.177 48.1147H262.079V56.3887H261.015V46.6167H262.681L266.013 54.8067H266.111V46.6167H267.175V56.3887H265.509L262.177 48.1147ZM273.077 47.6387V56.3887H271.901V47.6387H268.639V46.6167H276.339V47.6387H273.077ZM277.944 56.3887V46.6167H283.964V47.6387H279.12V50.9287H283.796V51.9507H279.12V55.3667H283.964V56.3887H277.944ZM291.294 55.0867H291.224C291.14 55.2733 291.042 55.4553 290.93 55.6327C290.818 55.81 290.673 55.9687 290.496 56.1087C290.328 56.2393 290.123 56.3467 289.88 56.4307C289.637 56.5147 289.348 56.5567 289.012 56.5567C287.948 56.5567 287.155 56.1273 286.632 55.2687C286.119 54.41 285.862 53.178 285.862 51.5727C285.862 49.8927 286.147 48.6187 286.716 47.7507C287.285 46.8827 288.163 46.4487 289.348 46.4487C289.805 46.4487 290.202 46.5093 290.538 46.6307C290.874 46.752 291.159 46.9153 291.392 47.1207C291.635 47.326 291.835 47.5593 291.994 47.8207C292.153 48.0727 292.283 48.3293 292.386 48.5907L291.378 49.0527C291.294 48.838 291.196 48.6373 291.084 48.4507C290.981 48.2547 290.851 48.0867 290.692 47.9467C290.543 47.7973 290.361 47.6807 290.146 47.5967C289.931 47.5127 289.679 47.4707 289.39 47.4707C288.606 47.4707 288.027 47.7647 287.654 48.3527C287.29 48.9407 287.108 49.7247 287.108 50.7047V52.2167C287.108 52.7113 287.145 53.164 287.22 53.5747C287.295 53.976 287.416 54.326 287.584 54.6247C287.761 54.9233 287.985 55.1567 288.256 55.3247C288.536 55.4833 288.877 55.5627 289.278 55.5627C289.913 55.5627 290.407 55.3713 290.762 54.9887C291.117 54.606 291.294 54.1113 291.294 53.5047V52.4967H289.236V51.5587H292.386V56.3887H291.294V55.0867ZM294.733 56.3887V46.6167H300.753V47.6387H295.909V50.9287H300.585V51.9507H295.909V55.3667H300.753V56.3887H294.733ZM304.303 56.3887H303.127V46.6167H306.683C307.589 46.6167 308.279 46.864 308.755 47.3587C309.231 47.8533 309.469 48.544 309.469 49.4307C309.469 50.224 309.264 50.8587 308.853 51.3347C308.443 51.8107 307.845 52.086 307.061 52.1607L309.553 56.3887H308.237L305.857 52.2167H304.303V56.3887ZM306.655 51.2227C307.15 51.2227 307.533 51.1013 307.803 50.8587C308.083 50.6067 308.223 50.252 308.223 49.7947V49.0667C308.223 48.6093 308.083 48.2593 307.803 48.0167C307.533 47.7647 307.15 47.6387 306.655 47.6387H304.303V51.2227H306.655Z" fill="white" fill-opacity="0.6"/>
<path d="M0.5 68.3887H320.5V102.389H0.5V68.3887Z" fill="white" fill-opacity="0.05"/>
<path d="M0.5 68.3887H320.5V102.389H0.5V68.3887Z" stroke="url(#paint3_linear_3661_2779)"/>
<path d="M15.148 81.5687C14.8213 81.5687 14.5927 81.5033 14.462 81.3727C14.3313 81.2327 14.266 81.06 14.266 80.8547V80.6307C14.266 80.4253 14.3313 80.2573 14.462 80.1267C14.5927 79.9867 14.8213 79.9167 15.148 79.9167C15.4747 79.9167 15.7033 79.9867 15.834 80.1267C15.9647 80.2573 16.03 80.4253 16.03 80.6307V80.8547C16.03 81.06 15.9647 81.2327 15.834 81.3727C15.7033 81.5033 15.4747 81.5687 15.148 81.5687ZM11.984 89.4367H14.588V84.1167H11.984V83.1647H15.708V89.4367H18.144V90.3887H11.984V89.4367ZM23.4445 90.3887C22.8939 90.3887 22.4879 90.2347 22.2265 89.9267C21.9745 89.6187 21.8485 89.222 21.8485 88.7367V84.1167H19.4405V83.1647H21.2325C21.4752 83.1647 21.6432 83.118 21.7365 83.0247C21.8392 82.922 21.8905 82.7493 21.8905 82.5067V80.6167H22.9685V83.1647H26.2585V84.1167H22.9685V89.4367H26.2585V90.3887H23.4445ZM31.6151 90.5567C31.0924 90.5567 30.6211 90.468 30.2011 90.2907C29.7904 90.1133 29.4357 89.8613 29.1371 89.5347C28.8477 89.1987 28.6237 88.802 28.4651 88.3447C28.3064 87.878 28.2271 87.36 28.2271 86.7907C28.2271 86.212 28.3064 85.6893 28.4651 85.2227C28.6331 84.756 28.8617 84.3593 29.1511 84.0327C29.4404 83.6967 29.7857 83.44 30.1871 83.2627C30.5977 83.0853 31.0504 82.9967 31.5451 82.9967C32.0304 82.9967 32.4691 83.0853 32.8611 83.2627C33.2624 83.44 33.6031 83.6873 33.8831 84.0047C34.1631 84.3127 34.3777 84.6813 34.5271 85.1107C34.6764 85.54 34.7511 86.0113 34.7511 86.5247V87.0567H29.4031V87.3927C29.4031 87.71 29.4544 88.004 29.5571 88.2747C29.6597 88.5453 29.8044 88.7787 29.9911 88.9747C30.1871 89.1707 30.4204 89.3247 30.6911 89.4367C30.9711 89.5393 31.2791 89.5907 31.6151 89.5907C32.1004 89.5907 32.5204 89.4787 32.8751 89.2547C33.2297 89.0307 33.5004 88.7227 33.6871 88.3307L34.5131 88.8907C34.2984 89.376 33.9391 89.7773 33.4351 90.0947C32.9404 90.4027 32.3337 90.5567 31.6151 90.5567ZM31.5451 83.9207C31.2371 83.9207 30.9524 83.9767 30.6911 84.0887C30.4297 84.2007 30.2011 84.3547 30.0051 84.5507C29.8184 84.7467 29.6691 84.98 29.5571 85.2507C29.4544 85.512 29.4031 85.8013 29.4031 86.1187V86.2167H33.5471V86.0627C33.5471 85.7453 33.4957 85.456 33.3931 85.1947C33.2997 84.9333 33.1644 84.7093 32.9871 84.5227C32.8191 84.3267 32.6091 84.1773 32.3571 84.0747C32.1144 83.972 31.8437 83.9207 31.5451 83.9207ZM36.4396 90.3887V83.1647H37.4756V84.0047H37.5316C37.6436 83.7247 37.8023 83.4867 38.0076 83.2907C38.2129 83.0947 38.5163 82.9967 38.9176 82.9967C39.3376 82.9967 39.6503 83.104 39.8556 83.3187C40.0609 83.524 40.1869 83.7947 40.2336 84.1307H40.2756C40.4063 83.804 40.5929 83.5333 40.8356 83.3187C41.0783 83.104 41.4143 82.9967 41.8436 82.9967C42.4316 82.9967 42.8236 83.202 43.0196 83.6127C43.2249 84.0233 43.3276 84.6113 43.3276 85.3767V90.3887H42.2916V85.5587C42.2916 84.9427 42.2263 84.518 42.0956 84.2847C41.9743 84.042 41.7456 83.9207 41.4096 83.9207C41.1109 83.9207 40.8683 84.0187 40.6816 84.2147C40.4949 84.4013 40.4016 84.6907 40.4016 85.0827V90.3887H39.3656V85.5587C39.3656 84.9427 39.3003 84.518 39.1696 84.2847C39.0483 84.042 38.8243 83.9207 38.4976 83.9207C38.1989 83.9207 37.9516 84.0187 37.7556 84.2147C37.5689 84.4013 37.4756 84.6907 37.4756 85.0827V90.3887H36.4396ZM44.9181 92.7547V91.7187H51.6381V92.7547H44.9181ZM57.1207 81.5687C56.794 81.5687 56.5653 81.5033 56.4347 81.3727C56.304 81.2327 56.2387 81.06 56.2387 80.8547V80.6307C56.2387 80.4253 56.304 80.2573 56.4347 80.1267C56.5653 79.9867 56.794 79.9167 57.1207 79.9167C57.4473 79.9167 57.676 79.9867 57.8067 80.1267C57.9373 80.2573 58.0027 80.4253 58.0027 80.6307V80.8547C58.0027 81.06 57.9373 81.2327 57.8067 81.3727C57.676 81.5033 57.4473 81.5687 57.1207 81.5687ZM53.9567 89.4367H56.5607V84.1167H53.9567V83.1647H57.6807V89.4367H60.1167V90.3887H53.9567V89.4367ZM66.8172 89.2127H66.7612C66.2945 90.1087 65.5525 90.5567 64.5352 90.5567C63.6485 90.5567 62.9532 90.2253 62.4492 89.5627C61.9545 88.9 61.7072 87.9713 61.7072 86.7767C61.7072 85.582 61.9545 84.6533 62.4492 83.9907C62.9532 83.328 63.6485 82.9967 64.5352 82.9967C65.5525 82.9967 66.2945 83.4447 66.7612 84.3407H66.8172V80.0287H67.9372V90.3887H66.8172V89.2127ZM64.9692 89.5627C65.2212 89.5627 65.4592 89.53 65.6832 89.4647C65.9072 89.3993 66.1032 89.306 66.2712 89.1847C66.4392 89.054 66.5699 88.9 66.6632 88.7227C66.7659 88.536 66.8172 88.3213 66.8172 88.0787V85.4747C66.8172 85.232 66.7659 85.022 66.6632 84.8447C66.5699 84.658 66.4392 84.504 66.2712 84.3827C66.1032 84.252 65.9072 84.154 65.6832 84.0887C65.4592 84.0233 65.2212 83.9907 64.9692 83.9907C64.3159 83.9907 63.8072 84.1913 63.4432 84.5927C63.0885 84.9847 62.9112 85.5073 62.9112 86.1607V87.3927C62.9112 88.046 63.0885 88.5733 63.4432 88.9747C63.8072 89.3667 64.3159 89.5627 64.9692 89.5627Z" fill="white"/>
<path d="M252.676 90.3887V89.4507H255.112V81.5547H252.676V80.6167H258.724V81.5547H256.288V89.4507H258.724V90.3887H252.676ZM262.177 82.1147H262.079V90.3887H261.015V80.6167H262.681L266.013 88.8067H266.111V80.6167H267.175V90.3887H265.509L262.177 82.1147ZM273.077 81.6387V90.3887H271.901V81.6387H268.639V80.6167H276.339V81.6387H273.077ZM277.944 90.3887V80.6167H283.964V81.6387H279.12V84.9287H283.796V85.9507H279.12V89.3667H283.964V90.3887H277.944ZM291.294 89.0867H291.224C291.14 89.2733 291.042 89.4553 290.93 89.6327C290.818 89.81 290.673 89.9687 290.496 90.1087C290.328 90.2393 290.123 90.3467 289.88 90.4307C289.637 90.5147 289.348 90.5567 289.012 90.5567C287.948 90.5567 287.155 90.1273 286.632 89.2687C286.119 88.41 285.862 87.178 285.862 85.5727C285.862 83.8927 286.147 82.6187 286.716 81.7507C287.285 80.8827 288.163 80.4487 289.348 80.4487C289.805 80.4487 290.202 80.5093 290.538 80.6307C290.874 80.752 291.159 80.9153 291.392 81.1207C291.635 81.326 291.835 81.5593 291.994 81.8207C292.153 82.0727 292.283 82.3293 292.386 82.5907L291.378 83.0527C291.294 82.838 291.196 82.6373 291.084 82.4507C290.981 82.2547 290.851 82.0867 290.692 81.9467C290.543 81.7973 290.361 81.6807 290.146 81.5967C289.931 81.5127 289.679 81.4707 289.39 81.4707C288.606 81.4707 288.027 81.7647 287.654 82.3527C287.29 82.9407 287.108 83.7247 287.108 84.7047V86.2167C287.108 86.7113 287.145 87.164 287.22 87.5747C287.295 87.976 287.416 88.326 287.584 88.6247C287.761 88.9233 287.985 89.1567 288.256 89.3247C288.536 89.4833 288.877 89.5627 289.278 89.5627C289.913 89.5627 290.407 89.3713 290.762 88.9887C291.117 88.606 291.294 88.1113 291.294 87.5047V86.4967H289.236V85.5587H292.386V90.3887H291.294V89.0867ZM294.733 90.3887V80.6167H300.753V81.6387H295.909V84.9287H300.585V85.9507H295.909V89.3667H300.753V90.3887H294.733ZM304.303 90.3887H303.127V80.6167H306.683C307.589 80.6167 308.279 80.864 308.755 81.3587C309.231 81.8533 309.469 82.544 309.469 83.4307C309.469 84.224 309.264 84.8587 308.853 85.3347C308.443 85.8107 307.845 86.086 307.061 86.1607L309.553 90.3887H308.237L305.857 86.2167H304.303V90.3887ZM306.655 85.2227C307.15 85.2227 307.533 85.1013 307.803 84.8587C308.083 84.6067 308.223 84.252 308.223 83.7947V83.0667C308.223 82.6093 308.083 82.2593 307.803 82.0167C307.533 81.7647 307.15 81.6387 306.655 81.6387H304.303V85.2227H306.655Z" fill="white" fill-opacity="0.6"/>
<defs>
<linearGradient id="paint0_linear_3661_2779" x1="162.766" y1="1.37316" x2="163.34" y2="34.515" gradientUnits="userSpaceOnUse">
<stop stop-color="#F4C587"/>
<stop offset="0.5" stop-color="#D6D3E9"/>
<stop offset="1" stop-color="#99D2EC"/>
</linearGradient>
<linearGradient id="paint1_linear_3661_2779" x1="0.5" y1="1.38867" x2="320.5" y2="1.38403" gradientUnits="userSpaceOnUse">
<stop stop-color="#F4C587"/>
<stop offset="0.5" stop-color="#D6D3E9"/>
<stop offset="1" stop-color="#99D2EC"/>
</linearGradient>
<linearGradient id="paint2_linear_3661_2779" x1="0.5" y1="34.3887" x2="320.5" y2="34.3842" gradientUnits="userSpaceOnUse">
<stop stop-color="#F4C587"/>
<stop offset="0.5" stop-color="#D6D3E9"/>
<stop offset="1" stop-color="#99D2EC"/>
</linearGradient>
<linearGradient id="paint3_linear_3661_2779" x1="0.5" y1="68.3887" x2="320.5" y2="68.3842" gradientUnits="userSpaceOnUse">
<stop stop-color="#F4C587"/>
<stop offset="0.5" stop-color="#D6D3E9"/>
<stop offset="1" stop-color="#99D2EC"/>
</linearGradient>
</defs>
</svg>
