<svg xmlns="http://www.w3.org/2000/svg" xmlns:xlink="http://www.w3.org/1999/xlink" width="500" zoomAndPan="magnify" viewBox="0 0 375 374.999991" height="500" preserveAspectRatio="xMidYMid meet" version="1.0"><defs><clipPath id="947197e553"><path d="M 254 141 L 366.9375 141 L 366.9375 255 L 254 255 Z M 254 141 " clip-rule="nonzero"/></clipPath></defs><path fill="#ffba6a" d="M 351.230469 295.410156 C 348.085938 289.121094 341.796875 284.796875 334.71875 284.796875 L 273.789062 284.007812 C 273.394531 285.582031 273 286.761719 272.214844 288.332031 C 266.320312 304.058594 250.203125 313.097656 233.691406 311.527344 L 231.332031 311.132812 C 208.925781 308.773438 186.910156 304.449219 165.289062 298.160156 L 147.992188 293.050781 C 145.242188 292.265625 142.882812 290.296875 141.703125 287.941406 C 140.523438 285.582031 140.128906 282.4375 140.917969 279.683594 C 141.703125 276.933594 143.667969 274.574219 146.027344 273.394531 C 148.386719 272.214844 151.53125 271.824219 154.28125 272.609375 L 172.363281 277.71875 C 192.019531 283.222656 212.070312 287.546875 232.511719 289.511719 L 236.441406 289.90625 C 243.519531 290.691406 250.59375 286.367188 252.953125 279.683594 C 254.527344 275.753906 254.527344 271.429688 252.558594 267.5 C 250.59375 263.566406 247.449219 260.421875 243.519531 259.242188 L 155.066406 226.613281 C 145.242188 223.078125 134.625 222.683594 124.796875 225.828125 L 18.265625 263.566406 C 11.582031 265.925781 8.4375 273.789062 11.582031 280.472656 L 44.210938 343.367188 C 46.960938 348.871094 53.253906 351.230469 59.148438 349.265625 L 84.703125 339.832031 C 88.632812 338.257812 93.351562 338.652344 97.28125 340.222656 L 162.539062 368.921875 C 175.117188 374.425781 189.269531 374.816406 202.242188 370.101562 L 340.617188 320.570312 C 345.726562 318.601562 349.660156 315.066406 351.625 309.953125 C 353.589844 305.628906 353.195312 300.125 351.230469 295.410156 Z M 351.230469 295.410156 " fill-opacity="1" fill-rule="nonzero"/><g clip-path="url(#947197e553)"><path fill="#ffba6a" d="M 352.804688 184.160156 L 324.105469 184.160156 L 324.105469 155.460938 C 324.105469 147.992188 317.816406 141.703125 310.347656 141.703125 C 302.878906 141.703125 296.589844 147.992188 296.589844 155.460938 L 296.589844 184.160156 L 267.890625 184.160156 C 260.421875 184.160156 254.132812 190.449219 254.132812 197.917969 C 254.132812 205.386719 260.421875 211.675781 267.890625 211.675781 L 296.589844 211.675781 L 296.589844 240.375 C 296.589844 247.84375 302.878906 254.132812 310.347656 254.132812 C 317.816406 254.132812 324.105469 247.84375 324.105469 240.375 L 324.105469 211.675781 L 352.804688 211.675781 C 360.273438 211.675781 366.5625 205.386719 366.5625 197.917969 C 366.5625 190.449219 360.273438 184.160156 352.804688 184.160156 Z M 352.804688 184.160156 " fill-opacity="1" fill-rule="nonzero"/></g><path fill="#ffba6a" d="M 233.296875 133.445312 L 204.601562 133.445312 L 204.601562 104.75 C 204.601562 97.28125 198.3125 90.992188 190.839844 90.992188 C 183.371094 90.992188 177.082031 97.28125 177.082031 104.75 L 177.082031 133.445312 L 148.386719 133.445312 C 140.917969 133.445312 134.625 139.738281 134.625 147.207031 C 134.625 154.675781 140.917969 160.964844 148.386719 160.964844 L 177.082031 160.964844 L 177.082031 189.660156 C 177.082031 197.132812 183.371094 203.421875 190.839844 203.421875 C 198.3125 203.421875 204.601562 197.132812 204.601562 189.660156 L 204.601562 160.964844 L 233.296875 160.964844 C 240.765625 160.964844 247.054688 154.675781 247.054688 147.207031 C 247.054688 139.738281 240.765625 133.445312 233.296875 133.445312 Z M 233.296875 133.445312 " fill-opacity="1" fill-rule="nonzero"/><path fill="#ffba6a" d="M 326.859375 42.636719 L 298.160156 42.636719 L 298.160156 13.941406 C 298.160156 6.472656 291.871094 0.183594 284.402344 0.183594 C 276.933594 0.183594 270.644531 6.472656 270.644531 13.941406 L 270.644531 42.636719 L 241.945312 42.636719 C 234.476562 42.636719 228.1875 48.929688 228.1875 56.398438 C 228.1875 63.867188 234.476562 70.15625 241.945312 70.15625 L 270.644531 70.15625 L 270.644531 98.851562 C 270.644531 106.324219 276.933594 112.613281 284.402344 112.613281 C 291.871094 112.613281 298.160156 106.324219 298.160156 98.851562 L 298.160156 70.15625 L 326.859375 70.15625 C 334.328125 70.15625 340.617188 63.867188 340.617188 56.398438 C 340.617188 48.929688 334.328125 42.636719 326.859375 42.636719 Z M 326.859375 42.636719 " fill-opacity="1" fill-rule="nonzero"/></svg>