<svg xmlns="http://www.w3.org/2000/svg" width="40" height="40" viewBox="10 10 40 40" fill="none"><path fill-rule="evenodd" clip-rule="evenodd" d="M32.4228 16.0278C32.6323 16.0987 32.7734 16.2954 32.7734 16.5166V26.8385H39.4826C39.6789 26.8385 39.8583 26.9499 39.9453 27.126C40.0323 27.302 40.0118 27.5121 39.8926 27.6681L28.1514 43.0219C28.017 43.1977 27.7855 43.2682 27.5759 43.1973C27.3664 43.1263 27.2253 42.9297 27.2253 42.7084V32.3865H20.5161C20.3197 32.3865 20.1404 32.2751 20.0534 32.0991C19.9664 31.9231 19.9869 31.7129 20.1061 31.5569L31.8473 16.2031C31.9817 16.0274 32.2132 15.9568 32.4228 16.0278ZM21.5605 31.3543H27.7414C28.0265 31.3543 28.2575 31.5854 28.2575 31.8704V41.1839L38.4382 27.8707H32.2573C31.9722 27.8707 31.7412 27.6396 31.7412 27.3546V18.0411L21.5605 31.3543Z" fill="url(#paint1_linear_1686_28768)"/><defs><linearGradient id="paint1_linear_1686_28768" x1="29.9993" y1="16.5166" x2="29.9993" y2="42.7084" gradientUnits="userSpaceOnUse"><stop stop-color="#FDC067"/><stop offset="0.505208" stop-color="#DAD2E2"/><stop offset="1" stop-color="#7CD1ED"/></linearGradient></defs></svg>