<svg width="24" height="24" viewBox="0 0 24 24" fill="none" xmlns="http://www.w3.org/2000/svg">
<path d="M7.75 2.5C6.6 2.5 5.58977 3.09988 5.00977 4.00488C5.08977 3.99988 5.17 4 5.25 4H16.75C18.82 4 20.5 5.68 20.5 7.75V15.75C20.5 15.83 20.5001 15.9102 20.4951 15.9902C21.4001 15.4102 22 14.4 22 13.25V7.75C22 4.855 19.645 2.5 16.75 2.5H7.75ZM5.25 5C3.46403 5 2 6.46403 2 8.25V15.75C2 17.536 3.46403 19 5.25 19H5.5V21.2676C5.5 22.2432 6.69636 22.8534 7.48535 22.2793L11.9941 19H16.25C18.036 19 19.5 17.536 19.5 15.75V8.25C19.5 6.46403 18.036 5 16.25 5H5.25ZM5.25 6.5H16.25C17.225 6.5 18 7.27497 18 8.25V15.75C18 16.725 17.225 17.5 16.25 17.5H11.75C11.5914 17.5 11.4368 17.5502 11.3086 17.6436L7 20.7773V18.25C6.99998 18.0511 6.92096 17.8603 6.78031 17.7197C6.63966 17.579 6.44891 17.5 6.25 17.5H5.25C4.27497 17.5 3.5 16.725 3.5 15.75V8.25C3.5 8.12812 3.51206 8.00903 3.53516 7.89453C3.69682 7.093 4.39685 6.5 5.25 6.5Z" fill="url(#paint0_linear_3392_1449)"/>
<defs>
<linearGradient id="paint0_linear_3392_1449" x1="3.83132" y1="12.5007" x2="20.8218" y2="12.5155" gradientUnits="userSpaceOnUse">
<stop stop-color="#F4C587"/>
<stop offset="0.5" stop-color="#D6D3E9"/>
<stop offset="1" stop-color="#99D2EC"/>
</linearGradient>
</defs>
</svg>
