<svg xmlns="http://www.w3.org/2000/svg" width="24" height="24" viewBox="0 0 24 24" fill="none"><path fill-rule="evenodd" clip-rule="evenodd" d="M6.75 5.5C6.05964 5.5 5.5 6.05964 5.5 6.75V15.25C5.5 15.9404 6.05964 16.5 6.75 16.5H9.375C9.53922 16.5 9.6989 16.5539 9.82953 16.6534L12 18.3071L14.1705 16.6534C14.3011 16.5539 14.4608 16.5 14.625 16.5H17.25C17.9404 16.5 18.5 15.9404 18.5 15.25V6.75C18.5 6.05964 17.9404 5.5 17.25 5.5H6.75ZM4 6.75C4 5.23122 5.23122 4 6.75 4H17.25C18.7688 4 20 5.23122 20 6.75V15.25C20 16.7688 18.7688 18 17.25 18H14.8782L12.4545 19.8466C12.186 20.0511 11.814 20.0511 11.5455 19.8466L9.12184 18H6.75C5.23122 18 4 16.7688 4 15.25V6.75Z" fill="url(#paint0_linear_1787_8096)"/><defs><linearGradient id="paint0_linear_1787_8096" x1="5.46506" y1="12" x2="19.0575" y2="12.0118" gradientUnits="userSpaceOnUse"><stop stop-color="#F4C587"/><stop offset="0.5" stop-color="#D6D3E9"/><stop offset="1" stop-color="#99D2EC"/></linearGradient></defs></svg>