<svg xmlns="http://www.w3.org/2000/svg" width="25" height="24" viewBox="0 0 25 24" fill="none"><path d="M7.25 19.25C7.25 19.25 8.825 16.75 12.5 16.75C16.175 16.75 17.75 19.25 17.75 19.25M12.5 4.75V5.25M16.125 5.721L15.875 6.154M18.779 8.374L18.346 8.624M19.75 12H19.25M18.779 15.625L18.346 15.375M6.654 15.375L6.221 15.625M5.75 12H5.25M6.654 8.625L6.221 8.375M9.125 6.155L8.875 5.721M14.75 12C14.75 12.5967 14.5129 13.169 14.091 13.591C13.669 14.0129 13.0967 14.25 12.5 14.25C11.9033 14.25 11.331 14.0129 10.909 13.591C10.4871 13.169 10.25 12.5967 10.25 12C10.25 11.4033 10.4871 10.831 10.909 10.409C11.331 9.98705 11.9033 9.75 12.5 9.75C13.0967 9.75 13.669 9.98705 14.091 10.409C14.5129 10.831 14.75 11.4033 14.75 12Z" stroke="#FDC067" stroke-width="1.5" stroke-linecap="round" stroke-linejoin="round"/></svg>