<svg xmlns="http://www.w3.org/2000/svg" xmlns:xlink="http://www.w3.org/1999/xlink" width="500" zoomAndPan="magnify" viewBox="0 0 375 374.999991" height="500" preserveAspectRatio="xMidYMid meet" version="1.0"><path fill="#ffba6a" d="M 179.175781 12.742188 L 229.222656 61.914062 L 191.039062 100.121094 C 189.867188 100.046875 188.695312 100 187.5 100 C 184.789062 100 182.078125 100.144531 179.417969 100.390625 C 178.539062 100.488281 177.660156 100.632812 176.78125 100.730469 C 175.023438 100.953125 173.265625 101.195312 171.53125 101.511719 C 170.507812 101.707031 169.507812 101.953125 168.480469 102.195312 C 166.941406 102.539062 165.378906 102.90625 163.867188 103.320312 C 162.816406 103.636719 161.792969 103.980469 160.742188 104.320312 C 159.300781 104.785156 157.859375 105.273438 156.46875 105.808594 C 155.417969 106.199219 154.394531 106.640625 153.367188 107.078125 C 152 107.640625 150.660156 108.277344 149.339844 108.910156 C 148.339844 109.421875 147.339844 109.910156 146.363281 110.449219 C 145.066406 111.132812 143.796875 111.890625 142.527344 112.644531 C 141.578125 113.207031 140.648438 113.792969 139.722656 114.378906 C 138.476562 115.210938 137.253906 116.089844 136.035156 116.992188 C 135.179688 117.625 134.324219 118.210938 133.472656 118.894531 C 132.25 119.871094 131.054688 120.898438 129.859375 121.949219 C 129.125 122.605469 128.367188 123.21875 127.660156 123.902344 C 126.316406 125.171875 125.023438 126.511719 123.730469 127.878906 C 123.265625 128.394531 122.753906 128.855469 122.3125 129.371094 C 120.605469 131.273438 118.992188 133.25 117.457031 135.277344 C 117.039062 135.863281 116.648438 136.5 116.234375 137.085938 C 115.160156 138.574219 114.109375 140.085938 113.132812 141.648438 C 112.621094 142.503906 112.15625 143.382812 111.644531 144.261719 C 110.863281 145.605469 110.082031 146.996094 109.375 148.414062 C 108.886719 149.390625 108.445312 150.367188 108.007812 151.367188 C 107.371094 152.734375 106.761719 154.101562 106.199219 155.515625 C 105.785156 156.566406 105.417969 157.640625 105.027344 158.714844 C 104.539062 160.105469 104.078125 161.523438 103.660156 162.964844 C 103.320312 164.0625 103.027344 165.183594 102.757812 166.308594 C 102.585938 166.992188 102.34375 167.675781 102.195312 168.359375 L 66.308594 132.46875 C 65.136719 131.296875 63.550781 130.640625 61.890625 130.640625 C 61.890625 130.640625 61.863281 130.640625 61.863281 130.640625 C 60.203125 130.640625 58.59375 131.324219 57.421875 132.519531 L 12.746094 177.976562 C 17.480469 88.28125 88.671875 16.96875 179.175781 12.742188 Z M 362.253906 179.175781 L 313.0625 229.222656 L 274.878906 191.039062 C 274.949219 189.867188 275 188.695312 275 187.5 C 275 184.789062 274.851562 182.078125 274.609375 179.417969 C 274.511719 178.539062 274.363281 177.660156 274.265625 176.804688 C 274.046875 175.023438 273.804688 173.265625 273.484375 171.53125 C 273.289062 170.507812 273.046875 169.507812 272.800781 168.503906 C 272.460938 166.941406 272.09375 165.378906 271.679688 163.867188 C 271.363281 162.816406 271.019531 161.792969 270.703125 160.742188 C 270.214844 159.300781 269.726562 157.859375 269.1875 156.445312 C 268.796875 155.417969 268.359375 154.394531 267.917969 153.367188 C 267.359375 152.027344 266.722656 150.660156 266.089844 149.339844 C 265.574219 148.339844 265.085938 147.339844 264.550781 146.363281 C 263.867188 145.066406 263.109375 143.773438 262.351562 142.503906 C 261.765625 141.578125 261.207031 140.648438 260.621094 139.722656 C 259.789062 138.476562 258.910156 137.253906 258.007812 136.035156 C 257.371094 135.179688 256.785156 134.300781 256.128906 133.496094 C 255.125 132.226562 254.078125 131.054688 253.027344 129.859375 C 252.390625 129.125 251.78125 128.367188 251.121094 127.660156 C 249.804688 126.292969 248.4375 124.976562 247.046875 123.65625 C 246.558594 123.21875 246.117188 122.753906 245.628906 122.3125 C 243.726562 120.605469 241.746094 118.992188 239.695312 117.457031 C 239.160156 117.039062 238.574219 116.699219 238.011719 116.285156 C 236.472656 115.210938 234.9375 114.136719 233.324219 113.132812 C 232.519531 112.621094 231.664062 112.183594 230.808594 111.695312 C 229.417969 110.886719 228.027344 110.082031 226.585938 109.375 C 225.632812 108.886719 224.65625 108.472656 223.679688 108.03125 C 222.289062 107.371094 220.898438 106.761719 219.457031 106.199219 C 218.433594 105.785156 217.382812 105.417969 216.332031 105.054688 C 214.917969 104.539062 213.476562 104.078125 211.988281 103.636719 C 210.914062 103.320312 209.839844 103.027344 208.738281 102.757812 C 208.03125 102.585938 207.347656 102.367188 206.640625 102.195312 L 242.527344 66.308594 C 243.699219 65.136719 244.359375 63.523438 244.359375 61.863281 C 244.359375 60.203125 243.675781 58.59375 242.480469 57.445312 L 197.019531 12.742188 C 286.71875 17.457031 358.03125 88.671875 362.253906 179.175781 Z M 195.824219 362.253906 L 145.777344 313.085938 L 183.960938 274.878906 C 185.132812 274.949219 186.304688 275 187.5 275 C 190.210938 275 192.917969 274.851562 195.582031 274.609375 C 196.460938 274.511719 197.339844 274.363281 198.21875 274.265625 C 199.976562 274.046875 201.734375 273.804688 203.464844 273.484375 C 204.492188 273.289062 205.492188 273.046875 206.519531 272.800781 C 208.054688 272.460938 209.617188 272.09375 211.132812 271.679688 C 212.183594 271.363281 213.207031 271.019531 214.257812 270.679688 C 215.699219 270.214844 217.136719 269.726562 218.53125 269.1875 C 219.578125 268.796875 220.605469 268.359375 221.628906 267.917969 C 222.996094 267.359375 224.339844 266.722656 225.660156 266.089844 C 226.660156 265.574219 227.660156 265.085938 228.636719 264.550781 C 229.929688 263.867188 231.199219 263.109375 232.46875 262.351562 C 233.421875 261.792969 234.351562 261.207031 235.277344 260.621094 C 236.523438 259.789062 237.742188 258.910156 238.964844 258.007812 C 239.820312 257.371094 240.671875 256.785156 241.527344 256.101562 C 242.75 255.125 243.945312 254.101562 245.140625 253.050781 C 245.875 252.390625 246.628906 251.78125 247.339844 251.097656 C 248.679688 249.828125 249.976562 248.484375 251.269531 247.117188 C 251.734375 246.605469 252.246094 246.140625 252.683594 245.628906 C 254.394531 243.726562 256.003906 241.746094 257.542969 239.722656 C 257.957031 239.136719 258.347656 238.5 258.765625 237.914062 C 259.839844 236.425781 260.886719 234.910156 261.863281 233.347656 C 262.378906 232.496094 262.839844 231.617188 263.355469 230.738281 C 264.136719 229.394531 264.917969 228.003906 265.625 226.585938 C 266.113281 225.609375 266.550781 224.632812 266.992188 223.632812 C 267.625 222.265625 268.238281 220.898438 268.796875 219.480469 C 269.214844 218.433594 269.578125 217.359375 269.96875 216.285156 C 270.457031 214.890625 270.921875 213.476562 271.335938 212.035156 C 271.679688 210.9375 271.972656 209.8125 272.242188 208.691406 C 272.410156 208.007812 272.65625 207.324219 272.800781 206.640625 L 308.691406 242.527344 C 309.863281 243.699219 311.449219 244.359375 313.109375 244.359375 C 313.109375 244.359375 313.132812 244.359375 313.132812 244.359375 C 314.792969 244.359375 316.40625 243.675781 317.578125 242.480469 L 362.253906 197.019531 C 357.519531 286.71875 286.328125 358.03125 195.824219 362.253906 Z M 187.5 112.5 C 189.136719 112.5 190.722656 112.621094 192.332031 112.742188 C 192.578125 112.742188 192.75 112.769531 192.992188 112.769531 C 231.957031 115.601562 262.5 148.4375 262.5 187.5 C 262.5 189.085938 262.378906 190.625 262.28125 192.164062 C 262.253906 192.457031 262.230469 192.699219 262.207031 192.992188 C 259.375 231.957031 226.5625 262.5 187.5 262.5 C 185.863281 262.5 184.277344 262.378906 182.664062 262.253906 C 182.421875 262.253906 182.25 262.230469 182.007812 262.230469 C 143.042969 259.398438 112.5 226.5625 112.5 187.5 C 112.5 185.914062 112.621094 184.375 112.71875 182.835938 C 112.742188 182.542969 112.769531 182.300781 112.792969 182.007812 C 115.625 143.042969 148.4375 112.5 187.5 112.5 Z M 12.746094 195.824219 L 61.9375 145.777344 L 100.121094 183.960938 C 100.046875 185.132812 100 186.304688 100 187.5 C 100 190.210938 100.144531 192.917969 100.390625 195.582031 C 100.488281 196.460938 100.632812 197.339844 100.730469 198.191406 C 100.953125 199.976562 101.195312 201.734375 101.511719 203.464844 C 101.707031 204.492188 101.953125 205.492188 102.195312 206.492188 C 102.539062 208.054688 102.90625 209.617188 103.320312 211.132812 C 103.636719 212.183594 103.980469 213.207031 104.320312 214.257812 C 104.785156 215.699219 105.273438 217.136719 105.808594 218.554688 C 106.199219 219.578125 106.640625 220.605469 107.078125 221.628906 C 107.664062 222.972656 108.277344 224.339844 108.910156 225.660156 C 109.421875 226.660156 109.910156 227.660156 110.449219 228.636719 C 111.132812 229.929688 111.890625 231.226562 112.644531 232.496094 C 113.230469 233.421875 113.792969 234.351562 114.378906 235.277344 C 115.210938 236.523438 116.089844 237.742188 116.992188 238.964844 C 117.625 239.820312 118.210938 240.699219 118.871094 241.503906 C 119.871094 242.773438 120.921875 243.945312 121.972656 245.140625 C 122.605469 245.875 123.21875 246.628906 123.875 247.339844 C 125.195312 248.707031 126.5625 250.023438 127.953125 251.34375 C 128.441406 251.78125 128.882812 252.246094 129.371094 252.683594 C 131.273438 254.394531 133.25 256.003906 135.300781 257.542969 C 135.839844 257.957031 136.449219 258.324219 137.011719 258.714844 C 138.523438 259.8125 140.0625 260.863281 141.675781 261.863281 C 142.480469 262.378906 143.335938 262.816406 144.1875 263.304688 C 145.582031 264.109375 146.996094 264.917969 148.4375 265.625 C 149.363281 266.113281 150.339844 266.527344 151.316406 266.96875 C 152.710938 267.625 154.101562 268.238281 155.542969 268.796875 C 156.566406 269.214844 157.617188 269.578125 158.667969 269.945312 C 160.082031 270.457031 161.523438 270.921875 163.011719 271.363281 C 164.085938 271.679688 165.160156 271.972656 166.257812 272.242188 C 166.96875 272.410156 167.652344 272.632812 168.359375 272.800781 L 132.46875 308.691406 C 131.296875 309.863281 130.640625 311.472656 130.640625 313.132812 C 130.640625 314.792969 131.324219 316.40625 132.519531 317.554688 L 177.976562 362.253906 C 88.28125 357.542969 16.96875 286.328125 12.746094 195.824219 Z M 0.148438 193.578125 C 3.394531 295.3125 85.691406 375 187.5 375 C 189.109375 375 190.699219 374.949219 192.285156 374.878906 L 193.53125 374.851562 C 193.554688 374.851562 193.554688 374.851562 193.578125 374.851562 C 295.3125 371.605469 375 289.304688 375 187.5 C 375 185.839844 374.949219 184.203125 374.878906 182.59375 L 374.851562 181.421875 C 371.605469 79.6875 289.304688 0 187.5 0 C 185.886719 0 184.300781 0.046875 182.714844 0.121094 L 181.421875 0.148438 C 79.6875 3.394531 0 85.691406 0 187.5 C 0 189.160156 0.0507812 190.796875 0.121094 192.40625 L 0.148438 193.578125 " fill-opacity="1" fill-rule="nonzero"/><path fill="#ffba6a" d="M 125 162.5 L 125 212.5 C 125 215.941406 127.808594 218.75 131.25 218.75 L 156.25 218.75 C 159.691406 218.75 162.5 215.941406 162.5 212.5 L 162.5 193.75 L 150 193.75 L 150 206.25 L 137.5 206.25 L 137.5 168.75 L 150 168.75 L 150 175 L 162.5 175 L 162.5 162.5 C 162.5 159.058594 159.691406 156.25 156.25 156.25 L 131.25 156.25 C 127.808594 156.25 125 159.058594 125 162.5 " fill-opacity="1" fill-rule="nonzero"/><path fill="#ffba6a" d="M 181.25 168.75 L 193.75 168.75 L 193.75 181.25 L 181.25 181.25 Z M 181.25 193.75 L 188.621094 193.75 L 193.871094 219.96875 L 206.128906 217.527344 L 201.34375 193.601562 C 204.148438 192.992188 206.25 190.476562 206.25 187.5 L 206.25 162.5 C 206.25 159.058594 203.441406 156.25 200 156.25 L 175 156.25 C 171.558594 156.25 168.75 159.058594 168.75 162.5 L 168.75 218.75 L 181.25 218.75 L 181.25 193.75 " fill-opacity="1" fill-rule="nonzero"/><path fill="#ffba6a" d="M 225 183.128906 L 226.050781 184.714844 C 228.367188 188.183594 234.128906 188.183594 236.449219 184.714844 L 237.5 183.128906 L 237.5 218.75 L 250 218.75 L 250 162.5 C 250 159.742188 248.191406 157.324219 245.554688 156.519531 C 242.945312 155.710938 240.085938 156.738281 238.550781 159.03125 L 231.25 169.996094 L 223.949219 159.03125 C 222.410156 156.738281 219.578125 155.710938 216.941406 156.519531 C 214.304688 157.324219 212.5 159.742188 212.5 162.5 L 212.5 218.75 L 225 218.75 L 225 183.128906 " fill-opacity="1" fill-rule="nonzero"/><path fill="#ffba6a" d="M 293.75 93.75 C 304.101562 93.75 312.5 102.148438 312.5 112.5 C 312.5 122.851562 304.101562 131.25 293.75 131.25 C 283.398438 131.25 275 122.851562 275 112.5 C 275 102.148438 283.398438 93.75 293.75 93.75 Z M 293.75 143.75 C 310.984375 143.75 325 129.734375 325 112.5 C 325 95.261719 310.984375 81.25 293.75 81.25 C 276.511719 81.25 262.5 95.261719 262.5 112.5 C 262.5 129.734375 276.511719 143.75 293.75 143.75 " fill-opacity="1" fill-rule="nonzero"/><path fill="#ffba6a" d="M 225 287.5 L 293.75 287.5 L 293.75 275 L 225 275 L 225 287.5 " fill-opacity="1" fill-rule="nonzero"/><path fill="#ffba6a" d="M 225 312.5 L 281.25 312.5 L 281.25 300 L 225 300 L 225 312.5 " fill-opacity="1" fill-rule="nonzero"/><path fill="#ffba6a" d="M 225 337.5 L 256.25 337.5 L 256.25 325 L 225 325 L 225 337.5 " fill-opacity="1" fill-rule="nonzero"/><path fill="#ffba6a" d="M 300 100 L 287.5 100 L 287.5 125 L 300 125 L 300 100 " fill-opacity="1" fill-rule="nonzero"/><path fill="#ffba6a" d="M 68.75 268.75 C 54.957031 268.75 43.75 257.542969 43.75 243.75 C 43.75 229.957031 54.957031 218.75 68.75 218.75 C 82.542969 218.75 93.75 229.957031 93.75 243.75 C 93.75 257.542969 82.542969 268.75 68.75 268.75 Z M 68.75 206.25 C 48.070312 206.25 31.25 223.070312 31.25 243.75 C 31.25 264.429688 48.070312 281.25 68.75 281.25 C 89.429688 281.25 106.25 264.429688 106.25 243.75 C 106.25 223.070312 89.429688 206.25 68.75 206.25 " fill-opacity="1" fill-rule="nonzero"/><path fill="#ffba6a" d="M 68.089844 228.441406 L 56.910156 234.058594 L 63.160156 246.558594 C 63.769531 247.753906 64.746094 248.730469 65.941406 249.339844 L 78.441406 255.589844 L 84.058594 244.410156 L 73.414062 239.085938 L 68.089844 228.441406 " fill-opacity="1" fill-rule="nonzero"/><path fill="#ffba6a" d="M 68.75 106.25 L 68.75 87.5 L 56.25 87.5 L 56.25 106.25 L 68.75 106.25 " fill-opacity="1" fill-rule="nonzero"/><path fill="#ffba6a" d="M 93.75 68.75 L 81.25 68.75 L 81.25 106.25 L 93.75 106.25 L 93.75 68.75 " fill-opacity="1" fill-rule="nonzero"/><path fill="#ffba6a" d="M 118.75 50 L 106.25 50 L 106.25 106.25 L 118.75 106.25 L 118.75 50 " fill-opacity="1" fill-rule="nonzero"/><path fill="#ffba6a" d="M 143.75 37.5 L 131.25 37.5 L 131.25 106.25 L 143.75 106.25 L 143.75 37.5 " fill-opacity="1" fill-rule="nonzero"/></svg>