<svg width="24" height="24" viewBox="0 0 24 24" fill="none" xmlns="http://www.w3.org/2000/svg">
<path d="M2 18V20.5C2 21.6046 2.89543 22.5 4 22.5H6.5" stroke="url(#paint0_linear_3392_1461)" stroke-linejoin="round"/>
<path d="M22.5 18V20.5C22.5 21.6046 21.6046 22.5 20.5 22.5H18" stroke="url(#paint1_linear_3392_1461)" stroke-linejoin="round"/>
<path d="M22.5 6.5V4C22.5 2.89543 21.6046 2 20.5 2H18" stroke="url(#paint2_linear_3392_1461)" stroke-linejoin="round"/>
<path d="M15.125 14.2857V11.5C15.125 9.73571 14.6 7.97143 13.55 6.48571L12.5 5L11.45 6.48571C10.4 7.97143 9.875 9.73571 9.875 11.5V14.2857L9 16.1429V18H11.625V16.1429H13.375V18H16V16.1429L15.125 14.2857ZM12.5 12.7071C11.8875 12.7071 11.3625 12.15 11.3625 11.5C11.3625 10.85 11.8875 10.3857 12.5 10.3857C13.1125 10.3857 13.6375 10.9429 13.6375 11.5929C13.6375 12.2429 13.1125 12.7071 12.5 12.7071Z" fill="url(#paint3_linear_3392_1461)"/>
<path d="M2 6.5V4C2 2.89543 2.89543 2 4 2H6.5" stroke="url(#paint4_linear_3392_1461)" stroke-linejoin="round"/>
<defs>
<linearGradient id="paint0_linear_3392_1461" x1="2.41205" y1="20.25" x2="6.23491" y2="20.2533" gradientUnits="userSpaceOnUse">
<stop stop-color="#F4C587"/>
<stop offset="0.5" stop-color="#D6D3E9"/>
<stop offset="1" stop-color="#99D2EC"/>
</linearGradient>
<linearGradient id="paint1_linear_3392_1461" x1="18.412" y1="20.25" x2="22.2349" y2="20.2533" gradientUnits="userSpaceOnUse">
<stop stop-color="#F4C587"/>
<stop offset="0.5" stop-color="#D6D3E9"/>
<stop offset="1" stop-color="#99D2EC"/>
</linearGradient>
<linearGradient id="paint2_linear_3392_1461" x1="18.412" y1="4.25" x2="22.2349" y2="4.25332" gradientUnits="userSpaceOnUse">
<stop stop-color="#F4C587"/>
<stop offset="0.5" stop-color="#D6D3E9"/>
<stop offset="1" stop-color="#99D2EC"/>
</linearGradient>
<linearGradient id="paint3_linear_3392_1461" x1="9.64096" y1="11.5" x2="15.5876" y2="11.5028" gradientUnits="userSpaceOnUse">
<stop stop-color="#F4C587"/>
<stop offset="0.5" stop-color="#D6D3E9"/>
<stop offset="1" stop-color="#99D2EC"/>
</linearGradient>
<linearGradient id="paint4_linear_3392_1461" x1="2.41205" y1="4.25" x2="6.23491" y2="4.25332" gradientUnits="userSpaceOnUse">
<stop stop-color="#F4C587"/>
<stop offset="0.5" stop-color="#D6D3E9"/>
<stop offset="1" stop-color="#99D2EC"/>
</linearGradient>
</defs>
</svg>
