<svg xmlns="http://www.w3.org/2000/svg" xmlns:xlink="http://www.w3.org/1999/xlink" width="500" zoomAndPan="magnify" viewBox="0 0 375 374.999991" height="500" preserveAspectRatio="xMidYMid meet" version="1.0"><defs><clipPath id="44b4e4a677"><path d="M 0 19 L 375 19 L 375 356.25 L 0 356.25 Z M 0 19 " clip-rule="nonzero"/></clipPath></defs><rect x="-37.5" width="450" fill="#ffffff" y="-37.499999" height="449.999989" fill-opacity="1"/><rect x="-37.5" width="450" fill="#0f0f0e" y="-37.499999" height="449.999989" fill-opacity="1"/><g clip-path="url(#44b4e4a677)"><path fill="#ffba6a" d="M 368.953125 183.320312 L 355.695312 183.320312 L 355.695312 181.257812 C 355.695312 181.257812 355.695312 181.246094 355.695312 181.246094 C 355.695312 181.246094 355.695312 181.238281 355.695312 181.238281 L 355.695312 151.003906 C 355.695312 141.496094 351.804688 132.84375 345.515625 126.535156 L 345.488281 126.507812 C 340.554688 121.585938 334.171875 118.132812 327.066406 116.867188 L 327.066406 80.867188 C 327.066406 71.351562 323.164062 62.679688 316.882812 56.398438 L 316.855469 56.371094 C 310.574219 50.089844 301.914062 46.191406 292.386719 46.191406 L 206.726562 46.191406 L 170.710938 21.523438 C 168.300781 19.847656 164.953125 20.136719 162.882812 22.351562 L 149.644531 36.449219 L 126.449219 20.578125 C 124.039062 18.898438 120.695312 19.191406 118.621094 21.402344 L 95.335938 46.210938 L 41.109375 46.210938 C 29.804688 46.210938 19.519531 50.839844 12.074219 58.285156 C 4.632812 65.726562 0 76.011719 0 87.320312 C 0 87.328125 0 87.328125 0 87.335938 L 0 321.382812 C 0 330.917969 3.898438 339.601562 10.179688 345.871094 C 16.460938 352.152344 25.132812 356.054688 34.667969 356.054688 L 321.019531 356.054688 C 330.523438 356.054688 339.179688 352.164062 345.488281 345.871094 L 345.515625 345.84375 C 351.796875 339.554688 355.695312 330.890625 355.695312 321.375 L 355.695312 289.070312 L 368.953125 289.070312 C 372.289062 289.070312 375 286.359375 375 283.023438 L 375 189.355469 C 375 186.027344 372.289062 183.320312 368.953125 183.320312 Z M 292.398438 58.304688 C 298.613281 58.304688 304.257812 60.84375 308.351562 64.929688 C 312.441406 69.027344 314.980469 74.671875 314.980469 80.886719 L 314.980469 116.34375 L 309.148438 116.34375 L 224.410156 58.304688 Z M 168.132812 34.386719 L 201.234375 57.054688 C 201.402344 57.1875 201.570312 57.300781 201.757812 57.414062 L 287.804688 116.34375 L 266.289062 116.34375 L 159.710938 43.351562 Z M 123.871094 33.429688 L 244.929688 116.34375 L 46.050781 116.34375 L 102.121094 56.617188 C 102.289062 56.457031 102.449219 56.289062 102.601562 56.109375 Z M 41.109375 58.304688 L 83.980469 58.304688 L 31.152344 114.582031 C 27.160156 113.117188 23.570312 110.792969 20.617188 107.839844 L 20.617188 107.8125 C 15.367188 102.5625 12.09375 95.316406 12.085938 87.355469 L 12.085938 87.328125 C 12.085938 87.328125 12.085938 87.320312 12.085938 87.320312 C 12.085938 79.351562 15.355469 72.09375 20.617188 66.835938 C 25.882812 61.566406 33.140625 58.304688 41.109375 58.304688 Z M 336.992188 337.332031 L 336.964844 337.359375 C 332.886719 341.4375 327.242188 343.96875 321.027344 343.96875 L 34.667969 343.96875 C 28.460938 343.96875 22.820312 341.429688 18.730469 337.332031 C 14.632812 333.234375 12.09375 327.589844 12.09375 321.394531 L 12.09375 311.4375 C 14.269531 310.273438 15.769531 307.894531 15.09375 304.820312 C 14.945312 304.285156 14.820312 303.882812 14.570312 303.394531 L 14.550781 303.367188 L 12.101562 304.660156 L 12.101562 301.941406 L 14.550781 303.375 C 13.117188 300.496094 12.273438 297.523438 12.132812 294.300781 C 12.121094 294.207031 12.113281 294.113281 12.101562 294.019531 L 12.101562 139.492188 C 15.375 138.414062 17.511719 134.570312 15.523438 130.820312 C 13.976562 128.082031 12.804688 124.585938 12.382812 121.472656 C 12.320312 121.070312 12.226562 120.695312 12.101562 120.335938 L 12.101562 116.351562 C 19.566406 123.804688 29.839844 128.429688 41.117188 128.429688 C 41.269531 128.429688 41.417969 128.417969 41.570312 128.410156 C 41.71875 128.417969 41.867188 128.429688 42.019531 128.429688 L 321.039062 128.429688 C 327.253906 128.429688 332.90625 130.960938 336.976562 135.039062 L 337.003906 135.066406 C 341.082031 139.144531 343.613281 144.789062 343.613281 151.003906 L 343.613281 164.617188 C 341.371094 166.226562 340.398438 169.238281 341.605469 171.964844 C 342.890625 174.871094 343.648438 178.023438 343.613281 181.199219 L 343.613281 183.308594 L 327.816406 183.308594 C 317.484375 183.308594 308.101562 187.527344 301.304688 194.335938 C 294.507812 201.140625 290.277344 210.515625 290.277344 220.847656 L 290.277344 251.539062 C 290.277344 261.863281 294.496094 271.257812 301.3125 278.035156 C 308.128906 284.839844 317.503906 289.070312 327.804688 289.070312 L 343.601562 289.070312 L 343.601562 293.136719 C 343.601562 293.148438 343.601562 293.148438 343.601562 293.148438 C 343.648438 296.34375 342.882812 299.511719 341.597656 302.429688 C 341.054688 303.65625 340.949219 304.941406 341.242188 306.253906 C 341.605469 307.828125 342.496094 309 343.613281 309.777344 L 343.613281 321.367188 C 343.601562 327.601562 341.070312 333.253906 336.992188 337.332031 Z M 362.90625 276.984375 L 327.804688 276.984375 C 320.804688 276.984375 314.4375 274.125 309.84375 269.53125 L 309.84375 269.503906 C 305.230469 264.890625 302.371094 258.535156 302.371094 251.539062 L 302.371094 220.847656 C 302.371094 213.851562 305.242188 207.496094 309.84375 202.882812 C 314.457031 198.273438 320.8125 195.414062 327.804688 195.414062 L 362.90625 195.414062 Z M 316.285156 236.203125 C 316.285156 241.367188 318.382812 246.046875 321.769531 249.429688 C 325.152344 252.816406 329.832031 254.914062 334.996094 254.914062 C 339.957031 254.914062 344.464844 252.976562 347.8125 249.804688 L 348.214844 249.429688 C 351.601562 246.046875 353.699219 241.367188 353.699219 236.203125 C 353.699219 231.039062 351.601562 226.359375 348.214844 222.976562 C 344.832031 219.589844 340.152344 217.492188 334.988281 217.492188 C 329.820312 217.492188 325.144531 219.589844 321.757812 222.976562 C 318.382812 226.359375 316.285156 231.039062 316.285156 236.203125 Z M 330.308594 231.523438 C 331.5 230.335938 333.160156 229.59375 334.988281 229.59375 C 336.816406 229.59375 338.476562 230.335938 339.664062 231.523438 C 340.855469 232.714844 341.597656 234.375 341.597656 236.203125 C 341.597656 238.03125 340.855469 239.691406 339.664062 240.882812 L 339.449219 241.117188 C 338.277344 242.175781 336.710938 242.820312 334.996094 242.820312 C 333.167969 242.820312 331.519531 242.082031 330.320312 240.890625 C 329.128906 239.699219 328.386719 238.039062 328.386719 236.210938 C 328.378906 234.375 329.117188 232.714844 330.308594 231.523438 Z M 75.789062 327.835938 L 63.695312 327.835938 C 63.261719 327.835938 62.914062 327.789062 62.511719 327.722656 C 55.257812 326.109375 56.597656 315.742188 63.695312 315.742188 L 75.789062 315.742188 C 76.21875 315.742188 76.566406 315.789062 76.96875 315.851562 C 84.226562 317.464844 82.882812 327.835938 75.789062 327.835938 Z M 293.429688 327.835938 L 281.335938 327.835938 C 280.902344 327.835938 280.554688 327.789062 280.152344 327.722656 C 272.898438 326.109375 274.238281 315.742188 281.335938 315.742188 L 293.429688 315.742188 C 293.859375 315.742188 294.207031 315.789062 294.609375 315.851562 C 301.867188 317.464844 300.523438 327.835938 293.429688 327.835938 Z M 39.515625 327.835938 C 33.570312 327.835938 31.507812 327.890625 25.988281 326.726562 C 25.632812 326.632812 25.351562 326.523438 25.011719 326.382812 C 18.234375 323.195312 22.058594 313.179688 29.015625 315.019531 C 33.261719 315.910156 34.726562 315.742188 39.515625 315.742188 C 39.945312 315.742188 40.292969 315.789062 40.695312 315.851562 C 47.953125 317.464844 46.613281 327.835938 39.515625 327.835938 Z M 112.058594 327.835938 L 99.964844 327.835938 C 99.535156 327.835938 99.1875 327.789062 98.785156 327.722656 C 91.527344 326.109375 92.867188 315.742188 99.964844 315.742188 L 112.058594 315.742188 C 112.492188 315.742188 112.835938 315.789062 113.242188 315.851562 C 120.496094 317.464844 119.164062 327.835938 112.058594 327.835938 Z M 148.332031 327.835938 L 136.238281 327.835938 C 135.804688 327.835938 135.460938 327.789062 135.054688 327.722656 C 127.800781 326.109375 129.140625 315.742188 136.238281 315.742188 L 148.332031 315.742188 C 148.761719 315.742188 149.109375 315.789062 149.511719 315.851562 C 156.769531 317.464844 155.4375 327.835938 148.332031 327.835938 Z M 220.875 327.835938 L 208.78125 327.835938 C 208.351562 327.835938 208.003906 327.789062 207.601562 327.722656 C 200.34375 326.109375 201.683594 315.742188 208.78125 315.742188 L 220.875 315.742188 C 221.304688 315.742188 221.652344 315.789062 222.054688 315.851562 C 229.3125 317.464844 227.980469 327.835938 220.875 327.835938 Z M 257.15625 327.835938 L 245.0625 327.835938 C 244.632812 327.835938 244.285156 327.789062 243.882812 327.722656 C 236.625 326.109375 237.964844 315.742188 245.0625 315.742188 L 257.15625 315.742188 C 257.585938 315.742188 257.933594 315.789062 258.335938 315.851562 C 265.59375 317.464844 264.253906 327.835938 257.15625 327.835938 Z M 184.601562 327.835938 L 172.507812 327.835938 C 172.078125 327.835938 171.730469 327.789062 171.328125 327.722656 C 164.070312 326.109375 165.414062 315.742188 172.507812 315.742188 L 184.601562 315.742188 C 185.035156 315.742188 185.382812 315.789062 185.785156 315.851562 C 193.039062 317.464844 191.710938 327.835938 184.601562 327.835938 Z M 331.40625 326.230469 C 327.984375 327.320312 324.617188 327.796875 321.027344 327.824219 L 317.605469 327.824219 C 317.175781 327.824219 316.828125 327.777344 316.425781 327.710938 C 309.167969 326.101562 310.507812 315.730469 317.605469 315.730469 L 321.027344 315.730469 C 323.128906 315.757812 325.734375 315.375 327.730469 314.710938 C 328.828125 314.34375 330.085938 314.335938 331.191406 314.644531 C 336.964844 316.351562 337.097656 324.335938 331.40625 326.230469 Z M 317.605469 146.578125 L 321.027344 146.578125 C 324.617188 146.617188 327.984375 147.085938 331.40625 148.171875 C 331.960938 148.359375 332.371094 148.554688 332.878906 148.875 C 338.804688 152.832031 334.199219 161.851562 327.722656 159.695312 C 325.734375 159.027344 323.117188 158.644531 321.019531 158.671875 L 317.597656 158.671875 C 317.164062 158.671875 316.820312 158.625 316.414062 158.558594 C 309.167969 156.945312 310.507812 146.578125 317.605469 146.578125 Z M 44.632812 149.316406 C 47.210938 153.617188 44.101562 158.839844 39.085938 158.570312 C 34.386719 158.203125 30.039062 157.171875 25.695312 155.335938 L 25.445312 155.230469 C 25.097656 155.082031 24.824219 154.921875 24.496094 154.726562 C 18.207031 150.113281 23.933594 141.335938 30.234375 144.132812 C 33.84375 145.445312 36.054688 146.203125 39.964844 146.511719 C 41.820312 146.605469 43.632812 147.722656 44.632812 149.316406 Z M 136.246094 146.578125 L 148.339844 146.578125 C 148.773438 146.578125 149.117188 146.625 149.523438 146.691406 C 156.777344 148.304688 155.4375 158.671875 148.339844 158.671875 L 136.246094 158.671875 C 135.816406 158.671875 135.46875 158.625 135.066406 158.558594 C 127.808594 156.945312 129.140625 146.578125 136.246094 146.578125 Z M 245.0625 146.578125 L 257.15625 146.578125 C 257.585938 146.578125 257.933594 146.625 258.335938 146.691406 C 265.59375 148.304688 264.253906 158.671875 257.15625 158.671875 L 245.0625 158.671875 C 244.632812 158.671875 244.285156 158.625 243.882812 158.558594 C 236.625 156.945312 237.964844 146.578125 245.0625 146.578125 Z M 208.789062 146.578125 L 220.882812 146.578125 C 221.316406 146.578125 221.664062 146.625 222.066406 146.691406 C 229.320312 148.304688 227.980469 158.671875 220.882812 158.671875 L 208.789062 158.671875 C 208.359375 158.671875 208.011719 158.625 207.609375 158.558594 C 200.351562 156.945312 201.695312 146.578125 208.789062 146.578125 Z M 281.335938 146.578125 L 293.429688 146.578125 C 293.859375 146.578125 294.207031 146.625 294.609375 146.691406 C 301.867188 148.304688 300.523438 158.671875 293.429688 158.671875 L 281.335938 158.671875 C 280.902344 158.671875 280.554688 158.625 280.152344 158.558594 C 272.898438 156.945312 274.238281 146.578125 281.335938 146.578125 Z M 99.976562 146.578125 L 112.070312 146.578125 C 112.5 146.578125 112.847656 146.625 113.25 146.691406 C 120.507812 148.304688 119.164062 158.671875 112.070312 158.671875 L 99.976562 158.671875 C 99.542969 158.671875 99.195312 158.625 98.792969 158.558594 C 91.539062 156.945312 92.867188 146.578125 99.976562 146.578125 Z M 172.519531 146.578125 L 184.613281 146.578125 C 185.042969 146.578125 185.390625 146.625 185.792969 146.691406 C 193.050781 148.304688 191.710938 158.671875 184.613281 158.671875 L 172.519531 158.671875 C 172.085938 158.671875 171.742188 158.625 171.335938 158.558594 C 164.082031 156.945312 165.414062 146.578125 172.519531 146.578125 Z M 63.695312 146.578125 L 75.789062 146.578125 C 76.21875 146.578125 76.566406 146.625 76.96875 146.691406 C 84.226562 148.304688 82.882812 158.671875 75.789062 158.671875 L 63.695312 158.671875 C 63.261719 158.671875 62.914062 158.625 62.511719 158.558594 C 55.257812 156.945312 56.597656 146.578125 63.695312 146.578125 Z M 63.695312 146.578125 " fill-opacity="1" fill-rule="nonzero"/></g></svg>