<svg xmlns="http://www.w3.org/2000/svg" width="16" height="15" viewBox="0 0 16 15" fill="none"><g clip-path="url(#clip0_954_5914)"><path d="M14.797 7.543C14.797 3.653 11.596 0.5 7.648 0.5C3.701 0.5 0.5 3.653 0.5 7.543C0.5 11.058 3.114 13.971 6.532 14.499V9.578H4.716V7.542H6.532V5.991C6.532 4.227 7.599 3.251 9.232 3.251C10.013 3.251 10.832 3.389 10.832 3.389V5.122H9.93C9.042 5.122 8.765 5.665 8.765 6.222V7.543H10.747L10.43 9.579H8.765V14.5C12.183 13.971 14.797 11.057 14.797 7.543Z" fill="#F7F8F9"/></g><defs><clipPath id="clip0_954_5914"><rect width="15" height="14" fill="white" transform="translate(0.5 0.5)"/></clipPath></defs></svg>