<svg xmlns="http://www.w3.org/2000/svg" width="24" height="24" viewBox="0 0 24 24" fill="none">
  <g clip-path="url(#clip0_2801_11031)">
    <path
      d="M17 13.0172C17 16.0517 15.0201 17 12.5 17C9.62001 17 8 14.8379 8 13.0172C8 11.1966 8.90001 9.54023 9.62001 9.03448C9.62001 11.1586 11.54 12.5115 12.5 12.4483C10.772 9.71724 12.26 6.6954 13.22 6C13.22 9.41379 17 9.98276 17 13.0172Z"
      stroke="#BCBCBC" stroke-width="1.5" stroke-linecap="round" stroke-linejoin="round" />
    <path d="M18 1H21C22.1046 1 23 1.89557 23 3.00014C23 3.94025 23 4.81111 23 6" stroke="#BCBCBC"
      stroke-width="1.5" stroke-linecap="round" stroke-linejoin="round" />
    <path d="M6 23L3 23C1.89543 23 1 22.1044 1 20.9999C1 20.0598 1 19.1889 1 18" stroke="#BCBCBC"
      stroke-width="1.5" stroke-linecap="round" stroke-linejoin="round" />
    <path d="M23 18L23 21C23 22.1046 22.1044 23 20.9999 23C20.0598 23 19.1889 23 18 23"
      stroke="#BCBCBC" stroke-width="1.5" stroke-linecap="round" stroke-linejoin="round" />
    <path d="M1 6L1 3C1 1.89543 1.89557 1 3.00014 1C3.94025 1 4.81111 1 6 1" stroke="#BCBCBC"
      stroke-width="1.5" stroke-linecap="round" stroke-linejoin="round" />
  </g>
  <defs>
    <clipPath id="clip0_2801_11031">
      <rect width="24" height="24" fill="white" />
    </clipPath>
  </defs>
</svg>