<svg xmlns="http://www.w3.org/2000/svg" width="16" height="15" viewBox="0 0 16 15" fill="none"><path d="M14.7537 14.2019H11.9187V9.7599C11.9187 8.7009 11.8967 7.3379 10.4417 7.3379C8.96269 7.3379 8.73769 8.4899 8.73769 9.6819V14.2019H5.90269V5.0679H8.62569V6.3129H8.66269C9.04269 5.5949 9.96869 4.8369 11.3507 4.8369C14.2227 4.8369 14.7537 6.7279 14.7537 9.1879V14.2019ZM2.70069 3.8179C1.78769 3.8179 1.05469 3.0789 1.05469 2.1699C1.05469 1.2629 1.78869 0.524902 2.70069 0.524902C3.60969 0.524902 4.34669 1.2629 4.34669 2.1699C4.34669 3.0789 3.60969 3.8179 2.70069 3.8179ZM4.12169 14.2019H1.27969V5.0679H4.12169V14.2019Z" fill="#F7F8F9"/></svg>