<svg xmlns="http://www.w3.org/2000/svg" width="16" height="16" viewBox="0 0 16 16" fill="none">
  <g clip-path="url(#clip0_884_9894)">
    <path
      d="M8.00033 0.666809C5.78445 0.666809 4.00033 2.45094 4.00033 4.66681V5.33348C3.26699 5.33348 2.66699 5.93348 2.66699 6.66681V13.3335C2.66699 14.0668 3.26699 14.6668 4.00033 14.6668H12.0003C12.7337 14.6668 13.3337 14.0668 13.3337 13.3335V6.66681C13.3337 5.93348 12.7337 5.33348 12.0003 5.33348V4.66681C12.0003 2.45094 10.2162 0.666809 8.00033 0.666809ZM8.00033 2.00014C9.51779 2.00014 10.667 3.14935 10.667 4.66681V5.33348H5.33366V4.66681C5.33366 3.14935 6.48286 2.00014 8.00033 2.00014ZM8.00033 8.66681C8.73366 8.66681 9.33366 9.26681 9.33366 10.0001C9.33366 10.7335 8.73366 11.3335 8.00033 11.3335C7.26699 11.3335 6.66699 10.7335 6.66699 10.0001C6.66699 9.26681 7.26699 8.66681 8.00033 8.66681Z"
      fill="black" />
  </g>
  <defs>
    <clipPath id="clip0_884_9894">
      <rect width="16" height="16" fill="white" />
    </clipPath>
  </defs>
</svg>