<svg width="24" height="24" viewBox="0 0 24 24" fill="none" xmlns="http://www.w3.org/2000/svg">
<path d="M12.0004 0.960205C10.9473 0.960205 10.083 1.82297 10.0804 2.87552L4.77043 5.9102C4.41857 5.52619 3.91818 5.2802 3.36043 5.2802C2.30573 5.2802 1.44043 6.1455 1.44043 7.2002C1.44043 8.08835 2.05685 8.83489 2.88043 9.05083V14.9496C2.05685 15.1655 1.44043 15.9121 1.44043 16.8002C1.44043 17.8549 2.30573 18.7202 3.36043 18.7202C3.91818 18.7202 4.41857 18.4742 4.77043 18.0902L10.0804 21.1249C10.083 22.1774 10.9473 23.0402 12.0004 23.0402C13.0535 23.0402 13.9178 22.1774 13.9204 21.1249L19.2304 18.0902C19.5823 18.4742 20.0827 18.7202 20.6404 18.7202C21.6951 18.7202 22.5604 17.8549 22.5604 16.8002C22.5604 15.9121 21.944 15.1655 21.1204 14.9496V9.05083C21.944 8.83489 22.5604 8.08835 22.5604 7.2002C22.5604 6.1455 21.6951 5.2802 20.6404 5.2802C20.0827 5.2802 19.5823 5.52619 19.2304 5.9102L13.9204 2.87552C13.9178 1.82297 13.0535 0.960205 12.0004 0.960205ZM12.0004 1.92021C12.5363 1.92021 12.9604 2.34433 12.9604 2.88021C12.9604 3.41608 12.5363 3.8402 12.0004 3.8402C11.4646 3.8402 11.0404 3.41608 11.0404 2.88021C11.0404 2.34433 11.4646 1.92021 12.0004 1.92021ZM10.3439 3.83083C10.6768 4.40603 11.2926 4.8002 12.0004 4.8002C12.7083 4.8002 13.3241 4.40603 13.657 3.83083L18.7776 6.7577C18.7434 6.90048 18.7204 7.04743 18.7204 7.2002C18.7204 8.08835 19.3369 8.83489 20.1604 9.05083V14.9496C19.3369 15.1655 18.7204 15.9121 18.7204 16.8002C18.7204 16.953 18.7434 17.0999 18.7776 17.2427L13.657 20.1696C13.3241 19.5944 12.7083 19.2002 12.0004 19.2002C11.2926 19.2002 10.6768 19.5944 10.3439 20.1696L5.22324 17.2427C5.2575 17.0999 5.28043 16.953 5.28043 16.8002C5.28043 15.9121 4.66401 15.1655 3.84043 14.9496V9.05083C4.66401 8.83489 5.28043 8.08835 5.28043 7.2002C5.28043 7.04743 5.2575 6.90048 5.22324 6.7577L10.3439 3.83083ZM3.36043 6.2402C3.89631 6.2402 4.32043 6.66433 4.32043 7.2002C4.32043 7.72126 3.91836 8.13293 3.40355 8.15552C3.38672 8.154 3.36983 8.15338 3.35293 8.15364C3.34072 8.1538 3.32853 8.15443 3.31637 8.15552C2.80201 8.13247 2.40043 7.72094 2.40043 7.2002C2.40043 6.66433 2.82455 6.2402 3.36043 6.2402ZM20.6404 6.2402C21.1763 6.2402 21.6004 6.66433 21.6004 7.2002C21.6004 7.72126 21.1984 8.13293 20.6836 8.15552C20.6667 8.154 20.6498 8.15338 20.6329 8.15364C20.6207 8.1538 20.6085 8.15443 20.5964 8.15552C20.082 8.13247 19.6804 7.72094 19.6804 7.2002C19.6804 6.66433 20.1046 6.2402 20.6404 6.2402ZM3.3173 15.8449C3.34631 15.8475 3.37549 15.8475 3.40449 15.8449C3.91885 15.8679 4.32043 16.2795 4.32043 16.8002C4.32043 17.3361 3.89631 17.7602 3.36043 17.7602C2.82455 17.7602 2.40043 17.3361 2.40043 16.8002C2.40043 16.2792 2.8025 15.8675 3.3173 15.8449ZM20.5973 15.8449C20.6263 15.8475 20.6555 15.8475 20.6845 15.8449C21.1988 15.8679 21.6004 16.2795 21.6004 16.8002C21.6004 17.3361 21.1763 17.7602 20.6404 17.7602C20.1046 17.7602 19.6804 17.3361 19.6804 16.8002C19.6804 16.2792 20.0825 15.8675 20.5973 15.8449ZM12.0004 20.1602C12.5363 20.1602 12.9604 20.5843 12.9604 21.1202C12.9604 21.6561 12.5363 22.0802 12.0004 22.0802C11.4646 22.0802 11.0404 21.6561 11.0404 21.1202C11.0404 20.5843 11.4646 20.1602 12.0004 20.1602Z" fill="url(#paint0_linear_3392_1445)"/>
<path d="M8.66634 8.25C8.20801 8.25 7.83301 8.625 7.83301 9.08333V14.0833L9.08301 12.8333H10.333V14.0833C10.333 14.5417 10.708 14.9167 11.1663 14.9167H14.9163L16.1663 16.1667V11.1667C16.1663 10.7083 15.7913 10.3333 15.333 10.3333H13.6663V9.08333C13.6663 8.625 13.2913 8.25 12.833 8.25H8.66634ZM8.66634 9.08333H12.833V12H8.66634V9.08333ZM13.6663 11.1667H15.333V14.0833H11.1663V12.8333H12.833C13.2913 12.8333 13.6663 12.4583 13.6663 12V11.1667Z" fill="url(#paint1_linear_3392_1445)"/>
<defs>
<linearGradient id="paint0_linear_3392_1445" x1="3.37431" y1="12.0002" x2="21.3163" y2="12.0151" gradientUnits="userSpaceOnUse">
<stop stop-color="#F4C587"/>
<stop offset="0.5" stop-color="#D6D3E9"/>
<stop offset="1" stop-color="#99D2EC"/>
</linearGradient>
<linearGradient id="paint1_linear_3392_1445" x1="8.59606" y1="12.2083" x2="15.6754" y2="12.2148" gradientUnits="userSpaceOnUse">
<stop stop-color="#F4C587"/>
<stop offset="0.5" stop-color="#D6D3E9"/>
<stop offset="1" stop-color="#99D2EC"/>
</linearGradient>
</defs>
</svg>
