<svg xmlns="http://www.w3.org/2000/svg" width="40" height="40" viewBox="10 10 40 40" fill="none"><path d="M30 43.0005C37.1797 43.0005 43 37.1802 43 30.0005C43 22.8208 37.1797 17.0005 30 17.0005C22.8203 17.0005 17 22.8208 17 30.0005C17 37.1802 22.8203 43.0005 30 43.0005Z" stroke="url(#paint1_linear_1119_4569)" stroke-width="1.5" stroke-linecap="round" stroke-linejoin="round"/><path d="M34 24.0005H28.8889C27.2933 24.0005 26 25.3436 26 27.0005C26 28.6574 27.2933 30.0005 28.8889 30.0005H31.1111C32.7067 30.0005 34 31.3436 34 33.0005C34 34.6574 32.7067 36.0005 31.1111 36.0005H26" stroke="url(#paint2_linear_1119_4569)" stroke-width="1.5" stroke-linecap="round" stroke-linejoin="round"/><path d="M30 22.0005V23.0005" stroke="url(#paint3_linear_1119_4569)" stroke-width="1.5" stroke-linecap="round" stroke-linejoin="round"/><path d="M30 37.0005V38.0005" stroke="url(#paint4_linear_1119_4569)" stroke-width="1.5" stroke-linecap="round" stroke-linejoin="round"/><defs><linearGradient id="paint1_linear_1119_4569" x1="30" y1="17.0005" x2="30" y2="43.0005" gradientUnits="userSpaceOnUse"><stop stop-color="#FDC067"/><stop offset="0.453125" stop-color="#E1CFC9"/><stop offset="1" stop-color="#7CD1ED"/></linearGradient><linearGradient id="paint2_linear_1119_4569" x1="30" y1="24.0005" x2="30" y2="36.0005" gradientUnits="userSpaceOnUse"><stop stop-color="#FDC067"/><stop offset="0.453125" stop-color="#E1CFC9"/><stop offset="1" stop-color="#7CD1ED"/></linearGradient><linearGradient id="paint3_linear_1119_4569" x1="30.5" y1="22.0005" x2="30.5" y2="23.0005" gradientUnits="userSpaceOnUse"><stop stop-color="#FDC067"/><stop offset="0.453125" stop-color="#E1CFC9"/><stop offset="1" stop-color="#7CD1ED"/></linearGradient><linearGradient id="paint4_linear_1119_4569" x1="30.5" y1="37.0005" x2="30.5" y2="38.0005" gradientUnits="userSpaceOnUse"><stop stop-color="#FDC067"/><stop offset="0.453125" stop-color="#E1CFC9"/><stop offset="1" stop-color="#7CD1ED"/></linearGradient></defs></svg>