<?xml version="1.0" standalone="no"?>
<!DOCTYPE svg PUBLIC "-//W3C//DTD SVG 20010904//EN"
 "http://www.w3.org/TR/2001/REC-SVG-20010904/DTD/svg10.dtd">
<svg version="1.0" xmlns="http://www.w3.org/2000/svg"
 width="512.000000pt" height="512.000000pt" viewBox="0 0 512.000000 512.000000"
 preserveAspectRatio="xMidYMid meet">

<g transform="translate(0.000000,512.000000) scale(0.100000,-0.100000)"
fill="#000000" stroke="none">
<path d="M3295 3955 c21 -38 54 -93 72 -122 18 -29 33 -54 33 -57 0 -2 22 -43
50 -90 27 -47 47 -86 44 -86 -3 0 4 -13 15 -29 l21 -29 0 -1507 0 -1506 78 42
c255 141 1102 635 1126 657 16 15 37 45 47 67 18 38 19 94 19 1263 l0 1223
-26 51 c-14 28 -29 47 -34 42 -4 -5 -111 -198 -238 -429 -126 -231 -256 -466
-288 -522 -55 -96 -60 -101 -75 -85 -9 9 -206 276 -439 592 -233 316 -428 580
-433 585 -6 6 7 -21 28 -60z"/>
<path d="M398 3898 c-19 -18 -45 -52 -57 -75 -21 -42 -21 -48 -21 -693 l0
-652 290 -141 c160 -78 290 -144 290 -147 0 -3 -121 -214 -270 -470 l-270
-465 33 -30 c17 -17 492 -295 1053 -618 816 -469 1033 -590 1077 -599 31 -7
59 -9 62 -6 6 5 -410 766 -1242 2278 -102 184 -340 619 -530 965 -190 347
-353 643 -363 658 l-17 29 -35 -34z"/>
</g>
</svg>
