<svg xmlns="http://www.w3.org/2000/svg" xmlns:xlink="http://www.w3.org/1999/xlink" width="500" zoomAndPan="magnify" viewBox="0 0 375 374.999991" height="500" preserveAspectRatio="xMidYMid meet" version="1.0"><defs><clipPath id="79dbaf8012"><path d="M 0 0 L 375 0 L 375 374.898438 L 0 374.898438 Z M 0 0 " clip-rule="nonzero"/></clipPath></defs><g clip-path="url(#79dbaf8012)"><path fill="#ffba6a" d="M 234.042969 270.195312 L 234.007812 270.195312 C 162.5625 270.195312 104.703125 212.4375 104.703125 140.957031 C 104.703125 69.679688 162.730469 11.683594 234.042969 11.683594 C 305.453125 11.683594 363.28125 69.480469 363.28125 140.957031 C 363.28125 212.203125 305.285156 270.195312 234.042969 270.195312 Z M 135.066406 264.4375 L 110.496094 239.867188 L 122.78125 227.582031 C 130.203125 237.039062 137.863281 244.730469 147.351562 252.121094 Z M 119.851562 301.09375 L 73.839844 255.082031 L 91.484375 237.4375 C 92.183594 238.136719 139.558594 285.511719 137.496094 283.445312 Z M 67.28125 353.660156 C 54.566406 366.378906 33.992188 366.378906 21.242188 353.660156 C 8.523438 340.941406 8.523438 320.367188 21.242188 307.652344 L 69.679688 259.210938 L 115.6875 305.21875 Z M 234.042969 -0.0351562 C 156.273438 -0.0351562 92.984375 63.222656 92.984375 140.925781 C 92.984375 168.722656 100.972656 195.222656 115.855469 217.929688 L 102.207031 231.578125 L 95.613281 224.988281 C 93.351562 222.691406 89.621094 222.691406 87.324219 224.988281 L 12.984375 299.359375 C -4.328125 316.640625 -4.328125 344.636719 12.984375 361.949219 C 30.261719 379.226562 58.261719 379.226562 75.539062 361.949219 L 149.914062 287.574219 C 151.011719 286.476562 151.644531 285.011719 151.644531 283.445312 C 151.644531 281.882812 151.011719 280.382812 149.914062 279.285156 L 143.355469 272.726562 L 157.003906 259.078125 C 179.710938 273.925781 206.242188 281.914062 234.042969 281.914062 C 311.777344 281.914062 375 218.660156 375 140.957031 C 375 63.054688 311.945312 -0.0351562 234.042969 -0.0351562 " fill-opacity="1" fill-rule="nonzero"/></g><path fill="#ffba6a" d="M 304.386719 219.359375 C 298.660156 200.851562 285.945312 185.4375 268.730469 176.28125 C 271.59375 166.824219 277.988281 158.867188 286.710938 154.109375 C 297.464844 160.964844 312.210938 161.03125 323.097656 154.074219 C 328.425781 156.972656 332.953125 161.199219 336.347656 166.328125 C 331.1875 187.132812 319.867188 205.445312 304.386719 219.359375 Z M 168.421875 223.554688 C 173.351562 205.277344 185.601562 189.929688 202.449219 181.074219 C 221.089844 193.59375 246.660156 193.625 265.46875 181.074219 C 282.347656 189.863281 294.601562 205.210938 299.527344 223.523438 C 281.515625 237.835938 258.710938 246.492188 233.941406 246.492188 C 209.871094 246.492188 187.035156 238.371094 168.421875 223.554688 Z M 131.601562 166.359375 C 135 161.265625 139.460938 157.039062 144.820312 154.074219 C 155.707031 161.03125 170.421875 160.964844 181.242188 154.074219 C 189.832031 158.769531 196.355469 166.859375 199.253906 176.246094 C 182.039062 185.46875 169.324219 200.882812 163.597656 219.359375 C 146.816406 204.277344 136.53125 186.203125 131.601562 166.359375 Z M 233.976562 35.390625 C 292.167969 35.390625 339.578125 82.761719 339.578125 140.957031 C 339.578125 147.015625 338.945312 152.941406 337.945312 158.734375 C 334.117188 154.273438 329.457031 150.613281 324.164062 148.050781 C 323.199219 147.582031 322.066406 147.683594 321.199219 148.316406 C 311.613281 155.140625 297.996094 155.074219 288.640625 148.316406 C 287.742188 147.683594 286.609375 147.582031 285.644531 148.082031 C 274.324219 153.640625 266.070312 163.695312 262.773438 175.746094 C 245.660156 187.5 222.191406 187.5 205.210938 175.816406 C 201.914062 163.628906 193.660156 153.574219 182.339844 148.082031 C 181.375 147.582031 180.210938 147.683594 179.34375 148.316406 C 169.855469 155.074219 156.273438 155.140625 146.71875 148.316406 C 145.851562 147.683594 144.6875 147.582031 143.722656 148.082031 C 138.425781 150.679688 133.800781 154.339844 130.003906 158.769531 C 129.007812 152.910156 128.40625 146.984375 128.40625 140.957031 C 128.40625 82.730469 175.746094 35.390625 233.976562 35.390625 Z M 345.4375 140.957031 C 345.4375 79.535156 295.398438 29.53125 233.976562 29.53125 C 172.519531 29.53125 122.546875 79.5 122.546875 140.957031 C 122.546875 201.117188 171.351562 252.351562 233.941406 252.351562 C 296.363281 252.351562 345.4375 201.214844 345.4375 140.957031 " fill-opacity="1" fill-rule="nonzero"/><path fill="#ffba6a" d="M 162.996094 112.625 C 170.988281 112.625 177.480469 119.085938 177.480469 127.042969 C 177.480469 135 170.988281 141.457031 162.996094 141.457031 C 155.105469 141.457031 148.648438 135 148.648438 127.042969 C 148.648438 119.085938 155.105469 112.625 162.996094 112.625 Z M 162.996094 147.316406 C 174.214844 147.316406 183.339844 138.226562 183.339844 127.042969 C 183.339844 115.855469 174.214844 106.765625 162.996094 106.765625 C 151.878906 106.765625 142.789062 115.855469 142.789062 127.042969 C 142.789062 138.226562 151.878906 147.316406 162.996094 147.316406 " fill-opacity="1" fill-rule="nonzero"/><path fill="#ffba6a" d="M 233.976562 109.398438 C 248.988281 109.398438 261.207031 121.617188 261.207031 136.664062 C 261.207031 151.609375 248.988281 163.761719 233.976562 163.761719 C 218.960938 163.761719 206.777344 151.609375 206.777344 136.664062 C 206.777344 121.617188 218.992188 109.398438 233.976562 109.398438 Z M 233.976562 169.621094 C 252.21875 169.621094 267.066406 154.839844 267.066406 136.664062 C 267.066406 118.386719 252.21875 103.539062 233.976562 103.539062 C 215.730469 103.539062 200.917969 118.386719 200.917969 136.664062 C 200.917969 154.839844 215.730469 169.621094 233.976562 169.621094 " fill-opacity="1" fill-rule="nonzero"/><path fill="#ffba6a" d="M 304.921875 112.625 C 312.878906 112.625 319.335938 119.085938 319.335938 127.042969 C 319.335938 135 312.878906 141.457031 304.921875 141.457031 C 296.964844 141.457031 290.503906 135 290.503906 127.042969 C 290.503906 119.085938 296.964844 112.625 304.921875 112.625 Z M 304.921875 147.316406 C 316.105469 147.316406 325.195312 138.226562 325.195312 127.042969 C 325.195312 115.855469 316.105469 106.765625 304.921875 106.765625 C 293.734375 106.765625 284.644531 115.855469 284.644531 127.042969 C 284.644531 138.226562 293.734375 147.316406 304.921875 147.316406 " fill-opacity="1" fill-rule="nonzero"/></svg>