<svg xmlns="http://www.w3.org/2000/svg" width="24" height="24" viewBox="0 0 24 24" fill="none">
  <path fill-rule="evenodd" clip-rule="evenodd"
    d="M3.76613 3.75319C4.00594 3.51338 4.33118 3.37866 4.67032 3.37866H19.4744C19.8136 3.37866 20.1388 3.51338 20.3786 3.75319C20.6184 3.993 20.7532 4.31824 20.7532 4.65738V8.09404V9.14205C20.2315 8.9462 19.6459 8.83538 19 8.83538C18.8951 8.83538 18.7918 8.83831 18.69 8.84405H4.8916V11.3094H14.8114C14.5423 11.8153 14.3772 12.333 14.2842 12.8094H4.8916V15.2748H13.6024C13.2927 15.7192 13.0946 16.2342 13.0265 16.7748H4.8916V19.2402H13V20.4981C13 20.5791 13.0029 20.6599 13.0087 20.7402H4.67032C4.33118 20.7402 4.00594 20.6055 3.76613 20.3657C3.52632 20.1259 3.3916 19.8006 3.3916 19.4615V16.0248V12.0594V8.09404V4.65738C3.3916 4.31824 3.52632 3.993 3.76613 3.75319ZM4.8916 4.87866V7.34404H19.2532V4.87866H4.8916ZM19 10.25C17.7665 10.25 16.958 10.88 16.4933 11.6403C16.0528 12.3611 15.9162 13.1939 15.9162 13.75V15.811C15.6339 15.8939 15.3819 16.0574 15.186 16.2773C14.8988 16.5996 14.75 17.0201 14.75 17.4429V21.0571C14.75 21.4799 14.8988 21.9004 15.186 22.2227C15.4757 22.5479 15.8885 22.75 16.34 22.75H21.66C22.1115 22.75 22.5243 22.5479 22.814 22.2227C23.1012 21.9004 23.25 21.4799 23.25 21.0571V17.4429C23.25 17.0201 23.1012 16.5996 22.814 16.2773C22.6181 16.0574 22.3661 15.8939 22.0838 15.811V13.75C22.0838 13.1939 21.9472 12.3611 21.5067 11.6403C21.042 10.88 20.2335 10.25 19 10.25ZM20.5838 13.75V15.75H17.4162V13.75C17.4162 13.3899 17.5134 12.8478 17.7732 12.4225C18.0089 12.037 18.3673 11.75 19 11.75C19.6327 11.75 19.9911 12.037 20.2268 12.4225C20.4866 12.8478 20.5838 13.3899 20.5838 13.75ZM16.306 17.2751C16.3191 17.2604 16.3297 17.2542 16.3347 17.2519C16.3377 17.2505 16.3394 17.2501 16.34 17.25H16.6662H21.3338H21.66C21.6603 17.2501 21.6611 17.2502 21.6624 17.2507C21.6632 17.2509 21.6641 17.2513 21.6653 17.2519C21.6703 17.2542 21.6809 17.2604 21.694 17.2751C21.7218 17.3063 21.75 17.3655 21.75 17.4429V21.0571C21.75 21.1345 21.7218 21.1936 21.694 21.2249C21.6809 21.2396 21.6703 21.2458 21.6653 21.2481C21.6623 21.2495 21.6606 21.2499 21.66 21.25H16.34C16.3394 21.2499 16.3377 21.2495 16.3347 21.2481C16.3297 21.2458 16.3191 21.2396 16.306 21.2249C16.2782 21.1937 16.25 21.1345 16.25 21.0571V17.4429C16.25 17.3655 16.2782 17.3063 16.306 17.2751Z"
    fill="#BCBCBC" />
</svg>