<svg xmlns="http://www.w3.org/2000/svg" width="30" height="30" viewBox="0 0 30 30" fill="none"><g clip-path="url(#clip0_2645_9461)"><path fill-rule="evenodd" clip-rule="evenodd" d="M23.2414 19.8011L6.11328 30L28.291 28.4909L29.9991 6.06592L23.2414 19.8011Z" fill="url(#paint0_linear_2645_9461)"/><path fill-rule="evenodd" clip-rule="evenodd" d="M28.3288 28.4756L26.4227 15.2825L21.2305 22.1577L28.3288 28.4756Z" fill="url(#paint1_linear_2645_9461)"/><path fill-rule="evenodd" clip-rule="evenodd" d="M28.3531 28.4755L14.3882 27.3762L6.1875 29.9713L28.3531 28.4755Z" fill="url(#paint2_linear_2645_9461)"/><path fill-rule="evenodd" clip-rule="evenodd" d="M6.20769 29.9741L9.69631 18.5134L2.01953 20.1595L6.20769 29.9741Z" fill="url(#paint3_linear_2645_9461)"/><path fill-rule="evenodd" clip-rule="evenodd" d="M21.2284 22.1955L18.0184 9.58691L8.83203 18.2219L21.2284 22.1955Z" fill="url(#paint4_linear_2645_9461)"/><path fill-rule="evenodd" clip-rule="evenodd" d="M29.2717 9.76464L20.588 2.65259L18.1699 10.4919L29.2717 9.76464Z" fill="url(#paint5_linear_2645_9461)"/><path fill-rule="evenodd" clip-rule="evenodd" d="M25.2102 0.116817L20.103 2.94706L16.8809 0.0788574L25.2102 0.116817Z" fill="url(#paint6_linear_2645_9461)"/><path fill-rule="evenodd" clip-rule="evenodd" d="M0 24.0039L2.1395 20.0911L0.408823 15.4297L0 24.0039Z" fill="url(#paint7_linear_2645_9461)"/><path fill-rule="evenodd" clip-rule="evenodd" d="M0.292969 15.2824L2.03425 20.2353L9.60049 18.5331L18.2388 10.4827L20.6766 2.71789L16.838 0L10.312 2.44913C8.25592 4.36684 4.26612 8.16125 4.12227 8.23261C3.97994 8.3055 1.48764 13.0292 0.292969 15.2824Z" fill="white"/><path fill-rule="evenodd" clip-rule="evenodd" d="M6.40725 6.38468C10.8634 1.95406 16.6081 -0.663609 18.8127 1.56688C21.016 3.79737 18.6795 9.21796 14.2233 13.647C9.76716 18.0761 4.09361 20.8381 1.89051 18.6076C-0.314098 16.3786 1.95108 10.8138 6.40725 6.38468Z" fill="url(#paint8_linear_2645_9461)"/><path fill-rule="evenodd" clip-rule="evenodd" d="M6.20898 29.9695L9.67035 18.4724L21.1658 22.1757C17.0095 26.084 12.3867 29.388 6.20898 29.9695Z" fill="url(#paint9_linear_2645_9461)"/><path fill-rule="evenodd" clip-rule="evenodd" d="M18.2539 10.46L21.205 22.1818C24.677 18.5211 27.7931 14.5854 29.3192 9.71753L18.2539 10.46Z" fill="url(#paint10_linear_2645_9461)"/><path fill-rule="evenodd" clip-rule="evenodd" d="M29.2908 9.77686C30.4719 6.20261 30.7444 1.07507 25.1752 0.123047L20.6055 2.65417L29.2908 9.77686Z" fill="url(#paint11_linear_2645_9461)"/><path fill-rule="evenodd" clip-rule="evenodd" d="M0 23.9522C0.163529 29.8512 4.40771 29.9391 6.21562 29.9909L2.03957 20.2109L0 23.9522Z" fill="#9E1209"/><path fill-rule="evenodd" clip-rule="evenodd" d="M18.2715 10.4782C20.9394 12.1226 26.3164 15.4251 26.4254 15.4858C26.5948 15.5815 28.7435 11.8524 29.2311 9.74487L18.2715 10.4782Z" fill="url(#paint12_radial_2645_9461)"/><path fill-rule="evenodd" clip-rule="evenodd" d="M9.66406 18.4724L14.2913 27.4247C17.0274 25.9367 19.1699 24.1238 21.1323 22.1818L9.66406 18.4724Z" fill="url(#paint13_radial_2645_9461)"/><path fill-rule="evenodd" clip-rule="evenodd" d="M2.02086 20.2231L1.36523 28.0519C2.6023 29.7464 4.30421 29.8937 6.08941 29.7616C4.79783 26.5381 2.2177 20.0926 2.02086 20.2231Z" fill="url(#paint14_linear_2645_9461)"/><path fill-rule="evenodd" clip-rule="evenodd" d="M20.5781 2.67388L29.7706 3.96754C29.28 1.88281 27.7734 0.537532 25.2054 0.116943L20.5781 2.67388Z" fill="url(#paint15_linear_2645_9461)"/></g><defs><linearGradient id="paint0_linear_2645_9461" x1="26.3566" y1="32.7284" x2="20.0011" y2="21.5386" gradientUnits="userSpaceOnUse"><stop stop-color="#FB7655"/><stop offset="0.41" stop-color="#E42B1E"/><stop offset="0.99" stop-color="#990000"/><stop offset="1" stop-color="#990000"/></linearGradient><linearGradient id="paint1_linear_2645_9461" x1="29.5108" y1="23.3158" x2="21.3404" y2="17.8482" gradientUnits="userSpaceOnUse"><stop stop-color="#871101"/><stop offset="0.99" stop-color="#911209"/><stop offset="1" stop-color="#911209"/></linearGradient><linearGradient id="paint2_linear_2645_9461" x1="22.9834" y1="33.0679" x2="14.8132" y2="27.6004" gradientUnits="userSpaceOnUse"><stop stop-color="#871101"/><stop offset="0.99" stop-color="#911209"/><stop offset="1" stop-color="#911209"/></linearGradient><linearGradient id="paint3_linear_2645_9461" x1="5.85887" y1="19.3426" x2="7.13017" y2="27.5818" gradientUnits="userSpaceOnUse"><stop stop-color="white"/><stop offset="0.23" stop-color="#E57252"/><stop offset="0.46" stop-color="#DE3B20"/><stop offset="0.99" stop-color="#A60003"/><stop offset="1" stop-color="#A60003"/></linearGradient><linearGradient id="paint4_linear_2645_9461" x1="14.556" y1="11.6482" x2="15.0244" y2="20.0578" gradientUnits="userSpaceOnUse"><stop stop-color="white"/><stop offset="0.23" stop-color="#E4714E"/><stop offset="0.56" stop-color="#BE1A0D"/><stop offset="0.99" stop-color="#A80D00"/><stop offset="1" stop-color="#A80D00"/></linearGradient><linearGradient id="paint5_linear_2645_9461" x1="22.2737" y1="3.87503" x2="23.6758" y2="9.90052" gradientUnits="userSpaceOnUse"><stop stop-color="white"/><stop offset="0.18" stop-color="#E46342"/><stop offset="0.4" stop-color="#C82410"/><stop offset="0.99" stop-color="#A80D00"/><stop offset="1" stop-color="#A80D00"/></linearGradient><linearGradient id="paint6_linear_2645_9461" x1="18.0144" y1="1.75233" x2="24.0311" y2="-1.2477" gradientUnits="userSpaceOnUse"><stop stop-color="white"/><stop offset="0.54" stop-color="#C81F11"/><stop offset="0.99" stop-color="#BF0905"/><stop offset="1" stop-color="#BF0905"/></linearGradient><linearGradient id="paint7_linear_2645_9461" x1="0.591021" y1="17.2418" x2="1.08841" y2="22.2079" gradientUnits="userSpaceOnUse"><stop stop-color="white"/><stop offset="0.31" stop-color="#DE4024"/><stop offset="0.99" stop-color="#BF190B"/><stop offset="1" stop-color="#BF190B"/></linearGradient><linearGradient id="paint8_linear_2645_9461" x1="-2.81029" y1="23.5506" x2="20.5092" y2="-0.361837" gradientUnits="userSpaceOnUse"><stop stop-color="#BD0012"/><stop offset="0.07" stop-color="white"/><stop offset="0.17" stop-color="white"/><stop offset="0.27" stop-color="#C82F1C"/><stop offset="0.33" stop-color="#820C01"/><stop offset="0.46" stop-color="#A31601"/><stop offset="0.72" stop-color="#B31301"/><stop offset="0.99" stop-color="#E82609"/><stop offset="1" stop-color="#E82609"/></linearGradient><linearGradient id="paint9_linear_2645_9461" x1="15.0024" y1="25.9691" x2="7.99614" y2="24.2447" gradientUnits="userSpaceOnUse"><stop stop-color="#8C0C01"/><stop offset="0.54" stop-color="#990C00"/><stop offset="0.99" stop-color="#A80D0E"/><stop offset="1" stop-color="#A80D0E"/></linearGradient><linearGradient id="paint10_linear_2645_9461" x1="27.0309" y1="17.5394" x2="20.7933" y2="11.9643" gradientUnits="userSpaceOnUse"><stop stop-color="#7E110B"/><stop offset="0.99" stop-color="#9E0C00"/><stop offset="1" stop-color="#9E0C00"/></linearGradient><linearGradient id="paint11_linear_2645_9461" x1="29.3186" y1="7.27868" x2="26.21" y2="3.96462" gradientUnits="userSpaceOnUse"><stop stop-color="#79130D"/><stop offset="0.99" stop-color="#9E120B"/><stop offset="1" stop-color="#9E120B"/></linearGradient><radialGradient id="paint12_radial_2645_9461" cx="0" cy="0" r="1" gradientUnits="userSpaceOnUse" gradientTransform="translate(21.7787 12.054) scale(7.62493 7.64616)"><stop stop-color="#A80D00"/><stop offset="0.99" stop-color="#7E0E08"/><stop offset="1" stop-color="#7E0E08"/></radialGradient><radialGradient id="paint13_radial_2645_9461" cx="0" cy="0" r="1" gradientUnits="userSpaceOnUse" gradientTransform="translate(11.2179 22.1303) scale(10.1363 10.1645)"><stop stop-color="#A30C00"/><stop offset="0.99" stop-color="#800E08"/><stop offset="1" stop-color="#800E08"/></radialGradient><linearGradient id="paint14_linear_2645_9461" x1="4.03771" y1="29.9629" x2="1.49896" y2="21.3736" gradientUnits="userSpaceOnUse"><stop stop-color="#8B2114"/><stop offset="0.43" stop-color="#9E100A"/><stop offset="0.99" stop-color="#B3100C"/><stop offset="1" stop-color="#B3100C"/></linearGradient><linearGradient id="paint15_linear_2645_9461" x1="23.4158" y1="1.48771" x2="29.0836" y2="3.9826" gradientUnits="userSpaceOnUse"><stop stop-color="#B31000"/><stop offset="0.44" stop-color="#910F08"/><stop offset="0.99" stop-color="#791C12"/><stop offset="1" stop-color="#791C12"/></linearGradient><clipPath id="clip0_2645_9461"><rect width="30" height="30" fill="white"/></clipPath></defs></svg>