<svg xmlns="http://www.w3.org/2000/svg" xmlns:xlink="http://www.w3.org/1999/xlink" width="500" zoomAndPan="magnify" viewBox="0 0 375 374.999991" height="500" preserveAspectRatio="xMidYMid meet" version="1.0"><defs><clipPath id="18c9c968b0"><path d="M 31 35.859375 L 333 35.859375 L 333 337.359375 L 31 337.359375 Z M 31 35.859375 " clip-rule="nonzero"/></clipPath></defs><g clip-path="url(#18c9c968b0)"><path fill="#ffba6a" d="M 295.796875 272.769531 C 287.195312 268.15625 277.410156 264.15625 266.769531 260.792969 L 265.765625 268.960938 C 274.8125 271.894531 283.160156 275.320312 290.613281 279.207031 C 270.609375 302.636719 243.175781 319.53125 211.988281 326.207031 C 217.421875 321.890625 222.585938 316.378906 227.394531 309.734375 C 226.242188 308.199219 225.402344 306.410156 224.980469 304.453125 L 224.0625 300.191406 C 213.015625 317.40625 199.902344 327.460938 186.144531 329.117188 L 186.144531 296.554688 C 184.898438 298.648438 183.140625 300.441406 180.953125 301.707031 L 178.949219 302.867188 C 178.648438 303.042969 178.335938 303.179688 178.023438 303.328125 L 178.023438 329.117188 C 161.417969 327.121094 145.746094 312.925781 133.523438 288.625 C 129.511719 280.652344 126.046875 271.878906 123.128906 262.515625 C 128.695312 261.386719 134.4375 260.433594 140.296875 259.628906 C 140.507812 258.558594 140.808594 257.507812 141.222656 256.488281 L 137.34375 251.859375 C 131.726562 252.667969 126.207031 253.609375 120.847656 254.710938 C 115.601562 235.21875 112.699219 213.429688 112.386719 190.738281 L 163.042969 190.738281 L 154.792969 183.3125 C 154.546875 183.097656 154.332031 182.851562 154.105469 182.617188 L 112.386719 182.617188 C 112.699219 160.054688 115.570312 138.386719 120.761719 118.976562 C 138.59375 122.65625 158.003906 124.730469 178.023438 124.976562 L 178.023438 154.699219 C 179.921875 154.96875 181.785156 155.453125 183.570312 156.207031 L 186.144531 157.289062 L 186.144531 124.976562 C 206.160156 124.730469 225.570312 122.652344 243.402344 118.96875 C 248.359375 137.496094 251.171875 158.09375 251.691406 179.550781 L 259.3125 175.136719 C 259.433594 175.066406 259.5625 175.007812 259.683594 174.933594 C 258.890625 154.5625 256.050781 134.996094 251.320312 117.203125 C 268.136719 113.164062 283.320312 107.644531 295.980469 100.828125 C 313.28125 123.722656 323.851562 151.976562 324.710938 182.617188 L 306.6875 182.617188 C 307.214844 185.289062 307.070312 188.070312 306.28125 190.738281 L 324.710938 190.738281 C 323.847656 221.488281 313.207031 249.832031 295.796875 272.769531 Z M 73.550781 279.207031 C 85.425781 273.019531 99.558594 267.988281 115.171875 264.273438 C 118.265625 274.320312 121.96875 283.722656 126.265625 292.273438 C 133.730469 307.105469 142.527344 318.542969 152.175781 326.207031 C 120.992188 319.53125 93.554688 302.632812 73.550781 279.207031 Z M 39.453125 190.738281 L 104.269531 190.738281 C 104.582031 213.992188 107.550781 236.371094 112.925781 256.476562 C 96.160156 260.496094 81.011719 265.988281 68.367188 272.769531 C 50.960938 249.832031 40.316406 221.488281 39.453125 190.738281 Z M 68.175781 100.839844 C 80.839844 107.652344 96.023438 113.175781 112.84375 117.210938 C 107.523438 137.230469 104.578125 159.488281 104.269531 182.617188 L 39.453125 182.617188 C 40.316406 151.980469 50.878906 123.734375 68.175781 100.839844 Z M 178.023438 44.242188 L 178.023438 116.855469 C 158.769531 116.617188 140.132812 114.648438 123.027344 111.167969 C 125.964844 101.679688 129.464844 92.800781 133.523438 84.734375 C 145.746094 60.433594 161.417969 46.238281 178.023438 44.242188 Z M 152.175781 47.152344 C 142.527344 54.816406 133.730469 66.253906 126.265625 81.085938 C 121.921875 89.726562 118.179688 99.238281 115.070312 109.410156 C 99.40625 105.675781 85.234375 100.617188 73.34375 94.398438 C 93.367188 70.84375 120.882812 53.855469 152.175781 47.152344 Z M 186.144531 44.242188 C 202.75 46.238281 218.421875 60.433594 230.640625 84.734375 C 234.699219 92.800781 238.199219 101.675781 241.136719 111.160156 C 224.03125 114.644531 205.394531 116.613281 186.144531 116.855469 Z M 290.8125 94.386719 C 278.921875 100.609375 264.753906 105.667969 249.09375 109.402344 C 245.984375 99.238281 242.242188 89.726562 237.898438 81.085938 C 230.4375 66.253906 221.640625 54.816406 211.988281 47.152344 C 243.277344 53.851562 270.789062 70.835938 290.8125 94.386719 Z M 182.082031 35.867188 C 98.925781 35.867188 31.273438 103.523438 31.273438 186.679688 C 31.273438 269.835938 98.925781 337.492188 182.082031 337.492188 C 265.242188 337.492188 332.894531 269.835938 332.894531 186.679688 C 332.894531 103.523438 265.242188 35.867188 182.082031 35.867188 " fill-opacity="1" fill-rule="nonzero"/></g><path fill="#ffba6a" d="M 179.039062 223.945312 C 179.695312 223.457031 180.339844 222.980469 180.988281 222.507812 C 180.988281 222.507812 183.128906 220.957031 183.644531 220.585938 L 186.144531 218.089844 L 186.144531 211.519531 L 178.023438 204.214844 L 178.023438 224.710938 L 179.039062 223.945312 " fill-opacity="1" fill-rule="nonzero"/><path fill="#ffba6a" d="M 140.160156 265.421875 C 117.710938 275.078125 96.488281 282.8125 77.648438 288.117188 C 37.550781 299.40625 19.472656 296.4375 15.921875 289.894531 C 12.542969 283.660156 19.179688 267.777344 47.949219 241.898438 L 42.515625 235.859375 C 13.46875 261.996094 2.117188 281.476562 8.785156 293.765625 C 12.550781 300.714844 21.542969 303.804688 34.253906 303.800781 C 59.695312 303.800781 100.039062 291.429688 143.230469 272.875 C 142.0625 271.265625 141.152344 269.4375 140.589844 267.445312 C 140.402344 266.777344 140.261719 266.101562 140.160156 265.421875 " fill-opacity="1" fill-rule="nonzero"/><path fill="#ffba6a" d="M 365.675781 100.183594 C 359.054688 87.972656 336.765625 86.796875 299.429688 96.699219 L 301.511719 104.546875 C 338.445312 94.757812 355.1875 97.871094 358.539062 104.054688 C 362.085938 110.601562 354.71875 127.375 323.386719 154.828125 C 316.621094 160.753906 309.128906 166.828125 301.058594 172.972656 C 301.191406 173.089844 301.324219 173.203125 301.449219 173.324219 C 301.757812 173.605469 302.007812 173.847656 302.242188 174.09375 C 302.386719 174.242188 302.523438 174.390625 302.65625 174.539062 C 302.964844 174.882812 303.28125 175.269531 303.578125 175.664062 L 303.835938 176.019531 C 304.152344 176.464844 304.453125 176.925781 304.726562 177.398438 C 305.128906 178.09375 305.46875 178.816406 305.765625 179.554688 C 347.785156 147.6875 374.882812 117.15625 365.675781 100.183594 " fill-opacity="1" fill-rule="nonzero"/><path fill="#ffba6a" d="M 222.390625 240.988281 L 235.566406 302.171875 C 235.972656 304.066406 238.109375 305.011719 239.785156 304.039062 L 246.40625 300.203125 C 249.53125 298.394531 251.625 295.226562 252.066406 291.644531 L 261.046875 218.660156 L 278.628906 208.472656 C 279.070312 208.214844 279.5 207.949219 279.933594 207.679688 C 280.027344 207.617188 280.121094 207.558594 280.214844 207.496094 C 280.632812 207.230469 281.042969 206.957031 281.445312 206.675781 C 281.519531 206.625 281.585938 206.574219 281.660156 206.523438 C 282.015625 206.269531 282.367188 206.007812 282.714844 205.746094 C 282.796875 205.679688 282.882812 205.621094 282.960938 205.558594 C 283.34375 205.265625 283.714844 204.964844 284.082031 204.65625 C 284.179688 204.574219 284.28125 204.488281 284.375 204.40625 C 284.707031 204.125 285.035156 203.839844 285.355469 203.546875 C 285.410156 203.5 285.460938 203.453125 285.511719 203.40625 C 285.863281 203.089844 286.199219 202.761719 286.535156 202.429688 C 286.640625 202.324219 286.746094 202.21875 286.851562 202.113281 C 287.175781 201.789062 287.492188 201.457031 287.804688 201.117188 C 287.890625 201.027344 287.972656 200.929688 288.058594 200.839844 C 288.308594 200.5625 288.554688 200.28125 288.796875 199.996094 C 288.894531 199.878906 288.996094 199.765625 289.097656 199.648438 C 289.382812 199.304688 289.660156 198.957031 289.933594 198.605469 C 290.035156 198.476562 290.132812 198.34375 290.230469 198.214844 C 290.453125 197.925781 290.667969 197.632812 290.878906 197.335938 C 290.957031 197.230469 291.035156 197.125 291.109375 197.015625 C 291.375 196.636719 291.632812 196.246094 291.886719 195.855469 C 291.996094 195.6875 292.101562 195.519531 292.210938 195.347656 C 292.375 195.082031 292.539062 194.816406 292.699219 194.542969 C 292.800781 194.375 292.902344 194.203125 293.003906 194.03125 C 293.199219 193.6875 293.390625 193.339844 293.578125 192.988281 C 293.628906 192.898438 293.679688 192.808594 293.726562 192.714844 C 293.957031 192.28125 294.175781 191.835938 294.386719 191.390625 C 294.457031 191.246094 294.523438 191.097656 294.589844 190.953125 C 294.746094 190.617188 294.898438 190.277344 295.042969 189.9375 C 295.105469 189.792969 295.167969 189.652344 295.226562 189.507812 C 295.421875 189.035156 295.609375 188.558594 295.789062 188.078125 C 296.464844 186.246094 296.222656 184.328125 295.332031 182.785156 C 295.234375 182.617188 295.125 182.453125 295.011719 182.292969 C 294.984375 182.253906 294.953125 182.214844 294.925781 182.175781 C 294.8125 182.023438 294.695312 181.875 294.570312 181.738281 C 294.535156 181.703125 294.503906 181.667969 294.46875 181.632812 C 294.371094 181.527344 294.265625 181.425781 294.160156 181.328125 C 294.109375 181.28125 294.058594 181.234375 294.003906 181.1875 C 293.878906 181.078125 293.742188 180.96875 293.605469 180.871094 C 293.539062 180.820312 293.46875 180.777344 293.402344 180.730469 C 293.308594 180.667969 293.210938 180.605469 293.113281 180.550781 C 293.039062 180.507812 292.96875 180.460938 292.898438 180.421875 C 292.898438 180.421875 292.894531 180.421875 292.894531 180.421875 C 292.738281 180.335938 292.578125 180.261719 292.414062 180.191406 C 292.335938 180.15625 292.253906 180.125 292.175781 180.09375 C 292.050781 180.046875 291.925781 180.003906 291.800781 179.964844 C 291.730469 179.941406 291.660156 179.917969 291.585938 179.898438 C 291.382812 179.84375 291.179688 179.792969 290.96875 179.757812 C 281.9375 178.234375 272.664062 179.914062 264.738281 184.503906 L 262.734375 185.667969 L 253.300781 191.132812 L 247.15625 194.691406 L 179.371094 166.1875 C 176.046875 164.789062 172.253906 165.027344 169.132812 166.835938 L 162.511719 170.675781 C 160.835938 171.644531 160.59375 173.96875 162.035156 175.265625 L 208.5625 217.121094 C 206.476562 218.382812 204.414062 219.675781 202.363281 220.992188 C 202.359375 220.992188 202.355469 220.992188 202.355469 220.996094 C 201.058594 221.824219 199.773438 222.660156 198.492188 223.511719 C 198.457031 223.535156 198.421875 223.558594 198.382812 223.582031 C 197.132812 224.410156 195.882812 225.253906 194.644531 226.101562 C 194.589844 226.140625 194.53125 226.175781 194.476562 226.21875 C 193.199219 227.09375 191.933594 227.976562 190.667969 228.875 C 189.925781 229.402344 189.1875 229.9375 188.449219 230.472656 C 188.09375 230.730469 187.738281 230.988281 187.378906 231.25 C 186.753906 231.707031 186.128906 232.164062 185.507812 232.628906 C 184.957031 233.035156 184.410156 233.449219 183.863281 233.863281 C 183.390625 234.214844 182.921875 234.570312 182.453125 234.925781 C 181.402344 235.730469 180.355469 236.539062 179.316406 237.355469 L 167.695312 246.496094 L 144.507812 232.289062 C 143.34375 231.578125 141.886719 231.558594 140.707031 232.242188 L 138.703125 233.402344 C 137.847656 233.898438 137.582031 234.984375 138.058594 235.804688 C 138.109375 235.890625 138.167969 235.976562 138.234375 236.054688 L 155.203125 256.320312 L 153.441406 257.703125 C 151.394531 259.3125 150.304688 261.996094 151.011719 264.503906 C 152.082031 268.304688 156.085938 270.117188 159.511719 268.734375 L 161.847656 267.789062 L 170.992188 292.585938 C 171.023438 292.683594 171.070312 292.777344 171.121094 292.863281 C 171.597656 293.683594 172.667969 293.996094 173.523438 293.5 L 175.527344 292.335938 C 176.707031 291.65625 177.417969 290.382812 177.378906 289.019531 L 176.582031 261.835938 L 190.292969 256.296875 C 201.296875 251.851562 212.015625 246.738281 222.390625 240.988281 " fill-opacity="1" fill-rule="nonzero"/></svg>