<svg xmlns="http://www.w3.org/2000/svg" width="25" height="24" viewBox="0 0 25 24" fill="none"><path d="M19.75 5.75C19.75 5.19772 19.3023 4.75 18.75 4.75H14.5C13.3954 4.75 12.5 5.64543 12.5 6.75V19.25L13.3284 18.4216C14.0786 17.6714 15.096 17.25 16.1569 17.25H18.75C19.3023 17.25 19.75 16.8023 19.75 16.25V5.75Z" stroke="#F7C37B" stroke-width="1.5" stroke-linecap="round" stroke-linejoin="round"/><path d="M5.25 5.75C5.25 5.19772 5.69772 4.75 6.25 4.75H10.5C11.6046 4.75 12.5 5.64543 12.5 6.75V19.25L11.6716 18.4216C10.9214 17.6714 9.90401 17.25 8.84315 17.25H6.25C5.69772 17.25 5.25 16.8023 5.25 16.25V5.75Z" stroke="#F7C37B" stroke-width="1.5" stroke-linecap="round" stroke-linejoin="round"/></svg>