<svg xmlns="http://www.w3.org/2000/svg" width="16" height="15" viewBox="0 0 16 15" fill="none"><g clip-path="url(#clip0_954_5910)"><path d="M15.471 2.6841C14.909 2.9401 14.314 3.1101 13.705 3.1861C14.346 2.7871 14.827 2.1601 15.057 1.4211C14.463 1.7811 13.804 2.0431 13.102 2.1891C12.64 1.6761 12.027 1.3361 11.358 1.2211C10.69 1.1061 10.004 1.2241 9.407 1.5551C8.809 1.8861 8.334 2.4121 8.055 3.0521C7.776 3.6921 7.708 4.4101 7.863 5.0941C5.306 4.9691 3.042 3.6951 1.525 1.7711C1.249 2.2571 1.105 2.8121 1.109 3.3761C1.109 4.4841 1.653 5.4581 2.476 6.0301C1.988 6.0141 1.511 5.8771 1.084 5.6311V5.6701C1.083 6.4071 1.329 7.1211 1.778 7.6911C2.228 8.2611 2.854 8.6531 3.55 8.7991C3.099 8.9241 2.627 8.9431 2.167 8.8541C2.365 9.4881 2.749 10.0421 3.264 10.4391C3.78 10.8361 4.403 11.0561 5.045 11.0691C3.957 11.9541 2.614 12.4341 1.231 12.4331C0.988 12.4331 0.744 12.4181 0.5 12.3891C1.91 13.3261 3.549 13.8221 5.223 13.8211C10.881 13.8211 13.972 8.9631 13.972 4.7571C13.972 4.6211 13.972 4.4851 13.963 4.3491C14.566 3.8981 15.087 3.3391 15.5 2.6971L15.471 2.6841Z" fill="white"/></g><defs><clipPath id="clip0_954_5910"><rect width="15" height="14" fill="white" transform="translate(0.5 0.5)"/></clipPath></defs></svg>