<svg xmlns="http://www.w3.org/2000/svg" width="24" height="24" viewBox="0 0 24 24" fill="none"><g clip-path="url(#clip0_1787_8070)"><path d="M5.049 13.8C4.65525 13.6099 4.21575 13.5 3.75 13.5C2.09588 13.5 0.75 14.8459 0.75 16.5C0.75 18.1541 2.09588 19.5 3.75 19.5C4.788 19.5 5.70413 18.9697 6.243 18.1661L9.07687 19.5848C9.02812 19.7989 9 20.0212 9 20.25C9 21.9041 10.3459 23.25 12 23.25C13.6541 23.25 15 21.9041 15 20.25C15 19.6283 14.8099 19.0504 14.4844 18.5707L18.4665 14.4071C18.966 14.7776 19.5818 15 20.25 15C21.9041 15 23.25 13.6541 23.25 12C23.25 10.3459 21.9041 9 20.25 9C19.5578 9 18.9218 9.23775 18.4132 9.633L14.367 5.58675C14.7622 5.07825 15 4.44225 15 3.75C15 2.09588 13.6541 0.75 12 0.75C10.3459 0.75 9 2.09588 9 3.75C9 3.978 9.02775 4.19963 9.0765 4.41337L6.417 5.38237C5.91825 4.4145 4.91138 3.75 3.75 3.75C2.09588 3.75 0.75 5.09588 0.75 6.75C0.75 8.40412 2.09588 9.75 3.75 9.75C4.17675 9.75 4.58212 9.65925 4.95 9.49763L6.33038 11.8207L5.049 13.8ZM3.75 18.75C2.50912 18.75 1.5 17.7409 1.5 16.5C1.5 15.2591 2.50912 14.25 3.75 14.25C4.99088 14.25 6 15.2591 6 16.5C6 17.7409 4.99088 18.75 3.75 18.75ZM6.57712 17.4941C6.687 17.1825 6.75 16.8487 6.75 16.5C6.75 15.5801 6.333 14.7566 5.67938 14.2061L6.75787 12.5404L10.0095 18.012C9.73575 18.2558 9.50663 18.5475 9.33675 18.8756L6.57712 17.4941ZM12 6.75C12.6923 6.75 13.3282 6.51225 13.8368 6.117L17.8834 10.1636C17.6407 10.4756 17.4592 10.836 17.3546 11.2282L14.9989 10.9042C14.9985 10.8945 15 10.8848 15 10.875C15 9.22087 13.6541 7.875 12 7.875C10.962 7.875 10.0455 8.40525 9.507 9.20887L9.05963 8.98538L10.7014 6.45C11.0948 6.64013 11.5343 6.75 12 6.75ZM12.375 17.2759V13.8488C13.5938 13.6958 14.5852 12.81 14.8958 11.6468L17.2515 11.9708C17.2515 11.9805 17.25 11.9902 17.25 12C17.25 12.7163 17.5027 13.3736 17.9231 13.89L13.9856 18.0071C13.5442 17.616 12.9889 17.3531 12.375 17.2759ZM12 8.625C13.2409 8.625 14.25 9.63412 14.25 10.875C14.25 12.1159 13.2409 13.125 12 13.125C10.7591 13.125 9.75 12.1159 9.75 10.875C9.75 9.63412 10.7591 8.625 12 8.625ZM9.17288 9.88088C9.063 10.1925 9 10.5262 9 10.875C9 12.402 10.1475 13.6635 11.625 13.8491V17.2762C11.2695 17.3209 10.9339 17.4274 10.6283 17.5853L7.21275 11.8376L8.64937 9.61912L9.17288 9.88088ZM12 22.5C10.7591 22.5 9.75 21.4909 9.75 20.25C9.75 19.0091 10.7591 18 12 18C13.2409 18 14.25 19.0091 14.25 20.25C14.25 21.4909 13.2409 22.5 12 22.5ZM20.25 9.75C21.4909 9.75 22.5 10.7591 22.5 12C22.5 13.2409 21.4909 14.25 20.25 14.25C19.0091 14.25 18 13.2409 18 12C18 10.7591 19.0091 9.75 20.25 9.75ZM12 1.5C13.2409 1.5 14.25 2.50912 14.25 3.75C14.25 4.99088 13.2409 6 12 6C10.7591 6 9.75 4.99088 9.75 3.75C9.75 2.50912 10.7591 1.5 12 1.5ZM9.333 5.11763C9.51638 5.4735 9.76725 5.78813 10.0706 6.04388L8.38462 8.64788L6.57712 7.74412C6.687 7.4325 6.75 7.09875 6.75 6.75C6.75 6.522 6.72225 6.30038 6.6735 6.08663L9.333 5.11763ZM1.5 6.75C1.5 5.50912 2.50912 4.5 3.75 4.5C4.99088 4.5 6 5.50912 6 6.75C6 7.99088 4.99088 9 3.75 9C2.50912 9 1.5 7.99088 1.5 6.75ZM5.59312 9.11213C5.84438 8.91562 6.06488 8.68163 6.243 8.41613L7.97437 9.28162L6.78525 11.118L5.59312 9.11213Z" fill="url(#paint0_linear_1787_8070)"/></g><defs><linearGradient id="paint0_linear_1787_8070" x1="2.81024" y1="12" x2="21.9246" y2="12.0166" gradientUnits="userSpaceOnUse"><stop stop-color="#F4C587"/><stop offset="0.5" stop-color="#D6D3E9"/><stop offset="1" stop-color="#99D2EC"/></linearGradient><clipPath id="clip0_1787_8070"><rect width="24" height="24" fill="white"/></clipPath></defs></svg>