<?xml version="1.0" encoding="UTF-8"?>
<!DOCTYPE svg PUBLIC "-//W3C//DTD SVG 1.1//EN" "http://www.w3.org/Graphics/SVG/1.1/DTD/svg11.dtd">
<svg xmlns="http://www.w3.org/2000/svg" version="1.1" width="294px" height="171px" style="shape-rendering:geometricPrecision; text-rendering:geometricPrecision; image-rendering:optimizeQuality; fill-rule:evenodd; clip-rule:evenodd" xmlns:xlink="http://www.w3.org/1999/xlink">
<g><path style="opacity:1" fill="#fefefe" d="M -0.5,-0.5 C 97.5,-0.5 195.5,-0.5 293.5,-0.5C 293.5,56.5 293.5,113.5 293.5,170.5C 195.5,170.5 97.5,170.5 -0.5,170.5C -0.5,113.5 -0.5,56.5 -0.5,-0.5 Z"/></g>
<g><path style="opacity:1" fill="#0e0e0e" d="M 234.5,66.5 C 240.981,78.1292 246.981,90.1292 252.5,102.5C 250.604,103.466 248.604,103.799 246.5,103.5C 245.777,99.331 244.444,95.331 242.5,91.5C 236.833,90.1667 231.167,90.1667 225.5,91.5C 224.293,95.2873 222.793,98.954 221,102.5C 219.817,103.731 218.651,103.731 217.5,102.5C 223.173,90.4703 228.84,78.4703 234.5,66.5 Z"/></g>
<g><path style="opacity:1" fill="#101010" d="M 29.5,66.5 C 31.1439,66.2865 32.6439,66.6198 34,67.5C 38.3333,77.5 42.6667,87.5 47,97.5C 51.6459,87.7367 55.8126,77.7367 59.5,67.5C 60.8333,66.1667 62.1667,66.1667 63.5,67.5C 58.4516,79.9292 52.6182,91.9292 46,103.5C 39.4009,91.6369 33.9009,79.3036 29.5,66.5 Z"/></g>
<g><path style="opacity:1" fill="#050505" d="M 257.5,66.5 C 258.833,66.5 260.167,66.5 261.5,66.5C 261.5,78.8333 261.5,91.1667 261.5,103.5C 260.167,103.5 258.833,103.5 257.5,103.5C 257.5,91.1667 257.5,78.8333 257.5,66.5 Z"/></g>
<g><path style="opacity:1" fill="#efefef" d="M 233.5,73.5 C 235.136,74.7489 236.303,76.4156 237,78.5C 238.759,82.0087 239.926,85.6754 240.5,89.5C 236.167,89.5 231.833,89.5 227.5,89.5C 228.908,83.941 230.908,78.6077 233.5,73.5 Z"/></g>
<g><path style="opacity:1" fill="#111111" d="M 76.5,75.5 C 89.6934,75.8665 94.8601,82.5331 92,95.5C 86.4998,103.664 79.3332,105.498 70.5,101C 68.6217,99.4571 67.1217,97.6238 66,95.5C 63.3708,85.3608 66.8708,78.6941 76.5,75.5 Z"/></g>
<g><path style="opacity:1" fill="#131313" d="M 94.5,76.5 C 94.56,75.9569 94.8933,75.6236 95.5,75.5C 97.1151,76.154 98.7818,76.654 100.5,77C 103.342,80.6724 106.342,84.1724 109.5,87.5C 112.844,83.4602 116.177,79.4602 119.5,75.5C 119.833,75.8333 120.167,76.1667 120.5,76.5C 117.822,81.1881 114.656,85.5215 111,89.5C 110.501,94.1548 110.334,98.8215 110.5,103.5C 108.833,103.5 107.167,103.5 105.5,103.5C 105.909,99.1524 106.076,94.819 106,90.5C 102.387,85.579 98.5536,80.9123 94.5,76.5 Z"/></g>
<g><path style="opacity:1" fill="#0d0d0d" d="M 133.5,76.5 C 134.496,76.4142 135.329,76.7476 136,77.5C 140.167,85.8333 144.333,94.1667 148.5,102.5C 146.926,103.631 145.259,103.798 143.5,103C 142.407,100.557 141.407,98.0567 140.5,95.5C 135.833,94.1667 131.167,94.1667 126.5,95.5C 125.208,97.6666 124.375,99.9999 124,102.5C 122.817,103.731 121.651,103.731 120.5,102.5C 124.847,93.8068 129.18,85.1401 133.5,76.5 Z"/></g>
<g><path style="opacity:1" fill="#151515" d="M 163.5,75.5 C 168.989,74.1714 172.989,75.8381 175.5,80.5C 175.333,80.8333 175.167,81.1667 175,81.5C 169.333,76.1667 163.667,76.1667 158,81.5C 155.802,87.3168 156.135,92.9835 159,98.5C 162.681,101.36 166.848,102.193 171.5,101C 172.444,98.2809 172.777,95.4475 172.5,92.5C 174.167,92.5 175.833,92.5 177.5,92.5C 177.664,95.1873 177.497,97.854 177,100.5C 167.965,105.496 159.965,104.162 153,96.5C 149.6,85.9657 153.1,78.9657 163.5,75.5 Z"/></g>
<g><path style="opacity:1" fill="#404040" d="M 198.5,76.5 C 193.833,76.5 189.167,76.5 184.5,76.5C 184.5,85.1667 184.5,93.8333 184.5,102.5C 188.833,102.5 193.167,102.5 197.5,102.5C 193.03,103.486 188.363,103.819 183.5,103.5C 183.5,94.1667 183.5,84.8333 183.5,75.5C 188.695,75.1795 193.695,75.5128 198.5,76.5 Z"/></g>
<g><path style="opacity:1" fill="#040404" d="M 198.5,76.5 C 198.5,77.1667 198.167,77.5 197.5,77.5C 194.167,77.5 190.833,77.5 187.5,77.5C 187.5,81.1667 187.5,84.8333 187.5,88.5C 189.099,88.7678 190.432,88.4345 191.5,87.5C 193.415,87.2155 195.081,87.5489 196.5,88.5C 194.735,89.4614 192.735,89.7947 190.5,89.5C 189.5,89.5 188.5,89.5 187.5,89.5C 187.241,93.2396 187.574,96.9062 188.5,100.5C 192.104,100.91 195.771,101.077 199.5,101C 198.956,101.717 198.289,102.217 197.5,102.5C 193.167,102.5 188.833,102.5 184.5,102.5C 184.5,93.8333 184.5,85.1667 184.5,76.5C 189.167,76.5 193.833,76.5 198.5,76.5 Z"/></g>
<g><path style="opacity:1" fill="#f9f9f9" d="M 75.5,77.5 C 85.9239,78.2958 90.0905,83.9624 88,94.5C 86.1544,100.995 81.9878,103.162 75.5,101C 69.4517,95.6445 67.9517,89.1445 71,81.5C 72.3968,79.9297 73.8968,78.5964 75.5,77.5 Z"/></g>
<g><path style="opacity:1" fill="#808080" d="M 197.5,77.5 C 194.713,78.4767 191.713,78.81 188.5,78.5C 188.5,81.5 188.5,84.5 188.5,87.5C 189.5,87.5 190.5,87.5 191.5,87.5C 190.432,88.4345 189.099,88.7678 187.5,88.5C 187.5,84.8333 187.5,81.1667 187.5,77.5C 190.833,77.5 194.167,77.5 197.5,77.5 Z"/></g>
<g><path style="opacity:1" fill="#ededed" d="M 132.5,81.5 C 135.466,84.0727 137.466,87.406 138.5,91.5C 135.167,92.8333 131.833,92.8333 128.5,91.5C 130.406,88.36 131.74,85.0266 132.5,81.5 Z"/></g>
<g><path style="opacity:1" fill="#808080" d="M 196.5,88.5 C 197.043,88.56 197.376,88.8933 197.5,89.5C 195.027,90.7969 192.693,90.7969 190.5,89.5C 192.735,89.7947 194.735,89.4614 196.5,88.5 Z"/></g>
</svg>
