<svg xmlns="http://www.w3.org/2000/svg" width="17" height="11" viewBox="0 0 17 11" fill="none"><g clip-path="url(#clip0_954_5922)"><path d="M16.1654 1.64515C16.0744 1.32715 15.8984 1.04015 15.6544 0.81315C15.4044 0.57915 15.0974 0.41215 14.7624 0.32715C13.5114 0.00314957 8.49541 0.00314957 8.49541 0.00314957C6.40441 -0.0198504 4.31441 0.0831496 2.23641 0.31115C1.90141 0.40215 1.59541 0.57315 1.34441 0.80915C1.09741 1.04215 0.91941 1.32915 0.82541 1.64415C0.60141 2.83015 0.49241 4.03415 0.50041 5.24115C0.49241 6.44615 0.60141 7.65015 0.82541 8.83815C0.91741 9.15115 1.09541 9.43715 1.34241 9.66815C1.58941 9.90015 1.89741 10.0661 2.23641 10.1551C3.50441 10.4781 8.49541 10.4781 8.49541 10.4781C10.5894 10.5021 12.6824 10.3991 14.7624 10.1711C15.0974 10.0861 15.4044 9.91915 15.6544 9.68515C15.8984 9.45815 16.0744 9.17115 16.1644 8.85315C16.3944 7.66815 16.5064 6.46315 16.4984 5.25615C16.5164 4.04415 16.4044 2.83415 16.1654 1.64515ZM6.90141 7.48215V3.00015L11.0744 5.24115L6.90141 7.48215Z" fill="#F7F8F9"/></g><defs><clipPath id="clip0_954_5922"><rect width="16" height="11" fill="white" transform="translate(0.5)"/></clipPath></defs></svg>