<?xml version="1.0" standalone="no"?>
<!DOCTYPE svg PUBLIC "-//W3C//DTD SVG 20010904//EN"
 "http://www.w3.org/TR/2001/REC-SVG-20010904/DTD/svg10.dtd">
<svg version="1.0" xmlns="http://www.w3.org/2000/svg"
 width="1000.000000pt" height="1000.000000pt" viewBox="0 0 1000.000000 1000.000000"
 preserveAspectRatio="xMidYMid meet">

<g transform="translate(0.000000,1000.000000) scale(0.100000,-0.100000)"
fill="#000000" stroke="none">
<path d="M0 5000 l0 -5000 5000 0 5000 0 0 5000 0 5000 -5000 0 -5000 0 0
-5000z m3837 2545 c88 -30 145 -60 218 -117 92 -72 140 -142 250 -363 103
-210 193 -358 304 -503 242 -319 567 -588 930 -773 179 -91 493 -208 526 -195
25 9 50 145 50 271 -1 225 -59 361 -247 573 -245 276 -231 683 32 942 80 78
167 131 275 167 69 23 97 26 205 27 111 0 134 -3 205 -28 164 -56 302 -165
383 -302 78 -132 112 -291 92 -434 -21 -154 -73 -264 -186 -391 -100 -112
-156 -204 -195 -319 -31 -90 -33 -103 -33 -240 -1 -138 1 -149 32 -240 40
-116 97 -209 195 -317 132 -147 187 -286 187 -473 0 -127 -16 -196 -72 -310
-58 -120 -178 -240 -298 -298 -116 -57 -194 -75 -315 -75 -117 0 -198 19 -300
69 -153 74 -261 194 -341 374 -385 870 -1175 1473 -2112 1610 -164 24 -225 41
-312 86 -170 88 -297 248 -347 434 -28 104 -23 274 10 375 37 111 90 198 172
280 104 103 230 170 369 195 87 16 235 4 323 -25z m-104 -1696 c86 -13 182
-49 257 -97 139 -88 190 -153 315 -407 218 -443 467 -750 830 -1025 359 -271
793 -451 1255 -520 243 -37 344 -82 476 -214 133 -133 197 -289 197 -481 0
-117 -19 -199 -69 -298 -71 -141 -174 -246 -309 -312 -105 -52 -183 -69 -310
-69 -115 0 -209 21 -300 66 -126 64 -249 186 -305 303 -15 33 -53 112 -83 175
-259 542 -698 983 -1252 1256 -152 74 -440 184 -486 184 -24 0 -51 -113 -57
-240 -10 -227 56 -395 233 -591 130 -143 185 -284 185 -473 0 -122 -17 -193
-70 -301 -88 -180 -247 -309 -441 -362 -103 -28 -273 -23 -374 10 -111 37
-198 90 -280 172 -194 194 -255 476 -157 729 35 89 80 157 177 266 86 96 153
220 182 335 23 97 23 288 -1 375 -38 137 -94 232 -229 387 -123 140 -172 274
-171 463 1 95 6 129 27 195 81 247 281 424 532 470 89 17 139 18 228 4z"/>
</g>
</svg>
