<svg xmlns="http://www.w3.org/2000/svg" width="80" height="30" viewBox="0 0 80 30" fill="none"><g clip-path="url(#clip0_1523_1249)"><path d="M20.121 21.658C14.5515 21.0013 9.75863 17.4158 7.56726 12.2611C6.97966 10.8371 5.56944 9.83472 3.93571 9.83472C1.76277 9.83472 0 11.5975 0 13.7681C0 14.8534 0.437813 15.8397 1.15214 16.5494C2.87113 18.2684 2.87113 21.0635 1.15214 22.7825C0.444726 23.4899 0 24.4784 0 25.5637C0 27.7344 1.76277 29.4971 3.93341 29.4971C6.10404 29.4971 7.86681 27.7344 7.86681 25.5637C7.86681 24.4784 7.429 23.4922 6.71467 22.7825C5.44962 21.5174 5.11781 19.6694 5.71231 18.1025C10.3093 19.3376 14.1368 22.6166 16.0286 27.0707C16.6162 28.4948 18.0264 29.4971 19.6601 29.4971C21.8307 29.4971 23.5935 27.7344 23.5935 25.5637C23.5935 23.5452 22.0704 21.8861 20.1187 21.6603L20.121 21.658Z" fill="url(#paint0_linear_1523_1249)"/><path d="M22.4414 6.71467C23.1488 6.00726 23.5935 5.01872 23.5935 3.93341C23.5935 1.76277 21.8307 0 19.6601 0C17.4895 0 15.7267 1.76277 15.7267 3.93341C15.7267 5.01872 16.1645 6.00495 16.8789 6.71467C18.1439 7.97972 18.4757 9.82775 17.8812 11.3947C13.2842 10.1596 9.45677 6.88058 7.56495 2.42641C6.97736 1.00236 5.56944 0 3.93341 0C1.76277 0 0 1.76277 0 3.93341C0 5.95196 1.52313 7.61104 3.47485 7.83686C9.0443 8.48436 13.828 12.0721 16.0217 17.2268C16.6092 18.6508 18.0195 19.6532 19.6532 19.6532C21.8238 19.6532 23.5866 17.8904 23.5866 15.7198C23.5866 14.6345 23.1488 13.6483 22.4345 12.9385C20.7247 11.2288 20.7247 8.44058 22.4414 6.71467Z" fill="url(#paint1_linear_1523_1249)"/><path d="M31.582 25.8771V4.29517H35.7712L44.9261 17.8904V4.29517H49.4863V25.8701H45.2672L36.1192 12.2841V25.8794H31.582V25.8771Z" fill="white"/><path d="M55.5681 4.12938C56.0428 4.58793 56.2756 5.16861 56.2756 5.86911C56.2756 6.56961 56.0428 7.15029 55.5681 7.62497C55.0935 8.09965 54.499 8.33239 53.7823 8.33239C53.0657 8.33239 52.4643 8.09965 51.9804 7.62497C51.4988 7.15029 51.2568 6.56961 51.2568 5.86911C51.2568 5.16861 51.4988 4.58793 51.9804 4.12938C52.462 3.67083 53.0657 3.43579 53.7823 3.43579C54.499 3.43579 55.0935 3.66161 55.5681 4.12938ZM51.5887 10.0306H55.9368V25.8772H51.5887V10.0306Z" fill="white"/><path d="M58.3418 4.29517H62.69V25.8701H58.3418V4.29517Z" fill="white"/><path d="M64.861 13.685C65.5316 12.4637 66.4671 11.5144 67.6653 10.8508C68.8705 10.1802 70.2577 9.84839 71.8407 9.84839C73.4237 9.84839 74.8547 10.1641 76.076 10.7908C77.2972 11.4153 78.2535 12.2978 78.9402 13.4431C79.6269 14.5814 79.9794 15.9225 80.0025 17.4663C80.0025 18.024 79.9656 18.5148 79.8826 18.9434H68.3981V19.0632C68.5041 20.2153 68.8728 21.1209 69.5065 21.7753C70.1401 22.4321 71.0135 22.7616 72.1287 22.7616C73.0113 22.7616 73.7486 22.5726 74.3293 22.1878C74.9169 21.8099 75.3017 21.2454 75.4815 20.508H79.7697C79.6038 21.5564 79.2052 22.5058 78.5646 23.3423C77.924 24.1856 77.0875 24.8493 76.0391 25.3308C74.993 25.8124 73.7855 26.0544 72.4306 26.0544C70.6609 26.0544 69.1378 25.7226 67.8566 25.0682C66.5754 24.4114 65.5892 23.4713 64.8956 22.25C64.2089 21.0288 63.8633 19.6047 63.8633 17.9779C63.8633 16.3511 64.202 14.904 64.8656 13.6827L64.861 13.685ZM75.6681 16.1045C75.5252 15.139 75.1243 14.3947 74.4837 13.8671C73.8431 13.3394 73.0228 13.0836 72.0343 13.0836C71.0457 13.0836 70.2945 13.3555 69.6447 13.897C68.9972 14.4385 68.6124 15.1782 68.4926 16.0976H75.6658V16.1045H75.6681Z" fill="white"/></g><defs><linearGradient id="paint0_linear_1523_1249" x1="0.380207" y1="12.5376" x2="17.5148" y2="32.0848" gradientUnits="userSpaceOnUse"><stop stop-color="#FDC066"/><stop offset="0.51" stop-color="#D8D3E9"/><stop offset="1" stop-color="#7BD1ED"/></linearGradient><linearGradient id="paint1_linear_1523_1249" x1="6.22847" y1="-2.4218" x2="23.3562" y2="17.1231" gradientUnits="userSpaceOnUse"><stop stop-color="#FDC066"/><stop offset="0.51" stop-color="#D8D3E9"/><stop offset="1" stop-color="#7BD1ED"/></linearGradient><clipPath id="clip0_1523_1249"><rect width="80" height="29.4948" fill="white"/></clipPath></defs></svg>